M48
; DRILL file {KiCad 7.0.2} date Thu Feb 22 21:39:38 2024
; FORMAT={-:-/ absolute / metric / decimal}
; #@! TF.CreationDate,2024-02-22T21:39:38+01:00
; #@! TF.GenerationSoftware,Kicad,Pcbnew,7.0.2
; #@! TF.FileFunction,Plated,1,2,PTH
FMAT,2
METRIC
; #@! TA.AperFunction,Plated,PTH,ComponentDrill
T1C1.400
%
G90
G05
T1
X63.09Y-79.27
X63.09Y-85.62
X63.09Y-91.97
X79.32Y-79.27
X79.32Y-85.62
X79.32Y-91.97
X86.77Y-79.17
X86.77Y-85.52
X86.77Y-91.87
X103.0Y-79.17
X103.0Y-85.52
X103.0Y-91.87
X110.45Y-79.17
X110.45Y-85.52
X110.45Y-91.87
X126.68Y-79.17
X126.68Y-85.52
X126.68Y-91.87
X134.13Y-79.17
X134.13Y-85.52
X134.13Y-91.87
X150.36Y-79.17
X150.36Y-85.52
X150.36Y-91.87
X157.81Y-79.17
X157.81Y-85.52
X157.81Y-91.87
X174.04Y-79.17
X174.04Y-85.52
X174.04Y-91.87
X181.49Y-79.17
X181.49Y-85.52
X181.49Y-91.87
X197.72Y-79.17
X197.72Y-85.52
X197.72Y-91.87
X205.17Y-79.17
X205.17Y-85.52
X205.17Y-91.87
X221.4Y-79.17
X221.4Y-85.52
X221.4Y-91.87
X228.85Y-78.87
X228.85Y-85.22
X228.85Y-91.57
X245.08Y-78.87
X245.08Y-85.22
X245.08Y-91.57
T0
M30
