G04 #@! TF.GenerationSoftware,KiCad,Pcbnew,7.0.2*
G04 #@! TF.CreationDate,2024-02-22T21:39:23+01:00*
G04 #@! TF.ProjectId,jack_io_board,6a61636b-5f69-46f5-9f62-6f6172642e6b,rev?*
G04 #@! TF.SameCoordinates,Original*
G04 #@! TF.FileFunction,Legend,Bot*
G04 #@! TF.FilePolarity,Positive*
%FSLAX46Y46*%
G04 Gerber Fmt 4.6, Leading zero omitted, Abs format (unit mm)*
G04 Created by KiCad (PCBNEW 7.0.2) date 2024-02-22 21:39:23*
%MOMM*%
%LPD*%
G01*
G04 APERTURE LIST*
%ADD10C,3.000000*%
G04 APERTURE END LIST*
%LPC*%
D10*
X79320000Y-85620000D03*
X63090000Y-85620000D03*
X79320000Y-91970000D03*
X63090000Y-91970000D03*
X79320000Y-79270000D03*
X63090000Y-79270000D03*
X103000000Y-85520000D03*
X86770000Y-85520000D03*
X103000000Y-91870000D03*
X86770000Y-91870000D03*
X103000000Y-79170000D03*
X86770000Y-79170000D03*
X126680000Y-85520000D03*
X110450000Y-85520000D03*
X126680000Y-91870000D03*
X110450000Y-91870000D03*
X126680000Y-79170000D03*
X110450000Y-79170000D03*
X150360000Y-85520000D03*
X134130000Y-85520000D03*
X150360000Y-91870000D03*
X134130000Y-91870000D03*
X150360000Y-79170000D03*
X134130000Y-79170000D03*
X174040000Y-85520000D03*
X157810000Y-85520000D03*
X174040000Y-91870000D03*
X157810000Y-91870000D03*
X174040000Y-79170000D03*
X157810000Y-79170000D03*
X197720000Y-85520000D03*
X181490000Y-85520000D03*
X197720000Y-91870000D03*
X181490000Y-91870000D03*
X197720000Y-79170000D03*
X181490000Y-79170000D03*
X221400000Y-85520000D03*
X205170000Y-85520000D03*
X221400000Y-91870000D03*
X205170000Y-91870000D03*
X221400000Y-79170000D03*
X205170000Y-79170000D03*
X245080000Y-85220000D03*
X228850000Y-85220000D03*
X245080000Y-91570000D03*
X228850000Y-91570000D03*
X245080000Y-78870000D03*
X228850000Y-78870000D03*
%LPD*%
M02*
