%TF.GenerationSoftware,KiCad,Pcbnew,7.0.2*%
%TF.CreationDate,2023-11-01T23:53:07+01:00*%
%TF.ProjectId,stm_audio_board_V2,73746d5f-6175-4646-996f-5f626f617264,rev?*%
%TF.SameCoordinates,Original*%
%TF.FileFunction,Copper,L1,Top*%
%TF.FilePolarity,Positive*%
%FSLAX46Y46*%
G04 Gerber Fmt 4.6, Leading zero omitted, Abs format (unit mm)*
G04 Created by KiCad (PCBNEW 7.0.2) date 2023-11-01 23:53:07*
%MOMM*%
%LPD*%
G01*
G04 APERTURE LIST*
G04 Aperture macros list*
%AMRoundRect*
0 Rectangle with rounded corners*
0 $1 Rounding radius*
0 $2 $3 $4 $5 $6 $7 $8 $9 X,Y pos of 4 corners*
0 Add a 4 corners polygon primitive as box body*
4,1,4,$2,$3,$4,$5,$6,$7,$8,$9,$2,$3,0*
0 Add four circle primitives for the rounded corners*
1,1,$1+$1,$2,$3*
1,1,$1+$1,$4,$5*
1,1,$1+$1,$6,$7*
1,1,$1+$1,$8,$9*
0 Add four rect primitives between the rounded corners*
20,1,$1+$1,$2,$3,$4,$5,0*
20,1,$1+$1,$4,$5,$6,$7,0*
20,1,$1+$1,$6,$7,$8,$9,0*
20,1,$1+$1,$8,$9,$2,$3,0*%
G04 Aperture macros list end*
%TA.AperFunction,SMDPad,CuDef*%
%ADD10R,1.725000X2.100000*%
%TD*%
%TA.AperFunction,SMDPad,CuDef*%
%ADD11RoundRect,0.237500X0.300000X0.237500X-0.300000X0.237500X-0.300000X-0.237500X0.300000X-0.237500X0*%
%TD*%
%TA.AperFunction,SMDPad,CuDef*%
%ADD12RoundRect,0.250000X-0.350000X-0.450000X0.350000X-0.450000X0.350000X0.450000X-0.350000X0.450000X0*%
%TD*%
%TA.AperFunction,SMDPad,CuDef*%
%ADD13RoundRect,0.237500X0.237500X-0.300000X0.237500X0.300000X-0.237500X0.300000X-0.237500X-0.300000X0*%
%TD*%
%TA.AperFunction,SMDPad,CuDef*%
%ADD14RoundRect,0.237500X-0.237500X0.300000X-0.237500X-0.300000X0.237500X-0.300000X0.237500X0.300000X0*%
%TD*%
%TA.AperFunction,ComponentPad*%
%ADD15C,5.600000*%
%TD*%
%TA.AperFunction,ComponentPad*%
%ADD16R,2.000000X1.905000*%
%TD*%
%TA.AperFunction,ComponentPad*%
%ADD17O,2.000000X1.905000*%
%TD*%
%TA.AperFunction,SMDPad,CuDef*%
%ADD18RoundRect,0.250000X0.337500X0.475000X-0.337500X0.475000X-0.337500X-0.475000X0.337500X-0.475000X0*%
%TD*%
%TA.AperFunction,ComponentPad*%
%ADD19R,1.500000X1.050000*%
%TD*%
%TA.AperFunction,ComponentPad*%
%ADD20O,1.500000X1.050000*%
%TD*%
%TA.AperFunction,SMDPad,CuDef*%
%ADD21RoundRect,0.150000X0.625000X0.150000X-0.625000X0.150000X-0.625000X-0.150000X0.625000X-0.150000X0*%
%TD*%
%TA.AperFunction,SMDPad,CuDef*%
%ADD22RoundRect,0.150000X-0.150000X0.625000X-0.150000X-0.625000X0.150000X-0.625000X0.150000X0.625000X0*%
%TD*%
%TA.AperFunction,SMDPad,CuDef*%
%ADD23RoundRect,0.250001X-0.624999X0.462499X-0.624999X-0.462499X0.624999X-0.462499X0.624999X0.462499X0*%
%TD*%
%TA.AperFunction,SMDPad,CuDef*%
%ADD24RoundRect,0.237500X-0.300000X-0.237500X0.300000X-0.237500X0.300000X0.237500X-0.300000X0.237500X0*%
%TD*%
%TA.AperFunction,ComponentPad*%
%ADD25R,1.700000X1.700000*%
%TD*%
%TA.AperFunction,SMDPad,CuDef*%
%ADD26RoundRect,0.075000X-0.675000X-0.075000X0.675000X-0.075000X0.675000X0.075000X-0.675000X0.075000X0*%
%TD*%
%TA.AperFunction,SMDPad,CuDef*%
%ADD27RoundRect,0.075000X-0.075000X-0.675000X0.075000X-0.675000X0.075000X0.675000X-0.075000X0.675000X0*%
%TD*%
%TA.AperFunction,ComponentPad*%
%ADD28O,1.700000X1.700000*%
%TD*%
%TA.AperFunction,SMDPad,CuDef*%
%ADD29RoundRect,0.250000X0.450000X-0.350000X0.450000X0.350000X-0.450000X0.350000X-0.450000X-0.350000X0*%
%TD*%
%TA.AperFunction,SMDPad,CuDef*%
%ADD30RoundRect,0.250000X-0.450000X0.350000X-0.450000X-0.350000X0.450000X-0.350000X0.450000X0.350000X0*%
%TD*%
%TA.AperFunction,SMDPad,CuDef*%
%ADD31RoundRect,0.237500X-0.237500X0.250000X-0.237500X-0.250000X0.237500X-0.250000X0.237500X0.250000X0*%
%TD*%
%TA.AperFunction,SMDPad,CuDef*%
%ADD32RoundRect,0.250000X0.350000X0.450000X-0.350000X0.450000X-0.350000X-0.450000X0.350000X-0.450000X0*%
%TD*%
%TA.AperFunction,SMDPad,CuDef*%
%ADD33R,1.000000X0.600000*%
%TD*%
%TA.AperFunction,SMDPad,CuDef*%
%ADD34R,1.600000X1.400000*%
%TD*%
%TA.AperFunction,SMDPad,CuDef*%
%ADD35RoundRect,0.150000X-0.150000X0.825000X-0.150000X-0.825000X0.150000X-0.825000X0.150000X0.825000X0*%
%TD*%
%TA.AperFunction,SMDPad,CuDef*%
%ADD36RoundRect,0.075000X0.700000X0.075000X-0.700000X0.075000X-0.700000X-0.075000X0.700000X-0.075000X0*%
%TD*%
%TA.AperFunction,SMDPad,CuDef*%
%ADD37RoundRect,0.075000X0.075000X0.700000X-0.075000X0.700000X-0.075000X-0.700000X0.075000X-0.700000X0*%
%TD*%
%TA.AperFunction,SMDPad,CuDef*%
%ADD38RoundRect,0.250000X0.475000X-0.337500X0.475000X0.337500X-0.475000X0.337500X-0.475000X-0.337500X0*%
%TD*%
%TA.AperFunction,SMDPad,CuDef*%
%ADD39R,2.000000X1.500000*%
%TD*%
%TA.AperFunction,SMDPad,CuDef*%
%ADD40R,2.000000X3.800000*%
%TD*%
%TA.AperFunction,SMDPad,CuDef*%
%ADD41RoundRect,0.250000X-0.475000X0.337500X-0.475000X-0.337500X0.475000X-0.337500X0.475000X0.337500X0*%
%TD*%
%TA.AperFunction,ComponentPad*%
%ADD42R,1.600000X1.600000*%
%TD*%
%TA.AperFunction,ComponentPad*%
%ADD43C,1.600000*%
%TD*%
%TA.AperFunction,ViaPad*%
%ADD44C,0.800000*%
%TD*%
%TA.AperFunction,Conductor*%
%ADD45C,0.200000*%
%TD*%
%TA.AperFunction,Conductor*%
%ADD46C,0.508000*%
%TD*%
%TA.AperFunction,Conductor*%
%ADD47C,0.762000*%
%TD*%
%TA.AperFunction,Conductor*%
%ADD48C,0.304800*%
%TD*%
%TA.AperFunction,Conductor*%
%ADD49C,1.016000*%
%TD*%
%TA.AperFunction,Conductor*%
%ADD50C,0.250000*%
%TD*%
%TA.AperFunction,Conductor*%
%ADD51C,1.524000*%
%TD*%
%TA.AperFunction,Conductor*%
%ADD52C,0.635000*%
%TD*%
G04 APERTURE END LIST*
D10*
%TO.P,Y2,1,1*%
%TO.N,OSC0*%
X193405000Y-72284000D03*
%TO.P,Y2,2,2*%
%TO.N,GND*%
X193405000Y-75184000D03*
%TO.P,Y2,3,3*%
%TO.N,OSC1*%
X195580000Y-75184000D03*
%TO.P,Y2,4,4*%
%TO.N,GND*%
X195580000Y-72284000D03*
%TD*%
D11*
%TO.P,C39,1*%
%TO.N,Net-(U2B-+)*%
X203714346Y-101487000D03*
%TO.P,C39,2*%
%TO.N,Net-(C39-Pad2)*%
X201989346Y-101487000D03*
%TD*%
%TO.P,C8,1*%
%TO.N,+3.3V*%
X224819500Y-54687000D03*
%TO.P,C8,2*%
%TO.N,GND*%
X223094500Y-54687000D03*
%TD*%
D12*
%TO.P,R14,1*%
%TO.N,Net-(U2B--)*%
X205931000Y-103457000D03*
%TO.P,R14,2*%
%TO.N,Net-(C23-Pad1)*%
X207931000Y-103457000D03*
%TD*%
D13*
%TO.P,C18,1*%
%TO.N,Net-(U4B-+)*%
X219953000Y-110885500D03*
%TO.P,C18,2*%
%TO.N,GND*%
X219953000Y-109160500D03*
%TD*%
D14*
%TO.P,C38,1*%
%TO.N,GND*%
X199959568Y-105676500D03*
%TO.P,C38,2*%
%TO.N,Net-(U2B--)*%
X199959568Y-107401500D03*
%TD*%
D15*
%TO.P,H2,1,1*%
%TO.N,GND*%
X245003000Y-112333000D03*
%TD*%
D13*
%TO.P,C35,1*%
%TO.N,+3.3V*%
X197859000Y-62687500D03*
%TO.P,C35,2*%
%TO.N,GND*%
X197859000Y-60962500D03*
%TD*%
D14*
%TO.P,C43,1*%
%TO.N,GND*%
X210495000Y-113462500D03*
%TO.P,C43,2*%
%TO.N,GUITAR_OUT_L{slash}MONO*%
X210495000Y-115187500D03*
%TD*%
D16*
%TO.P,U3,1,IN*%
%TO.N,PWR_INPUT_12V-18V*%
X244877000Y-60471000D03*
D17*
%TO.P,U3,2,GND*%
%TO.N,GND*%
X244877000Y-63011000D03*
%TO.P,U3,3,OUT*%
%TO.N,5V*%
X244877000Y-65551000D03*
%TD*%
D11*
%TO.P,C20,1*%
%TO.N,Net-(U4A--)*%
X230247500Y-108421000D03*
%TO.P,C20,2*%
%TO.N,Net-(C20-Pad2)*%
X228522500Y-108421000D03*
%TD*%
D18*
%TO.P,C69,1*%
%TO.N,PWR_INPUT_12V-18V*%
X244058500Y-89057000D03*
%TO.P,C69,2*%
%TO.N,GND*%
X241983500Y-89057000D03*
%TD*%
D11*
%TO.P,C23,1*%
%TO.N,Net-(C23-Pad1)*%
X207593500Y-99455000D03*
%TO.P,C23,2*%
%TO.N,GND*%
X205868500Y-99455000D03*
%TD*%
D12*
%TO.P,R4,1*%
%TO.N,Net-(U4A--)*%
X232353000Y-110313000D03*
%TO.P,R4,2*%
%TO.N,Net-(C73-Pad1)*%
X234353000Y-110313000D03*
%TD*%
D19*
%TO.P,U6,1,IN*%
%TO.N,Net-(D3-K)*%
X245325000Y-99275000D03*
D20*
%TO.P,U6,2,GND*%
%TO.N,GND*%
X245325000Y-100545000D03*
%TO.P,U6,3,OUT*%
%TO.N,+9V*%
X245325000Y-101815000D03*
%TD*%
D13*
%TO.P,C81,1*%
%TO.N,+3.3V*%
X225843000Y-89913500D03*
%TO.P,C81,2*%
%TO.N,GND*%
X225843000Y-88188500D03*
%TD*%
D21*
%TO.P,U2,1*%
%TO.N,Net-(R23-Pad2)*%
X207822000Y-109986000D03*
%TO.P,U2,2,-*%
%TO.N,Net-(U2A--)*%
X207822000Y-108716000D03*
%TO.P,U2,3,+*%
%TO.N,Net-(U2A-+)*%
X207822000Y-107446000D03*
%TO.P,U2,4,V-*%
%TO.N,-9V*%
X207822000Y-106176000D03*
%TO.P,U2,5,+*%
%TO.N,Net-(U2B-+)*%
X202472000Y-106176000D03*
%TO.P,U2,6,-*%
%TO.N,Net-(U2B--)*%
X202472000Y-107446000D03*
%TO.P,U2,7*%
%TO.N,Net-(R17-Pad2)*%
X202472000Y-108716000D03*
%TO.P,U2,8,V+*%
%TO.N,+9V*%
X202472000Y-109986000D03*
%TD*%
D14*
%TO.P,C58,1*%
%TO.N,+3.3V*%
X229355000Y-68074500D03*
%TO.P,C58,2*%
%TO.N,GND*%
X229355000Y-69799500D03*
%TD*%
D22*
%TO.P,U4,1*%
%TO.N,Net-(C20-Pad2)*%
X226018000Y-102934000D03*
%TO.P,U4,2,-*%
%TO.N,Net-(U4A--)*%
X224748000Y-102934000D03*
%TO.P,U4,3,+*%
%TO.N,Net-(U4A-+)*%
X223478000Y-102934000D03*
%TO.P,U4,4,V-*%
%TO.N,-9V*%
X222208000Y-102934000D03*
%TO.P,U4,5,+*%
%TO.N,Net-(U4B-+)*%
X222208000Y-108284000D03*
%TO.P,U4,6,-*%
%TO.N,Net-(U4B--)*%
X223478000Y-108284000D03*
%TO.P,U4,7*%
%TO.N,Net-(C21-Pad2)*%
X224748000Y-108284000D03*
%TO.P,U4,8,V+*%
%TO.N,+9V*%
X226018000Y-108284000D03*
%TD*%
D23*
%TO.P,D5,1,K*%
%TO.N,5V*%
X234875000Y-73208500D03*
%TO.P,D5,2,A*%
%TO.N,+3.3V*%
X234875000Y-76183500D03*
%TD*%
D11*
%TO.P,C27,1*%
%TO.N,Net-(D2-K)*%
X186259500Y-98365000D03*
%TO.P,C27,2*%
%TO.N,GND*%
X184534500Y-98365000D03*
%TD*%
D24*
%TO.P,C30,1*%
%TO.N,+3.3VA*%
X194186500Y-103475000D03*
%TO.P,C30,2*%
%TO.N,GND*%
X195911500Y-103475000D03*
%TD*%
D11*
%TO.P,C22,1*%
%TO.N,GND*%
X203648654Y-99455000D03*
%TO.P,C22,2*%
%TO.N,Net-(C22-Pad2)*%
X201923654Y-99455000D03*
%TD*%
D25*
%TO.P,J4,1,Pin_1*%
%TO.N,TAP_TEMPO_INPUT*%
X232457000Y-49069000D03*
%TD*%
D13*
%TO.P,C48,1*%
%TO.N,Net-(D3-K)*%
X247555000Y-96629976D03*
%TO.P,C48,2*%
%TO.N,GND*%
X247555000Y-94904976D03*
%TD*%
D26*
%TO.P,U1,1,PE2*%
%TO.N,DISPLAY_SCK*%
X201447000Y-58846000D03*
%TO.P,U1,2,PE3*%
%TO.N,DISPLAY_CS*%
X201447000Y-59346000D03*
%TO.P,U1,3,PE4*%
%TO.N,DISPLAY_DC*%
X201447000Y-59846000D03*
%TO.P,U1,4,PE5*%
%TO.N,DISPLAY_MISO*%
X201447000Y-60346000D03*
%TO.P,U1,5,PE6*%
%TO.N,DISPLAY_MOSI*%
X201447000Y-60846000D03*
%TO.P,U1,6,VSS*%
%TO.N,GND*%
X201447000Y-61346000D03*
%TO.P,U1,7,VDD*%
%TO.N,+3.3V*%
X201447000Y-61846000D03*
%TO.P,U1,8,VBAT*%
X201447000Y-62346000D03*
%TO.P,U1,9,PC13*%
%TO.N,unconnected-(U1-PC13-Pad9)*%
X201447000Y-62846000D03*
%TO.P,U1,10,PC14*%
%TO.N,unconnected-(U1-PC14-Pad10)*%
X201447000Y-63346000D03*
%TO.P,U1,11,PC15*%
%TO.N,unconnected-(U1-PC15-Pad11)*%
X201447000Y-63846000D03*
%TO.P,U1,12,VSS*%
%TO.N,GND*%
X201447000Y-64346000D03*
%TO.P,U1,13,VDD*%
%TO.N,+3.3V*%
X201447000Y-64846000D03*
%TO.P,U1,14,VSSSMPS*%
%TO.N,GND*%
X201447000Y-65346000D03*
%TO.P,U1,15,VLXSMPS*%
X201447000Y-65846000D03*
%TO.P,U1,16,VDDSMPS*%
X201447000Y-66346000D03*
%TO.P,U1,17,VFBSMPS*%
X201447000Y-66846000D03*
%TO.P,U1,18,PF0*%
%TO.N,unconnected-(U1-PF0-Pad18)*%
X201447000Y-67346000D03*
%TO.P,U1,19,PF1*%
%TO.N,unconnected-(U1-PF1-Pad19)*%
X201447000Y-67846000D03*
%TO.P,U1,20,PF2*%
%TO.N,unconnected-(U1-PF2-Pad20)*%
X201447000Y-68346000D03*
%TO.P,U1,21,PF3*%
%TO.N,POT1*%
X201447000Y-68846000D03*
%TO.P,U1,22,PF4*%
%TO.N,unconnected-(U1-PF4-Pad22)*%
X201447000Y-69346000D03*
%TO.P,U1,23,PF5*%
%TO.N,POT2*%
X201447000Y-69846000D03*
%TO.P,U1,24,VSS*%
%TO.N,GND*%
X201447000Y-70346000D03*
%TO.P,U1,25,VDD*%
%TO.N,+3.3V*%
X201447000Y-70846000D03*
%TO.P,U1,26,PF6*%
%TO.N,POT3*%
X201447000Y-71346000D03*
%TO.P,U1,27,PF7*%
%TO.N,POT4*%
X201447000Y-71846000D03*
%TO.P,U1,28,PF8*%
%TO.N,POT5*%
X201447000Y-72346000D03*
%TO.P,U1,29,PF9*%
%TO.N,POT6*%
X201447000Y-72846000D03*
%TO.P,U1,30,PF10*%
%TO.N,POT_EXT*%
X201447000Y-73346000D03*
%TO.P,U1,31,PH0*%
%TO.N,OSC0*%
X201447000Y-73846000D03*
%TO.P,U1,32,PH1*%
%TO.N,OSC1*%
X201447000Y-74346000D03*
%TO.P,U1,33,NRST*%
%TO.N,/MCU/NRST*%
X201447000Y-74846000D03*
%TO.P,U1,34,PC0*%
%TO.N,unconnected-(U1-PC0-Pad34)*%
X201447000Y-75346000D03*
%TO.P,U1,35,PC1*%
%TO.N,AD1939_I2S2_SDO*%
X201447000Y-75846000D03*
%TO.P,U1,36,PC2_C*%
%TO.N,unconnected-(U1-PC2_C-Pad36)*%
X201447000Y-76346000D03*
%TO.P,U1,37,PC3_C*%
%TO.N,unconnected-(U1-PC3_C-Pad37)*%
X201447000Y-76846000D03*
%TO.P,U1,38,VSSA*%
%TO.N,GND*%
X201447000Y-77346000D03*
%TO.P,U1,39,VREF+*%
%TO.N,+3.3V*%
X201447000Y-77846000D03*
%TO.P,U1,40,VDDA*%
X201447000Y-78346000D03*
%TO.P,U1,41,PA0*%
%TO.N,unconnected-(U1-PA0-Pad41)*%
X201447000Y-78846000D03*
%TO.P,U1,42,PA1*%
%TO.N,unconnected-(U1-PA1-Pad42)*%
X201447000Y-79346000D03*
%TO.P,U1,43,PA2*%
%TO.N,unconnected-(U1-PA2-Pad43)*%
X201447000Y-79846000D03*
%TO.P,U1,44,VDD*%
%TO.N,+3.3V*%
X201447000Y-80346000D03*
D27*
%TO.P,U1,45,VSS*%
%TO.N,GND*%
X203372000Y-82271000D03*
%TO.P,U1,46,PA3*%
%TO.N,unconnected-(U1-PA3-Pad46)*%
X203872000Y-82271000D03*
%TO.P,U1,47,VSS*%
%TO.N,GND*%
X204372000Y-82271000D03*
%TO.P,U1,48,VDD*%
%TO.N,+3.3V*%
X204872000Y-82271000D03*
%TO.P,U1,49,PA4*%
%TO.N,AD1939_I2S1_WS*%
X205372000Y-82271000D03*
%TO.P,U1,50,PA5*%
%TO.N,AD1939_I2S1_CK*%
X205872000Y-82271000D03*
%TO.P,U1,51,PA6*%
%TO.N,unconnected-(U1-PA6-Pad51)*%
X206372000Y-82271000D03*
%TO.P,U1,52,PA7*%
%TO.N,unconnected-(U1-PA7-Pad52)*%
X206872000Y-82271000D03*
%TO.P,U1,53,PC4*%
%TO.N,unconnected-(U1-PC4-Pad53)*%
X207372000Y-82271000D03*
%TO.P,U1,54,PC5*%
%TO.N,unconnected-(U1-PC5-Pad54)*%
X207872000Y-82271000D03*
%TO.P,U1,55,PB0*%
%TO.N,unconnected-(U1-PB0-Pad55)*%
X208372000Y-82271000D03*
%TO.P,U1,56,PB1*%
%TO.N,unconnected-(U1-PB1-Pad56)*%
X208872000Y-82271000D03*
%TO.P,U1,57,PB2*%
%TO.N,AD1939_SPI3_MOSI*%
X209372000Y-82271000D03*
%TO.P,U1,58,PF11*%
%TO.N,unconnected-(U1-PF11-Pad58)*%
X209872000Y-82271000D03*
%TO.P,U1,59,PF12*%
%TO.N,unconnected-(U1-PF12-Pad59)*%
X210372000Y-82271000D03*
%TO.P,U1,60,PF13*%
%TO.N,AD1939_SPI_CS*%
X210872000Y-82271000D03*
%TO.P,U1,61,PF14*%
%TO.N,unconnected-(U1-PF14-Pad61)*%
X211372000Y-82271000D03*
%TO.P,U1,62,PF15*%
%TO.N,unconnected-(U1-PF15-Pad62)*%
X211872000Y-82271000D03*
%TO.P,U1,63,PG0*%
%TO.N,unconnected-(U1-PG0-Pad63)*%
X212372000Y-82271000D03*
%TO.P,U1,64,VSS*%
%TO.N,GND*%
X212872000Y-82271000D03*
%TO.P,U1,65,VDD*%
%TO.N,+3.3V*%
X213372000Y-82271000D03*
%TO.P,U1,66,PG1*%
%TO.N,unconnected-(U1-PG1-Pad66)*%
X213872000Y-82271000D03*
%TO.P,U1,67,PE7*%
%TO.N,unconnected-(U1-PE7-Pad67)*%
X214372000Y-82271000D03*
%TO.P,U1,68,PE8*%
%TO.N,unconnected-(U1-PE8-Pad68)*%
X214872000Y-82271000D03*
%TO.P,U1,69,PE9*%
%TO.N,unconnected-(U1-PE9-Pad69)*%
X215372000Y-82271000D03*
%TO.P,U1,70,VSS*%
%TO.N,GND*%
X215872000Y-82271000D03*
%TO.P,U1,71,VDD*%
%TO.N,+3.3V*%
X216372000Y-82271000D03*
%TO.P,U1,72,PE10*%
%TO.N,unconnected-(U1-PE10-Pad72)*%
X216872000Y-82271000D03*
%TO.P,U1,73,PE11*%
%TO.N,unconnected-(U1-PE11-Pad73)*%
X217372000Y-82271000D03*
%TO.P,U1,74,PE12*%
%TO.N,unconnected-(U1-PE12-Pad74)*%
X217872000Y-82271000D03*
%TO.P,U1,75,PE13*%
%TO.N,unconnected-(U1-PE13-Pad75)*%
X218372000Y-82271000D03*
%TO.P,U1,76,PE14*%
%TO.N,unconnected-(U1-PE14-Pad76)*%
X218872000Y-82271000D03*
%TO.P,U1,77,PE15*%
%TO.N,unconnected-(U1-PE15-Pad77)*%
X219372000Y-82271000D03*
%TO.P,U1,78,PB10*%
%TO.N,AD1939_I2S2_CK*%
X219872000Y-82271000D03*
%TO.P,U1,79,PB11*%
%TO.N,unconnected-(U1-PB11-Pad79)*%
X220372000Y-82271000D03*
%TO.P,U1,80,VCAP*%
%TO.N,Net-(C1-Pad1)*%
X220872000Y-82271000D03*
%TO.P,U1,81,VSS*%
%TO.N,GND*%
X221372000Y-82271000D03*
%TO.P,U1,82,VDDLDO*%
%TO.N,+3.3V*%
X221872000Y-82271000D03*
%TO.P,U1,83,VSS*%
%TO.N,GND*%
X222372000Y-82271000D03*
%TO.P,U1,84,VDD*%
%TO.N,+3.3V*%
X222872000Y-82271000D03*
%TO.P,U1,85,PB12*%
%TO.N,AD1939_I2S2_WS*%
X223372000Y-82271000D03*
%TO.P,U1,86,PB13*%
%TO.N,unconnected-(U1-PB13-Pad86)*%
X223872000Y-82271000D03*
%TO.P,U1,87,PB14*%
%TO.N,unconnected-(U1-PB14-Pad87)*%
X224372000Y-82271000D03*
%TO.P,U1,88,PB15*%
%TO.N,unconnected-(U1-PB15-Pad88)*%
X224872000Y-82271000D03*
D26*
%TO.P,U1,89,PD8*%
%TO.N,unconnected-(U1-PD8-Pad89)*%
X226797000Y-80346000D03*
%TO.P,U1,90,PD9*%
%TO.N,unconnected-(U1-PD9-Pad90)*%
X226797000Y-79846000D03*
%TO.P,U1,91,PD10*%
%TO.N,unconnected-(U1-PD10-Pad91)*%
X226797000Y-79346000D03*
%TO.P,U1,92,VDD*%
%TO.N,+3.3V*%
X226797000Y-78846000D03*
%TO.P,U1,93,VSS*%
%TO.N,GND*%
X226797000Y-78346000D03*
%TO.P,U1,94,PD11*%
%TO.N,unconnected-(U1-PD11-Pad94)*%
X226797000Y-77846000D03*
%TO.P,U1,95,PD12*%
%TO.N,unconnected-(U1-PD12-Pad95)*%
X226797000Y-77346000D03*
%TO.P,U1,96,PD13*%
%TO.N,unconnected-(U1-PD13-Pad96)*%
X226797000Y-76846000D03*
%TO.P,U1,97,PD14*%
%TO.N,unconnected-(U1-PD14-Pad97)*%
X226797000Y-76346000D03*
%TO.P,U1,98,PD15*%
%TO.N,unconnected-(U1-PD15-Pad98)*%
X226797000Y-75846000D03*
%TO.P,U1,99,VDD*%
%TO.N,+3.3V*%
X226797000Y-75346000D03*
%TO.P,U1,100,VSS*%
%TO.N,GND*%
X226797000Y-74846000D03*
%TO.P,U1,101,VCAPDSI*%
%TO.N,Net-(U1-VCAPDSI)*%
X226797000Y-74346000D03*
%TO.P,U1,102,VDD12DSI*%
%TO.N,+3.3V*%
X226797000Y-73846000D03*
%TO.P,U1,103,DSI_D0P*%
%TO.N,unconnected-(U1-DSI_D0P-Pad103)*%
X226797000Y-73346000D03*
%TO.P,U1,104,DSI_D0N*%
%TO.N,unconnected-(U1-DSI_D0N-Pad104)*%
X226797000Y-72846000D03*
%TO.P,U1,105,VSSDSI*%
%TO.N,GND*%
X226797000Y-72346000D03*
%TO.P,U1,106,DSI_CKP*%
%TO.N,unconnected-(U1-DSI_CKP-Pad106)*%
X226797000Y-71846000D03*
%TO.P,U1,107,DSI_CKN*%
%TO.N,unconnected-(U1-DSI_CKN-Pad107)*%
X226797000Y-71346000D03*
%TO.P,U1,108,VDD12DSI*%
%TO.N,+3.3V*%
X226797000Y-70846000D03*
%TO.P,U1,109,VSSDSI*%
%TO.N,GND*%
X226797000Y-70346000D03*
%TO.P,U1,110,PG2*%
%TO.N,unconnected-(U1-PG2-Pad110)*%
X226797000Y-69846000D03*
%TO.P,U1,111,PG3*%
%TO.N,unconnected-(U1-PG3-Pad111)*%
X226797000Y-69346000D03*
%TO.P,U1,112,VSS*%
%TO.N,GND*%
X226797000Y-68846000D03*
%TO.P,U1,113,VDD*%
%TO.N,+3.3V*%
X226797000Y-68346000D03*
%TO.P,U1,114,PG4*%
%TO.N,unconnected-(U1-PG4-Pad114)*%
X226797000Y-67846000D03*
%TO.P,U1,115,PG5*%
%TO.N,unconnected-(U1-PG5-Pad115)*%
X226797000Y-67346000D03*
%TO.P,U1,116,PG6*%
%TO.N,unconnected-(U1-PG6-Pad116)*%
X226797000Y-66846000D03*
%TO.P,U1,117,PG7*%
%TO.N,unconnected-(U1-PG7-Pad117)*%
X226797000Y-66346000D03*
%TO.P,U1,118,PG8*%
%TO.N,EXT_INT_BUTTON*%
X226797000Y-65846000D03*
%TO.P,U1,119,VSS*%
%TO.N,GND*%
X226797000Y-65346000D03*
%TO.P,U1,120,VDD50_USB*%
%TO.N,+3.3V*%
X226797000Y-64846000D03*
%TO.P,U1,121,VDD33_USB*%
X226797000Y-64346000D03*
%TO.P,U1,122,PC6*%
%TO.N,unconnected-(U1-PC6-Pad122)*%
X226797000Y-63846000D03*
%TO.P,U1,123,PC7*%
%TO.N,unconnected-(U1-PC7-Pad123)*%
X226797000Y-63346000D03*
%TO.P,U1,124,PC8*%
%TO.N,unconnected-(U1-PC8-Pad124)*%
X226797000Y-62846000D03*
%TO.P,U1,125,PC9*%
%TO.N,unconnected-(U1-PC9-Pad125)*%
X226797000Y-62346000D03*
%TO.P,U1,126,VDD*%
%TO.N,+3.3V*%
X226797000Y-61846000D03*
%TO.P,U1,127,PA8*%
%TO.N,unconnected-(U1-PA8-Pad127)*%
X226797000Y-61346000D03*
%TO.P,U1,128,PA9*%
%TO.N,unconnected-(U1-PA9-Pad128)*%
X226797000Y-60846000D03*
%TO.P,U1,129,PA10*%
%TO.N,unconnected-(U1-PA10-Pad129)*%
X226797000Y-60346000D03*
%TO.P,U1,130,PA11*%
%TO.N,unconnected-(U1-PA11-Pad130)*%
X226797000Y-59846000D03*
%TO.P,U1,131,PA12*%
%TO.N,unconnected-(U1-PA12-Pad131)*%
X226797000Y-59346000D03*
%TO.P,U1,132,PA13*%
%TO.N,SWDIO*%
X226797000Y-58846000D03*
D27*
%TO.P,U1,133,VCAP*%
%TO.N,Net-(C1-Pad1)*%
X224872000Y-56921000D03*
%TO.P,U1,134,VSS*%
%TO.N,GND*%
X224372000Y-56921000D03*
%TO.P,U1,135,VDDLDO*%
%TO.N,+3.3V*%
X223872000Y-56921000D03*
%TO.P,U1,136,VDD*%
X223372000Y-56921000D03*
%TO.P,U1,137,VSS*%
%TO.N,GND*%
X222872000Y-56921000D03*
%TO.P,U1,138,PA14*%
%TO.N,SWCLK*%
X222372000Y-56921000D03*
%TO.P,U1,139,PA15*%
%TO.N,unconnected-(U1-PA15-Pad139)*%
X221872000Y-56921000D03*
%TO.P,U1,140,PC10*%
%TO.N,AD1939_SPI3_CLK*%
X221372000Y-56921000D03*
%TO.P,U1,141,PC11*%
%TO.N,AD1939_SPI3_MISO*%
X220872000Y-56921000D03*
%TO.P,U1,142,PC12*%
%TO.N,unconnected-(U1-PC12-Pad142)*%
X220372000Y-56921000D03*
%TO.P,U1,143,PD0*%
%TO.N,unconnected-(U1-PD0-Pad143)*%
X219872000Y-56921000D03*
%TO.P,U1,144,PD1*%
%TO.N,unconnected-(U1-PD1-Pad144)*%
X219372000Y-56921000D03*
%TO.P,U1,145,PD2*%
%TO.N,unconnected-(U1-PD2-Pad145)*%
X218872000Y-56921000D03*
%TO.P,U1,146,PD3*%
%TO.N,unconnected-(U1-PD3-Pad146)*%
X218372000Y-56921000D03*
%TO.P,U1,147,PD4*%
%TO.N,unconnected-(U1-PD4-Pad147)*%
X217872000Y-56921000D03*
%TO.P,U1,148,PD5*%
%TO.N,unconnected-(U1-PD5-Pad148)*%
X217372000Y-56921000D03*
%TO.P,U1,149,PD6*%
%TO.N,unconnected-(U1-PD6-Pad149)*%
X216872000Y-56921000D03*
%TO.P,U1,150,PD7*%
%TO.N,unconnected-(U1-PD7-Pad150)*%
X216372000Y-56921000D03*
%TO.P,U1,151,VSS*%
%TO.N,GND*%
X215872000Y-56921000D03*
%TO.P,U1,152,VDD*%
%TO.N,+3.3V*%
X215372000Y-56921000D03*
%TO.P,U1,153,PG9*%
%TO.N,AD1939_I2S1_SDI*%
X214872000Y-56921000D03*
%TO.P,U1,154,PG10*%
%TO.N,unconnected-(U1-PG10-Pad154)*%
X214372000Y-56921000D03*
%TO.P,U1,155,PG11*%
%TO.N,unconnected-(U1-PG11-Pad155)*%
X213872000Y-56921000D03*
%TO.P,U1,156,PG12*%
%TO.N,unconnected-(U1-PG12-Pad156)*%
X213372000Y-56921000D03*
%TO.P,U1,157,PG13*%
%TO.N,unconnected-(U1-PG13-Pad157)*%
X212872000Y-56921000D03*
%TO.P,U1,158,PG14*%
%TO.N,unconnected-(U1-PG14-Pad158)*%
X212372000Y-56921000D03*
%TO.P,U1,159,VSS*%
%TO.N,GND*%
X211872000Y-56921000D03*
%TO.P,U1,160,VDD*%
%TO.N,+3.3V*%
X211372000Y-56921000D03*
%TO.P,U1,161,PG15*%
%TO.N,unconnected-(U1-PG15-Pad161)*%
X210872000Y-56921000D03*
%TO.P,U1,162,PB3*%
%TO.N,unconnected-(U1-PB3-Pad162)*%
X210372000Y-56921000D03*
%TO.P,U1,163,PB4*%
%TO.N,unconnected-(U1-PB4-Pad163)*%
X209872000Y-56921000D03*
%TO.P,U1,164,PB5*%
%TO.N,unconnected-(U1-PB5-Pad164)*%
X209372000Y-56921000D03*
%TO.P,U1,165,PB6*%
%TO.N,unconnected-(U1-PB6-Pad165)*%
X208872000Y-56921000D03*
%TO.P,U1,166,PB7*%
%TO.N,unconnected-(U1-PB7-Pad166)*%
X208372000Y-56921000D03*
%TO.P,U1,167,BOOT0*%
%TO.N,Net-(U1-BOOT0)*%
X207872000Y-56921000D03*
%TO.P,U1,168,PB8*%
%TO.N,unconnected-(U1-PB8-Pad168)*%
X207372000Y-56921000D03*
%TO.P,U1,169,PB9*%
%TO.N,TOUCH_IRQ*%
X206872000Y-56921000D03*
%TO.P,U1,170,PE0*%
%TO.N,DISPLAY_RST*%
X206372000Y-56921000D03*
%TO.P,U1,171,PE1*%
%TO.N,TOUCH_CS*%
X205872000Y-56921000D03*
%TO.P,U1,172,VCAP*%
%TO.N,Net-(C1-Pad1)*%
X205372000Y-56921000D03*
%TO.P,U1,173,VSS*%
%TO.N,GND*%
X204872000Y-56921000D03*
%TO.P,U1,174,PDR_ON*%
%TO.N,unconnected-(U1-PDR_ON-Pad174)*%
X204372000Y-56921000D03*
%TO.P,U1,175,VDDLDO*%
%TO.N,+3.3V*%
X203872000Y-56921000D03*
%TO.P,U1,176,VDD*%
X203372000Y-56921000D03*
%TD*%
D25*
%TO.P,J5,1,Pin_1*%
%TO.N,+3.3V*%
X192739000Y-48975000D03*
D28*
%TO.P,J5,2,Pin_2*%
%TO.N,GND*%
X195279000Y-48975000D03*
%TO.P,J5,3,Pin_3*%
%TO.N,DISPLAY_CS*%
X197819000Y-48975000D03*
%TO.P,J5,4,Pin_4*%
%TO.N,DISPLAY_RST*%
X200359000Y-48975000D03*
%TO.P,J5,5,Pin_5*%
%TO.N,DISPLAY_DC*%
X202899000Y-48975000D03*
%TO.P,J5,6,Pin_6*%
%TO.N,DISPLAY_MOSI*%
X205439000Y-48975000D03*
%TO.P,J5,7,Pin_7*%
%TO.N,DISPLAY_SCK*%
X207979000Y-48975000D03*
%TO.P,J5,8,Pin_8*%
%TO.N,DISPLAY_MISO*%
X210519000Y-48975000D03*
%TO.P,J5,9,Pin_9*%
%TO.N,TOUCH_CS*%
X213059000Y-48975000D03*
%TO.P,J5,10,Pin_10*%
%TO.N,TOUCH_IRQ*%
X215599000Y-48975000D03*
%TD*%
D13*
%TO.P,C31,1*%
%TO.N,GND*%
X197677000Y-73093500D03*
%TO.P,C31,2*%
%TO.N,OSC0*%
X197677000Y-71368500D03*
%TD*%
D23*
%TO.P,D3,1,K*%
%TO.N,Net-(D3-K)*%
X240937000Y-98493500D03*
%TO.P,D3,2,A*%
%TO.N,+9V*%
X240937000Y-101468500D03*
%TD*%
D14*
%TO.P,C37,1*%
%TO.N,GND*%
X197677000Y-74677834D03*
%TO.P,C37,2*%
%TO.N,OSC1*%
X197677000Y-76402834D03*
%TD*%
D13*
%TO.P,C78,1*%
%TO.N,+3.3V*%
X229863000Y-79451500D03*
%TO.P,C78,2*%
%TO.N,GND*%
X229863000Y-77726500D03*
%TD*%
%TO.P,C89,1*%
%TO.N,+9V*%
X199913000Y-111091500D03*
%TO.P,C89,2*%
%TO.N,GND*%
X199913000Y-109366500D03*
%TD*%
D12*
%TO.P,R1,1*%
%TO.N,Net-(U1-BOOT0)*%
X209328000Y-54356000D03*
%TO.P,R1,2*%
%TO.N,GND*%
X211328000Y-54356000D03*
%TD*%
D29*
%TO.P,R17,1*%
%TO.N,Net-(C42-Pad1)*%
X202911284Y-115125000D03*
%TO.P,R17,2*%
%TO.N,Net-(R17-Pad2)*%
X202911284Y-113125000D03*
%TD*%
D15*
%TO.P,H4,1,1*%
%TO.N,GND*%
X187599000Y-49887000D03*
%TD*%
D12*
%TO.P,R8,1*%
%TO.N,ADC1N*%
X217007000Y-105741000D03*
%TO.P,R8,2*%
%TO.N,Net-(C20-Pad2)*%
X219007000Y-105741000D03*
%TD*%
D30*
%TO.P,R27,1*%
%TO.N,DAC1L*%
X206031000Y-95641580D03*
%TO.P,R27,2*%
%TO.N,Net-(C23-Pad1)*%
X206031000Y-97641580D03*
%TD*%
D12*
%TO.P,R32,1*%
%TO.N,GND*%
X205931000Y-101521000D03*
%TO.P,R32,2*%
%TO.N,Net-(C23-Pad1)*%
X207931000Y-101521000D03*
%TD*%
%TO.P,R5,1*%
%TO.N,Net-(C20-Pad2)*%
X228185000Y-110351000D03*
%TO.P,R5,2*%
%TO.N,Net-(U4A--)*%
X230185000Y-110351000D03*
%TD*%
D24*
%TO.P,C60,1*%
%TO.N,+3.3V*%
X229412500Y-71845000D03*
%TO.P,C60,2*%
%TO.N,GND*%
X231137500Y-71845000D03*
%TD*%
D29*
%TO.P,R18,1*%
%TO.N,GUITAR_OUT_L{slash}MONO*%
X208254142Y-115125000D03*
%TO.P,R18,2*%
%TO.N,GND*%
X208254142Y-113125000D03*
%TD*%
D11*
%TO.P,C19,1*%
%TO.N,GND*%
X230247500Y-114819000D03*
%TO.P,C19,2*%
%TO.N,Net-(C19-Pad2)*%
X228522500Y-114819000D03*
%TD*%
D31*
%TO.P,FB4,1*%
%TO.N,5V*%
X186442000Y-91550500D03*
%TO.P,FB4,2*%
%TO.N,Net-(D2-K)*%
X186442000Y-93375500D03*
%TD*%
D11*
%TO.P,C73,1*%
%TO.N,Net-(C73-Pad1)*%
X234015500Y-112533000D03*
%TO.P,C73,2*%
%TO.N,Net-(C19-Pad2)*%
X232290500Y-112533000D03*
%TD*%
D15*
%TO.P,H3,1,1*%
%TO.N,GND*%
X245278000Y-49887000D03*
%TD*%
D32*
%TO.P,R7,1*%
%TO.N,Net-(C21-Pad2)*%
X225315000Y-110663000D03*
%TO.P,R7,2*%
%TO.N,Net-(U4B--)*%
X223315000Y-110663000D03*
%TD*%
D33*
%TO.P,D7,1,K*%
%TO.N,GND*%
X196258000Y-113487000D03*
%TO.P,D7,2,A*%
%TO.N,Net-(D7-A)*%
X196258000Y-114787000D03*
%TO.P,D7,3*%
%TO.N,N/C*%
X198258000Y-114787000D03*
%TO.P,D7,4*%
X198258000Y-113487000D03*
%TD*%
D29*
%TO.P,R31,1*%
%TO.N,Net-(C22-Pad2)*%
X199739568Y-103213846D03*
%TO.P,R31,2*%
%TO.N,Net-(C39-Pad2)*%
X199739568Y-101213846D03*
%TD*%
D11*
%TO.P,C24,1*%
%TO.N,GND*%
X218697500Y-103759000D03*
%TO.P,C24,2*%
%TO.N,ADC1N*%
X216972500Y-103759000D03*
%TD*%
D30*
%TO.P,R11,1*%
%TO.N,Net-(U4B-+)*%
X217391000Y-109175000D03*
%TO.P,R11,2*%
%TO.N,AD1939_CM*%
X217391000Y-111175000D03*
%TD*%
D14*
%TO.P,C3,1*%
%TO.N,+3.3V*%
X229355000Y-64518500D03*
%TO.P,C3,2*%
%TO.N,GND*%
X229355000Y-66243500D03*
%TD*%
D24*
%TO.P,C21,1*%
%TO.N,Net-(U4B--)*%
X223252500Y-112709000D03*
%TO.P,C21,2*%
%TO.N,Net-(C21-Pad2)*%
X224977500Y-112709000D03*
%TD*%
D34*
%TO.P,SW1,1,A*%
%TO.N,/MCU/NRST*%
X191369000Y-84063000D03*
X198569000Y-84063000D03*
%TO.P,SW1,2,B*%
%TO.N,GND*%
X191369000Y-87063000D03*
X198569000Y-87063000D03*
%TD*%
D15*
%TO.P,H1,1,1*%
%TO.N,GND*%
X187324000Y-112058000D03*
%TD*%
D18*
%TO.P,C104,1*%
%TO.N,5V*%
X187479500Y-89325000D03*
%TO.P,C104,2*%
%TO.N,GND*%
X185404500Y-89325000D03*
%TD*%
D13*
%TO.P,C12,1*%
%TO.N,+3.3V*%
X201605000Y-55223500D03*
%TO.P,C12,2*%
%TO.N,GND*%
X201605000Y-53498500D03*
%TD*%
D25*
%TO.P,J6,1,Pin_1*%
%TO.N,GND*%
X186229000Y-84563000D03*
D28*
%TO.P,J6,2,Pin_2*%
%TO.N,POT_EXT*%
X186229000Y-82023000D03*
%TO.P,J6,3,Pin_3*%
%TO.N,+3.3V*%
X186229000Y-79483000D03*
%TD*%
D35*
%TO.P,7660S1,1,BOOST*%
%TO.N,+9V*%
X240834000Y-104616000D03*
%TO.P,7660S1,2,CAP+*%
%TO.N,Net-(7660S1-CAP+)*%
X239564000Y-104616000D03*
%TO.P,7660S1,3,GND*%
%TO.N,GND*%
X238294000Y-104616000D03*
%TO.P,7660S1,4,CAP-*%
%TO.N,Net-(7660S1-CAP-)*%
X237024000Y-104616000D03*
%TO.P,7660S1,5,VOUT*%
%TO.N,-9V*%
X237024000Y-109566000D03*
%TO.P,7660S1,6,LV*%
%TO.N,unconnected-(7660S1-LV-Pad6)*%
X238294000Y-109566000D03*
%TO.P,7660S1,7,OSC*%
%TO.N,unconnected-(7660S1-OSC-Pad7)*%
X239564000Y-109566000D03*
%TO.P,7660S1,8,V+*%
%TO.N,+9V*%
X240834000Y-109566000D03*
%TD*%
D18*
%TO.P,C1,1*%
%TO.N,Net-(C1-Pad1)*%
X205715500Y-54250000D03*
%TO.P,C1,2*%
%TO.N,GND*%
X203640500Y-54250000D03*
%TD*%
D25*
%TO.P,J7,1,Pin_1*%
%TO.N,GND*%
X186229000Y-75455000D03*
D28*
%TO.P,J7,2,Pin_2*%
%TO.N,+3.3V*%
X186229000Y-72915000D03*
%TO.P,J7,3,Pin_3*%
%TO.N,POT6*%
X186229000Y-70375000D03*
%TO.P,J7,4,Pin_4*%
%TO.N,POT5*%
X186229000Y-67835000D03*
%TO.P,J7,5,Pin_5*%
%TO.N,POT4*%
X186229000Y-65295000D03*
%TO.P,J7,6,Pin_6*%
%TO.N,POT3*%
X186229000Y-62755000D03*
%TO.P,J7,7,Pin_7*%
%TO.N,POT2*%
X186229000Y-60215000D03*
%TO.P,J7,8,Pin_8*%
%TO.N,POT1*%
X186229000Y-57675000D03*
%TD*%
D36*
%TO.P,U11,1,AGND*%
%TO.N,GND*%
X223073000Y-97710000D03*
%TO.P,U11,2,MCLKI/XI*%
%TO.N,AD1939_MCLKI*%
X223073000Y-97210000D03*
%TO.P,U11,3,MCLKO/XO*%
%TO.N,AD1939_MCLKO*%
X223073000Y-96710000D03*
%TO.P,U11,4,AGND*%
%TO.N,GND*%
X223073000Y-96210000D03*
%TO.P,U11,5,AGND*%
X223073000Y-95710000D03*
%TO.P,U11,6,OL3P*%
%TO.N,unconnected-(U11A-OL3P-Pad6)*%
X223073000Y-95210000D03*
%TO.P,U11,7,OL3N*%
%TO.N,unconnected-(U11A-OL3N-Pad7)*%
X223073000Y-94710000D03*
%TO.P,U11,8,OR3P*%
%TO.N,unconnected-(U11A-OR3P-Pad8)*%
X223073000Y-94210000D03*
%TO.P,U11,9,OR3N*%
%TO.N,unconnected-(U11A-OR3N-Pad9)*%
X223073000Y-93710000D03*
%TO.P,U11,10,OL4P*%
%TO.N,unconnected-(U11A-OL4P-Pad10)*%
X223073000Y-93210000D03*
%TO.P,U11,11,OL4N*%
%TO.N,unconnected-(U11A-OL4N-Pad11)*%
X223073000Y-92710000D03*
%TO.P,U11,12,OR4P*%
%TO.N,unconnected-(U11A-OR4P-Pad12)*%
X223073000Y-92210000D03*
%TO.P,U11,13,OR4N*%
%TO.N,unconnected-(U11A-OR4N-Pad13)*%
X223073000Y-91710000D03*
%TO.P,U11,14,PD/RST*%
%TO.N,+3.3V*%
X223073000Y-91210000D03*
%TO.P,U11,15,DSDATA4*%
%TO.N,unconnected-(U11A-DSDATA4-Pad15)*%
X223073000Y-90710000D03*
%TO.P,U11,16,DGND*%
%TO.N,GND*%
X223073000Y-90210000D03*
D37*
%TO.P,U11,17,DVDD*%
%TO.N,+3.3V*%
X221148000Y-88285000D03*
%TO.P,U11,18,DADATA3*%
%TO.N,unconnected-(U11A-DADATA3-Pad18)*%
X220648000Y-88285000D03*
%TO.P,U11,19,DSDATA2*%
%TO.N,AD1939_I2S2_SDO*%
X220148000Y-88285000D03*
%TO.P,U11,20,DSDATA1*%
%TO.N,unconnected-(U11A-DSDATA1-Pad20)*%
X219648000Y-88285000D03*
%TO.P,U11,21,DBCLK*%
%TO.N,AD1939_I2S2_CK*%
X219148000Y-88285000D03*
%TO.P,U11,22,DLRCLK*%
%TO.N,AD1939_I2S2_WS*%
X218648000Y-88285000D03*
%TO.P,U11,23,VSUPPLY*%
%TO.N,GND*%
X218148000Y-88285000D03*
%TO.P,U11,24,VSENSE*%
X217648000Y-88285000D03*
%TO.P,U11,25,VDRIVE*%
X217148000Y-88285000D03*
%TO.P,U11,26,ASDATA2*%
%TO.N,unconnected-(U11A-ASDATA2-Pad26)*%
X216648000Y-88285000D03*
%TO.P,U11,27,ASDATA1*%
%TO.N,AD1939_I2S1_SDI*%
X216148000Y-88285000D03*
%TO.P,U11,28,ABCLK*%
%TO.N,AD1939_I2S1_CK*%
X215648000Y-88285000D03*
%TO.P,U11,29,ALRCLK*%
%TO.N,AD1939_I2S1_WS*%
X215148000Y-88285000D03*
%TO.P,U11,30,CIN*%
%TO.N,AD1939_SPI3_MOSI*%
X214648000Y-88285000D03*
%TO.P,U11,31,COUT*%
%TO.N,AD1939_SPI3_MISO*%
X214148000Y-88285000D03*
%TO.P,U11,32,DVDD*%
%TO.N,+3.3V*%
X213648000Y-88285000D03*
D36*
%TO.P,U11,33,DGND*%
%TO.N,GND*%
X211723000Y-90210000D03*
%TO.P,U11,34,CCLK*%
%TO.N,AD1939_SPI3_CLK*%
X211723000Y-90710000D03*
%TO.P,U11,35,CLATCH*%
%TO.N,AD1939_SPI_CS*%
X211723000Y-91210000D03*
%TO.P,U11,36,OL1P*%
%TO.N,unconnected-(U11A-OL1P-Pad36)*%
X211723000Y-91710000D03*
%TO.P,U11,37,OL1N*%
%TO.N,unconnected-(U11A-OL1N-Pad37)*%
X211723000Y-92210000D03*
%TO.P,U11,38,OR1P*%
%TO.N,unconnected-(U11A-OR1P-Pad38)*%
X211723000Y-92710000D03*
%TO.P,U11,39,OR1N*%
%TO.N,unconnected-(U11A-OR1N-Pad39)*%
X211723000Y-93210000D03*
%TO.P,U11,40,OL2P*%
%TO.N,DAC1R*%
X211723000Y-93710000D03*
%TO.P,U11,41,OL2N*%
%TO.N,DAC1L*%
X211723000Y-94210000D03*
%TO.P,U11,42,OR2P*%
%TO.N,DAC2R*%
X211723000Y-94710000D03*
%TO.P,U11,43,OR2N*%
%TO.N,DAC2L*%
X211723000Y-95210000D03*
%TO.P,U11,44,AGND*%
%TO.N,GND*%
X211723000Y-95710000D03*
%TO.P,U11,45,AVDD*%
%TO.N,+3.3VA*%
X211723000Y-96210000D03*
%TO.P,U11,46,AGND*%
%TO.N,GND*%
X211723000Y-96710000D03*
%TO.P,U11,47,FILTR*%
%TO.N,AD1939_FILTR*%
X211723000Y-97210000D03*
%TO.P,U11,48,AGND*%
%TO.N,GND*%
X211723000Y-97710000D03*
D37*
%TO.P,U11,49,NC*%
%TO.N,unconnected-(U11B-NC-Pad49)*%
X213648000Y-99635000D03*
%TO.P,U11,50,NC*%
%TO.N,unconnected-(U11B-NC-Pad50)*%
X214148000Y-99635000D03*
%TO.P,U11,51,AVDD*%
%TO.N,+3.3VA*%
X214648000Y-99635000D03*
%TO.P,U11,52,CM*%
%TO.N,AD1939_CM*%
X215148000Y-99635000D03*
%TO.P,U11,53,ADC1LP*%
%TO.N,ADC1P*%
X215648000Y-99635000D03*
%TO.P,U11,54,ADC1LN*%
%TO.N,ADC1N*%
X216148000Y-99635000D03*
%TO.P,U11,55,ADC1RP*%
%TO.N,unconnected-(U11A-ADC1RP-Pad55)*%
X216648000Y-99635000D03*
%TO.P,U11,56,ADC1RN*%
%TO.N,unconnected-(U11A-ADC1RN-Pad56)*%
X217148000Y-99635000D03*
%TO.P,U11,57,ADC2LP*%
%TO.N,unconnected-(U11A-ADC2LP-Pad57)*%
X217648000Y-99635000D03*
%TO.P,U11,58,ADC2LN*%
%TO.N,unconnected-(U11A-ADC2LN-Pad58)*%
X218148000Y-99635000D03*
%TO.P,U11,59,ADC2RP*%
%TO.N,unconnected-(U11A-ADC2RP-Pad59)*%
X218648000Y-99635000D03*
%TO.P,U11,60,ADC2RN*%
%TO.N,unconnected-(U11A-ADC2RN-Pad60)*%
X219148000Y-99635000D03*
%TO.P,U11,61,LF*%
%TO.N,AD1939_LF*%
X219648000Y-99635000D03*
%TO.P,U11,62,AVDD*%
%TO.N,+3.3VA*%
X220148000Y-99635000D03*
%TO.P,U11,63,NC*%
%TO.N,unconnected-(U11B-NC-Pad63)*%
X220648000Y-99635000D03*
%TO.P,U11,64,NC*%
%TO.N,unconnected-(U11B-NC-Pad64)*%
X221148000Y-99635000D03*
%TD*%
D30*
%TO.P,R28,1*%
%TO.N,+9V*%
X193109000Y-113441000D03*
%TO.P,R28,2*%
%TO.N,Net-(D7-A)*%
X193109000Y-115441000D03*
%TD*%
D38*
%TO.P,C42,1*%
%TO.N,Net-(C42-Pad1)*%
X205472426Y-115132500D03*
%TO.P,C42,2*%
%TO.N,GUITAR_OUT_L{slash}MONO*%
X205472426Y-113057500D03*
%TD*%
D30*
%TO.P,R30,1*%
%TO.N,DAC1R*%
X203486154Y-95599000D03*
%TO.P,R30,2*%
%TO.N,Net-(C22-Pad2)*%
X203486154Y-97599000D03*
%TD*%
D18*
%TO.P,C105,1*%
%TO.N,Net-(D2-K)*%
X186463500Y-95451000D03*
%TO.P,C105,2*%
%TO.N,GND*%
X184388500Y-95451000D03*
%TD*%
D24*
%TO.P,C51,1*%
%TO.N,ADC1P*%
X215092500Y-101951000D03*
%TO.P,C51,2*%
%TO.N,ADC1N*%
X216817500Y-101951000D03*
%TD*%
D32*
%TO.P,R9,1*%
%TO.N,ADC1P*%
X214723000Y-105741000D03*
%TO.P,R9,2*%
%TO.N,Net-(C21-Pad2)*%
X212723000Y-105741000D03*
%TD*%
D11*
%TO.P,C50,1*%
%TO.N,ADC1P*%
X214785500Y-103759000D03*
%TO.P,C50,2*%
%TO.N,GND*%
X213060500Y-103759000D03*
%TD*%
%TO.P,C75,1*%
%TO.N,+9V*%
X245207500Y-104463000D03*
%TO.P,C75,2*%
%TO.N,GND*%
X243482500Y-104463000D03*
%TD*%
D18*
%TO.P,C103,1*%
%TO.N,Net-(D3-K)*%
X244172500Y-95885000D03*
%TO.P,C103,2*%
%TO.N,GND*%
X242097500Y-95885000D03*
%TD*%
D32*
%TO.P,R6,1*%
%TO.N,Net-(U4B--)*%
X230185000Y-112539000D03*
%TO.P,R6,2*%
%TO.N,Net-(C20-Pad2)*%
X228185000Y-112539000D03*
%TD*%
D31*
%TO.P,FB3,1*%
%TO.N,PWR_INPUT_12V-18V*%
X244545000Y-91580500D03*
%TO.P,FB3,2*%
%TO.N,Net-(D3-K)*%
X244545000Y-93405500D03*
%TD*%
D39*
%TO.P,U9,1,VI*%
%TO.N,5V*%
X238144000Y-73498000D03*
%TO.P,U9,2,GND*%
%TO.N,GND*%
X238144000Y-75798000D03*
D40*
X244444000Y-75798000D03*
D39*
%TO.P,U9,3,VO*%
%TO.N,+3.3V*%
X238144000Y-78098000D03*
%TD*%
D24*
%TO.P,C5,1*%
%TO.N,+3.3V*%
X215072476Y-54061000D03*
%TO.P,C5,2*%
%TO.N,GND*%
X216797476Y-54061000D03*
%TD*%
D39*
%TO.P,U5,1,VI*%
%TO.N,Net-(D2-K)*%
X190075000Y-95813000D03*
%TO.P,U5,2,GND*%
%TO.N,GND*%
X190075000Y-98113000D03*
D40*
X196375000Y-98113000D03*
D39*
%TO.P,U5,3,VO*%
%TO.N,+3.3VA*%
X190075000Y-100413000D03*
%TD*%
D32*
%TO.P,R13,1*%
%TO.N,Net-(U2B-+)*%
X203842136Y-103457000D03*
%TO.P,R13,2*%
%TO.N,Net-(C22-Pad2)*%
X201842136Y-103457000D03*
%TD*%
D25*
%TO.P,J1,1,Pin_1*%
%TO.N,GND*%
X237187000Y-49127000D03*
D28*
%TO.P,J1,2,Pin_2*%
%TO.N,PWR_INPUT_12V-18V*%
X239727000Y-49127000D03*
%TD*%
D41*
%TO.P,C2,1*%
%TO.N,Net-(U1-VCAPDSI)*%
X229684000Y-73592500D03*
%TO.P,C2,2*%
%TO.N,GND*%
X229684000Y-75667500D03*
%TD*%
D25*
%TO.P,J2,1,Pin_1*%
%TO.N,GND*%
X227633000Y-48975000D03*
D28*
%TO.P,J2,2,Pin_2*%
%TO.N,SWDIO*%
X225093000Y-48975000D03*
%TO.P,J2,3,Pin_3*%
%TO.N,SWCLK*%
X222553000Y-48975000D03*
%TO.P,J2,4,Pin_4*%
%TO.N,+3.3V*%
X220013000Y-48975000D03*
%TD*%
D25*
%TO.P,J3,1,Pin_1*%
%TO.N,GUITAR_IN*%
X219613000Y-114601000D03*
D28*
%TO.P,J3,2,Pin_2*%
%TO.N,GUITAR_OUT_L{slash}MONO*%
X217073000Y-114601000D03*
%TO.P,J3,3,Pin_3*%
%TO.N,GUITAR_OUT_R*%
X214533000Y-114601000D03*
%TD*%
D12*
%TO.P,R26,1*%
%TO.N,GUITAR_IN*%
X223315000Y-114713000D03*
%TO.P,R26,2*%
%TO.N,Net-(C19-Pad2)*%
X225315000Y-114713000D03*
%TD*%
D24*
%TO.P,C90,1*%
%TO.N,+9V*%
X228514500Y-106389000D03*
%TO.P,C90,2*%
%TO.N,GND*%
X230239500Y-106389000D03*
%TD*%
D42*
%TO.P,C13,1*%
%TO.N,PWR_INPUT_12V-18V*%
X236498241Y-54733000D03*
D43*
%TO.P,C13,2*%
%TO.N,GND*%
X234498241Y-54733000D03*
%TD*%
D42*
%TO.P,C29,1*%
%TO.N,+3.3VA*%
X192583000Y-106401759D03*
D43*
%TO.P,C29,2*%
%TO.N,GND*%
X195083000Y-106401759D03*
%TD*%
D42*
%TO.P,C28,1*%
%TO.N,Net-(D2-K)*%
X186714241Y-102437000D03*
D43*
%TO.P,C28,2*%
%TO.N,GND*%
X186714241Y-104937000D03*
%TD*%
D42*
%TO.P,C70,1*%
%TO.N,5V*%
X237843000Y-70587759D03*
D43*
%TO.P,C70,2*%
%TO.N,GND*%
X240343000Y-70587759D03*
%TD*%
D42*
%TO.P,C76,1*%
%TO.N,Net-(7660S1-CAP+)*%
X237006241Y-101881000D03*
D43*
%TO.P,C76,2*%
%TO.N,Net-(7660S1-CAP-)*%
X235006241Y-101881000D03*
%TD*%
D42*
%TO.P,C77,1*%
%TO.N,GND*%
X239773000Y-113562241D03*
D43*
%TO.P,C77,2*%
%TO.N,-9V*%
X237773000Y-113562241D03*
%TD*%
D42*
%TO.P,C71,1*%
%TO.N,+3.3V*%
X238022241Y-83181000D03*
D43*
%TO.P,C71,2*%
%TO.N,GND*%
X240522241Y-83181000D03*
%TD*%
D44*
%TO.N,GND*%
X210312000Y-98298000D03*
X225044000Y-72346000D03*
X242316000Y-77216000D03*
X207772000Y-68580000D03*
X240284000Y-74676000D03*
X202184000Y-83312000D03*
X194056000Y-94996000D03*
X192024000Y-70104000D03*
X235712000Y-69088000D03*
X233172000Y-93980000D03*
X192532000Y-98044000D03*
X198120000Y-59436000D03*
X237744000Y-61976000D03*
X242316000Y-73152000D03*
X234696000Y-93980000D03*
X240284000Y-78740000D03*
X213360000Y-95758000D03*
X222504000Y-86868000D03*
X198374000Y-109220000D03*
X236220000Y-65024000D03*
X199644000Y-64008000D03*
X242824000Y-61976000D03*
X231140000Y-75692000D03*
X192532000Y-94996000D03*
X243840000Y-106172000D03*
X244348000Y-73152000D03*
X236220000Y-63500000D03*
X234188000Y-64008000D03*
X242824000Y-59944000D03*
X195580000Y-70803500D03*
X231648000Y-114808000D03*
X231137500Y-70612000D03*
X207772000Y-74168000D03*
X215075500Y-83820000D03*
X242316000Y-78740000D03*
X194056000Y-98044000D03*
X192024000Y-61976000D03*
X216408000Y-55372000D03*
X239268000Y-63500000D03*
X195072000Y-87376000D03*
X217678000Y-86614000D03*
X221488000Y-98044000D03*
X203200000Y-77216000D03*
X238252000Y-106680000D03*
X225044000Y-75184000D03*
X221996000Y-80264000D03*
X244348000Y-69088000D03*
X244348000Y-78740000D03*
X209804000Y-112014000D03*
X192532000Y-99568000D03*
X228600000Y-77724000D03*
X237744000Y-66548000D03*
X198628000Y-105156000D03*
X234188000Y-70612000D03*
X208280000Y-77216000D03*
X236220000Y-66548000D03*
X224274387Y-101505029D03*
X233680000Y-69088000D03*
X225044000Y-70612000D03*
X213360000Y-102616000D03*
X219456000Y-102362000D03*
X199644000Y-65532000D03*
X242316000Y-74676000D03*
X237744000Y-63500000D03*
X185928000Y-87376000D03*
X213868000Y-78740000D03*
X198628000Y-74168000D03*
X234696000Y-94996000D03*
X231648000Y-105156000D03*
X236220000Y-59944000D03*
X196437523Y-111960705D03*
X237744000Y-65024000D03*
X199644000Y-66548000D03*
X194056000Y-96520000D03*
X242824000Y-67564000D03*
X246380000Y-94996000D03*
X240284000Y-95504000D03*
X245872000Y-69088000D03*
X219964000Y-107887500D03*
X236220000Y-61976000D03*
X234188000Y-59944000D03*
X196088000Y-94996000D03*
X203008424Y-55563576D03*
X245872000Y-67564000D03*
X234188000Y-61976000D03*
X199644000Y-60960000D03*
X226568000Y-55880000D03*
X244348000Y-67564000D03*
X240284000Y-73152000D03*
X204470000Y-100330000D03*
X224028000Y-53340000D03*
X219456000Y-94488000D03*
X224698128Y-95918628D03*
X212852000Y-110744000D03*
X227076000Y-87884000D03*
X192532000Y-96520000D03*
X212852000Y-54356000D03*
X242824000Y-69088000D03*
X196596000Y-101092000D03*
X240284000Y-77216000D03*
X233172000Y-94996000D03*
X204724000Y-61976000D03*
X204724000Y-68580000D03*
X225044000Y-65532000D03*
X229209250Y-100177250D03*
X225044000Y-68580000D03*
X240284000Y-89916000D03*
X242316000Y-75798000D03*
X213360000Y-91948000D03*
X183896000Y-97028000D03*
X191516000Y-58928000D03*
X191516000Y-66548000D03*
X242824000Y-63500000D03*
X240284000Y-75798000D03*
X242824000Y-65024000D03*
%TO.N,DISPLAY_CS*%
X198120000Y-57912000D03*
%TO.N,DISPLAY_RST*%
X206360613Y-58420000D03*
%TO.N,DISPLAY_DC*%
X199644000Y-59944000D03*
%TO.N,DISPLAY_SCK*%
X204136671Y-50499267D03*
%TO.N,5V*%
X188976000Y-89408000D03*
%TO.N,Net-(D2-K)*%
X187960000Y-95813000D03*
%TO.N,DISPLAY_MISO*%
X204724000Y-51308000D03*
%TO.N,+3.3V*%
X206248000Y-75146500D03*
X221996000Y-88285000D03*
X203200000Y-65024000D03*
X203200000Y-71120000D03*
X213868000Y-55372000D03*
X195326000Y-55626000D03*
X215571500Y-58420000D03*
X203200000Y-61976000D03*
X225044000Y-73660000D03*
X199644000Y-81280000D03*
X215392000Y-51816000D03*
X212344000Y-87376000D03*
X213360000Y-80772000D03*
X203200000Y-78232000D03*
X213868000Y-58420000D03*
%TO.N,Net-(U4A-+)*%
X223012000Y-101346000D03*
%TO.N,AD1939_I2S2_SDO*%
X219938500Y-86360000D03*
X218948000Y-80772000D03*
X209296000Y-75692000D03*
X211328000Y-75692000D03*
%TO.N,AD1939_I2S1_SDI*%
X217932000Y-78740000D03*
X215900000Y-85344000D03*
%TO.N,AD1939_SPI3_MOSI*%
X208280000Y-84328000D03*
X208088500Y-86868000D03*
%TO.N,AD1939_I2S2_CK*%
X219188622Y-85584622D03*
X218948000Y-84136500D03*
%TO.N,AD1939_SPI3_CLK*%
X209804000Y-88392000D03*
X219964000Y-61976000D03*
%TO.N,AD1939_SPI3_MISO*%
X213763211Y-86656289D03*
X220472000Y-59944000D03*
%TO.N,AD1939_SPI_CS*%
X208788000Y-88900000D03*
X210005833Y-84529833D03*
%TO.N,AD1939_CM*%
X214376000Y-107887500D03*
X211601000Y-104413000D03*
%TO.N,+3.3VA*%
X210171622Y-96633622D03*
X189992000Y-102616000D03*
X214771000Y-97233494D03*
%TO.N,EXT_INT_BUTTON*%
X225044000Y-66548000D03*
%TO.N,AD1939_MCLKI*%
X224536000Y-97536000D03*
%TO.N,AD1939_MCLKO*%
X225742000Y-96710000D03*
%TO.N,AD1939_LF*%
X226060000Y-100076000D03*
%TO.N,+9V*%
X201930000Y-111252000D03*
X227025721Y-108254279D03*
X227076000Y-105664000D03*
%TO.N,-9V*%
X210820000Y-102616000D03*
X233680000Y-108204000D03*
X221491442Y-101403096D03*
%TO.N,AD1939_FILTR*%
X215900000Y-94488000D03*
%TO.N,SWDIO*%
X228092000Y-57404000D03*
%TO.N,SWCLK*%
X221488000Y-54864000D03*
%TO.N,DAC2R*%
X207772000Y-94996000D03*
%TO.N,DAC2L*%
X207772000Y-96266000D03*
%TO.N,Net-(R23-Pad2)*%
X206248000Y-110236000D03*
%TO.N,/MCU/NRST*%
X203200000Y-74676000D03*
X195072000Y-81280000D03*
%TO.N,POT5*%
X199136000Y-72136000D03*
%TO.N,POT1*%
X198120000Y-64516000D03*
%TO.N,POT6*%
X199884622Y-72911378D03*
%TO.N,POT2*%
X196596000Y-64516000D03*
%TO.N,POT3*%
X193548000Y-64516000D03*
%TO.N,POT_EXT*%
X192024000Y-79756000D03*
X203195076Y-73156924D03*
%TO.N,POT4*%
X199120535Y-71135465D03*
%TO.N,Net-(U2A-+)*%
X209804000Y-107950000D03*
%TO.N,Net-(U2A--)*%
X206248000Y-106934000D03*
%TO.N,Net-(C1-Pad1)*%
X224872000Y-58928000D03*
X206756000Y-54356000D03*
%TD*%
D45*
%TO.N,GND*%
X231115500Y-75667500D02*
X231140000Y-75692000D01*
D46*
X230247500Y-114819000D02*
X231637000Y-114819000D01*
D45*
X228862500Y-74846000D02*
X229684000Y-75667500D01*
X202692000Y-83820000D02*
X202184000Y-83312000D01*
X203070000Y-77346000D02*
X201447000Y-77346000D01*
X211872000Y-54900000D02*
X211872000Y-56921000D01*
D47*
X242316000Y-75798000D02*
X238144000Y-75798000D01*
D45*
X223094500Y-54687000D02*
X222872000Y-54909500D01*
D46*
X205661000Y-101521000D02*
X204470000Y-100330000D01*
D45*
X215872000Y-56921000D02*
X215872000Y-55908000D01*
X211328000Y-54356000D02*
X212852000Y-54356000D01*
D48*
X210058000Y-112014000D02*
X210495000Y-112451000D01*
D47*
X185404500Y-89325000D02*
X185404500Y-87899500D01*
D45*
X199830000Y-65346000D02*
X201447000Y-65346000D01*
X225310000Y-68846000D02*
X225044000Y-68580000D01*
D47*
X242316000Y-75798000D02*
X244444000Y-75798000D01*
D45*
X200030000Y-61346000D02*
X199644000Y-60960000D01*
D49*
X246471024Y-94904976D02*
X246380000Y-94996000D01*
D45*
X201447000Y-65346000D02*
X201447000Y-66846000D01*
X203200000Y-77216000D02*
X203070000Y-77346000D01*
X228401500Y-68846000D02*
X229355000Y-69799500D01*
X213360000Y-91041670D02*
X212528330Y-90210000D01*
X222872000Y-54909500D02*
X222872000Y-56921000D01*
D47*
X184534500Y-98365000D02*
X184534500Y-97666500D01*
D46*
X213683636Y-102939636D02*
X213360000Y-102616000D01*
D45*
X201447000Y-64346000D02*
X199982000Y-64346000D01*
X225094500Y-88188500D02*
X223073000Y-90210000D01*
D49*
X218697500Y-103759000D02*
X218697500Y-103120500D01*
D45*
X228457500Y-65346000D02*
X226797000Y-65346000D01*
X217648000Y-88285000D02*
X217648000Y-86644000D01*
X218148000Y-87084000D02*
X217678000Y-86614000D01*
X204724000Y-68580000D02*
X202958000Y-70346000D01*
X230325000Y-69799500D02*
X229355000Y-69799500D01*
X223073000Y-95710000D02*
X224489500Y-95710000D01*
X228600000Y-78346000D02*
X228600000Y-77724000D01*
X223073000Y-96210000D02*
X224406756Y-96210000D01*
X218148000Y-88285000D02*
X218148000Y-87084000D01*
D46*
X196258000Y-113487000D02*
X196258000Y-112140228D01*
D45*
X215872000Y-55908000D02*
X216408000Y-55372000D01*
X195385000Y-87063000D02*
X198569000Y-87063000D01*
X221822000Y-97710000D02*
X221488000Y-98044000D01*
X222372000Y-80640000D02*
X221996000Y-80264000D01*
X225230000Y-65346000D02*
X225044000Y-65532000D01*
X215872000Y-83051330D02*
X215103330Y-83820000D01*
D46*
X213683636Y-103135864D02*
X213060500Y-103759000D01*
D45*
X225382000Y-74846000D02*
X225044000Y-75184000D01*
X205868500Y-99455000D02*
X205853000Y-99455000D01*
X198120000Y-60701500D02*
X197859000Y-60962500D01*
X213360000Y-95758000D02*
X213312000Y-95710000D01*
X229243500Y-78346000D02*
X228600000Y-78346000D01*
X213360000Y-91948000D02*
X213360000Y-91041670D01*
X221372000Y-82271000D02*
X221372000Y-80888000D01*
X226797000Y-74846000D02*
X228862500Y-74846000D01*
X204372000Y-82271000D02*
X204372000Y-83051330D01*
X223073000Y-97710000D02*
X221822000Y-97710000D01*
X211723000Y-97710000D02*
X210900000Y-97710000D01*
X197677000Y-73217000D02*
X198628000Y-74168000D01*
X221372000Y-80888000D02*
X221996000Y-80264000D01*
X202958000Y-70346000D02*
X201447000Y-70346000D01*
D46*
X231637000Y-114819000D02*
X231648000Y-114808000D01*
D49*
X231322861Y-105156000D02*
X230239500Y-106239361D01*
D45*
X225843000Y-88188500D02*
X226771500Y-88188500D01*
D49*
X230239500Y-106239361D02*
X230239500Y-106389000D01*
D45*
X195580000Y-72284000D02*
X195580000Y-70803500D01*
D46*
X204978000Y-100330000D02*
X204470000Y-100330000D01*
D45*
X213360000Y-95878330D02*
X213360000Y-95758000D01*
X219953000Y-107898500D02*
X219964000Y-107887500D01*
D48*
X209550000Y-112014000D02*
X209804000Y-112014000D01*
D45*
X202184000Y-83312000D02*
X202331000Y-83312000D01*
X202331000Y-83312000D02*
X203372000Y-82271000D01*
X215103330Y-83820000D02*
X215075500Y-83820000D01*
X212528330Y-96710000D02*
X213360000Y-95878330D01*
D48*
X209804000Y-112014000D02*
X210058000Y-112014000D01*
D45*
X203008424Y-54901924D02*
X201605000Y-53498500D01*
D46*
X213683636Y-103135864D02*
X213683636Y-102939636D01*
D45*
X217148000Y-87144000D02*
X217678000Y-86614000D01*
D48*
X210495000Y-112451000D02*
X210495000Y-113462500D01*
D45*
X226797000Y-65346000D02*
X225230000Y-65346000D01*
X203640500Y-54250000D02*
X203640500Y-54909170D01*
X203008424Y-55563576D02*
X203008424Y-54882076D01*
X231137500Y-70612000D02*
X231137500Y-71337000D01*
X199644000Y-65532000D02*
X199830000Y-65346000D01*
D46*
X199148500Y-105676500D02*
X198628000Y-105156000D01*
D45*
X203008424Y-54882076D02*
X203640500Y-54250000D01*
D48*
X199846000Y-66346000D02*
X199644000Y-66548000D01*
D49*
X241983500Y-95661000D02*
X240441000Y-95661000D01*
D45*
X211723000Y-96710000D02*
X212534000Y-96710000D01*
X225044000Y-72346000D02*
X226797000Y-72346000D01*
D47*
X184388500Y-95451000D02*
X184388500Y-96535500D01*
D45*
X198120000Y-59436000D02*
X198120000Y-60701500D01*
D49*
X231322861Y-105156000D02*
X231648000Y-105156000D01*
D45*
X197859000Y-60962500D02*
X198242500Y-61346000D01*
X203640500Y-54909170D02*
X204872000Y-56140670D01*
X195580000Y-72671500D02*
X195580000Y-72284000D01*
D47*
X185404500Y-87899500D02*
X185928000Y-87376000D01*
D49*
X198520500Y-109366500D02*
X198374000Y-109220000D01*
D45*
X197677000Y-73093500D02*
X197677000Y-73217000D01*
X198118166Y-74677834D02*
X198628000Y-74168000D01*
X226797000Y-68846000D02*
X228401500Y-68846000D01*
X225843000Y-88188500D02*
X225094500Y-88188500D01*
X203648654Y-99455000D02*
X203648654Y-99508654D01*
X226797000Y-68846000D02*
X225310000Y-68846000D01*
X215872000Y-82271000D02*
X215872000Y-83051330D01*
D48*
X199958000Y-65846000D02*
X199644000Y-65532000D01*
D45*
X222372000Y-82271000D02*
X222372000Y-80640000D01*
D46*
X199148500Y-105676500D02*
X199959568Y-105676500D01*
D45*
X225044000Y-70612000D02*
X225310000Y-70346000D01*
X195072000Y-87376000D02*
X191682000Y-87376000D01*
D49*
X240919000Y-89281000D02*
X240284000Y-89916000D01*
D45*
X204872000Y-56140670D02*
X204872000Y-56921000D01*
D46*
X219953000Y-109160500D02*
X219953000Y-107898500D01*
D49*
X199913000Y-109366500D02*
X198520500Y-109366500D01*
D47*
X243482500Y-105814500D02*
X243840000Y-106172000D01*
D46*
X203648654Y-99508654D02*
X204470000Y-100330000D01*
D49*
X242097500Y-89281000D02*
X240919000Y-89281000D01*
D45*
X213312000Y-95710000D02*
X211723000Y-95710000D01*
X224641670Y-55871000D02*
X226559000Y-55871000D01*
X224406756Y-96210000D02*
X224698128Y-95918628D01*
X223094500Y-54687000D02*
X223094500Y-54273500D01*
D48*
X208439000Y-113125000D02*
X209550000Y-112014000D01*
D45*
X201447000Y-66846000D02*
X199942000Y-66846000D01*
X199982000Y-64346000D02*
X199644000Y-64008000D01*
D47*
X195911500Y-101776500D02*
X196596000Y-101092000D01*
D45*
X216797476Y-54061000D02*
X216797476Y-54982524D01*
X224372000Y-56140670D02*
X224641670Y-55871000D01*
X197677000Y-74677834D02*
X198118166Y-74677834D01*
D49*
X247555000Y-94904976D02*
X246471024Y-94904976D01*
D45*
X204372000Y-83051330D02*
X203603330Y-83820000D01*
X193405000Y-74846500D02*
X195580000Y-72671500D01*
X231137500Y-70612000D02*
X230325000Y-69799500D01*
X217678000Y-88255000D02*
X217648000Y-88285000D01*
X217148000Y-88285000D02*
X217148000Y-87144000D01*
X203008424Y-55563576D02*
X203008424Y-54901924D01*
D46*
X205853000Y-99455000D02*
X204978000Y-100330000D01*
D48*
X208254142Y-113125000D02*
X208439000Y-113125000D01*
D45*
X201447000Y-61346000D02*
X200030000Y-61346000D01*
X203603330Y-83820000D02*
X202692000Y-83820000D01*
X225310000Y-70346000D02*
X226797000Y-70346000D01*
X193405000Y-75184000D02*
X193405000Y-74846500D01*
X229684000Y-75667500D02*
X231115500Y-75667500D01*
X226797000Y-74846000D02*
X225382000Y-74846000D01*
D47*
X184388500Y-96535500D02*
X183896000Y-97028000D01*
X184534500Y-97666500D02*
X183896000Y-97028000D01*
D45*
X196258000Y-112140228D02*
X196437523Y-111960705D01*
X212872000Y-82271000D02*
X212872000Y-81300000D01*
X212660000Y-79948000D02*
X213868000Y-78740000D01*
X191682000Y-87376000D02*
X191369000Y-87063000D01*
X212528330Y-90210000D02*
X211723000Y-90210000D01*
X199942000Y-66846000D02*
X199644000Y-66548000D01*
X229863000Y-77726500D02*
X229243500Y-78346000D01*
D49*
X240441000Y-95661000D02*
X240284000Y-95504000D01*
D48*
X201447000Y-65846000D02*
X199958000Y-65846000D01*
X201447000Y-66346000D02*
X199846000Y-66346000D01*
D45*
X205931000Y-101521000D02*
X205661000Y-101521000D01*
X224489500Y-95710000D02*
X224698128Y-95918628D01*
X224372000Y-56921000D02*
X224372000Y-56140670D01*
D47*
X185404500Y-89325000D02*
X185420000Y-89309500D01*
X195911500Y-103475000D02*
X195911500Y-101776500D01*
D45*
X226559000Y-55871000D02*
X226568000Y-55880000D01*
X223094500Y-54273500D02*
X224028000Y-53340000D01*
D47*
X238294000Y-106638000D02*
X238252000Y-106680000D01*
D45*
X212872000Y-81300000D02*
X212660000Y-81088000D01*
X211328000Y-54356000D02*
X211872000Y-54900000D01*
X216797476Y-54982524D02*
X216408000Y-55372000D01*
X212660000Y-81088000D02*
X212660000Y-79948000D01*
X217648000Y-86644000D02*
X217678000Y-86614000D01*
X229355000Y-66243500D02*
X228457500Y-65346000D01*
X211723000Y-96710000D02*
X212528330Y-96710000D01*
D47*
X238294000Y-104616000D02*
X238294000Y-106638000D01*
D45*
X210900000Y-97710000D02*
X210312000Y-98298000D01*
X226771500Y-88188500D02*
X227076000Y-87884000D01*
D49*
X218697500Y-103120500D02*
X219456000Y-102362000D01*
D45*
X195072000Y-87376000D02*
X195385000Y-87063000D01*
D47*
X243482500Y-104463000D02*
X243482500Y-105814500D01*
D45*
X228600000Y-78346000D02*
X226797000Y-78346000D01*
%TO.N,Net-(U1-BOOT0)*%
X207872000Y-56140670D02*
X207872000Y-56921000D01*
X209328000Y-54356000D02*
X209328000Y-54684670D01*
X209328000Y-54684670D02*
X207872000Y-56140670D01*
%TO.N,DISPLAY_CS*%
X198120000Y-57912000D02*
X198628000Y-57912000D01*
X200062000Y-59346000D02*
X201447000Y-59346000D01*
X198628000Y-57912000D02*
X200062000Y-59346000D01*
%TO.N,DISPLAY_RST*%
X206360613Y-56932387D02*
X206372000Y-56921000D01*
X206360613Y-58420000D02*
X206360613Y-56932387D01*
%TO.N,DISPLAY_DC*%
X199644000Y-59944000D02*
X199742000Y-59846000D01*
X199742000Y-59846000D02*
X201447000Y-59846000D01*
X202899000Y-48975000D02*
X202899000Y-49022000D01*
%TO.N,DISPLAY_MOSI*%
X204916000Y-52132000D02*
X201673860Y-52132000D01*
X202806000Y-60846000D02*
X201447000Y-60846000D01*
X201673860Y-52132000D02*
X200152000Y-53653860D01*
X200152000Y-53653860D02*
X200152000Y-55342667D01*
X203708000Y-59944000D02*
X202806000Y-60846000D01*
X203708000Y-58898667D02*
X203708000Y-59944000D01*
X205439000Y-51609000D02*
X204916000Y-52132000D01*
X200152000Y-55342667D02*
X203708000Y-58898667D01*
X205439000Y-48975000D02*
X205439000Y-51609000D01*
%TO.N,DISPLAY_SCK*%
X200960733Y-50499267D02*
X204136671Y-50499267D01*
X199083453Y-57351453D02*
X199083453Y-52376547D01*
X201447000Y-58846000D02*
X200578000Y-58846000D01*
X200578000Y-58846000D02*
X199083453Y-57351453D01*
X199083453Y-52376547D02*
X200960733Y-50499267D01*
D47*
%TO.N,5V*%
X237843000Y-73197000D02*
X238144000Y-73498000D01*
X188893000Y-89325000D02*
X188976000Y-89408000D01*
X187479500Y-89325000D02*
X188893000Y-89325000D01*
X237843000Y-70587759D02*
X237843000Y-73197000D01*
X235164500Y-73498000D02*
X234875000Y-73208500D01*
X186442000Y-90362500D02*
X187479500Y-89325000D01*
X186442000Y-91550500D02*
X186442000Y-90362500D01*
X238144000Y-73498000D02*
X235164500Y-73498000D01*
%TO.N,Net-(D2-K)*%
X186714241Y-102437000D02*
X186714241Y-98819741D01*
X190075000Y-95813000D02*
X187960000Y-95813000D01*
X187960000Y-95813000D02*
X186825500Y-95813000D01*
X186442000Y-95429500D02*
X186463500Y-95451000D01*
X186442000Y-93375500D02*
X186442000Y-95429500D01*
X186463500Y-98161000D02*
X186259500Y-98365000D01*
X186825500Y-95813000D02*
X186463500Y-95451000D01*
X186714241Y-98819741D02*
X186259500Y-98365000D01*
X186463500Y-95451000D02*
X186463500Y-98161000D01*
D45*
%TO.N,DISPLAY_MISO*%
X201168000Y-51308000D02*
X199752000Y-52724000D01*
X202692000Y-58810670D02*
X202692000Y-59881330D01*
X199752000Y-52724000D02*
X199752000Y-55870670D01*
X202692000Y-59881330D02*
X202227330Y-60346000D01*
X199752000Y-55870670D02*
X202692000Y-58810670D01*
X202227330Y-60346000D02*
X201447000Y-60346000D01*
X204724000Y-51308000D02*
X201168000Y-51308000D01*
D47*
%TO.N,Net-(7660S1-CAP+)*%
X238568241Y-101881000D02*
X239564000Y-102876759D01*
X237006241Y-101881000D02*
X238568241Y-101881000D01*
X239564000Y-102876759D02*
X239564000Y-104616000D01*
%TO.N,Net-(7660S1-CAP-)*%
X235006241Y-102598241D02*
X237024000Y-104616000D01*
X235006241Y-101881000D02*
X235006241Y-102598241D01*
D45*
%TO.N,TOUCH_CS*%
X210973975Y-50125000D02*
X211909000Y-50125000D01*
X205872000Y-56140670D02*
X206141670Y-55871000D01*
X206141670Y-55871000D02*
X206230950Y-55871000D01*
X205872000Y-56921000D02*
X205872000Y-56140670D01*
X207456000Y-53642975D02*
X210973975Y-50125000D01*
X207456000Y-54645950D02*
X207456000Y-53642975D01*
X206230950Y-55871000D02*
X207456000Y-54645950D01*
X211909000Y-50125000D02*
X213059000Y-48975000D01*
%TO.N,TOUCH_IRQ*%
X212250000Y-52324000D02*
X215599000Y-48975000D01*
X206872000Y-56921000D02*
X206872000Y-55795636D01*
X206872000Y-55795636D02*
X208280000Y-54387636D01*
X208280000Y-53826183D02*
X208750183Y-53356000D01*
X208750183Y-53356000D02*
X208794331Y-53356000D01*
X209826331Y-52324000D02*
X212250000Y-52324000D01*
X208794331Y-53356000D02*
X209826331Y-52324000D01*
X208280000Y-54387636D02*
X208280000Y-53826183D01*
D49*
%TO.N,Net-(U4A--)*%
X230223000Y-110313000D02*
X230185000Y-110351000D01*
D50*
X224748000Y-102934000D02*
X224748000Y-102326624D01*
X225474624Y-101600000D02*
X226603376Y-101600000D01*
X226603376Y-101600000D02*
X229377000Y-104373624D01*
X229377000Y-107550500D02*
X230247500Y-108421000D01*
D49*
X230185000Y-108483500D02*
X230247500Y-108421000D01*
X232353000Y-110313000D02*
X230223000Y-110313000D01*
D45*
X230185000Y-108580500D02*
X230025500Y-108421000D01*
D50*
X224748000Y-102326624D02*
X225474624Y-101600000D01*
X229377000Y-104373624D02*
X229377000Y-107550500D01*
D49*
X230185000Y-110351000D02*
X230185000Y-108483500D01*
D46*
%TO.N,Net-(U4B--)*%
X223315000Y-110663000D02*
X223315000Y-108447000D01*
D45*
X229785000Y-112724814D02*
X229785000Y-112539000D01*
D46*
X223315000Y-108447000D02*
X223478000Y-108284000D01*
D45*
X228970814Y-113539000D02*
X229785000Y-112724814D01*
X224082500Y-113539000D02*
X228970814Y-113539000D01*
X223613000Y-108419000D02*
X223478000Y-108284000D01*
X223252500Y-112709000D02*
X224082500Y-113539000D01*
D46*
X223315000Y-110663000D02*
X223315000Y-112646500D01*
X223315000Y-112646500D02*
X223252500Y-112709000D01*
D45*
%TO.N,+3.3V*%
X229412500Y-71845000D02*
X230211500Y-72644000D01*
X215372000Y-58220500D02*
X215571500Y-58420000D01*
D47*
X229357500Y-64516000D02*
X229355000Y-64518500D01*
D45*
X221872000Y-83696000D02*
X221996000Y-83820000D01*
X213360000Y-82283000D02*
X213372000Y-82271000D01*
X223372000Y-56921000D02*
X223872000Y-56921000D01*
D47*
X235338000Y-78098000D02*
X233984500Y-79451500D01*
D45*
X227962000Y-61846000D02*
X228092000Y-61976000D01*
D47*
X232527000Y-68072000D02*
X232527000Y-64516000D01*
D45*
X229412500Y-71337000D02*
X228921500Y-70846000D01*
D47*
X227674749Y-82905750D02*
X227674749Y-83084595D01*
D45*
X224344000Y-75473950D02*
X224344000Y-74360000D01*
D47*
X188468000Y-74168000D02*
X188468000Y-77244000D01*
D45*
X221872000Y-82271000D02*
X221872000Y-83696000D01*
X229863000Y-79451500D02*
X229257500Y-78846000D01*
D47*
X215392000Y-53848000D02*
X213868000Y-55372000D01*
X233984500Y-79451500D02*
X231140000Y-79451500D01*
D48*
X203200000Y-72098500D02*
X206248000Y-75146500D01*
D45*
X215072476Y-54061000D02*
X215372000Y-54360524D01*
X204602330Y-81221000D02*
X202322000Y-81221000D01*
X201447000Y-64846000D02*
X203022000Y-64846000D01*
D47*
X235338000Y-78098000D02*
X235338000Y-76646500D01*
X188468000Y-74168000D02*
X191770000Y-77470000D01*
X225552000Y-51851000D02*
X219964000Y-51851000D01*
X219505000Y-51392000D02*
X219505000Y-48975000D01*
X215392000Y-51816000D02*
X215392000Y-53741476D01*
D48*
X204216000Y-58420000D02*
X205232000Y-59436000D01*
D45*
X203022000Y-64846000D02*
X203200000Y-65024000D01*
X222872000Y-82271000D02*
X222872000Y-80953000D01*
X225871950Y-75346000D02*
X225333950Y-75884000D01*
D47*
X232527000Y-72644000D02*
X232527000Y-68072000D01*
X193802000Y-79502000D02*
X197866000Y-79502000D01*
D45*
X202814000Y-77846000D02*
X203200000Y-78232000D01*
D47*
X194056000Y-62992000D02*
X190500000Y-62992000D01*
X232527000Y-64516000D02*
X232527000Y-61976000D01*
D45*
X225230000Y-73846000D02*
X225044000Y-73660000D01*
D47*
X215392000Y-51816000D02*
X215392000Y-53848000D01*
D45*
X203872000Y-58076000D02*
X203872000Y-56921000D01*
D47*
X219692500Y-51579500D02*
X219456000Y-51816000D01*
X219964000Y-51851000D02*
X219692500Y-51579500D01*
X233984500Y-79451500D02*
X232527000Y-77994000D01*
D45*
X216372000Y-81490670D02*
X215653330Y-80772000D01*
X229412500Y-72010830D02*
X227577330Y-73846000D01*
D47*
X193548000Y-62484000D02*
X194056000Y-62992000D01*
D45*
X213360000Y-80772000D02*
X213372000Y-80784000D01*
D47*
X228092000Y-83501846D02*
X228092000Y-88255344D01*
X188468000Y-72915000D02*
X186229000Y-72915000D01*
X188468000Y-65024000D02*
X188468000Y-72915000D01*
X227111000Y-51851000D02*
X225552000Y-51851000D01*
X222474344Y-88285000D02*
X221996000Y-88285000D01*
X197866000Y-79502000D02*
X198374000Y-80010000D01*
D45*
X201447000Y-78346000D02*
X203086000Y-78346000D01*
X224344000Y-74360000D02*
X225044000Y-73660000D01*
X229182500Y-64346000D02*
X226797000Y-64346000D01*
D47*
X188468000Y-77244000D02*
X186229000Y-79483000D01*
D45*
X211372000Y-58376000D02*
X211328000Y-58420000D01*
D47*
X227674749Y-83084595D02*
X228092000Y-83501846D01*
D45*
X224766000Y-91210000D02*
X223073000Y-91210000D01*
X226797000Y-61846000D02*
X227962000Y-61846000D01*
D48*
X210312000Y-59436000D02*
X211328000Y-58420000D01*
D45*
X225843000Y-89913500D02*
X225843000Y-90133000D01*
X225333950Y-75884000D02*
X224754050Y-75884000D01*
D47*
X219692500Y-51579500D02*
X219505000Y-51392000D01*
X219456000Y-51816000D02*
X215392000Y-51816000D01*
D45*
X229083500Y-68346000D02*
X226797000Y-68346000D01*
D47*
X226433844Y-89913500D02*
X225843000Y-89913500D01*
D45*
X202322000Y-81221000D02*
X201447000Y-80346000D01*
X203372000Y-56921000D02*
X203302500Y-56921000D01*
X228921500Y-70846000D02*
X226797000Y-70846000D01*
X204872000Y-82271000D02*
X204872000Y-81490670D01*
X201447000Y-62346000D02*
X198200500Y-62346000D01*
D47*
X228092000Y-88255344D02*
X226433844Y-89913500D01*
D48*
X211328000Y-58420000D02*
X213868000Y-58420000D01*
D45*
X230211500Y-72644000D02*
X232527000Y-72644000D01*
D47*
X221996000Y-88285000D02*
X221379000Y-88285000D01*
D45*
X229257500Y-78846000D02*
X226797000Y-78846000D01*
D47*
X227674749Y-83084595D02*
X224536000Y-86223344D01*
D45*
X213372000Y-80784000D02*
X213372000Y-82271000D01*
X211372000Y-56921000D02*
X211372000Y-58376000D01*
D47*
X197554500Y-62992000D02*
X197859000Y-62687500D01*
D45*
X215653330Y-80772000D02*
X213360000Y-80772000D01*
D47*
X227685750Y-82905750D02*
X227674749Y-82905750D01*
D45*
X213648000Y-88285000D02*
X213253000Y-88285000D01*
X229412500Y-71845000D02*
X229412500Y-72010830D01*
X198200500Y-62346000D02*
X197859000Y-62687500D01*
D47*
X232527000Y-64516000D02*
X229357500Y-64516000D01*
D45*
X223872000Y-55634500D02*
X223872000Y-56921000D01*
D47*
X191770000Y-77470000D02*
X193802000Y-79502000D01*
X232527000Y-77994000D02*
X232527000Y-72644000D01*
D45*
X226797000Y-64846000D02*
X226797000Y-64346000D01*
D47*
X231140000Y-79451500D02*
X227685750Y-82905750D01*
X195326000Y-55626000D02*
X192739000Y-53039000D01*
D45*
X201447000Y-70846000D02*
X202926000Y-70846000D01*
X201447000Y-61846000D02*
X201447000Y-62346000D01*
X222872000Y-80953000D02*
X223053000Y-80772000D01*
D47*
X188468000Y-72915000D02*
X188468000Y-74168000D01*
D45*
X211328000Y-56965000D02*
X211372000Y-56921000D01*
X229412500Y-71845000D02*
X229412500Y-71337000D01*
D48*
X203200000Y-71120000D02*
X203200000Y-72098500D01*
D45*
X204216000Y-58420000D02*
X203872000Y-58076000D01*
X221996000Y-83820000D02*
X222504000Y-83820000D01*
X199644000Y-81280000D02*
X199703000Y-81221000D01*
D47*
X225552000Y-51851000D02*
X225552000Y-53954500D01*
D45*
X201577000Y-61976000D02*
X201447000Y-61846000D01*
X204872000Y-81490670D02*
X204602330Y-81221000D01*
X215372000Y-56921000D02*
X215372000Y-58220500D01*
X201447000Y-77846000D02*
X199522000Y-77846000D01*
D47*
X231140000Y-79451500D02*
X229863000Y-79451500D01*
X232527000Y-68072000D02*
X229357500Y-68072000D01*
X224536000Y-86223344D02*
X222474344Y-88285000D01*
D46*
X203200000Y-65024000D02*
X203200000Y-61976000D01*
D47*
X238022241Y-83181000D02*
X238022241Y-78219759D01*
D46*
X203200000Y-61976000D02*
X201577000Y-61976000D01*
D45*
X202926000Y-70846000D02*
X203200000Y-71120000D01*
X199522000Y-77846000D02*
X197866000Y-79502000D01*
X222872000Y-83452000D02*
X222872000Y-82271000D01*
D47*
X194056000Y-62992000D02*
X197554500Y-62992000D01*
X225552000Y-53954500D02*
X224819500Y-54687000D01*
X225540999Y-80772000D02*
X223053000Y-80772000D01*
D48*
X205232000Y-59436000D02*
X210312000Y-59436000D01*
D45*
X224819500Y-54687000D02*
X223872000Y-55634500D01*
D47*
X215392000Y-53741476D02*
X215072476Y-54061000D01*
X232527000Y-57267000D02*
X227584000Y-52324000D01*
X238022241Y-78219759D02*
X238144000Y-78098000D01*
X195326000Y-55626000D02*
X193548000Y-57404000D01*
D45*
X222504000Y-83820000D02*
X222872000Y-83452000D01*
X229355000Y-64518500D02*
X229182500Y-64346000D01*
X201447000Y-77846000D02*
X202814000Y-77846000D01*
D47*
X193548000Y-57404000D02*
X193548000Y-62484000D01*
X227584000Y-52324000D02*
X227111000Y-51851000D01*
D45*
X203872000Y-56921000D02*
X203302500Y-56921000D01*
D47*
X198374000Y-80010000D02*
X199644000Y-81280000D01*
X235338000Y-76646500D02*
X234875000Y-76183500D01*
D45*
X201447000Y-80346000D02*
X201447000Y-80425000D01*
D47*
X229357500Y-68072000D02*
X229355000Y-68074500D01*
X238144000Y-78098000D02*
X235338000Y-78098000D01*
X227674749Y-82905750D02*
X225540999Y-80772000D01*
D45*
X216372000Y-82271000D02*
X216372000Y-81490670D01*
X200038000Y-78346000D02*
X198374000Y-80010000D01*
D47*
X192739000Y-53039000D02*
X192739000Y-48975000D01*
D45*
X226797000Y-75346000D02*
X225871950Y-75346000D01*
X226797000Y-73846000D02*
X225230000Y-73846000D01*
D47*
X232527000Y-61976000D02*
X232527000Y-57267000D01*
X190500000Y-62992000D02*
X188468000Y-65024000D01*
D45*
X203086000Y-78346000D02*
X203200000Y-78232000D01*
X228092000Y-61976000D02*
X232527000Y-61976000D01*
X213253000Y-88285000D02*
X212344000Y-87376000D01*
D48*
X203302500Y-56921000D02*
X201605000Y-55223500D01*
D45*
X229355000Y-68074500D02*
X229083500Y-68346000D01*
X201447000Y-78346000D02*
X200038000Y-78346000D01*
X224754050Y-75884000D02*
X224344000Y-75473950D01*
X227577330Y-73846000D02*
X226797000Y-73846000D01*
X225843000Y-90133000D02*
X224766000Y-91210000D01*
D46*
%TO.N,Net-(U4A-+)*%
X223478000Y-101812000D02*
X223012000Y-101346000D01*
X223478000Y-102934000D02*
X223478000Y-101812000D01*
D45*
%TO.N,AD1939_I2S2_SDO*%
X219938500Y-86360000D02*
X220148000Y-86569500D01*
X218948000Y-80772000D02*
X213868000Y-75692000D01*
X220148000Y-86569500D02*
X220148000Y-88285000D01*
X213868000Y-75692000D02*
X211328000Y-75692000D01*
X209296000Y-75692000D02*
X209142000Y-75846000D01*
X209142000Y-75846000D02*
X201447000Y-75846000D01*
%TO.N,AD1939_I2S1_WS*%
X215148000Y-88285000D02*
X215148000Y-87051835D01*
X205372000Y-83960000D02*
X205372000Y-82271000D01*
X215148000Y-87051835D02*
X213948165Y-85852000D01*
X213948165Y-85852000D02*
X207264000Y-85852000D01*
X207264000Y-85852000D02*
X205372000Y-83960000D01*
%TO.N,AD1939_I2S1_CK*%
X205872000Y-83444000D02*
X205872000Y-82271000D01*
X207772000Y-85344000D02*
X205872000Y-83444000D01*
X214376000Y-85344000D02*
X207772000Y-85344000D01*
X215648000Y-86616000D02*
X214376000Y-85344000D01*
X215648000Y-88285000D02*
X215648000Y-86616000D01*
%TO.N,AD1939_I2S1_SDI*%
X217932000Y-78740000D02*
X217932000Y-77216000D01*
X214872000Y-74156000D02*
X214872000Y-56921000D01*
X216148000Y-85592000D02*
X215900000Y-85344000D01*
X216148000Y-88285000D02*
X216148000Y-85592000D01*
X217932000Y-77216000D02*
X214872000Y-74156000D01*
%TO.N,AD1939_SPI3_MOSI*%
X214648000Y-89090330D02*
X214378330Y-89360000D01*
X209804000Y-86868000D02*
X208088500Y-86868000D01*
X210312000Y-87376000D02*
X209804000Y-86868000D01*
X214378330Y-89360000D02*
X212296000Y-89360000D01*
X212296000Y-89360000D02*
X210312000Y-87376000D01*
X214648000Y-88285000D02*
X214648000Y-89090330D01*
X208788000Y-84328000D02*
X209372000Y-83744000D01*
X208280000Y-84328000D02*
X208788000Y-84328000D01*
X209372000Y-83744000D02*
X209372000Y-82271000D01*
%TO.N,AD1939_I2S2_CK*%
X219148000Y-85625244D02*
X219148000Y-88285000D01*
X218948000Y-84136500D02*
X219872000Y-83212500D01*
X219872000Y-83212500D02*
X219872000Y-82271000D01*
X219188622Y-85584622D02*
X219148000Y-85625244D01*
%TO.N,AD1939_I2S2_WS*%
X218648000Y-88285000D02*
X218648000Y-87018315D01*
X223372000Y-83968000D02*
X223372000Y-82271000D01*
X218648000Y-87018315D02*
X218440000Y-86810315D01*
X222504000Y-84836000D02*
X223372000Y-83968000D01*
X218440000Y-85344000D02*
X218948000Y-84836000D01*
X218948000Y-84836000D02*
X222504000Y-84836000D01*
X218440000Y-86810315D02*
X218440000Y-85344000D01*
%TO.N,AD1939_SPI3_CLK*%
X209804000Y-89916000D02*
X210598000Y-90710000D01*
X209804000Y-88392000D02*
X209804000Y-89916000D01*
X221372000Y-60568000D02*
X221372000Y-56921000D01*
X210598000Y-90710000D02*
X211723000Y-90710000D01*
X219964000Y-61976000D02*
X221372000Y-60568000D01*
%TO.N,AD1939_SPI3_MISO*%
X220872000Y-58528000D02*
X220872000Y-56921000D01*
X214148000Y-87041078D02*
X213763211Y-86656289D01*
X214148000Y-88285000D02*
X214148000Y-87041078D01*
X220472000Y-59944000D02*
X220472000Y-58928000D01*
X220472000Y-58928000D02*
X220872000Y-58528000D01*
%TO.N,AD1939_SPI_CS*%
X208788000Y-89465685D02*
X210532315Y-91210000D01*
X210005833Y-84529833D02*
X210872000Y-83663665D01*
X210872000Y-83663665D02*
X210872000Y-82271000D01*
X210532315Y-91210000D02*
X211723000Y-91210000D01*
X208788000Y-88900000D02*
X208788000Y-89465685D01*
D46*
%TO.N,Net-(U4B-+)*%
X219597500Y-110885500D02*
X219953000Y-110885500D01*
X222208000Y-109516000D02*
X220838500Y-110885500D01*
X222208000Y-108284000D02*
X222208000Y-109516000D01*
X217391000Y-109175000D02*
X217887000Y-109175000D01*
X217887000Y-109175000D02*
X219597500Y-110885500D01*
X220838500Y-110885500D02*
X219953000Y-110885500D01*
D45*
%TO.N,Net-(C19-Pad2)*%
X228150500Y-114713000D02*
X228256500Y-114819000D01*
X232290500Y-113149500D02*
X232290500Y-112533000D01*
D46*
X228522500Y-114819000D02*
X225421000Y-114819000D01*
D45*
X229283500Y-113792000D02*
X231648000Y-113792000D01*
D46*
X225421000Y-114819000D02*
X225315000Y-114713000D01*
D45*
X228256500Y-114819000D02*
X229283500Y-113792000D01*
X231648000Y-113792000D02*
X232290500Y-113149500D01*
D46*
%TO.N,Net-(C22-Pad2)*%
X202629000Y-97599000D02*
X203486154Y-97599000D01*
D45*
X201923654Y-99455000D02*
X202826846Y-100358192D01*
X202826846Y-102472290D02*
X201842136Y-103457000D01*
D46*
X201923654Y-99455000D02*
X201923654Y-98304346D01*
D45*
X201598982Y-103213846D02*
X201842136Y-103457000D01*
X202826846Y-100358192D02*
X202826846Y-102472290D01*
D46*
X201923654Y-98304346D02*
X202629000Y-97599000D01*
D45*
X203423154Y-97536000D02*
X202946000Y-97536000D01*
X203486154Y-97599000D02*
X203423154Y-97536000D01*
D46*
X199739568Y-103213846D02*
X201598982Y-103213846D01*
D45*
%TO.N,ADC1N*%
X216916000Y-102362000D02*
X216972500Y-102418500D01*
X216817500Y-101501500D02*
X216817500Y-101951000D01*
X216563500Y-101951000D02*
X216916000Y-102303500D01*
X216817500Y-103604000D02*
X216972500Y-103759000D01*
X217007000Y-105741000D02*
X217007000Y-103793500D01*
X216916000Y-102303500D02*
X216916000Y-102362000D01*
X217007000Y-103793500D02*
X216972500Y-103759000D01*
X216817500Y-101951000D02*
X216817500Y-103604000D01*
X216148000Y-100832000D02*
X216817500Y-101501500D01*
X216148000Y-99635000D02*
X216148000Y-100832000D01*
D46*
%TO.N,AD1939_CM*%
X217391000Y-111175000D02*
X215823000Y-111175000D01*
X215823000Y-111175000D02*
X214376000Y-109728000D01*
D45*
X211601000Y-103359000D02*
X213868000Y-101092000D01*
X213868000Y-101092000D02*
X214496330Y-101092000D01*
X214496330Y-101092000D02*
X215148000Y-100440330D01*
X214376000Y-108160000D02*
X214376000Y-107887500D01*
X215148000Y-100440330D02*
X215148000Y-99635000D01*
D46*
X214376000Y-109728000D02*
X214376000Y-107887500D01*
D45*
X211601000Y-104413000D02*
X211601000Y-103359000D01*
D47*
%TO.N,+3.3VA*%
X190851000Y-103475000D02*
X189992000Y-102616000D01*
D51*
X189992000Y-102616000D02*
X189992000Y-100496000D01*
X189992000Y-100496000D02*
X190075000Y-100413000D01*
D45*
X219640000Y-98044000D02*
X220148000Y-98552000D01*
D47*
X194186500Y-103475000D02*
X190851000Y-103475000D01*
D45*
X211723000Y-96210000D02*
X210595244Y-96210000D01*
X210595244Y-96210000D02*
X210171622Y-96633622D01*
X220148000Y-98552000D02*
X220148000Y-99635000D01*
D51*
X189992000Y-102616000D02*
X189992000Y-103810759D01*
D45*
X214771000Y-97233494D02*
X215581506Y-98044000D01*
X215581506Y-98044000D02*
X219640000Y-98044000D01*
X214648000Y-97356494D02*
X214648000Y-99635000D01*
D51*
X189992000Y-103810759D02*
X192583000Y-106401759D01*
D45*
X214771000Y-97233494D02*
X214648000Y-97356494D01*
D46*
%TO.N,Net-(C39-Pad2)*%
X199739568Y-101213846D02*
X201716192Y-101213846D01*
D45*
X201716192Y-101213846D02*
X201989346Y-101487000D01*
D48*
%TO.N,GUITAR_OUT_L{slash}MONO*%
X206186642Y-113057500D02*
X208254142Y-115125000D01*
X215248000Y-112776000D02*
X217073000Y-114601000D01*
X211169000Y-115187500D02*
X213580500Y-112776000D01*
X208316642Y-115187500D02*
X208254142Y-115125000D01*
X213580500Y-112776000D02*
X215248000Y-112776000D01*
X210495000Y-115187500D02*
X211169000Y-115187500D01*
X205472426Y-113057500D02*
X206186642Y-113057500D01*
X210495000Y-115187500D02*
X208316642Y-115187500D01*
D49*
%TO.N,Net-(D3-K)*%
X247555000Y-97045000D02*
X245325000Y-99275000D01*
X247555000Y-96629976D02*
X247555000Y-97045000D01*
X244545000Y-93405500D02*
X244545000Y-95512500D01*
X240937000Y-98493500D02*
X244543500Y-98493500D01*
X244543500Y-98493500D02*
X245325000Y-99275000D01*
X244543500Y-98493500D02*
X244543500Y-96256000D01*
X244543500Y-96256000D02*
X244172500Y-95885000D01*
X244545000Y-95512500D02*
X244172500Y-95885000D01*
D45*
%TO.N,ADC1P*%
X215092500Y-101391500D02*
X215092500Y-101951000D01*
X215092500Y-101951000D02*
X215092500Y-102153500D01*
X215092500Y-103452000D02*
X214785500Y-103759000D01*
X215092500Y-101951000D02*
X215092500Y-103452000D01*
X215648000Y-100836000D02*
X215092500Y-101391500D01*
X215648000Y-99635000D02*
X215648000Y-100836000D01*
X215092500Y-102153500D02*
X214884000Y-102362000D01*
X214723000Y-105741000D02*
X214785500Y-105678500D01*
X214785500Y-105678500D02*
X214785500Y-103759000D01*
D46*
%TO.N,Net-(C42-Pad1)*%
X205472426Y-115132500D02*
X202918784Y-115132500D01*
D48*
X202918784Y-115132500D02*
X202911284Y-115125000D01*
D45*
%TO.N,EXT_INT_BUTTON*%
X226797000Y-65846000D02*
X225719950Y-65846000D01*
X225017950Y-66548000D02*
X225044000Y-66548000D01*
X225719950Y-65846000D02*
X225017950Y-66548000D01*
%TO.N,AD1939_MCLKI*%
X223073000Y-97210000D02*
X224210000Y-97210000D01*
X224210000Y-97210000D02*
X224536000Y-97536000D01*
%TO.N,AD1939_MCLKO*%
X225742000Y-96710000D02*
X223073000Y-96710000D01*
%TO.N,AD1939_LF*%
X221523000Y-100584000D02*
X221397000Y-100710000D01*
X219648000Y-100440330D02*
X219648000Y-99635000D01*
X225552000Y-100584000D02*
X226060000Y-100076000D01*
X219917670Y-100710000D02*
X219648000Y-100440330D01*
X221523000Y-100584000D02*
X225552000Y-100584000D01*
X221397000Y-100710000D02*
X219917670Y-100710000D01*
D47*
%TO.N,+9V*%
X240834000Y-104616000D02*
X240834000Y-101571500D01*
D49*
X227789500Y-105664000D02*
X228514500Y-106389000D01*
X227076000Y-105664000D02*
X227789500Y-105664000D01*
D47*
X240834000Y-101571500D02*
X240937000Y-101468500D01*
D49*
X241283500Y-101815000D02*
X240937000Y-101468500D01*
D46*
X226018000Y-108284000D02*
X226996000Y-108284000D01*
D47*
X245207500Y-101932500D02*
X245325000Y-101815000D01*
D49*
X201930000Y-111252000D02*
X201930000Y-110528000D01*
X194963295Y-110852705D02*
X193109000Y-112707000D01*
X245325000Y-101815000D02*
X241283500Y-101815000D01*
X199674205Y-110852705D02*
X194963295Y-110852705D01*
X201930000Y-110528000D02*
X202472000Y-109986000D01*
X199913000Y-111091500D02*
X199674205Y-110852705D01*
X199913000Y-111091500D02*
X201769500Y-111091500D01*
D47*
X240834000Y-104616000D02*
X240834000Y-109566000D01*
D46*
X226996000Y-108284000D02*
X227025721Y-108254279D01*
D49*
X193109000Y-112707000D02*
X193109000Y-113441000D01*
D47*
X245207500Y-104463000D02*
X245207500Y-101932500D01*
D49*
X201769500Y-111091500D02*
X201930000Y-111252000D01*
D46*
%TO.N,Net-(C73-Pad1)*%
X234353000Y-112195500D02*
X234015500Y-112533000D01*
X234353000Y-110313000D02*
X234353000Y-112195500D01*
D52*
%TO.N,-9V*%
X208276000Y-106176000D02*
X209804000Y-104648000D01*
X209804000Y-104648000D02*
X209804000Y-103632000D01*
X207822000Y-106176000D02*
X208276000Y-106176000D01*
X209804000Y-103632000D02*
X210820000Y-102616000D01*
D47*
X237024000Y-108500000D02*
X236728000Y-108204000D01*
X236728000Y-108204000D02*
X233680000Y-108204000D01*
X237024000Y-109566000D02*
X237024000Y-108500000D01*
X237773000Y-113562241D02*
X237024000Y-112813241D01*
X237024000Y-112813241D02*
X237024000Y-109566000D01*
D48*
X222208000Y-102119654D02*
X221491442Y-101403096D01*
X222208000Y-102934000D02*
X222208000Y-102119654D01*
D45*
%TO.N,AD1939_FILTR*%
X215900000Y-94488000D02*
X213178000Y-97210000D01*
X213178000Y-97210000D02*
X211723000Y-97210000D01*
%TO.N,OSC0*%
X197677000Y-71368500D02*
X197677000Y-71693000D01*
X193405000Y-71263000D02*
X194564000Y-70104000D01*
X197677000Y-71693000D02*
X199830000Y-73846000D01*
X193405000Y-72284000D02*
X193405000Y-71263000D01*
X199830000Y-73846000D02*
X201447000Y-73846000D01*
X194564000Y-70104000D02*
X196412500Y-70104000D01*
X196412500Y-70104000D02*
X197677000Y-71368500D01*
D46*
%TO.N,Net-(D7-A)*%
X193763000Y-114787000D02*
X193109000Y-115441000D01*
X193763000Y-114787000D02*
X196258000Y-114787000D01*
D45*
%TO.N,SWDIO*%
X227666000Y-58846000D02*
X226797000Y-58846000D01*
X228092000Y-58420000D02*
X227666000Y-58846000D01*
X228092000Y-57404000D02*
X228092000Y-58420000D01*
%TO.N,SWCLK*%
X221488000Y-55187000D02*
X222372000Y-56071000D01*
X221488000Y-54864000D02*
X221488000Y-55187000D01*
X222372000Y-56071000D02*
X222372000Y-56921000D01*
D46*
%TO.N,GUITAR_IN*%
X223315000Y-114713000D02*
X219725000Y-114713000D01*
X219725000Y-114713000D02*
X219613000Y-114601000D01*
D47*
%TO.N,PWR_INPUT_12V-18V*%
X239776000Y-51208000D02*
X239727000Y-51159000D01*
D49*
X245806500Y-89057000D02*
X247396000Y-87467500D01*
D47*
X239727000Y-51504241D02*
X236498241Y-54733000D01*
D49*
X244058500Y-89057000D02*
X245806500Y-89057000D01*
D47*
X239776000Y-54454759D02*
X239776000Y-51208000D01*
X242744241Y-57423000D02*
X239776000Y-54454759D01*
X246907000Y-57423000D02*
X247396000Y-57912000D01*
X247396000Y-57912000D02*
X247396000Y-87467500D01*
X244877000Y-60471000D02*
X244877000Y-57423000D01*
D49*
X244545000Y-89543500D02*
X244058500Y-89057000D01*
D47*
X239727000Y-51159000D02*
X239727000Y-49127000D01*
X239727000Y-51159000D02*
X239727000Y-51504241D01*
X244877000Y-57423000D02*
X246907000Y-57423000D01*
D49*
X244545000Y-91580500D02*
X244545000Y-89543500D01*
D47*
X244877000Y-57423000D02*
X242744241Y-57423000D01*
D45*
%TO.N,DAC2R*%
X207772000Y-94996000D02*
X208058000Y-94710000D01*
X208058000Y-94710000D02*
X211723000Y-94710000D01*
%TO.N,DAC2L*%
X207772000Y-96266000D02*
X208828000Y-95210000D01*
X208828000Y-95210000D02*
X211723000Y-95210000D01*
D46*
%TO.N,Net-(R17-Pad2)*%
X202472000Y-108716000D02*
X203704000Y-108716000D01*
X204216000Y-109228000D02*
X204216000Y-110744000D01*
X204216000Y-110744000D02*
X202911284Y-112048716D01*
X203704000Y-108716000D02*
X204216000Y-109228000D01*
X202911284Y-112048716D02*
X202911284Y-113125000D01*
%TO.N,Net-(R23-Pad2)*%
X206248000Y-110236000D02*
X207572000Y-110236000D01*
D45*
X207572000Y-110236000D02*
X207822000Y-109986000D01*
%TO.N,DAC1L*%
X207462580Y-94210000D02*
X211723000Y-94210000D01*
X206031000Y-95641580D02*
X207462580Y-94210000D01*
%TO.N,DAC1R*%
X205711704Y-93710000D02*
X203822704Y-95599000D01*
X211723000Y-93710000D02*
X205711704Y-93710000D01*
D49*
%TO.N,/MCU/NRST*%
X198569000Y-84063000D02*
X191369000Y-84063000D01*
D45*
X191369000Y-83673000D02*
X191369000Y-84063000D01*
X195072000Y-81280000D02*
X192289000Y-84063000D01*
X201447000Y-74846000D02*
X203030000Y-74846000D01*
X192289000Y-84063000D02*
X191369000Y-84063000D01*
X203030000Y-74846000D02*
X203200000Y-74676000D01*
D47*
%TO.N,Net-(C20-Pad2)*%
X228092000Y-108712000D02*
X228092000Y-110258000D01*
D45*
X228522500Y-108019750D02*
X228522500Y-108421000D01*
X219007000Y-105741000D02*
X220903000Y-105741000D01*
D46*
X228185000Y-112539000D02*
X228185000Y-110351000D01*
D47*
X228383000Y-108421000D02*
X228092000Y-108712000D01*
D45*
X221334000Y-106172000D02*
X226018000Y-106172000D01*
X226018000Y-106424500D02*
X226273500Y-106680000D01*
X220903000Y-105741000D02*
X221334000Y-106172000D01*
X226018000Y-106172000D02*
X226018000Y-106424500D01*
X226018000Y-104182000D02*
X226018000Y-102934000D01*
D47*
X228522500Y-108421000D02*
X228383000Y-108421000D01*
X228092000Y-110258000D02*
X228185000Y-110351000D01*
D45*
X227182750Y-106680000D02*
X228522500Y-108019750D01*
X228029000Y-110507000D02*
X228185000Y-110351000D01*
X226018000Y-106172000D02*
X226018000Y-104182000D01*
X226273500Y-106680000D02*
X227182750Y-106680000D01*
X226018000Y-106257316D02*
X226018000Y-104182000D01*
D46*
%TO.N,Net-(C21-Pad2)*%
X225315000Y-110663000D02*
X225315000Y-112371500D01*
D45*
X212723000Y-105741000D02*
X214170000Y-107188000D01*
D46*
X225315000Y-110663000D02*
X224748000Y-110096000D01*
D45*
X214170000Y-107188000D02*
X221234000Y-107188000D01*
X221234000Y-107188000D02*
X221488000Y-106934000D01*
X224748000Y-108284000D02*
X224748000Y-107146000D01*
D46*
X225315000Y-112371500D02*
X224977500Y-112709000D01*
D45*
X221488000Y-106934000D02*
X224536000Y-106934000D01*
D46*
X224748000Y-110096000D02*
X224748000Y-108284000D01*
D45*
X224748000Y-107146000D02*
X224536000Y-106934000D01*
D46*
%TO.N,Net-(C23-Pad1)*%
X207593500Y-98373500D02*
X206861580Y-97641580D01*
X207931000Y-99792500D02*
X207931000Y-101521000D01*
X207593500Y-98373500D02*
X207593500Y-99455000D01*
X206861580Y-97641580D02*
X206031000Y-97641580D01*
D45*
X207593500Y-99455000D02*
X207931000Y-99792500D01*
X206031000Y-97641580D02*
X206179420Y-97790000D01*
X207931000Y-101521000D02*
X207931000Y-103773278D01*
%TO.N,POT5*%
X201447000Y-72346000D02*
X200450000Y-72346000D01*
X200450000Y-72346000D02*
X200240000Y-72136000D01*
X200240000Y-72136000D02*
X199136000Y-72136000D01*
%TO.N,POT1*%
X198120000Y-67056000D02*
X199910000Y-68846000D01*
X199910000Y-68846000D02*
X201447000Y-68846000D01*
X198120000Y-64516000D02*
X198120000Y-67056000D01*
%TO.N,POT6*%
X199950000Y-72846000D02*
X199884622Y-72911378D01*
X201447000Y-72846000D02*
X199950000Y-72846000D01*
%TO.N,POT2*%
X199894000Y-69846000D02*
X201447000Y-69846000D01*
X196596000Y-64516000D02*
X196596000Y-66548000D01*
X196596000Y-66548000D02*
X199894000Y-69846000D01*
%TO.N,POT3*%
X193548000Y-64573686D02*
X193548000Y-64516000D01*
X200546314Y-71346000D02*
X200320314Y-71120000D01*
X201447000Y-71346000D02*
X200546314Y-71346000D01*
X200094314Y-71120000D02*
X193548000Y-64573686D01*
X200320314Y-71120000D02*
X200094314Y-71120000D01*
%TO.N,POT_EXT*%
X201447000Y-73346000D02*
X203006000Y-73346000D01*
D48*
X186229000Y-82023000D02*
X189757000Y-82023000D01*
X189757000Y-82023000D02*
X192024000Y-79756000D01*
D45*
X203006000Y-73346000D02*
X203195076Y-73156924D01*
%TO.N,POT4*%
X199125415Y-71135465D02*
X199120535Y-71135465D01*
X200405686Y-71736000D02*
X199725950Y-71736000D01*
X199725950Y-71736000D02*
X199125415Y-71135465D01*
X200515686Y-71846000D02*
X200405686Y-71736000D01*
X201447000Y-71846000D02*
X200515686Y-71846000D01*
%TO.N,OSC1*%
X195580000Y-75184000D02*
X196798834Y-76402834D01*
X197677000Y-76319670D02*
X197677000Y-76402834D01*
X197760164Y-76319670D02*
X197677000Y-76402834D01*
X198000330Y-76319670D02*
X197760164Y-76319670D01*
X201447000Y-74346000D02*
X199974000Y-74346000D01*
X199974000Y-74346000D02*
X198000330Y-76319670D01*
X196798834Y-76402834D02*
X197677000Y-76402834D01*
D46*
%TO.N,Net-(U2B--)*%
X205931000Y-104965000D02*
X203450000Y-107446000D01*
D45*
X202427500Y-107401500D02*
X202472000Y-107446000D01*
D46*
X199959568Y-107401500D02*
X202427500Y-107401500D01*
X205931000Y-103457000D02*
X205931000Y-104965000D01*
X203450000Y-107446000D02*
X202472000Y-107446000D01*
%TO.N,Net-(U2B-+)*%
X203714346Y-101487000D02*
X203714346Y-103329210D01*
X203842136Y-104805864D02*
X203842136Y-103457000D01*
D45*
X203714346Y-103329210D02*
X203842136Y-103457000D01*
D46*
X203842136Y-104805864D02*
X202472000Y-106176000D01*
%TO.N,Net-(U2A-+)*%
X209300000Y-107446000D02*
X209804000Y-107950000D01*
X207822000Y-107446000D02*
X209300000Y-107446000D01*
%TO.N,Net-(U2A--)*%
X207714849Y-108608849D02*
X207822000Y-108716000D01*
X206756000Y-108608849D02*
X206248000Y-108100849D01*
X206756000Y-108608849D02*
X207714849Y-108608849D01*
X206248000Y-108100849D02*
X206248000Y-106934000D01*
D45*
%TO.N,Net-(C1-Pad1)*%
X224872000Y-56921000D02*
X224872000Y-58928000D01*
X206650000Y-54250000D02*
X206756000Y-54356000D01*
X205715500Y-54250000D02*
X205372000Y-54593500D01*
X220872000Y-64116000D02*
X220872000Y-82271000D01*
X224872000Y-60116000D02*
X220872000Y-64116000D01*
X205715500Y-54250000D02*
X206650000Y-54250000D01*
X205372000Y-54593500D02*
X205372000Y-56921000D01*
X224872000Y-58928000D02*
X224872000Y-60116000D01*
%TO.N,Net-(U1-VCAPDSI)*%
X228930500Y-74346000D02*
X226797000Y-74346000D01*
X229684000Y-73592500D02*
X228930500Y-74346000D01*
%TD*%
%TA.AperFunction,Conductor*%
%TO.N,GND*%
G36*
X197555039Y-93999685D02*
G01*
X197600794Y-94052489D01*
X197612000Y-94104000D01*
X197612000Y-101984000D01*
X197592315Y-102051039D01*
X197539511Y-102096794D01*
X197488000Y-102108000D01*
X191078500Y-102108000D01*
X191011461Y-102088315D01*
X190965706Y-102035511D01*
X190954500Y-101984000D01*
X190954500Y-101487500D01*
X190974185Y-101420461D01*
X191026989Y-101374706D01*
X191078500Y-101363500D01*
X191094749Y-101363500D01*
X191123989Y-101357683D01*
X191153231Y-101351867D01*
X191219552Y-101307552D01*
X191263867Y-101241231D01*
X191275500Y-101182748D01*
X191275500Y-99643252D01*
X191263867Y-99584769D01*
X191219552Y-99518447D01*
X191153230Y-99474132D01*
X191094749Y-99462500D01*
X191094748Y-99462500D01*
X190251123Y-99462500D01*
X190223093Y-99459290D01*
X190210500Y-99456368D01*
X190197225Y-99453287D01*
X190001539Y-99448328D01*
X189950020Y-99457562D01*
X189933322Y-99460555D01*
X189911448Y-99462500D01*
X189100000Y-99462500D01*
X189032961Y-99442815D01*
X188987206Y-99390011D01*
X188976000Y-99338500D01*
X188976000Y-96887500D01*
X188995685Y-96820461D01*
X189048489Y-96774706D01*
X189100000Y-96763500D01*
X191094749Y-96763500D01*
X191123989Y-96757683D01*
X191153231Y-96751867D01*
X191219552Y-96707552D01*
X191263867Y-96641231D01*
X191275500Y-96582748D01*
X191275500Y-95043252D01*
X191263867Y-94984769D01*
X191219552Y-94918447D01*
X191153230Y-94874132D01*
X191094749Y-94862500D01*
X191094748Y-94862500D01*
X189100000Y-94862500D01*
X189032961Y-94842815D01*
X188987206Y-94790011D01*
X188976000Y-94738500D01*
X188976000Y-94104000D01*
X188995685Y-94036961D01*
X189048489Y-93991206D01*
X189100000Y-93980000D01*
X197488000Y-93980000D01*
X197555039Y-93999685D01*
G37*
%TD.AperFunction*%
%TD*%
%TA.AperFunction,Conductor*%
%TO.N,GND*%
G36*
X244238539Y-58947685D02*
G01*
X244284294Y-59000489D01*
X244295500Y-59052000D01*
X244295500Y-59194000D01*
X244275815Y-59261039D01*
X244223011Y-59306794D01*
X244171500Y-59318000D01*
X243857251Y-59318000D01*
X243798769Y-59329632D01*
X243732447Y-59373947D01*
X243688132Y-59440269D01*
X243676500Y-59498751D01*
X243676500Y-61443248D01*
X243688132Y-61501730D01*
X243732447Y-61568052D01*
X243798769Y-61612367D01*
X243857251Y-61624000D01*
X243880307Y-61624000D01*
X243947346Y-61643685D01*
X243993101Y-61696489D01*
X244003045Y-61765647D01*
X243974020Y-61829203D01*
X243948128Y-61851809D01*
X243934294Y-61860846D01*
X243757201Y-62023873D01*
X243609348Y-62213835D01*
X243494780Y-62425539D01*
X243416619Y-62653207D01*
X243398633Y-62760999D01*
X243398634Y-62761000D01*
X244382148Y-62761000D01*
X244333441Y-62898047D01*
X244323123Y-63048886D01*
X244353884Y-63196915D01*
X244387090Y-63261000D01*
X243398633Y-63261000D01*
X243416619Y-63368792D01*
X243494780Y-63596460D01*
X243609348Y-63808164D01*
X243757201Y-63998126D01*
X243934292Y-64161151D01*
X244135821Y-64292816D01*
X244230083Y-64334163D01*
X244283569Y-64379118D01*
X244304260Y-64445854D01*
X244285586Y-64513182D01*
X244235550Y-64558717D01*
X244219925Y-64566497D01*
X244049399Y-64695272D01*
X243905443Y-64853184D01*
X243792956Y-65034858D01*
X243774487Y-65082533D01*
X243715764Y-65234115D01*
X243676500Y-65444159D01*
X243676500Y-65657841D01*
X243715764Y-65867884D01*
X243792956Y-66067141D01*
X243905443Y-66248815D01*
X244049399Y-66406727D01*
X244219923Y-66535500D01*
X244411205Y-66630748D01*
X244616726Y-66689224D01*
X244653937Y-66692671D01*
X244776189Y-66704000D01*
X244779061Y-66704000D01*
X244974939Y-66704000D01*
X244977811Y-66704000D01*
X245112465Y-66691522D01*
X245137273Y-66689224D01*
X245342794Y-66630748D01*
X245344361Y-66629967D01*
X245534077Y-66535500D01*
X245704599Y-66406728D01*
X245848556Y-66248815D01*
X245961045Y-66067138D01*
X246038236Y-65867885D01*
X246077500Y-65657841D01*
X246077500Y-65444159D01*
X246038236Y-65234115D01*
X245961045Y-65034862D01*
X245954282Y-65023939D01*
X245848556Y-64853184D01*
X245704600Y-64695272D01*
X245534074Y-64566498D01*
X245518451Y-64558718D01*
X245467215Y-64511213D01*
X245449795Y-64443550D01*
X245471722Y-64377210D01*
X245523916Y-64334163D01*
X245618178Y-64292816D01*
X245819707Y-64161151D01*
X245996798Y-63998126D01*
X246144651Y-63808164D01*
X246146945Y-63803927D01*
X246196164Y-63754336D01*
X246264381Y-63739228D01*
X246329936Y-63763398D01*
X246372018Y-63819174D01*
X246380000Y-63862944D01*
X246380000Y-69472000D01*
X246360315Y-69539039D01*
X246307511Y-69584794D01*
X246256000Y-69596000D01*
X241232199Y-69596000D01*
X241165160Y-69576315D01*
X241161075Y-69573575D01*
X240995480Y-69457624D01*
X240789326Y-69361492D01*
X240569602Y-69302617D01*
X240343000Y-69282792D01*
X240116397Y-69302617D01*
X239896673Y-69361492D01*
X239690519Y-69457624D01*
X239524925Y-69573575D01*
X239458719Y-69595902D01*
X239453801Y-69596000D01*
X238718903Y-69596000D01*
X238694712Y-69593617D01*
X238680481Y-69590786D01*
X238662749Y-69587259D01*
X238662748Y-69587259D01*
X237023252Y-69587259D01*
X237023251Y-69587259D01*
X237005518Y-69590786D01*
X236991287Y-69593617D01*
X236967097Y-69596000D01*
X233296000Y-69596000D01*
X233228961Y-69576315D01*
X233183206Y-69523511D01*
X233172000Y-69472000D01*
X233172000Y-59052000D01*
X233191685Y-58984961D01*
X233244489Y-58939206D01*
X233296000Y-58928000D01*
X244171500Y-58928000D01*
X244238539Y-58947685D01*
G37*
%TD.AperFunction*%
%TD*%
%TA.AperFunction,Conductor*%
%TO.N,GND*%
G36*
X245815039Y-72155685D02*
G01*
X245860794Y-72208489D01*
X245872000Y-72260000D01*
X245872000Y-79124000D01*
X245852315Y-79191039D01*
X245799511Y-79236794D01*
X245748000Y-79248000D01*
X239315021Y-79248000D01*
X239247982Y-79228315D01*
X239202227Y-79175511D01*
X239192283Y-79106353D01*
X239221308Y-79042797D01*
X239246130Y-79020898D01*
X239288552Y-78992552D01*
X239288552Y-78992551D01*
X239332867Y-78926231D01*
X239344500Y-78867748D01*
X239344500Y-77328252D01*
X239332867Y-77269769D01*
X239332866Y-77269769D01*
X239288552Y-77203447D01*
X239222230Y-77159132D01*
X239163749Y-77147500D01*
X239163748Y-77147500D01*
X237124252Y-77147500D01*
X237124251Y-77147500D01*
X237065769Y-77159132D01*
X236999448Y-77203447D01*
X236955102Y-77269816D01*
X236901489Y-77314620D01*
X236832164Y-77323327D01*
X236769137Y-77293172D01*
X236732418Y-77233729D01*
X236728000Y-77200924D01*
X236728000Y-74395075D01*
X236747685Y-74328036D01*
X236800489Y-74282281D01*
X236869647Y-74272337D01*
X236933203Y-74301362D01*
X236955102Y-74326184D01*
X236999448Y-74392552D01*
X237065769Y-74436867D01*
X237124251Y-74448500D01*
X237124252Y-74448500D01*
X239163749Y-74448500D01*
X239192989Y-74442683D01*
X239222231Y-74436867D01*
X239288552Y-74392552D01*
X239332867Y-74326231D01*
X239344500Y-74267748D01*
X239344500Y-72728252D01*
X239332867Y-72669769D01*
X239332866Y-72669768D01*
X239288552Y-72603447D01*
X239222230Y-72559132D01*
X239163749Y-72547500D01*
X239163748Y-72547500D01*
X238548500Y-72547500D01*
X238481461Y-72527815D01*
X238435706Y-72475011D01*
X238424500Y-72423500D01*
X238424500Y-72260000D01*
X238444185Y-72192961D01*
X238496989Y-72147206D01*
X238548500Y-72136000D01*
X245748000Y-72136000D01*
X245815039Y-72155685D01*
G37*
%TD.AperFunction*%
%TD*%
%TA.AperFunction,Conductor*%
%TO.N,+3.3V*%
G36*
X202635039Y-80283685D02*
G01*
X202680794Y-80336489D01*
X202692000Y-80388000D01*
X202692000Y-82172000D01*
X202672315Y-82239039D01*
X202619511Y-82284794D01*
X202568000Y-82296000D01*
X198752000Y-82296000D01*
X198684961Y-82276315D01*
X198639206Y-82223511D01*
X198628000Y-82172000D01*
X198628000Y-80388000D01*
X198647685Y-80320961D01*
X198700489Y-80275206D01*
X198752000Y-80264000D01*
X202568000Y-80264000D01*
X202635039Y-80283685D01*
G37*
%TD.AperFunction*%
%TD*%
M02*
