%TF.GenerationSoftware,KiCad,Pcbnew,7.0.2*%
%TF.CreationDate,2023-11-02T10:17:44+01:00*%
%TF.ProjectId,stm_audio_board_V2,73746d5f-6175-4646-996f-5f626f617264,rev?*%
%TF.SameCoordinates,Original*%
%TF.FileFunction,Paste,Bot*%
%TF.FilePolarity,Positive*%
%FSLAX46Y46*%
G04 Gerber Fmt 4.6, Leading zero omitted, Abs format (unit mm)*
G04 Created by KiCad (PCBNEW 7.0.2) date 2023-11-02 10:17:44*
%MOMM*%
%LPD*%
G01*
G04 APERTURE LIST*
G04 Aperture macros list*
%AMRoundRect*
0 Rectangle with rounded corners*
0 $1 Rounding radius*
0 $2 $3 $4 $5 $6 $7 $8 $9 X,Y pos of 4 corners*
0 Add a 4 corners polygon primitive as box body*
4,1,4,$2,$3,$4,$5,$6,$7,$8,$9,$2,$3,0*
0 Add four circle primitives for the rounded corners*
1,1,$1+$1,$2,$3*
1,1,$1+$1,$4,$5*
1,1,$1+$1,$6,$7*
1,1,$1+$1,$8,$9*
0 Add four rect primitives between the rounded corners*
20,1,$1+$1,$2,$3,$4,$5,0*
20,1,$1+$1,$4,$5,$6,$7,0*
20,1,$1+$1,$6,$7,$8,$9,0*
20,1,$1+$1,$8,$9,$2,$3,0*%
G04 Aperture macros list end*
%ADD10RoundRect,0.237500X-0.237500X0.300000X-0.237500X-0.300000X0.237500X-0.300000X0.237500X0.300000X0*%
%ADD11RoundRect,0.237500X-0.300000X-0.237500X0.300000X-0.237500X0.300000X0.237500X-0.300000X0.237500X0*%
%ADD12RoundRect,0.250000X0.337500X0.475000X-0.337500X0.475000X-0.337500X-0.475000X0.337500X-0.475000X0*%
%ADD13RoundRect,0.250000X0.350000X0.450000X-0.350000X0.450000X-0.350000X-0.450000X0.350000X-0.450000X0*%
%ADD14R,1.600000X1.300000*%
%ADD15RoundRect,0.237500X0.300000X0.237500X-0.300000X0.237500X-0.300000X-0.237500X0.300000X-0.237500X0*%
%ADD16RoundRect,0.250001X-0.462499X-0.624999X0.462499X-0.624999X0.462499X0.624999X-0.462499X0.624999X0*%
%ADD17RoundRect,0.250000X-0.450000X0.350000X-0.450000X-0.350000X0.450000X-0.350000X0.450000X0.350000X0*%
%ADD18RoundRect,0.237500X0.237500X-0.300000X0.237500X0.300000X-0.237500X0.300000X-0.237500X-0.300000X0*%
%ADD19RoundRect,0.250000X-1.025000X0.875000X-1.025000X-0.875000X1.025000X-0.875000X1.025000X0.875000X0*%
%ADD20RoundRect,0.250000X-0.350000X-0.450000X0.350000X-0.450000X0.350000X0.450000X-0.350000X0.450000X0*%
%ADD21RoundRect,0.250001X-0.624999X0.462499X-0.624999X-0.462499X0.624999X-0.462499X0.624999X0.462499X0*%
%ADD22RoundRect,0.250000X0.450000X-0.350000X0.450000X0.350000X-0.450000X0.350000X-0.450000X-0.350000X0*%
%ADD23RoundRect,0.250000X0.875000X1.025000X-0.875000X1.025000X-0.875000X-1.025000X0.875000X-1.025000X0*%
%ADD24RoundRect,0.250000X0.475000X-0.337500X0.475000X0.337500X-0.475000X0.337500X-0.475000X-0.337500X0*%
G04 APERTURE END LIST*
D10*
%TO.C,C25*%
X220543000Y-103238524D03*
X220543000Y-104963524D03*
%TD*%
D11*
%TO.C,C54*%
X189314500Y-67885000D03*
X191039500Y-67885000D03*
%TD*%
D10*
%TO.C,C7*%
X200657000Y-82378500D03*
X200657000Y-84103500D03*
%TD*%
D12*
%TO.C,C15*%
X241010500Y-62163000D03*
X238935500Y-62163000D03*
%TD*%
D13*
%TO.C,R22*%
X203674999Y-103569000D03*
X201674999Y-103569000D03*
%TD*%
D14*
%TO.C,Y1*%
X228309000Y-96595000D03*
X231609000Y-96595000D03*
X231609000Y-98595000D03*
X228309000Y-98595000D03*
%TD*%
D15*
%TO.C,C63*%
X223603500Y-68346334D03*
X221878500Y-68346334D03*
%TD*%
D16*
%TO.C,D1*%
X237663500Y-59817000D03*
X240638500Y-59817000D03*
%TD*%
D17*
%TO.C,R15*%
X206063664Y-95711000D03*
X206063664Y-97711000D03*
%TD*%
D13*
%TO.C,R20*%
X203709665Y-101537000D03*
X201709665Y-101537000D03*
%TD*%
D11*
%TO.C,C41*%
X201966500Y-99315004D03*
X203691500Y-99315004D03*
%TD*%
D18*
%TO.C,C9*%
X212781000Y-79531500D03*
X212781000Y-77806500D03*
%TD*%
D11*
%TO.C,C56*%
X189314500Y-70431000D03*
X191039500Y-70431000D03*
%TD*%
D18*
%TO.C,C102*%
X234540000Y-76447500D03*
X234540000Y-74722500D03*
%TD*%
D19*
%TO.C,C26*%
X215838976Y-103913000D03*
X215838976Y-110313000D03*
%TD*%
D17*
%TO.C,R3*%
X222541000Y-102901024D03*
X222541000Y-104901024D03*
%TD*%
D15*
%TO.C,C79*%
X218437500Y-95425000D03*
X216712500Y-95425000D03*
%TD*%
D20*
%TO.C,R19*%
X205761661Y-101409000D03*
X207761661Y-101409000D03*
%TD*%
D21*
%TO.C,D2*%
X189617000Y-96439500D03*
X189617000Y-99414500D03*
%TD*%
D18*
%TO.C,C10*%
X204781000Y-64941500D03*
X204781000Y-63216500D03*
%TD*%
%TO.C,C34*%
X220003000Y-97245500D03*
X220003000Y-95520500D03*
%TD*%
%TO.C,C61*%
X207321000Y-71753500D03*
X207321000Y-70028500D03*
%TD*%
D12*
%TO.C,C80*%
X217188500Y-92059000D03*
X215113500Y-92059000D03*
%TD*%
D15*
%TO.C,C66*%
X231755500Y-94385000D03*
X230030500Y-94385000D03*
%TD*%
D18*
%TO.C,C17*%
X224525000Y-104963524D03*
X224525000Y-103238524D03*
%TD*%
D11*
%TO.C,C62*%
X189314500Y-65339000D03*
X191039500Y-65339000D03*
%TD*%
%TO.C,C40*%
X205761163Y-99451000D03*
X207486163Y-99451000D03*
%TD*%
%TO.C,C57*%
X189432500Y-60267000D03*
X191157500Y-60267000D03*
%TD*%
D10*
%TO.C,C33*%
X209081000Y-96506500D03*
X209081000Y-98231500D03*
%TD*%
D17*
%TO.C,R16*%
X203488998Y-95711000D03*
X203488998Y-97711000D03*
%TD*%
D10*
%TO.C,C47*%
X210531999Y-113501500D03*
X210531999Y-115226500D03*
%TD*%
D11*
%TO.C,C55*%
X189426500Y-57727000D03*
X191151500Y-57727000D03*
%TD*%
D13*
%TO.C,R33*%
X223727000Y-66384334D03*
X221727000Y-66384334D03*
%TD*%
D22*
%TO.C,R23*%
X202808996Y-115127000D03*
X202808996Y-113127000D03*
%TD*%
D18*
%TO.C,C11*%
X204653000Y-78195500D03*
X204653000Y-76470500D03*
%TD*%
%TO.C,C14*%
X221013000Y-88023500D03*
X221013000Y-86298500D03*
%TD*%
D22*
%TO.C,R10*%
X230373000Y-103325000D03*
X230373000Y-101325000D03*
%TD*%
D12*
%TO.C,C67*%
X228259500Y-103322000D03*
X226184500Y-103322000D03*
%TD*%
D22*
%TO.C,R24*%
X208262996Y-115241000D03*
X208262996Y-113241000D03*
%TD*%
D18*
%TO.C,C44*%
X209908330Y-106429500D03*
X209908330Y-104704500D03*
%TD*%
D11*
%TO.C,C59*%
X189314500Y-62793000D03*
X191039500Y-62793000D03*
%TD*%
D10*
%TO.C,C64*%
X223163000Y-73552500D03*
X223163000Y-75277500D03*
%TD*%
D18*
%TO.C,C6*%
X204653000Y-71561500D03*
X204653000Y-69836500D03*
%TD*%
D23*
%TO.C,C4*%
X240633000Y-66257000D03*
X234233000Y-66257000D03*
%TD*%
D24*
%TO.C,C46*%
X205609004Y-115210500D03*
X205609004Y-113135500D03*
%TD*%
D11*
%TO.C,C16*%
X204214500Y-74067000D03*
X205939500Y-74067000D03*
%TD*%
D18*
%TO.C,C65*%
X233831000Y-98361500D03*
X233831000Y-96636500D03*
%TD*%
D10*
%TO.C,C45*%
X199896996Y-105748501D03*
X199896996Y-107473501D03*
%TD*%
D18*
%TO.C,C32*%
X214771000Y-97233494D03*
X214771000Y-95508494D03*
%TD*%
D15*
%TO.C,C68*%
X228089500Y-101297000D03*
X226364500Y-101297000D03*
%TD*%
D13*
%TO.C,R21*%
X207693000Y-103377668D03*
X205693000Y-103377668D03*
%TD*%
M02*
