%TF.GenerationSoftware,KiCad,Pcbnew,7.0.2*%
%TF.CreationDate,2023-11-02T10:17:44+01:00*%
%TF.ProjectId,stm_audio_board_V2,73746d5f-6175-4646-996f-5f626f617264,rev?*%
%TF.SameCoordinates,Original*%
%TF.FileFunction,Legend,Top*%
%TF.FilePolarity,Positive*%
%FSLAX46Y46*%
G04 Gerber Fmt 4.6, Leading zero omitted, Abs format (unit mm)*
G04 Created by KiCad (PCBNEW 7.0.2) date 2023-11-02 10:17:44*
%MOMM*%
%LPD*%
G01*
G04 APERTURE LIST*
%ADD10C,0.150000*%
%ADD11C,0.120000*%
G04 APERTURE END LIST*
D10*
X210312000Y-91440000D02*
X210312000Y-93472000D01*
X182880000Y-91440000D02*
X210312000Y-91440000D01*
X224536000Y-93472000D02*
X248920000Y-93472000D01*
X248920000Y-91440000D02*
X224536000Y-91440000D01*
X224536000Y-91440000D02*
X224536000Y-93472000D01*
X210312000Y-93472000D02*
X182880000Y-93472000D01*
X248920000Y-93472000D02*
X248920000Y-91440000D01*
X182880000Y-93472000D02*
X182880000Y-91440000D01*
%TO.C,Y2*%
X197428928Y-74210190D02*
X197905119Y-74210190D01*
X196905119Y-74543523D02*
X197428928Y-74210190D01*
X197428928Y-74210190D02*
X196905119Y-73876857D01*
X197000357Y-73591142D02*
X196952738Y-73543523D01*
X196952738Y-73543523D02*
X196905119Y-73448285D01*
X196905119Y-73448285D02*
X196905119Y-73210190D01*
X196905119Y-73210190D02*
X196952738Y-73114952D01*
X196952738Y-73114952D02*
X197000357Y-73067333D01*
X197000357Y-73067333D02*
X197095595Y-73019714D01*
X197095595Y-73019714D02*
X197190833Y-73019714D01*
X197190833Y-73019714D02*
X197333690Y-73067333D01*
X197333690Y-73067333D02*
X197905119Y-73638761D01*
X197905119Y-73638761D02*
X197905119Y-73019714D01*
%TO.C,C39*%
X202208988Y-103284380D02*
X202161369Y-103332000D01*
X202161369Y-103332000D02*
X202018512Y-103379619D01*
X202018512Y-103379619D02*
X201923274Y-103379619D01*
X201923274Y-103379619D02*
X201780417Y-103332000D01*
X201780417Y-103332000D02*
X201685179Y-103236761D01*
X201685179Y-103236761D02*
X201637560Y-103141523D01*
X201637560Y-103141523D02*
X201589941Y-102951047D01*
X201589941Y-102951047D02*
X201589941Y-102808190D01*
X201589941Y-102808190D02*
X201637560Y-102617714D01*
X201637560Y-102617714D02*
X201685179Y-102522476D01*
X201685179Y-102522476D02*
X201780417Y-102427238D01*
X201780417Y-102427238D02*
X201923274Y-102379619D01*
X201923274Y-102379619D02*
X202018512Y-102379619D01*
X202018512Y-102379619D02*
X202161369Y-102427238D01*
X202161369Y-102427238D02*
X202208988Y-102474857D01*
X202542322Y-102379619D02*
X203161369Y-102379619D01*
X203161369Y-102379619D02*
X202828036Y-102760571D01*
X202828036Y-102760571D02*
X202970893Y-102760571D01*
X202970893Y-102760571D02*
X203066131Y-102808190D01*
X203066131Y-102808190D02*
X203113750Y-102855809D01*
X203113750Y-102855809D02*
X203161369Y-102951047D01*
X203161369Y-102951047D02*
X203161369Y-103189142D01*
X203161369Y-103189142D02*
X203113750Y-103284380D01*
X203113750Y-103284380D02*
X203066131Y-103332000D01*
X203066131Y-103332000D02*
X202970893Y-103379619D01*
X202970893Y-103379619D02*
X202685179Y-103379619D01*
X202685179Y-103379619D02*
X202589941Y-103332000D01*
X202589941Y-103332000D02*
X202542322Y-103284380D01*
X203637560Y-103379619D02*
X203828036Y-103379619D01*
X203828036Y-103379619D02*
X203923274Y-103332000D01*
X203923274Y-103332000D02*
X203970893Y-103284380D01*
X203970893Y-103284380D02*
X204066131Y-103141523D01*
X204066131Y-103141523D02*
X204113750Y-102951047D01*
X204113750Y-102951047D02*
X204113750Y-102570095D01*
X204113750Y-102570095D02*
X204066131Y-102474857D01*
X204066131Y-102474857D02*
X204018512Y-102427238D01*
X204018512Y-102427238D02*
X203923274Y-102379619D01*
X203923274Y-102379619D02*
X203732798Y-102379619D01*
X203732798Y-102379619D02*
X203637560Y-102427238D01*
X203637560Y-102427238D02*
X203589941Y-102474857D01*
X203589941Y-102474857D02*
X203542322Y-102570095D01*
X203542322Y-102570095D02*
X203542322Y-102808190D01*
X203542322Y-102808190D02*
X203589941Y-102903428D01*
X203589941Y-102903428D02*
X203637560Y-102951047D01*
X203637560Y-102951047D02*
X203732798Y-102998666D01*
X203732798Y-102998666D02*
X203923274Y-102998666D01*
X203923274Y-102998666D02*
X204018512Y-102951047D01*
X204018512Y-102951047D02*
X204066131Y-102903428D01*
X204066131Y-102903428D02*
X204113750Y-102808190D01*
%TO.C,C8*%
X223790333Y-56484380D02*
X223742714Y-56532000D01*
X223742714Y-56532000D02*
X223599857Y-56579619D01*
X223599857Y-56579619D02*
X223504619Y-56579619D01*
X223504619Y-56579619D02*
X223361762Y-56532000D01*
X223361762Y-56532000D02*
X223266524Y-56436761D01*
X223266524Y-56436761D02*
X223218905Y-56341523D01*
X223218905Y-56341523D02*
X223171286Y-56151047D01*
X223171286Y-56151047D02*
X223171286Y-56008190D01*
X223171286Y-56008190D02*
X223218905Y-55817714D01*
X223218905Y-55817714D02*
X223266524Y-55722476D01*
X223266524Y-55722476D02*
X223361762Y-55627238D01*
X223361762Y-55627238D02*
X223504619Y-55579619D01*
X223504619Y-55579619D02*
X223599857Y-55579619D01*
X223599857Y-55579619D02*
X223742714Y-55627238D01*
X223742714Y-55627238D02*
X223790333Y-55674857D01*
X224361762Y-56008190D02*
X224266524Y-55960571D01*
X224266524Y-55960571D02*
X224218905Y-55912952D01*
X224218905Y-55912952D02*
X224171286Y-55817714D01*
X224171286Y-55817714D02*
X224171286Y-55770095D01*
X224171286Y-55770095D02*
X224218905Y-55674857D01*
X224218905Y-55674857D02*
X224266524Y-55627238D01*
X224266524Y-55627238D02*
X224361762Y-55579619D01*
X224361762Y-55579619D02*
X224552238Y-55579619D01*
X224552238Y-55579619D02*
X224647476Y-55627238D01*
X224647476Y-55627238D02*
X224695095Y-55674857D01*
X224695095Y-55674857D02*
X224742714Y-55770095D01*
X224742714Y-55770095D02*
X224742714Y-55817714D01*
X224742714Y-55817714D02*
X224695095Y-55912952D01*
X224695095Y-55912952D02*
X224647476Y-55960571D01*
X224647476Y-55960571D02*
X224552238Y-56008190D01*
X224552238Y-56008190D02*
X224361762Y-56008190D01*
X224361762Y-56008190D02*
X224266524Y-56055809D01*
X224266524Y-56055809D02*
X224218905Y-56103428D01*
X224218905Y-56103428D02*
X224171286Y-56198666D01*
X224171286Y-56198666D02*
X224171286Y-56389142D01*
X224171286Y-56389142D02*
X224218905Y-56484380D01*
X224218905Y-56484380D02*
X224266524Y-56532000D01*
X224266524Y-56532000D02*
X224361762Y-56579619D01*
X224361762Y-56579619D02*
X224552238Y-56579619D01*
X224552238Y-56579619D02*
X224647476Y-56532000D01*
X224647476Y-56532000D02*
X224695095Y-56484380D01*
X224695095Y-56484380D02*
X224742714Y-56389142D01*
X224742714Y-56389142D02*
X224742714Y-56198666D01*
X224742714Y-56198666D02*
X224695095Y-56103428D01*
X224695095Y-56103428D02*
X224647476Y-56055809D01*
X224647476Y-56055809D02*
X224552238Y-56008190D01*
%TO.C,R14*%
X206288142Y-102269619D02*
X205954809Y-101793428D01*
X205716714Y-102269619D02*
X205716714Y-101269619D01*
X205716714Y-101269619D02*
X206097666Y-101269619D01*
X206097666Y-101269619D02*
X206192904Y-101317238D01*
X206192904Y-101317238D02*
X206240523Y-101364857D01*
X206240523Y-101364857D02*
X206288142Y-101460095D01*
X206288142Y-101460095D02*
X206288142Y-101602952D01*
X206288142Y-101602952D02*
X206240523Y-101698190D01*
X206240523Y-101698190D02*
X206192904Y-101745809D01*
X206192904Y-101745809D02*
X206097666Y-101793428D01*
X206097666Y-101793428D02*
X205716714Y-101793428D01*
X207240523Y-102269619D02*
X206669095Y-102269619D01*
X206954809Y-102269619D02*
X206954809Y-101269619D01*
X206954809Y-101269619D02*
X206859571Y-101412476D01*
X206859571Y-101412476D02*
X206764333Y-101507714D01*
X206764333Y-101507714D02*
X206669095Y-101555333D01*
X208097666Y-101602952D02*
X208097666Y-102269619D01*
X207859571Y-101222000D02*
X207621476Y-101936285D01*
X207621476Y-101936285D02*
X208240523Y-101936285D01*
%TO.C,C18*%
X218890380Y-110665857D02*
X218938000Y-110713476D01*
X218938000Y-110713476D02*
X218985619Y-110856333D01*
X218985619Y-110856333D02*
X218985619Y-110951571D01*
X218985619Y-110951571D02*
X218938000Y-111094428D01*
X218938000Y-111094428D02*
X218842761Y-111189666D01*
X218842761Y-111189666D02*
X218747523Y-111237285D01*
X218747523Y-111237285D02*
X218557047Y-111284904D01*
X218557047Y-111284904D02*
X218414190Y-111284904D01*
X218414190Y-111284904D02*
X218223714Y-111237285D01*
X218223714Y-111237285D02*
X218128476Y-111189666D01*
X218128476Y-111189666D02*
X218033238Y-111094428D01*
X218033238Y-111094428D02*
X217985619Y-110951571D01*
X217985619Y-110951571D02*
X217985619Y-110856333D01*
X217985619Y-110856333D02*
X218033238Y-110713476D01*
X218033238Y-110713476D02*
X218080857Y-110665857D01*
X218985619Y-109713476D02*
X218985619Y-110284904D01*
X218985619Y-109999190D02*
X217985619Y-109999190D01*
X217985619Y-109999190D02*
X218128476Y-110094428D01*
X218128476Y-110094428D02*
X218223714Y-110189666D01*
X218223714Y-110189666D02*
X218271333Y-110284904D01*
X218414190Y-109142047D02*
X218366571Y-109237285D01*
X218366571Y-109237285D02*
X218318952Y-109284904D01*
X218318952Y-109284904D02*
X218223714Y-109332523D01*
X218223714Y-109332523D02*
X218176095Y-109332523D01*
X218176095Y-109332523D02*
X218080857Y-109284904D01*
X218080857Y-109284904D02*
X218033238Y-109237285D01*
X218033238Y-109237285D02*
X217985619Y-109142047D01*
X217985619Y-109142047D02*
X217985619Y-108951571D01*
X217985619Y-108951571D02*
X218033238Y-108856333D01*
X218033238Y-108856333D02*
X218080857Y-108808714D01*
X218080857Y-108808714D02*
X218176095Y-108761095D01*
X218176095Y-108761095D02*
X218223714Y-108761095D01*
X218223714Y-108761095D02*
X218318952Y-108808714D01*
X218318952Y-108808714D02*
X218366571Y-108856333D01*
X218366571Y-108856333D02*
X218414190Y-108951571D01*
X218414190Y-108951571D02*
X218414190Y-109142047D01*
X218414190Y-109142047D02*
X218461809Y-109237285D01*
X218461809Y-109237285D02*
X218509428Y-109284904D01*
X218509428Y-109284904D02*
X218604666Y-109332523D01*
X218604666Y-109332523D02*
X218795142Y-109332523D01*
X218795142Y-109332523D02*
X218890380Y-109284904D01*
X218890380Y-109284904D02*
X218938000Y-109237285D01*
X218938000Y-109237285D02*
X218985619Y-109142047D01*
X218985619Y-109142047D02*
X218985619Y-108951571D01*
X218985619Y-108951571D02*
X218938000Y-108856333D01*
X218938000Y-108856333D02*
X218890380Y-108808714D01*
X218890380Y-108808714D02*
X218795142Y-108761095D01*
X218795142Y-108761095D02*
X218604666Y-108761095D01*
X218604666Y-108761095D02*
X218509428Y-108808714D01*
X218509428Y-108808714D02*
X218461809Y-108856333D01*
X218461809Y-108856333D02*
X218414190Y-108951571D01*
%TO.C,C38*%
X201756948Y-107181857D02*
X201804568Y-107229476D01*
X201804568Y-107229476D02*
X201852187Y-107372333D01*
X201852187Y-107372333D02*
X201852187Y-107467571D01*
X201852187Y-107467571D02*
X201804568Y-107610428D01*
X201804568Y-107610428D02*
X201709329Y-107705666D01*
X201709329Y-107705666D02*
X201614091Y-107753285D01*
X201614091Y-107753285D02*
X201423615Y-107800904D01*
X201423615Y-107800904D02*
X201280758Y-107800904D01*
X201280758Y-107800904D02*
X201090282Y-107753285D01*
X201090282Y-107753285D02*
X200995044Y-107705666D01*
X200995044Y-107705666D02*
X200899806Y-107610428D01*
X200899806Y-107610428D02*
X200852187Y-107467571D01*
X200852187Y-107467571D02*
X200852187Y-107372333D01*
X200852187Y-107372333D02*
X200899806Y-107229476D01*
X200899806Y-107229476D02*
X200947425Y-107181857D01*
X200852187Y-106848523D02*
X200852187Y-106229476D01*
X200852187Y-106229476D02*
X201233139Y-106562809D01*
X201233139Y-106562809D02*
X201233139Y-106419952D01*
X201233139Y-106419952D02*
X201280758Y-106324714D01*
X201280758Y-106324714D02*
X201328377Y-106277095D01*
X201328377Y-106277095D02*
X201423615Y-106229476D01*
X201423615Y-106229476D02*
X201661710Y-106229476D01*
X201661710Y-106229476D02*
X201756948Y-106277095D01*
X201756948Y-106277095D02*
X201804568Y-106324714D01*
X201804568Y-106324714D02*
X201852187Y-106419952D01*
X201852187Y-106419952D02*
X201852187Y-106705666D01*
X201852187Y-106705666D02*
X201804568Y-106800904D01*
X201804568Y-106800904D02*
X201756948Y-106848523D01*
X201280758Y-105658047D02*
X201233139Y-105753285D01*
X201233139Y-105753285D02*
X201185520Y-105800904D01*
X201185520Y-105800904D02*
X201090282Y-105848523D01*
X201090282Y-105848523D02*
X201042663Y-105848523D01*
X201042663Y-105848523D02*
X200947425Y-105800904D01*
X200947425Y-105800904D02*
X200899806Y-105753285D01*
X200899806Y-105753285D02*
X200852187Y-105658047D01*
X200852187Y-105658047D02*
X200852187Y-105467571D01*
X200852187Y-105467571D02*
X200899806Y-105372333D01*
X200899806Y-105372333D02*
X200947425Y-105324714D01*
X200947425Y-105324714D02*
X201042663Y-105277095D01*
X201042663Y-105277095D02*
X201090282Y-105277095D01*
X201090282Y-105277095D02*
X201185520Y-105324714D01*
X201185520Y-105324714D02*
X201233139Y-105372333D01*
X201233139Y-105372333D02*
X201280758Y-105467571D01*
X201280758Y-105467571D02*
X201280758Y-105658047D01*
X201280758Y-105658047D02*
X201328377Y-105753285D01*
X201328377Y-105753285D02*
X201375996Y-105800904D01*
X201375996Y-105800904D02*
X201471234Y-105848523D01*
X201471234Y-105848523D02*
X201661710Y-105848523D01*
X201661710Y-105848523D02*
X201756948Y-105800904D01*
X201756948Y-105800904D02*
X201804568Y-105753285D01*
X201804568Y-105753285D02*
X201852187Y-105658047D01*
X201852187Y-105658047D02*
X201852187Y-105467571D01*
X201852187Y-105467571D02*
X201804568Y-105372333D01*
X201804568Y-105372333D02*
X201756948Y-105324714D01*
X201756948Y-105324714D02*
X201661710Y-105277095D01*
X201661710Y-105277095D02*
X201471234Y-105277095D01*
X201471234Y-105277095D02*
X201375996Y-105324714D01*
X201375996Y-105324714D02*
X201328377Y-105372333D01*
X201328377Y-105372333D02*
X201280758Y-105467571D01*
%TO.C,H2*%
X244241095Y-108995619D02*
X244241095Y-107995619D01*
X244241095Y-108471809D02*
X244812523Y-108471809D01*
X244812523Y-108995619D02*
X244812523Y-107995619D01*
X245241095Y-108090857D02*
X245288714Y-108043238D01*
X245288714Y-108043238D02*
X245383952Y-107995619D01*
X245383952Y-107995619D02*
X245622047Y-107995619D01*
X245622047Y-107995619D02*
X245717285Y-108043238D01*
X245717285Y-108043238D02*
X245764904Y-108090857D01*
X245764904Y-108090857D02*
X245812523Y-108186095D01*
X245812523Y-108186095D02*
X245812523Y-108281333D01*
X245812523Y-108281333D02*
X245764904Y-108424190D01*
X245764904Y-108424190D02*
X245193476Y-108995619D01*
X245193476Y-108995619D02*
X245812523Y-108995619D01*
%TO.C,C35*%
X196796380Y-62467857D02*
X196844000Y-62515476D01*
X196844000Y-62515476D02*
X196891619Y-62658333D01*
X196891619Y-62658333D02*
X196891619Y-62753571D01*
X196891619Y-62753571D02*
X196844000Y-62896428D01*
X196844000Y-62896428D02*
X196748761Y-62991666D01*
X196748761Y-62991666D02*
X196653523Y-63039285D01*
X196653523Y-63039285D02*
X196463047Y-63086904D01*
X196463047Y-63086904D02*
X196320190Y-63086904D01*
X196320190Y-63086904D02*
X196129714Y-63039285D01*
X196129714Y-63039285D02*
X196034476Y-62991666D01*
X196034476Y-62991666D02*
X195939238Y-62896428D01*
X195939238Y-62896428D02*
X195891619Y-62753571D01*
X195891619Y-62753571D02*
X195891619Y-62658333D01*
X195891619Y-62658333D02*
X195939238Y-62515476D01*
X195939238Y-62515476D02*
X195986857Y-62467857D01*
X195891619Y-62134523D02*
X195891619Y-61515476D01*
X195891619Y-61515476D02*
X196272571Y-61848809D01*
X196272571Y-61848809D02*
X196272571Y-61705952D01*
X196272571Y-61705952D02*
X196320190Y-61610714D01*
X196320190Y-61610714D02*
X196367809Y-61563095D01*
X196367809Y-61563095D02*
X196463047Y-61515476D01*
X196463047Y-61515476D02*
X196701142Y-61515476D01*
X196701142Y-61515476D02*
X196796380Y-61563095D01*
X196796380Y-61563095D02*
X196844000Y-61610714D01*
X196844000Y-61610714D02*
X196891619Y-61705952D01*
X196891619Y-61705952D02*
X196891619Y-61991666D01*
X196891619Y-61991666D02*
X196844000Y-62086904D01*
X196844000Y-62086904D02*
X196796380Y-62134523D01*
X195891619Y-60610714D02*
X195891619Y-61086904D01*
X195891619Y-61086904D02*
X196367809Y-61134523D01*
X196367809Y-61134523D02*
X196320190Y-61086904D01*
X196320190Y-61086904D02*
X196272571Y-60991666D01*
X196272571Y-60991666D02*
X196272571Y-60753571D01*
X196272571Y-60753571D02*
X196320190Y-60658333D01*
X196320190Y-60658333D02*
X196367809Y-60610714D01*
X196367809Y-60610714D02*
X196463047Y-60563095D01*
X196463047Y-60563095D02*
X196701142Y-60563095D01*
X196701142Y-60563095D02*
X196796380Y-60610714D01*
X196796380Y-60610714D02*
X196844000Y-60658333D01*
X196844000Y-60658333D02*
X196891619Y-60753571D01*
X196891619Y-60753571D02*
X196891619Y-60991666D01*
X196891619Y-60991666D02*
X196844000Y-61086904D01*
X196844000Y-61086904D02*
X196796380Y-61134523D01*
%TO.C,C43*%
X212292380Y-114967857D02*
X212340000Y-115015476D01*
X212340000Y-115015476D02*
X212387619Y-115158333D01*
X212387619Y-115158333D02*
X212387619Y-115253571D01*
X212387619Y-115253571D02*
X212340000Y-115396428D01*
X212340000Y-115396428D02*
X212244761Y-115491666D01*
X212244761Y-115491666D02*
X212149523Y-115539285D01*
X212149523Y-115539285D02*
X211959047Y-115586904D01*
X211959047Y-115586904D02*
X211816190Y-115586904D01*
X211816190Y-115586904D02*
X211625714Y-115539285D01*
X211625714Y-115539285D02*
X211530476Y-115491666D01*
X211530476Y-115491666D02*
X211435238Y-115396428D01*
X211435238Y-115396428D02*
X211387619Y-115253571D01*
X211387619Y-115253571D02*
X211387619Y-115158333D01*
X211387619Y-115158333D02*
X211435238Y-115015476D01*
X211435238Y-115015476D02*
X211482857Y-114967857D01*
X211720952Y-114110714D02*
X212387619Y-114110714D01*
X211340000Y-114348809D02*
X212054285Y-114586904D01*
X212054285Y-114586904D02*
X212054285Y-113967857D01*
X211387619Y-113682142D02*
X211387619Y-113063095D01*
X211387619Y-113063095D02*
X211768571Y-113396428D01*
X211768571Y-113396428D02*
X211768571Y-113253571D01*
X211768571Y-113253571D02*
X211816190Y-113158333D01*
X211816190Y-113158333D02*
X211863809Y-113110714D01*
X211863809Y-113110714D02*
X211959047Y-113063095D01*
X211959047Y-113063095D02*
X212197142Y-113063095D01*
X212197142Y-113063095D02*
X212292380Y-113110714D01*
X212292380Y-113110714D02*
X212340000Y-113158333D01*
X212340000Y-113158333D02*
X212387619Y-113253571D01*
X212387619Y-113253571D02*
X212387619Y-113539285D01*
X212387619Y-113539285D02*
X212340000Y-113634523D01*
X212340000Y-113634523D02*
X212292380Y-113682142D01*
%TO.C,U3*%
X248609619Y-63772904D02*
X249419142Y-63772904D01*
X249419142Y-63772904D02*
X249514380Y-63725285D01*
X249514380Y-63725285D02*
X249562000Y-63677666D01*
X249562000Y-63677666D02*
X249609619Y-63582428D01*
X249609619Y-63582428D02*
X249609619Y-63391952D01*
X249609619Y-63391952D02*
X249562000Y-63296714D01*
X249562000Y-63296714D02*
X249514380Y-63249095D01*
X249514380Y-63249095D02*
X249419142Y-63201476D01*
X249419142Y-63201476D02*
X248609619Y-63201476D01*
X248609619Y-62820523D02*
X248609619Y-62201476D01*
X248609619Y-62201476D02*
X248990571Y-62534809D01*
X248990571Y-62534809D02*
X248990571Y-62391952D01*
X248990571Y-62391952D02*
X249038190Y-62296714D01*
X249038190Y-62296714D02*
X249085809Y-62249095D01*
X249085809Y-62249095D02*
X249181047Y-62201476D01*
X249181047Y-62201476D02*
X249419142Y-62201476D01*
X249419142Y-62201476D02*
X249514380Y-62249095D01*
X249514380Y-62249095D02*
X249562000Y-62296714D01*
X249562000Y-62296714D02*
X249609619Y-62391952D01*
X249609619Y-62391952D02*
X249609619Y-62677666D01*
X249609619Y-62677666D02*
X249562000Y-62772904D01*
X249562000Y-62772904D02*
X249514380Y-62820523D01*
%TO.C,C20*%
X228742142Y-110218380D02*
X228694523Y-110266000D01*
X228694523Y-110266000D02*
X228551666Y-110313619D01*
X228551666Y-110313619D02*
X228456428Y-110313619D01*
X228456428Y-110313619D02*
X228313571Y-110266000D01*
X228313571Y-110266000D02*
X228218333Y-110170761D01*
X228218333Y-110170761D02*
X228170714Y-110075523D01*
X228170714Y-110075523D02*
X228123095Y-109885047D01*
X228123095Y-109885047D02*
X228123095Y-109742190D01*
X228123095Y-109742190D02*
X228170714Y-109551714D01*
X228170714Y-109551714D02*
X228218333Y-109456476D01*
X228218333Y-109456476D02*
X228313571Y-109361238D01*
X228313571Y-109361238D02*
X228456428Y-109313619D01*
X228456428Y-109313619D02*
X228551666Y-109313619D01*
X228551666Y-109313619D02*
X228694523Y-109361238D01*
X228694523Y-109361238D02*
X228742142Y-109408857D01*
X229123095Y-109408857D02*
X229170714Y-109361238D01*
X229170714Y-109361238D02*
X229265952Y-109313619D01*
X229265952Y-109313619D02*
X229504047Y-109313619D01*
X229504047Y-109313619D02*
X229599285Y-109361238D01*
X229599285Y-109361238D02*
X229646904Y-109408857D01*
X229646904Y-109408857D02*
X229694523Y-109504095D01*
X229694523Y-109504095D02*
X229694523Y-109599333D01*
X229694523Y-109599333D02*
X229646904Y-109742190D01*
X229646904Y-109742190D02*
X229075476Y-110313619D01*
X229075476Y-110313619D02*
X229694523Y-110313619D01*
X230313571Y-109313619D02*
X230408809Y-109313619D01*
X230408809Y-109313619D02*
X230504047Y-109361238D01*
X230504047Y-109361238D02*
X230551666Y-109408857D01*
X230551666Y-109408857D02*
X230599285Y-109504095D01*
X230599285Y-109504095D02*
X230646904Y-109694571D01*
X230646904Y-109694571D02*
X230646904Y-109932666D01*
X230646904Y-109932666D02*
X230599285Y-110123142D01*
X230599285Y-110123142D02*
X230551666Y-110218380D01*
X230551666Y-110218380D02*
X230504047Y-110266000D01*
X230504047Y-110266000D02*
X230408809Y-110313619D01*
X230408809Y-110313619D02*
X230313571Y-110313619D01*
X230313571Y-110313619D02*
X230218333Y-110266000D01*
X230218333Y-110266000D02*
X230170714Y-110218380D01*
X230170714Y-110218380D02*
X230123095Y-110123142D01*
X230123095Y-110123142D02*
X230075476Y-109932666D01*
X230075476Y-109932666D02*
X230075476Y-109694571D01*
X230075476Y-109694571D02*
X230123095Y-109504095D01*
X230123095Y-109504095D02*
X230170714Y-109408857D01*
X230170714Y-109408857D02*
X230218333Y-109361238D01*
X230218333Y-109361238D02*
X230313571Y-109313619D01*
%TO.C,C69*%
X242378142Y-91104380D02*
X242330523Y-91152000D01*
X242330523Y-91152000D02*
X242187666Y-91199619D01*
X242187666Y-91199619D02*
X242092428Y-91199619D01*
X242092428Y-91199619D02*
X241949571Y-91152000D01*
X241949571Y-91152000D02*
X241854333Y-91056761D01*
X241854333Y-91056761D02*
X241806714Y-90961523D01*
X241806714Y-90961523D02*
X241759095Y-90771047D01*
X241759095Y-90771047D02*
X241759095Y-90628190D01*
X241759095Y-90628190D02*
X241806714Y-90437714D01*
X241806714Y-90437714D02*
X241854333Y-90342476D01*
X241854333Y-90342476D02*
X241949571Y-90247238D01*
X241949571Y-90247238D02*
X242092428Y-90199619D01*
X242092428Y-90199619D02*
X242187666Y-90199619D01*
X242187666Y-90199619D02*
X242330523Y-90247238D01*
X242330523Y-90247238D02*
X242378142Y-90294857D01*
X243235285Y-90199619D02*
X243044809Y-90199619D01*
X243044809Y-90199619D02*
X242949571Y-90247238D01*
X242949571Y-90247238D02*
X242901952Y-90294857D01*
X242901952Y-90294857D02*
X242806714Y-90437714D01*
X242806714Y-90437714D02*
X242759095Y-90628190D01*
X242759095Y-90628190D02*
X242759095Y-91009142D01*
X242759095Y-91009142D02*
X242806714Y-91104380D01*
X242806714Y-91104380D02*
X242854333Y-91152000D01*
X242854333Y-91152000D02*
X242949571Y-91199619D01*
X242949571Y-91199619D02*
X243140047Y-91199619D01*
X243140047Y-91199619D02*
X243235285Y-91152000D01*
X243235285Y-91152000D02*
X243282904Y-91104380D01*
X243282904Y-91104380D02*
X243330523Y-91009142D01*
X243330523Y-91009142D02*
X243330523Y-90771047D01*
X243330523Y-90771047D02*
X243282904Y-90675809D01*
X243282904Y-90675809D02*
X243235285Y-90628190D01*
X243235285Y-90628190D02*
X243140047Y-90580571D01*
X243140047Y-90580571D02*
X242949571Y-90580571D01*
X242949571Y-90580571D02*
X242854333Y-90628190D01*
X242854333Y-90628190D02*
X242806714Y-90675809D01*
X242806714Y-90675809D02*
X242759095Y-90771047D01*
X243806714Y-91199619D02*
X243997190Y-91199619D01*
X243997190Y-91199619D02*
X244092428Y-91152000D01*
X244092428Y-91152000D02*
X244140047Y-91104380D01*
X244140047Y-91104380D02*
X244235285Y-90961523D01*
X244235285Y-90961523D02*
X244282904Y-90771047D01*
X244282904Y-90771047D02*
X244282904Y-90390095D01*
X244282904Y-90390095D02*
X244235285Y-90294857D01*
X244235285Y-90294857D02*
X244187666Y-90247238D01*
X244187666Y-90247238D02*
X244092428Y-90199619D01*
X244092428Y-90199619D02*
X243901952Y-90199619D01*
X243901952Y-90199619D02*
X243806714Y-90247238D01*
X243806714Y-90247238D02*
X243759095Y-90294857D01*
X243759095Y-90294857D02*
X243711476Y-90390095D01*
X243711476Y-90390095D02*
X243711476Y-90628190D01*
X243711476Y-90628190D02*
X243759095Y-90723428D01*
X243759095Y-90723428D02*
X243806714Y-90771047D01*
X243806714Y-90771047D02*
X243901952Y-90818666D01*
X243901952Y-90818666D02*
X244092428Y-90818666D01*
X244092428Y-90818666D02*
X244187666Y-90771047D01*
X244187666Y-90771047D02*
X244235285Y-90723428D01*
X244235285Y-90723428D02*
X244282904Y-90628190D01*
%TO.C,C23*%
X206088142Y-101252380D02*
X206040523Y-101300000D01*
X206040523Y-101300000D02*
X205897666Y-101347619D01*
X205897666Y-101347619D02*
X205802428Y-101347619D01*
X205802428Y-101347619D02*
X205659571Y-101300000D01*
X205659571Y-101300000D02*
X205564333Y-101204761D01*
X205564333Y-101204761D02*
X205516714Y-101109523D01*
X205516714Y-101109523D02*
X205469095Y-100919047D01*
X205469095Y-100919047D02*
X205469095Y-100776190D01*
X205469095Y-100776190D02*
X205516714Y-100585714D01*
X205516714Y-100585714D02*
X205564333Y-100490476D01*
X205564333Y-100490476D02*
X205659571Y-100395238D01*
X205659571Y-100395238D02*
X205802428Y-100347619D01*
X205802428Y-100347619D02*
X205897666Y-100347619D01*
X205897666Y-100347619D02*
X206040523Y-100395238D01*
X206040523Y-100395238D02*
X206088142Y-100442857D01*
X206469095Y-100442857D02*
X206516714Y-100395238D01*
X206516714Y-100395238D02*
X206611952Y-100347619D01*
X206611952Y-100347619D02*
X206850047Y-100347619D01*
X206850047Y-100347619D02*
X206945285Y-100395238D01*
X206945285Y-100395238D02*
X206992904Y-100442857D01*
X206992904Y-100442857D02*
X207040523Y-100538095D01*
X207040523Y-100538095D02*
X207040523Y-100633333D01*
X207040523Y-100633333D02*
X206992904Y-100776190D01*
X206992904Y-100776190D02*
X206421476Y-101347619D01*
X206421476Y-101347619D02*
X207040523Y-101347619D01*
X207373857Y-100347619D02*
X207992904Y-100347619D01*
X207992904Y-100347619D02*
X207659571Y-100728571D01*
X207659571Y-100728571D02*
X207802428Y-100728571D01*
X207802428Y-100728571D02*
X207897666Y-100776190D01*
X207897666Y-100776190D02*
X207945285Y-100823809D01*
X207945285Y-100823809D02*
X207992904Y-100919047D01*
X207992904Y-100919047D02*
X207992904Y-101157142D01*
X207992904Y-101157142D02*
X207945285Y-101252380D01*
X207945285Y-101252380D02*
X207897666Y-101300000D01*
X207897666Y-101300000D02*
X207802428Y-101347619D01*
X207802428Y-101347619D02*
X207516714Y-101347619D01*
X207516714Y-101347619D02*
X207421476Y-101300000D01*
X207421476Y-101300000D02*
X207373857Y-101252380D01*
%TO.C,R4*%
X233186333Y-109125619D02*
X232853000Y-108649428D01*
X232614905Y-109125619D02*
X232614905Y-108125619D01*
X232614905Y-108125619D02*
X232995857Y-108125619D01*
X232995857Y-108125619D02*
X233091095Y-108173238D01*
X233091095Y-108173238D02*
X233138714Y-108220857D01*
X233138714Y-108220857D02*
X233186333Y-108316095D01*
X233186333Y-108316095D02*
X233186333Y-108458952D01*
X233186333Y-108458952D02*
X233138714Y-108554190D01*
X233138714Y-108554190D02*
X233091095Y-108601809D01*
X233091095Y-108601809D02*
X232995857Y-108649428D01*
X232995857Y-108649428D02*
X232614905Y-108649428D01*
X234043476Y-108458952D02*
X234043476Y-109125619D01*
X233805381Y-108078000D02*
X233567286Y-108792285D01*
X233567286Y-108792285D02*
X234186333Y-108792285D01*
%TO.C,U6*%
X248347619Y-101306904D02*
X249157142Y-101306904D01*
X249157142Y-101306904D02*
X249252380Y-101259285D01*
X249252380Y-101259285D02*
X249300000Y-101211666D01*
X249300000Y-101211666D02*
X249347619Y-101116428D01*
X249347619Y-101116428D02*
X249347619Y-100925952D01*
X249347619Y-100925952D02*
X249300000Y-100830714D01*
X249300000Y-100830714D02*
X249252380Y-100783095D01*
X249252380Y-100783095D02*
X249157142Y-100735476D01*
X249157142Y-100735476D02*
X248347619Y-100735476D01*
X248347619Y-99830714D02*
X248347619Y-100021190D01*
X248347619Y-100021190D02*
X248395238Y-100116428D01*
X248395238Y-100116428D02*
X248442857Y-100164047D01*
X248442857Y-100164047D02*
X248585714Y-100259285D01*
X248585714Y-100259285D02*
X248776190Y-100306904D01*
X248776190Y-100306904D02*
X249157142Y-100306904D01*
X249157142Y-100306904D02*
X249252380Y-100259285D01*
X249252380Y-100259285D02*
X249300000Y-100211666D01*
X249300000Y-100211666D02*
X249347619Y-100116428D01*
X249347619Y-100116428D02*
X249347619Y-99925952D01*
X249347619Y-99925952D02*
X249300000Y-99830714D01*
X249300000Y-99830714D02*
X249252380Y-99783095D01*
X249252380Y-99783095D02*
X249157142Y-99735476D01*
X249157142Y-99735476D02*
X248919047Y-99735476D01*
X248919047Y-99735476D02*
X248823809Y-99783095D01*
X248823809Y-99783095D02*
X248776190Y-99830714D01*
X248776190Y-99830714D02*
X248728571Y-99925952D01*
X248728571Y-99925952D02*
X248728571Y-100116428D01*
X248728571Y-100116428D02*
X248776190Y-100211666D01*
X248776190Y-100211666D02*
X248823809Y-100259285D01*
X248823809Y-100259285D02*
X248919047Y-100306904D01*
%TO.C,C81*%
X224780380Y-89693857D02*
X224828000Y-89741476D01*
X224828000Y-89741476D02*
X224875619Y-89884333D01*
X224875619Y-89884333D02*
X224875619Y-89979571D01*
X224875619Y-89979571D02*
X224828000Y-90122428D01*
X224828000Y-90122428D02*
X224732761Y-90217666D01*
X224732761Y-90217666D02*
X224637523Y-90265285D01*
X224637523Y-90265285D02*
X224447047Y-90312904D01*
X224447047Y-90312904D02*
X224304190Y-90312904D01*
X224304190Y-90312904D02*
X224113714Y-90265285D01*
X224113714Y-90265285D02*
X224018476Y-90217666D01*
X224018476Y-90217666D02*
X223923238Y-90122428D01*
X223923238Y-90122428D02*
X223875619Y-89979571D01*
X223875619Y-89979571D02*
X223875619Y-89884333D01*
X223875619Y-89884333D02*
X223923238Y-89741476D01*
X223923238Y-89741476D02*
X223970857Y-89693857D01*
X224304190Y-89122428D02*
X224256571Y-89217666D01*
X224256571Y-89217666D02*
X224208952Y-89265285D01*
X224208952Y-89265285D02*
X224113714Y-89312904D01*
X224113714Y-89312904D02*
X224066095Y-89312904D01*
X224066095Y-89312904D02*
X223970857Y-89265285D01*
X223970857Y-89265285D02*
X223923238Y-89217666D01*
X223923238Y-89217666D02*
X223875619Y-89122428D01*
X223875619Y-89122428D02*
X223875619Y-88931952D01*
X223875619Y-88931952D02*
X223923238Y-88836714D01*
X223923238Y-88836714D02*
X223970857Y-88789095D01*
X223970857Y-88789095D02*
X224066095Y-88741476D01*
X224066095Y-88741476D02*
X224113714Y-88741476D01*
X224113714Y-88741476D02*
X224208952Y-88789095D01*
X224208952Y-88789095D02*
X224256571Y-88836714D01*
X224256571Y-88836714D02*
X224304190Y-88931952D01*
X224304190Y-88931952D02*
X224304190Y-89122428D01*
X224304190Y-89122428D02*
X224351809Y-89217666D01*
X224351809Y-89217666D02*
X224399428Y-89265285D01*
X224399428Y-89265285D02*
X224494666Y-89312904D01*
X224494666Y-89312904D02*
X224685142Y-89312904D01*
X224685142Y-89312904D02*
X224780380Y-89265285D01*
X224780380Y-89265285D02*
X224828000Y-89217666D01*
X224828000Y-89217666D02*
X224875619Y-89122428D01*
X224875619Y-89122428D02*
X224875619Y-88931952D01*
X224875619Y-88931952D02*
X224828000Y-88836714D01*
X224828000Y-88836714D02*
X224780380Y-88789095D01*
X224780380Y-88789095D02*
X224685142Y-88741476D01*
X224685142Y-88741476D02*
X224494666Y-88741476D01*
X224494666Y-88741476D02*
X224399428Y-88789095D01*
X224399428Y-88789095D02*
X224351809Y-88836714D01*
X224351809Y-88836714D02*
X224304190Y-88931952D01*
X224875619Y-87789095D02*
X224875619Y-88360523D01*
X224875619Y-88074809D02*
X223875619Y-88074809D01*
X223875619Y-88074809D02*
X224018476Y-88170047D01*
X224018476Y-88170047D02*
X224113714Y-88265285D01*
X224113714Y-88265285D02*
X224161333Y-88360523D01*
%TO.C,U2*%
X204385095Y-111023619D02*
X204385095Y-111833142D01*
X204385095Y-111833142D02*
X204432714Y-111928380D01*
X204432714Y-111928380D02*
X204480333Y-111976000D01*
X204480333Y-111976000D02*
X204575571Y-112023619D01*
X204575571Y-112023619D02*
X204766047Y-112023619D01*
X204766047Y-112023619D02*
X204861285Y-111976000D01*
X204861285Y-111976000D02*
X204908904Y-111928380D01*
X204908904Y-111928380D02*
X204956523Y-111833142D01*
X204956523Y-111833142D02*
X204956523Y-111023619D01*
X205385095Y-111118857D02*
X205432714Y-111071238D01*
X205432714Y-111071238D02*
X205527952Y-111023619D01*
X205527952Y-111023619D02*
X205766047Y-111023619D01*
X205766047Y-111023619D02*
X205861285Y-111071238D01*
X205861285Y-111071238D02*
X205908904Y-111118857D01*
X205908904Y-111118857D02*
X205956523Y-111214095D01*
X205956523Y-111214095D02*
X205956523Y-111309333D01*
X205956523Y-111309333D02*
X205908904Y-111452190D01*
X205908904Y-111452190D02*
X205337476Y-112023619D01*
X205337476Y-112023619D02*
X205956523Y-112023619D01*
%TO.C,C58*%
X231152380Y-69579857D02*
X231200000Y-69627476D01*
X231200000Y-69627476D02*
X231247619Y-69770333D01*
X231247619Y-69770333D02*
X231247619Y-69865571D01*
X231247619Y-69865571D02*
X231200000Y-70008428D01*
X231200000Y-70008428D02*
X231104761Y-70103666D01*
X231104761Y-70103666D02*
X231009523Y-70151285D01*
X231009523Y-70151285D02*
X230819047Y-70198904D01*
X230819047Y-70198904D02*
X230676190Y-70198904D01*
X230676190Y-70198904D02*
X230485714Y-70151285D01*
X230485714Y-70151285D02*
X230390476Y-70103666D01*
X230390476Y-70103666D02*
X230295238Y-70008428D01*
X230295238Y-70008428D02*
X230247619Y-69865571D01*
X230247619Y-69865571D02*
X230247619Y-69770333D01*
X230247619Y-69770333D02*
X230295238Y-69627476D01*
X230295238Y-69627476D02*
X230342857Y-69579857D01*
X230247619Y-68675095D02*
X230247619Y-69151285D01*
X230247619Y-69151285D02*
X230723809Y-69198904D01*
X230723809Y-69198904D02*
X230676190Y-69151285D01*
X230676190Y-69151285D02*
X230628571Y-69056047D01*
X230628571Y-69056047D02*
X230628571Y-68817952D01*
X230628571Y-68817952D02*
X230676190Y-68722714D01*
X230676190Y-68722714D02*
X230723809Y-68675095D01*
X230723809Y-68675095D02*
X230819047Y-68627476D01*
X230819047Y-68627476D02*
X231057142Y-68627476D01*
X231057142Y-68627476D02*
X231152380Y-68675095D01*
X231152380Y-68675095D02*
X231200000Y-68722714D01*
X231200000Y-68722714D02*
X231247619Y-68817952D01*
X231247619Y-68817952D02*
X231247619Y-69056047D01*
X231247619Y-69056047D02*
X231200000Y-69151285D01*
X231200000Y-69151285D02*
X231152380Y-69198904D01*
X230676190Y-68056047D02*
X230628571Y-68151285D01*
X230628571Y-68151285D02*
X230580952Y-68198904D01*
X230580952Y-68198904D02*
X230485714Y-68246523D01*
X230485714Y-68246523D02*
X230438095Y-68246523D01*
X230438095Y-68246523D02*
X230342857Y-68198904D01*
X230342857Y-68198904D02*
X230295238Y-68151285D01*
X230295238Y-68151285D02*
X230247619Y-68056047D01*
X230247619Y-68056047D02*
X230247619Y-67865571D01*
X230247619Y-67865571D02*
X230295238Y-67770333D01*
X230295238Y-67770333D02*
X230342857Y-67722714D01*
X230342857Y-67722714D02*
X230438095Y-67675095D01*
X230438095Y-67675095D02*
X230485714Y-67675095D01*
X230485714Y-67675095D02*
X230580952Y-67722714D01*
X230580952Y-67722714D02*
X230628571Y-67770333D01*
X230628571Y-67770333D02*
X230676190Y-67865571D01*
X230676190Y-67865571D02*
X230676190Y-68056047D01*
X230676190Y-68056047D02*
X230723809Y-68151285D01*
X230723809Y-68151285D02*
X230771428Y-68198904D01*
X230771428Y-68198904D02*
X230866666Y-68246523D01*
X230866666Y-68246523D02*
X231057142Y-68246523D01*
X231057142Y-68246523D02*
X231152380Y-68198904D01*
X231152380Y-68198904D02*
X231200000Y-68151285D01*
X231200000Y-68151285D02*
X231247619Y-68056047D01*
X231247619Y-68056047D02*
X231247619Y-67865571D01*
X231247619Y-67865571D02*
X231200000Y-67770333D01*
X231200000Y-67770333D02*
X231152380Y-67722714D01*
X231152380Y-67722714D02*
X231057142Y-67675095D01*
X231057142Y-67675095D02*
X230866666Y-67675095D01*
X230866666Y-67675095D02*
X230771428Y-67722714D01*
X230771428Y-67722714D02*
X230723809Y-67770333D01*
X230723809Y-67770333D02*
X230676190Y-67865571D01*
%TO.C,U4*%
X227055619Y-106370904D02*
X227865142Y-106370904D01*
X227865142Y-106370904D02*
X227960380Y-106323285D01*
X227960380Y-106323285D02*
X228008000Y-106275666D01*
X228008000Y-106275666D02*
X228055619Y-106180428D01*
X228055619Y-106180428D02*
X228055619Y-105989952D01*
X228055619Y-105989952D02*
X228008000Y-105894714D01*
X228008000Y-105894714D02*
X227960380Y-105847095D01*
X227960380Y-105847095D02*
X227865142Y-105799476D01*
X227865142Y-105799476D02*
X227055619Y-105799476D01*
X227388952Y-104894714D02*
X228055619Y-104894714D01*
X227008000Y-105132809D02*
X227722285Y-105370904D01*
X227722285Y-105370904D02*
X227722285Y-104751857D01*
%TO.C,D5*%
X237157619Y-78482094D02*
X236157619Y-78482094D01*
X236157619Y-78482094D02*
X236157619Y-78243999D01*
X236157619Y-78243999D02*
X236205238Y-78101142D01*
X236205238Y-78101142D02*
X236300476Y-78005904D01*
X236300476Y-78005904D02*
X236395714Y-77958285D01*
X236395714Y-77958285D02*
X236586190Y-77910666D01*
X236586190Y-77910666D02*
X236729047Y-77910666D01*
X236729047Y-77910666D02*
X236919523Y-77958285D01*
X236919523Y-77958285D02*
X237014761Y-78005904D01*
X237014761Y-78005904D02*
X237110000Y-78101142D01*
X237110000Y-78101142D02*
X237157619Y-78243999D01*
X237157619Y-78243999D02*
X237157619Y-78482094D01*
X236157619Y-77005904D02*
X236157619Y-77482094D01*
X236157619Y-77482094D02*
X236633809Y-77529713D01*
X236633809Y-77529713D02*
X236586190Y-77482094D01*
X236586190Y-77482094D02*
X236538571Y-77386856D01*
X236538571Y-77386856D02*
X236538571Y-77148761D01*
X236538571Y-77148761D02*
X236586190Y-77053523D01*
X236586190Y-77053523D02*
X236633809Y-77005904D01*
X236633809Y-77005904D02*
X236729047Y-76958285D01*
X236729047Y-76958285D02*
X236967142Y-76958285D01*
X236967142Y-76958285D02*
X237062380Y-77005904D01*
X237062380Y-77005904D02*
X237110000Y-77053523D01*
X237110000Y-77053523D02*
X237157619Y-77148761D01*
X237157619Y-77148761D02*
X237157619Y-77386856D01*
X237157619Y-77386856D02*
X237110000Y-77482094D01*
X237110000Y-77482094D02*
X237062380Y-77529713D01*
%TO.C,C27*%
X184754142Y-100162380D02*
X184706523Y-100210000D01*
X184706523Y-100210000D02*
X184563666Y-100257619D01*
X184563666Y-100257619D02*
X184468428Y-100257619D01*
X184468428Y-100257619D02*
X184325571Y-100210000D01*
X184325571Y-100210000D02*
X184230333Y-100114761D01*
X184230333Y-100114761D02*
X184182714Y-100019523D01*
X184182714Y-100019523D02*
X184135095Y-99829047D01*
X184135095Y-99829047D02*
X184135095Y-99686190D01*
X184135095Y-99686190D02*
X184182714Y-99495714D01*
X184182714Y-99495714D02*
X184230333Y-99400476D01*
X184230333Y-99400476D02*
X184325571Y-99305238D01*
X184325571Y-99305238D02*
X184468428Y-99257619D01*
X184468428Y-99257619D02*
X184563666Y-99257619D01*
X184563666Y-99257619D02*
X184706523Y-99305238D01*
X184706523Y-99305238D02*
X184754142Y-99352857D01*
X185135095Y-99352857D02*
X185182714Y-99305238D01*
X185182714Y-99305238D02*
X185277952Y-99257619D01*
X185277952Y-99257619D02*
X185516047Y-99257619D01*
X185516047Y-99257619D02*
X185611285Y-99305238D01*
X185611285Y-99305238D02*
X185658904Y-99352857D01*
X185658904Y-99352857D02*
X185706523Y-99448095D01*
X185706523Y-99448095D02*
X185706523Y-99543333D01*
X185706523Y-99543333D02*
X185658904Y-99686190D01*
X185658904Y-99686190D02*
X185087476Y-100257619D01*
X185087476Y-100257619D02*
X185706523Y-100257619D01*
X186039857Y-99257619D02*
X186706523Y-99257619D01*
X186706523Y-99257619D02*
X186277952Y-100257619D01*
%TO.C,C30*%
X194406142Y-102412380D02*
X194358523Y-102460000D01*
X194358523Y-102460000D02*
X194215666Y-102507619D01*
X194215666Y-102507619D02*
X194120428Y-102507619D01*
X194120428Y-102507619D02*
X193977571Y-102460000D01*
X193977571Y-102460000D02*
X193882333Y-102364761D01*
X193882333Y-102364761D02*
X193834714Y-102269523D01*
X193834714Y-102269523D02*
X193787095Y-102079047D01*
X193787095Y-102079047D02*
X193787095Y-101936190D01*
X193787095Y-101936190D02*
X193834714Y-101745714D01*
X193834714Y-101745714D02*
X193882333Y-101650476D01*
X193882333Y-101650476D02*
X193977571Y-101555238D01*
X193977571Y-101555238D02*
X194120428Y-101507619D01*
X194120428Y-101507619D02*
X194215666Y-101507619D01*
X194215666Y-101507619D02*
X194358523Y-101555238D01*
X194358523Y-101555238D02*
X194406142Y-101602857D01*
X194739476Y-101507619D02*
X195358523Y-101507619D01*
X195358523Y-101507619D02*
X195025190Y-101888571D01*
X195025190Y-101888571D02*
X195168047Y-101888571D01*
X195168047Y-101888571D02*
X195263285Y-101936190D01*
X195263285Y-101936190D02*
X195310904Y-101983809D01*
X195310904Y-101983809D02*
X195358523Y-102079047D01*
X195358523Y-102079047D02*
X195358523Y-102317142D01*
X195358523Y-102317142D02*
X195310904Y-102412380D01*
X195310904Y-102412380D02*
X195263285Y-102460000D01*
X195263285Y-102460000D02*
X195168047Y-102507619D01*
X195168047Y-102507619D02*
X194882333Y-102507619D01*
X194882333Y-102507619D02*
X194787095Y-102460000D01*
X194787095Y-102460000D02*
X194739476Y-102412380D01*
X195977571Y-101507619D02*
X196072809Y-101507619D01*
X196072809Y-101507619D02*
X196168047Y-101555238D01*
X196168047Y-101555238D02*
X196215666Y-101602857D01*
X196215666Y-101602857D02*
X196263285Y-101698095D01*
X196263285Y-101698095D02*
X196310904Y-101888571D01*
X196310904Y-101888571D02*
X196310904Y-102126666D01*
X196310904Y-102126666D02*
X196263285Y-102317142D01*
X196263285Y-102317142D02*
X196215666Y-102412380D01*
X196215666Y-102412380D02*
X196168047Y-102460000D01*
X196168047Y-102460000D02*
X196072809Y-102507619D01*
X196072809Y-102507619D02*
X195977571Y-102507619D01*
X195977571Y-102507619D02*
X195882333Y-102460000D01*
X195882333Y-102460000D02*
X195834714Y-102412380D01*
X195834714Y-102412380D02*
X195787095Y-102317142D01*
X195787095Y-102317142D02*
X195739476Y-102126666D01*
X195739476Y-102126666D02*
X195739476Y-101888571D01*
X195739476Y-101888571D02*
X195787095Y-101698095D01*
X195787095Y-101698095D02*
X195834714Y-101602857D01*
X195834714Y-101602857D02*
X195882333Y-101555238D01*
X195882333Y-101555238D02*
X195977571Y-101507619D01*
%TO.C,C22*%
X202143296Y-101252380D02*
X202095677Y-101300000D01*
X202095677Y-101300000D02*
X201952820Y-101347619D01*
X201952820Y-101347619D02*
X201857582Y-101347619D01*
X201857582Y-101347619D02*
X201714725Y-101300000D01*
X201714725Y-101300000D02*
X201619487Y-101204761D01*
X201619487Y-101204761D02*
X201571868Y-101109523D01*
X201571868Y-101109523D02*
X201524249Y-100919047D01*
X201524249Y-100919047D02*
X201524249Y-100776190D01*
X201524249Y-100776190D02*
X201571868Y-100585714D01*
X201571868Y-100585714D02*
X201619487Y-100490476D01*
X201619487Y-100490476D02*
X201714725Y-100395238D01*
X201714725Y-100395238D02*
X201857582Y-100347619D01*
X201857582Y-100347619D02*
X201952820Y-100347619D01*
X201952820Y-100347619D02*
X202095677Y-100395238D01*
X202095677Y-100395238D02*
X202143296Y-100442857D01*
X202524249Y-100442857D02*
X202571868Y-100395238D01*
X202571868Y-100395238D02*
X202667106Y-100347619D01*
X202667106Y-100347619D02*
X202905201Y-100347619D01*
X202905201Y-100347619D02*
X203000439Y-100395238D01*
X203000439Y-100395238D02*
X203048058Y-100442857D01*
X203048058Y-100442857D02*
X203095677Y-100538095D01*
X203095677Y-100538095D02*
X203095677Y-100633333D01*
X203095677Y-100633333D02*
X203048058Y-100776190D01*
X203048058Y-100776190D02*
X202476630Y-101347619D01*
X202476630Y-101347619D02*
X203095677Y-101347619D01*
X203476630Y-100442857D02*
X203524249Y-100395238D01*
X203524249Y-100395238D02*
X203619487Y-100347619D01*
X203619487Y-100347619D02*
X203857582Y-100347619D01*
X203857582Y-100347619D02*
X203952820Y-100395238D01*
X203952820Y-100395238D02*
X204000439Y-100442857D01*
X204000439Y-100442857D02*
X204048058Y-100538095D01*
X204048058Y-100538095D02*
X204048058Y-100633333D01*
X204048058Y-100633333D02*
X204000439Y-100776190D01*
X204000439Y-100776190D02*
X203429011Y-101347619D01*
X203429011Y-101347619D02*
X204048058Y-101347619D01*
%TO.C,J4*%
X232123666Y-46201619D02*
X232123666Y-46915904D01*
X232123666Y-46915904D02*
X232076047Y-47058761D01*
X232076047Y-47058761D02*
X231980809Y-47154000D01*
X231980809Y-47154000D02*
X231837952Y-47201619D01*
X231837952Y-47201619D02*
X231742714Y-47201619D01*
X233028428Y-46534952D02*
X233028428Y-47201619D01*
X232790333Y-46154000D02*
X232552238Y-46868285D01*
X232552238Y-46868285D02*
X233171285Y-46868285D01*
%TO.C,C48*%
X246492380Y-96410333D02*
X246540000Y-96457952D01*
X246540000Y-96457952D02*
X246587619Y-96600809D01*
X246587619Y-96600809D02*
X246587619Y-96696047D01*
X246587619Y-96696047D02*
X246540000Y-96838904D01*
X246540000Y-96838904D02*
X246444761Y-96934142D01*
X246444761Y-96934142D02*
X246349523Y-96981761D01*
X246349523Y-96981761D02*
X246159047Y-97029380D01*
X246159047Y-97029380D02*
X246016190Y-97029380D01*
X246016190Y-97029380D02*
X245825714Y-96981761D01*
X245825714Y-96981761D02*
X245730476Y-96934142D01*
X245730476Y-96934142D02*
X245635238Y-96838904D01*
X245635238Y-96838904D02*
X245587619Y-96696047D01*
X245587619Y-96696047D02*
X245587619Y-96600809D01*
X245587619Y-96600809D02*
X245635238Y-96457952D01*
X245635238Y-96457952D02*
X245682857Y-96410333D01*
X245920952Y-95553190D02*
X246587619Y-95553190D01*
X245540000Y-95791285D02*
X246254285Y-96029380D01*
X246254285Y-96029380D02*
X246254285Y-95410333D01*
X246016190Y-94886523D02*
X245968571Y-94981761D01*
X245968571Y-94981761D02*
X245920952Y-95029380D01*
X245920952Y-95029380D02*
X245825714Y-95076999D01*
X245825714Y-95076999D02*
X245778095Y-95076999D01*
X245778095Y-95076999D02*
X245682857Y-95029380D01*
X245682857Y-95029380D02*
X245635238Y-94981761D01*
X245635238Y-94981761D02*
X245587619Y-94886523D01*
X245587619Y-94886523D02*
X245587619Y-94696047D01*
X245587619Y-94696047D02*
X245635238Y-94600809D01*
X245635238Y-94600809D02*
X245682857Y-94553190D01*
X245682857Y-94553190D02*
X245778095Y-94505571D01*
X245778095Y-94505571D02*
X245825714Y-94505571D01*
X245825714Y-94505571D02*
X245920952Y-94553190D01*
X245920952Y-94553190D02*
X245968571Y-94600809D01*
X245968571Y-94600809D02*
X246016190Y-94696047D01*
X246016190Y-94696047D02*
X246016190Y-94886523D01*
X246016190Y-94886523D02*
X246063809Y-94981761D01*
X246063809Y-94981761D02*
X246111428Y-95029380D01*
X246111428Y-95029380D02*
X246206666Y-95076999D01*
X246206666Y-95076999D02*
X246397142Y-95076999D01*
X246397142Y-95076999D02*
X246492380Y-95029380D01*
X246492380Y-95029380D02*
X246540000Y-94981761D01*
X246540000Y-94981761D02*
X246587619Y-94886523D01*
X246587619Y-94886523D02*
X246587619Y-94696047D01*
X246587619Y-94696047D02*
X246540000Y-94600809D01*
X246540000Y-94600809D02*
X246492380Y-94553190D01*
X246492380Y-94553190D02*
X246397142Y-94505571D01*
X246397142Y-94505571D02*
X246206666Y-94505571D01*
X246206666Y-94505571D02*
X246111428Y-94553190D01*
X246111428Y-94553190D02*
X246063809Y-94600809D01*
X246063809Y-94600809D02*
X246016190Y-94696047D01*
%TO.C,U1*%
X213360095Y-54678619D02*
X213360095Y-55488142D01*
X213360095Y-55488142D02*
X213407714Y-55583380D01*
X213407714Y-55583380D02*
X213455333Y-55631000D01*
X213455333Y-55631000D02*
X213550571Y-55678619D01*
X213550571Y-55678619D02*
X213741047Y-55678619D01*
X213741047Y-55678619D02*
X213836285Y-55631000D01*
X213836285Y-55631000D02*
X213883904Y-55583380D01*
X213883904Y-55583380D02*
X213931523Y-55488142D01*
X213931523Y-55488142D02*
X213931523Y-54678619D01*
X214931523Y-55678619D02*
X214360095Y-55678619D01*
X214645809Y-55678619D02*
X214645809Y-54678619D01*
X214645809Y-54678619D02*
X214550571Y-54821476D01*
X214550571Y-54821476D02*
X214455333Y-54916714D01*
X214455333Y-54916714D02*
X214360095Y-54964333D01*
%TO.C,J5*%
X189871619Y-49308333D02*
X190585904Y-49308333D01*
X190585904Y-49308333D02*
X190728761Y-49355952D01*
X190728761Y-49355952D02*
X190824000Y-49451190D01*
X190824000Y-49451190D02*
X190871619Y-49594047D01*
X190871619Y-49594047D02*
X190871619Y-49689285D01*
X189871619Y-48355952D02*
X189871619Y-48832142D01*
X189871619Y-48832142D02*
X190347809Y-48879761D01*
X190347809Y-48879761D02*
X190300190Y-48832142D01*
X190300190Y-48832142D02*
X190252571Y-48736904D01*
X190252571Y-48736904D02*
X190252571Y-48498809D01*
X190252571Y-48498809D02*
X190300190Y-48403571D01*
X190300190Y-48403571D02*
X190347809Y-48355952D01*
X190347809Y-48355952D02*
X190443047Y-48308333D01*
X190443047Y-48308333D02*
X190681142Y-48308333D01*
X190681142Y-48308333D02*
X190776380Y-48355952D01*
X190776380Y-48355952D02*
X190824000Y-48403571D01*
X190824000Y-48403571D02*
X190871619Y-48498809D01*
X190871619Y-48498809D02*
X190871619Y-48736904D01*
X190871619Y-48736904D02*
X190824000Y-48832142D01*
X190824000Y-48832142D02*
X190776380Y-48879761D01*
%TO.C,C31*%
X196614380Y-72873857D02*
X196662000Y-72921476D01*
X196662000Y-72921476D02*
X196709619Y-73064333D01*
X196709619Y-73064333D02*
X196709619Y-73159571D01*
X196709619Y-73159571D02*
X196662000Y-73302428D01*
X196662000Y-73302428D02*
X196566761Y-73397666D01*
X196566761Y-73397666D02*
X196471523Y-73445285D01*
X196471523Y-73445285D02*
X196281047Y-73492904D01*
X196281047Y-73492904D02*
X196138190Y-73492904D01*
X196138190Y-73492904D02*
X195947714Y-73445285D01*
X195947714Y-73445285D02*
X195852476Y-73397666D01*
X195852476Y-73397666D02*
X195757238Y-73302428D01*
X195757238Y-73302428D02*
X195709619Y-73159571D01*
X195709619Y-73159571D02*
X195709619Y-73064333D01*
X195709619Y-73064333D02*
X195757238Y-72921476D01*
X195757238Y-72921476D02*
X195804857Y-72873857D01*
X195709619Y-72540523D02*
X195709619Y-71921476D01*
X195709619Y-71921476D02*
X196090571Y-72254809D01*
X196090571Y-72254809D02*
X196090571Y-72111952D01*
X196090571Y-72111952D02*
X196138190Y-72016714D01*
X196138190Y-72016714D02*
X196185809Y-71969095D01*
X196185809Y-71969095D02*
X196281047Y-71921476D01*
X196281047Y-71921476D02*
X196519142Y-71921476D01*
X196519142Y-71921476D02*
X196614380Y-71969095D01*
X196614380Y-71969095D02*
X196662000Y-72016714D01*
X196662000Y-72016714D02*
X196709619Y-72111952D01*
X196709619Y-72111952D02*
X196709619Y-72397666D01*
X196709619Y-72397666D02*
X196662000Y-72492904D01*
X196662000Y-72492904D02*
X196614380Y-72540523D01*
X196709619Y-70969095D02*
X196709619Y-71540523D01*
X196709619Y-71254809D02*
X195709619Y-71254809D01*
X195709619Y-71254809D02*
X195852476Y-71350047D01*
X195852476Y-71350047D02*
X195947714Y-71445285D01*
X195947714Y-71445285D02*
X195995333Y-71540523D01*
%TO.C,D3*%
X243219619Y-100719094D02*
X242219619Y-100719094D01*
X242219619Y-100719094D02*
X242219619Y-100480999D01*
X242219619Y-100480999D02*
X242267238Y-100338142D01*
X242267238Y-100338142D02*
X242362476Y-100242904D01*
X242362476Y-100242904D02*
X242457714Y-100195285D01*
X242457714Y-100195285D02*
X242648190Y-100147666D01*
X242648190Y-100147666D02*
X242791047Y-100147666D01*
X242791047Y-100147666D02*
X242981523Y-100195285D01*
X242981523Y-100195285D02*
X243076761Y-100242904D01*
X243076761Y-100242904D02*
X243172000Y-100338142D01*
X243172000Y-100338142D02*
X243219619Y-100480999D01*
X243219619Y-100480999D02*
X243219619Y-100719094D01*
X242219619Y-99814332D02*
X242219619Y-99195285D01*
X242219619Y-99195285D02*
X242600571Y-99528618D01*
X242600571Y-99528618D02*
X242600571Y-99385761D01*
X242600571Y-99385761D02*
X242648190Y-99290523D01*
X242648190Y-99290523D02*
X242695809Y-99242904D01*
X242695809Y-99242904D02*
X242791047Y-99195285D01*
X242791047Y-99195285D02*
X243029142Y-99195285D01*
X243029142Y-99195285D02*
X243124380Y-99242904D01*
X243124380Y-99242904D02*
X243172000Y-99290523D01*
X243172000Y-99290523D02*
X243219619Y-99385761D01*
X243219619Y-99385761D02*
X243219619Y-99671475D01*
X243219619Y-99671475D02*
X243172000Y-99766713D01*
X243172000Y-99766713D02*
X243124380Y-99814332D01*
%TO.C,C37*%
X199474380Y-76183191D02*
X199522000Y-76230810D01*
X199522000Y-76230810D02*
X199569619Y-76373667D01*
X199569619Y-76373667D02*
X199569619Y-76468905D01*
X199569619Y-76468905D02*
X199522000Y-76611762D01*
X199522000Y-76611762D02*
X199426761Y-76707000D01*
X199426761Y-76707000D02*
X199331523Y-76754619D01*
X199331523Y-76754619D02*
X199141047Y-76802238D01*
X199141047Y-76802238D02*
X198998190Y-76802238D01*
X198998190Y-76802238D02*
X198807714Y-76754619D01*
X198807714Y-76754619D02*
X198712476Y-76707000D01*
X198712476Y-76707000D02*
X198617238Y-76611762D01*
X198617238Y-76611762D02*
X198569619Y-76468905D01*
X198569619Y-76468905D02*
X198569619Y-76373667D01*
X198569619Y-76373667D02*
X198617238Y-76230810D01*
X198617238Y-76230810D02*
X198664857Y-76183191D01*
X198569619Y-75849857D02*
X198569619Y-75230810D01*
X198569619Y-75230810D02*
X198950571Y-75564143D01*
X198950571Y-75564143D02*
X198950571Y-75421286D01*
X198950571Y-75421286D02*
X198998190Y-75326048D01*
X198998190Y-75326048D02*
X199045809Y-75278429D01*
X199045809Y-75278429D02*
X199141047Y-75230810D01*
X199141047Y-75230810D02*
X199379142Y-75230810D01*
X199379142Y-75230810D02*
X199474380Y-75278429D01*
X199474380Y-75278429D02*
X199522000Y-75326048D01*
X199522000Y-75326048D02*
X199569619Y-75421286D01*
X199569619Y-75421286D02*
X199569619Y-75707000D01*
X199569619Y-75707000D02*
X199522000Y-75802238D01*
X199522000Y-75802238D02*
X199474380Y-75849857D01*
X198569619Y-74897476D02*
X198569619Y-74230810D01*
X198569619Y-74230810D02*
X199569619Y-74659381D01*
%TO.C,C78*%
X228800380Y-79231857D02*
X228848000Y-79279476D01*
X228848000Y-79279476D02*
X228895619Y-79422333D01*
X228895619Y-79422333D02*
X228895619Y-79517571D01*
X228895619Y-79517571D02*
X228848000Y-79660428D01*
X228848000Y-79660428D02*
X228752761Y-79755666D01*
X228752761Y-79755666D02*
X228657523Y-79803285D01*
X228657523Y-79803285D02*
X228467047Y-79850904D01*
X228467047Y-79850904D02*
X228324190Y-79850904D01*
X228324190Y-79850904D02*
X228133714Y-79803285D01*
X228133714Y-79803285D02*
X228038476Y-79755666D01*
X228038476Y-79755666D02*
X227943238Y-79660428D01*
X227943238Y-79660428D02*
X227895619Y-79517571D01*
X227895619Y-79517571D02*
X227895619Y-79422333D01*
X227895619Y-79422333D02*
X227943238Y-79279476D01*
X227943238Y-79279476D02*
X227990857Y-79231857D01*
X227895619Y-78898523D02*
X227895619Y-78231857D01*
X227895619Y-78231857D02*
X228895619Y-78660428D01*
X228324190Y-77708047D02*
X228276571Y-77803285D01*
X228276571Y-77803285D02*
X228228952Y-77850904D01*
X228228952Y-77850904D02*
X228133714Y-77898523D01*
X228133714Y-77898523D02*
X228086095Y-77898523D01*
X228086095Y-77898523D02*
X227990857Y-77850904D01*
X227990857Y-77850904D02*
X227943238Y-77803285D01*
X227943238Y-77803285D02*
X227895619Y-77708047D01*
X227895619Y-77708047D02*
X227895619Y-77517571D01*
X227895619Y-77517571D02*
X227943238Y-77422333D01*
X227943238Y-77422333D02*
X227990857Y-77374714D01*
X227990857Y-77374714D02*
X228086095Y-77327095D01*
X228086095Y-77327095D02*
X228133714Y-77327095D01*
X228133714Y-77327095D02*
X228228952Y-77374714D01*
X228228952Y-77374714D02*
X228276571Y-77422333D01*
X228276571Y-77422333D02*
X228324190Y-77517571D01*
X228324190Y-77517571D02*
X228324190Y-77708047D01*
X228324190Y-77708047D02*
X228371809Y-77803285D01*
X228371809Y-77803285D02*
X228419428Y-77850904D01*
X228419428Y-77850904D02*
X228514666Y-77898523D01*
X228514666Y-77898523D02*
X228705142Y-77898523D01*
X228705142Y-77898523D02*
X228800380Y-77850904D01*
X228800380Y-77850904D02*
X228848000Y-77803285D01*
X228848000Y-77803285D02*
X228895619Y-77708047D01*
X228895619Y-77708047D02*
X228895619Y-77517571D01*
X228895619Y-77517571D02*
X228848000Y-77422333D01*
X228848000Y-77422333D02*
X228800380Y-77374714D01*
X228800380Y-77374714D02*
X228705142Y-77327095D01*
X228705142Y-77327095D02*
X228514666Y-77327095D01*
X228514666Y-77327095D02*
X228419428Y-77374714D01*
X228419428Y-77374714D02*
X228371809Y-77422333D01*
X228371809Y-77422333D02*
X228324190Y-77517571D01*
%TO.C,C89*%
X198850380Y-110871857D02*
X198898000Y-110919476D01*
X198898000Y-110919476D02*
X198945619Y-111062333D01*
X198945619Y-111062333D02*
X198945619Y-111157571D01*
X198945619Y-111157571D02*
X198898000Y-111300428D01*
X198898000Y-111300428D02*
X198802761Y-111395666D01*
X198802761Y-111395666D02*
X198707523Y-111443285D01*
X198707523Y-111443285D02*
X198517047Y-111490904D01*
X198517047Y-111490904D02*
X198374190Y-111490904D01*
X198374190Y-111490904D02*
X198183714Y-111443285D01*
X198183714Y-111443285D02*
X198088476Y-111395666D01*
X198088476Y-111395666D02*
X197993238Y-111300428D01*
X197993238Y-111300428D02*
X197945619Y-111157571D01*
X197945619Y-111157571D02*
X197945619Y-111062333D01*
X197945619Y-111062333D02*
X197993238Y-110919476D01*
X197993238Y-110919476D02*
X198040857Y-110871857D01*
X198374190Y-110300428D02*
X198326571Y-110395666D01*
X198326571Y-110395666D02*
X198278952Y-110443285D01*
X198278952Y-110443285D02*
X198183714Y-110490904D01*
X198183714Y-110490904D02*
X198136095Y-110490904D01*
X198136095Y-110490904D02*
X198040857Y-110443285D01*
X198040857Y-110443285D02*
X197993238Y-110395666D01*
X197993238Y-110395666D02*
X197945619Y-110300428D01*
X197945619Y-110300428D02*
X197945619Y-110109952D01*
X197945619Y-110109952D02*
X197993238Y-110014714D01*
X197993238Y-110014714D02*
X198040857Y-109967095D01*
X198040857Y-109967095D02*
X198136095Y-109919476D01*
X198136095Y-109919476D02*
X198183714Y-109919476D01*
X198183714Y-109919476D02*
X198278952Y-109967095D01*
X198278952Y-109967095D02*
X198326571Y-110014714D01*
X198326571Y-110014714D02*
X198374190Y-110109952D01*
X198374190Y-110109952D02*
X198374190Y-110300428D01*
X198374190Y-110300428D02*
X198421809Y-110395666D01*
X198421809Y-110395666D02*
X198469428Y-110443285D01*
X198469428Y-110443285D02*
X198564666Y-110490904D01*
X198564666Y-110490904D02*
X198755142Y-110490904D01*
X198755142Y-110490904D02*
X198850380Y-110443285D01*
X198850380Y-110443285D02*
X198898000Y-110395666D01*
X198898000Y-110395666D02*
X198945619Y-110300428D01*
X198945619Y-110300428D02*
X198945619Y-110109952D01*
X198945619Y-110109952D02*
X198898000Y-110014714D01*
X198898000Y-110014714D02*
X198850380Y-109967095D01*
X198850380Y-109967095D02*
X198755142Y-109919476D01*
X198755142Y-109919476D02*
X198564666Y-109919476D01*
X198564666Y-109919476D02*
X198469428Y-109967095D01*
X198469428Y-109967095D02*
X198421809Y-110014714D01*
X198421809Y-110014714D02*
X198374190Y-110109952D01*
X198945619Y-109443285D02*
X198945619Y-109252809D01*
X198945619Y-109252809D02*
X198898000Y-109157571D01*
X198898000Y-109157571D02*
X198850380Y-109109952D01*
X198850380Y-109109952D02*
X198707523Y-109014714D01*
X198707523Y-109014714D02*
X198517047Y-108967095D01*
X198517047Y-108967095D02*
X198136095Y-108967095D01*
X198136095Y-108967095D02*
X198040857Y-109014714D01*
X198040857Y-109014714D02*
X197993238Y-109062333D01*
X197993238Y-109062333D02*
X197945619Y-109157571D01*
X197945619Y-109157571D02*
X197945619Y-109348047D01*
X197945619Y-109348047D02*
X197993238Y-109443285D01*
X197993238Y-109443285D02*
X198040857Y-109490904D01*
X198040857Y-109490904D02*
X198136095Y-109538523D01*
X198136095Y-109538523D02*
X198374190Y-109538523D01*
X198374190Y-109538523D02*
X198469428Y-109490904D01*
X198469428Y-109490904D02*
X198517047Y-109443285D01*
X198517047Y-109443285D02*
X198564666Y-109348047D01*
X198564666Y-109348047D02*
X198564666Y-109157571D01*
X198564666Y-109157571D02*
X198517047Y-109062333D01*
X198517047Y-109062333D02*
X198469428Y-109014714D01*
X198469428Y-109014714D02*
X198374190Y-108967095D01*
%TO.C,R1*%
X210161333Y-53168619D02*
X209828000Y-52692428D01*
X209589905Y-53168619D02*
X209589905Y-52168619D01*
X209589905Y-52168619D02*
X209970857Y-52168619D01*
X209970857Y-52168619D02*
X210066095Y-52216238D01*
X210066095Y-52216238D02*
X210113714Y-52263857D01*
X210113714Y-52263857D02*
X210161333Y-52359095D01*
X210161333Y-52359095D02*
X210161333Y-52501952D01*
X210161333Y-52501952D02*
X210113714Y-52597190D01*
X210113714Y-52597190D02*
X210066095Y-52644809D01*
X210066095Y-52644809D02*
X209970857Y-52692428D01*
X209970857Y-52692428D02*
X209589905Y-52692428D01*
X211113714Y-53168619D02*
X210542286Y-53168619D01*
X210828000Y-53168619D02*
X210828000Y-52168619D01*
X210828000Y-52168619D02*
X210732762Y-52311476D01*
X210732762Y-52311476D02*
X210637524Y-52406714D01*
X210637524Y-52406714D02*
X210542286Y-52454333D01*
%TO.C,R17*%
X201723903Y-114767857D02*
X201247712Y-115101190D01*
X201723903Y-115339285D02*
X200723903Y-115339285D01*
X200723903Y-115339285D02*
X200723903Y-114958333D01*
X200723903Y-114958333D02*
X200771522Y-114863095D01*
X200771522Y-114863095D02*
X200819141Y-114815476D01*
X200819141Y-114815476D02*
X200914379Y-114767857D01*
X200914379Y-114767857D02*
X201057236Y-114767857D01*
X201057236Y-114767857D02*
X201152474Y-114815476D01*
X201152474Y-114815476D02*
X201200093Y-114863095D01*
X201200093Y-114863095D02*
X201247712Y-114958333D01*
X201247712Y-114958333D02*
X201247712Y-115339285D01*
X201723903Y-113815476D02*
X201723903Y-114386904D01*
X201723903Y-114101190D02*
X200723903Y-114101190D01*
X200723903Y-114101190D02*
X200866760Y-114196428D01*
X200866760Y-114196428D02*
X200961998Y-114291666D01*
X200961998Y-114291666D02*
X201009617Y-114386904D01*
X200723903Y-113482142D02*
X200723903Y-112815476D01*
X200723903Y-112815476D02*
X201723903Y-113244047D01*
%TO.C,H4*%
X186837095Y-46549619D02*
X186837095Y-45549619D01*
X186837095Y-46025809D02*
X187408523Y-46025809D01*
X187408523Y-46549619D02*
X187408523Y-45549619D01*
X188313285Y-45882952D02*
X188313285Y-46549619D01*
X188075190Y-45502000D02*
X187837095Y-46216285D01*
X187837095Y-46216285D02*
X188456142Y-46216285D01*
%TO.C,R8*%
X217840333Y-104553619D02*
X217507000Y-104077428D01*
X217268905Y-104553619D02*
X217268905Y-103553619D01*
X217268905Y-103553619D02*
X217649857Y-103553619D01*
X217649857Y-103553619D02*
X217745095Y-103601238D01*
X217745095Y-103601238D02*
X217792714Y-103648857D01*
X217792714Y-103648857D02*
X217840333Y-103744095D01*
X217840333Y-103744095D02*
X217840333Y-103886952D01*
X217840333Y-103886952D02*
X217792714Y-103982190D01*
X217792714Y-103982190D02*
X217745095Y-104029809D01*
X217745095Y-104029809D02*
X217649857Y-104077428D01*
X217649857Y-104077428D02*
X217268905Y-104077428D01*
X218411762Y-103982190D02*
X218316524Y-103934571D01*
X218316524Y-103934571D02*
X218268905Y-103886952D01*
X218268905Y-103886952D02*
X218221286Y-103791714D01*
X218221286Y-103791714D02*
X218221286Y-103744095D01*
X218221286Y-103744095D02*
X218268905Y-103648857D01*
X218268905Y-103648857D02*
X218316524Y-103601238D01*
X218316524Y-103601238D02*
X218411762Y-103553619D01*
X218411762Y-103553619D02*
X218602238Y-103553619D01*
X218602238Y-103553619D02*
X218697476Y-103601238D01*
X218697476Y-103601238D02*
X218745095Y-103648857D01*
X218745095Y-103648857D02*
X218792714Y-103744095D01*
X218792714Y-103744095D02*
X218792714Y-103791714D01*
X218792714Y-103791714D02*
X218745095Y-103886952D01*
X218745095Y-103886952D02*
X218697476Y-103934571D01*
X218697476Y-103934571D02*
X218602238Y-103982190D01*
X218602238Y-103982190D02*
X218411762Y-103982190D01*
X218411762Y-103982190D02*
X218316524Y-104029809D01*
X218316524Y-104029809D02*
X218268905Y-104077428D01*
X218268905Y-104077428D02*
X218221286Y-104172666D01*
X218221286Y-104172666D02*
X218221286Y-104363142D01*
X218221286Y-104363142D02*
X218268905Y-104458380D01*
X218268905Y-104458380D02*
X218316524Y-104506000D01*
X218316524Y-104506000D02*
X218411762Y-104553619D01*
X218411762Y-104553619D02*
X218602238Y-104553619D01*
X218602238Y-104553619D02*
X218697476Y-104506000D01*
X218697476Y-104506000D02*
X218745095Y-104458380D01*
X218745095Y-104458380D02*
X218792714Y-104363142D01*
X218792714Y-104363142D02*
X218792714Y-104172666D01*
X218792714Y-104172666D02*
X218745095Y-104077428D01*
X218745095Y-104077428D02*
X218697476Y-104029809D01*
X218697476Y-104029809D02*
X218602238Y-103982190D01*
%TO.C,R27*%
X208143619Y-97284437D02*
X207667428Y-97617770D01*
X208143619Y-97855865D02*
X207143619Y-97855865D01*
X207143619Y-97855865D02*
X207143619Y-97474913D01*
X207143619Y-97474913D02*
X207191238Y-97379675D01*
X207191238Y-97379675D02*
X207238857Y-97332056D01*
X207238857Y-97332056D02*
X207334095Y-97284437D01*
X207334095Y-97284437D02*
X207476952Y-97284437D01*
X207476952Y-97284437D02*
X207572190Y-97332056D01*
X207572190Y-97332056D02*
X207619809Y-97379675D01*
X207619809Y-97379675D02*
X207667428Y-97474913D01*
X207667428Y-97474913D02*
X207667428Y-97855865D01*
X207238857Y-96903484D02*
X207191238Y-96855865D01*
X207191238Y-96855865D02*
X207143619Y-96760627D01*
X207143619Y-96760627D02*
X207143619Y-96522532D01*
X207143619Y-96522532D02*
X207191238Y-96427294D01*
X207191238Y-96427294D02*
X207238857Y-96379675D01*
X207238857Y-96379675D02*
X207334095Y-96332056D01*
X207334095Y-96332056D02*
X207429333Y-96332056D01*
X207429333Y-96332056D02*
X207572190Y-96379675D01*
X207572190Y-96379675D02*
X208143619Y-96951103D01*
X208143619Y-96951103D02*
X208143619Y-96332056D01*
X207143619Y-95998722D02*
X207143619Y-95332056D01*
X207143619Y-95332056D02*
X208143619Y-95760627D01*
%TO.C,R32*%
X206288142Y-100333619D02*
X205954809Y-99857428D01*
X205716714Y-100333619D02*
X205716714Y-99333619D01*
X205716714Y-99333619D02*
X206097666Y-99333619D01*
X206097666Y-99333619D02*
X206192904Y-99381238D01*
X206192904Y-99381238D02*
X206240523Y-99428857D01*
X206240523Y-99428857D02*
X206288142Y-99524095D01*
X206288142Y-99524095D02*
X206288142Y-99666952D01*
X206288142Y-99666952D02*
X206240523Y-99762190D01*
X206240523Y-99762190D02*
X206192904Y-99809809D01*
X206192904Y-99809809D02*
X206097666Y-99857428D01*
X206097666Y-99857428D02*
X205716714Y-99857428D01*
X206621476Y-99333619D02*
X207240523Y-99333619D01*
X207240523Y-99333619D02*
X206907190Y-99714571D01*
X206907190Y-99714571D02*
X207050047Y-99714571D01*
X207050047Y-99714571D02*
X207145285Y-99762190D01*
X207145285Y-99762190D02*
X207192904Y-99809809D01*
X207192904Y-99809809D02*
X207240523Y-99905047D01*
X207240523Y-99905047D02*
X207240523Y-100143142D01*
X207240523Y-100143142D02*
X207192904Y-100238380D01*
X207192904Y-100238380D02*
X207145285Y-100286000D01*
X207145285Y-100286000D02*
X207050047Y-100333619D01*
X207050047Y-100333619D02*
X206764333Y-100333619D01*
X206764333Y-100333619D02*
X206669095Y-100286000D01*
X206669095Y-100286000D02*
X206621476Y-100238380D01*
X207621476Y-99428857D02*
X207669095Y-99381238D01*
X207669095Y-99381238D02*
X207764333Y-99333619D01*
X207764333Y-99333619D02*
X208002428Y-99333619D01*
X208002428Y-99333619D02*
X208097666Y-99381238D01*
X208097666Y-99381238D02*
X208145285Y-99428857D01*
X208145285Y-99428857D02*
X208192904Y-99524095D01*
X208192904Y-99524095D02*
X208192904Y-99619333D01*
X208192904Y-99619333D02*
X208145285Y-99762190D01*
X208145285Y-99762190D02*
X207573857Y-100333619D01*
X207573857Y-100333619D02*
X208192904Y-100333619D01*
%TO.C,R5*%
X229018333Y-109163619D02*
X228685000Y-108687428D01*
X228446905Y-109163619D02*
X228446905Y-108163619D01*
X228446905Y-108163619D02*
X228827857Y-108163619D01*
X228827857Y-108163619D02*
X228923095Y-108211238D01*
X228923095Y-108211238D02*
X228970714Y-108258857D01*
X228970714Y-108258857D02*
X229018333Y-108354095D01*
X229018333Y-108354095D02*
X229018333Y-108496952D01*
X229018333Y-108496952D02*
X228970714Y-108592190D01*
X228970714Y-108592190D02*
X228923095Y-108639809D01*
X228923095Y-108639809D02*
X228827857Y-108687428D01*
X228827857Y-108687428D02*
X228446905Y-108687428D01*
X229923095Y-108163619D02*
X229446905Y-108163619D01*
X229446905Y-108163619D02*
X229399286Y-108639809D01*
X229399286Y-108639809D02*
X229446905Y-108592190D01*
X229446905Y-108592190D02*
X229542143Y-108544571D01*
X229542143Y-108544571D02*
X229780238Y-108544571D01*
X229780238Y-108544571D02*
X229875476Y-108592190D01*
X229875476Y-108592190D02*
X229923095Y-108639809D01*
X229923095Y-108639809D02*
X229970714Y-108735047D01*
X229970714Y-108735047D02*
X229970714Y-108973142D01*
X229970714Y-108973142D02*
X229923095Y-109068380D01*
X229923095Y-109068380D02*
X229875476Y-109116000D01*
X229875476Y-109116000D02*
X229780238Y-109163619D01*
X229780238Y-109163619D02*
X229542143Y-109163619D01*
X229542143Y-109163619D02*
X229446905Y-109116000D01*
X229446905Y-109116000D02*
X229399286Y-109068380D01*
%TO.C,C60*%
X229632142Y-70782380D02*
X229584523Y-70830000D01*
X229584523Y-70830000D02*
X229441666Y-70877619D01*
X229441666Y-70877619D02*
X229346428Y-70877619D01*
X229346428Y-70877619D02*
X229203571Y-70830000D01*
X229203571Y-70830000D02*
X229108333Y-70734761D01*
X229108333Y-70734761D02*
X229060714Y-70639523D01*
X229060714Y-70639523D02*
X229013095Y-70449047D01*
X229013095Y-70449047D02*
X229013095Y-70306190D01*
X229013095Y-70306190D02*
X229060714Y-70115714D01*
X229060714Y-70115714D02*
X229108333Y-70020476D01*
X229108333Y-70020476D02*
X229203571Y-69925238D01*
X229203571Y-69925238D02*
X229346428Y-69877619D01*
X229346428Y-69877619D02*
X229441666Y-69877619D01*
X229441666Y-69877619D02*
X229584523Y-69925238D01*
X229584523Y-69925238D02*
X229632142Y-69972857D01*
X230489285Y-69877619D02*
X230298809Y-69877619D01*
X230298809Y-69877619D02*
X230203571Y-69925238D01*
X230203571Y-69925238D02*
X230155952Y-69972857D01*
X230155952Y-69972857D02*
X230060714Y-70115714D01*
X230060714Y-70115714D02*
X230013095Y-70306190D01*
X230013095Y-70306190D02*
X230013095Y-70687142D01*
X230013095Y-70687142D02*
X230060714Y-70782380D01*
X230060714Y-70782380D02*
X230108333Y-70830000D01*
X230108333Y-70830000D02*
X230203571Y-70877619D01*
X230203571Y-70877619D02*
X230394047Y-70877619D01*
X230394047Y-70877619D02*
X230489285Y-70830000D01*
X230489285Y-70830000D02*
X230536904Y-70782380D01*
X230536904Y-70782380D02*
X230584523Y-70687142D01*
X230584523Y-70687142D02*
X230584523Y-70449047D01*
X230584523Y-70449047D02*
X230536904Y-70353809D01*
X230536904Y-70353809D02*
X230489285Y-70306190D01*
X230489285Y-70306190D02*
X230394047Y-70258571D01*
X230394047Y-70258571D02*
X230203571Y-70258571D01*
X230203571Y-70258571D02*
X230108333Y-70306190D01*
X230108333Y-70306190D02*
X230060714Y-70353809D01*
X230060714Y-70353809D02*
X230013095Y-70449047D01*
X231203571Y-69877619D02*
X231298809Y-69877619D01*
X231298809Y-69877619D02*
X231394047Y-69925238D01*
X231394047Y-69925238D02*
X231441666Y-69972857D01*
X231441666Y-69972857D02*
X231489285Y-70068095D01*
X231489285Y-70068095D02*
X231536904Y-70258571D01*
X231536904Y-70258571D02*
X231536904Y-70496666D01*
X231536904Y-70496666D02*
X231489285Y-70687142D01*
X231489285Y-70687142D02*
X231441666Y-70782380D01*
X231441666Y-70782380D02*
X231394047Y-70830000D01*
X231394047Y-70830000D02*
X231298809Y-70877619D01*
X231298809Y-70877619D02*
X231203571Y-70877619D01*
X231203571Y-70877619D02*
X231108333Y-70830000D01*
X231108333Y-70830000D02*
X231060714Y-70782380D01*
X231060714Y-70782380D02*
X231013095Y-70687142D01*
X231013095Y-70687142D02*
X230965476Y-70496666D01*
X230965476Y-70496666D02*
X230965476Y-70258571D01*
X230965476Y-70258571D02*
X231013095Y-70068095D01*
X231013095Y-70068095D02*
X231060714Y-69972857D01*
X231060714Y-69972857D02*
X231108333Y-69925238D01*
X231108333Y-69925238D02*
X231203571Y-69877619D01*
%TO.C,R18*%
X207066761Y-114767857D02*
X206590570Y-115101190D01*
X207066761Y-115339285D02*
X206066761Y-115339285D01*
X206066761Y-115339285D02*
X206066761Y-114958333D01*
X206066761Y-114958333D02*
X206114380Y-114863095D01*
X206114380Y-114863095D02*
X206161999Y-114815476D01*
X206161999Y-114815476D02*
X206257237Y-114767857D01*
X206257237Y-114767857D02*
X206400094Y-114767857D01*
X206400094Y-114767857D02*
X206495332Y-114815476D01*
X206495332Y-114815476D02*
X206542951Y-114863095D01*
X206542951Y-114863095D02*
X206590570Y-114958333D01*
X206590570Y-114958333D02*
X206590570Y-115339285D01*
X207066761Y-113815476D02*
X207066761Y-114386904D01*
X207066761Y-114101190D02*
X206066761Y-114101190D01*
X206066761Y-114101190D02*
X206209618Y-114196428D01*
X206209618Y-114196428D02*
X206304856Y-114291666D01*
X206304856Y-114291666D02*
X206352475Y-114386904D01*
X206495332Y-113244047D02*
X206447713Y-113339285D01*
X206447713Y-113339285D02*
X206400094Y-113386904D01*
X206400094Y-113386904D02*
X206304856Y-113434523D01*
X206304856Y-113434523D02*
X206257237Y-113434523D01*
X206257237Y-113434523D02*
X206161999Y-113386904D01*
X206161999Y-113386904D02*
X206114380Y-113339285D01*
X206114380Y-113339285D02*
X206066761Y-113244047D01*
X206066761Y-113244047D02*
X206066761Y-113053571D01*
X206066761Y-113053571D02*
X206114380Y-112958333D01*
X206114380Y-112958333D02*
X206161999Y-112910714D01*
X206161999Y-112910714D02*
X206257237Y-112863095D01*
X206257237Y-112863095D02*
X206304856Y-112863095D01*
X206304856Y-112863095D02*
X206400094Y-112910714D01*
X206400094Y-112910714D02*
X206447713Y-112958333D01*
X206447713Y-112958333D02*
X206495332Y-113053571D01*
X206495332Y-113053571D02*
X206495332Y-113244047D01*
X206495332Y-113244047D02*
X206542951Y-113339285D01*
X206542951Y-113339285D02*
X206590570Y-113386904D01*
X206590570Y-113386904D02*
X206685808Y-113434523D01*
X206685808Y-113434523D02*
X206876284Y-113434523D01*
X206876284Y-113434523D02*
X206971522Y-113386904D01*
X206971522Y-113386904D02*
X207019142Y-113339285D01*
X207019142Y-113339285D02*
X207066761Y-113244047D01*
X207066761Y-113244047D02*
X207066761Y-113053571D01*
X207066761Y-113053571D02*
X207019142Y-112958333D01*
X207019142Y-112958333D02*
X206971522Y-112910714D01*
X206971522Y-112910714D02*
X206876284Y-112863095D01*
X206876284Y-112863095D02*
X206685808Y-112863095D01*
X206685808Y-112863095D02*
X206590570Y-112910714D01*
X206590570Y-112910714D02*
X206542951Y-112958333D01*
X206542951Y-112958333D02*
X206495332Y-113053571D01*
%TO.C,C19*%
X228742142Y-116616380D02*
X228694523Y-116664000D01*
X228694523Y-116664000D02*
X228551666Y-116711619D01*
X228551666Y-116711619D02*
X228456428Y-116711619D01*
X228456428Y-116711619D02*
X228313571Y-116664000D01*
X228313571Y-116664000D02*
X228218333Y-116568761D01*
X228218333Y-116568761D02*
X228170714Y-116473523D01*
X228170714Y-116473523D02*
X228123095Y-116283047D01*
X228123095Y-116283047D02*
X228123095Y-116140190D01*
X228123095Y-116140190D02*
X228170714Y-115949714D01*
X228170714Y-115949714D02*
X228218333Y-115854476D01*
X228218333Y-115854476D02*
X228313571Y-115759238D01*
X228313571Y-115759238D02*
X228456428Y-115711619D01*
X228456428Y-115711619D02*
X228551666Y-115711619D01*
X228551666Y-115711619D02*
X228694523Y-115759238D01*
X228694523Y-115759238D02*
X228742142Y-115806857D01*
X229694523Y-116711619D02*
X229123095Y-116711619D01*
X229408809Y-116711619D02*
X229408809Y-115711619D01*
X229408809Y-115711619D02*
X229313571Y-115854476D01*
X229313571Y-115854476D02*
X229218333Y-115949714D01*
X229218333Y-115949714D02*
X229123095Y-115997333D01*
X230170714Y-116711619D02*
X230361190Y-116711619D01*
X230361190Y-116711619D02*
X230456428Y-116664000D01*
X230456428Y-116664000D02*
X230504047Y-116616380D01*
X230504047Y-116616380D02*
X230599285Y-116473523D01*
X230599285Y-116473523D02*
X230646904Y-116283047D01*
X230646904Y-116283047D02*
X230646904Y-115902095D01*
X230646904Y-115902095D02*
X230599285Y-115806857D01*
X230599285Y-115806857D02*
X230551666Y-115759238D01*
X230551666Y-115759238D02*
X230456428Y-115711619D01*
X230456428Y-115711619D02*
X230265952Y-115711619D01*
X230265952Y-115711619D02*
X230170714Y-115759238D01*
X230170714Y-115759238D02*
X230123095Y-115806857D01*
X230123095Y-115806857D02*
X230075476Y-115902095D01*
X230075476Y-115902095D02*
X230075476Y-116140190D01*
X230075476Y-116140190D02*
X230123095Y-116235428D01*
X230123095Y-116235428D02*
X230170714Y-116283047D01*
X230170714Y-116283047D02*
X230265952Y-116330666D01*
X230265952Y-116330666D02*
X230456428Y-116330666D01*
X230456428Y-116330666D02*
X230551666Y-116283047D01*
X230551666Y-116283047D02*
X230599285Y-116235428D01*
X230599285Y-116235428D02*
X230646904Y-116140190D01*
%TO.C,FB4*%
X187810809Y-93296333D02*
X187810809Y-93629666D01*
X188334619Y-93629666D02*
X187334619Y-93629666D01*
X187334619Y-93629666D02*
X187334619Y-93153476D01*
X187810809Y-92439190D02*
X187858428Y-92296333D01*
X187858428Y-92296333D02*
X187906047Y-92248714D01*
X187906047Y-92248714D02*
X188001285Y-92201095D01*
X188001285Y-92201095D02*
X188144142Y-92201095D01*
X188144142Y-92201095D02*
X188239380Y-92248714D01*
X188239380Y-92248714D02*
X188287000Y-92296333D01*
X188287000Y-92296333D02*
X188334619Y-92391571D01*
X188334619Y-92391571D02*
X188334619Y-92772523D01*
X188334619Y-92772523D02*
X187334619Y-92772523D01*
X187334619Y-92772523D02*
X187334619Y-92439190D01*
X187334619Y-92439190D02*
X187382238Y-92343952D01*
X187382238Y-92343952D02*
X187429857Y-92296333D01*
X187429857Y-92296333D02*
X187525095Y-92248714D01*
X187525095Y-92248714D02*
X187620333Y-92248714D01*
X187620333Y-92248714D02*
X187715571Y-92296333D01*
X187715571Y-92296333D02*
X187763190Y-92343952D01*
X187763190Y-92343952D02*
X187810809Y-92439190D01*
X187810809Y-92439190D02*
X187810809Y-92772523D01*
X187667952Y-91343952D02*
X188334619Y-91343952D01*
X187287000Y-91582047D02*
X188001285Y-91820142D01*
X188001285Y-91820142D02*
X188001285Y-91201095D01*
%TO.C,C73*%
X232510142Y-114330380D02*
X232462523Y-114378000D01*
X232462523Y-114378000D02*
X232319666Y-114425619D01*
X232319666Y-114425619D02*
X232224428Y-114425619D01*
X232224428Y-114425619D02*
X232081571Y-114378000D01*
X232081571Y-114378000D02*
X231986333Y-114282761D01*
X231986333Y-114282761D02*
X231938714Y-114187523D01*
X231938714Y-114187523D02*
X231891095Y-113997047D01*
X231891095Y-113997047D02*
X231891095Y-113854190D01*
X231891095Y-113854190D02*
X231938714Y-113663714D01*
X231938714Y-113663714D02*
X231986333Y-113568476D01*
X231986333Y-113568476D02*
X232081571Y-113473238D01*
X232081571Y-113473238D02*
X232224428Y-113425619D01*
X232224428Y-113425619D02*
X232319666Y-113425619D01*
X232319666Y-113425619D02*
X232462523Y-113473238D01*
X232462523Y-113473238D02*
X232510142Y-113520857D01*
X232843476Y-113425619D02*
X233510142Y-113425619D01*
X233510142Y-113425619D02*
X233081571Y-114425619D01*
X233795857Y-113425619D02*
X234414904Y-113425619D01*
X234414904Y-113425619D02*
X234081571Y-113806571D01*
X234081571Y-113806571D02*
X234224428Y-113806571D01*
X234224428Y-113806571D02*
X234319666Y-113854190D01*
X234319666Y-113854190D02*
X234367285Y-113901809D01*
X234367285Y-113901809D02*
X234414904Y-113997047D01*
X234414904Y-113997047D02*
X234414904Y-114235142D01*
X234414904Y-114235142D02*
X234367285Y-114330380D01*
X234367285Y-114330380D02*
X234319666Y-114378000D01*
X234319666Y-114378000D02*
X234224428Y-114425619D01*
X234224428Y-114425619D02*
X233938714Y-114425619D01*
X233938714Y-114425619D02*
X233843476Y-114378000D01*
X233843476Y-114378000D02*
X233795857Y-114330380D01*
%TO.C,H3*%
X244516095Y-46549619D02*
X244516095Y-45549619D01*
X244516095Y-46025809D02*
X245087523Y-46025809D01*
X245087523Y-46549619D02*
X245087523Y-45549619D01*
X245468476Y-45549619D02*
X246087523Y-45549619D01*
X246087523Y-45549619D02*
X245754190Y-45930571D01*
X245754190Y-45930571D02*
X245897047Y-45930571D01*
X245897047Y-45930571D02*
X245992285Y-45978190D01*
X245992285Y-45978190D02*
X246039904Y-46025809D01*
X246039904Y-46025809D02*
X246087523Y-46121047D01*
X246087523Y-46121047D02*
X246087523Y-46359142D01*
X246087523Y-46359142D02*
X246039904Y-46454380D01*
X246039904Y-46454380D02*
X245992285Y-46502000D01*
X245992285Y-46502000D02*
X245897047Y-46549619D01*
X245897047Y-46549619D02*
X245611333Y-46549619D01*
X245611333Y-46549619D02*
X245516095Y-46502000D01*
X245516095Y-46502000D02*
X245468476Y-46454380D01*
%TO.C,R7*%
X224148333Y-112775619D02*
X223815000Y-112299428D01*
X223576905Y-112775619D02*
X223576905Y-111775619D01*
X223576905Y-111775619D02*
X223957857Y-111775619D01*
X223957857Y-111775619D02*
X224053095Y-111823238D01*
X224053095Y-111823238D02*
X224100714Y-111870857D01*
X224100714Y-111870857D02*
X224148333Y-111966095D01*
X224148333Y-111966095D02*
X224148333Y-112108952D01*
X224148333Y-112108952D02*
X224100714Y-112204190D01*
X224100714Y-112204190D02*
X224053095Y-112251809D01*
X224053095Y-112251809D02*
X223957857Y-112299428D01*
X223957857Y-112299428D02*
X223576905Y-112299428D01*
X224481667Y-111775619D02*
X225148333Y-111775619D01*
X225148333Y-111775619D02*
X224719762Y-112775619D01*
%TO.C,D7*%
X196519905Y-112399619D02*
X196519905Y-111399619D01*
X196519905Y-111399619D02*
X196758000Y-111399619D01*
X196758000Y-111399619D02*
X196900857Y-111447238D01*
X196900857Y-111447238D02*
X196996095Y-111542476D01*
X196996095Y-111542476D02*
X197043714Y-111637714D01*
X197043714Y-111637714D02*
X197091333Y-111828190D01*
X197091333Y-111828190D02*
X197091333Y-111971047D01*
X197091333Y-111971047D02*
X197043714Y-112161523D01*
X197043714Y-112161523D02*
X196996095Y-112256761D01*
X196996095Y-112256761D02*
X196900857Y-112352000D01*
X196900857Y-112352000D02*
X196758000Y-112399619D01*
X196758000Y-112399619D02*
X196519905Y-112399619D01*
X197424667Y-111399619D02*
X198091333Y-111399619D01*
X198091333Y-111399619D02*
X197662762Y-112399619D01*
D11*
X195322285Y-113833964D02*
X194893714Y-113833964D01*
X195107999Y-113833964D02*
X195107999Y-113083964D01*
X195107999Y-113083964D02*
X195036571Y-113191107D01*
X195036571Y-113191107D02*
X194965142Y-113262535D01*
X194965142Y-113262535D02*
X194893714Y-113298250D01*
D10*
%TO.C,R31*%
X198552187Y-102856703D02*
X198075996Y-103190036D01*
X198552187Y-103428131D02*
X197552187Y-103428131D01*
X197552187Y-103428131D02*
X197552187Y-103047179D01*
X197552187Y-103047179D02*
X197599806Y-102951941D01*
X197599806Y-102951941D02*
X197647425Y-102904322D01*
X197647425Y-102904322D02*
X197742663Y-102856703D01*
X197742663Y-102856703D02*
X197885520Y-102856703D01*
X197885520Y-102856703D02*
X197980758Y-102904322D01*
X197980758Y-102904322D02*
X198028377Y-102951941D01*
X198028377Y-102951941D02*
X198075996Y-103047179D01*
X198075996Y-103047179D02*
X198075996Y-103428131D01*
X197552187Y-102523369D02*
X197552187Y-101904322D01*
X197552187Y-101904322D02*
X197933139Y-102237655D01*
X197933139Y-102237655D02*
X197933139Y-102094798D01*
X197933139Y-102094798D02*
X197980758Y-101999560D01*
X197980758Y-101999560D02*
X198028377Y-101951941D01*
X198028377Y-101951941D02*
X198123615Y-101904322D01*
X198123615Y-101904322D02*
X198361710Y-101904322D01*
X198361710Y-101904322D02*
X198456948Y-101951941D01*
X198456948Y-101951941D02*
X198504568Y-101999560D01*
X198504568Y-101999560D02*
X198552187Y-102094798D01*
X198552187Y-102094798D02*
X198552187Y-102380512D01*
X198552187Y-102380512D02*
X198504568Y-102475750D01*
X198504568Y-102475750D02*
X198456948Y-102523369D01*
X198552187Y-100951941D02*
X198552187Y-101523369D01*
X198552187Y-101237655D02*
X197552187Y-101237655D01*
X197552187Y-101237655D02*
X197695044Y-101332893D01*
X197695044Y-101332893D02*
X197790282Y-101428131D01*
X197790282Y-101428131D02*
X197837901Y-101523369D01*
%TO.C,C24*%
X217192142Y-105556380D02*
X217144523Y-105604000D01*
X217144523Y-105604000D02*
X217001666Y-105651619D01*
X217001666Y-105651619D02*
X216906428Y-105651619D01*
X216906428Y-105651619D02*
X216763571Y-105604000D01*
X216763571Y-105604000D02*
X216668333Y-105508761D01*
X216668333Y-105508761D02*
X216620714Y-105413523D01*
X216620714Y-105413523D02*
X216573095Y-105223047D01*
X216573095Y-105223047D02*
X216573095Y-105080190D01*
X216573095Y-105080190D02*
X216620714Y-104889714D01*
X216620714Y-104889714D02*
X216668333Y-104794476D01*
X216668333Y-104794476D02*
X216763571Y-104699238D01*
X216763571Y-104699238D02*
X216906428Y-104651619D01*
X216906428Y-104651619D02*
X217001666Y-104651619D01*
X217001666Y-104651619D02*
X217144523Y-104699238D01*
X217144523Y-104699238D02*
X217192142Y-104746857D01*
X217573095Y-104746857D02*
X217620714Y-104699238D01*
X217620714Y-104699238D02*
X217715952Y-104651619D01*
X217715952Y-104651619D02*
X217954047Y-104651619D01*
X217954047Y-104651619D02*
X218049285Y-104699238D01*
X218049285Y-104699238D02*
X218096904Y-104746857D01*
X218096904Y-104746857D02*
X218144523Y-104842095D01*
X218144523Y-104842095D02*
X218144523Y-104937333D01*
X218144523Y-104937333D02*
X218096904Y-105080190D01*
X218096904Y-105080190D02*
X217525476Y-105651619D01*
X217525476Y-105651619D02*
X218144523Y-105651619D01*
X219001666Y-104984952D02*
X219001666Y-105651619D01*
X218763571Y-104604000D02*
X218525476Y-105318285D01*
X218525476Y-105318285D02*
X219144523Y-105318285D01*
%TO.C,R11*%
X219503619Y-110817857D02*
X219027428Y-111151190D01*
X219503619Y-111389285D02*
X218503619Y-111389285D01*
X218503619Y-111389285D02*
X218503619Y-111008333D01*
X218503619Y-111008333D02*
X218551238Y-110913095D01*
X218551238Y-110913095D02*
X218598857Y-110865476D01*
X218598857Y-110865476D02*
X218694095Y-110817857D01*
X218694095Y-110817857D02*
X218836952Y-110817857D01*
X218836952Y-110817857D02*
X218932190Y-110865476D01*
X218932190Y-110865476D02*
X218979809Y-110913095D01*
X218979809Y-110913095D02*
X219027428Y-111008333D01*
X219027428Y-111008333D02*
X219027428Y-111389285D01*
X219503619Y-109865476D02*
X219503619Y-110436904D01*
X219503619Y-110151190D02*
X218503619Y-110151190D01*
X218503619Y-110151190D02*
X218646476Y-110246428D01*
X218646476Y-110246428D02*
X218741714Y-110341666D01*
X218741714Y-110341666D02*
X218789333Y-110436904D01*
X219503619Y-108913095D02*
X219503619Y-109484523D01*
X219503619Y-109198809D02*
X218503619Y-109198809D01*
X218503619Y-109198809D02*
X218646476Y-109294047D01*
X218646476Y-109294047D02*
X218741714Y-109389285D01*
X218741714Y-109389285D02*
X218789333Y-109484523D01*
%TO.C,C3*%
X231152380Y-65547666D02*
X231200000Y-65595285D01*
X231200000Y-65595285D02*
X231247619Y-65738142D01*
X231247619Y-65738142D02*
X231247619Y-65833380D01*
X231247619Y-65833380D02*
X231200000Y-65976237D01*
X231200000Y-65976237D02*
X231104761Y-66071475D01*
X231104761Y-66071475D02*
X231009523Y-66119094D01*
X231009523Y-66119094D02*
X230819047Y-66166713D01*
X230819047Y-66166713D02*
X230676190Y-66166713D01*
X230676190Y-66166713D02*
X230485714Y-66119094D01*
X230485714Y-66119094D02*
X230390476Y-66071475D01*
X230390476Y-66071475D02*
X230295238Y-65976237D01*
X230295238Y-65976237D02*
X230247619Y-65833380D01*
X230247619Y-65833380D02*
X230247619Y-65738142D01*
X230247619Y-65738142D02*
X230295238Y-65595285D01*
X230295238Y-65595285D02*
X230342857Y-65547666D01*
X230247619Y-65214332D02*
X230247619Y-64595285D01*
X230247619Y-64595285D02*
X230628571Y-64928618D01*
X230628571Y-64928618D02*
X230628571Y-64785761D01*
X230628571Y-64785761D02*
X230676190Y-64690523D01*
X230676190Y-64690523D02*
X230723809Y-64642904D01*
X230723809Y-64642904D02*
X230819047Y-64595285D01*
X230819047Y-64595285D02*
X231057142Y-64595285D01*
X231057142Y-64595285D02*
X231152380Y-64642904D01*
X231152380Y-64642904D02*
X231200000Y-64690523D01*
X231200000Y-64690523D02*
X231247619Y-64785761D01*
X231247619Y-64785761D02*
X231247619Y-65071475D01*
X231247619Y-65071475D02*
X231200000Y-65166713D01*
X231200000Y-65166713D02*
X231152380Y-65214332D01*
%TO.C,C21*%
X223472142Y-111646380D02*
X223424523Y-111694000D01*
X223424523Y-111694000D02*
X223281666Y-111741619D01*
X223281666Y-111741619D02*
X223186428Y-111741619D01*
X223186428Y-111741619D02*
X223043571Y-111694000D01*
X223043571Y-111694000D02*
X222948333Y-111598761D01*
X222948333Y-111598761D02*
X222900714Y-111503523D01*
X222900714Y-111503523D02*
X222853095Y-111313047D01*
X222853095Y-111313047D02*
X222853095Y-111170190D01*
X222853095Y-111170190D02*
X222900714Y-110979714D01*
X222900714Y-110979714D02*
X222948333Y-110884476D01*
X222948333Y-110884476D02*
X223043571Y-110789238D01*
X223043571Y-110789238D02*
X223186428Y-110741619D01*
X223186428Y-110741619D02*
X223281666Y-110741619D01*
X223281666Y-110741619D02*
X223424523Y-110789238D01*
X223424523Y-110789238D02*
X223472142Y-110836857D01*
X223853095Y-110836857D02*
X223900714Y-110789238D01*
X223900714Y-110789238D02*
X223995952Y-110741619D01*
X223995952Y-110741619D02*
X224234047Y-110741619D01*
X224234047Y-110741619D02*
X224329285Y-110789238D01*
X224329285Y-110789238D02*
X224376904Y-110836857D01*
X224376904Y-110836857D02*
X224424523Y-110932095D01*
X224424523Y-110932095D02*
X224424523Y-111027333D01*
X224424523Y-111027333D02*
X224376904Y-111170190D01*
X224376904Y-111170190D02*
X223805476Y-111741619D01*
X223805476Y-111741619D02*
X224424523Y-111741619D01*
X225376904Y-111741619D02*
X224805476Y-111741619D01*
X225091190Y-111741619D02*
X225091190Y-110741619D01*
X225091190Y-110741619D02*
X224995952Y-110884476D01*
X224995952Y-110884476D02*
X224900714Y-110979714D01*
X224900714Y-110979714D02*
X224805476Y-111027333D01*
%TO.C,SW1*%
X193635667Y-82778000D02*
X193778524Y-82825619D01*
X193778524Y-82825619D02*
X194016619Y-82825619D01*
X194016619Y-82825619D02*
X194111857Y-82778000D01*
X194111857Y-82778000D02*
X194159476Y-82730380D01*
X194159476Y-82730380D02*
X194207095Y-82635142D01*
X194207095Y-82635142D02*
X194207095Y-82539904D01*
X194207095Y-82539904D02*
X194159476Y-82444666D01*
X194159476Y-82444666D02*
X194111857Y-82397047D01*
X194111857Y-82397047D02*
X194016619Y-82349428D01*
X194016619Y-82349428D02*
X193826143Y-82301809D01*
X193826143Y-82301809D02*
X193730905Y-82254190D01*
X193730905Y-82254190D02*
X193683286Y-82206571D01*
X193683286Y-82206571D02*
X193635667Y-82111333D01*
X193635667Y-82111333D02*
X193635667Y-82016095D01*
X193635667Y-82016095D02*
X193683286Y-81920857D01*
X193683286Y-81920857D02*
X193730905Y-81873238D01*
X193730905Y-81873238D02*
X193826143Y-81825619D01*
X193826143Y-81825619D02*
X194064238Y-81825619D01*
X194064238Y-81825619D02*
X194207095Y-81873238D01*
X194540429Y-81825619D02*
X194778524Y-82825619D01*
X194778524Y-82825619D02*
X194969000Y-82111333D01*
X194969000Y-82111333D02*
X195159476Y-82825619D01*
X195159476Y-82825619D02*
X195397572Y-81825619D01*
X196302333Y-82825619D02*
X195730905Y-82825619D01*
X196016619Y-82825619D02*
X196016619Y-81825619D01*
X196016619Y-81825619D02*
X195921381Y-81968476D01*
X195921381Y-81968476D02*
X195826143Y-82063714D01*
X195826143Y-82063714D02*
X195730905Y-82111333D01*
%TO.C,H1*%
X186562095Y-108720619D02*
X186562095Y-107720619D01*
X186562095Y-108196809D02*
X187133523Y-108196809D01*
X187133523Y-108720619D02*
X187133523Y-107720619D01*
X188133523Y-108720619D02*
X187562095Y-108720619D01*
X187847809Y-108720619D02*
X187847809Y-107720619D01*
X187847809Y-107720619D02*
X187752571Y-107863476D01*
X187752571Y-107863476D02*
X187657333Y-107958714D01*
X187657333Y-107958714D02*
X187562095Y-108006333D01*
%TO.C,C104*%
X185322952Y-91372380D02*
X185275333Y-91420000D01*
X185275333Y-91420000D02*
X185132476Y-91467619D01*
X185132476Y-91467619D02*
X185037238Y-91467619D01*
X185037238Y-91467619D02*
X184894381Y-91420000D01*
X184894381Y-91420000D02*
X184799143Y-91324761D01*
X184799143Y-91324761D02*
X184751524Y-91229523D01*
X184751524Y-91229523D02*
X184703905Y-91039047D01*
X184703905Y-91039047D02*
X184703905Y-90896190D01*
X184703905Y-90896190D02*
X184751524Y-90705714D01*
X184751524Y-90705714D02*
X184799143Y-90610476D01*
X184799143Y-90610476D02*
X184894381Y-90515238D01*
X184894381Y-90515238D02*
X185037238Y-90467619D01*
X185037238Y-90467619D02*
X185132476Y-90467619D01*
X185132476Y-90467619D02*
X185275333Y-90515238D01*
X185275333Y-90515238D02*
X185322952Y-90562857D01*
X186275333Y-91467619D02*
X185703905Y-91467619D01*
X185989619Y-91467619D02*
X185989619Y-90467619D01*
X185989619Y-90467619D02*
X185894381Y-90610476D01*
X185894381Y-90610476D02*
X185799143Y-90705714D01*
X185799143Y-90705714D02*
X185703905Y-90753333D01*
X186894381Y-90467619D02*
X186989619Y-90467619D01*
X186989619Y-90467619D02*
X187084857Y-90515238D01*
X187084857Y-90515238D02*
X187132476Y-90562857D01*
X187132476Y-90562857D02*
X187180095Y-90658095D01*
X187180095Y-90658095D02*
X187227714Y-90848571D01*
X187227714Y-90848571D02*
X187227714Y-91086666D01*
X187227714Y-91086666D02*
X187180095Y-91277142D01*
X187180095Y-91277142D02*
X187132476Y-91372380D01*
X187132476Y-91372380D02*
X187084857Y-91420000D01*
X187084857Y-91420000D02*
X186989619Y-91467619D01*
X186989619Y-91467619D02*
X186894381Y-91467619D01*
X186894381Y-91467619D02*
X186799143Y-91420000D01*
X186799143Y-91420000D02*
X186751524Y-91372380D01*
X186751524Y-91372380D02*
X186703905Y-91277142D01*
X186703905Y-91277142D02*
X186656286Y-91086666D01*
X186656286Y-91086666D02*
X186656286Y-90848571D01*
X186656286Y-90848571D02*
X186703905Y-90658095D01*
X186703905Y-90658095D02*
X186751524Y-90562857D01*
X186751524Y-90562857D02*
X186799143Y-90515238D01*
X186799143Y-90515238D02*
X186894381Y-90467619D01*
X188084857Y-90800952D02*
X188084857Y-91467619D01*
X187846762Y-90420000D02*
X187608667Y-91134285D01*
X187608667Y-91134285D02*
X188227714Y-91134285D01*
%TO.C,C12*%
X200542380Y-55003857D02*
X200590000Y-55051476D01*
X200590000Y-55051476D02*
X200637619Y-55194333D01*
X200637619Y-55194333D02*
X200637619Y-55289571D01*
X200637619Y-55289571D02*
X200590000Y-55432428D01*
X200590000Y-55432428D02*
X200494761Y-55527666D01*
X200494761Y-55527666D02*
X200399523Y-55575285D01*
X200399523Y-55575285D02*
X200209047Y-55622904D01*
X200209047Y-55622904D02*
X200066190Y-55622904D01*
X200066190Y-55622904D02*
X199875714Y-55575285D01*
X199875714Y-55575285D02*
X199780476Y-55527666D01*
X199780476Y-55527666D02*
X199685238Y-55432428D01*
X199685238Y-55432428D02*
X199637619Y-55289571D01*
X199637619Y-55289571D02*
X199637619Y-55194333D01*
X199637619Y-55194333D02*
X199685238Y-55051476D01*
X199685238Y-55051476D02*
X199732857Y-55003857D01*
X200637619Y-54051476D02*
X200637619Y-54622904D01*
X200637619Y-54337190D02*
X199637619Y-54337190D01*
X199637619Y-54337190D02*
X199780476Y-54432428D01*
X199780476Y-54432428D02*
X199875714Y-54527666D01*
X199875714Y-54527666D02*
X199923333Y-54622904D01*
X199732857Y-53670523D02*
X199685238Y-53622904D01*
X199685238Y-53622904D02*
X199637619Y-53527666D01*
X199637619Y-53527666D02*
X199637619Y-53289571D01*
X199637619Y-53289571D02*
X199685238Y-53194333D01*
X199685238Y-53194333D02*
X199732857Y-53146714D01*
X199732857Y-53146714D02*
X199828095Y-53099095D01*
X199828095Y-53099095D02*
X199923333Y-53099095D01*
X199923333Y-53099095D02*
X200066190Y-53146714D01*
X200066190Y-53146714D02*
X200637619Y-53718142D01*
X200637619Y-53718142D02*
X200637619Y-53099095D01*
%TO.C,J6*%
X185895666Y-86355619D02*
X185895666Y-87069904D01*
X185895666Y-87069904D02*
X185848047Y-87212761D01*
X185848047Y-87212761D02*
X185752809Y-87308000D01*
X185752809Y-87308000D02*
X185609952Y-87355619D01*
X185609952Y-87355619D02*
X185514714Y-87355619D01*
X186800428Y-86355619D02*
X186609952Y-86355619D01*
X186609952Y-86355619D02*
X186514714Y-86403238D01*
X186514714Y-86403238D02*
X186467095Y-86450857D01*
X186467095Y-86450857D02*
X186371857Y-86593714D01*
X186371857Y-86593714D02*
X186324238Y-86784190D01*
X186324238Y-86784190D02*
X186324238Y-87165142D01*
X186324238Y-87165142D02*
X186371857Y-87260380D01*
X186371857Y-87260380D02*
X186419476Y-87308000D01*
X186419476Y-87308000D02*
X186514714Y-87355619D01*
X186514714Y-87355619D02*
X186705190Y-87355619D01*
X186705190Y-87355619D02*
X186800428Y-87308000D01*
X186800428Y-87308000D02*
X186848047Y-87260380D01*
X186848047Y-87260380D02*
X186895666Y-87165142D01*
X186895666Y-87165142D02*
X186895666Y-86927047D01*
X186895666Y-86927047D02*
X186848047Y-86831809D01*
X186848047Y-86831809D02*
X186800428Y-86784190D01*
X186800428Y-86784190D02*
X186705190Y-86736571D01*
X186705190Y-86736571D02*
X186514714Y-86736571D01*
X186514714Y-86736571D02*
X186419476Y-86784190D01*
X186419476Y-86784190D02*
X186371857Y-86831809D01*
X186371857Y-86831809D02*
X186324238Y-86927047D01*
%TO.C,7660S1*%
X241791619Y-109805285D02*
X241791619Y-109138619D01*
X241791619Y-109138619D02*
X242791619Y-109567190D01*
X241791619Y-108329095D02*
X241791619Y-108519571D01*
X241791619Y-108519571D02*
X241839238Y-108614809D01*
X241839238Y-108614809D02*
X241886857Y-108662428D01*
X241886857Y-108662428D02*
X242029714Y-108757666D01*
X242029714Y-108757666D02*
X242220190Y-108805285D01*
X242220190Y-108805285D02*
X242601142Y-108805285D01*
X242601142Y-108805285D02*
X242696380Y-108757666D01*
X242696380Y-108757666D02*
X242744000Y-108710047D01*
X242744000Y-108710047D02*
X242791619Y-108614809D01*
X242791619Y-108614809D02*
X242791619Y-108424333D01*
X242791619Y-108424333D02*
X242744000Y-108329095D01*
X242744000Y-108329095D02*
X242696380Y-108281476D01*
X242696380Y-108281476D02*
X242601142Y-108233857D01*
X242601142Y-108233857D02*
X242363047Y-108233857D01*
X242363047Y-108233857D02*
X242267809Y-108281476D01*
X242267809Y-108281476D02*
X242220190Y-108329095D01*
X242220190Y-108329095D02*
X242172571Y-108424333D01*
X242172571Y-108424333D02*
X242172571Y-108614809D01*
X242172571Y-108614809D02*
X242220190Y-108710047D01*
X242220190Y-108710047D02*
X242267809Y-108757666D01*
X242267809Y-108757666D02*
X242363047Y-108805285D01*
X241791619Y-107376714D02*
X241791619Y-107567190D01*
X241791619Y-107567190D02*
X241839238Y-107662428D01*
X241839238Y-107662428D02*
X241886857Y-107710047D01*
X241886857Y-107710047D02*
X242029714Y-107805285D01*
X242029714Y-107805285D02*
X242220190Y-107852904D01*
X242220190Y-107852904D02*
X242601142Y-107852904D01*
X242601142Y-107852904D02*
X242696380Y-107805285D01*
X242696380Y-107805285D02*
X242744000Y-107757666D01*
X242744000Y-107757666D02*
X242791619Y-107662428D01*
X242791619Y-107662428D02*
X242791619Y-107471952D01*
X242791619Y-107471952D02*
X242744000Y-107376714D01*
X242744000Y-107376714D02*
X242696380Y-107329095D01*
X242696380Y-107329095D02*
X242601142Y-107281476D01*
X242601142Y-107281476D02*
X242363047Y-107281476D01*
X242363047Y-107281476D02*
X242267809Y-107329095D01*
X242267809Y-107329095D02*
X242220190Y-107376714D01*
X242220190Y-107376714D02*
X242172571Y-107471952D01*
X242172571Y-107471952D02*
X242172571Y-107662428D01*
X242172571Y-107662428D02*
X242220190Y-107757666D01*
X242220190Y-107757666D02*
X242267809Y-107805285D01*
X242267809Y-107805285D02*
X242363047Y-107852904D01*
X241791619Y-106662428D02*
X241791619Y-106567190D01*
X241791619Y-106567190D02*
X241839238Y-106471952D01*
X241839238Y-106471952D02*
X241886857Y-106424333D01*
X241886857Y-106424333D02*
X241982095Y-106376714D01*
X241982095Y-106376714D02*
X242172571Y-106329095D01*
X242172571Y-106329095D02*
X242410666Y-106329095D01*
X242410666Y-106329095D02*
X242601142Y-106376714D01*
X242601142Y-106376714D02*
X242696380Y-106424333D01*
X242696380Y-106424333D02*
X242744000Y-106471952D01*
X242744000Y-106471952D02*
X242791619Y-106567190D01*
X242791619Y-106567190D02*
X242791619Y-106662428D01*
X242791619Y-106662428D02*
X242744000Y-106757666D01*
X242744000Y-106757666D02*
X242696380Y-106805285D01*
X242696380Y-106805285D02*
X242601142Y-106852904D01*
X242601142Y-106852904D02*
X242410666Y-106900523D01*
X242410666Y-106900523D02*
X242172571Y-106900523D01*
X242172571Y-106900523D02*
X241982095Y-106852904D01*
X241982095Y-106852904D02*
X241886857Y-106805285D01*
X241886857Y-106805285D02*
X241839238Y-106757666D01*
X241839238Y-106757666D02*
X241791619Y-106662428D01*
X242744000Y-105948142D02*
X242791619Y-105805285D01*
X242791619Y-105805285D02*
X242791619Y-105567190D01*
X242791619Y-105567190D02*
X242744000Y-105471952D01*
X242744000Y-105471952D02*
X242696380Y-105424333D01*
X242696380Y-105424333D02*
X242601142Y-105376714D01*
X242601142Y-105376714D02*
X242505904Y-105376714D01*
X242505904Y-105376714D02*
X242410666Y-105424333D01*
X242410666Y-105424333D02*
X242363047Y-105471952D01*
X242363047Y-105471952D02*
X242315428Y-105567190D01*
X242315428Y-105567190D02*
X242267809Y-105757666D01*
X242267809Y-105757666D02*
X242220190Y-105852904D01*
X242220190Y-105852904D02*
X242172571Y-105900523D01*
X242172571Y-105900523D02*
X242077333Y-105948142D01*
X242077333Y-105948142D02*
X241982095Y-105948142D01*
X241982095Y-105948142D02*
X241886857Y-105900523D01*
X241886857Y-105900523D02*
X241839238Y-105852904D01*
X241839238Y-105852904D02*
X241791619Y-105757666D01*
X241791619Y-105757666D02*
X241791619Y-105519571D01*
X241791619Y-105519571D02*
X241839238Y-105376714D01*
X242791619Y-104424333D02*
X242791619Y-104995761D01*
X242791619Y-104710047D02*
X241791619Y-104710047D01*
X241791619Y-104710047D02*
X241934476Y-104805285D01*
X241934476Y-104805285D02*
X242029714Y-104900523D01*
X242029714Y-104900523D02*
X242077333Y-104995761D01*
%TO.C,C1*%
X204511333Y-56297380D02*
X204463714Y-56345000D01*
X204463714Y-56345000D02*
X204320857Y-56392619D01*
X204320857Y-56392619D02*
X204225619Y-56392619D01*
X204225619Y-56392619D02*
X204082762Y-56345000D01*
X204082762Y-56345000D02*
X203987524Y-56249761D01*
X203987524Y-56249761D02*
X203939905Y-56154523D01*
X203939905Y-56154523D02*
X203892286Y-55964047D01*
X203892286Y-55964047D02*
X203892286Y-55821190D01*
X203892286Y-55821190D02*
X203939905Y-55630714D01*
X203939905Y-55630714D02*
X203987524Y-55535476D01*
X203987524Y-55535476D02*
X204082762Y-55440238D01*
X204082762Y-55440238D02*
X204225619Y-55392619D01*
X204225619Y-55392619D02*
X204320857Y-55392619D01*
X204320857Y-55392619D02*
X204463714Y-55440238D01*
X204463714Y-55440238D02*
X204511333Y-55487857D01*
X205463714Y-56392619D02*
X204892286Y-56392619D01*
X205178000Y-56392619D02*
X205178000Y-55392619D01*
X205178000Y-55392619D02*
X205082762Y-55535476D01*
X205082762Y-55535476D02*
X204987524Y-55630714D01*
X204987524Y-55630714D02*
X204892286Y-55678333D01*
%TO.C,J7*%
X185895666Y-77247619D02*
X185895666Y-77961904D01*
X185895666Y-77961904D02*
X185848047Y-78104761D01*
X185848047Y-78104761D02*
X185752809Y-78200000D01*
X185752809Y-78200000D02*
X185609952Y-78247619D01*
X185609952Y-78247619D02*
X185514714Y-78247619D01*
X186276619Y-77247619D02*
X186943285Y-77247619D01*
X186943285Y-77247619D02*
X186514714Y-78247619D01*
%TO.C,U11*%
X216159905Y-100822619D02*
X216159905Y-101632142D01*
X216159905Y-101632142D02*
X216207524Y-101727380D01*
X216207524Y-101727380D02*
X216255143Y-101775000D01*
X216255143Y-101775000D02*
X216350381Y-101822619D01*
X216350381Y-101822619D02*
X216540857Y-101822619D01*
X216540857Y-101822619D02*
X216636095Y-101775000D01*
X216636095Y-101775000D02*
X216683714Y-101727380D01*
X216683714Y-101727380D02*
X216731333Y-101632142D01*
X216731333Y-101632142D02*
X216731333Y-100822619D01*
X217731333Y-101822619D02*
X217159905Y-101822619D01*
X217445619Y-101822619D02*
X217445619Y-100822619D01*
X217445619Y-100822619D02*
X217350381Y-100965476D01*
X217350381Y-100965476D02*
X217255143Y-101060714D01*
X217255143Y-101060714D02*
X217159905Y-101108333D01*
X218683714Y-101822619D02*
X218112286Y-101822619D01*
X218398000Y-101822619D02*
X218398000Y-100822619D01*
X218398000Y-100822619D02*
X218302762Y-100965476D01*
X218302762Y-100965476D02*
X218207524Y-101060714D01*
X218207524Y-101060714D02*
X218112286Y-101108333D01*
%TO.C,R28*%
X195221619Y-115083857D02*
X194745428Y-115417190D01*
X195221619Y-115655285D02*
X194221619Y-115655285D01*
X194221619Y-115655285D02*
X194221619Y-115274333D01*
X194221619Y-115274333D02*
X194269238Y-115179095D01*
X194269238Y-115179095D02*
X194316857Y-115131476D01*
X194316857Y-115131476D02*
X194412095Y-115083857D01*
X194412095Y-115083857D02*
X194554952Y-115083857D01*
X194554952Y-115083857D02*
X194650190Y-115131476D01*
X194650190Y-115131476D02*
X194697809Y-115179095D01*
X194697809Y-115179095D02*
X194745428Y-115274333D01*
X194745428Y-115274333D02*
X194745428Y-115655285D01*
X194316857Y-114702904D02*
X194269238Y-114655285D01*
X194269238Y-114655285D02*
X194221619Y-114560047D01*
X194221619Y-114560047D02*
X194221619Y-114321952D01*
X194221619Y-114321952D02*
X194269238Y-114226714D01*
X194269238Y-114226714D02*
X194316857Y-114179095D01*
X194316857Y-114179095D02*
X194412095Y-114131476D01*
X194412095Y-114131476D02*
X194507333Y-114131476D01*
X194507333Y-114131476D02*
X194650190Y-114179095D01*
X194650190Y-114179095D02*
X195221619Y-114750523D01*
X195221619Y-114750523D02*
X195221619Y-114131476D01*
X194650190Y-113560047D02*
X194602571Y-113655285D01*
X194602571Y-113655285D02*
X194554952Y-113702904D01*
X194554952Y-113702904D02*
X194459714Y-113750523D01*
X194459714Y-113750523D02*
X194412095Y-113750523D01*
X194412095Y-113750523D02*
X194316857Y-113702904D01*
X194316857Y-113702904D02*
X194269238Y-113655285D01*
X194269238Y-113655285D02*
X194221619Y-113560047D01*
X194221619Y-113560047D02*
X194221619Y-113369571D01*
X194221619Y-113369571D02*
X194269238Y-113274333D01*
X194269238Y-113274333D02*
X194316857Y-113226714D01*
X194316857Y-113226714D02*
X194412095Y-113179095D01*
X194412095Y-113179095D02*
X194459714Y-113179095D01*
X194459714Y-113179095D02*
X194554952Y-113226714D01*
X194554952Y-113226714D02*
X194602571Y-113274333D01*
X194602571Y-113274333D02*
X194650190Y-113369571D01*
X194650190Y-113369571D02*
X194650190Y-113560047D01*
X194650190Y-113560047D02*
X194697809Y-113655285D01*
X194697809Y-113655285D02*
X194745428Y-113702904D01*
X194745428Y-113702904D02*
X194840666Y-113750523D01*
X194840666Y-113750523D02*
X195031142Y-113750523D01*
X195031142Y-113750523D02*
X195126380Y-113702904D01*
X195126380Y-113702904D02*
X195174000Y-113655285D01*
X195174000Y-113655285D02*
X195221619Y-113560047D01*
X195221619Y-113560047D02*
X195221619Y-113369571D01*
X195221619Y-113369571D02*
X195174000Y-113274333D01*
X195174000Y-113274333D02*
X195126380Y-113226714D01*
X195126380Y-113226714D02*
X195031142Y-113179095D01*
X195031142Y-113179095D02*
X194840666Y-113179095D01*
X194840666Y-113179095D02*
X194745428Y-113226714D01*
X194745428Y-113226714D02*
X194697809Y-113274333D01*
X194697809Y-113274333D02*
X194650190Y-113369571D01*
%TO.C,C42*%
X204159806Y-114737857D02*
X204207426Y-114785476D01*
X204207426Y-114785476D02*
X204255045Y-114928333D01*
X204255045Y-114928333D02*
X204255045Y-115023571D01*
X204255045Y-115023571D02*
X204207426Y-115166428D01*
X204207426Y-115166428D02*
X204112187Y-115261666D01*
X204112187Y-115261666D02*
X204016949Y-115309285D01*
X204016949Y-115309285D02*
X203826473Y-115356904D01*
X203826473Y-115356904D02*
X203683616Y-115356904D01*
X203683616Y-115356904D02*
X203493140Y-115309285D01*
X203493140Y-115309285D02*
X203397902Y-115261666D01*
X203397902Y-115261666D02*
X203302664Y-115166428D01*
X203302664Y-115166428D02*
X203255045Y-115023571D01*
X203255045Y-115023571D02*
X203255045Y-114928333D01*
X203255045Y-114928333D02*
X203302664Y-114785476D01*
X203302664Y-114785476D02*
X203350283Y-114737857D01*
X203588378Y-113880714D02*
X204255045Y-113880714D01*
X203207426Y-114118809D02*
X203921711Y-114356904D01*
X203921711Y-114356904D02*
X203921711Y-113737857D01*
X203350283Y-113404523D02*
X203302664Y-113356904D01*
X203302664Y-113356904D02*
X203255045Y-113261666D01*
X203255045Y-113261666D02*
X203255045Y-113023571D01*
X203255045Y-113023571D02*
X203302664Y-112928333D01*
X203302664Y-112928333D02*
X203350283Y-112880714D01*
X203350283Y-112880714D02*
X203445521Y-112833095D01*
X203445521Y-112833095D02*
X203540759Y-112833095D01*
X203540759Y-112833095D02*
X203683616Y-112880714D01*
X203683616Y-112880714D02*
X204255045Y-113452142D01*
X204255045Y-113452142D02*
X204255045Y-112833095D01*
%TO.C,R30*%
X205598773Y-97241857D02*
X205122582Y-97575190D01*
X205598773Y-97813285D02*
X204598773Y-97813285D01*
X204598773Y-97813285D02*
X204598773Y-97432333D01*
X204598773Y-97432333D02*
X204646392Y-97337095D01*
X204646392Y-97337095D02*
X204694011Y-97289476D01*
X204694011Y-97289476D02*
X204789249Y-97241857D01*
X204789249Y-97241857D02*
X204932106Y-97241857D01*
X204932106Y-97241857D02*
X205027344Y-97289476D01*
X205027344Y-97289476D02*
X205074963Y-97337095D01*
X205074963Y-97337095D02*
X205122582Y-97432333D01*
X205122582Y-97432333D02*
X205122582Y-97813285D01*
X204598773Y-96908523D02*
X204598773Y-96289476D01*
X204598773Y-96289476D02*
X204979725Y-96622809D01*
X204979725Y-96622809D02*
X204979725Y-96479952D01*
X204979725Y-96479952D02*
X205027344Y-96384714D01*
X205027344Y-96384714D02*
X205074963Y-96337095D01*
X205074963Y-96337095D02*
X205170201Y-96289476D01*
X205170201Y-96289476D02*
X205408296Y-96289476D01*
X205408296Y-96289476D02*
X205503534Y-96337095D01*
X205503534Y-96337095D02*
X205551154Y-96384714D01*
X205551154Y-96384714D02*
X205598773Y-96479952D01*
X205598773Y-96479952D02*
X205598773Y-96765666D01*
X205598773Y-96765666D02*
X205551154Y-96860904D01*
X205551154Y-96860904D02*
X205503534Y-96908523D01*
X204598773Y-95670428D02*
X204598773Y-95575190D01*
X204598773Y-95575190D02*
X204646392Y-95479952D01*
X204646392Y-95479952D02*
X204694011Y-95432333D01*
X204694011Y-95432333D02*
X204789249Y-95384714D01*
X204789249Y-95384714D02*
X204979725Y-95337095D01*
X204979725Y-95337095D02*
X205217820Y-95337095D01*
X205217820Y-95337095D02*
X205408296Y-95384714D01*
X205408296Y-95384714D02*
X205503534Y-95432333D01*
X205503534Y-95432333D02*
X205551154Y-95479952D01*
X205551154Y-95479952D02*
X205598773Y-95575190D01*
X205598773Y-95575190D02*
X205598773Y-95670428D01*
X205598773Y-95670428D02*
X205551154Y-95765666D01*
X205551154Y-95765666D02*
X205503534Y-95813285D01*
X205503534Y-95813285D02*
X205408296Y-95860904D01*
X205408296Y-95860904D02*
X205217820Y-95908523D01*
X205217820Y-95908523D02*
X204979725Y-95908523D01*
X204979725Y-95908523D02*
X204789249Y-95860904D01*
X204789249Y-95860904D02*
X204694011Y-95813285D01*
X204694011Y-95813285D02*
X204646392Y-95765666D01*
X204646392Y-95765666D02*
X204598773Y-95670428D01*
%TO.C,C105*%
X184306952Y-97498380D02*
X184259333Y-97546000D01*
X184259333Y-97546000D02*
X184116476Y-97593619D01*
X184116476Y-97593619D02*
X184021238Y-97593619D01*
X184021238Y-97593619D02*
X183878381Y-97546000D01*
X183878381Y-97546000D02*
X183783143Y-97450761D01*
X183783143Y-97450761D02*
X183735524Y-97355523D01*
X183735524Y-97355523D02*
X183687905Y-97165047D01*
X183687905Y-97165047D02*
X183687905Y-97022190D01*
X183687905Y-97022190D02*
X183735524Y-96831714D01*
X183735524Y-96831714D02*
X183783143Y-96736476D01*
X183783143Y-96736476D02*
X183878381Y-96641238D01*
X183878381Y-96641238D02*
X184021238Y-96593619D01*
X184021238Y-96593619D02*
X184116476Y-96593619D01*
X184116476Y-96593619D02*
X184259333Y-96641238D01*
X184259333Y-96641238D02*
X184306952Y-96688857D01*
X185259333Y-97593619D02*
X184687905Y-97593619D01*
X184973619Y-97593619D02*
X184973619Y-96593619D01*
X184973619Y-96593619D02*
X184878381Y-96736476D01*
X184878381Y-96736476D02*
X184783143Y-96831714D01*
X184783143Y-96831714D02*
X184687905Y-96879333D01*
X185878381Y-96593619D02*
X185973619Y-96593619D01*
X185973619Y-96593619D02*
X186068857Y-96641238D01*
X186068857Y-96641238D02*
X186116476Y-96688857D01*
X186116476Y-96688857D02*
X186164095Y-96784095D01*
X186164095Y-96784095D02*
X186211714Y-96974571D01*
X186211714Y-96974571D02*
X186211714Y-97212666D01*
X186211714Y-97212666D02*
X186164095Y-97403142D01*
X186164095Y-97403142D02*
X186116476Y-97498380D01*
X186116476Y-97498380D02*
X186068857Y-97546000D01*
X186068857Y-97546000D02*
X185973619Y-97593619D01*
X185973619Y-97593619D02*
X185878381Y-97593619D01*
X185878381Y-97593619D02*
X185783143Y-97546000D01*
X185783143Y-97546000D02*
X185735524Y-97498380D01*
X185735524Y-97498380D02*
X185687905Y-97403142D01*
X185687905Y-97403142D02*
X185640286Y-97212666D01*
X185640286Y-97212666D02*
X185640286Y-96974571D01*
X185640286Y-96974571D02*
X185687905Y-96784095D01*
X185687905Y-96784095D02*
X185735524Y-96688857D01*
X185735524Y-96688857D02*
X185783143Y-96641238D01*
X185783143Y-96641238D02*
X185878381Y-96593619D01*
X187116476Y-96593619D02*
X186640286Y-96593619D01*
X186640286Y-96593619D02*
X186592667Y-97069809D01*
X186592667Y-97069809D02*
X186640286Y-97022190D01*
X186640286Y-97022190D02*
X186735524Y-96974571D01*
X186735524Y-96974571D02*
X186973619Y-96974571D01*
X186973619Y-96974571D02*
X187068857Y-97022190D01*
X187068857Y-97022190D02*
X187116476Y-97069809D01*
X187116476Y-97069809D02*
X187164095Y-97165047D01*
X187164095Y-97165047D02*
X187164095Y-97403142D01*
X187164095Y-97403142D02*
X187116476Y-97498380D01*
X187116476Y-97498380D02*
X187068857Y-97546000D01*
X187068857Y-97546000D02*
X186973619Y-97593619D01*
X186973619Y-97593619D02*
X186735524Y-97593619D01*
X186735524Y-97593619D02*
X186640286Y-97546000D01*
X186640286Y-97546000D02*
X186592667Y-97498380D01*
%TO.C,C51*%
X215312142Y-100888380D02*
X215264523Y-100936000D01*
X215264523Y-100936000D02*
X215121666Y-100983619D01*
X215121666Y-100983619D02*
X215026428Y-100983619D01*
X215026428Y-100983619D02*
X214883571Y-100936000D01*
X214883571Y-100936000D02*
X214788333Y-100840761D01*
X214788333Y-100840761D02*
X214740714Y-100745523D01*
X214740714Y-100745523D02*
X214693095Y-100555047D01*
X214693095Y-100555047D02*
X214693095Y-100412190D01*
X214693095Y-100412190D02*
X214740714Y-100221714D01*
X214740714Y-100221714D02*
X214788333Y-100126476D01*
X214788333Y-100126476D02*
X214883571Y-100031238D01*
X214883571Y-100031238D02*
X215026428Y-99983619D01*
X215026428Y-99983619D02*
X215121666Y-99983619D01*
X215121666Y-99983619D02*
X215264523Y-100031238D01*
X215264523Y-100031238D02*
X215312142Y-100078857D01*
X216216904Y-99983619D02*
X215740714Y-99983619D01*
X215740714Y-99983619D02*
X215693095Y-100459809D01*
X215693095Y-100459809D02*
X215740714Y-100412190D01*
X215740714Y-100412190D02*
X215835952Y-100364571D01*
X215835952Y-100364571D02*
X216074047Y-100364571D01*
X216074047Y-100364571D02*
X216169285Y-100412190D01*
X216169285Y-100412190D02*
X216216904Y-100459809D01*
X216216904Y-100459809D02*
X216264523Y-100555047D01*
X216264523Y-100555047D02*
X216264523Y-100793142D01*
X216264523Y-100793142D02*
X216216904Y-100888380D01*
X216216904Y-100888380D02*
X216169285Y-100936000D01*
X216169285Y-100936000D02*
X216074047Y-100983619D01*
X216074047Y-100983619D02*
X215835952Y-100983619D01*
X215835952Y-100983619D02*
X215740714Y-100936000D01*
X215740714Y-100936000D02*
X215693095Y-100888380D01*
X217216904Y-100983619D02*
X216645476Y-100983619D01*
X216931190Y-100983619D02*
X216931190Y-99983619D01*
X216931190Y-99983619D02*
X216835952Y-100126476D01*
X216835952Y-100126476D02*
X216740714Y-100221714D01*
X216740714Y-100221714D02*
X216645476Y-100269333D01*
%TO.C,R9*%
X213556333Y-107853619D02*
X213223000Y-107377428D01*
X212984905Y-107853619D02*
X212984905Y-106853619D01*
X212984905Y-106853619D02*
X213365857Y-106853619D01*
X213365857Y-106853619D02*
X213461095Y-106901238D01*
X213461095Y-106901238D02*
X213508714Y-106948857D01*
X213508714Y-106948857D02*
X213556333Y-107044095D01*
X213556333Y-107044095D02*
X213556333Y-107186952D01*
X213556333Y-107186952D02*
X213508714Y-107282190D01*
X213508714Y-107282190D02*
X213461095Y-107329809D01*
X213461095Y-107329809D02*
X213365857Y-107377428D01*
X213365857Y-107377428D02*
X212984905Y-107377428D01*
X214032524Y-107853619D02*
X214223000Y-107853619D01*
X214223000Y-107853619D02*
X214318238Y-107806000D01*
X214318238Y-107806000D02*
X214365857Y-107758380D01*
X214365857Y-107758380D02*
X214461095Y-107615523D01*
X214461095Y-107615523D02*
X214508714Y-107425047D01*
X214508714Y-107425047D02*
X214508714Y-107044095D01*
X214508714Y-107044095D02*
X214461095Y-106948857D01*
X214461095Y-106948857D02*
X214413476Y-106901238D01*
X214413476Y-106901238D02*
X214318238Y-106853619D01*
X214318238Y-106853619D02*
X214127762Y-106853619D01*
X214127762Y-106853619D02*
X214032524Y-106901238D01*
X214032524Y-106901238D02*
X213984905Y-106948857D01*
X213984905Y-106948857D02*
X213937286Y-107044095D01*
X213937286Y-107044095D02*
X213937286Y-107282190D01*
X213937286Y-107282190D02*
X213984905Y-107377428D01*
X213984905Y-107377428D02*
X214032524Y-107425047D01*
X214032524Y-107425047D02*
X214127762Y-107472666D01*
X214127762Y-107472666D02*
X214318238Y-107472666D01*
X214318238Y-107472666D02*
X214413476Y-107425047D01*
X214413476Y-107425047D02*
X214461095Y-107377428D01*
X214461095Y-107377428D02*
X214508714Y-107282190D01*
%TO.C,C50*%
X213280142Y-105556380D02*
X213232523Y-105604000D01*
X213232523Y-105604000D02*
X213089666Y-105651619D01*
X213089666Y-105651619D02*
X212994428Y-105651619D01*
X212994428Y-105651619D02*
X212851571Y-105604000D01*
X212851571Y-105604000D02*
X212756333Y-105508761D01*
X212756333Y-105508761D02*
X212708714Y-105413523D01*
X212708714Y-105413523D02*
X212661095Y-105223047D01*
X212661095Y-105223047D02*
X212661095Y-105080190D01*
X212661095Y-105080190D02*
X212708714Y-104889714D01*
X212708714Y-104889714D02*
X212756333Y-104794476D01*
X212756333Y-104794476D02*
X212851571Y-104699238D01*
X212851571Y-104699238D02*
X212994428Y-104651619D01*
X212994428Y-104651619D02*
X213089666Y-104651619D01*
X213089666Y-104651619D02*
X213232523Y-104699238D01*
X213232523Y-104699238D02*
X213280142Y-104746857D01*
X214184904Y-104651619D02*
X213708714Y-104651619D01*
X213708714Y-104651619D02*
X213661095Y-105127809D01*
X213661095Y-105127809D02*
X213708714Y-105080190D01*
X213708714Y-105080190D02*
X213803952Y-105032571D01*
X213803952Y-105032571D02*
X214042047Y-105032571D01*
X214042047Y-105032571D02*
X214137285Y-105080190D01*
X214137285Y-105080190D02*
X214184904Y-105127809D01*
X214184904Y-105127809D02*
X214232523Y-105223047D01*
X214232523Y-105223047D02*
X214232523Y-105461142D01*
X214232523Y-105461142D02*
X214184904Y-105556380D01*
X214184904Y-105556380D02*
X214137285Y-105604000D01*
X214137285Y-105604000D02*
X214042047Y-105651619D01*
X214042047Y-105651619D02*
X213803952Y-105651619D01*
X213803952Y-105651619D02*
X213708714Y-105604000D01*
X213708714Y-105604000D02*
X213661095Y-105556380D01*
X214851571Y-104651619D02*
X214946809Y-104651619D01*
X214946809Y-104651619D02*
X215042047Y-104699238D01*
X215042047Y-104699238D02*
X215089666Y-104746857D01*
X215089666Y-104746857D02*
X215137285Y-104842095D01*
X215137285Y-104842095D02*
X215184904Y-105032571D01*
X215184904Y-105032571D02*
X215184904Y-105270666D01*
X215184904Y-105270666D02*
X215137285Y-105461142D01*
X215137285Y-105461142D02*
X215089666Y-105556380D01*
X215089666Y-105556380D02*
X215042047Y-105604000D01*
X215042047Y-105604000D02*
X214946809Y-105651619D01*
X214946809Y-105651619D02*
X214851571Y-105651619D01*
X214851571Y-105651619D02*
X214756333Y-105604000D01*
X214756333Y-105604000D02*
X214708714Y-105556380D01*
X214708714Y-105556380D02*
X214661095Y-105461142D01*
X214661095Y-105461142D02*
X214613476Y-105270666D01*
X214613476Y-105270666D02*
X214613476Y-105032571D01*
X214613476Y-105032571D02*
X214661095Y-104842095D01*
X214661095Y-104842095D02*
X214708714Y-104746857D01*
X214708714Y-104746857D02*
X214756333Y-104699238D01*
X214756333Y-104699238D02*
X214851571Y-104651619D01*
%TO.C,C75*%
X243702142Y-106260380D02*
X243654523Y-106308000D01*
X243654523Y-106308000D02*
X243511666Y-106355619D01*
X243511666Y-106355619D02*
X243416428Y-106355619D01*
X243416428Y-106355619D02*
X243273571Y-106308000D01*
X243273571Y-106308000D02*
X243178333Y-106212761D01*
X243178333Y-106212761D02*
X243130714Y-106117523D01*
X243130714Y-106117523D02*
X243083095Y-105927047D01*
X243083095Y-105927047D02*
X243083095Y-105784190D01*
X243083095Y-105784190D02*
X243130714Y-105593714D01*
X243130714Y-105593714D02*
X243178333Y-105498476D01*
X243178333Y-105498476D02*
X243273571Y-105403238D01*
X243273571Y-105403238D02*
X243416428Y-105355619D01*
X243416428Y-105355619D02*
X243511666Y-105355619D01*
X243511666Y-105355619D02*
X243654523Y-105403238D01*
X243654523Y-105403238D02*
X243702142Y-105450857D01*
X244035476Y-105355619D02*
X244702142Y-105355619D01*
X244702142Y-105355619D02*
X244273571Y-106355619D01*
X245559285Y-105355619D02*
X245083095Y-105355619D01*
X245083095Y-105355619D02*
X245035476Y-105831809D01*
X245035476Y-105831809D02*
X245083095Y-105784190D01*
X245083095Y-105784190D02*
X245178333Y-105736571D01*
X245178333Y-105736571D02*
X245416428Y-105736571D01*
X245416428Y-105736571D02*
X245511666Y-105784190D01*
X245511666Y-105784190D02*
X245559285Y-105831809D01*
X245559285Y-105831809D02*
X245606904Y-105927047D01*
X245606904Y-105927047D02*
X245606904Y-106165142D01*
X245606904Y-106165142D02*
X245559285Y-106260380D01*
X245559285Y-106260380D02*
X245511666Y-106308000D01*
X245511666Y-106308000D02*
X245416428Y-106355619D01*
X245416428Y-106355619D02*
X245178333Y-106355619D01*
X245178333Y-106355619D02*
X245083095Y-106308000D01*
X245083095Y-106308000D02*
X245035476Y-106260380D01*
%TO.C,C103*%
X242015952Y-97932380D02*
X241968333Y-97980000D01*
X241968333Y-97980000D02*
X241825476Y-98027619D01*
X241825476Y-98027619D02*
X241730238Y-98027619D01*
X241730238Y-98027619D02*
X241587381Y-97980000D01*
X241587381Y-97980000D02*
X241492143Y-97884761D01*
X241492143Y-97884761D02*
X241444524Y-97789523D01*
X241444524Y-97789523D02*
X241396905Y-97599047D01*
X241396905Y-97599047D02*
X241396905Y-97456190D01*
X241396905Y-97456190D02*
X241444524Y-97265714D01*
X241444524Y-97265714D02*
X241492143Y-97170476D01*
X241492143Y-97170476D02*
X241587381Y-97075238D01*
X241587381Y-97075238D02*
X241730238Y-97027619D01*
X241730238Y-97027619D02*
X241825476Y-97027619D01*
X241825476Y-97027619D02*
X241968333Y-97075238D01*
X241968333Y-97075238D02*
X242015952Y-97122857D01*
X242968333Y-98027619D02*
X242396905Y-98027619D01*
X242682619Y-98027619D02*
X242682619Y-97027619D01*
X242682619Y-97027619D02*
X242587381Y-97170476D01*
X242587381Y-97170476D02*
X242492143Y-97265714D01*
X242492143Y-97265714D02*
X242396905Y-97313333D01*
X243587381Y-97027619D02*
X243682619Y-97027619D01*
X243682619Y-97027619D02*
X243777857Y-97075238D01*
X243777857Y-97075238D02*
X243825476Y-97122857D01*
X243825476Y-97122857D02*
X243873095Y-97218095D01*
X243873095Y-97218095D02*
X243920714Y-97408571D01*
X243920714Y-97408571D02*
X243920714Y-97646666D01*
X243920714Y-97646666D02*
X243873095Y-97837142D01*
X243873095Y-97837142D02*
X243825476Y-97932380D01*
X243825476Y-97932380D02*
X243777857Y-97980000D01*
X243777857Y-97980000D02*
X243682619Y-98027619D01*
X243682619Y-98027619D02*
X243587381Y-98027619D01*
X243587381Y-98027619D02*
X243492143Y-97980000D01*
X243492143Y-97980000D02*
X243444524Y-97932380D01*
X243444524Y-97932380D02*
X243396905Y-97837142D01*
X243396905Y-97837142D02*
X243349286Y-97646666D01*
X243349286Y-97646666D02*
X243349286Y-97408571D01*
X243349286Y-97408571D02*
X243396905Y-97218095D01*
X243396905Y-97218095D02*
X243444524Y-97122857D01*
X243444524Y-97122857D02*
X243492143Y-97075238D01*
X243492143Y-97075238D02*
X243587381Y-97027619D01*
X244254048Y-97027619D02*
X244873095Y-97027619D01*
X244873095Y-97027619D02*
X244539762Y-97408571D01*
X244539762Y-97408571D02*
X244682619Y-97408571D01*
X244682619Y-97408571D02*
X244777857Y-97456190D01*
X244777857Y-97456190D02*
X244825476Y-97503809D01*
X244825476Y-97503809D02*
X244873095Y-97599047D01*
X244873095Y-97599047D02*
X244873095Y-97837142D01*
X244873095Y-97837142D02*
X244825476Y-97932380D01*
X244825476Y-97932380D02*
X244777857Y-97980000D01*
X244777857Y-97980000D02*
X244682619Y-98027619D01*
X244682619Y-98027619D02*
X244396905Y-98027619D01*
X244396905Y-98027619D02*
X244301667Y-97980000D01*
X244301667Y-97980000D02*
X244254048Y-97932380D01*
%TO.C,R6*%
X229018333Y-114651619D02*
X228685000Y-114175428D01*
X228446905Y-114651619D02*
X228446905Y-113651619D01*
X228446905Y-113651619D02*
X228827857Y-113651619D01*
X228827857Y-113651619D02*
X228923095Y-113699238D01*
X228923095Y-113699238D02*
X228970714Y-113746857D01*
X228970714Y-113746857D02*
X229018333Y-113842095D01*
X229018333Y-113842095D02*
X229018333Y-113984952D01*
X229018333Y-113984952D02*
X228970714Y-114080190D01*
X228970714Y-114080190D02*
X228923095Y-114127809D01*
X228923095Y-114127809D02*
X228827857Y-114175428D01*
X228827857Y-114175428D02*
X228446905Y-114175428D01*
X229875476Y-113651619D02*
X229685000Y-113651619D01*
X229685000Y-113651619D02*
X229589762Y-113699238D01*
X229589762Y-113699238D02*
X229542143Y-113746857D01*
X229542143Y-113746857D02*
X229446905Y-113889714D01*
X229446905Y-113889714D02*
X229399286Y-114080190D01*
X229399286Y-114080190D02*
X229399286Y-114461142D01*
X229399286Y-114461142D02*
X229446905Y-114556380D01*
X229446905Y-114556380D02*
X229494524Y-114604000D01*
X229494524Y-114604000D02*
X229589762Y-114651619D01*
X229589762Y-114651619D02*
X229780238Y-114651619D01*
X229780238Y-114651619D02*
X229875476Y-114604000D01*
X229875476Y-114604000D02*
X229923095Y-114556380D01*
X229923095Y-114556380D02*
X229970714Y-114461142D01*
X229970714Y-114461142D02*
X229970714Y-114223047D01*
X229970714Y-114223047D02*
X229923095Y-114127809D01*
X229923095Y-114127809D02*
X229875476Y-114080190D01*
X229875476Y-114080190D02*
X229780238Y-114032571D01*
X229780238Y-114032571D02*
X229589762Y-114032571D01*
X229589762Y-114032571D02*
X229494524Y-114080190D01*
X229494524Y-114080190D02*
X229446905Y-114127809D01*
X229446905Y-114127809D02*
X229399286Y-114223047D01*
%TO.C,FB3*%
X245913809Y-93326333D02*
X245913809Y-93659666D01*
X246437619Y-93659666D02*
X245437619Y-93659666D01*
X245437619Y-93659666D02*
X245437619Y-93183476D01*
X245913809Y-92469190D02*
X245961428Y-92326333D01*
X245961428Y-92326333D02*
X246009047Y-92278714D01*
X246009047Y-92278714D02*
X246104285Y-92231095D01*
X246104285Y-92231095D02*
X246247142Y-92231095D01*
X246247142Y-92231095D02*
X246342380Y-92278714D01*
X246342380Y-92278714D02*
X246390000Y-92326333D01*
X246390000Y-92326333D02*
X246437619Y-92421571D01*
X246437619Y-92421571D02*
X246437619Y-92802523D01*
X246437619Y-92802523D02*
X245437619Y-92802523D01*
X245437619Y-92802523D02*
X245437619Y-92469190D01*
X245437619Y-92469190D02*
X245485238Y-92373952D01*
X245485238Y-92373952D02*
X245532857Y-92326333D01*
X245532857Y-92326333D02*
X245628095Y-92278714D01*
X245628095Y-92278714D02*
X245723333Y-92278714D01*
X245723333Y-92278714D02*
X245818571Y-92326333D01*
X245818571Y-92326333D02*
X245866190Y-92373952D01*
X245866190Y-92373952D02*
X245913809Y-92469190D01*
X245913809Y-92469190D02*
X245913809Y-92802523D01*
X245437619Y-91897761D02*
X245437619Y-91278714D01*
X245437619Y-91278714D02*
X245818571Y-91612047D01*
X245818571Y-91612047D02*
X245818571Y-91469190D01*
X245818571Y-91469190D02*
X245866190Y-91373952D01*
X245866190Y-91373952D02*
X245913809Y-91326333D01*
X245913809Y-91326333D02*
X246009047Y-91278714D01*
X246009047Y-91278714D02*
X246247142Y-91278714D01*
X246247142Y-91278714D02*
X246342380Y-91326333D01*
X246342380Y-91326333D02*
X246390000Y-91373952D01*
X246390000Y-91373952D02*
X246437619Y-91469190D01*
X246437619Y-91469190D02*
X246437619Y-91754904D01*
X246437619Y-91754904D02*
X246390000Y-91850142D01*
X246390000Y-91850142D02*
X246342380Y-91897761D01*
%TO.C,U9*%
X240532095Y-73808619D02*
X240532095Y-74618142D01*
X240532095Y-74618142D02*
X240579714Y-74713380D01*
X240579714Y-74713380D02*
X240627333Y-74761000D01*
X240627333Y-74761000D02*
X240722571Y-74808619D01*
X240722571Y-74808619D02*
X240913047Y-74808619D01*
X240913047Y-74808619D02*
X241008285Y-74761000D01*
X241008285Y-74761000D02*
X241055904Y-74713380D01*
X241055904Y-74713380D02*
X241103523Y-74618142D01*
X241103523Y-74618142D02*
X241103523Y-73808619D01*
X241627333Y-74808619D02*
X241817809Y-74808619D01*
X241817809Y-74808619D02*
X241913047Y-74761000D01*
X241913047Y-74761000D02*
X241960666Y-74713380D01*
X241960666Y-74713380D02*
X242055904Y-74570523D01*
X242055904Y-74570523D02*
X242103523Y-74380047D01*
X242103523Y-74380047D02*
X242103523Y-73999095D01*
X242103523Y-73999095D02*
X242055904Y-73903857D01*
X242055904Y-73903857D02*
X242008285Y-73856238D01*
X242008285Y-73856238D02*
X241913047Y-73808619D01*
X241913047Y-73808619D02*
X241722571Y-73808619D01*
X241722571Y-73808619D02*
X241627333Y-73856238D01*
X241627333Y-73856238D02*
X241579714Y-73903857D01*
X241579714Y-73903857D02*
X241532095Y-73999095D01*
X241532095Y-73999095D02*
X241532095Y-74237190D01*
X241532095Y-74237190D02*
X241579714Y-74332428D01*
X241579714Y-74332428D02*
X241627333Y-74380047D01*
X241627333Y-74380047D02*
X241722571Y-74427666D01*
X241722571Y-74427666D02*
X241913047Y-74427666D01*
X241913047Y-74427666D02*
X242008285Y-74380047D01*
X242008285Y-74380047D02*
X242055904Y-74332428D01*
X242055904Y-74332428D02*
X242103523Y-74237190D01*
%TO.C,C5*%
X215768309Y-52998380D02*
X215720690Y-53046000D01*
X215720690Y-53046000D02*
X215577833Y-53093619D01*
X215577833Y-53093619D02*
X215482595Y-53093619D01*
X215482595Y-53093619D02*
X215339738Y-53046000D01*
X215339738Y-53046000D02*
X215244500Y-52950761D01*
X215244500Y-52950761D02*
X215196881Y-52855523D01*
X215196881Y-52855523D02*
X215149262Y-52665047D01*
X215149262Y-52665047D02*
X215149262Y-52522190D01*
X215149262Y-52522190D02*
X215196881Y-52331714D01*
X215196881Y-52331714D02*
X215244500Y-52236476D01*
X215244500Y-52236476D02*
X215339738Y-52141238D01*
X215339738Y-52141238D02*
X215482595Y-52093619D01*
X215482595Y-52093619D02*
X215577833Y-52093619D01*
X215577833Y-52093619D02*
X215720690Y-52141238D01*
X215720690Y-52141238D02*
X215768309Y-52188857D01*
X216673071Y-52093619D02*
X216196881Y-52093619D01*
X216196881Y-52093619D02*
X216149262Y-52569809D01*
X216149262Y-52569809D02*
X216196881Y-52522190D01*
X216196881Y-52522190D02*
X216292119Y-52474571D01*
X216292119Y-52474571D02*
X216530214Y-52474571D01*
X216530214Y-52474571D02*
X216625452Y-52522190D01*
X216625452Y-52522190D02*
X216673071Y-52569809D01*
X216673071Y-52569809D02*
X216720690Y-52665047D01*
X216720690Y-52665047D02*
X216720690Y-52903142D01*
X216720690Y-52903142D02*
X216673071Y-52998380D01*
X216673071Y-52998380D02*
X216625452Y-53046000D01*
X216625452Y-53046000D02*
X216530214Y-53093619D01*
X216530214Y-53093619D02*
X216292119Y-53093619D01*
X216292119Y-53093619D02*
X216196881Y-53046000D01*
X216196881Y-53046000D02*
X216149262Y-52998380D01*
%TO.C,U5*%
X192463095Y-93075619D02*
X192463095Y-93885142D01*
X192463095Y-93885142D02*
X192510714Y-93980380D01*
X192510714Y-93980380D02*
X192558333Y-94028000D01*
X192558333Y-94028000D02*
X192653571Y-94075619D01*
X192653571Y-94075619D02*
X192844047Y-94075619D01*
X192844047Y-94075619D02*
X192939285Y-94028000D01*
X192939285Y-94028000D02*
X192986904Y-93980380D01*
X192986904Y-93980380D02*
X193034523Y-93885142D01*
X193034523Y-93885142D02*
X193034523Y-93075619D01*
X193986904Y-93075619D02*
X193510714Y-93075619D01*
X193510714Y-93075619D02*
X193463095Y-93551809D01*
X193463095Y-93551809D02*
X193510714Y-93504190D01*
X193510714Y-93504190D02*
X193605952Y-93456571D01*
X193605952Y-93456571D02*
X193844047Y-93456571D01*
X193844047Y-93456571D02*
X193939285Y-93504190D01*
X193939285Y-93504190D02*
X193986904Y-93551809D01*
X193986904Y-93551809D02*
X194034523Y-93647047D01*
X194034523Y-93647047D02*
X194034523Y-93885142D01*
X194034523Y-93885142D02*
X193986904Y-93980380D01*
X193986904Y-93980380D02*
X193939285Y-94028000D01*
X193939285Y-94028000D02*
X193844047Y-94075619D01*
X193844047Y-94075619D02*
X193605952Y-94075619D01*
X193605952Y-94075619D02*
X193510714Y-94028000D01*
X193510714Y-94028000D02*
X193463095Y-93980380D01*
%TO.C,R13*%
X202199278Y-105569619D02*
X201865945Y-105093428D01*
X201627850Y-105569619D02*
X201627850Y-104569619D01*
X201627850Y-104569619D02*
X202008802Y-104569619D01*
X202008802Y-104569619D02*
X202104040Y-104617238D01*
X202104040Y-104617238D02*
X202151659Y-104664857D01*
X202151659Y-104664857D02*
X202199278Y-104760095D01*
X202199278Y-104760095D02*
X202199278Y-104902952D01*
X202199278Y-104902952D02*
X202151659Y-104998190D01*
X202151659Y-104998190D02*
X202104040Y-105045809D01*
X202104040Y-105045809D02*
X202008802Y-105093428D01*
X202008802Y-105093428D02*
X201627850Y-105093428D01*
X203151659Y-105569619D02*
X202580231Y-105569619D01*
X202865945Y-105569619D02*
X202865945Y-104569619D01*
X202865945Y-104569619D02*
X202770707Y-104712476D01*
X202770707Y-104712476D02*
X202675469Y-104807714D01*
X202675469Y-104807714D02*
X202580231Y-104855333D01*
X203484993Y-104569619D02*
X204104040Y-104569619D01*
X204104040Y-104569619D02*
X203770707Y-104950571D01*
X203770707Y-104950571D02*
X203913564Y-104950571D01*
X203913564Y-104950571D02*
X204008802Y-104998190D01*
X204008802Y-104998190D02*
X204056421Y-105045809D01*
X204056421Y-105045809D02*
X204104040Y-105141047D01*
X204104040Y-105141047D02*
X204104040Y-105379142D01*
X204104040Y-105379142D02*
X204056421Y-105474380D01*
X204056421Y-105474380D02*
X204008802Y-105522000D01*
X204008802Y-105522000D02*
X203913564Y-105569619D01*
X203913564Y-105569619D02*
X203627850Y-105569619D01*
X203627850Y-105569619D02*
X203532612Y-105522000D01*
X203532612Y-105522000D02*
X203484993Y-105474380D01*
%TO.C,J1*%
X234319619Y-49460333D02*
X235033904Y-49460333D01*
X235033904Y-49460333D02*
X235176761Y-49507952D01*
X235176761Y-49507952D02*
X235272000Y-49603190D01*
X235272000Y-49603190D02*
X235319619Y-49746047D01*
X235319619Y-49746047D02*
X235319619Y-49841285D01*
X235319619Y-48460333D02*
X235319619Y-49031761D01*
X235319619Y-48746047D02*
X234319619Y-48746047D01*
X234319619Y-48746047D02*
X234462476Y-48841285D01*
X234462476Y-48841285D02*
X234557714Y-48936523D01*
X234557714Y-48936523D02*
X234605333Y-49031761D01*
%TO.C,C2*%
X231731380Y-74796666D02*
X231779000Y-74844285D01*
X231779000Y-74844285D02*
X231826619Y-74987142D01*
X231826619Y-74987142D02*
X231826619Y-75082380D01*
X231826619Y-75082380D02*
X231779000Y-75225237D01*
X231779000Y-75225237D02*
X231683761Y-75320475D01*
X231683761Y-75320475D02*
X231588523Y-75368094D01*
X231588523Y-75368094D02*
X231398047Y-75415713D01*
X231398047Y-75415713D02*
X231255190Y-75415713D01*
X231255190Y-75415713D02*
X231064714Y-75368094D01*
X231064714Y-75368094D02*
X230969476Y-75320475D01*
X230969476Y-75320475D02*
X230874238Y-75225237D01*
X230874238Y-75225237D02*
X230826619Y-75082380D01*
X230826619Y-75082380D02*
X230826619Y-74987142D01*
X230826619Y-74987142D02*
X230874238Y-74844285D01*
X230874238Y-74844285D02*
X230921857Y-74796666D01*
X230921857Y-74415713D02*
X230874238Y-74368094D01*
X230874238Y-74368094D02*
X230826619Y-74272856D01*
X230826619Y-74272856D02*
X230826619Y-74034761D01*
X230826619Y-74034761D02*
X230874238Y-73939523D01*
X230874238Y-73939523D02*
X230921857Y-73891904D01*
X230921857Y-73891904D02*
X231017095Y-73844285D01*
X231017095Y-73844285D02*
X231112333Y-73844285D01*
X231112333Y-73844285D02*
X231255190Y-73891904D01*
X231255190Y-73891904D02*
X231826619Y-74463332D01*
X231826619Y-74463332D02*
X231826619Y-73844285D01*
%TO.C,J2*%
X229425619Y-49308333D02*
X230139904Y-49308333D01*
X230139904Y-49308333D02*
X230282761Y-49355952D01*
X230282761Y-49355952D02*
X230378000Y-49451190D01*
X230378000Y-49451190D02*
X230425619Y-49594047D01*
X230425619Y-49594047D02*
X230425619Y-49689285D01*
X229520857Y-48879761D02*
X229473238Y-48832142D01*
X229473238Y-48832142D02*
X229425619Y-48736904D01*
X229425619Y-48736904D02*
X229425619Y-48498809D01*
X229425619Y-48498809D02*
X229473238Y-48403571D01*
X229473238Y-48403571D02*
X229520857Y-48355952D01*
X229520857Y-48355952D02*
X229616095Y-48308333D01*
X229616095Y-48308333D02*
X229711333Y-48308333D01*
X229711333Y-48308333D02*
X229854190Y-48355952D01*
X229854190Y-48355952D02*
X230425619Y-48927380D01*
X230425619Y-48927380D02*
X230425619Y-48308333D01*
%TO.C,J3*%
X221405619Y-114934333D02*
X222119904Y-114934333D01*
X222119904Y-114934333D02*
X222262761Y-114981952D01*
X222262761Y-114981952D02*
X222358000Y-115077190D01*
X222358000Y-115077190D02*
X222405619Y-115220047D01*
X222405619Y-115220047D02*
X222405619Y-115315285D01*
X221405619Y-114553380D02*
X221405619Y-113934333D01*
X221405619Y-113934333D02*
X221786571Y-114267666D01*
X221786571Y-114267666D02*
X221786571Y-114124809D01*
X221786571Y-114124809D02*
X221834190Y-114029571D01*
X221834190Y-114029571D02*
X221881809Y-113981952D01*
X221881809Y-113981952D02*
X221977047Y-113934333D01*
X221977047Y-113934333D02*
X222215142Y-113934333D01*
X222215142Y-113934333D02*
X222310380Y-113981952D01*
X222310380Y-113981952D02*
X222358000Y-114029571D01*
X222358000Y-114029571D02*
X222405619Y-114124809D01*
X222405619Y-114124809D02*
X222405619Y-114410523D01*
X222405619Y-114410523D02*
X222358000Y-114505761D01*
X222358000Y-114505761D02*
X222310380Y-114553380D01*
%TO.C,R26*%
X223672142Y-113525619D02*
X223338809Y-113049428D01*
X223100714Y-113525619D02*
X223100714Y-112525619D01*
X223100714Y-112525619D02*
X223481666Y-112525619D01*
X223481666Y-112525619D02*
X223576904Y-112573238D01*
X223576904Y-112573238D02*
X223624523Y-112620857D01*
X223624523Y-112620857D02*
X223672142Y-112716095D01*
X223672142Y-112716095D02*
X223672142Y-112858952D01*
X223672142Y-112858952D02*
X223624523Y-112954190D01*
X223624523Y-112954190D02*
X223576904Y-113001809D01*
X223576904Y-113001809D02*
X223481666Y-113049428D01*
X223481666Y-113049428D02*
X223100714Y-113049428D01*
X224053095Y-112620857D02*
X224100714Y-112573238D01*
X224100714Y-112573238D02*
X224195952Y-112525619D01*
X224195952Y-112525619D02*
X224434047Y-112525619D01*
X224434047Y-112525619D02*
X224529285Y-112573238D01*
X224529285Y-112573238D02*
X224576904Y-112620857D01*
X224576904Y-112620857D02*
X224624523Y-112716095D01*
X224624523Y-112716095D02*
X224624523Y-112811333D01*
X224624523Y-112811333D02*
X224576904Y-112954190D01*
X224576904Y-112954190D02*
X224005476Y-113525619D01*
X224005476Y-113525619D02*
X224624523Y-113525619D01*
X225481666Y-112525619D02*
X225291190Y-112525619D01*
X225291190Y-112525619D02*
X225195952Y-112573238D01*
X225195952Y-112573238D02*
X225148333Y-112620857D01*
X225148333Y-112620857D02*
X225053095Y-112763714D01*
X225053095Y-112763714D02*
X225005476Y-112954190D01*
X225005476Y-112954190D02*
X225005476Y-113335142D01*
X225005476Y-113335142D02*
X225053095Y-113430380D01*
X225053095Y-113430380D02*
X225100714Y-113478000D01*
X225100714Y-113478000D02*
X225195952Y-113525619D01*
X225195952Y-113525619D02*
X225386428Y-113525619D01*
X225386428Y-113525619D02*
X225481666Y-113478000D01*
X225481666Y-113478000D02*
X225529285Y-113430380D01*
X225529285Y-113430380D02*
X225576904Y-113335142D01*
X225576904Y-113335142D02*
X225576904Y-113097047D01*
X225576904Y-113097047D02*
X225529285Y-113001809D01*
X225529285Y-113001809D02*
X225481666Y-112954190D01*
X225481666Y-112954190D02*
X225386428Y-112906571D01*
X225386428Y-112906571D02*
X225195952Y-112906571D01*
X225195952Y-112906571D02*
X225100714Y-112954190D01*
X225100714Y-112954190D02*
X225053095Y-113001809D01*
X225053095Y-113001809D02*
X225005476Y-113097047D01*
%TO.C,C90*%
X228734142Y-105326380D02*
X228686523Y-105374000D01*
X228686523Y-105374000D02*
X228543666Y-105421619D01*
X228543666Y-105421619D02*
X228448428Y-105421619D01*
X228448428Y-105421619D02*
X228305571Y-105374000D01*
X228305571Y-105374000D02*
X228210333Y-105278761D01*
X228210333Y-105278761D02*
X228162714Y-105183523D01*
X228162714Y-105183523D02*
X228115095Y-104993047D01*
X228115095Y-104993047D02*
X228115095Y-104850190D01*
X228115095Y-104850190D02*
X228162714Y-104659714D01*
X228162714Y-104659714D02*
X228210333Y-104564476D01*
X228210333Y-104564476D02*
X228305571Y-104469238D01*
X228305571Y-104469238D02*
X228448428Y-104421619D01*
X228448428Y-104421619D02*
X228543666Y-104421619D01*
X228543666Y-104421619D02*
X228686523Y-104469238D01*
X228686523Y-104469238D02*
X228734142Y-104516857D01*
X229210333Y-105421619D02*
X229400809Y-105421619D01*
X229400809Y-105421619D02*
X229496047Y-105374000D01*
X229496047Y-105374000D02*
X229543666Y-105326380D01*
X229543666Y-105326380D02*
X229638904Y-105183523D01*
X229638904Y-105183523D02*
X229686523Y-104993047D01*
X229686523Y-104993047D02*
X229686523Y-104612095D01*
X229686523Y-104612095D02*
X229638904Y-104516857D01*
X229638904Y-104516857D02*
X229591285Y-104469238D01*
X229591285Y-104469238D02*
X229496047Y-104421619D01*
X229496047Y-104421619D02*
X229305571Y-104421619D01*
X229305571Y-104421619D02*
X229210333Y-104469238D01*
X229210333Y-104469238D02*
X229162714Y-104516857D01*
X229162714Y-104516857D02*
X229115095Y-104612095D01*
X229115095Y-104612095D02*
X229115095Y-104850190D01*
X229115095Y-104850190D02*
X229162714Y-104945428D01*
X229162714Y-104945428D02*
X229210333Y-104993047D01*
X229210333Y-104993047D02*
X229305571Y-105040666D01*
X229305571Y-105040666D02*
X229496047Y-105040666D01*
X229496047Y-105040666D02*
X229591285Y-104993047D01*
X229591285Y-104993047D02*
X229638904Y-104945428D01*
X229638904Y-104945428D02*
X229686523Y-104850190D01*
X230305571Y-104421619D02*
X230400809Y-104421619D01*
X230400809Y-104421619D02*
X230496047Y-104469238D01*
X230496047Y-104469238D02*
X230543666Y-104516857D01*
X230543666Y-104516857D02*
X230591285Y-104612095D01*
X230591285Y-104612095D02*
X230638904Y-104802571D01*
X230638904Y-104802571D02*
X230638904Y-105040666D01*
X230638904Y-105040666D02*
X230591285Y-105231142D01*
X230591285Y-105231142D02*
X230543666Y-105326380D01*
X230543666Y-105326380D02*
X230496047Y-105374000D01*
X230496047Y-105374000D02*
X230400809Y-105421619D01*
X230400809Y-105421619D02*
X230305571Y-105421619D01*
X230305571Y-105421619D02*
X230210333Y-105374000D01*
X230210333Y-105374000D02*
X230162714Y-105326380D01*
X230162714Y-105326380D02*
X230115095Y-105231142D01*
X230115095Y-105231142D02*
X230067476Y-105040666D01*
X230067476Y-105040666D02*
X230067476Y-104802571D01*
X230067476Y-104802571D02*
X230115095Y-104612095D01*
X230115095Y-104612095D02*
X230162714Y-104516857D01*
X230162714Y-104516857D02*
X230210333Y-104469238D01*
X230210333Y-104469238D02*
X230305571Y-104421619D01*
D11*
%TO.C,Y2*%
X196642500Y-71034000D02*
X192342500Y-71034000D01*
X192342500Y-71034000D02*
X192342500Y-76434000D01*
%TO.C,C39*%
X202998113Y-101997000D02*
X202705579Y-101997000D01*
X202998113Y-100977000D02*
X202705579Y-100977000D01*
%TO.C,C8*%
X224103267Y-55197000D02*
X223810733Y-55197000D01*
X224103267Y-54177000D02*
X223810733Y-54177000D01*
%TO.C,R14*%
X206703936Y-102722000D02*
X207158064Y-102722000D01*
X206703936Y-104192000D02*
X207158064Y-104192000D01*
%TO.C,C18*%
X219443000Y-110169267D02*
X219443000Y-109876733D01*
X220463000Y-110169267D02*
X220463000Y-109876733D01*
%TO.C,C38*%
X200469568Y-106392733D02*
X200469568Y-106685267D01*
X199449568Y-106392733D02*
X199449568Y-106685267D01*
%TO.C,C35*%
X197349000Y-61971267D02*
X197349000Y-61678733D01*
X198369000Y-61971267D02*
X198369000Y-61678733D01*
%TO.C,C43*%
X211005000Y-114178733D02*
X211005000Y-114471267D01*
X209985000Y-114178733D02*
X209985000Y-114471267D01*
%TO.C,U3*%
X248147000Y-57891000D02*
X243506000Y-57891000D01*
X248147000Y-57891000D02*
X248147000Y-68131000D01*
X246637000Y-57891000D02*
X246637000Y-68131000D01*
X243506000Y-57891000D02*
X243506000Y-68131000D01*
X248147000Y-61161000D02*
X246637000Y-61161000D01*
X248147000Y-64862000D02*
X246637000Y-64862000D01*
X248147000Y-68131000D02*
X243506000Y-68131000D01*
%TO.C,C20*%
X229531267Y-108931000D02*
X229238733Y-108931000D01*
X229531267Y-107911000D02*
X229238733Y-107911000D01*
%TO.C,C69*%
X243282252Y-89792000D02*
X242759748Y-89792000D01*
X243282252Y-88322000D02*
X242759748Y-88322000D01*
%TO.C,C23*%
X206877267Y-99965000D02*
X206584733Y-99965000D01*
X206877267Y-98945000D02*
X206584733Y-98945000D01*
%TO.C,R4*%
X233125936Y-109578000D02*
X233580064Y-109578000D01*
X233125936Y-111048000D02*
X233580064Y-111048000D01*
%TO.C,U6*%
X243475000Y-98745000D02*
X243475000Y-102345000D01*
X247925000Y-100545000D02*
G75*
G03*
X243486522Y-98706522I-2600000J0D01*
G01*
X243486522Y-102383478D02*
G75*
G03*
X247925000Y-100545000I1838478J1838478D01*
G01*
%TO.C,C81*%
X225333000Y-89197267D02*
X225333000Y-88904733D01*
X226353000Y-89197267D02*
X226353000Y-88904733D01*
%TO.C,U2*%
X205147000Y-110716000D02*
X208597000Y-110716000D01*
X205147000Y-110716000D02*
X203197000Y-110716000D01*
X205147000Y-105446000D02*
X207097000Y-105446000D01*
X205147000Y-105446000D02*
X203197000Y-105446000D01*
%TO.C,C58*%
X229865000Y-68790733D02*
X229865000Y-69083267D01*
X228845000Y-68790733D02*
X228845000Y-69083267D01*
%TO.C,U4*%
X226748000Y-105609000D02*
X226748000Y-102159000D01*
X226748000Y-105609000D02*
X226748000Y-107559000D01*
X221478000Y-105609000D02*
X221478000Y-103659000D01*
X221478000Y-105609000D02*
X221478000Y-107559000D01*
%TO.C,D5*%
X236010000Y-75284000D02*
X233740000Y-75284000D01*
X233740000Y-75284000D02*
X233740000Y-79344000D01*
X236010000Y-79344000D02*
X236010000Y-75284000D01*
%TO.C,C27*%
X185543267Y-98875000D02*
X185250733Y-98875000D01*
X185543267Y-97855000D02*
X185250733Y-97855000D01*
%TO.C,C30*%
X194902733Y-102965000D02*
X195195267Y-102965000D01*
X194902733Y-103985000D02*
X195195267Y-103985000D01*
%TO.C,C22*%
X202932421Y-99965000D02*
X202639887Y-99965000D01*
X202932421Y-98945000D02*
X202639887Y-98945000D01*
%TO.C,J4*%
X231127000Y-47739000D02*
X232457000Y-47739000D01*
X231127000Y-49069000D02*
X231127000Y-47739000D01*
X231127000Y-50339000D02*
X231127000Y-50399000D01*
X231127000Y-50339000D02*
X233787000Y-50339000D01*
X231127000Y-50399000D02*
X233787000Y-50399000D01*
X233787000Y-50339000D02*
X233787000Y-50399000D01*
%TO.C,C48*%
X247045000Y-95913743D02*
X247045000Y-95621209D01*
X248065000Y-95913743D02*
X248065000Y-95621209D01*
%TO.C,U1*%
X202012000Y-57486000D02*
X202012000Y-58436000D01*
X202012000Y-58436000D02*
X200697000Y-58436000D01*
X202012000Y-81706000D02*
X202012000Y-80756000D01*
X202962000Y-57486000D02*
X202012000Y-57486000D01*
X202962000Y-81706000D02*
X202012000Y-81706000D01*
X225282000Y-57486000D02*
X226232000Y-57486000D01*
X225282000Y-81706000D02*
X226232000Y-81706000D01*
X226232000Y-57486000D02*
X226232000Y-58436000D01*
X226232000Y-81706000D02*
X226232000Y-80756000D01*
%TO.C,J5*%
X191409000Y-50305000D02*
X191409000Y-48975000D01*
X192739000Y-50305000D02*
X191409000Y-50305000D01*
X194009000Y-50305000D02*
X216929000Y-50305000D01*
X194009000Y-50305000D02*
X194009000Y-47645000D01*
X216929000Y-50305000D02*
X216929000Y-47645000D01*
X194009000Y-47645000D02*
X216929000Y-47645000D01*
%TO.C,C31*%
X197167000Y-72377267D02*
X197167000Y-72084733D01*
X198187000Y-72377267D02*
X198187000Y-72084733D01*
%TO.C,D3*%
X242072000Y-97521000D02*
X239802000Y-97521000D01*
X239802000Y-97521000D02*
X239802000Y-101581000D01*
X242072000Y-101581000D02*
X242072000Y-97521000D01*
%TO.C,C37*%
X198187000Y-75394067D02*
X198187000Y-75686601D01*
X197167000Y-75394067D02*
X197167000Y-75686601D01*
%TO.C,C78*%
X229353000Y-78735267D02*
X229353000Y-78442733D01*
X230373000Y-78735267D02*
X230373000Y-78442733D01*
%TO.C,C89*%
X199403000Y-110375267D02*
X199403000Y-110082733D01*
X200423000Y-110375267D02*
X200423000Y-110082733D01*
%TO.C,R1*%
X210100936Y-53621000D02*
X210555064Y-53621000D01*
X210100936Y-55091000D02*
X210555064Y-55091000D01*
%TO.C,R17*%
X202176284Y-114352064D02*
X202176284Y-113897936D01*
X203646284Y-114352064D02*
X203646284Y-113897936D01*
%TO.C,R8*%
X217779936Y-105006000D02*
X218234064Y-105006000D01*
X217779936Y-106476000D02*
X218234064Y-106476000D01*
%TO.C,R27*%
X206766000Y-96414516D02*
X206766000Y-96868644D01*
X205296000Y-96414516D02*
X205296000Y-96868644D01*
%TO.C,R32*%
X206703936Y-100786000D02*
X207158064Y-100786000D01*
X206703936Y-102256000D02*
X207158064Y-102256000D01*
%TO.C,R5*%
X228957936Y-109616000D02*
X229412064Y-109616000D01*
X228957936Y-111086000D02*
X229412064Y-111086000D01*
%TO.C,C60*%
X230128733Y-71335000D02*
X230421267Y-71335000D01*
X230128733Y-72355000D02*
X230421267Y-72355000D01*
%TO.C,R18*%
X207519142Y-114352064D02*
X207519142Y-113897936D01*
X208989142Y-114352064D02*
X208989142Y-113897936D01*
%TO.C,C19*%
X229531267Y-115329000D02*
X229238733Y-115329000D01*
X229531267Y-114309000D02*
X229238733Y-114309000D01*
%TO.C,FB4*%
X186964500Y-92208276D02*
X186964500Y-92717724D01*
X185919500Y-92208276D02*
X185919500Y-92717724D01*
%TO.C,C73*%
X233299267Y-113043000D02*
X233006733Y-113043000D01*
X233299267Y-112023000D02*
X233006733Y-112023000D01*
%TO.C,R7*%
X224542064Y-111398000D02*
X224087936Y-111398000D01*
X224542064Y-109928000D02*
X224087936Y-109928000D01*
%TO.C,D7*%
X195358000Y-112737000D02*
X199158000Y-112737000D01*
X195358000Y-115537000D02*
X195358000Y-114787000D01*
X195358000Y-115537000D02*
X199158000Y-115537000D01*
%TO.C,R31*%
X199004568Y-102440910D02*
X199004568Y-101986782D01*
X200474568Y-102440910D02*
X200474568Y-101986782D01*
%TO.C,C24*%
X217981267Y-104269000D02*
X217688733Y-104269000D01*
X217981267Y-103249000D02*
X217688733Y-103249000D01*
%TO.C,R11*%
X218126000Y-109947936D02*
X218126000Y-110402064D01*
X216656000Y-109947936D02*
X216656000Y-110402064D01*
%TO.C,C3*%
X229865000Y-65234733D02*
X229865000Y-65527267D01*
X228845000Y-65234733D02*
X228845000Y-65527267D01*
%TO.C,C21*%
X223968733Y-112199000D02*
X224261267Y-112199000D01*
X223968733Y-113219000D02*
X224261267Y-113219000D01*
%TO.C,SW1*%
X192599000Y-83193000D02*
X192599000Y-83593000D01*
X192599000Y-83193000D02*
X197339000Y-83193000D01*
X192599000Y-86593000D02*
X192599000Y-84533000D01*
X192599000Y-87933000D02*
X192599000Y-87533000D01*
X192599000Y-87933000D02*
X197339000Y-87933000D01*
X197339000Y-83193000D02*
X197339000Y-83593000D01*
X197339000Y-86593000D02*
X197339000Y-84533000D01*
X197339000Y-87933000D02*
X197339000Y-87533000D01*
%TO.C,C104*%
X186703252Y-90060000D02*
X186180748Y-90060000D01*
X186703252Y-88590000D02*
X186180748Y-88590000D01*
%TO.C,C12*%
X201095000Y-54507267D02*
X201095000Y-54214733D01*
X202115000Y-54507267D02*
X202115000Y-54214733D01*
%TO.C,J6*%
X187559000Y-85893000D02*
X186229000Y-85893000D01*
X187559000Y-84563000D02*
X187559000Y-85893000D01*
X187559000Y-83293000D02*
X187559000Y-78153000D01*
X187559000Y-83293000D02*
X184899000Y-83293000D01*
X187559000Y-78153000D02*
X184899000Y-78153000D01*
X184899000Y-83293000D02*
X184899000Y-78153000D01*
%TO.C,7660S1*%
X241489000Y-107091000D02*
X241489000Y-103641000D01*
X241489000Y-107091000D02*
X241489000Y-109041000D01*
X236369000Y-107091000D02*
X236369000Y-105141000D01*
X236369000Y-107091000D02*
X236369000Y-109041000D01*
%TO.C,C1*%
X204939252Y-54985000D02*
X204416748Y-54985000D01*
X204939252Y-53515000D02*
X204416748Y-53515000D01*
%TO.C,J7*%
X187559000Y-76785000D02*
X186229000Y-76785000D01*
X187559000Y-75455000D02*
X187559000Y-76785000D01*
X187559000Y-74185000D02*
X187559000Y-56345000D01*
X187559000Y-74185000D02*
X184899000Y-74185000D01*
X187559000Y-56345000D02*
X184899000Y-56345000D01*
X184899000Y-74185000D02*
X184899000Y-56345000D01*
%TO.C,U11*%
X222508000Y-99070000D02*
X222508000Y-98120000D01*
X222508000Y-98120000D02*
X223848000Y-98120000D01*
X222508000Y-88850000D02*
X222508000Y-89800000D01*
X221558000Y-99070000D02*
X222508000Y-99070000D01*
X221558000Y-88850000D02*
X222508000Y-88850000D01*
X213238000Y-99070000D02*
X212288000Y-99070000D01*
X213238000Y-88850000D02*
X212288000Y-88850000D01*
X212288000Y-99070000D02*
X212288000Y-98120000D01*
X212288000Y-88850000D02*
X212288000Y-89800000D01*
%TO.C,R28*%
X193844000Y-114213936D02*
X193844000Y-114668064D01*
X192374000Y-114213936D02*
X192374000Y-114668064D01*
%TO.C,C42*%
X204737426Y-114356252D02*
X204737426Y-113833748D01*
X206207426Y-114356252D02*
X206207426Y-113833748D01*
%TO.C,R30*%
X204221154Y-96371936D02*
X204221154Y-96826064D01*
X202751154Y-96371936D02*
X202751154Y-96826064D01*
%TO.C,C105*%
X185687252Y-96186000D02*
X185164748Y-96186000D01*
X185687252Y-94716000D02*
X185164748Y-94716000D01*
%TO.C,C51*%
X215808733Y-101441000D02*
X216101267Y-101441000D01*
X215808733Y-102461000D02*
X216101267Y-102461000D01*
%TO.C,R9*%
X213950064Y-106476000D02*
X213495936Y-106476000D01*
X213950064Y-105006000D02*
X213495936Y-105006000D01*
%TO.C,C50*%
X214069267Y-104269000D02*
X213776733Y-104269000D01*
X214069267Y-103249000D02*
X213776733Y-103249000D01*
%TO.C,C75*%
X244491267Y-104973000D02*
X244198733Y-104973000D01*
X244491267Y-103953000D02*
X244198733Y-103953000D01*
%TO.C,C103*%
X243396252Y-96620000D02*
X242873748Y-96620000D01*
X243396252Y-95150000D02*
X242873748Y-95150000D01*
%TO.C,R6*%
X229412064Y-113274000D02*
X228957936Y-113274000D01*
X229412064Y-111804000D02*
X228957936Y-111804000D01*
%TO.C,FB3*%
X245067500Y-92238276D02*
X245067500Y-92747724D01*
X244022500Y-92238276D02*
X244022500Y-92747724D01*
%TO.C,U9*%
X237194000Y-75436000D02*
X243204000Y-75436000D01*
X239444000Y-82256000D02*
X243204000Y-82256000D01*
X243204000Y-75436000D02*
X243204000Y-76696000D01*
X243204000Y-82256000D02*
X243204000Y-80996000D01*
%TO.C,C5*%
X215788709Y-53551000D02*
X216081243Y-53551000D01*
X215788709Y-54571000D02*
X216081243Y-54571000D01*
%TO.C,U5*%
X189125000Y-94703000D02*
X195135000Y-94703000D01*
X191375000Y-101523000D02*
X195135000Y-101523000D01*
X195135000Y-94703000D02*
X195135000Y-95963000D01*
X195135000Y-101523000D02*
X195135000Y-100263000D01*
%TO.C,R13*%
X203069200Y-104192000D02*
X202615072Y-104192000D01*
X203069200Y-102722000D02*
X202615072Y-102722000D01*
%TO.C,J1*%
X235857000Y-50457000D02*
X235857000Y-49127000D01*
X237187000Y-50457000D02*
X235857000Y-50457000D01*
X238457000Y-50457000D02*
X241057000Y-50457000D01*
X238457000Y-50457000D02*
X238457000Y-47797000D01*
X241057000Y-50457000D02*
X241057000Y-47797000D01*
X238457000Y-47797000D02*
X241057000Y-47797000D01*
%TO.C,C2*%
X230419000Y-74368748D02*
X230419000Y-74891252D01*
X228949000Y-74368748D02*
X228949000Y-74891252D01*
%TO.C,J2*%
X228963000Y-47645000D02*
X228963000Y-48975000D01*
X227633000Y-47645000D02*
X228963000Y-47645000D01*
X226363000Y-47645000D02*
X218683000Y-47645000D01*
X226363000Y-47645000D02*
X226363000Y-50305000D01*
X218683000Y-47645000D02*
X218683000Y-50305000D01*
X226363000Y-50305000D02*
X218683000Y-50305000D01*
%TO.C,J3*%
X220943000Y-113271000D02*
X220943000Y-114601000D01*
X219613000Y-113271000D02*
X220943000Y-113271000D01*
X218343000Y-113271000D02*
X213203000Y-113271000D01*
X218343000Y-113271000D02*
X218343000Y-115931000D01*
X213203000Y-113271000D02*
X213203000Y-115931000D01*
X218343000Y-115931000D02*
X213203000Y-115931000D01*
%TO.C,R26*%
X224087936Y-113978000D02*
X224542064Y-113978000D01*
X224087936Y-115448000D02*
X224542064Y-115448000D01*
%TO.C,C90*%
X229230733Y-105879000D02*
X229523267Y-105879000D01*
X229230733Y-106899000D02*
X229523267Y-106899000D01*
%TD*%
M02*
