%TF.GenerationSoftware,KiCad,Pcbnew,7.0.2*%
%TF.CreationDate,2023-11-02T10:17:44+01:00*%
%TF.ProjectId,stm_audio_board_V2,73746d5f-6175-4646-996f-5f626f617264,rev?*%
%TF.SameCoordinates,Original*%
%TF.FileFunction,Legend,Bot*%
%TF.FilePolarity,Positive*%
%FSLAX46Y46*%
G04 Gerber Fmt 4.6, Leading zero omitted, Abs format (unit mm)*
G04 Created by KiCad (PCBNEW 7.0.2) date 2023-11-02 10:17:44*
%MOMM*%
%LPD*%
G01*
G04 APERTURE LIST*
%ADD10C,0.150000*%
%ADD11C,0.120000*%
G04 APERTURE END LIST*
D10*
%TO.C,C25*%
X219480380Y-103458166D02*
X219528000Y-103410547D01*
X219528000Y-103410547D02*
X219575619Y-103267690D01*
X219575619Y-103267690D02*
X219575619Y-103172452D01*
X219575619Y-103172452D02*
X219528000Y-103029595D01*
X219528000Y-103029595D02*
X219432761Y-102934357D01*
X219432761Y-102934357D02*
X219337523Y-102886738D01*
X219337523Y-102886738D02*
X219147047Y-102839119D01*
X219147047Y-102839119D02*
X219004190Y-102839119D01*
X219004190Y-102839119D02*
X218813714Y-102886738D01*
X218813714Y-102886738D02*
X218718476Y-102934357D01*
X218718476Y-102934357D02*
X218623238Y-103029595D01*
X218623238Y-103029595D02*
X218575619Y-103172452D01*
X218575619Y-103172452D02*
X218575619Y-103267690D01*
X218575619Y-103267690D02*
X218623238Y-103410547D01*
X218623238Y-103410547D02*
X218670857Y-103458166D01*
X218670857Y-103839119D02*
X218623238Y-103886738D01*
X218623238Y-103886738D02*
X218575619Y-103981976D01*
X218575619Y-103981976D02*
X218575619Y-104220071D01*
X218575619Y-104220071D02*
X218623238Y-104315309D01*
X218623238Y-104315309D02*
X218670857Y-104362928D01*
X218670857Y-104362928D02*
X218766095Y-104410547D01*
X218766095Y-104410547D02*
X218861333Y-104410547D01*
X218861333Y-104410547D02*
X219004190Y-104362928D01*
X219004190Y-104362928D02*
X219575619Y-103791500D01*
X219575619Y-103791500D02*
X219575619Y-104410547D01*
X218575619Y-105315309D02*
X218575619Y-104839119D01*
X218575619Y-104839119D02*
X219051809Y-104791500D01*
X219051809Y-104791500D02*
X219004190Y-104839119D01*
X219004190Y-104839119D02*
X218956571Y-104934357D01*
X218956571Y-104934357D02*
X218956571Y-105172452D01*
X218956571Y-105172452D02*
X219004190Y-105267690D01*
X219004190Y-105267690D02*
X219051809Y-105315309D01*
X219051809Y-105315309D02*
X219147047Y-105362928D01*
X219147047Y-105362928D02*
X219385142Y-105362928D01*
X219385142Y-105362928D02*
X219480380Y-105315309D01*
X219480380Y-105315309D02*
X219528000Y-105267690D01*
X219528000Y-105267690D02*
X219575619Y-105172452D01*
X219575619Y-105172452D02*
X219575619Y-104934357D01*
X219575619Y-104934357D02*
X219528000Y-104839119D01*
X219528000Y-104839119D02*
X219480380Y-104791500D01*
%TO.C,C54*%
X190819857Y-69682380D02*
X190867476Y-69730000D01*
X190867476Y-69730000D02*
X191010333Y-69777619D01*
X191010333Y-69777619D02*
X191105571Y-69777619D01*
X191105571Y-69777619D02*
X191248428Y-69730000D01*
X191248428Y-69730000D02*
X191343666Y-69634761D01*
X191343666Y-69634761D02*
X191391285Y-69539523D01*
X191391285Y-69539523D02*
X191438904Y-69349047D01*
X191438904Y-69349047D02*
X191438904Y-69206190D01*
X191438904Y-69206190D02*
X191391285Y-69015714D01*
X191391285Y-69015714D02*
X191343666Y-68920476D01*
X191343666Y-68920476D02*
X191248428Y-68825238D01*
X191248428Y-68825238D02*
X191105571Y-68777619D01*
X191105571Y-68777619D02*
X191010333Y-68777619D01*
X191010333Y-68777619D02*
X190867476Y-68825238D01*
X190867476Y-68825238D02*
X190819857Y-68872857D01*
X189915095Y-68777619D02*
X190391285Y-68777619D01*
X190391285Y-68777619D02*
X190438904Y-69253809D01*
X190438904Y-69253809D02*
X190391285Y-69206190D01*
X190391285Y-69206190D02*
X190296047Y-69158571D01*
X190296047Y-69158571D02*
X190057952Y-69158571D01*
X190057952Y-69158571D02*
X189962714Y-69206190D01*
X189962714Y-69206190D02*
X189915095Y-69253809D01*
X189915095Y-69253809D02*
X189867476Y-69349047D01*
X189867476Y-69349047D02*
X189867476Y-69587142D01*
X189867476Y-69587142D02*
X189915095Y-69682380D01*
X189915095Y-69682380D02*
X189962714Y-69730000D01*
X189962714Y-69730000D02*
X190057952Y-69777619D01*
X190057952Y-69777619D02*
X190296047Y-69777619D01*
X190296047Y-69777619D02*
X190391285Y-69730000D01*
X190391285Y-69730000D02*
X190438904Y-69682380D01*
X189010333Y-69110952D02*
X189010333Y-69777619D01*
X189248428Y-68730000D02*
X189486523Y-69444285D01*
X189486523Y-69444285D02*
X188867476Y-69444285D01*
%TO.C,C7*%
X199594380Y-83074333D02*
X199642000Y-83026714D01*
X199642000Y-83026714D02*
X199689619Y-82883857D01*
X199689619Y-82883857D02*
X199689619Y-82788619D01*
X199689619Y-82788619D02*
X199642000Y-82645762D01*
X199642000Y-82645762D02*
X199546761Y-82550524D01*
X199546761Y-82550524D02*
X199451523Y-82502905D01*
X199451523Y-82502905D02*
X199261047Y-82455286D01*
X199261047Y-82455286D02*
X199118190Y-82455286D01*
X199118190Y-82455286D02*
X198927714Y-82502905D01*
X198927714Y-82502905D02*
X198832476Y-82550524D01*
X198832476Y-82550524D02*
X198737238Y-82645762D01*
X198737238Y-82645762D02*
X198689619Y-82788619D01*
X198689619Y-82788619D02*
X198689619Y-82883857D01*
X198689619Y-82883857D02*
X198737238Y-83026714D01*
X198737238Y-83026714D02*
X198784857Y-83074333D01*
X198689619Y-83407667D02*
X198689619Y-84074333D01*
X198689619Y-84074333D02*
X199689619Y-83645762D01*
%TO.C,C15*%
X240615857Y-60850380D02*
X240663476Y-60898000D01*
X240663476Y-60898000D02*
X240806333Y-60945619D01*
X240806333Y-60945619D02*
X240901571Y-60945619D01*
X240901571Y-60945619D02*
X241044428Y-60898000D01*
X241044428Y-60898000D02*
X241139666Y-60802761D01*
X241139666Y-60802761D02*
X241187285Y-60707523D01*
X241187285Y-60707523D02*
X241234904Y-60517047D01*
X241234904Y-60517047D02*
X241234904Y-60374190D01*
X241234904Y-60374190D02*
X241187285Y-60183714D01*
X241187285Y-60183714D02*
X241139666Y-60088476D01*
X241139666Y-60088476D02*
X241044428Y-59993238D01*
X241044428Y-59993238D02*
X240901571Y-59945619D01*
X240901571Y-59945619D02*
X240806333Y-59945619D01*
X240806333Y-59945619D02*
X240663476Y-59993238D01*
X240663476Y-59993238D02*
X240615857Y-60040857D01*
X239663476Y-60945619D02*
X240234904Y-60945619D01*
X239949190Y-60945619D02*
X239949190Y-59945619D01*
X239949190Y-59945619D02*
X240044428Y-60088476D01*
X240044428Y-60088476D02*
X240139666Y-60183714D01*
X240139666Y-60183714D02*
X240234904Y-60231333D01*
X238758714Y-59945619D02*
X239234904Y-59945619D01*
X239234904Y-59945619D02*
X239282523Y-60421809D01*
X239282523Y-60421809D02*
X239234904Y-60374190D01*
X239234904Y-60374190D02*
X239139666Y-60326571D01*
X239139666Y-60326571D02*
X238901571Y-60326571D01*
X238901571Y-60326571D02*
X238806333Y-60374190D01*
X238806333Y-60374190D02*
X238758714Y-60421809D01*
X238758714Y-60421809D02*
X238711095Y-60517047D01*
X238711095Y-60517047D02*
X238711095Y-60755142D01*
X238711095Y-60755142D02*
X238758714Y-60850380D01*
X238758714Y-60850380D02*
X238806333Y-60898000D01*
X238806333Y-60898000D02*
X238901571Y-60945619D01*
X238901571Y-60945619D02*
X239139666Y-60945619D01*
X239139666Y-60945619D02*
X239234904Y-60898000D01*
X239234904Y-60898000D02*
X239282523Y-60850380D01*
%TO.C,C13*%
X236141098Y-51350380D02*
X236188717Y-51398000D01*
X236188717Y-51398000D02*
X236331574Y-51445619D01*
X236331574Y-51445619D02*
X236426812Y-51445619D01*
X236426812Y-51445619D02*
X236569669Y-51398000D01*
X236569669Y-51398000D02*
X236664907Y-51302761D01*
X236664907Y-51302761D02*
X236712526Y-51207523D01*
X236712526Y-51207523D02*
X236760145Y-51017047D01*
X236760145Y-51017047D02*
X236760145Y-50874190D01*
X236760145Y-50874190D02*
X236712526Y-50683714D01*
X236712526Y-50683714D02*
X236664907Y-50588476D01*
X236664907Y-50588476D02*
X236569669Y-50493238D01*
X236569669Y-50493238D02*
X236426812Y-50445619D01*
X236426812Y-50445619D02*
X236331574Y-50445619D01*
X236331574Y-50445619D02*
X236188717Y-50493238D01*
X236188717Y-50493238D02*
X236141098Y-50540857D01*
X235188717Y-51445619D02*
X235760145Y-51445619D01*
X235474431Y-51445619D02*
X235474431Y-50445619D01*
X235474431Y-50445619D02*
X235569669Y-50588476D01*
X235569669Y-50588476D02*
X235664907Y-50683714D01*
X235664907Y-50683714D02*
X235760145Y-50731333D01*
X234855383Y-50445619D02*
X234236336Y-50445619D01*
X234236336Y-50445619D02*
X234569669Y-50826571D01*
X234569669Y-50826571D02*
X234426812Y-50826571D01*
X234426812Y-50826571D02*
X234331574Y-50874190D01*
X234331574Y-50874190D02*
X234283955Y-50921809D01*
X234283955Y-50921809D02*
X234236336Y-51017047D01*
X234236336Y-51017047D02*
X234236336Y-51255142D01*
X234236336Y-51255142D02*
X234283955Y-51350380D01*
X234283955Y-51350380D02*
X234331574Y-51398000D01*
X234331574Y-51398000D02*
X234426812Y-51445619D01*
X234426812Y-51445619D02*
X234712526Y-51445619D01*
X234712526Y-51445619D02*
X234807764Y-51398000D01*
X234807764Y-51398000D02*
X234855383Y-51350380D01*
%TO.C,R22*%
X203317856Y-102381619D02*
X203651189Y-101905428D01*
X203889284Y-102381619D02*
X203889284Y-101381619D01*
X203889284Y-101381619D02*
X203508332Y-101381619D01*
X203508332Y-101381619D02*
X203413094Y-101429238D01*
X203413094Y-101429238D02*
X203365475Y-101476857D01*
X203365475Y-101476857D02*
X203317856Y-101572095D01*
X203317856Y-101572095D02*
X203317856Y-101714952D01*
X203317856Y-101714952D02*
X203365475Y-101810190D01*
X203365475Y-101810190D02*
X203413094Y-101857809D01*
X203413094Y-101857809D02*
X203508332Y-101905428D01*
X203508332Y-101905428D02*
X203889284Y-101905428D01*
X202936903Y-101476857D02*
X202889284Y-101429238D01*
X202889284Y-101429238D02*
X202794046Y-101381619D01*
X202794046Y-101381619D02*
X202555951Y-101381619D01*
X202555951Y-101381619D02*
X202460713Y-101429238D01*
X202460713Y-101429238D02*
X202413094Y-101476857D01*
X202413094Y-101476857D02*
X202365475Y-101572095D01*
X202365475Y-101572095D02*
X202365475Y-101667333D01*
X202365475Y-101667333D02*
X202413094Y-101810190D01*
X202413094Y-101810190D02*
X202984522Y-102381619D01*
X202984522Y-102381619D02*
X202365475Y-102381619D01*
X201984522Y-101476857D02*
X201936903Y-101429238D01*
X201936903Y-101429238D02*
X201841665Y-101381619D01*
X201841665Y-101381619D02*
X201603570Y-101381619D01*
X201603570Y-101381619D02*
X201508332Y-101429238D01*
X201508332Y-101429238D02*
X201460713Y-101476857D01*
X201460713Y-101476857D02*
X201413094Y-101572095D01*
X201413094Y-101572095D02*
X201413094Y-101667333D01*
X201413094Y-101667333D02*
X201460713Y-101810190D01*
X201460713Y-101810190D02*
X202032141Y-102381619D01*
X202032141Y-102381619D02*
X201413094Y-102381619D01*
%TO.C,Y1*%
X230435190Y-100381428D02*
X230435190Y-100857619D01*
X230768523Y-99857619D02*
X230435190Y-100381428D01*
X230435190Y-100381428D02*
X230101857Y-99857619D01*
X229244714Y-100857619D02*
X229816142Y-100857619D01*
X229530428Y-100857619D02*
X229530428Y-99857619D01*
X229530428Y-99857619D02*
X229625666Y-100000476D01*
X229625666Y-100000476D02*
X229720904Y-100095714D01*
X229720904Y-100095714D02*
X229816142Y-100143333D01*
%TO.C,C63*%
X223383857Y-67283714D02*
X223431476Y-67331334D01*
X223431476Y-67331334D02*
X223574333Y-67378953D01*
X223574333Y-67378953D02*
X223669571Y-67378953D01*
X223669571Y-67378953D02*
X223812428Y-67331334D01*
X223812428Y-67331334D02*
X223907666Y-67236095D01*
X223907666Y-67236095D02*
X223955285Y-67140857D01*
X223955285Y-67140857D02*
X224002904Y-66950381D01*
X224002904Y-66950381D02*
X224002904Y-66807524D01*
X224002904Y-66807524D02*
X223955285Y-66617048D01*
X223955285Y-66617048D02*
X223907666Y-66521810D01*
X223907666Y-66521810D02*
X223812428Y-66426572D01*
X223812428Y-66426572D02*
X223669571Y-66378953D01*
X223669571Y-66378953D02*
X223574333Y-66378953D01*
X223574333Y-66378953D02*
X223431476Y-66426572D01*
X223431476Y-66426572D02*
X223383857Y-66474191D01*
X222526714Y-66378953D02*
X222717190Y-66378953D01*
X222717190Y-66378953D02*
X222812428Y-66426572D01*
X222812428Y-66426572D02*
X222860047Y-66474191D01*
X222860047Y-66474191D02*
X222955285Y-66617048D01*
X222955285Y-66617048D02*
X223002904Y-66807524D01*
X223002904Y-66807524D02*
X223002904Y-67188476D01*
X223002904Y-67188476D02*
X222955285Y-67283714D01*
X222955285Y-67283714D02*
X222907666Y-67331334D01*
X222907666Y-67331334D02*
X222812428Y-67378953D01*
X222812428Y-67378953D02*
X222621952Y-67378953D01*
X222621952Y-67378953D02*
X222526714Y-67331334D01*
X222526714Y-67331334D02*
X222479095Y-67283714D01*
X222479095Y-67283714D02*
X222431476Y-67188476D01*
X222431476Y-67188476D02*
X222431476Y-66950381D01*
X222431476Y-66950381D02*
X222479095Y-66855143D01*
X222479095Y-66855143D02*
X222526714Y-66807524D01*
X222526714Y-66807524D02*
X222621952Y-66759905D01*
X222621952Y-66759905D02*
X222812428Y-66759905D01*
X222812428Y-66759905D02*
X222907666Y-66807524D01*
X222907666Y-66807524D02*
X222955285Y-66855143D01*
X222955285Y-66855143D02*
X223002904Y-66950381D01*
X222098142Y-66378953D02*
X221479095Y-66378953D01*
X221479095Y-66378953D02*
X221812428Y-66759905D01*
X221812428Y-66759905D02*
X221669571Y-66759905D01*
X221669571Y-66759905D02*
X221574333Y-66807524D01*
X221574333Y-66807524D02*
X221526714Y-66855143D01*
X221526714Y-66855143D02*
X221479095Y-66950381D01*
X221479095Y-66950381D02*
X221479095Y-67188476D01*
X221479095Y-67188476D02*
X221526714Y-67283714D01*
X221526714Y-67283714D02*
X221574333Y-67331334D01*
X221574333Y-67331334D02*
X221669571Y-67378953D01*
X221669571Y-67378953D02*
X221955285Y-67378953D01*
X221955285Y-67378953D02*
X222050523Y-67331334D01*
X222050523Y-67331334D02*
X222098142Y-67283714D01*
%TO.C,D1*%
X239889094Y-62099619D02*
X239889094Y-61099619D01*
X239889094Y-61099619D02*
X239650999Y-61099619D01*
X239650999Y-61099619D02*
X239508142Y-61147238D01*
X239508142Y-61147238D02*
X239412904Y-61242476D01*
X239412904Y-61242476D02*
X239365285Y-61337714D01*
X239365285Y-61337714D02*
X239317666Y-61528190D01*
X239317666Y-61528190D02*
X239317666Y-61671047D01*
X239317666Y-61671047D02*
X239365285Y-61861523D01*
X239365285Y-61861523D02*
X239412904Y-61956761D01*
X239412904Y-61956761D02*
X239508142Y-62052000D01*
X239508142Y-62052000D02*
X239650999Y-62099619D01*
X239650999Y-62099619D02*
X239889094Y-62099619D01*
X238365285Y-62099619D02*
X238936713Y-62099619D01*
X238650999Y-62099619D02*
X238650999Y-61099619D01*
X238650999Y-61099619D02*
X238746237Y-61242476D01*
X238746237Y-61242476D02*
X238841475Y-61337714D01*
X238841475Y-61337714D02*
X238936713Y-61385333D01*
%TO.C,R15*%
X204876283Y-96068142D02*
X204400092Y-95734809D01*
X204876283Y-95496714D02*
X203876283Y-95496714D01*
X203876283Y-95496714D02*
X203876283Y-95877666D01*
X203876283Y-95877666D02*
X203923902Y-95972904D01*
X203923902Y-95972904D02*
X203971521Y-96020523D01*
X203971521Y-96020523D02*
X204066759Y-96068142D01*
X204066759Y-96068142D02*
X204209616Y-96068142D01*
X204209616Y-96068142D02*
X204304854Y-96020523D01*
X204304854Y-96020523D02*
X204352473Y-95972904D01*
X204352473Y-95972904D02*
X204400092Y-95877666D01*
X204400092Y-95877666D02*
X204400092Y-95496714D01*
X204876283Y-97020523D02*
X204876283Y-96449095D01*
X204876283Y-96734809D02*
X203876283Y-96734809D01*
X203876283Y-96734809D02*
X204019140Y-96639571D01*
X204019140Y-96639571D02*
X204114378Y-96544333D01*
X204114378Y-96544333D02*
X204161997Y-96449095D01*
X203876283Y-97925285D02*
X203876283Y-97449095D01*
X203876283Y-97449095D02*
X204352473Y-97401476D01*
X204352473Y-97401476D02*
X204304854Y-97449095D01*
X204304854Y-97449095D02*
X204257235Y-97544333D01*
X204257235Y-97544333D02*
X204257235Y-97782428D01*
X204257235Y-97782428D02*
X204304854Y-97877666D01*
X204304854Y-97877666D02*
X204352473Y-97925285D01*
X204352473Y-97925285D02*
X204447711Y-97972904D01*
X204447711Y-97972904D02*
X204685806Y-97972904D01*
X204685806Y-97972904D02*
X204781044Y-97925285D01*
X204781044Y-97925285D02*
X204828664Y-97877666D01*
X204828664Y-97877666D02*
X204876283Y-97782428D01*
X204876283Y-97782428D02*
X204876283Y-97544333D01*
X204876283Y-97544333D02*
X204828664Y-97449095D01*
X204828664Y-97449095D02*
X204781044Y-97401476D01*
%TO.C,R20*%
X203352522Y-100349619D02*
X203685855Y-99873428D01*
X203923950Y-100349619D02*
X203923950Y-99349619D01*
X203923950Y-99349619D02*
X203542998Y-99349619D01*
X203542998Y-99349619D02*
X203447760Y-99397238D01*
X203447760Y-99397238D02*
X203400141Y-99444857D01*
X203400141Y-99444857D02*
X203352522Y-99540095D01*
X203352522Y-99540095D02*
X203352522Y-99682952D01*
X203352522Y-99682952D02*
X203400141Y-99778190D01*
X203400141Y-99778190D02*
X203447760Y-99825809D01*
X203447760Y-99825809D02*
X203542998Y-99873428D01*
X203542998Y-99873428D02*
X203923950Y-99873428D01*
X202971569Y-99444857D02*
X202923950Y-99397238D01*
X202923950Y-99397238D02*
X202828712Y-99349619D01*
X202828712Y-99349619D02*
X202590617Y-99349619D01*
X202590617Y-99349619D02*
X202495379Y-99397238D01*
X202495379Y-99397238D02*
X202447760Y-99444857D01*
X202447760Y-99444857D02*
X202400141Y-99540095D01*
X202400141Y-99540095D02*
X202400141Y-99635333D01*
X202400141Y-99635333D02*
X202447760Y-99778190D01*
X202447760Y-99778190D02*
X203019188Y-100349619D01*
X203019188Y-100349619D02*
X202400141Y-100349619D01*
X201781093Y-99349619D02*
X201685855Y-99349619D01*
X201685855Y-99349619D02*
X201590617Y-99397238D01*
X201590617Y-99397238D02*
X201542998Y-99444857D01*
X201542998Y-99444857D02*
X201495379Y-99540095D01*
X201495379Y-99540095D02*
X201447760Y-99730571D01*
X201447760Y-99730571D02*
X201447760Y-99968666D01*
X201447760Y-99968666D02*
X201495379Y-100159142D01*
X201495379Y-100159142D02*
X201542998Y-100254380D01*
X201542998Y-100254380D02*
X201590617Y-100302000D01*
X201590617Y-100302000D02*
X201685855Y-100349619D01*
X201685855Y-100349619D02*
X201781093Y-100349619D01*
X201781093Y-100349619D02*
X201876331Y-100302000D01*
X201876331Y-100302000D02*
X201923950Y-100254380D01*
X201923950Y-100254380D02*
X201971569Y-100159142D01*
X201971569Y-100159142D02*
X202019188Y-99968666D01*
X202019188Y-99968666D02*
X202019188Y-99730571D01*
X202019188Y-99730571D02*
X201971569Y-99540095D01*
X201971569Y-99540095D02*
X201923950Y-99444857D01*
X201923950Y-99444857D02*
X201876331Y-99397238D01*
X201876331Y-99397238D02*
X201781093Y-99349619D01*
%TO.C,C29*%
X194475857Y-111169139D02*
X194523476Y-111216759D01*
X194523476Y-111216759D02*
X194666333Y-111264378D01*
X194666333Y-111264378D02*
X194761571Y-111264378D01*
X194761571Y-111264378D02*
X194904428Y-111216759D01*
X194904428Y-111216759D02*
X194999666Y-111121520D01*
X194999666Y-111121520D02*
X195047285Y-111026282D01*
X195047285Y-111026282D02*
X195094904Y-110835806D01*
X195094904Y-110835806D02*
X195094904Y-110692949D01*
X195094904Y-110692949D02*
X195047285Y-110502473D01*
X195047285Y-110502473D02*
X194999666Y-110407235D01*
X194999666Y-110407235D02*
X194904428Y-110311997D01*
X194904428Y-110311997D02*
X194761571Y-110264378D01*
X194761571Y-110264378D02*
X194666333Y-110264378D01*
X194666333Y-110264378D02*
X194523476Y-110311997D01*
X194523476Y-110311997D02*
X194475857Y-110359616D01*
X194094904Y-110359616D02*
X194047285Y-110311997D01*
X194047285Y-110311997D02*
X193952047Y-110264378D01*
X193952047Y-110264378D02*
X193713952Y-110264378D01*
X193713952Y-110264378D02*
X193618714Y-110311997D01*
X193618714Y-110311997D02*
X193571095Y-110359616D01*
X193571095Y-110359616D02*
X193523476Y-110454854D01*
X193523476Y-110454854D02*
X193523476Y-110550092D01*
X193523476Y-110550092D02*
X193571095Y-110692949D01*
X193571095Y-110692949D02*
X194142523Y-111264378D01*
X194142523Y-111264378D02*
X193523476Y-111264378D01*
X193047285Y-111264378D02*
X192856809Y-111264378D01*
X192856809Y-111264378D02*
X192761571Y-111216759D01*
X192761571Y-111216759D02*
X192713952Y-111169139D01*
X192713952Y-111169139D02*
X192618714Y-111026282D01*
X192618714Y-111026282D02*
X192571095Y-110835806D01*
X192571095Y-110835806D02*
X192571095Y-110454854D01*
X192571095Y-110454854D02*
X192618714Y-110359616D01*
X192618714Y-110359616D02*
X192666333Y-110311997D01*
X192666333Y-110311997D02*
X192761571Y-110264378D01*
X192761571Y-110264378D02*
X192952047Y-110264378D01*
X192952047Y-110264378D02*
X193047285Y-110311997D01*
X193047285Y-110311997D02*
X193094904Y-110359616D01*
X193094904Y-110359616D02*
X193142523Y-110454854D01*
X193142523Y-110454854D02*
X193142523Y-110692949D01*
X193142523Y-110692949D02*
X193094904Y-110788187D01*
X193094904Y-110788187D02*
X193047285Y-110835806D01*
X193047285Y-110835806D02*
X192952047Y-110883425D01*
X192952047Y-110883425D02*
X192761571Y-110883425D01*
X192761571Y-110883425D02*
X192666333Y-110835806D01*
X192666333Y-110835806D02*
X192618714Y-110788187D01*
X192618714Y-110788187D02*
X192571095Y-110692949D01*
%TO.C,C41*%
X203471857Y-101112384D02*
X203519476Y-101160004D01*
X203519476Y-101160004D02*
X203662333Y-101207623D01*
X203662333Y-101207623D02*
X203757571Y-101207623D01*
X203757571Y-101207623D02*
X203900428Y-101160004D01*
X203900428Y-101160004D02*
X203995666Y-101064765D01*
X203995666Y-101064765D02*
X204043285Y-100969527D01*
X204043285Y-100969527D02*
X204090904Y-100779051D01*
X204090904Y-100779051D02*
X204090904Y-100636194D01*
X204090904Y-100636194D02*
X204043285Y-100445718D01*
X204043285Y-100445718D02*
X203995666Y-100350480D01*
X203995666Y-100350480D02*
X203900428Y-100255242D01*
X203900428Y-100255242D02*
X203757571Y-100207623D01*
X203757571Y-100207623D02*
X203662333Y-100207623D01*
X203662333Y-100207623D02*
X203519476Y-100255242D01*
X203519476Y-100255242D02*
X203471857Y-100302861D01*
X202614714Y-100540956D02*
X202614714Y-101207623D01*
X202852809Y-100160004D02*
X203090904Y-100874289D01*
X203090904Y-100874289D02*
X202471857Y-100874289D01*
X201567095Y-101207623D02*
X202138523Y-101207623D01*
X201852809Y-101207623D02*
X201852809Y-100207623D01*
X201852809Y-100207623D02*
X201948047Y-100350480D01*
X201948047Y-100350480D02*
X202043285Y-100445718D01*
X202043285Y-100445718D02*
X202138523Y-100493337D01*
%TO.C,C9*%
X214578380Y-78502333D02*
X214626000Y-78454714D01*
X214626000Y-78454714D02*
X214673619Y-78311857D01*
X214673619Y-78311857D02*
X214673619Y-78216619D01*
X214673619Y-78216619D02*
X214626000Y-78073762D01*
X214626000Y-78073762D02*
X214530761Y-77978524D01*
X214530761Y-77978524D02*
X214435523Y-77930905D01*
X214435523Y-77930905D02*
X214245047Y-77883286D01*
X214245047Y-77883286D02*
X214102190Y-77883286D01*
X214102190Y-77883286D02*
X213911714Y-77930905D01*
X213911714Y-77930905D02*
X213816476Y-77978524D01*
X213816476Y-77978524D02*
X213721238Y-78073762D01*
X213721238Y-78073762D02*
X213673619Y-78216619D01*
X213673619Y-78216619D02*
X213673619Y-78311857D01*
X213673619Y-78311857D02*
X213721238Y-78454714D01*
X213721238Y-78454714D02*
X213768857Y-78502333D01*
X214673619Y-78978524D02*
X214673619Y-79169000D01*
X214673619Y-79169000D02*
X214626000Y-79264238D01*
X214626000Y-79264238D02*
X214578380Y-79311857D01*
X214578380Y-79311857D02*
X214435523Y-79407095D01*
X214435523Y-79407095D02*
X214245047Y-79454714D01*
X214245047Y-79454714D02*
X213864095Y-79454714D01*
X213864095Y-79454714D02*
X213768857Y-79407095D01*
X213768857Y-79407095D02*
X213721238Y-79359476D01*
X213721238Y-79359476D02*
X213673619Y-79264238D01*
X213673619Y-79264238D02*
X213673619Y-79073762D01*
X213673619Y-79073762D02*
X213721238Y-78978524D01*
X213721238Y-78978524D02*
X213768857Y-78930905D01*
X213768857Y-78930905D02*
X213864095Y-78883286D01*
X213864095Y-78883286D02*
X214102190Y-78883286D01*
X214102190Y-78883286D02*
X214197428Y-78930905D01*
X214197428Y-78930905D02*
X214245047Y-78978524D01*
X214245047Y-78978524D02*
X214292666Y-79073762D01*
X214292666Y-79073762D02*
X214292666Y-79264238D01*
X214292666Y-79264238D02*
X214245047Y-79359476D01*
X214245047Y-79359476D02*
X214197428Y-79407095D01*
X214197428Y-79407095D02*
X214102190Y-79454714D01*
%TO.C,C28*%
X182681621Y-103044142D02*
X182729241Y-102996523D01*
X182729241Y-102996523D02*
X182776860Y-102853666D01*
X182776860Y-102853666D02*
X182776860Y-102758428D01*
X182776860Y-102758428D02*
X182729241Y-102615571D01*
X182729241Y-102615571D02*
X182634002Y-102520333D01*
X182634002Y-102520333D02*
X182538764Y-102472714D01*
X182538764Y-102472714D02*
X182348288Y-102425095D01*
X182348288Y-102425095D02*
X182205431Y-102425095D01*
X182205431Y-102425095D02*
X182014955Y-102472714D01*
X182014955Y-102472714D02*
X181919717Y-102520333D01*
X181919717Y-102520333D02*
X181824479Y-102615571D01*
X181824479Y-102615571D02*
X181776860Y-102758428D01*
X181776860Y-102758428D02*
X181776860Y-102853666D01*
X181776860Y-102853666D02*
X181824479Y-102996523D01*
X181824479Y-102996523D02*
X181872098Y-103044142D01*
X181872098Y-103425095D02*
X181824479Y-103472714D01*
X181824479Y-103472714D02*
X181776860Y-103567952D01*
X181776860Y-103567952D02*
X181776860Y-103806047D01*
X181776860Y-103806047D02*
X181824479Y-103901285D01*
X181824479Y-103901285D02*
X181872098Y-103948904D01*
X181872098Y-103948904D02*
X181967336Y-103996523D01*
X181967336Y-103996523D02*
X182062574Y-103996523D01*
X182062574Y-103996523D02*
X182205431Y-103948904D01*
X182205431Y-103948904D02*
X182776860Y-103377476D01*
X182776860Y-103377476D02*
X182776860Y-103996523D01*
X182205431Y-104567952D02*
X182157812Y-104472714D01*
X182157812Y-104472714D02*
X182110193Y-104425095D01*
X182110193Y-104425095D02*
X182014955Y-104377476D01*
X182014955Y-104377476D02*
X181967336Y-104377476D01*
X181967336Y-104377476D02*
X181872098Y-104425095D01*
X181872098Y-104425095D02*
X181824479Y-104472714D01*
X181824479Y-104472714D02*
X181776860Y-104567952D01*
X181776860Y-104567952D02*
X181776860Y-104758428D01*
X181776860Y-104758428D02*
X181824479Y-104853666D01*
X181824479Y-104853666D02*
X181872098Y-104901285D01*
X181872098Y-104901285D02*
X181967336Y-104948904D01*
X181967336Y-104948904D02*
X182014955Y-104948904D01*
X182014955Y-104948904D02*
X182110193Y-104901285D01*
X182110193Y-104901285D02*
X182157812Y-104853666D01*
X182157812Y-104853666D02*
X182205431Y-104758428D01*
X182205431Y-104758428D02*
X182205431Y-104567952D01*
X182205431Y-104567952D02*
X182253050Y-104472714D01*
X182253050Y-104472714D02*
X182300669Y-104425095D01*
X182300669Y-104425095D02*
X182395907Y-104377476D01*
X182395907Y-104377476D02*
X182586383Y-104377476D01*
X182586383Y-104377476D02*
X182681621Y-104425095D01*
X182681621Y-104425095D02*
X182729241Y-104472714D01*
X182729241Y-104472714D02*
X182776860Y-104567952D01*
X182776860Y-104567952D02*
X182776860Y-104758428D01*
X182776860Y-104758428D02*
X182729241Y-104853666D01*
X182729241Y-104853666D02*
X182681621Y-104901285D01*
X182681621Y-104901285D02*
X182586383Y-104948904D01*
X182586383Y-104948904D02*
X182395907Y-104948904D01*
X182395907Y-104948904D02*
X182300669Y-104901285D01*
X182300669Y-104901285D02*
X182253050Y-104853666D01*
X182253050Y-104853666D02*
X182205431Y-104758428D01*
%TO.C,C56*%
X190819857Y-72228380D02*
X190867476Y-72276000D01*
X190867476Y-72276000D02*
X191010333Y-72323619D01*
X191010333Y-72323619D02*
X191105571Y-72323619D01*
X191105571Y-72323619D02*
X191248428Y-72276000D01*
X191248428Y-72276000D02*
X191343666Y-72180761D01*
X191343666Y-72180761D02*
X191391285Y-72085523D01*
X191391285Y-72085523D02*
X191438904Y-71895047D01*
X191438904Y-71895047D02*
X191438904Y-71752190D01*
X191438904Y-71752190D02*
X191391285Y-71561714D01*
X191391285Y-71561714D02*
X191343666Y-71466476D01*
X191343666Y-71466476D02*
X191248428Y-71371238D01*
X191248428Y-71371238D02*
X191105571Y-71323619D01*
X191105571Y-71323619D02*
X191010333Y-71323619D01*
X191010333Y-71323619D02*
X190867476Y-71371238D01*
X190867476Y-71371238D02*
X190819857Y-71418857D01*
X189915095Y-71323619D02*
X190391285Y-71323619D01*
X190391285Y-71323619D02*
X190438904Y-71799809D01*
X190438904Y-71799809D02*
X190391285Y-71752190D01*
X190391285Y-71752190D02*
X190296047Y-71704571D01*
X190296047Y-71704571D02*
X190057952Y-71704571D01*
X190057952Y-71704571D02*
X189962714Y-71752190D01*
X189962714Y-71752190D02*
X189915095Y-71799809D01*
X189915095Y-71799809D02*
X189867476Y-71895047D01*
X189867476Y-71895047D02*
X189867476Y-72133142D01*
X189867476Y-72133142D02*
X189915095Y-72228380D01*
X189915095Y-72228380D02*
X189962714Y-72276000D01*
X189962714Y-72276000D02*
X190057952Y-72323619D01*
X190057952Y-72323619D02*
X190296047Y-72323619D01*
X190296047Y-72323619D02*
X190391285Y-72276000D01*
X190391285Y-72276000D02*
X190438904Y-72228380D01*
X189010333Y-71323619D02*
X189200809Y-71323619D01*
X189200809Y-71323619D02*
X189296047Y-71371238D01*
X189296047Y-71371238D02*
X189343666Y-71418857D01*
X189343666Y-71418857D02*
X189438904Y-71561714D01*
X189438904Y-71561714D02*
X189486523Y-71752190D01*
X189486523Y-71752190D02*
X189486523Y-72133142D01*
X189486523Y-72133142D02*
X189438904Y-72228380D01*
X189438904Y-72228380D02*
X189391285Y-72276000D01*
X189391285Y-72276000D02*
X189296047Y-72323619D01*
X189296047Y-72323619D02*
X189105571Y-72323619D01*
X189105571Y-72323619D02*
X189010333Y-72276000D01*
X189010333Y-72276000D02*
X188962714Y-72228380D01*
X188962714Y-72228380D02*
X188915095Y-72133142D01*
X188915095Y-72133142D02*
X188915095Y-71895047D01*
X188915095Y-71895047D02*
X188962714Y-71799809D01*
X188962714Y-71799809D02*
X189010333Y-71752190D01*
X189010333Y-71752190D02*
X189105571Y-71704571D01*
X189105571Y-71704571D02*
X189296047Y-71704571D01*
X189296047Y-71704571D02*
X189391285Y-71752190D01*
X189391285Y-71752190D02*
X189438904Y-71799809D01*
X189438904Y-71799809D02*
X189486523Y-71895047D01*
%TO.C,C102*%
X236337380Y-74465952D02*
X236385000Y-74418333D01*
X236385000Y-74418333D02*
X236432619Y-74275476D01*
X236432619Y-74275476D02*
X236432619Y-74180238D01*
X236432619Y-74180238D02*
X236385000Y-74037381D01*
X236385000Y-74037381D02*
X236289761Y-73942143D01*
X236289761Y-73942143D02*
X236194523Y-73894524D01*
X236194523Y-73894524D02*
X236004047Y-73846905D01*
X236004047Y-73846905D02*
X235861190Y-73846905D01*
X235861190Y-73846905D02*
X235670714Y-73894524D01*
X235670714Y-73894524D02*
X235575476Y-73942143D01*
X235575476Y-73942143D02*
X235480238Y-74037381D01*
X235480238Y-74037381D02*
X235432619Y-74180238D01*
X235432619Y-74180238D02*
X235432619Y-74275476D01*
X235432619Y-74275476D02*
X235480238Y-74418333D01*
X235480238Y-74418333D02*
X235527857Y-74465952D01*
X236432619Y-75418333D02*
X236432619Y-74846905D01*
X236432619Y-75132619D02*
X235432619Y-75132619D01*
X235432619Y-75132619D02*
X235575476Y-75037381D01*
X235575476Y-75037381D02*
X235670714Y-74942143D01*
X235670714Y-74942143D02*
X235718333Y-74846905D01*
X235432619Y-76037381D02*
X235432619Y-76132619D01*
X235432619Y-76132619D02*
X235480238Y-76227857D01*
X235480238Y-76227857D02*
X235527857Y-76275476D01*
X235527857Y-76275476D02*
X235623095Y-76323095D01*
X235623095Y-76323095D02*
X235813571Y-76370714D01*
X235813571Y-76370714D02*
X236051666Y-76370714D01*
X236051666Y-76370714D02*
X236242142Y-76323095D01*
X236242142Y-76323095D02*
X236337380Y-76275476D01*
X236337380Y-76275476D02*
X236385000Y-76227857D01*
X236385000Y-76227857D02*
X236432619Y-76132619D01*
X236432619Y-76132619D02*
X236432619Y-76037381D01*
X236432619Y-76037381D02*
X236385000Y-75942143D01*
X236385000Y-75942143D02*
X236337380Y-75894524D01*
X236337380Y-75894524D02*
X236242142Y-75846905D01*
X236242142Y-75846905D02*
X236051666Y-75799286D01*
X236051666Y-75799286D02*
X235813571Y-75799286D01*
X235813571Y-75799286D02*
X235623095Y-75846905D01*
X235623095Y-75846905D02*
X235527857Y-75894524D01*
X235527857Y-75894524D02*
X235480238Y-75942143D01*
X235480238Y-75942143D02*
X235432619Y-76037381D01*
X235527857Y-76751667D02*
X235480238Y-76799286D01*
X235480238Y-76799286D02*
X235432619Y-76894524D01*
X235432619Y-76894524D02*
X235432619Y-77132619D01*
X235432619Y-77132619D02*
X235480238Y-77227857D01*
X235480238Y-77227857D02*
X235527857Y-77275476D01*
X235527857Y-77275476D02*
X235623095Y-77323095D01*
X235623095Y-77323095D02*
X235718333Y-77323095D01*
X235718333Y-77323095D02*
X235861190Y-77275476D01*
X235861190Y-77275476D02*
X236432619Y-76704048D01*
X236432619Y-76704048D02*
X236432619Y-77323095D01*
%TO.C,C26*%
X213106356Y-106470142D02*
X213153976Y-106422523D01*
X213153976Y-106422523D02*
X213201595Y-106279666D01*
X213201595Y-106279666D02*
X213201595Y-106184428D01*
X213201595Y-106184428D02*
X213153976Y-106041571D01*
X213153976Y-106041571D02*
X213058737Y-105946333D01*
X213058737Y-105946333D02*
X212963499Y-105898714D01*
X212963499Y-105898714D02*
X212773023Y-105851095D01*
X212773023Y-105851095D02*
X212630166Y-105851095D01*
X212630166Y-105851095D02*
X212439690Y-105898714D01*
X212439690Y-105898714D02*
X212344452Y-105946333D01*
X212344452Y-105946333D02*
X212249214Y-106041571D01*
X212249214Y-106041571D02*
X212201595Y-106184428D01*
X212201595Y-106184428D02*
X212201595Y-106279666D01*
X212201595Y-106279666D02*
X212249214Y-106422523D01*
X212249214Y-106422523D02*
X212296833Y-106470142D01*
X212296833Y-106851095D02*
X212249214Y-106898714D01*
X212249214Y-106898714D02*
X212201595Y-106993952D01*
X212201595Y-106993952D02*
X212201595Y-107232047D01*
X212201595Y-107232047D02*
X212249214Y-107327285D01*
X212249214Y-107327285D02*
X212296833Y-107374904D01*
X212296833Y-107374904D02*
X212392071Y-107422523D01*
X212392071Y-107422523D02*
X212487309Y-107422523D01*
X212487309Y-107422523D02*
X212630166Y-107374904D01*
X212630166Y-107374904D02*
X213201595Y-106803476D01*
X213201595Y-106803476D02*
X213201595Y-107422523D01*
X212201595Y-108279666D02*
X212201595Y-108089190D01*
X212201595Y-108089190D02*
X212249214Y-107993952D01*
X212249214Y-107993952D02*
X212296833Y-107946333D01*
X212296833Y-107946333D02*
X212439690Y-107851095D01*
X212439690Y-107851095D02*
X212630166Y-107803476D01*
X212630166Y-107803476D02*
X213011118Y-107803476D01*
X213011118Y-107803476D02*
X213106356Y-107851095D01*
X213106356Y-107851095D02*
X213153976Y-107898714D01*
X213153976Y-107898714D02*
X213201595Y-107993952D01*
X213201595Y-107993952D02*
X213201595Y-108184428D01*
X213201595Y-108184428D02*
X213153976Y-108279666D01*
X213153976Y-108279666D02*
X213106356Y-108327285D01*
X213106356Y-108327285D02*
X213011118Y-108374904D01*
X213011118Y-108374904D02*
X212773023Y-108374904D01*
X212773023Y-108374904D02*
X212677785Y-108327285D01*
X212677785Y-108327285D02*
X212630166Y-108279666D01*
X212630166Y-108279666D02*
X212582547Y-108184428D01*
X212582547Y-108184428D02*
X212582547Y-107993952D01*
X212582547Y-107993952D02*
X212630166Y-107898714D01*
X212630166Y-107898714D02*
X212677785Y-107851095D01*
X212677785Y-107851095D02*
X212773023Y-107803476D01*
%TO.C,C70*%
X239735857Y-78403139D02*
X239783476Y-78450759D01*
X239783476Y-78450759D02*
X239926333Y-78498378D01*
X239926333Y-78498378D02*
X240021571Y-78498378D01*
X240021571Y-78498378D02*
X240164428Y-78450759D01*
X240164428Y-78450759D02*
X240259666Y-78355520D01*
X240259666Y-78355520D02*
X240307285Y-78260282D01*
X240307285Y-78260282D02*
X240354904Y-78069806D01*
X240354904Y-78069806D02*
X240354904Y-77926949D01*
X240354904Y-77926949D02*
X240307285Y-77736473D01*
X240307285Y-77736473D02*
X240259666Y-77641235D01*
X240259666Y-77641235D02*
X240164428Y-77545997D01*
X240164428Y-77545997D02*
X240021571Y-77498378D01*
X240021571Y-77498378D02*
X239926333Y-77498378D01*
X239926333Y-77498378D02*
X239783476Y-77545997D01*
X239783476Y-77545997D02*
X239735857Y-77593616D01*
X239402523Y-77498378D02*
X238735857Y-77498378D01*
X238735857Y-77498378D02*
X239164428Y-78498378D01*
X238164428Y-77498378D02*
X238069190Y-77498378D01*
X238069190Y-77498378D02*
X237973952Y-77545997D01*
X237973952Y-77545997D02*
X237926333Y-77593616D01*
X237926333Y-77593616D02*
X237878714Y-77688854D01*
X237878714Y-77688854D02*
X237831095Y-77879330D01*
X237831095Y-77879330D02*
X237831095Y-78117425D01*
X237831095Y-78117425D02*
X237878714Y-78307901D01*
X237878714Y-78307901D02*
X237926333Y-78403139D01*
X237926333Y-78403139D02*
X237973952Y-78450759D01*
X237973952Y-78450759D02*
X238069190Y-78498378D01*
X238069190Y-78498378D02*
X238164428Y-78498378D01*
X238164428Y-78498378D02*
X238259666Y-78450759D01*
X238259666Y-78450759D02*
X238307285Y-78403139D01*
X238307285Y-78403139D02*
X238354904Y-78307901D01*
X238354904Y-78307901D02*
X238402523Y-78117425D01*
X238402523Y-78117425D02*
X238402523Y-77879330D01*
X238402523Y-77879330D02*
X238354904Y-77688854D01*
X238354904Y-77688854D02*
X238307285Y-77593616D01*
X238307285Y-77593616D02*
X238259666Y-77545997D01*
X238259666Y-77545997D02*
X238164428Y-77498378D01*
%TO.C,R3*%
X221353619Y-103734357D02*
X220877428Y-103401024D01*
X221353619Y-103162929D02*
X220353619Y-103162929D01*
X220353619Y-103162929D02*
X220353619Y-103543881D01*
X220353619Y-103543881D02*
X220401238Y-103639119D01*
X220401238Y-103639119D02*
X220448857Y-103686738D01*
X220448857Y-103686738D02*
X220544095Y-103734357D01*
X220544095Y-103734357D02*
X220686952Y-103734357D01*
X220686952Y-103734357D02*
X220782190Y-103686738D01*
X220782190Y-103686738D02*
X220829809Y-103639119D01*
X220829809Y-103639119D02*
X220877428Y-103543881D01*
X220877428Y-103543881D02*
X220877428Y-103162929D01*
X220353619Y-104067691D02*
X220353619Y-104686738D01*
X220353619Y-104686738D02*
X220734571Y-104353405D01*
X220734571Y-104353405D02*
X220734571Y-104496262D01*
X220734571Y-104496262D02*
X220782190Y-104591500D01*
X220782190Y-104591500D02*
X220829809Y-104639119D01*
X220829809Y-104639119D02*
X220925047Y-104686738D01*
X220925047Y-104686738D02*
X221163142Y-104686738D01*
X221163142Y-104686738D02*
X221258380Y-104639119D01*
X221258380Y-104639119D02*
X221306000Y-104591500D01*
X221306000Y-104591500D02*
X221353619Y-104496262D01*
X221353619Y-104496262D02*
X221353619Y-104210548D01*
X221353619Y-104210548D02*
X221306000Y-104115310D01*
X221306000Y-104115310D02*
X221258380Y-104067691D01*
%TO.C,C79*%
X218217857Y-94362380D02*
X218265476Y-94410000D01*
X218265476Y-94410000D02*
X218408333Y-94457619D01*
X218408333Y-94457619D02*
X218503571Y-94457619D01*
X218503571Y-94457619D02*
X218646428Y-94410000D01*
X218646428Y-94410000D02*
X218741666Y-94314761D01*
X218741666Y-94314761D02*
X218789285Y-94219523D01*
X218789285Y-94219523D02*
X218836904Y-94029047D01*
X218836904Y-94029047D02*
X218836904Y-93886190D01*
X218836904Y-93886190D02*
X218789285Y-93695714D01*
X218789285Y-93695714D02*
X218741666Y-93600476D01*
X218741666Y-93600476D02*
X218646428Y-93505238D01*
X218646428Y-93505238D02*
X218503571Y-93457619D01*
X218503571Y-93457619D02*
X218408333Y-93457619D01*
X218408333Y-93457619D02*
X218265476Y-93505238D01*
X218265476Y-93505238D02*
X218217857Y-93552857D01*
X217884523Y-93457619D02*
X217217857Y-93457619D01*
X217217857Y-93457619D02*
X217646428Y-94457619D01*
X216789285Y-94457619D02*
X216598809Y-94457619D01*
X216598809Y-94457619D02*
X216503571Y-94410000D01*
X216503571Y-94410000D02*
X216455952Y-94362380D01*
X216455952Y-94362380D02*
X216360714Y-94219523D01*
X216360714Y-94219523D02*
X216313095Y-94029047D01*
X216313095Y-94029047D02*
X216313095Y-93648095D01*
X216313095Y-93648095D02*
X216360714Y-93552857D01*
X216360714Y-93552857D02*
X216408333Y-93505238D01*
X216408333Y-93505238D02*
X216503571Y-93457619D01*
X216503571Y-93457619D02*
X216694047Y-93457619D01*
X216694047Y-93457619D02*
X216789285Y-93505238D01*
X216789285Y-93505238D02*
X216836904Y-93552857D01*
X216836904Y-93552857D02*
X216884523Y-93648095D01*
X216884523Y-93648095D02*
X216884523Y-93886190D01*
X216884523Y-93886190D02*
X216836904Y-93981428D01*
X216836904Y-93981428D02*
X216789285Y-94029047D01*
X216789285Y-94029047D02*
X216694047Y-94076666D01*
X216694047Y-94076666D02*
X216503571Y-94076666D01*
X216503571Y-94076666D02*
X216408333Y-94029047D01*
X216408333Y-94029047D02*
X216360714Y-93981428D01*
X216360714Y-93981428D02*
X216313095Y-93886190D01*
%TO.C,R19*%
X207404518Y-103521619D02*
X207737851Y-103045428D01*
X207975946Y-103521619D02*
X207975946Y-102521619D01*
X207975946Y-102521619D02*
X207594994Y-102521619D01*
X207594994Y-102521619D02*
X207499756Y-102569238D01*
X207499756Y-102569238D02*
X207452137Y-102616857D01*
X207452137Y-102616857D02*
X207404518Y-102712095D01*
X207404518Y-102712095D02*
X207404518Y-102854952D01*
X207404518Y-102854952D02*
X207452137Y-102950190D01*
X207452137Y-102950190D02*
X207499756Y-102997809D01*
X207499756Y-102997809D02*
X207594994Y-103045428D01*
X207594994Y-103045428D02*
X207975946Y-103045428D01*
X206452137Y-103521619D02*
X207023565Y-103521619D01*
X206737851Y-103521619D02*
X206737851Y-102521619D01*
X206737851Y-102521619D02*
X206833089Y-102664476D01*
X206833089Y-102664476D02*
X206928327Y-102759714D01*
X206928327Y-102759714D02*
X207023565Y-102807333D01*
X205975946Y-103521619D02*
X205785470Y-103521619D01*
X205785470Y-103521619D02*
X205690232Y-103474000D01*
X205690232Y-103474000D02*
X205642613Y-103426380D01*
X205642613Y-103426380D02*
X205547375Y-103283523D01*
X205547375Y-103283523D02*
X205499756Y-103093047D01*
X205499756Y-103093047D02*
X205499756Y-102712095D01*
X205499756Y-102712095D02*
X205547375Y-102616857D01*
X205547375Y-102616857D02*
X205594994Y-102569238D01*
X205594994Y-102569238D02*
X205690232Y-102521619D01*
X205690232Y-102521619D02*
X205880708Y-102521619D01*
X205880708Y-102521619D02*
X205975946Y-102569238D01*
X205975946Y-102569238D02*
X206023565Y-102616857D01*
X206023565Y-102616857D02*
X206071184Y-102712095D01*
X206071184Y-102712095D02*
X206071184Y-102950190D01*
X206071184Y-102950190D02*
X206023565Y-103045428D01*
X206023565Y-103045428D02*
X205975946Y-103093047D01*
X205975946Y-103093047D02*
X205880708Y-103140666D01*
X205880708Y-103140666D02*
X205690232Y-103140666D01*
X205690232Y-103140666D02*
X205594994Y-103093047D01*
X205594994Y-103093047D02*
X205547375Y-103045428D01*
X205547375Y-103045428D02*
X205499756Y-102950190D01*
%TO.C,D2*%
X188259619Y-97188905D02*
X187259619Y-97188905D01*
X187259619Y-97188905D02*
X187259619Y-97427000D01*
X187259619Y-97427000D02*
X187307238Y-97569857D01*
X187307238Y-97569857D02*
X187402476Y-97665095D01*
X187402476Y-97665095D02*
X187497714Y-97712714D01*
X187497714Y-97712714D02*
X187688190Y-97760333D01*
X187688190Y-97760333D02*
X187831047Y-97760333D01*
X187831047Y-97760333D02*
X188021523Y-97712714D01*
X188021523Y-97712714D02*
X188116761Y-97665095D01*
X188116761Y-97665095D02*
X188212000Y-97569857D01*
X188212000Y-97569857D02*
X188259619Y-97427000D01*
X188259619Y-97427000D02*
X188259619Y-97188905D01*
X187354857Y-98141286D02*
X187307238Y-98188905D01*
X187307238Y-98188905D02*
X187259619Y-98284143D01*
X187259619Y-98284143D02*
X187259619Y-98522238D01*
X187259619Y-98522238D02*
X187307238Y-98617476D01*
X187307238Y-98617476D02*
X187354857Y-98665095D01*
X187354857Y-98665095D02*
X187450095Y-98712714D01*
X187450095Y-98712714D02*
X187545333Y-98712714D01*
X187545333Y-98712714D02*
X187688190Y-98665095D01*
X187688190Y-98665095D02*
X188259619Y-98093667D01*
X188259619Y-98093667D02*
X188259619Y-98712714D01*
%TO.C,C10*%
X206578380Y-63436142D02*
X206626000Y-63388523D01*
X206626000Y-63388523D02*
X206673619Y-63245666D01*
X206673619Y-63245666D02*
X206673619Y-63150428D01*
X206673619Y-63150428D02*
X206626000Y-63007571D01*
X206626000Y-63007571D02*
X206530761Y-62912333D01*
X206530761Y-62912333D02*
X206435523Y-62864714D01*
X206435523Y-62864714D02*
X206245047Y-62817095D01*
X206245047Y-62817095D02*
X206102190Y-62817095D01*
X206102190Y-62817095D02*
X205911714Y-62864714D01*
X205911714Y-62864714D02*
X205816476Y-62912333D01*
X205816476Y-62912333D02*
X205721238Y-63007571D01*
X205721238Y-63007571D02*
X205673619Y-63150428D01*
X205673619Y-63150428D02*
X205673619Y-63245666D01*
X205673619Y-63245666D02*
X205721238Y-63388523D01*
X205721238Y-63388523D02*
X205768857Y-63436142D01*
X206673619Y-64388523D02*
X206673619Y-63817095D01*
X206673619Y-64102809D02*
X205673619Y-64102809D01*
X205673619Y-64102809D02*
X205816476Y-64007571D01*
X205816476Y-64007571D02*
X205911714Y-63912333D01*
X205911714Y-63912333D02*
X205959333Y-63817095D01*
X205673619Y-65007571D02*
X205673619Y-65102809D01*
X205673619Y-65102809D02*
X205721238Y-65198047D01*
X205721238Y-65198047D02*
X205768857Y-65245666D01*
X205768857Y-65245666D02*
X205864095Y-65293285D01*
X205864095Y-65293285D02*
X206054571Y-65340904D01*
X206054571Y-65340904D02*
X206292666Y-65340904D01*
X206292666Y-65340904D02*
X206483142Y-65293285D01*
X206483142Y-65293285D02*
X206578380Y-65245666D01*
X206578380Y-65245666D02*
X206626000Y-65198047D01*
X206626000Y-65198047D02*
X206673619Y-65102809D01*
X206673619Y-65102809D02*
X206673619Y-65007571D01*
X206673619Y-65007571D02*
X206626000Y-64912333D01*
X206626000Y-64912333D02*
X206578380Y-64864714D01*
X206578380Y-64864714D02*
X206483142Y-64817095D01*
X206483142Y-64817095D02*
X206292666Y-64769476D01*
X206292666Y-64769476D02*
X206054571Y-64769476D01*
X206054571Y-64769476D02*
X205864095Y-64817095D01*
X205864095Y-64817095D02*
X205768857Y-64864714D01*
X205768857Y-64864714D02*
X205721238Y-64912333D01*
X205721238Y-64912333D02*
X205673619Y-65007571D01*
%TO.C,C34*%
X221800380Y-95740142D02*
X221848000Y-95692523D01*
X221848000Y-95692523D02*
X221895619Y-95549666D01*
X221895619Y-95549666D02*
X221895619Y-95454428D01*
X221895619Y-95454428D02*
X221848000Y-95311571D01*
X221848000Y-95311571D02*
X221752761Y-95216333D01*
X221752761Y-95216333D02*
X221657523Y-95168714D01*
X221657523Y-95168714D02*
X221467047Y-95121095D01*
X221467047Y-95121095D02*
X221324190Y-95121095D01*
X221324190Y-95121095D02*
X221133714Y-95168714D01*
X221133714Y-95168714D02*
X221038476Y-95216333D01*
X221038476Y-95216333D02*
X220943238Y-95311571D01*
X220943238Y-95311571D02*
X220895619Y-95454428D01*
X220895619Y-95454428D02*
X220895619Y-95549666D01*
X220895619Y-95549666D02*
X220943238Y-95692523D01*
X220943238Y-95692523D02*
X220990857Y-95740142D01*
X220895619Y-96073476D02*
X220895619Y-96692523D01*
X220895619Y-96692523D02*
X221276571Y-96359190D01*
X221276571Y-96359190D02*
X221276571Y-96502047D01*
X221276571Y-96502047D02*
X221324190Y-96597285D01*
X221324190Y-96597285D02*
X221371809Y-96644904D01*
X221371809Y-96644904D02*
X221467047Y-96692523D01*
X221467047Y-96692523D02*
X221705142Y-96692523D01*
X221705142Y-96692523D02*
X221800380Y-96644904D01*
X221800380Y-96644904D02*
X221848000Y-96597285D01*
X221848000Y-96597285D02*
X221895619Y-96502047D01*
X221895619Y-96502047D02*
X221895619Y-96216333D01*
X221895619Y-96216333D02*
X221848000Y-96121095D01*
X221848000Y-96121095D02*
X221800380Y-96073476D01*
X221228952Y-97549666D02*
X221895619Y-97549666D01*
X220848000Y-97311571D02*
X221562285Y-97073476D01*
X221562285Y-97073476D02*
X221562285Y-97692523D01*
%TO.C,C61*%
X209118380Y-70248142D02*
X209166000Y-70200523D01*
X209166000Y-70200523D02*
X209213619Y-70057666D01*
X209213619Y-70057666D02*
X209213619Y-69962428D01*
X209213619Y-69962428D02*
X209166000Y-69819571D01*
X209166000Y-69819571D02*
X209070761Y-69724333D01*
X209070761Y-69724333D02*
X208975523Y-69676714D01*
X208975523Y-69676714D02*
X208785047Y-69629095D01*
X208785047Y-69629095D02*
X208642190Y-69629095D01*
X208642190Y-69629095D02*
X208451714Y-69676714D01*
X208451714Y-69676714D02*
X208356476Y-69724333D01*
X208356476Y-69724333D02*
X208261238Y-69819571D01*
X208261238Y-69819571D02*
X208213619Y-69962428D01*
X208213619Y-69962428D02*
X208213619Y-70057666D01*
X208213619Y-70057666D02*
X208261238Y-70200523D01*
X208261238Y-70200523D02*
X208308857Y-70248142D01*
X208213619Y-71105285D02*
X208213619Y-70914809D01*
X208213619Y-70914809D02*
X208261238Y-70819571D01*
X208261238Y-70819571D02*
X208308857Y-70771952D01*
X208308857Y-70771952D02*
X208451714Y-70676714D01*
X208451714Y-70676714D02*
X208642190Y-70629095D01*
X208642190Y-70629095D02*
X209023142Y-70629095D01*
X209023142Y-70629095D02*
X209118380Y-70676714D01*
X209118380Y-70676714D02*
X209166000Y-70724333D01*
X209166000Y-70724333D02*
X209213619Y-70819571D01*
X209213619Y-70819571D02*
X209213619Y-71010047D01*
X209213619Y-71010047D02*
X209166000Y-71105285D01*
X209166000Y-71105285D02*
X209118380Y-71152904D01*
X209118380Y-71152904D02*
X209023142Y-71200523D01*
X209023142Y-71200523D02*
X208785047Y-71200523D01*
X208785047Y-71200523D02*
X208689809Y-71152904D01*
X208689809Y-71152904D02*
X208642190Y-71105285D01*
X208642190Y-71105285D02*
X208594571Y-71010047D01*
X208594571Y-71010047D02*
X208594571Y-70819571D01*
X208594571Y-70819571D02*
X208642190Y-70724333D01*
X208642190Y-70724333D02*
X208689809Y-70676714D01*
X208689809Y-70676714D02*
X208785047Y-70629095D01*
X209213619Y-72152904D02*
X209213619Y-71581476D01*
X209213619Y-71867190D02*
X208213619Y-71867190D01*
X208213619Y-71867190D02*
X208356476Y-71771952D01*
X208356476Y-71771952D02*
X208451714Y-71676714D01*
X208451714Y-71676714D02*
X208499333Y-71581476D01*
%TO.C,C80*%
X216793857Y-90746380D02*
X216841476Y-90794000D01*
X216841476Y-90794000D02*
X216984333Y-90841619D01*
X216984333Y-90841619D02*
X217079571Y-90841619D01*
X217079571Y-90841619D02*
X217222428Y-90794000D01*
X217222428Y-90794000D02*
X217317666Y-90698761D01*
X217317666Y-90698761D02*
X217365285Y-90603523D01*
X217365285Y-90603523D02*
X217412904Y-90413047D01*
X217412904Y-90413047D02*
X217412904Y-90270190D01*
X217412904Y-90270190D02*
X217365285Y-90079714D01*
X217365285Y-90079714D02*
X217317666Y-89984476D01*
X217317666Y-89984476D02*
X217222428Y-89889238D01*
X217222428Y-89889238D02*
X217079571Y-89841619D01*
X217079571Y-89841619D02*
X216984333Y-89841619D01*
X216984333Y-89841619D02*
X216841476Y-89889238D01*
X216841476Y-89889238D02*
X216793857Y-89936857D01*
X216222428Y-90270190D02*
X216317666Y-90222571D01*
X216317666Y-90222571D02*
X216365285Y-90174952D01*
X216365285Y-90174952D02*
X216412904Y-90079714D01*
X216412904Y-90079714D02*
X216412904Y-90032095D01*
X216412904Y-90032095D02*
X216365285Y-89936857D01*
X216365285Y-89936857D02*
X216317666Y-89889238D01*
X216317666Y-89889238D02*
X216222428Y-89841619D01*
X216222428Y-89841619D02*
X216031952Y-89841619D01*
X216031952Y-89841619D02*
X215936714Y-89889238D01*
X215936714Y-89889238D02*
X215889095Y-89936857D01*
X215889095Y-89936857D02*
X215841476Y-90032095D01*
X215841476Y-90032095D02*
X215841476Y-90079714D01*
X215841476Y-90079714D02*
X215889095Y-90174952D01*
X215889095Y-90174952D02*
X215936714Y-90222571D01*
X215936714Y-90222571D02*
X216031952Y-90270190D01*
X216031952Y-90270190D02*
X216222428Y-90270190D01*
X216222428Y-90270190D02*
X216317666Y-90317809D01*
X216317666Y-90317809D02*
X216365285Y-90365428D01*
X216365285Y-90365428D02*
X216412904Y-90460666D01*
X216412904Y-90460666D02*
X216412904Y-90651142D01*
X216412904Y-90651142D02*
X216365285Y-90746380D01*
X216365285Y-90746380D02*
X216317666Y-90794000D01*
X216317666Y-90794000D02*
X216222428Y-90841619D01*
X216222428Y-90841619D02*
X216031952Y-90841619D01*
X216031952Y-90841619D02*
X215936714Y-90794000D01*
X215936714Y-90794000D02*
X215889095Y-90746380D01*
X215889095Y-90746380D02*
X215841476Y-90651142D01*
X215841476Y-90651142D02*
X215841476Y-90460666D01*
X215841476Y-90460666D02*
X215889095Y-90365428D01*
X215889095Y-90365428D02*
X215936714Y-90317809D01*
X215936714Y-90317809D02*
X216031952Y-90270190D01*
X215222428Y-89841619D02*
X215127190Y-89841619D01*
X215127190Y-89841619D02*
X215031952Y-89889238D01*
X215031952Y-89889238D02*
X214984333Y-89936857D01*
X214984333Y-89936857D02*
X214936714Y-90032095D01*
X214936714Y-90032095D02*
X214889095Y-90222571D01*
X214889095Y-90222571D02*
X214889095Y-90460666D01*
X214889095Y-90460666D02*
X214936714Y-90651142D01*
X214936714Y-90651142D02*
X214984333Y-90746380D01*
X214984333Y-90746380D02*
X215031952Y-90794000D01*
X215031952Y-90794000D02*
X215127190Y-90841619D01*
X215127190Y-90841619D02*
X215222428Y-90841619D01*
X215222428Y-90841619D02*
X215317666Y-90794000D01*
X215317666Y-90794000D02*
X215365285Y-90746380D01*
X215365285Y-90746380D02*
X215412904Y-90651142D01*
X215412904Y-90651142D02*
X215460523Y-90460666D01*
X215460523Y-90460666D02*
X215460523Y-90222571D01*
X215460523Y-90222571D02*
X215412904Y-90032095D01*
X215412904Y-90032095D02*
X215365285Y-89936857D01*
X215365285Y-89936857D02*
X215317666Y-89889238D01*
X215317666Y-89889238D02*
X215222428Y-89841619D01*
%TO.C,C66*%
X231535857Y-93322380D02*
X231583476Y-93370000D01*
X231583476Y-93370000D02*
X231726333Y-93417619D01*
X231726333Y-93417619D02*
X231821571Y-93417619D01*
X231821571Y-93417619D02*
X231964428Y-93370000D01*
X231964428Y-93370000D02*
X232059666Y-93274761D01*
X232059666Y-93274761D02*
X232107285Y-93179523D01*
X232107285Y-93179523D02*
X232154904Y-92989047D01*
X232154904Y-92989047D02*
X232154904Y-92846190D01*
X232154904Y-92846190D02*
X232107285Y-92655714D01*
X232107285Y-92655714D02*
X232059666Y-92560476D01*
X232059666Y-92560476D02*
X231964428Y-92465238D01*
X231964428Y-92465238D02*
X231821571Y-92417619D01*
X231821571Y-92417619D02*
X231726333Y-92417619D01*
X231726333Y-92417619D02*
X231583476Y-92465238D01*
X231583476Y-92465238D02*
X231535857Y-92512857D01*
X230678714Y-92417619D02*
X230869190Y-92417619D01*
X230869190Y-92417619D02*
X230964428Y-92465238D01*
X230964428Y-92465238D02*
X231012047Y-92512857D01*
X231012047Y-92512857D02*
X231107285Y-92655714D01*
X231107285Y-92655714D02*
X231154904Y-92846190D01*
X231154904Y-92846190D02*
X231154904Y-93227142D01*
X231154904Y-93227142D02*
X231107285Y-93322380D01*
X231107285Y-93322380D02*
X231059666Y-93370000D01*
X231059666Y-93370000D02*
X230964428Y-93417619D01*
X230964428Y-93417619D02*
X230773952Y-93417619D01*
X230773952Y-93417619D02*
X230678714Y-93370000D01*
X230678714Y-93370000D02*
X230631095Y-93322380D01*
X230631095Y-93322380D02*
X230583476Y-93227142D01*
X230583476Y-93227142D02*
X230583476Y-92989047D01*
X230583476Y-92989047D02*
X230631095Y-92893809D01*
X230631095Y-92893809D02*
X230678714Y-92846190D01*
X230678714Y-92846190D02*
X230773952Y-92798571D01*
X230773952Y-92798571D02*
X230964428Y-92798571D01*
X230964428Y-92798571D02*
X231059666Y-92846190D01*
X231059666Y-92846190D02*
X231107285Y-92893809D01*
X231107285Y-92893809D02*
X231154904Y-92989047D01*
X229726333Y-92417619D02*
X229916809Y-92417619D01*
X229916809Y-92417619D02*
X230012047Y-92465238D01*
X230012047Y-92465238D02*
X230059666Y-92512857D01*
X230059666Y-92512857D02*
X230154904Y-92655714D01*
X230154904Y-92655714D02*
X230202523Y-92846190D01*
X230202523Y-92846190D02*
X230202523Y-93227142D01*
X230202523Y-93227142D02*
X230154904Y-93322380D01*
X230154904Y-93322380D02*
X230107285Y-93370000D01*
X230107285Y-93370000D02*
X230012047Y-93417619D01*
X230012047Y-93417619D02*
X229821571Y-93417619D01*
X229821571Y-93417619D02*
X229726333Y-93370000D01*
X229726333Y-93370000D02*
X229678714Y-93322380D01*
X229678714Y-93322380D02*
X229631095Y-93227142D01*
X229631095Y-93227142D02*
X229631095Y-92989047D01*
X229631095Y-92989047D02*
X229678714Y-92893809D01*
X229678714Y-92893809D02*
X229726333Y-92846190D01*
X229726333Y-92846190D02*
X229821571Y-92798571D01*
X229821571Y-92798571D02*
X230012047Y-92798571D01*
X230012047Y-92798571D02*
X230107285Y-92846190D01*
X230107285Y-92846190D02*
X230154904Y-92893809D01*
X230154904Y-92893809D02*
X230202523Y-92989047D01*
%TO.C,C17*%
X226322380Y-103458166D02*
X226370000Y-103410547D01*
X226370000Y-103410547D02*
X226417619Y-103267690D01*
X226417619Y-103267690D02*
X226417619Y-103172452D01*
X226417619Y-103172452D02*
X226370000Y-103029595D01*
X226370000Y-103029595D02*
X226274761Y-102934357D01*
X226274761Y-102934357D02*
X226179523Y-102886738D01*
X226179523Y-102886738D02*
X225989047Y-102839119D01*
X225989047Y-102839119D02*
X225846190Y-102839119D01*
X225846190Y-102839119D02*
X225655714Y-102886738D01*
X225655714Y-102886738D02*
X225560476Y-102934357D01*
X225560476Y-102934357D02*
X225465238Y-103029595D01*
X225465238Y-103029595D02*
X225417619Y-103172452D01*
X225417619Y-103172452D02*
X225417619Y-103267690D01*
X225417619Y-103267690D02*
X225465238Y-103410547D01*
X225465238Y-103410547D02*
X225512857Y-103458166D01*
X226417619Y-104410547D02*
X226417619Y-103839119D01*
X226417619Y-104124833D02*
X225417619Y-104124833D01*
X225417619Y-104124833D02*
X225560476Y-104029595D01*
X225560476Y-104029595D02*
X225655714Y-103934357D01*
X225655714Y-103934357D02*
X225703333Y-103839119D01*
X225417619Y-104743881D02*
X225417619Y-105410547D01*
X225417619Y-105410547D02*
X226417619Y-104981976D01*
%TO.C,C62*%
X190819857Y-67136380D02*
X190867476Y-67184000D01*
X190867476Y-67184000D02*
X191010333Y-67231619D01*
X191010333Y-67231619D02*
X191105571Y-67231619D01*
X191105571Y-67231619D02*
X191248428Y-67184000D01*
X191248428Y-67184000D02*
X191343666Y-67088761D01*
X191343666Y-67088761D02*
X191391285Y-66993523D01*
X191391285Y-66993523D02*
X191438904Y-66803047D01*
X191438904Y-66803047D02*
X191438904Y-66660190D01*
X191438904Y-66660190D02*
X191391285Y-66469714D01*
X191391285Y-66469714D02*
X191343666Y-66374476D01*
X191343666Y-66374476D02*
X191248428Y-66279238D01*
X191248428Y-66279238D02*
X191105571Y-66231619D01*
X191105571Y-66231619D02*
X191010333Y-66231619D01*
X191010333Y-66231619D02*
X190867476Y-66279238D01*
X190867476Y-66279238D02*
X190819857Y-66326857D01*
X189962714Y-66231619D02*
X190153190Y-66231619D01*
X190153190Y-66231619D02*
X190248428Y-66279238D01*
X190248428Y-66279238D02*
X190296047Y-66326857D01*
X190296047Y-66326857D02*
X190391285Y-66469714D01*
X190391285Y-66469714D02*
X190438904Y-66660190D01*
X190438904Y-66660190D02*
X190438904Y-67041142D01*
X190438904Y-67041142D02*
X190391285Y-67136380D01*
X190391285Y-67136380D02*
X190343666Y-67184000D01*
X190343666Y-67184000D02*
X190248428Y-67231619D01*
X190248428Y-67231619D02*
X190057952Y-67231619D01*
X190057952Y-67231619D02*
X189962714Y-67184000D01*
X189962714Y-67184000D02*
X189915095Y-67136380D01*
X189915095Y-67136380D02*
X189867476Y-67041142D01*
X189867476Y-67041142D02*
X189867476Y-66803047D01*
X189867476Y-66803047D02*
X189915095Y-66707809D01*
X189915095Y-66707809D02*
X189962714Y-66660190D01*
X189962714Y-66660190D02*
X190057952Y-66612571D01*
X190057952Y-66612571D02*
X190248428Y-66612571D01*
X190248428Y-66612571D02*
X190343666Y-66660190D01*
X190343666Y-66660190D02*
X190391285Y-66707809D01*
X190391285Y-66707809D02*
X190438904Y-66803047D01*
X189486523Y-66326857D02*
X189438904Y-66279238D01*
X189438904Y-66279238D02*
X189343666Y-66231619D01*
X189343666Y-66231619D02*
X189105571Y-66231619D01*
X189105571Y-66231619D02*
X189010333Y-66279238D01*
X189010333Y-66279238D02*
X188962714Y-66326857D01*
X188962714Y-66326857D02*
X188915095Y-66422095D01*
X188915095Y-66422095D02*
X188915095Y-66517333D01*
X188915095Y-66517333D02*
X188962714Y-66660190D01*
X188962714Y-66660190D02*
X189534142Y-67231619D01*
X189534142Y-67231619D02*
X188915095Y-67231619D01*
%TO.C,C40*%
X207266520Y-101248380D02*
X207314139Y-101296000D01*
X207314139Y-101296000D02*
X207456996Y-101343619D01*
X207456996Y-101343619D02*
X207552234Y-101343619D01*
X207552234Y-101343619D02*
X207695091Y-101296000D01*
X207695091Y-101296000D02*
X207790329Y-101200761D01*
X207790329Y-101200761D02*
X207837948Y-101105523D01*
X207837948Y-101105523D02*
X207885567Y-100915047D01*
X207885567Y-100915047D02*
X207885567Y-100772190D01*
X207885567Y-100772190D02*
X207837948Y-100581714D01*
X207837948Y-100581714D02*
X207790329Y-100486476D01*
X207790329Y-100486476D02*
X207695091Y-100391238D01*
X207695091Y-100391238D02*
X207552234Y-100343619D01*
X207552234Y-100343619D02*
X207456996Y-100343619D01*
X207456996Y-100343619D02*
X207314139Y-100391238D01*
X207314139Y-100391238D02*
X207266520Y-100438857D01*
X206409377Y-100676952D02*
X206409377Y-101343619D01*
X206647472Y-100296000D02*
X206885567Y-101010285D01*
X206885567Y-101010285D02*
X206266520Y-101010285D01*
X205695091Y-100343619D02*
X205599853Y-100343619D01*
X205599853Y-100343619D02*
X205504615Y-100391238D01*
X205504615Y-100391238D02*
X205456996Y-100438857D01*
X205456996Y-100438857D02*
X205409377Y-100534095D01*
X205409377Y-100534095D02*
X205361758Y-100724571D01*
X205361758Y-100724571D02*
X205361758Y-100962666D01*
X205361758Y-100962666D02*
X205409377Y-101153142D01*
X205409377Y-101153142D02*
X205456996Y-101248380D01*
X205456996Y-101248380D02*
X205504615Y-101296000D01*
X205504615Y-101296000D02*
X205599853Y-101343619D01*
X205599853Y-101343619D02*
X205695091Y-101343619D01*
X205695091Y-101343619D02*
X205790329Y-101296000D01*
X205790329Y-101296000D02*
X205837948Y-101248380D01*
X205837948Y-101248380D02*
X205885567Y-101153142D01*
X205885567Y-101153142D02*
X205933186Y-100962666D01*
X205933186Y-100962666D02*
X205933186Y-100724571D01*
X205933186Y-100724571D02*
X205885567Y-100534095D01*
X205885567Y-100534095D02*
X205837948Y-100438857D01*
X205837948Y-100438857D02*
X205790329Y-100391238D01*
X205790329Y-100391238D02*
X205695091Y-100343619D01*
%TO.C,C57*%
X190937857Y-62064380D02*
X190985476Y-62112000D01*
X190985476Y-62112000D02*
X191128333Y-62159619D01*
X191128333Y-62159619D02*
X191223571Y-62159619D01*
X191223571Y-62159619D02*
X191366428Y-62112000D01*
X191366428Y-62112000D02*
X191461666Y-62016761D01*
X191461666Y-62016761D02*
X191509285Y-61921523D01*
X191509285Y-61921523D02*
X191556904Y-61731047D01*
X191556904Y-61731047D02*
X191556904Y-61588190D01*
X191556904Y-61588190D02*
X191509285Y-61397714D01*
X191509285Y-61397714D02*
X191461666Y-61302476D01*
X191461666Y-61302476D02*
X191366428Y-61207238D01*
X191366428Y-61207238D02*
X191223571Y-61159619D01*
X191223571Y-61159619D02*
X191128333Y-61159619D01*
X191128333Y-61159619D02*
X190985476Y-61207238D01*
X190985476Y-61207238D02*
X190937857Y-61254857D01*
X190033095Y-61159619D02*
X190509285Y-61159619D01*
X190509285Y-61159619D02*
X190556904Y-61635809D01*
X190556904Y-61635809D02*
X190509285Y-61588190D01*
X190509285Y-61588190D02*
X190414047Y-61540571D01*
X190414047Y-61540571D02*
X190175952Y-61540571D01*
X190175952Y-61540571D02*
X190080714Y-61588190D01*
X190080714Y-61588190D02*
X190033095Y-61635809D01*
X190033095Y-61635809D02*
X189985476Y-61731047D01*
X189985476Y-61731047D02*
X189985476Y-61969142D01*
X189985476Y-61969142D02*
X190033095Y-62064380D01*
X190033095Y-62064380D02*
X190080714Y-62112000D01*
X190080714Y-62112000D02*
X190175952Y-62159619D01*
X190175952Y-62159619D02*
X190414047Y-62159619D01*
X190414047Y-62159619D02*
X190509285Y-62112000D01*
X190509285Y-62112000D02*
X190556904Y-62064380D01*
X189652142Y-61159619D02*
X188985476Y-61159619D01*
X188985476Y-61159619D02*
X189414047Y-62159619D01*
%TO.C,C33*%
X208018380Y-96726142D02*
X208066000Y-96678523D01*
X208066000Y-96678523D02*
X208113619Y-96535666D01*
X208113619Y-96535666D02*
X208113619Y-96440428D01*
X208113619Y-96440428D02*
X208066000Y-96297571D01*
X208066000Y-96297571D02*
X207970761Y-96202333D01*
X207970761Y-96202333D02*
X207875523Y-96154714D01*
X207875523Y-96154714D02*
X207685047Y-96107095D01*
X207685047Y-96107095D02*
X207542190Y-96107095D01*
X207542190Y-96107095D02*
X207351714Y-96154714D01*
X207351714Y-96154714D02*
X207256476Y-96202333D01*
X207256476Y-96202333D02*
X207161238Y-96297571D01*
X207161238Y-96297571D02*
X207113619Y-96440428D01*
X207113619Y-96440428D02*
X207113619Y-96535666D01*
X207113619Y-96535666D02*
X207161238Y-96678523D01*
X207161238Y-96678523D02*
X207208857Y-96726142D01*
X207113619Y-97059476D02*
X207113619Y-97678523D01*
X207113619Y-97678523D02*
X207494571Y-97345190D01*
X207494571Y-97345190D02*
X207494571Y-97488047D01*
X207494571Y-97488047D02*
X207542190Y-97583285D01*
X207542190Y-97583285D02*
X207589809Y-97630904D01*
X207589809Y-97630904D02*
X207685047Y-97678523D01*
X207685047Y-97678523D02*
X207923142Y-97678523D01*
X207923142Y-97678523D02*
X208018380Y-97630904D01*
X208018380Y-97630904D02*
X208066000Y-97583285D01*
X208066000Y-97583285D02*
X208113619Y-97488047D01*
X208113619Y-97488047D02*
X208113619Y-97202333D01*
X208113619Y-97202333D02*
X208066000Y-97107095D01*
X208066000Y-97107095D02*
X208018380Y-97059476D01*
X207113619Y-98011857D02*
X207113619Y-98630904D01*
X207113619Y-98630904D02*
X207494571Y-98297571D01*
X207494571Y-98297571D02*
X207494571Y-98440428D01*
X207494571Y-98440428D02*
X207542190Y-98535666D01*
X207542190Y-98535666D02*
X207589809Y-98583285D01*
X207589809Y-98583285D02*
X207685047Y-98630904D01*
X207685047Y-98630904D02*
X207923142Y-98630904D01*
X207923142Y-98630904D02*
X208018380Y-98583285D01*
X208018380Y-98583285D02*
X208066000Y-98535666D01*
X208066000Y-98535666D02*
X208113619Y-98440428D01*
X208113619Y-98440428D02*
X208113619Y-98154714D01*
X208113619Y-98154714D02*
X208066000Y-98059476D01*
X208066000Y-98059476D02*
X208018380Y-98011857D01*
%TO.C,R16*%
X202301617Y-96068142D02*
X201825426Y-95734809D01*
X202301617Y-95496714D02*
X201301617Y-95496714D01*
X201301617Y-95496714D02*
X201301617Y-95877666D01*
X201301617Y-95877666D02*
X201349236Y-95972904D01*
X201349236Y-95972904D02*
X201396855Y-96020523D01*
X201396855Y-96020523D02*
X201492093Y-96068142D01*
X201492093Y-96068142D02*
X201634950Y-96068142D01*
X201634950Y-96068142D02*
X201730188Y-96020523D01*
X201730188Y-96020523D02*
X201777807Y-95972904D01*
X201777807Y-95972904D02*
X201825426Y-95877666D01*
X201825426Y-95877666D02*
X201825426Y-95496714D01*
X202301617Y-97020523D02*
X202301617Y-96449095D01*
X202301617Y-96734809D02*
X201301617Y-96734809D01*
X201301617Y-96734809D02*
X201444474Y-96639571D01*
X201444474Y-96639571D02*
X201539712Y-96544333D01*
X201539712Y-96544333D02*
X201587331Y-96449095D01*
X201301617Y-97877666D02*
X201301617Y-97687190D01*
X201301617Y-97687190D02*
X201349236Y-97591952D01*
X201349236Y-97591952D02*
X201396855Y-97544333D01*
X201396855Y-97544333D02*
X201539712Y-97449095D01*
X201539712Y-97449095D02*
X201730188Y-97401476D01*
X201730188Y-97401476D02*
X202111140Y-97401476D01*
X202111140Y-97401476D02*
X202206378Y-97449095D01*
X202206378Y-97449095D02*
X202253998Y-97496714D01*
X202253998Y-97496714D02*
X202301617Y-97591952D01*
X202301617Y-97591952D02*
X202301617Y-97782428D01*
X202301617Y-97782428D02*
X202253998Y-97877666D01*
X202253998Y-97877666D02*
X202206378Y-97925285D01*
X202206378Y-97925285D02*
X202111140Y-97972904D01*
X202111140Y-97972904D02*
X201873045Y-97972904D01*
X201873045Y-97972904D02*
X201777807Y-97925285D01*
X201777807Y-97925285D02*
X201730188Y-97877666D01*
X201730188Y-97877666D02*
X201682569Y-97782428D01*
X201682569Y-97782428D02*
X201682569Y-97591952D01*
X201682569Y-97591952D02*
X201730188Y-97496714D01*
X201730188Y-97496714D02*
X201777807Y-97449095D01*
X201777807Y-97449095D02*
X201873045Y-97401476D01*
%TO.C,C47*%
X209469379Y-113721142D02*
X209516999Y-113673523D01*
X209516999Y-113673523D02*
X209564618Y-113530666D01*
X209564618Y-113530666D02*
X209564618Y-113435428D01*
X209564618Y-113435428D02*
X209516999Y-113292571D01*
X209516999Y-113292571D02*
X209421760Y-113197333D01*
X209421760Y-113197333D02*
X209326522Y-113149714D01*
X209326522Y-113149714D02*
X209136046Y-113102095D01*
X209136046Y-113102095D02*
X208993189Y-113102095D01*
X208993189Y-113102095D02*
X208802713Y-113149714D01*
X208802713Y-113149714D02*
X208707475Y-113197333D01*
X208707475Y-113197333D02*
X208612237Y-113292571D01*
X208612237Y-113292571D02*
X208564618Y-113435428D01*
X208564618Y-113435428D02*
X208564618Y-113530666D01*
X208564618Y-113530666D02*
X208612237Y-113673523D01*
X208612237Y-113673523D02*
X208659856Y-113721142D01*
X208897951Y-114578285D02*
X209564618Y-114578285D01*
X208516999Y-114340190D02*
X209231284Y-114102095D01*
X209231284Y-114102095D02*
X209231284Y-114721142D01*
X208564618Y-115006857D02*
X208564618Y-115673523D01*
X208564618Y-115673523D02*
X209564618Y-115244952D01*
%TO.C,C55*%
X190931857Y-59524380D02*
X190979476Y-59572000D01*
X190979476Y-59572000D02*
X191122333Y-59619619D01*
X191122333Y-59619619D02*
X191217571Y-59619619D01*
X191217571Y-59619619D02*
X191360428Y-59572000D01*
X191360428Y-59572000D02*
X191455666Y-59476761D01*
X191455666Y-59476761D02*
X191503285Y-59381523D01*
X191503285Y-59381523D02*
X191550904Y-59191047D01*
X191550904Y-59191047D02*
X191550904Y-59048190D01*
X191550904Y-59048190D02*
X191503285Y-58857714D01*
X191503285Y-58857714D02*
X191455666Y-58762476D01*
X191455666Y-58762476D02*
X191360428Y-58667238D01*
X191360428Y-58667238D02*
X191217571Y-58619619D01*
X191217571Y-58619619D02*
X191122333Y-58619619D01*
X191122333Y-58619619D02*
X190979476Y-58667238D01*
X190979476Y-58667238D02*
X190931857Y-58714857D01*
X190027095Y-58619619D02*
X190503285Y-58619619D01*
X190503285Y-58619619D02*
X190550904Y-59095809D01*
X190550904Y-59095809D02*
X190503285Y-59048190D01*
X190503285Y-59048190D02*
X190408047Y-59000571D01*
X190408047Y-59000571D02*
X190169952Y-59000571D01*
X190169952Y-59000571D02*
X190074714Y-59048190D01*
X190074714Y-59048190D02*
X190027095Y-59095809D01*
X190027095Y-59095809D02*
X189979476Y-59191047D01*
X189979476Y-59191047D02*
X189979476Y-59429142D01*
X189979476Y-59429142D02*
X190027095Y-59524380D01*
X190027095Y-59524380D02*
X190074714Y-59572000D01*
X190074714Y-59572000D02*
X190169952Y-59619619D01*
X190169952Y-59619619D02*
X190408047Y-59619619D01*
X190408047Y-59619619D02*
X190503285Y-59572000D01*
X190503285Y-59572000D02*
X190550904Y-59524380D01*
X189074714Y-58619619D02*
X189550904Y-58619619D01*
X189550904Y-58619619D02*
X189598523Y-59095809D01*
X189598523Y-59095809D02*
X189550904Y-59048190D01*
X189550904Y-59048190D02*
X189455666Y-59000571D01*
X189455666Y-59000571D02*
X189217571Y-59000571D01*
X189217571Y-59000571D02*
X189122333Y-59048190D01*
X189122333Y-59048190D02*
X189074714Y-59095809D01*
X189074714Y-59095809D02*
X189027095Y-59191047D01*
X189027095Y-59191047D02*
X189027095Y-59429142D01*
X189027095Y-59429142D02*
X189074714Y-59524380D01*
X189074714Y-59524380D02*
X189122333Y-59572000D01*
X189122333Y-59572000D02*
X189217571Y-59619619D01*
X189217571Y-59619619D02*
X189455666Y-59619619D01*
X189455666Y-59619619D02*
X189550904Y-59572000D01*
X189550904Y-59572000D02*
X189598523Y-59524380D01*
%TO.C,R33*%
X223369857Y-65196953D02*
X223703190Y-64720762D01*
X223941285Y-65196953D02*
X223941285Y-64196953D01*
X223941285Y-64196953D02*
X223560333Y-64196953D01*
X223560333Y-64196953D02*
X223465095Y-64244572D01*
X223465095Y-64244572D02*
X223417476Y-64292191D01*
X223417476Y-64292191D02*
X223369857Y-64387429D01*
X223369857Y-64387429D02*
X223369857Y-64530286D01*
X223369857Y-64530286D02*
X223417476Y-64625524D01*
X223417476Y-64625524D02*
X223465095Y-64673143D01*
X223465095Y-64673143D02*
X223560333Y-64720762D01*
X223560333Y-64720762D02*
X223941285Y-64720762D01*
X223036523Y-64196953D02*
X222417476Y-64196953D01*
X222417476Y-64196953D02*
X222750809Y-64577905D01*
X222750809Y-64577905D02*
X222607952Y-64577905D01*
X222607952Y-64577905D02*
X222512714Y-64625524D01*
X222512714Y-64625524D02*
X222465095Y-64673143D01*
X222465095Y-64673143D02*
X222417476Y-64768381D01*
X222417476Y-64768381D02*
X222417476Y-65006476D01*
X222417476Y-65006476D02*
X222465095Y-65101714D01*
X222465095Y-65101714D02*
X222512714Y-65149334D01*
X222512714Y-65149334D02*
X222607952Y-65196953D01*
X222607952Y-65196953D02*
X222893666Y-65196953D01*
X222893666Y-65196953D02*
X222988904Y-65149334D01*
X222988904Y-65149334D02*
X223036523Y-65101714D01*
X222084142Y-64196953D02*
X221465095Y-64196953D01*
X221465095Y-64196953D02*
X221798428Y-64577905D01*
X221798428Y-64577905D02*
X221655571Y-64577905D01*
X221655571Y-64577905D02*
X221560333Y-64625524D01*
X221560333Y-64625524D02*
X221512714Y-64673143D01*
X221512714Y-64673143D02*
X221465095Y-64768381D01*
X221465095Y-64768381D02*
X221465095Y-65006476D01*
X221465095Y-65006476D02*
X221512714Y-65101714D01*
X221512714Y-65101714D02*
X221560333Y-65149334D01*
X221560333Y-65149334D02*
X221655571Y-65196953D01*
X221655571Y-65196953D02*
X221941285Y-65196953D01*
X221941285Y-65196953D02*
X222036523Y-65149334D01*
X222036523Y-65149334D02*
X222084142Y-65101714D01*
%TO.C,R23*%
X204921615Y-113484142D02*
X204445424Y-113150809D01*
X204921615Y-112912714D02*
X203921615Y-112912714D01*
X203921615Y-112912714D02*
X203921615Y-113293666D01*
X203921615Y-113293666D02*
X203969234Y-113388904D01*
X203969234Y-113388904D02*
X204016853Y-113436523D01*
X204016853Y-113436523D02*
X204112091Y-113484142D01*
X204112091Y-113484142D02*
X204254948Y-113484142D01*
X204254948Y-113484142D02*
X204350186Y-113436523D01*
X204350186Y-113436523D02*
X204397805Y-113388904D01*
X204397805Y-113388904D02*
X204445424Y-113293666D01*
X204445424Y-113293666D02*
X204445424Y-112912714D01*
X204016853Y-113865095D02*
X203969234Y-113912714D01*
X203969234Y-113912714D02*
X203921615Y-114007952D01*
X203921615Y-114007952D02*
X203921615Y-114246047D01*
X203921615Y-114246047D02*
X203969234Y-114341285D01*
X203969234Y-114341285D02*
X204016853Y-114388904D01*
X204016853Y-114388904D02*
X204112091Y-114436523D01*
X204112091Y-114436523D02*
X204207329Y-114436523D01*
X204207329Y-114436523D02*
X204350186Y-114388904D01*
X204350186Y-114388904D02*
X204921615Y-113817476D01*
X204921615Y-113817476D02*
X204921615Y-114436523D01*
X203921615Y-114769857D02*
X203921615Y-115388904D01*
X203921615Y-115388904D02*
X204302567Y-115055571D01*
X204302567Y-115055571D02*
X204302567Y-115198428D01*
X204302567Y-115198428D02*
X204350186Y-115293666D01*
X204350186Y-115293666D02*
X204397805Y-115341285D01*
X204397805Y-115341285D02*
X204493043Y-115388904D01*
X204493043Y-115388904D02*
X204731138Y-115388904D01*
X204731138Y-115388904D02*
X204826376Y-115341285D01*
X204826376Y-115341285D02*
X204873996Y-115293666D01*
X204873996Y-115293666D02*
X204921615Y-115198428D01*
X204921615Y-115198428D02*
X204921615Y-114912714D01*
X204921615Y-114912714D02*
X204873996Y-114817476D01*
X204873996Y-114817476D02*
X204826376Y-114769857D01*
%TO.C,C11*%
X206450380Y-76690142D02*
X206498000Y-76642523D01*
X206498000Y-76642523D02*
X206545619Y-76499666D01*
X206545619Y-76499666D02*
X206545619Y-76404428D01*
X206545619Y-76404428D02*
X206498000Y-76261571D01*
X206498000Y-76261571D02*
X206402761Y-76166333D01*
X206402761Y-76166333D02*
X206307523Y-76118714D01*
X206307523Y-76118714D02*
X206117047Y-76071095D01*
X206117047Y-76071095D02*
X205974190Y-76071095D01*
X205974190Y-76071095D02*
X205783714Y-76118714D01*
X205783714Y-76118714D02*
X205688476Y-76166333D01*
X205688476Y-76166333D02*
X205593238Y-76261571D01*
X205593238Y-76261571D02*
X205545619Y-76404428D01*
X205545619Y-76404428D02*
X205545619Y-76499666D01*
X205545619Y-76499666D02*
X205593238Y-76642523D01*
X205593238Y-76642523D02*
X205640857Y-76690142D01*
X206545619Y-77642523D02*
X206545619Y-77071095D01*
X206545619Y-77356809D02*
X205545619Y-77356809D01*
X205545619Y-77356809D02*
X205688476Y-77261571D01*
X205688476Y-77261571D02*
X205783714Y-77166333D01*
X205783714Y-77166333D02*
X205831333Y-77071095D01*
X206545619Y-78594904D02*
X206545619Y-78023476D01*
X206545619Y-78309190D02*
X205545619Y-78309190D01*
X205545619Y-78309190D02*
X205688476Y-78213952D01*
X205688476Y-78213952D02*
X205783714Y-78118714D01*
X205783714Y-78118714D02*
X205831333Y-78023476D01*
%TO.C,C14*%
X222810380Y-86518142D02*
X222858000Y-86470523D01*
X222858000Y-86470523D02*
X222905619Y-86327666D01*
X222905619Y-86327666D02*
X222905619Y-86232428D01*
X222905619Y-86232428D02*
X222858000Y-86089571D01*
X222858000Y-86089571D02*
X222762761Y-85994333D01*
X222762761Y-85994333D02*
X222667523Y-85946714D01*
X222667523Y-85946714D02*
X222477047Y-85899095D01*
X222477047Y-85899095D02*
X222334190Y-85899095D01*
X222334190Y-85899095D02*
X222143714Y-85946714D01*
X222143714Y-85946714D02*
X222048476Y-85994333D01*
X222048476Y-85994333D02*
X221953238Y-86089571D01*
X221953238Y-86089571D02*
X221905619Y-86232428D01*
X221905619Y-86232428D02*
X221905619Y-86327666D01*
X221905619Y-86327666D02*
X221953238Y-86470523D01*
X221953238Y-86470523D02*
X222000857Y-86518142D01*
X222905619Y-87470523D02*
X222905619Y-86899095D01*
X222905619Y-87184809D02*
X221905619Y-87184809D01*
X221905619Y-87184809D02*
X222048476Y-87089571D01*
X222048476Y-87089571D02*
X222143714Y-86994333D01*
X222143714Y-86994333D02*
X222191333Y-86899095D01*
X222238952Y-88327666D02*
X222905619Y-88327666D01*
X221858000Y-88089571D02*
X222572285Y-87851476D01*
X222572285Y-87851476D02*
X222572285Y-88470523D01*
%TO.C,R10*%
X232485619Y-101682142D02*
X232009428Y-101348809D01*
X232485619Y-101110714D02*
X231485619Y-101110714D01*
X231485619Y-101110714D02*
X231485619Y-101491666D01*
X231485619Y-101491666D02*
X231533238Y-101586904D01*
X231533238Y-101586904D02*
X231580857Y-101634523D01*
X231580857Y-101634523D02*
X231676095Y-101682142D01*
X231676095Y-101682142D02*
X231818952Y-101682142D01*
X231818952Y-101682142D02*
X231914190Y-101634523D01*
X231914190Y-101634523D02*
X231961809Y-101586904D01*
X231961809Y-101586904D02*
X232009428Y-101491666D01*
X232009428Y-101491666D02*
X232009428Y-101110714D01*
X232485619Y-102634523D02*
X232485619Y-102063095D01*
X232485619Y-102348809D02*
X231485619Y-102348809D01*
X231485619Y-102348809D02*
X231628476Y-102253571D01*
X231628476Y-102253571D02*
X231723714Y-102158333D01*
X231723714Y-102158333D02*
X231771333Y-102063095D01*
X231485619Y-103253571D02*
X231485619Y-103348809D01*
X231485619Y-103348809D02*
X231533238Y-103444047D01*
X231533238Y-103444047D02*
X231580857Y-103491666D01*
X231580857Y-103491666D02*
X231676095Y-103539285D01*
X231676095Y-103539285D02*
X231866571Y-103586904D01*
X231866571Y-103586904D02*
X232104666Y-103586904D01*
X232104666Y-103586904D02*
X232295142Y-103539285D01*
X232295142Y-103539285D02*
X232390380Y-103491666D01*
X232390380Y-103491666D02*
X232438000Y-103444047D01*
X232438000Y-103444047D02*
X232485619Y-103348809D01*
X232485619Y-103348809D02*
X232485619Y-103253571D01*
X232485619Y-103253571D02*
X232438000Y-103158333D01*
X232438000Y-103158333D02*
X232390380Y-103110714D01*
X232390380Y-103110714D02*
X232295142Y-103063095D01*
X232295142Y-103063095D02*
X232104666Y-103015476D01*
X232104666Y-103015476D02*
X231866571Y-103015476D01*
X231866571Y-103015476D02*
X231676095Y-103063095D01*
X231676095Y-103063095D02*
X231580857Y-103110714D01*
X231580857Y-103110714D02*
X231533238Y-103158333D01*
X231533238Y-103158333D02*
X231485619Y-103253571D01*
%TO.C,C76*%
X236649098Y-98498380D02*
X236696717Y-98546000D01*
X236696717Y-98546000D02*
X236839574Y-98593619D01*
X236839574Y-98593619D02*
X236934812Y-98593619D01*
X236934812Y-98593619D02*
X237077669Y-98546000D01*
X237077669Y-98546000D02*
X237172907Y-98450761D01*
X237172907Y-98450761D02*
X237220526Y-98355523D01*
X237220526Y-98355523D02*
X237268145Y-98165047D01*
X237268145Y-98165047D02*
X237268145Y-98022190D01*
X237268145Y-98022190D02*
X237220526Y-97831714D01*
X237220526Y-97831714D02*
X237172907Y-97736476D01*
X237172907Y-97736476D02*
X237077669Y-97641238D01*
X237077669Y-97641238D02*
X236934812Y-97593619D01*
X236934812Y-97593619D02*
X236839574Y-97593619D01*
X236839574Y-97593619D02*
X236696717Y-97641238D01*
X236696717Y-97641238D02*
X236649098Y-97688857D01*
X236315764Y-97593619D02*
X235649098Y-97593619D01*
X235649098Y-97593619D02*
X236077669Y-98593619D01*
X234839574Y-97593619D02*
X235030050Y-97593619D01*
X235030050Y-97593619D02*
X235125288Y-97641238D01*
X235125288Y-97641238D02*
X235172907Y-97688857D01*
X235172907Y-97688857D02*
X235268145Y-97831714D01*
X235268145Y-97831714D02*
X235315764Y-98022190D01*
X235315764Y-98022190D02*
X235315764Y-98403142D01*
X235315764Y-98403142D02*
X235268145Y-98498380D01*
X235268145Y-98498380D02*
X235220526Y-98546000D01*
X235220526Y-98546000D02*
X235125288Y-98593619D01*
X235125288Y-98593619D02*
X234934812Y-98593619D01*
X234934812Y-98593619D02*
X234839574Y-98546000D01*
X234839574Y-98546000D02*
X234791955Y-98498380D01*
X234791955Y-98498380D02*
X234744336Y-98403142D01*
X234744336Y-98403142D02*
X234744336Y-98165047D01*
X234744336Y-98165047D02*
X234791955Y-98069809D01*
X234791955Y-98069809D02*
X234839574Y-98022190D01*
X234839574Y-98022190D02*
X234934812Y-97974571D01*
X234934812Y-97974571D02*
X235125288Y-97974571D01*
X235125288Y-97974571D02*
X235220526Y-98022190D01*
X235220526Y-98022190D02*
X235268145Y-98069809D01*
X235268145Y-98069809D02*
X235315764Y-98165047D01*
%TO.C,C77*%
X239415857Y-110179621D02*
X239463476Y-110227241D01*
X239463476Y-110227241D02*
X239606333Y-110274860D01*
X239606333Y-110274860D02*
X239701571Y-110274860D01*
X239701571Y-110274860D02*
X239844428Y-110227241D01*
X239844428Y-110227241D02*
X239939666Y-110132002D01*
X239939666Y-110132002D02*
X239987285Y-110036764D01*
X239987285Y-110036764D02*
X240034904Y-109846288D01*
X240034904Y-109846288D02*
X240034904Y-109703431D01*
X240034904Y-109703431D02*
X239987285Y-109512955D01*
X239987285Y-109512955D02*
X239939666Y-109417717D01*
X239939666Y-109417717D02*
X239844428Y-109322479D01*
X239844428Y-109322479D02*
X239701571Y-109274860D01*
X239701571Y-109274860D02*
X239606333Y-109274860D01*
X239606333Y-109274860D02*
X239463476Y-109322479D01*
X239463476Y-109322479D02*
X239415857Y-109370098D01*
X239082523Y-109274860D02*
X238415857Y-109274860D01*
X238415857Y-109274860D02*
X238844428Y-110274860D01*
X238130142Y-109274860D02*
X237463476Y-109274860D01*
X237463476Y-109274860D02*
X237892047Y-110274860D01*
%TO.C,C67*%
X227864857Y-102009380D02*
X227912476Y-102057000D01*
X227912476Y-102057000D02*
X228055333Y-102104619D01*
X228055333Y-102104619D02*
X228150571Y-102104619D01*
X228150571Y-102104619D02*
X228293428Y-102057000D01*
X228293428Y-102057000D02*
X228388666Y-101961761D01*
X228388666Y-101961761D02*
X228436285Y-101866523D01*
X228436285Y-101866523D02*
X228483904Y-101676047D01*
X228483904Y-101676047D02*
X228483904Y-101533190D01*
X228483904Y-101533190D02*
X228436285Y-101342714D01*
X228436285Y-101342714D02*
X228388666Y-101247476D01*
X228388666Y-101247476D02*
X228293428Y-101152238D01*
X228293428Y-101152238D02*
X228150571Y-101104619D01*
X228150571Y-101104619D02*
X228055333Y-101104619D01*
X228055333Y-101104619D02*
X227912476Y-101152238D01*
X227912476Y-101152238D02*
X227864857Y-101199857D01*
X227007714Y-101104619D02*
X227198190Y-101104619D01*
X227198190Y-101104619D02*
X227293428Y-101152238D01*
X227293428Y-101152238D02*
X227341047Y-101199857D01*
X227341047Y-101199857D02*
X227436285Y-101342714D01*
X227436285Y-101342714D02*
X227483904Y-101533190D01*
X227483904Y-101533190D02*
X227483904Y-101914142D01*
X227483904Y-101914142D02*
X227436285Y-102009380D01*
X227436285Y-102009380D02*
X227388666Y-102057000D01*
X227388666Y-102057000D02*
X227293428Y-102104619D01*
X227293428Y-102104619D02*
X227102952Y-102104619D01*
X227102952Y-102104619D02*
X227007714Y-102057000D01*
X227007714Y-102057000D02*
X226960095Y-102009380D01*
X226960095Y-102009380D02*
X226912476Y-101914142D01*
X226912476Y-101914142D02*
X226912476Y-101676047D01*
X226912476Y-101676047D02*
X226960095Y-101580809D01*
X226960095Y-101580809D02*
X227007714Y-101533190D01*
X227007714Y-101533190D02*
X227102952Y-101485571D01*
X227102952Y-101485571D02*
X227293428Y-101485571D01*
X227293428Y-101485571D02*
X227388666Y-101533190D01*
X227388666Y-101533190D02*
X227436285Y-101580809D01*
X227436285Y-101580809D02*
X227483904Y-101676047D01*
X226579142Y-101104619D02*
X225912476Y-101104619D01*
X225912476Y-101104619D02*
X226341047Y-102104619D01*
%TO.C,R24*%
X210375615Y-113598142D02*
X209899424Y-113264809D01*
X210375615Y-113026714D02*
X209375615Y-113026714D01*
X209375615Y-113026714D02*
X209375615Y-113407666D01*
X209375615Y-113407666D02*
X209423234Y-113502904D01*
X209423234Y-113502904D02*
X209470853Y-113550523D01*
X209470853Y-113550523D02*
X209566091Y-113598142D01*
X209566091Y-113598142D02*
X209708948Y-113598142D01*
X209708948Y-113598142D02*
X209804186Y-113550523D01*
X209804186Y-113550523D02*
X209851805Y-113502904D01*
X209851805Y-113502904D02*
X209899424Y-113407666D01*
X209899424Y-113407666D02*
X209899424Y-113026714D01*
X209470853Y-113979095D02*
X209423234Y-114026714D01*
X209423234Y-114026714D02*
X209375615Y-114121952D01*
X209375615Y-114121952D02*
X209375615Y-114360047D01*
X209375615Y-114360047D02*
X209423234Y-114455285D01*
X209423234Y-114455285D02*
X209470853Y-114502904D01*
X209470853Y-114502904D02*
X209566091Y-114550523D01*
X209566091Y-114550523D02*
X209661329Y-114550523D01*
X209661329Y-114550523D02*
X209804186Y-114502904D01*
X209804186Y-114502904D02*
X210375615Y-113931476D01*
X210375615Y-113931476D02*
X210375615Y-114550523D01*
X209708948Y-115407666D02*
X210375615Y-115407666D01*
X209327996Y-115169571D02*
X210042281Y-114931476D01*
X210042281Y-114931476D02*
X210042281Y-115550523D01*
%TO.C,C44*%
X211705710Y-104924142D02*
X211753330Y-104876523D01*
X211753330Y-104876523D02*
X211800949Y-104733666D01*
X211800949Y-104733666D02*
X211800949Y-104638428D01*
X211800949Y-104638428D02*
X211753330Y-104495571D01*
X211753330Y-104495571D02*
X211658091Y-104400333D01*
X211658091Y-104400333D02*
X211562853Y-104352714D01*
X211562853Y-104352714D02*
X211372377Y-104305095D01*
X211372377Y-104305095D02*
X211229520Y-104305095D01*
X211229520Y-104305095D02*
X211039044Y-104352714D01*
X211039044Y-104352714D02*
X210943806Y-104400333D01*
X210943806Y-104400333D02*
X210848568Y-104495571D01*
X210848568Y-104495571D02*
X210800949Y-104638428D01*
X210800949Y-104638428D02*
X210800949Y-104733666D01*
X210800949Y-104733666D02*
X210848568Y-104876523D01*
X210848568Y-104876523D02*
X210896187Y-104924142D01*
X211134282Y-105781285D02*
X211800949Y-105781285D01*
X210753330Y-105543190D02*
X211467615Y-105305095D01*
X211467615Y-105305095D02*
X211467615Y-105924142D01*
X211134282Y-106733666D02*
X211800949Y-106733666D01*
X210753330Y-106495571D02*
X211467615Y-106257476D01*
X211467615Y-106257476D02*
X211467615Y-106876523D01*
%TO.C,C59*%
X190819857Y-64590380D02*
X190867476Y-64638000D01*
X190867476Y-64638000D02*
X191010333Y-64685619D01*
X191010333Y-64685619D02*
X191105571Y-64685619D01*
X191105571Y-64685619D02*
X191248428Y-64638000D01*
X191248428Y-64638000D02*
X191343666Y-64542761D01*
X191343666Y-64542761D02*
X191391285Y-64447523D01*
X191391285Y-64447523D02*
X191438904Y-64257047D01*
X191438904Y-64257047D02*
X191438904Y-64114190D01*
X191438904Y-64114190D02*
X191391285Y-63923714D01*
X191391285Y-63923714D02*
X191343666Y-63828476D01*
X191343666Y-63828476D02*
X191248428Y-63733238D01*
X191248428Y-63733238D02*
X191105571Y-63685619D01*
X191105571Y-63685619D02*
X191010333Y-63685619D01*
X191010333Y-63685619D02*
X190867476Y-63733238D01*
X190867476Y-63733238D02*
X190819857Y-63780857D01*
X189915095Y-63685619D02*
X190391285Y-63685619D01*
X190391285Y-63685619D02*
X190438904Y-64161809D01*
X190438904Y-64161809D02*
X190391285Y-64114190D01*
X190391285Y-64114190D02*
X190296047Y-64066571D01*
X190296047Y-64066571D02*
X190057952Y-64066571D01*
X190057952Y-64066571D02*
X189962714Y-64114190D01*
X189962714Y-64114190D02*
X189915095Y-64161809D01*
X189915095Y-64161809D02*
X189867476Y-64257047D01*
X189867476Y-64257047D02*
X189867476Y-64495142D01*
X189867476Y-64495142D02*
X189915095Y-64590380D01*
X189915095Y-64590380D02*
X189962714Y-64638000D01*
X189962714Y-64638000D02*
X190057952Y-64685619D01*
X190057952Y-64685619D02*
X190296047Y-64685619D01*
X190296047Y-64685619D02*
X190391285Y-64638000D01*
X190391285Y-64638000D02*
X190438904Y-64590380D01*
X189391285Y-64685619D02*
X189200809Y-64685619D01*
X189200809Y-64685619D02*
X189105571Y-64638000D01*
X189105571Y-64638000D02*
X189057952Y-64590380D01*
X189057952Y-64590380D02*
X188962714Y-64447523D01*
X188962714Y-64447523D02*
X188915095Y-64257047D01*
X188915095Y-64257047D02*
X188915095Y-63876095D01*
X188915095Y-63876095D02*
X188962714Y-63780857D01*
X188962714Y-63780857D02*
X189010333Y-63733238D01*
X189010333Y-63733238D02*
X189105571Y-63685619D01*
X189105571Y-63685619D02*
X189296047Y-63685619D01*
X189296047Y-63685619D02*
X189391285Y-63733238D01*
X189391285Y-63733238D02*
X189438904Y-63780857D01*
X189438904Y-63780857D02*
X189486523Y-63876095D01*
X189486523Y-63876095D02*
X189486523Y-64114190D01*
X189486523Y-64114190D02*
X189438904Y-64209428D01*
X189438904Y-64209428D02*
X189391285Y-64257047D01*
X189391285Y-64257047D02*
X189296047Y-64304666D01*
X189296047Y-64304666D02*
X189105571Y-64304666D01*
X189105571Y-64304666D02*
X189010333Y-64257047D01*
X189010333Y-64257047D02*
X188962714Y-64209428D01*
X188962714Y-64209428D02*
X188915095Y-64114190D01*
%TO.C,C64*%
X222100380Y-73772142D02*
X222148000Y-73724523D01*
X222148000Y-73724523D02*
X222195619Y-73581666D01*
X222195619Y-73581666D02*
X222195619Y-73486428D01*
X222195619Y-73486428D02*
X222148000Y-73343571D01*
X222148000Y-73343571D02*
X222052761Y-73248333D01*
X222052761Y-73248333D02*
X221957523Y-73200714D01*
X221957523Y-73200714D02*
X221767047Y-73153095D01*
X221767047Y-73153095D02*
X221624190Y-73153095D01*
X221624190Y-73153095D02*
X221433714Y-73200714D01*
X221433714Y-73200714D02*
X221338476Y-73248333D01*
X221338476Y-73248333D02*
X221243238Y-73343571D01*
X221243238Y-73343571D02*
X221195619Y-73486428D01*
X221195619Y-73486428D02*
X221195619Y-73581666D01*
X221195619Y-73581666D02*
X221243238Y-73724523D01*
X221243238Y-73724523D02*
X221290857Y-73772142D01*
X221195619Y-74629285D02*
X221195619Y-74438809D01*
X221195619Y-74438809D02*
X221243238Y-74343571D01*
X221243238Y-74343571D02*
X221290857Y-74295952D01*
X221290857Y-74295952D02*
X221433714Y-74200714D01*
X221433714Y-74200714D02*
X221624190Y-74153095D01*
X221624190Y-74153095D02*
X222005142Y-74153095D01*
X222005142Y-74153095D02*
X222100380Y-74200714D01*
X222100380Y-74200714D02*
X222148000Y-74248333D01*
X222148000Y-74248333D02*
X222195619Y-74343571D01*
X222195619Y-74343571D02*
X222195619Y-74534047D01*
X222195619Y-74534047D02*
X222148000Y-74629285D01*
X222148000Y-74629285D02*
X222100380Y-74676904D01*
X222100380Y-74676904D02*
X222005142Y-74724523D01*
X222005142Y-74724523D02*
X221767047Y-74724523D01*
X221767047Y-74724523D02*
X221671809Y-74676904D01*
X221671809Y-74676904D02*
X221624190Y-74629285D01*
X221624190Y-74629285D02*
X221576571Y-74534047D01*
X221576571Y-74534047D02*
X221576571Y-74343571D01*
X221576571Y-74343571D02*
X221624190Y-74248333D01*
X221624190Y-74248333D02*
X221671809Y-74200714D01*
X221671809Y-74200714D02*
X221767047Y-74153095D01*
X221528952Y-75581666D02*
X222195619Y-75581666D01*
X221148000Y-75343571D02*
X221862285Y-75105476D01*
X221862285Y-75105476D02*
X221862285Y-75724523D01*
%TO.C,C6*%
X206450380Y-70532333D02*
X206498000Y-70484714D01*
X206498000Y-70484714D02*
X206545619Y-70341857D01*
X206545619Y-70341857D02*
X206545619Y-70246619D01*
X206545619Y-70246619D02*
X206498000Y-70103762D01*
X206498000Y-70103762D02*
X206402761Y-70008524D01*
X206402761Y-70008524D02*
X206307523Y-69960905D01*
X206307523Y-69960905D02*
X206117047Y-69913286D01*
X206117047Y-69913286D02*
X205974190Y-69913286D01*
X205974190Y-69913286D02*
X205783714Y-69960905D01*
X205783714Y-69960905D02*
X205688476Y-70008524D01*
X205688476Y-70008524D02*
X205593238Y-70103762D01*
X205593238Y-70103762D02*
X205545619Y-70246619D01*
X205545619Y-70246619D02*
X205545619Y-70341857D01*
X205545619Y-70341857D02*
X205593238Y-70484714D01*
X205593238Y-70484714D02*
X205640857Y-70532333D01*
X205545619Y-71389476D02*
X205545619Y-71199000D01*
X205545619Y-71199000D02*
X205593238Y-71103762D01*
X205593238Y-71103762D02*
X205640857Y-71056143D01*
X205640857Y-71056143D02*
X205783714Y-70960905D01*
X205783714Y-70960905D02*
X205974190Y-70913286D01*
X205974190Y-70913286D02*
X206355142Y-70913286D01*
X206355142Y-70913286D02*
X206450380Y-70960905D01*
X206450380Y-70960905D02*
X206498000Y-71008524D01*
X206498000Y-71008524D02*
X206545619Y-71103762D01*
X206545619Y-71103762D02*
X206545619Y-71294238D01*
X206545619Y-71294238D02*
X206498000Y-71389476D01*
X206498000Y-71389476D02*
X206450380Y-71437095D01*
X206450380Y-71437095D02*
X206355142Y-71484714D01*
X206355142Y-71484714D02*
X206117047Y-71484714D01*
X206117047Y-71484714D02*
X206021809Y-71437095D01*
X206021809Y-71437095D02*
X205974190Y-71389476D01*
X205974190Y-71389476D02*
X205926571Y-71294238D01*
X205926571Y-71294238D02*
X205926571Y-71103762D01*
X205926571Y-71103762D02*
X205974190Y-71008524D01*
X205974190Y-71008524D02*
X206021809Y-70960905D01*
X206021809Y-70960905D02*
X206117047Y-70913286D01*
%TO.C,C4*%
X237599666Y-63524380D02*
X237647285Y-63572000D01*
X237647285Y-63572000D02*
X237790142Y-63619619D01*
X237790142Y-63619619D02*
X237885380Y-63619619D01*
X237885380Y-63619619D02*
X238028237Y-63572000D01*
X238028237Y-63572000D02*
X238123475Y-63476761D01*
X238123475Y-63476761D02*
X238171094Y-63381523D01*
X238171094Y-63381523D02*
X238218713Y-63191047D01*
X238218713Y-63191047D02*
X238218713Y-63048190D01*
X238218713Y-63048190D02*
X238171094Y-62857714D01*
X238171094Y-62857714D02*
X238123475Y-62762476D01*
X238123475Y-62762476D02*
X238028237Y-62667238D01*
X238028237Y-62667238D02*
X237885380Y-62619619D01*
X237885380Y-62619619D02*
X237790142Y-62619619D01*
X237790142Y-62619619D02*
X237647285Y-62667238D01*
X237647285Y-62667238D02*
X237599666Y-62714857D01*
X236742523Y-62952952D02*
X236742523Y-63619619D01*
X236980618Y-62572000D02*
X237218713Y-63286285D01*
X237218713Y-63286285D02*
X236599666Y-63286285D01*
%TO.C,C46*%
X207656384Y-113530142D02*
X207704004Y-113482523D01*
X207704004Y-113482523D02*
X207751623Y-113339666D01*
X207751623Y-113339666D02*
X207751623Y-113244428D01*
X207751623Y-113244428D02*
X207704004Y-113101571D01*
X207704004Y-113101571D02*
X207608765Y-113006333D01*
X207608765Y-113006333D02*
X207513527Y-112958714D01*
X207513527Y-112958714D02*
X207323051Y-112911095D01*
X207323051Y-112911095D02*
X207180194Y-112911095D01*
X207180194Y-112911095D02*
X206989718Y-112958714D01*
X206989718Y-112958714D02*
X206894480Y-113006333D01*
X206894480Y-113006333D02*
X206799242Y-113101571D01*
X206799242Y-113101571D02*
X206751623Y-113244428D01*
X206751623Y-113244428D02*
X206751623Y-113339666D01*
X206751623Y-113339666D02*
X206799242Y-113482523D01*
X206799242Y-113482523D02*
X206846861Y-113530142D01*
X207084956Y-114387285D02*
X207751623Y-114387285D01*
X206704004Y-114149190D02*
X207418289Y-113911095D01*
X207418289Y-113911095D02*
X207418289Y-114530142D01*
X206751623Y-115339666D02*
X206751623Y-115149190D01*
X206751623Y-115149190D02*
X206799242Y-115053952D01*
X206799242Y-115053952D02*
X206846861Y-115006333D01*
X206846861Y-115006333D02*
X206989718Y-114911095D01*
X206989718Y-114911095D02*
X207180194Y-114863476D01*
X207180194Y-114863476D02*
X207561146Y-114863476D01*
X207561146Y-114863476D02*
X207656384Y-114911095D01*
X207656384Y-114911095D02*
X207704004Y-114958714D01*
X207704004Y-114958714D02*
X207751623Y-115053952D01*
X207751623Y-115053952D02*
X207751623Y-115244428D01*
X207751623Y-115244428D02*
X207704004Y-115339666D01*
X207704004Y-115339666D02*
X207656384Y-115387285D01*
X207656384Y-115387285D02*
X207561146Y-115434904D01*
X207561146Y-115434904D02*
X207323051Y-115434904D01*
X207323051Y-115434904D02*
X207227813Y-115387285D01*
X207227813Y-115387285D02*
X207180194Y-115339666D01*
X207180194Y-115339666D02*
X207132575Y-115244428D01*
X207132575Y-115244428D02*
X207132575Y-115053952D01*
X207132575Y-115053952D02*
X207180194Y-114958714D01*
X207180194Y-114958714D02*
X207227813Y-114911095D01*
X207227813Y-114911095D02*
X207323051Y-114863476D01*
%TO.C,C16*%
X205719857Y-75864380D02*
X205767476Y-75912000D01*
X205767476Y-75912000D02*
X205910333Y-75959619D01*
X205910333Y-75959619D02*
X206005571Y-75959619D01*
X206005571Y-75959619D02*
X206148428Y-75912000D01*
X206148428Y-75912000D02*
X206243666Y-75816761D01*
X206243666Y-75816761D02*
X206291285Y-75721523D01*
X206291285Y-75721523D02*
X206338904Y-75531047D01*
X206338904Y-75531047D02*
X206338904Y-75388190D01*
X206338904Y-75388190D02*
X206291285Y-75197714D01*
X206291285Y-75197714D02*
X206243666Y-75102476D01*
X206243666Y-75102476D02*
X206148428Y-75007238D01*
X206148428Y-75007238D02*
X206005571Y-74959619D01*
X206005571Y-74959619D02*
X205910333Y-74959619D01*
X205910333Y-74959619D02*
X205767476Y-75007238D01*
X205767476Y-75007238D02*
X205719857Y-75054857D01*
X204767476Y-75959619D02*
X205338904Y-75959619D01*
X205053190Y-75959619D02*
X205053190Y-74959619D01*
X205053190Y-74959619D02*
X205148428Y-75102476D01*
X205148428Y-75102476D02*
X205243666Y-75197714D01*
X205243666Y-75197714D02*
X205338904Y-75245333D01*
X203910333Y-74959619D02*
X204100809Y-74959619D01*
X204100809Y-74959619D02*
X204196047Y-75007238D01*
X204196047Y-75007238D02*
X204243666Y-75054857D01*
X204243666Y-75054857D02*
X204338904Y-75197714D01*
X204338904Y-75197714D02*
X204386523Y-75388190D01*
X204386523Y-75388190D02*
X204386523Y-75769142D01*
X204386523Y-75769142D02*
X204338904Y-75864380D01*
X204338904Y-75864380D02*
X204291285Y-75912000D01*
X204291285Y-75912000D02*
X204196047Y-75959619D01*
X204196047Y-75959619D02*
X204005571Y-75959619D01*
X204005571Y-75959619D02*
X203910333Y-75912000D01*
X203910333Y-75912000D02*
X203862714Y-75864380D01*
X203862714Y-75864380D02*
X203815095Y-75769142D01*
X203815095Y-75769142D02*
X203815095Y-75531047D01*
X203815095Y-75531047D02*
X203862714Y-75435809D01*
X203862714Y-75435809D02*
X203910333Y-75388190D01*
X203910333Y-75388190D02*
X204005571Y-75340571D01*
X204005571Y-75340571D02*
X204196047Y-75340571D01*
X204196047Y-75340571D02*
X204291285Y-75388190D01*
X204291285Y-75388190D02*
X204338904Y-75435809D01*
X204338904Y-75435809D02*
X204386523Y-75531047D01*
%TO.C,C65*%
X235628380Y-96856142D02*
X235676000Y-96808523D01*
X235676000Y-96808523D02*
X235723619Y-96665666D01*
X235723619Y-96665666D02*
X235723619Y-96570428D01*
X235723619Y-96570428D02*
X235676000Y-96427571D01*
X235676000Y-96427571D02*
X235580761Y-96332333D01*
X235580761Y-96332333D02*
X235485523Y-96284714D01*
X235485523Y-96284714D02*
X235295047Y-96237095D01*
X235295047Y-96237095D02*
X235152190Y-96237095D01*
X235152190Y-96237095D02*
X234961714Y-96284714D01*
X234961714Y-96284714D02*
X234866476Y-96332333D01*
X234866476Y-96332333D02*
X234771238Y-96427571D01*
X234771238Y-96427571D02*
X234723619Y-96570428D01*
X234723619Y-96570428D02*
X234723619Y-96665666D01*
X234723619Y-96665666D02*
X234771238Y-96808523D01*
X234771238Y-96808523D02*
X234818857Y-96856142D01*
X234723619Y-97713285D02*
X234723619Y-97522809D01*
X234723619Y-97522809D02*
X234771238Y-97427571D01*
X234771238Y-97427571D02*
X234818857Y-97379952D01*
X234818857Y-97379952D02*
X234961714Y-97284714D01*
X234961714Y-97284714D02*
X235152190Y-97237095D01*
X235152190Y-97237095D02*
X235533142Y-97237095D01*
X235533142Y-97237095D02*
X235628380Y-97284714D01*
X235628380Y-97284714D02*
X235676000Y-97332333D01*
X235676000Y-97332333D02*
X235723619Y-97427571D01*
X235723619Y-97427571D02*
X235723619Y-97618047D01*
X235723619Y-97618047D02*
X235676000Y-97713285D01*
X235676000Y-97713285D02*
X235628380Y-97760904D01*
X235628380Y-97760904D02*
X235533142Y-97808523D01*
X235533142Y-97808523D02*
X235295047Y-97808523D01*
X235295047Y-97808523D02*
X235199809Y-97760904D01*
X235199809Y-97760904D02*
X235152190Y-97713285D01*
X235152190Y-97713285D02*
X235104571Y-97618047D01*
X235104571Y-97618047D02*
X235104571Y-97427571D01*
X235104571Y-97427571D02*
X235152190Y-97332333D01*
X235152190Y-97332333D02*
X235199809Y-97284714D01*
X235199809Y-97284714D02*
X235295047Y-97237095D01*
X234723619Y-98713285D02*
X234723619Y-98237095D01*
X234723619Y-98237095D02*
X235199809Y-98189476D01*
X235199809Y-98189476D02*
X235152190Y-98237095D01*
X235152190Y-98237095D02*
X235104571Y-98332333D01*
X235104571Y-98332333D02*
X235104571Y-98570428D01*
X235104571Y-98570428D02*
X235152190Y-98665666D01*
X235152190Y-98665666D02*
X235199809Y-98713285D01*
X235199809Y-98713285D02*
X235295047Y-98760904D01*
X235295047Y-98760904D02*
X235533142Y-98760904D01*
X235533142Y-98760904D02*
X235628380Y-98713285D01*
X235628380Y-98713285D02*
X235676000Y-98665666D01*
X235676000Y-98665666D02*
X235723619Y-98570428D01*
X235723619Y-98570428D02*
X235723619Y-98332333D01*
X235723619Y-98332333D02*
X235676000Y-98237095D01*
X235676000Y-98237095D02*
X235628380Y-98189476D01*
%TO.C,C45*%
X198834376Y-105968143D02*
X198881996Y-105920524D01*
X198881996Y-105920524D02*
X198929615Y-105777667D01*
X198929615Y-105777667D02*
X198929615Y-105682429D01*
X198929615Y-105682429D02*
X198881996Y-105539572D01*
X198881996Y-105539572D02*
X198786757Y-105444334D01*
X198786757Y-105444334D02*
X198691519Y-105396715D01*
X198691519Y-105396715D02*
X198501043Y-105349096D01*
X198501043Y-105349096D02*
X198358186Y-105349096D01*
X198358186Y-105349096D02*
X198167710Y-105396715D01*
X198167710Y-105396715D02*
X198072472Y-105444334D01*
X198072472Y-105444334D02*
X197977234Y-105539572D01*
X197977234Y-105539572D02*
X197929615Y-105682429D01*
X197929615Y-105682429D02*
X197929615Y-105777667D01*
X197929615Y-105777667D02*
X197977234Y-105920524D01*
X197977234Y-105920524D02*
X198024853Y-105968143D01*
X198262948Y-106825286D02*
X198929615Y-106825286D01*
X197881996Y-106587191D02*
X198596281Y-106349096D01*
X198596281Y-106349096D02*
X198596281Y-106968143D01*
X197929615Y-107825286D02*
X197929615Y-107349096D01*
X197929615Y-107349096D02*
X198405805Y-107301477D01*
X198405805Y-107301477D02*
X198358186Y-107349096D01*
X198358186Y-107349096D02*
X198310567Y-107444334D01*
X198310567Y-107444334D02*
X198310567Y-107682429D01*
X198310567Y-107682429D02*
X198358186Y-107777667D01*
X198358186Y-107777667D02*
X198405805Y-107825286D01*
X198405805Y-107825286D02*
X198501043Y-107872905D01*
X198501043Y-107872905D02*
X198739138Y-107872905D01*
X198739138Y-107872905D02*
X198834376Y-107825286D01*
X198834376Y-107825286D02*
X198881996Y-107777667D01*
X198881996Y-107777667D02*
X198929615Y-107682429D01*
X198929615Y-107682429D02*
X198929615Y-107444334D01*
X198929615Y-107444334D02*
X198881996Y-107349096D01*
X198881996Y-107349096D02*
X198834376Y-107301477D01*
%TO.C,C71*%
X237415098Y-82196380D02*
X237462717Y-82244000D01*
X237462717Y-82244000D02*
X237605574Y-82291619D01*
X237605574Y-82291619D02*
X237700812Y-82291619D01*
X237700812Y-82291619D02*
X237843669Y-82244000D01*
X237843669Y-82244000D02*
X237938907Y-82148761D01*
X237938907Y-82148761D02*
X237986526Y-82053523D01*
X237986526Y-82053523D02*
X238034145Y-81863047D01*
X238034145Y-81863047D02*
X238034145Y-81720190D01*
X238034145Y-81720190D02*
X237986526Y-81529714D01*
X237986526Y-81529714D02*
X237938907Y-81434476D01*
X237938907Y-81434476D02*
X237843669Y-81339238D01*
X237843669Y-81339238D02*
X237700812Y-81291619D01*
X237700812Y-81291619D02*
X237605574Y-81291619D01*
X237605574Y-81291619D02*
X237462717Y-81339238D01*
X237462717Y-81339238D02*
X237415098Y-81386857D01*
X237081764Y-81291619D02*
X236415098Y-81291619D01*
X236415098Y-81291619D02*
X236843669Y-82291619D01*
X235510336Y-82291619D02*
X236081764Y-82291619D01*
X235796050Y-82291619D02*
X235796050Y-81291619D01*
X235796050Y-81291619D02*
X235891288Y-81434476D01*
X235891288Y-81434476D02*
X235986526Y-81529714D01*
X235986526Y-81529714D02*
X236081764Y-81577333D01*
%TO.C,C32*%
X216568380Y-95728136D02*
X216616000Y-95680517D01*
X216616000Y-95680517D02*
X216663619Y-95537660D01*
X216663619Y-95537660D02*
X216663619Y-95442422D01*
X216663619Y-95442422D02*
X216616000Y-95299565D01*
X216616000Y-95299565D02*
X216520761Y-95204327D01*
X216520761Y-95204327D02*
X216425523Y-95156708D01*
X216425523Y-95156708D02*
X216235047Y-95109089D01*
X216235047Y-95109089D02*
X216092190Y-95109089D01*
X216092190Y-95109089D02*
X215901714Y-95156708D01*
X215901714Y-95156708D02*
X215806476Y-95204327D01*
X215806476Y-95204327D02*
X215711238Y-95299565D01*
X215711238Y-95299565D02*
X215663619Y-95442422D01*
X215663619Y-95442422D02*
X215663619Y-95537660D01*
X215663619Y-95537660D02*
X215711238Y-95680517D01*
X215711238Y-95680517D02*
X215758857Y-95728136D01*
X215663619Y-96061470D02*
X215663619Y-96680517D01*
X215663619Y-96680517D02*
X216044571Y-96347184D01*
X216044571Y-96347184D02*
X216044571Y-96490041D01*
X216044571Y-96490041D02*
X216092190Y-96585279D01*
X216092190Y-96585279D02*
X216139809Y-96632898D01*
X216139809Y-96632898D02*
X216235047Y-96680517D01*
X216235047Y-96680517D02*
X216473142Y-96680517D01*
X216473142Y-96680517D02*
X216568380Y-96632898D01*
X216568380Y-96632898D02*
X216616000Y-96585279D01*
X216616000Y-96585279D02*
X216663619Y-96490041D01*
X216663619Y-96490041D02*
X216663619Y-96204327D01*
X216663619Y-96204327D02*
X216616000Y-96109089D01*
X216616000Y-96109089D02*
X216568380Y-96061470D01*
X215758857Y-97061470D02*
X215711238Y-97109089D01*
X215711238Y-97109089D02*
X215663619Y-97204327D01*
X215663619Y-97204327D02*
X215663619Y-97442422D01*
X215663619Y-97442422D02*
X215711238Y-97537660D01*
X215711238Y-97537660D02*
X215758857Y-97585279D01*
X215758857Y-97585279D02*
X215854095Y-97632898D01*
X215854095Y-97632898D02*
X215949333Y-97632898D01*
X215949333Y-97632898D02*
X216092190Y-97585279D01*
X216092190Y-97585279D02*
X216663619Y-97013851D01*
X216663619Y-97013851D02*
X216663619Y-97632898D01*
%TO.C,C68*%
X227869857Y-100234380D02*
X227917476Y-100282000D01*
X227917476Y-100282000D02*
X228060333Y-100329619D01*
X228060333Y-100329619D02*
X228155571Y-100329619D01*
X228155571Y-100329619D02*
X228298428Y-100282000D01*
X228298428Y-100282000D02*
X228393666Y-100186761D01*
X228393666Y-100186761D02*
X228441285Y-100091523D01*
X228441285Y-100091523D02*
X228488904Y-99901047D01*
X228488904Y-99901047D02*
X228488904Y-99758190D01*
X228488904Y-99758190D02*
X228441285Y-99567714D01*
X228441285Y-99567714D02*
X228393666Y-99472476D01*
X228393666Y-99472476D02*
X228298428Y-99377238D01*
X228298428Y-99377238D02*
X228155571Y-99329619D01*
X228155571Y-99329619D02*
X228060333Y-99329619D01*
X228060333Y-99329619D02*
X227917476Y-99377238D01*
X227917476Y-99377238D02*
X227869857Y-99424857D01*
X227012714Y-99329619D02*
X227203190Y-99329619D01*
X227203190Y-99329619D02*
X227298428Y-99377238D01*
X227298428Y-99377238D02*
X227346047Y-99424857D01*
X227346047Y-99424857D02*
X227441285Y-99567714D01*
X227441285Y-99567714D02*
X227488904Y-99758190D01*
X227488904Y-99758190D02*
X227488904Y-100139142D01*
X227488904Y-100139142D02*
X227441285Y-100234380D01*
X227441285Y-100234380D02*
X227393666Y-100282000D01*
X227393666Y-100282000D02*
X227298428Y-100329619D01*
X227298428Y-100329619D02*
X227107952Y-100329619D01*
X227107952Y-100329619D02*
X227012714Y-100282000D01*
X227012714Y-100282000D02*
X226965095Y-100234380D01*
X226965095Y-100234380D02*
X226917476Y-100139142D01*
X226917476Y-100139142D02*
X226917476Y-99901047D01*
X226917476Y-99901047D02*
X226965095Y-99805809D01*
X226965095Y-99805809D02*
X227012714Y-99758190D01*
X227012714Y-99758190D02*
X227107952Y-99710571D01*
X227107952Y-99710571D02*
X227298428Y-99710571D01*
X227298428Y-99710571D02*
X227393666Y-99758190D01*
X227393666Y-99758190D02*
X227441285Y-99805809D01*
X227441285Y-99805809D02*
X227488904Y-99901047D01*
X226346047Y-99758190D02*
X226441285Y-99710571D01*
X226441285Y-99710571D02*
X226488904Y-99662952D01*
X226488904Y-99662952D02*
X226536523Y-99567714D01*
X226536523Y-99567714D02*
X226536523Y-99520095D01*
X226536523Y-99520095D02*
X226488904Y-99424857D01*
X226488904Y-99424857D02*
X226441285Y-99377238D01*
X226441285Y-99377238D02*
X226346047Y-99329619D01*
X226346047Y-99329619D02*
X226155571Y-99329619D01*
X226155571Y-99329619D02*
X226060333Y-99377238D01*
X226060333Y-99377238D02*
X226012714Y-99424857D01*
X226012714Y-99424857D02*
X225965095Y-99520095D01*
X225965095Y-99520095D02*
X225965095Y-99567714D01*
X225965095Y-99567714D02*
X226012714Y-99662952D01*
X226012714Y-99662952D02*
X226060333Y-99710571D01*
X226060333Y-99710571D02*
X226155571Y-99758190D01*
X226155571Y-99758190D02*
X226346047Y-99758190D01*
X226346047Y-99758190D02*
X226441285Y-99805809D01*
X226441285Y-99805809D02*
X226488904Y-99853428D01*
X226488904Y-99853428D02*
X226536523Y-99948666D01*
X226536523Y-99948666D02*
X226536523Y-100139142D01*
X226536523Y-100139142D02*
X226488904Y-100234380D01*
X226488904Y-100234380D02*
X226441285Y-100282000D01*
X226441285Y-100282000D02*
X226346047Y-100329619D01*
X226346047Y-100329619D02*
X226155571Y-100329619D01*
X226155571Y-100329619D02*
X226060333Y-100282000D01*
X226060333Y-100282000D02*
X226012714Y-100234380D01*
X226012714Y-100234380D02*
X225965095Y-100139142D01*
X225965095Y-100139142D02*
X225965095Y-99948666D01*
X225965095Y-99948666D02*
X226012714Y-99853428D01*
X226012714Y-99853428D02*
X226060333Y-99805809D01*
X226060333Y-99805809D02*
X226155571Y-99758190D01*
%TO.C,R21*%
X207335857Y-102190287D02*
X207669190Y-101714096D01*
X207907285Y-102190287D02*
X207907285Y-101190287D01*
X207907285Y-101190287D02*
X207526333Y-101190287D01*
X207526333Y-101190287D02*
X207431095Y-101237906D01*
X207431095Y-101237906D02*
X207383476Y-101285525D01*
X207383476Y-101285525D02*
X207335857Y-101380763D01*
X207335857Y-101380763D02*
X207335857Y-101523620D01*
X207335857Y-101523620D02*
X207383476Y-101618858D01*
X207383476Y-101618858D02*
X207431095Y-101666477D01*
X207431095Y-101666477D02*
X207526333Y-101714096D01*
X207526333Y-101714096D02*
X207907285Y-101714096D01*
X206954904Y-101285525D02*
X206907285Y-101237906D01*
X206907285Y-101237906D02*
X206812047Y-101190287D01*
X206812047Y-101190287D02*
X206573952Y-101190287D01*
X206573952Y-101190287D02*
X206478714Y-101237906D01*
X206478714Y-101237906D02*
X206431095Y-101285525D01*
X206431095Y-101285525D02*
X206383476Y-101380763D01*
X206383476Y-101380763D02*
X206383476Y-101476001D01*
X206383476Y-101476001D02*
X206431095Y-101618858D01*
X206431095Y-101618858D02*
X207002523Y-102190287D01*
X207002523Y-102190287D02*
X206383476Y-102190287D01*
X205431095Y-102190287D02*
X206002523Y-102190287D01*
X205716809Y-102190287D02*
X205716809Y-101190287D01*
X205716809Y-101190287D02*
X205812047Y-101333144D01*
X205812047Y-101333144D02*
X205907285Y-101428382D01*
X205907285Y-101428382D02*
X206002523Y-101476001D01*
D11*
%TO.C,C25*%
X221053000Y-103954757D02*
X221053000Y-104247291D01*
X220033000Y-103954757D02*
X220033000Y-104247291D01*
%TO.C,C54*%
X190030733Y-67375000D02*
X190323267Y-67375000D01*
X190030733Y-68395000D02*
X190323267Y-68395000D01*
%TO.C,C7*%
X201167000Y-83094733D02*
X201167000Y-83387267D01*
X200147000Y-83094733D02*
X200147000Y-83387267D01*
%TO.C,C15*%
X240234252Y-62898000D02*
X239711748Y-62898000D01*
X240234252Y-61428000D02*
X239711748Y-61428000D01*
%TO.C,C13*%
X238303016Y-53258000D02*
X237803016Y-53258000D01*
X238053016Y-53008000D02*
X238053016Y-53508000D01*
X235498241Y-55773000D02*
X235498241Y-57313000D01*
X235498241Y-52153000D02*
X235498241Y-53693000D01*
X235458241Y-55773000D02*
X235458241Y-57313000D01*
X235458241Y-52153000D02*
X235458241Y-53693000D01*
X235418241Y-55773000D02*
X235418241Y-57312000D01*
X235418241Y-52154000D02*
X235418241Y-53693000D01*
X235378241Y-55773000D02*
X235378241Y-57311000D01*
X235378241Y-52155000D02*
X235378241Y-53693000D01*
X235338241Y-55773000D02*
X235338241Y-57309000D01*
X235338241Y-52157000D02*
X235338241Y-53693000D01*
X235298241Y-55773000D02*
X235298241Y-57306000D01*
X235298241Y-52160000D02*
X235298241Y-53693000D01*
X235258241Y-55773000D02*
X235258241Y-57302000D01*
X235258241Y-52164000D02*
X235258241Y-53693000D01*
X235218241Y-55773000D02*
X235218241Y-57298000D01*
X235218241Y-52168000D02*
X235218241Y-53693000D01*
X235178241Y-55773000D02*
X235178241Y-57294000D01*
X235178241Y-52172000D02*
X235178241Y-53693000D01*
X235138241Y-55773000D02*
X235138241Y-57289000D01*
X235138241Y-52177000D02*
X235138241Y-53693000D01*
X235098241Y-55773000D02*
X235098241Y-57283000D01*
X235098241Y-52183000D02*
X235098241Y-53693000D01*
X235058241Y-55773000D02*
X235058241Y-57276000D01*
X235058241Y-52190000D02*
X235058241Y-53693000D01*
X235018241Y-55773000D02*
X235018241Y-57269000D01*
X235018241Y-52197000D02*
X235018241Y-53693000D01*
X234978241Y-55773000D02*
X234978241Y-57261000D01*
X234978241Y-52205000D02*
X234978241Y-53693000D01*
X234938241Y-55773000D02*
X234938241Y-57253000D01*
X234938241Y-52213000D02*
X234938241Y-53693000D01*
X234898241Y-55773000D02*
X234898241Y-57244000D01*
X234898241Y-52222000D02*
X234898241Y-53693000D01*
X234858241Y-55773000D02*
X234858241Y-57234000D01*
X234858241Y-52232000D02*
X234858241Y-53693000D01*
X234818241Y-55773000D02*
X234818241Y-57224000D01*
X234818241Y-52242000D02*
X234818241Y-53693000D01*
X234777241Y-55773000D02*
X234777241Y-57213000D01*
X234777241Y-52253000D02*
X234777241Y-53693000D01*
X234737241Y-55773000D02*
X234737241Y-57201000D01*
X234737241Y-52265000D02*
X234737241Y-53693000D01*
X234697241Y-55773000D02*
X234697241Y-57188000D01*
X234697241Y-52278000D02*
X234697241Y-53693000D01*
X234657241Y-55773000D02*
X234657241Y-57175000D01*
X234657241Y-52291000D02*
X234657241Y-53693000D01*
X234617241Y-55773000D02*
X234617241Y-57161000D01*
X234617241Y-52305000D02*
X234617241Y-53693000D01*
X234577241Y-55773000D02*
X234577241Y-57147000D01*
X234577241Y-52319000D02*
X234577241Y-53693000D01*
X234537241Y-55773000D02*
X234537241Y-57131000D01*
X234537241Y-52335000D02*
X234537241Y-53693000D01*
X234497241Y-55773000D02*
X234497241Y-57115000D01*
X234497241Y-52351000D02*
X234497241Y-53693000D01*
X234457241Y-55773000D02*
X234457241Y-57098000D01*
X234457241Y-52368000D02*
X234457241Y-53693000D01*
X234417241Y-55773000D02*
X234417241Y-57081000D01*
X234417241Y-52385000D02*
X234417241Y-53693000D01*
X234377241Y-55773000D02*
X234377241Y-57062000D01*
X234377241Y-52404000D02*
X234377241Y-53693000D01*
X234337241Y-55773000D02*
X234337241Y-57043000D01*
X234337241Y-52423000D02*
X234337241Y-53693000D01*
X234297241Y-55773000D02*
X234297241Y-57023000D01*
X234297241Y-52443000D02*
X234297241Y-53693000D01*
X234257241Y-55773000D02*
X234257241Y-57001000D01*
X234257241Y-52465000D02*
X234257241Y-53693000D01*
X234217241Y-55773000D02*
X234217241Y-56980000D01*
X234217241Y-52486000D02*
X234217241Y-53693000D01*
X234177241Y-55773000D02*
X234177241Y-56957000D01*
X234177241Y-52509000D02*
X234177241Y-53693000D01*
X234137241Y-55773000D02*
X234137241Y-56933000D01*
X234137241Y-52533000D02*
X234137241Y-53693000D01*
X234097241Y-55773000D02*
X234097241Y-56908000D01*
X234097241Y-52558000D02*
X234097241Y-53693000D01*
X234057241Y-55773000D02*
X234057241Y-56882000D01*
X234057241Y-52584000D02*
X234057241Y-53693000D01*
X234017241Y-55773000D02*
X234017241Y-56855000D01*
X234017241Y-52611000D02*
X234017241Y-53693000D01*
X233977241Y-55773000D02*
X233977241Y-56828000D01*
X233977241Y-52638000D02*
X233977241Y-53693000D01*
X233937241Y-55773000D02*
X233937241Y-56798000D01*
X233937241Y-52668000D02*
X233937241Y-53693000D01*
X233897241Y-55773000D02*
X233897241Y-56768000D01*
X233897241Y-52698000D02*
X233897241Y-53693000D01*
X233857241Y-55773000D02*
X233857241Y-56737000D01*
X233857241Y-52729000D02*
X233857241Y-53693000D01*
X233817241Y-55773000D02*
X233817241Y-56704000D01*
X233817241Y-52762000D02*
X233817241Y-53693000D01*
X233777241Y-55773000D02*
X233777241Y-56670000D01*
X233777241Y-52796000D02*
X233777241Y-53693000D01*
X233737241Y-55773000D02*
X233737241Y-56634000D01*
X233737241Y-52832000D02*
X233737241Y-53693000D01*
X233697241Y-55773000D02*
X233697241Y-56597000D01*
X233697241Y-52869000D02*
X233697241Y-53693000D01*
X233657241Y-55773000D02*
X233657241Y-56559000D01*
X233657241Y-52907000D02*
X233657241Y-53693000D01*
X233617241Y-55773000D02*
X233617241Y-56518000D01*
X233617241Y-52948000D02*
X233617241Y-53693000D01*
X233577241Y-55773000D02*
X233577241Y-56476000D01*
X233577241Y-52990000D02*
X233577241Y-53693000D01*
X233537241Y-55773000D02*
X233537241Y-56432000D01*
X233537241Y-53034000D02*
X233537241Y-53693000D01*
X233497241Y-55773000D02*
X233497241Y-56386000D01*
X233497241Y-53080000D02*
X233497241Y-53693000D01*
X233457241Y-53128000D02*
X233457241Y-56338000D01*
X233417241Y-53179000D02*
X233417241Y-56287000D01*
X233377241Y-53233000D02*
X233377241Y-56233000D01*
X233337241Y-53290000D02*
X233337241Y-56176000D01*
X233297241Y-53350000D02*
X233297241Y-56116000D01*
X233257241Y-53414000D02*
X233257241Y-56052000D01*
X233217241Y-53482000D02*
X233217241Y-55984000D01*
X233177241Y-53555000D02*
X233177241Y-55911000D01*
X233137241Y-53635000D02*
X233137241Y-55831000D01*
X233097241Y-53722000D02*
X233097241Y-55744000D01*
X233057241Y-53818000D02*
X233057241Y-55648000D01*
X233017241Y-53928000D02*
X233017241Y-55538000D01*
X232977241Y-54056000D02*
X232977241Y-55410000D01*
X232937241Y-54215000D02*
X232937241Y-55251000D01*
X232897241Y-54449000D02*
X232897241Y-55017000D01*
X238118241Y-54733000D02*
G75*
G03*
X238118241Y-54733000I-2620000J0D01*
G01*
%TO.C,R22*%
X202902063Y-104304000D02*
X202447935Y-104304000D01*
X202902063Y-102834000D02*
X202447935Y-102834000D01*
%TO.C,Y1*%
X227309000Y-95745000D02*
X232609000Y-95745000D01*
X227309000Y-99445000D02*
X227309000Y-95745000D01*
%TO.C,C63*%
X222887267Y-68856334D02*
X222594733Y-68856334D01*
X222887267Y-67836334D02*
X222594733Y-67836334D01*
%TO.C,D1*%
X236691000Y-58682000D02*
X240751000Y-58682000D01*
X236691000Y-60952000D02*
X236691000Y-58682000D01*
X240751000Y-60952000D02*
X236691000Y-60952000D01*
%TO.C,R15*%
X206798664Y-96483936D02*
X206798664Y-96938064D01*
X205328664Y-96483936D02*
X205328664Y-96938064D01*
%TO.C,R20*%
X202936729Y-102272000D02*
X202482601Y-102272000D01*
X202936729Y-100802000D02*
X202482601Y-100802000D01*
%TO.C,C29*%
X190332759Y-108240759D02*
X190962759Y-108240759D01*
X190647759Y-108555759D02*
X190647759Y-107925759D01*
X193833000Y-109631759D02*
X193833000Y-103171759D01*
X193873000Y-109631759D02*
X193873000Y-103171759D01*
X193913000Y-109631759D02*
X193913000Y-103171759D01*
X193953000Y-109629759D02*
X193953000Y-103173759D01*
X193993000Y-109628759D02*
X193993000Y-103174759D01*
X194033000Y-109625759D02*
X194033000Y-103177759D01*
X194073000Y-105361759D02*
X194073000Y-103179759D01*
X194073000Y-109623759D02*
X194073000Y-107441759D01*
X194113000Y-105361759D02*
X194113000Y-103183759D01*
X194113000Y-109619759D02*
X194113000Y-107441759D01*
X194153000Y-105361759D02*
X194153000Y-103186759D01*
X194153000Y-109616759D02*
X194153000Y-107441759D01*
X194193000Y-105361759D02*
X194193000Y-103190759D01*
X194193000Y-109612759D02*
X194193000Y-107441759D01*
X194233000Y-105361759D02*
X194233000Y-103195759D01*
X194233000Y-109607759D02*
X194233000Y-107441759D01*
X194273000Y-105361759D02*
X194273000Y-103200759D01*
X194273000Y-109602759D02*
X194273000Y-107441759D01*
X194313000Y-105361759D02*
X194313000Y-103206759D01*
X194313000Y-109596759D02*
X194313000Y-107441759D01*
X194353000Y-105361759D02*
X194353000Y-103212759D01*
X194353000Y-109590759D02*
X194353000Y-107441759D01*
X194393000Y-105361759D02*
X194393000Y-103219759D01*
X194393000Y-109583759D02*
X194393000Y-107441759D01*
X194433000Y-105361759D02*
X194433000Y-103226759D01*
X194433000Y-109576759D02*
X194433000Y-107441759D01*
X194473000Y-105361759D02*
X194473000Y-103234759D01*
X194473000Y-109568759D02*
X194473000Y-107441759D01*
X194513000Y-105361759D02*
X194513000Y-103242759D01*
X194513000Y-109560759D02*
X194513000Y-107441759D01*
X194554000Y-105361759D02*
X194554000Y-103251759D01*
X194554000Y-109551759D02*
X194554000Y-107441759D01*
X194594000Y-105361759D02*
X194594000Y-103260759D01*
X194594000Y-109542759D02*
X194594000Y-107441759D01*
X194634000Y-105361759D02*
X194634000Y-103270759D01*
X194634000Y-109532759D02*
X194634000Y-107441759D01*
X194674000Y-105361759D02*
X194674000Y-103280759D01*
X194674000Y-109522759D02*
X194674000Y-107441759D01*
X194714000Y-105361759D02*
X194714000Y-103291759D01*
X194714000Y-109511759D02*
X194714000Y-107441759D01*
X194754000Y-105361759D02*
X194754000Y-103303759D01*
X194754000Y-109499759D02*
X194754000Y-107441759D01*
X194794000Y-105361759D02*
X194794000Y-103315759D01*
X194794000Y-109487759D02*
X194794000Y-107441759D01*
X194834000Y-105361759D02*
X194834000Y-103327759D01*
X194834000Y-109475759D02*
X194834000Y-107441759D01*
X194874000Y-105361759D02*
X194874000Y-103340759D01*
X194874000Y-109462759D02*
X194874000Y-107441759D01*
X194914000Y-105361759D02*
X194914000Y-103354759D01*
X194914000Y-109448759D02*
X194914000Y-107441759D01*
X194954000Y-105361759D02*
X194954000Y-103368759D01*
X194954000Y-109434759D02*
X194954000Y-107441759D01*
X194994000Y-105361759D02*
X194994000Y-103383759D01*
X194994000Y-109419759D02*
X194994000Y-107441759D01*
X195034000Y-105361759D02*
X195034000Y-103399759D01*
X195034000Y-109403759D02*
X195034000Y-107441759D01*
X195074000Y-105361759D02*
X195074000Y-103415759D01*
X195074000Y-109387759D02*
X195074000Y-107441759D01*
X195114000Y-105361759D02*
X195114000Y-103431759D01*
X195114000Y-109371759D02*
X195114000Y-107441759D01*
X195154000Y-105361759D02*
X195154000Y-103449759D01*
X195154000Y-109353759D02*
X195154000Y-107441759D01*
X195194000Y-105361759D02*
X195194000Y-103467759D01*
X195194000Y-109335759D02*
X195194000Y-107441759D01*
X195234000Y-105361759D02*
X195234000Y-103485759D01*
X195234000Y-109317759D02*
X195234000Y-107441759D01*
X195274000Y-105361759D02*
X195274000Y-103505759D01*
X195274000Y-109297759D02*
X195274000Y-107441759D01*
X195314000Y-105361759D02*
X195314000Y-103525759D01*
X195314000Y-109277759D02*
X195314000Y-107441759D01*
X195354000Y-105361759D02*
X195354000Y-103545759D01*
X195354000Y-109257759D02*
X195354000Y-107441759D01*
X195394000Y-105361759D02*
X195394000Y-103567759D01*
X195394000Y-109235759D02*
X195394000Y-107441759D01*
X195434000Y-105361759D02*
X195434000Y-103589759D01*
X195434000Y-109213759D02*
X195434000Y-107441759D01*
X195474000Y-105361759D02*
X195474000Y-103611759D01*
X195474000Y-109191759D02*
X195474000Y-107441759D01*
X195514000Y-105361759D02*
X195514000Y-103635759D01*
X195514000Y-109167759D02*
X195514000Y-107441759D01*
X195554000Y-105361759D02*
X195554000Y-103659759D01*
X195554000Y-109143759D02*
X195554000Y-107441759D01*
X195594000Y-105361759D02*
X195594000Y-103685759D01*
X195594000Y-109117759D02*
X195594000Y-107441759D01*
X195634000Y-105361759D02*
X195634000Y-103711759D01*
X195634000Y-109091759D02*
X195634000Y-107441759D01*
X195674000Y-105361759D02*
X195674000Y-103737759D01*
X195674000Y-109065759D02*
X195674000Y-107441759D01*
X195714000Y-105361759D02*
X195714000Y-103765759D01*
X195714000Y-109037759D02*
X195714000Y-107441759D01*
X195754000Y-105361759D02*
X195754000Y-103794759D01*
X195754000Y-109008759D02*
X195754000Y-107441759D01*
X195794000Y-105361759D02*
X195794000Y-103823759D01*
X195794000Y-108979759D02*
X195794000Y-107441759D01*
X195834000Y-105361759D02*
X195834000Y-103853759D01*
X195834000Y-108949759D02*
X195834000Y-107441759D01*
X195874000Y-105361759D02*
X195874000Y-103885759D01*
X195874000Y-108917759D02*
X195874000Y-107441759D01*
X195914000Y-105361759D02*
X195914000Y-103917759D01*
X195914000Y-108885759D02*
X195914000Y-107441759D01*
X195954000Y-105361759D02*
X195954000Y-103951759D01*
X195954000Y-108851759D02*
X195954000Y-107441759D01*
X195994000Y-105361759D02*
X195994000Y-103985759D01*
X195994000Y-108817759D02*
X195994000Y-107441759D01*
X196034000Y-105361759D02*
X196034000Y-104021759D01*
X196034000Y-108781759D02*
X196034000Y-107441759D01*
X196074000Y-105361759D02*
X196074000Y-104058759D01*
X196074000Y-108744759D02*
X196074000Y-107441759D01*
X196114000Y-105361759D02*
X196114000Y-104096759D01*
X196114000Y-108706759D02*
X196114000Y-107441759D01*
X196154000Y-108666759D02*
X196154000Y-104136759D01*
X196194000Y-108625759D02*
X196194000Y-104177759D01*
X196234000Y-108583759D02*
X196234000Y-104219759D01*
X196274000Y-108538759D02*
X196274000Y-104264759D01*
X196314000Y-108493759D02*
X196314000Y-104309759D01*
X196354000Y-108445759D02*
X196354000Y-104357759D01*
X196394000Y-108396759D02*
X196394000Y-104406759D01*
X196434000Y-108345759D02*
X196434000Y-104457759D01*
X196474000Y-108291759D02*
X196474000Y-104511759D01*
X196514000Y-108235759D02*
X196514000Y-104567759D01*
X196554000Y-108177759D02*
X196554000Y-104625759D01*
X196594000Y-108115759D02*
X196594000Y-104687759D01*
X196634000Y-108051759D02*
X196634000Y-104751759D01*
X196674000Y-107982759D02*
X196674000Y-104820759D01*
X196714000Y-107910759D02*
X196714000Y-104892759D01*
X196754000Y-107833759D02*
X196754000Y-104969759D01*
X196794000Y-107751759D02*
X196794000Y-105051759D01*
X196834000Y-107663759D02*
X196834000Y-105139759D01*
X196874000Y-107566759D02*
X196874000Y-105236759D01*
X196914000Y-107460759D02*
X196914000Y-105342759D01*
X196954000Y-107341759D02*
X196954000Y-105461759D01*
X196994000Y-107203759D02*
X196994000Y-105599759D01*
X197034000Y-107034759D02*
X197034000Y-105768759D01*
X197074000Y-106803759D02*
X197074000Y-105999759D01*
X197103000Y-106401759D02*
G75*
G03*
X197103000Y-106401759I-3270000J0D01*
G01*
%TO.C,C41*%
X202682733Y-98805004D02*
X202975267Y-98805004D01*
X202682733Y-99825004D02*
X202975267Y-99825004D01*
%TO.C,C9*%
X212271000Y-78815267D02*
X212271000Y-78522733D01*
X213291000Y-78815267D02*
X213291000Y-78522733D01*
%TO.C,C28*%
X184875241Y-100186759D02*
X184875241Y-100816759D01*
X184560241Y-100501759D02*
X185190241Y-100501759D01*
X183484241Y-103687000D02*
X189944241Y-103687000D01*
X183484241Y-103727000D02*
X189944241Y-103727000D01*
X183484241Y-103767000D02*
X189944241Y-103767000D01*
X183486241Y-103807000D02*
X189942241Y-103807000D01*
X183487241Y-103847000D02*
X189941241Y-103847000D01*
X183490241Y-103887000D02*
X189938241Y-103887000D01*
X187754241Y-103927000D02*
X189936241Y-103927000D01*
X183492241Y-103927000D02*
X185674241Y-103927000D01*
X187754241Y-103967000D02*
X189932241Y-103967000D01*
X183496241Y-103967000D02*
X185674241Y-103967000D01*
X187754241Y-104007000D02*
X189929241Y-104007000D01*
X183499241Y-104007000D02*
X185674241Y-104007000D01*
X187754241Y-104047000D02*
X189925241Y-104047000D01*
X183503241Y-104047000D02*
X185674241Y-104047000D01*
X187754241Y-104087000D02*
X189920241Y-104087000D01*
X183508241Y-104087000D02*
X185674241Y-104087000D01*
X187754241Y-104127000D02*
X189915241Y-104127000D01*
X183513241Y-104127000D02*
X185674241Y-104127000D01*
X187754241Y-104167000D02*
X189909241Y-104167000D01*
X183519241Y-104167000D02*
X185674241Y-104167000D01*
X187754241Y-104207000D02*
X189903241Y-104207000D01*
X183525241Y-104207000D02*
X185674241Y-104207000D01*
X187754241Y-104247000D02*
X189896241Y-104247000D01*
X183532241Y-104247000D02*
X185674241Y-104247000D01*
X187754241Y-104287000D02*
X189889241Y-104287000D01*
X183539241Y-104287000D02*
X185674241Y-104287000D01*
X187754241Y-104327000D02*
X189881241Y-104327000D01*
X183547241Y-104327000D02*
X185674241Y-104327000D01*
X187754241Y-104367000D02*
X189873241Y-104367000D01*
X183555241Y-104367000D02*
X185674241Y-104367000D01*
X187754241Y-104408000D02*
X189864241Y-104408000D01*
X183564241Y-104408000D02*
X185674241Y-104408000D01*
X187754241Y-104448000D02*
X189855241Y-104448000D01*
X183573241Y-104448000D02*
X185674241Y-104448000D01*
X187754241Y-104488000D02*
X189845241Y-104488000D01*
X183583241Y-104488000D02*
X185674241Y-104488000D01*
X187754241Y-104528000D02*
X189835241Y-104528000D01*
X183593241Y-104528000D02*
X185674241Y-104528000D01*
X187754241Y-104568000D02*
X189824241Y-104568000D01*
X183604241Y-104568000D02*
X185674241Y-104568000D01*
X187754241Y-104608000D02*
X189812241Y-104608000D01*
X183616241Y-104608000D02*
X185674241Y-104608000D01*
X187754241Y-104648000D02*
X189800241Y-104648000D01*
X183628241Y-104648000D02*
X185674241Y-104648000D01*
X187754241Y-104688000D02*
X189788241Y-104688000D01*
X183640241Y-104688000D02*
X185674241Y-104688000D01*
X187754241Y-104728000D02*
X189775241Y-104728000D01*
X183653241Y-104728000D02*
X185674241Y-104728000D01*
X187754241Y-104768000D02*
X189761241Y-104768000D01*
X183667241Y-104768000D02*
X185674241Y-104768000D01*
X187754241Y-104808000D02*
X189747241Y-104808000D01*
X183681241Y-104808000D02*
X185674241Y-104808000D01*
X187754241Y-104848000D02*
X189732241Y-104848000D01*
X183696241Y-104848000D02*
X185674241Y-104848000D01*
X187754241Y-104888000D02*
X189716241Y-104888000D01*
X183712241Y-104888000D02*
X185674241Y-104888000D01*
X187754241Y-104928000D02*
X189700241Y-104928000D01*
X183728241Y-104928000D02*
X185674241Y-104928000D01*
X187754241Y-104968000D02*
X189684241Y-104968000D01*
X183744241Y-104968000D02*
X185674241Y-104968000D01*
X187754241Y-105008000D02*
X189666241Y-105008000D01*
X183762241Y-105008000D02*
X185674241Y-105008000D01*
X187754241Y-105048000D02*
X189648241Y-105048000D01*
X183780241Y-105048000D02*
X185674241Y-105048000D01*
X187754241Y-105088000D02*
X189630241Y-105088000D01*
X183798241Y-105088000D02*
X185674241Y-105088000D01*
X187754241Y-105128000D02*
X189610241Y-105128000D01*
X183818241Y-105128000D02*
X185674241Y-105128000D01*
X187754241Y-105168000D02*
X189590241Y-105168000D01*
X183838241Y-105168000D02*
X185674241Y-105168000D01*
X187754241Y-105208000D02*
X189570241Y-105208000D01*
X183858241Y-105208000D02*
X185674241Y-105208000D01*
X187754241Y-105248000D02*
X189548241Y-105248000D01*
X183880241Y-105248000D02*
X185674241Y-105248000D01*
X187754241Y-105288000D02*
X189526241Y-105288000D01*
X183902241Y-105288000D02*
X185674241Y-105288000D01*
X187754241Y-105328000D02*
X189504241Y-105328000D01*
X183924241Y-105328000D02*
X185674241Y-105328000D01*
X187754241Y-105368000D02*
X189480241Y-105368000D01*
X183948241Y-105368000D02*
X185674241Y-105368000D01*
X187754241Y-105408000D02*
X189456241Y-105408000D01*
X183972241Y-105408000D02*
X185674241Y-105408000D01*
X187754241Y-105448000D02*
X189430241Y-105448000D01*
X183998241Y-105448000D02*
X185674241Y-105448000D01*
X187754241Y-105488000D02*
X189404241Y-105488000D01*
X184024241Y-105488000D02*
X185674241Y-105488000D01*
X187754241Y-105528000D02*
X189378241Y-105528000D01*
X184050241Y-105528000D02*
X185674241Y-105528000D01*
X187754241Y-105568000D02*
X189350241Y-105568000D01*
X184078241Y-105568000D02*
X185674241Y-105568000D01*
X187754241Y-105608000D02*
X189321241Y-105608000D01*
X184107241Y-105608000D02*
X185674241Y-105608000D01*
X187754241Y-105648000D02*
X189292241Y-105648000D01*
X184136241Y-105648000D02*
X185674241Y-105648000D01*
X187754241Y-105688000D02*
X189262241Y-105688000D01*
X184166241Y-105688000D02*
X185674241Y-105688000D01*
X187754241Y-105728000D02*
X189230241Y-105728000D01*
X184198241Y-105728000D02*
X185674241Y-105728000D01*
X187754241Y-105768000D02*
X189198241Y-105768000D01*
X184230241Y-105768000D02*
X185674241Y-105768000D01*
X187754241Y-105808000D02*
X189164241Y-105808000D01*
X184264241Y-105808000D02*
X185674241Y-105808000D01*
X187754241Y-105848000D02*
X189130241Y-105848000D01*
X184298241Y-105848000D02*
X185674241Y-105848000D01*
X187754241Y-105888000D02*
X189094241Y-105888000D01*
X184334241Y-105888000D02*
X185674241Y-105888000D01*
X187754241Y-105928000D02*
X189057241Y-105928000D01*
X184371241Y-105928000D02*
X185674241Y-105928000D01*
X187754241Y-105968000D02*
X189019241Y-105968000D01*
X184409241Y-105968000D02*
X185674241Y-105968000D01*
X184449241Y-106008000D02*
X188979241Y-106008000D01*
X184490241Y-106048000D02*
X188938241Y-106048000D01*
X184532241Y-106088000D02*
X188896241Y-106088000D01*
X184577241Y-106128000D02*
X188851241Y-106128000D01*
X184622241Y-106168000D02*
X188806241Y-106168000D01*
X184670241Y-106208000D02*
X188758241Y-106208000D01*
X184719241Y-106248000D02*
X188709241Y-106248000D01*
X184770241Y-106288000D02*
X188658241Y-106288000D01*
X184824241Y-106328000D02*
X188604241Y-106328000D01*
X184880241Y-106368000D02*
X188548241Y-106368000D01*
X184938241Y-106408000D02*
X188490241Y-106408000D01*
X185000241Y-106448000D02*
X188428241Y-106448000D01*
X185064241Y-106488000D02*
X188364241Y-106488000D01*
X185133241Y-106528000D02*
X188295241Y-106528000D01*
X185205241Y-106568000D02*
X188223241Y-106568000D01*
X185282241Y-106608000D02*
X188146241Y-106608000D01*
X185364241Y-106648000D02*
X188064241Y-106648000D01*
X185452241Y-106688000D02*
X187976241Y-106688000D01*
X185549241Y-106728000D02*
X187879241Y-106728000D01*
X185655241Y-106768000D02*
X187773241Y-106768000D01*
X185774241Y-106808000D02*
X187654241Y-106808000D01*
X185912241Y-106848000D02*
X187516241Y-106848000D01*
X186081241Y-106888000D02*
X187347241Y-106888000D01*
X186312241Y-106928000D02*
X187116241Y-106928000D01*
X189984241Y-103687000D02*
G75*
G03*
X189984241Y-103687000I-3270000J0D01*
G01*
%TO.C,C56*%
X190030733Y-69921000D02*
X190323267Y-69921000D01*
X190030733Y-70941000D02*
X190323267Y-70941000D01*
%TO.C,C102*%
X234030000Y-75731267D02*
X234030000Y-75438733D01*
X235050000Y-75731267D02*
X235050000Y-75438733D01*
%TO.C,C26*%
X218098976Y-102528000D02*
X218098976Y-110763000D01*
X213578976Y-102528000D02*
X218098976Y-102528000D01*
X213578976Y-110763000D02*
X213578976Y-102528000D01*
%TO.C,C70*%
X235592759Y-75474759D02*
X236222759Y-75474759D01*
X235907759Y-75789759D02*
X235907759Y-75159759D01*
X239093000Y-76865759D02*
X239093000Y-70405759D01*
X239133000Y-76865759D02*
X239133000Y-70405759D01*
X239173000Y-76865759D02*
X239173000Y-70405759D01*
X239213000Y-76863759D02*
X239213000Y-70407759D01*
X239253000Y-76862759D02*
X239253000Y-70408759D01*
X239293000Y-76859759D02*
X239293000Y-70411759D01*
X239333000Y-72595759D02*
X239333000Y-70413759D01*
X239333000Y-76857759D02*
X239333000Y-74675759D01*
X239373000Y-72595759D02*
X239373000Y-70417759D01*
X239373000Y-76853759D02*
X239373000Y-74675759D01*
X239413000Y-72595759D02*
X239413000Y-70420759D01*
X239413000Y-76850759D02*
X239413000Y-74675759D01*
X239453000Y-72595759D02*
X239453000Y-70424759D01*
X239453000Y-76846759D02*
X239453000Y-74675759D01*
X239493000Y-72595759D02*
X239493000Y-70429759D01*
X239493000Y-76841759D02*
X239493000Y-74675759D01*
X239533000Y-72595759D02*
X239533000Y-70434759D01*
X239533000Y-76836759D02*
X239533000Y-74675759D01*
X239573000Y-72595759D02*
X239573000Y-70440759D01*
X239573000Y-76830759D02*
X239573000Y-74675759D01*
X239613000Y-72595759D02*
X239613000Y-70446759D01*
X239613000Y-76824759D02*
X239613000Y-74675759D01*
X239653000Y-72595759D02*
X239653000Y-70453759D01*
X239653000Y-76817759D02*
X239653000Y-74675759D01*
X239693000Y-72595759D02*
X239693000Y-70460759D01*
X239693000Y-76810759D02*
X239693000Y-74675759D01*
X239733000Y-72595759D02*
X239733000Y-70468759D01*
X239733000Y-76802759D02*
X239733000Y-74675759D01*
X239773000Y-72595759D02*
X239773000Y-70476759D01*
X239773000Y-76794759D02*
X239773000Y-74675759D01*
X239814000Y-72595759D02*
X239814000Y-70485759D01*
X239814000Y-76785759D02*
X239814000Y-74675759D01*
X239854000Y-72595759D02*
X239854000Y-70494759D01*
X239854000Y-76776759D02*
X239854000Y-74675759D01*
X239894000Y-72595759D02*
X239894000Y-70504759D01*
X239894000Y-76766759D02*
X239894000Y-74675759D01*
X239934000Y-72595759D02*
X239934000Y-70514759D01*
X239934000Y-76756759D02*
X239934000Y-74675759D01*
X239974000Y-72595759D02*
X239974000Y-70525759D01*
X239974000Y-76745759D02*
X239974000Y-74675759D01*
X240014000Y-72595759D02*
X240014000Y-70537759D01*
X240014000Y-76733759D02*
X240014000Y-74675759D01*
X240054000Y-72595759D02*
X240054000Y-70549759D01*
X240054000Y-76721759D02*
X240054000Y-74675759D01*
X240094000Y-72595759D02*
X240094000Y-70561759D01*
X240094000Y-76709759D02*
X240094000Y-74675759D01*
X240134000Y-72595759D02*
X240134000Y-70574759D01*
X240134000Y-76696759D02*
X240134000Y-74675759D01*
X240174000Y-72595759D02*
X240174000Y-70588759D01*
X240174000Y-76682759D02*
X240174000Y-74675759D01*
X240214000Y-72595759D02*
X240214000Y-70602759D01*
X240214000Y-76668759D02*
X240214000Y-74675759D01*
X240254000Y-72595759D02*
X240254000Y-70617759D01*
X240254000Y-76653759D02*
X240254000Y-74675759D01*
X240294000Y-72595759D02*
X240294000Y-70633759D01*
X240294000Y-76637759D02*
X240294000Y-74675759D01*
X240334000Y-72595759D02*
X240334000Y-70649759D01*
X240334000Y-76621759D02*
X240334000Y-74675759D01*
X240374000Y-72595759D02*
X240374000Y-70665759D01*
X240374000Y-76605759D02*
X240374000Y-74675759D01*
X240414000Y-72595759D02*
X240414000Y-70683759D01*
X240414000Y-76587759D02*
X240414000Y-74675759D01*
X240454000Y-72595759D02*
X240454000Y-70701759D01*
X240454000Y-76569759D02*
X240454000Y-74675759D01*
X240494000Y-72595759D02*
X240494000Y-70719759D01*
X240494000Y-76551759D02*
X240494000Y-74675759D01*
X240534000Y-72595759D02*
X240534000Y-70739759D01*
X240534000Y-76531759D02*
X240534000Y-74675759D01*
X240574000Y-72595759D02*
X240574000Y-70759759D01*
X240574000Y-76511759D02*
X240574000Y-74675759D01*
X240614000Y-72595759D02*
X240614000Y-70779759D01*
X240614000Y-76491759D02*
X240614000Y-74675759D01*
X240654000Y-72595759D02*
X240654000Y-70801759D01*
X240654000Y-76469759D02*
X240654000Y-74675759D01*
X240694000Y-72595759D02*
X240694000Y-70823759D01*
X240694000Y-76447759D02*
X240694000Y-74675759D01*
X240734000Y-72595759D02*
X240734000Y-70845759D01*
X240734000Y-76425759D02*
X240734000Y-74675759D01*
X240774000Y-72595759D02*
X240774000Y-70869759D01*
X240774000Y-76401759D02*
X240774000Y-74675759D01*
X240814000Y-72595759D02*
X240814000Y-70893759D01*
X240814000Y-76377759D02*
X240814000Y-74675759D01*
X240854000Y-72595759D02*
X240854000Y-70919759D01*
X240854000Y-76351759D02*
X240854000Y-74675759D01*
X240894000Y-72595759D02*
X240894000Y-70945759D01*
X240894000Y-76325759D02*
X240894000Y-74675759D01*
X240934000Y-72595759D02*
X240934000Y-70971759D01*
X240934000Y-76299759D02*
X240934000Y-74675759D01*
X240974000Y-72595759D02*
X240974000Y-70999759D01*
X240974000Y-76271759D02*
X240974000Y-74675759D01*
X241014000Y-72595759D02*
X241014000Y-71028759D01*
X241014000Y-76242759D02*
X241014000Y-74675759D01*
X241054000Y-72595759D02*
X241054000Y-71057759D01*
X241054000Y-76213759D02*
X241054000Y-74675759D01*
X241094000Y-72595759D02*
X241094000Y-71087759D01*
X241094000Y-76183759D02*
X241094000Y-74675759D01*
X241134000Y-72595759D02*
X241134000Y-71119759D01*
X241134000Y-76151759D02*
X241134000Y-74675759D01*
X241174000Y-72595759D02*
X241174000Y-71151759D01*
X241174000Y-76119759D02*
X241174000Y-74675759D01*
X241214000Y-72595759D02*
X241214000Y-71185759D01*
X241214000Y-76085759D02*
X241214000Y-74675759D01*
X241254000Y-72595759D02*
X241254000Y-71219759D01*
X241254000Y-76051759D02*
X241254000Y-74675759D01*
X241294000Y-72595759D02*
X241294000Y-71255759D01*
X241294000Y-76015759D02*
X241294000Y-74675759D01*
X241334000Y-72595759D02*
X241334000Y-71292759D01*
X241334000Y-75978759D02*
X241334000Y-74675759D01*
X241374000Y-72595759D02*
X241374000Y-71330759D01*
X241374000Y-75940759D02*
X241374000Y-74675759D01*
X241414000Y-75900759D02*
X241414000Y-71370759D01*
X241454000Y-75859759D02*
X241454000Y-71411759D01*
X241494000Y-75817759D02*
X241494000Y-71453759D01*
X241534000Y-75772759D02*
X241534000Y-71498759D01*
X241574000Y-75727759D02*
X241574000Y-71543759D01*
X241614000Y-75679759D02*
X241614000Y-71591759D01*
X241654000Y-75630759D02*
X241654000Y-71640759D01*
X241694000Y-75579759D02*
X241694000Y-71691759D01*
X241734000Y-75525759D02*
X241734000Y-71745759D01*
X241774000Y-75469759D02*
X241774000Y-71801759D01*
X241814000Y-75411759D02*
X241814000Y-71859759D01*
X241854000Y-75349759D02*
X241854000Y-71921759D01*
X241894000Y-75285759D02*
X241894000Y-71985759D01*
X241934000Y-75216759D02*
X241934000Y-72054759D01*
X241974000Y-75144759D02*
X241974000Y-72126759D01*
X242014000Y-75067759D02*
X242014000Y-72203759D01*
X242054000Y-74985759D02*
X242054000Y-72285759D01*
X242094000Y-74897759D02*
X242094000Y-72373759D01*
X242134000Y-74800759D02*
X242134000Y-72470759D01*
X242174000Y-74694759D02*
X242174000Y-72576759D01*
X242214000Y-74575759D02*
X242214000Y-72695759D01*
X242254000Y-74437759D02*
X242254000Y-72833759D01*
X242294000Y-74268759D02*
X242294000Y-73002759D01*
X242334000Y-74037759D02*
X242334000Y-73233759D01*
X242363000Y-73635759D02*
G75*
G03*
X242363000Y-73635759I-3270000J0D01*
G01*
%TO.C,R3*%
X223276000Y-103673960D02*
X223276000Y-104128088D01*
X221806000Y-103673960D02*
X221806000Y-104128088D01*
%TO.C,C79*%
X217721267Y-95935000D02*
X217428733Y-95935000D01*
X217721267Y-94915000D02*
X217428733Y-94915000D01*
%TO.C,R19*%
X206534597Y-100674000D02*
X206988725Y-100674000D01*
X206534597Y-102144000D02*
X206988725Y-102144000D01*
%TO.C,D2*%
X190752000Y-95467000D02*
X190752000Y-99527000D01*
X188482000Y-95467000D02*
X190752000Y-95467000D01*
X188482000Y-99527000D02*
X188482000Y-95467000D01*
%TO.C,C10*%
X204271000Y-64225267D02*
X204271000Y-63932733D01*
X205291000Y-64225267D02*
X205291000Y-63932733D01*
%TO.C,C34*%
X219493000Y-96529267D02*
X219493000Y-96236733D01*
X220513000Y-96529267D02*
X220513000Y-96236733D01*
%TO.C,C61*%
X206811000Y-71037267D02*
X206811000Y-70744733D01*
X207831000Y-71037267D02*
X207831000Y-70744733D01*
%TO.C,C80*%
X216412252Y-92794000D02*
X215889748Y-92794000D01*
X216412252Y-91324000D02*
X215889748Y-91324000D01*
%TO.C,C66*%
X231039267Y-94895000D02*
X230746733Y-94895000D01*
X231039267Y-93875000D02*
X230746733Y-93875000D01*
%TO.C,C17*%
X224015000Y-104247291D02*
X224015000Y-103954757D01*
X225035000Y-104247291D02*
X225035000Y-103954757D01*
%TO.C,C62*%
X190030733Y-64829000D02*
X190323267Y-64829000D01*
X190030733Y-65849000D02*
X190323267Y-65849000D01*
%TO.C,C40*%
X206477396Y-98941000D02*
X206769930Y-98941000D01*
X206477396Y-99961000D02*
X206769930Y-99961000D01*
%TO.C,C57*%
X190148733Y-59757000D02*
X190441267Y-59757000D01*
X190148733Y-60777000D02*
X190441267Y-60777000D01*
%TO.C,C33*%
X209591000Y-97222733D02*
X209591000Y-97515267D01*
X208571000Y-97222733D02*
X208571000Y-97515267D01*
%TO.C,R16*%
X204223998Y-96483936D02*
X204223998Y-96938064D01*
X202753998Y-96483936D02*
X202753998Y-96938064D01*
%TO.C,C47*%
X211041999Y-114217733D02*
X211041999Y-114510267D01*
X210021999Y-114217733D02*
X210021999Y-114510267D01*
%TO.C,C55*%
X190142733Y-57217000D02*
X190435267Y-57217000D01*
X190142733Y-58237000D02*
X190435267Y-58237000D01*
%TO.C,R33*%
X222954064Y-67119334D02*
X222499936Y-67119334D01*
X222954064Y-65649334D02*
X222499936Y-65649334D01*
%TO.C,R23*%
X202073996Y-114354064D02*
X202073996Y-113899936D01*
X203543996Y-114354064D02*
X203543996Y-113899936D01*
%TO.C,C11*%
X204143000Y-77479267D02*
X204143000Y-77186733D01*
X205163000Y-77479267D02*
X205163000Y-77186733D01*
%TO.C,C14*%
X220503000Y-87307267D02*
X220503000Y-87014733D01*
X221523000Y-87307267D02*
X221523000Y-87014733D01*
%TO.C,R10*%
X229638000Y-102552064D02*
X229638000Y-102097936D01*
X231108000Y-102552064D02*
X231108000Y-102097936D01*
%TO.C,C76*%
X238811016Y-100406000D02*
X238311016Y-100406000D01*
X238561016Y-100156000D02*
X238561016Y-100656000D01*
X236006241Y-102921000D02*
X236006241Y-104461000D01*
X236006241Y-99301000D02*
X236006241Y-100841000D01*
X235966241Y-102921000D02*
X235966241Y-104461000D01*
X235966241Y-99301000D02*
X235966241Y-100841000D01*
X235926241Y-102921000D02*
X235926241Y-104460000D01*
X235926241Y-99302000D02*
X235926241Y-100841000D01*
X235886241Y-102921000D02*
X235886241Y-104459000D01*
X235886241Y-99303000D02*
X235886241Y-100841000D01*
X235846241Y-102921000D02*
X235846241Y-104457000D01*
X235846241Y-99305000D02*
X235846241Y-100841000D01*
X235806241Y-102921000D02*
X235806241Y-104454000D01*
X235806241Y-99308000D02*
X235806241Y-100841000D01*
X235766241Y-102921000D02*
X235766241Y-104450000D01*
X235766241Y-99312000D02*
X235766241Y-100841000D01*
X235726241Y-102921000D02*
X235726241Y-104446000D01*
X235726241Y-99316000D02*
X235726241Y-100841000D01*
X235686241Y-102921000D02*
X235686241Y-104442000D01*
X235686241Y-99320000D02*
X235686241Y-100841000D01*
X235646241Y-102921000D02*
X235646241Y-104437000D01*
X235646241Y-99325000D02*
X235646241Y-100841000D01*
X235606241Y-102921000D02*
X235606241Y-104431000D01*
X235606241Y-99331000D02*
X235606241Y-100841000D01*
X235566241Y-102921000D02*
X235566241Y-104424000D01*
X235566241Y-99338000D02*
X235566241Y-100841000D01*
X235526241Y-102921000D02*
X235526241Y-104417000D01*
X235526241Y-99345000D02*
X235526241Y-100841000D01*
X235486241Y-102921000D02*
X235486241Y-104409000D01*
X235486241Y-99353000D02*
X235486241Y-100841000D01*
X235446241Y-102921000D02*
X235446241Y-104401000D01*
X235446241Y-99361000D02*
X235446241Y-100841000D01*
X235406241Y-102921000D02*
X235406241Y-104392000D01*
X235406241Y-99370000D02*
X235406241Y-100841000D01*
X235366241Y-102921000D02*
X235366241Y-104382000D01*
X235366241Y-99380000D02*
X235366241Y-100841000D01*
X235326241Y-102921000D02*
X235326241Y-104372000D01*
X235326241Y-99390000D02*
X235326241Y-100841000D01*
X235285241Y-102921000D02*
X235285241Y-104361000D01*
X235285241Y-99401000D02*
X235285241Y-100841000D01*
X235245241Y-102921000D02*
X235245241Y-104349000D01*
X235245241Y-99413000D02*
X235245241Y-100841000D01*
X235205241Y-102921000D02*
X235205241Y-104336000D01*
X235205241Y-99426000D02*
X235205241Y-100841000D01*
X235165241Y-102921000D02*
X235165241Y-104323000D01*
X235165241Y-99439000D02*
X235165241Y-100841000D01*
X235125241Y-102921000D02*
X235125241Y-104309000D01*
X235125241Y-99453000D02*
X235125241Y-100841000D01*
X235085241Y-102921000D02*
X235085241Y-104295000D01*
X235085241Y-99467000D02*
X235085241Y-100841000D01*
X235045241Y-102921000D02*
X235045241Y-104279000D01*
X235045241Y-99483000D02*
X235045241Y-100841000D01*
X235005241Y-102921000D02*
X235005241Y-104263000D01*
X235005241Y-99499000D02*
X235005241Y-100841000D01*
X234965241Y-102921000D02*
X234965241Y-104246000D01*
X234965241Y-99516000D02*
X234965241Y-100841000D01*
X234925241Y-102921000D02*
X234925241Y-104229000D01*
X234925241Y-99533000D02*
X234925241Y-100841000D01*
X234885241Y-102921000D02*
X234885241Y-104210000D01*
X234885241Y-99552000D02*
X234885241Y-100841000D01*
X234845241Y-102921000D02*
X234845241Y-104191000D01*
X234845241Y-99571000D02*
X234845241Y-100841000D01*
X234805241Y-102921000D02*
X234805241Y-104171000D01*
X234805241Y-99591000D02*
X234805241Y-100841000D01*
X234765241Y-102921000D02*
X234765241Y-104149000D01*
X234765241Y-99613000D02*
X234765241Y-100841000D01*
X234725241Y-102921000D02*
X234725241Y-104128000D01*
X234725241Y-99634000D02*
X234725241Y-100841000D01*
X234685241Y-102921000D02*
X234685241Y-104105000D01*
X234685241Y-99657000D02*
X234685241Y-100841000D01*
X234645241Y-102921000D02*
X234645241Y-104081000D01*
X234645241Y-99681000D02*
X234645241Y-100841000D01*
X234605241Y-102921000D02*
X234605241Y-104056000D01*
X234605241Y-99706000D02*
X234605241Y-100841000D01*
X234565241Y-102921000D02*
X234565241Y-104030000D01*
X234565241Y-99732000D02*
X234565241Y-100841000D01*
X234525241Y-102921000D02*
X234525241Y-104003000D01*
X234525241Y-99759000D02*
X234525241Y-100841000D01*
X234485241Y-102921000D02*
X234485241Y-103976000D01*
X234485241Y-99786000D02*
X234485241Y-100841000D01*
X234445241Y-102921000D02*
X234445241Y-103946000D01*
X234445241Y-99816000D02*
X234445241Y-100841000D01*
X234405241Y-102921000D02*
X234405241Y-103916000D01*
X234405241Y-99846000D02*
X234405241Y-100841000D01*
X234365241Y-102921000D02*
X234365241Y-103885000D01*
X234365241Y-99877000D02*
X234365241Y-100841000D01*
X234325241Y-102921000D02*
X234325241Y-103852000D01*
X234325241Y-99910000D02*
X234325241Y-100841000D01*
X234285241Y-102921000D02*
X234285241Y-103818000D01*
X234285241Y-99944000D02*
X234285241Y-100841000D01*
X234245241Y-102921000D02*
X234245241Y-103782000D01*
X234245241Y-99980000D02*
X234245241Y-100841000D01*
X234205241Y-102921000D02*
X234205241Y-103745000D01*
X234205241Y-100017000D02*
X234205241Y-100841000D01*
X234165241Y-102921000D02*
X234165241Y-103707000D01*
X234165241Y-100055000D02*
X234165241Y-100841000D01*
X234125241Y-102921000D02*
X234125241Y-103666000D01*
X234125241Y-100096000D02*
X234125241Y-100841000D01*
X234085241Y-102921000D02*
X234085241Y-103624000D01*
X234085241Y-100138000D02*
X234085241Y-100841000D01*
X234045241Y-102921000D02*
X234045241Y-103580000D01*
X234045241Y-100182000D02*
X234045241Y-100841000D01*
X234005241Y-102921000D02*
X234005241Y-103534000D01*
X234005241Y-100228000D02*
X234005241Y-100841000D01*
X233965241Y-100276000D02*
X233965241Y-103486000D01*
X233925241Y-100327000D02*
X233925241Y-103435000D01*
X233885241Y-100381000D02*
X233885241Y-103381000D01*
X233845241Y-100438000D02*
X233845241Y-103324000D01*
X233805241Y-100498000D02*
X233805241Y-103264000D01*
X233765241Y-100562000D02*
X233765241Y-103200000D01*
X233725241Y-100630000D02*
X233725241Y-103132000D01*
X233685241Y-100703000D02*
X233685241Y-103059000D01*
X233645241Y-100783000D02*
X233645241Y-102979000D01*
X233605241Y-100870000D02*
X233605241Y-102892000D01*
X233565241Y-100966000D02*
X233565241Y-102796000D01*
X233525241Y-101076000D02*
X233525241Y-102686000D01*
X233485241Y-101204000D02*
X233485241Y-102558000D01*
X233445241Y-101363000D02*
X233445241Y-102399000D01*
X233405241Y-101597000D02*
X233405241Y-102165000D01*
X238626241Y-101881000D02*
G75*
G03*
X238626241Y-101881000I-2620000J0D01*
G01*
%TO.C,C77*%
X241577775Y-112087241D02*
X241077775Y-112087241D01*
X241327775Y-111837241D02*
X241327775Y-112337241D01*
X238773000Y-114602241D02*
X238773000Y-116142241D01*
X238773000Y-110982241D02*
X238773000Y-112522241D01*
X238733000Y-114602241D02*
X238733000Y-116142241D01*
X238733000Y-110982241D02*
X238733000Y-112522241D01*
X238693000Y-114602241D02*
X238693000Y-116141241D01*
X238693000Y-110983241D02*
X238693000Y-112522241D01*
X238653000Y-114602241D02*
X238653000Y-116140241D01*
X238653000Y-110984241D02*
X238653000Y-112522241D01*
X238613000Y-114602241D02*
X238613000Y-116138241D01*
X238613000Y-110986241D02*
X238613000Y-112522241D01*
X238573000Y-114602241D02*
X238573000Y-116135241D01*
X238573000Y-110989241D02*
X238573000Y-112522241D01*
X238533000Y-114602241D02*
X238533000Y-116131241D01*
X238533000Y-110993241D02*
X238533000Y-112522241D01*
X238493000Y-114602241D02*
X238493000Y-116127241D01*
X238493000Y-110997241D02*
X238493000Y-112522241D01*
X238453000Y-114602241D02*
X238453000Y-116123241D01*
X238453000Y-111001241D02*
X238453000Y-112522241D01*
X238413000Y-114602241D02*
X238413000Y-116118241D01*
X238413000Y-111006241D02*
X238413000Y-112522241D01*
X238373000Y-114602241D02*
X238373000Y-116112241D01*
X238373000Y-111012241D02*
X238373000Y-112522241D01*
X238333000Y-114602241D02*
X238333000Y-116105241D01*
X238333000Y-111019241D02*
X238333000Y-112522241D01*
X238293000Y-114602241D02*
X238293000Y-116098241D01*
X238293000Y-111026241D02*
X238293000Y-112522241D01*
X238253000Y-114602241D02*
X238253000Y-116090241D01*
X238253000Y-111034241D02*
X238253000Y-112522241D01*
X238213000Y-114602241D02*
X238213000Y-116082241D01*
X238213000Y-111042241D02*
X238213000Y-112522241D01*
X238173000Y-114602241D02*
X238173000Y-116073241D01*
X238173000Y-111051241D02*
X238173000Y-112522241D01*
X238133000Y-114602241D02*
X238133000Y-116063241D01*
X238133000Y-111061241D02*
X238133000Y-112522241D01*
X238093000Y-114602241D02*
X238093000Y-116053241D01*
X238093000Y-111071241D02*
X238093000Y-112522241D01*
X238052000Y-114602241D02*
X238052000Y-116042241D01*
X238052000Y-111082241D02*
X238052000Y-112522241D01*
X238012000Y-114602241D02*
X238012000Y-116030241D01*
X238012000Y-111094241D02*
X238012000Y-112522241D01*
X237972000Y-114602241D02*
X237972000Y-116017241D01*
X237972000Y-111107241D02*
X237972000Y-112522241D01*
X237932000Y-114602241D02*
X237932000Y-116004241D01*
X237932000Y-111120241D02*
X237932000Y-112522241D01*
X237892000Y-114602241D02*
X237892000Y-115990241D01*
X237892000Y-111134241D02*
X237892000Y-112522241D01*
X237852000Y-114602241D02*
X237852000Y-115976241D01*
X237852000Y-111148241D02*
X237852000Y-112522241D01*
X237812000Y-114602241D02*
X237812000Y-115960241D01*
X237812000Y-111164241D02*
X237812000Y-112522241D01*
X237772000Y-114602241D02*
X237772000Y-115944241D01*
X237772000Y-111180241D02*
X237772000Y-112522241D01*
X237732000Y-114602241D02*
X237732000Y-115927241D01*
X237732000Y-111197241D02*
X237732000Y-112522241D01*
X237692000Y-114602241D02*
X237692000Y-115910241D01*
X237692000Y-111214241D02*
X237692000Y-112522241D01*
X237652000Y-114602241D02*
X237652000Y-115891241D01*
X237652000Y-111233241D02*
X237652000Y-112522241D01*
X237612000Y-114602241D02*
X237612000Y-115872241D01*
X237612000Y-111252241D02*
X237612000Y-112522241D01*
X237572000Y-114602241D02*
X237572000Y-115852241D01*
X237572000Y-111272241D02*
X237572000Y-112522241D01*
X237532000Y-114602241D02*
X237532000Y-115830241D01*
X237532000Y-111294241D02*
X237532000Y-112522241D01*
X237492000Y-114602241D02*
X237492000Y-115809241D01*
X237492000Y-111315241D02*
X237492000Y-112522241D01*
X237452000Y-114602241D02*
X237452000Y-115786241D01*
X237452000Y-111338241D02*
X237452000Y-112522241D01*
X237412000Y-114602241D02*
X237412000Y-115762241D01*
X237412000Y-111362241D02*
X237412000Y-112522241D01*
X237372000Y-114602241D02*
X237372000Y-115737241D01*
X237372000Y-111387241D02*
X237372000Y-112522241D01*
X237332000Y-114602241D02*
X237332000Y-115711241D01*
X237332000Y-111413241D02*
X237332000Y-112522241D01*
X237292000Y-114602241D02*
X237292000Y-115684241D01*
X237292000Y-111440241D02*
X237292000Y-112522241D01*
X237252000Y-114602241D02*
X237252000Y-115657241D01*
X237252000Y-111467241D02*
X237252000Y-112522241D01*
X237212000Y-114602241D02*
X237212000Y-115627241D01*
X237212000Y-111497241D02*
X237212000Y-112522241D01*
X237172000Y-114602241D02*
X237172000Y-115597241D01*
X237172000Y-111527241D02*
X237172000Y-112522241D01*
X237132000Y-114602241D02*
X237132000Y-115566241D01*
X237132000Y-111558241D02*
X237132000Y-112522241D01*
X237092000Y-114602241D02*
X237092000Y-115533241D01*
X237092000Y-111591241D02*
X237092000Y-112522241D01*
X237052000Y-114602241D02*
X237052000Y-115499241D01*
X237052000Y-111625241D02*
X237052000Y-112522241D01*
X237012000Y-114602241D02*
X237012000Y-115463241D01*
X237012000Y-111661241D02*
X237012000Y-112522241D01*
X236972000Y-114602241D02*
X236972000Y-115426241D01*
X236972000Y-111698241D02*
X236972000Y-112522241D01*
X236932000Y-114602241D02*
X236932000Y-115388241D01*
X236932000Y-111736241D02*
X236932000Y-112522241D01*
X236892000Y-114602241D02*
X236892000Y-115347241D01*
X236892000Y-111777241D02*
X236892000Y-112522241D01*
X236852000Y-114602241D02*
X236852000Y-115305241D01*
X236852000Y-111819241D02*
X236852000Y-112522241D01*
X236812000Y-114602241D02*
X236812000Y-115261241D01*
X236812000Y-111863241D02*
X236812000Y-112522241D01*
X236772000Y-114602241D02*
X236772000Y-115215241D01*
X236772000Y-111909241D02*
X236772000Y-112522241D01*
X236732000Y-111957241D02*
X236732000Y-115167241D01*
X236692000Y-112008241D02*
X236692000Y-115116241D01*
X236652000Y-112062241D02*
X236652000Y-115062241D01*
X236612000Y-112119241D02*
X236612000Y-115005241D01*
X236572000Y-112179241D02*
X236572000Y-114945241D01*
X236532000Y-112243241D02*
X236532000Y-114881241D01*
X236492000Y-112311241D02*
X236492000Y-114813241D01*
X236452000Y-112384241D02*
X236452000Y-114740241D01*
X236412000Y-112464241D02*
X236412000Y-114660241D01*
X236372000Y-112551241D02*
X236372000Y-114573241D01*
X236332000Y-112647241D02*
X236332000Y-114477241D01*
X236292000Y-112757241D02*
X236292000Y-114367241D01*
X236252000Y-112885241D02*
X236252000Y-114239241D01*
X236212000Y-113044241D02*
X236212000Y-114080241D01*
X236172000Y-113278241D02*
X236172000Y-113846241D01*
X241393000Y-113562241D02*
G75*
G03*
X241393000Y-113562241I-2620000J0D01*
G01*
%TO.C,C67*%
X227483252Y-104057000D02*
X226960748Y-104057000D01*
X227483252Y-102587000D02*
X226960748Y-102587000D01*
%TO.C,R24*%
X207527996Y-114468064D02*
X207527996Y-114013936D01*
X208997996Y-114468064D02*
X208997996Y-114013936D01*
%TO.C,C44*%
X209398330Y-105713267D02*
X209398330Y-105420733D01*
X210418330Y-105713267D02*
X210418330Y-105420733D01*
%TO.C,C59*%
X190030733Y-62283000D02*
X190323267Y-62283000D01*
X190030733Y-63303000D02*
X190323267Y-63303000D01*
%TO.C,C64*%
X223673000Y-74268733D02*
X223673000Y-74561267D01*
X222653000Y-74268733D02*
X222653000Y-74561267D01*
%TO.C,C6*%
X204143000Y-70845267D02*
X204143000Y-70552733D01*
X205163000Y-70845267D02*
X205163000Y-70552733D01*
%TO.C,C4*%
X242018000Y-68517000D02*
X233783000Y-68517000D01*
X242018000Y-63997000D02*
X242018000Y-68517000D01*
X233783000Y-63997000D02*
X242018000Y-63997000D01*
%TO.C,C46*%
X204874004Y-114434252D02*
X204874004Y-113911748D01*
X206344004Y-114434252D02*
X206344004Y-113911748D01*
%TO.C,C16*%
X204930733Y-73557000D02*
X205223267Y-73557000D01*
X204930733Y-74577000D02*
X205223267Y-74577000D01*
%TO.C,C65*%
X233321000Y-97645267D02*
X233321000Y-97352733D01*
X234341000Y-97645267D02*
X234341000Y-97352733D01*
%TO.C,C45*%
X200406996Y-106464734D02*
X200406996Y-106757268D01*
X199386996Y-106464734D02*
X199386996Y-106757268D01*
%TO.C,C71*%
X240272482Y-84390000D02*
X239642482Y-84390000D01*
X239957482Y-84075000D02*
X239957482Y-84705000D01*
X236772241Y-82999000D02*
X236772241Y-89459000D01*
X236732241Y-82999000D02*
X236732241Y-89459000D01*
X236692241Y-82999000D02*
X236692241Y-89459000D01*
X236652241Y-83001000D02*
X236652241Y-89457000D01*
X236612241Y-83002000D02*
X236612241Y-89456000D01*
X236572241Y-83005000D02*
X236572241Y-89453000D01*
X236532241Y-87269000D02*
X236532241Y-89451000D01*
X236532241Y-83007000D02*
X236532241Y-85189000D01*
X236492241Y-87269000D02*
X236492241Y-89447000D01*
X236492241Y-83011000D02*
X236492241Y-85189000D01*
X236452241Y-87269000D02*
X236452241Y-89444000D01*
X236452241Y-83014000D02*
X236452241Y-85189000D01*
X236412241Y-87269000D02*
X236412241Y-89440000D01*
X236412241Y-83018000D02*
X236412241Y-85189000D01*
X236372241Y-87269000D02*
X236372241Y-89435000D01*
X236372241Y-83023000D02*
X236372241Y-85189000D01*
X236332241Y-87269000D02*
X236332241Y-89430000D01*
X236332241Y-83028000D02*
X236332241Y-85189000D01*
X236292241Y-87269000D02*
X236292241Y-89424000D01*
X236292241Y-83034000D02*
X236292241Y-85189000D01*
X236252241Y-87269000D02*
X236252241Y-89418000D01*
X236252241Y-83040000D02*
X236252241Y-85189000D01*
X236212241Y-87269000D02*
X236212241Y-89411000D01*
X236212241Y-83047000D02*
X236212241Y-85189000D01*
X236172241Y-87269000D02*
X236172241Y-89404000D01*
X236172241Y-83054000D02*
X236172241Y-85189000D01*
X236132241Y-87269000D02*
X236132241Y-89396000D01*
X236132241Y-83062000D02*
X236132241Y-85189000D01*
X236092241Y-87269000D02*
X236092241Y-89388000D01*
X236092241Y-83070000D02*
X236092241Y-85189000D01*
X236051241Y-87269000D02*
X236051241Y-89379000D01*
X236051241Y-83079000D02*
X236051241Y-85189000D01*
X236011241Y-87269000D02*
X236011241Y-89370000D01*
X236011241Y-83088000D02*
X236011241Y-85189000D01*
X235971241Y-87269000D02*
X235971241Y-89360000D01*
X235971241Y-83098000D02*
X235971241Y-85189000D01*
X235931241Y-87269000D02*
X235931241Y-89350000D01*
X235931241Y-83108000D02*
X235931241Y-85189000D01*
X235891241Y-87269000D02*
X235891241Y-89339000D01*
X235891241Y-83119000D02*
X235891241Y-85189000D01*
X235851241Y-87269000D02*
X235851241Y-89327000D01*
X235851241Y-83131000D02*
X235851241Y-85189000D01*
X235811241Y-87269000D02*
X235811241Y-89315000D01*
X235811241Y-83143000D02*
X235811241Y-85189000D01*
X235771241Y-87269000D02*
X235771241Y-89303000D01*
X235771241Y-83155000D02*
X235771241Y-85189000D01*
X235731241Y-87269000D02*
X235731241Y-89290000D01*
X235731241Y-83168000D02*
X235731241Y-85189000D01*
X235691241Y-87269000D02*
X235691241Y-89276000D01*
X235691241Y-83182000D02*
X235691241Y-85189000D01*
X235651241Y-87269000D02*
X235651241Y-89262000D01*
X235651241Y-83196000D02*
X235651241Y-85189000D01*
X235611241Y-87269000D02*
X235611241Y-89247000D01*
X235611241Y-83211000D02*
X235611241Y-85189000D01*
X235571241Y-87269000D02*
X235571241Y-89231000D01*
X235571241Y-83227000D02*
X235571241Y-85189000D01*
X235531241Y-87269000D02*
X235531241Y-89215000D01*
X235531241Y-83243000D02*
X235531241Y-85189000D01*
X235491241Y-87269000D02*
X235491241Y-89199000D01*
X235491241Y-83259000D02*
X235491241Y-85189000D01*
X235451241Y-87269000D02*
X235451241Y-89181000D01*
X235451241Y-83277000D02*
X235451241Y-85189000D01*
X235411241Y-87269000D02*
X235411241Y-89163000D01*
X235411241Y-83295000D02*
X235411241Y-85189000D01*
X235371241Y-87269000D02*
X235371241Y-89145000D01*
X235371241Y-83313000D02*
X235371241Y-85189000D01*
X235331241Y-87269000D02*
X235331241Y-89125000D01*
X235331241Y-83333000D02*
X235331241Y-85189000D01*
X235291241Y-87269000D02*
X235291241Y-89105000D01*
X235291241Y-83353000D02*
X235291241Y-85189000D01*
X235251241Y-87269000D02*
X235251241Y-89085000D01*
X235251241Y-83373000D02*
X235251241Y-85189000D01*
X235211241Y-87269000D02*
X235211241Y-89063000D01*
X235211241Y-83395000D02*
X235211241Y-85189000D01*
X235171241Y-87269000D02*
X235171241Y-89041000D01*
X235171241Y-83417000D02*
X235171241Y-85189000D01*
X235131241Y-87269000D02*
X235131241Y-89019000D01*
X235131241Y-83439000D02*
X235131241Y-85189000D01*
X235091241Y-87269000D02*
X235091241Y-88995000D01*
X235091241Y-83463000D02*
X235091241Y-85189000D01*
X235051241Y-87269000D02*
X235051241Y-88971000D01*
X235051241Y-83487000D02*
X235051241Y-85189000D01*
X235011241Y-87269000D02*
X235011241Y-88945000D01*
X235011241Y-83513000D02*
X235011241Y-85189000D01*
X234971241Y-87269000D02*
X234971241Y-88919000D01*
X234971241Y-83539000D02*
X234971241Y-85189000D01*
X234931241Y-87269000D02*
X234931241Y-88893000D01*
X234931241Y-83565000D02*
X234931241Y-85189000D01*
X234891241Y-87269000D02*
X234891241Y-88865000D01*
X234891241Y-83593000D02*
X234891241Y-85189000D01*
X234851241Y-87269000D02*
X234851241Y-88836000D01*
X234851241Y-83622000D02*
X234851241Y-85189000D01*
X234811241Y-87269000D02*
X234811241Y-88807000D01*
X234811241Y-83651000D02*
X234811241Y-85189000D01*
X234771241Y-87269000D02*
X234771241Y-88777000D01*
X234771241Y-83681000D02*
X234771241Y-85189000D01*
X234731241Y-87269000D02*
X234731241Y-88745000D01*
X234731241Y-83713000D02*
X234731241Y-85189000D01*
X234691241Y-87269000D02*
X234691241Y-88713000D01*
X234691241Y-83745000D02*
X234691241Y-85189000D01*
X234651241Y-87269000D02*
X234651241Y-88679000D01*
X234651241Y-83779000D02*
X234651241Y-85189000D01*
X234611241Y-87269000D02*
X234611241Y-88645000D01*
X234611241Y-83813000D02*
X234611241Y-85189000D01*
X234571241Y-87269000D02*
X234571241Y-88609000D01*
X234571241Y-83849000D02*
X234571241Y-85189000D01*
X234531241Y-87269000D02*
X234531241Y-88572000D01*
X234531241Y-83886000D02*
X234531241Y-85189000D01*
X234491241Y-87269000D02*
X234491241Y-88534000D01*
X234491241Y-83924000D02*
X234491241Y-85189000D01*
X234451241Y-83964000D02*
X234451241Y-88494000D01*
X234411241Y-84005000D02*
X234411241Y-88453000D01*
X234371241Y-84047000D02*
X234371241Y-88411000D01*
X234331241Y-84092000D02*
X234331241Y-88366000D01*
X234291241Y-84137000D02*
X234291241Y-88321000D01*
X234251241Y-84185000D02*
X234251241Y-88273000D01*
X234211241Y-84234000D02*
X234211241Y-88224000D01*
X234171241Y-84285000D02*
X234171241Y-88173000D01*
X234131241Y-84339000D02*
X234131241Y-88119000D01*
X234091241Y-84395000D02*
X234091241Y-88063000D01*
X234051241Y-84453000D02*
X234051241Y-88005000D01*
X234011241Y-84515000D02*
X234011241Y-87943000D01*
X233971241Y-84579000D02*
X233971241Y-87879000D01*
X233931241Y-84648000D02*
X233931241Y-87810000D01*
X233891241Y-84720000D02*
X233891241Y-87738000D01*
X233851241Y-84797000D02*
X233851241Y-87661000D01*
X233811241Y-84879000D02*
X233811241Y-87579000D01*
X233771241Y-84967000D02*
X233771241Y-87491000D01*
X233731241Y-85064000D02*
X233731241Y-87394000D01*
X233691241Y-85170000D02*
X233691241Y-87288000D01*
X233651241Y-85289000D02*
X233651241Y-87169000D01*
X233611241Y-85427000D02*
X233611241Y-87031000D01*
X233571241Y-85596000D02*
X233571241Y-86862000D01*
X233531241Y-85827000D02*
X233531241Y-86631000D01*
X240042241Y-86229000D02*
G75*
G03*
X240042241Y-86229000I-3270000J0D01*
G01*
%TO.C,C32*%
X214261000Y-96517261D02*
X214261000Y-96224727D01*
X215281000Y-96517261D02*
X215281000Y-96224727D01*
%TO.C,C68*%
X227373267Y-101807000D02*
X227080733Y-101807000D01*
X227373267Y-100787000D02*
X227080733Y-100787000D01*
%TO.C,R21*%
X206920064Y-104112668D02*
X206465936Y-104112668D01*
X206920064Y-102642668D02*
X206465936Y-102642668D01*
%TD*%
M02*
