M48
; DRILL file {KiCad 7.0.2} date Thu Nov  2 18:56:18 2023
; FORMAT={-:-/ absolute / metric / decimal}
; #@! TF.CreationDate,2023-11-02T18:56:18+01:00
; #@! TF.GenerationSoftware,Kicad,Pcbnew,7.0.2
; #@! TF.FileFunction,Plated,1,4,PTH
FMAT,2
METRIC
; #@! TA.AperFunction,Plated,PTH,ViaDrill
T1C0.400
; #@! TA.AperFunction,Plated,PTH,ComponentDrill
T2C0.750
; #@! TA.AperFunction,Plated,PTH,ComponentDrill
T3C0.800
; #@! TA.AperFunction,Plated,PTH,ComponentDrill
T4C1.000
; #@! TA.AperFunction,Plated,PTH,ComponentDrill
T5C1.100
; #@! TA.AperFunction,Plated,PTH,ComponentDrill
T6C3.200
%
G90
G05
T1
X183.896Y-97.028
X184.12Y-90.74
X184.531Y-87.63
X187.96Y-95.813
X188.12Y-90.74
X188.824Y-87.376
X188.976Y-89.408
X189.992Y-102.616
X190.12Y-90.74
X191.008Y-87.376
X191.516Y-58.928
X191.77Y-75.184
X192.024Y-79.756
X192.12Y-90.74
X192.481Y-70.358
X192.532Y-67.818
X192.532Y-94.996
X192.532Y-96.52
X192.532Y-98.044
X192.532Y-99.568
X192.786Y-65.532
X193.98Y-52.781
X194.056Y-94.996
X194.056Y-96.52
X194.056Y-98.044
X194.12Y-90.74
X194.564Y-64.008
X194.789Y-65.815
X195.072Y-81.28
X195.58Y-70.803
X195.58Y-87.376
X196.088Y-64.516
X196.088Y-94.996
X196.12Y-90.74
X196.438Y-111.961
X196.596Y-101.092
X196.85Y-56.388
X197.358Y-87.376
X197.612Y-58.928
X198.12Y-64.516
X198.12Y-90.74
X198.374Y-109.22
X198.628Y-105.156
X199.121Y-71.135
X199.136Y-72.136
X199.136Y-74.168
X199.644Y-60.96
X199.644Y-64.008
X199.644Y-81.28
X199.746Y-65.634
X199.746Y-66.548
X199.885Y-72.911
X200.12Y-90.74
X201.93Y-84.582
X201.93Y-111.252
X202.058Y-56.26
X202.12Y-90.74
X202.54Y-86.106
X202.54Y-87.63
X203.195Y-73.157
X203.2Y-65.024
X203.2Y-71.12
X203.2Y-77.216
X203.2Y-78.232
X203.708Y-55.564
X203.708Y-74.676
X203.708Y-84.074
X203.994Y-80.01
X204.12Y-90.74
X204.137Y-50.499
X204.724Y-51.308
X204.724Y-60.706
X204.724Y-61.976
X204.724Y-66.802
X204.724Y-68.58
X204.724Y-86.106
X204.724Y-87.63
X204.724Y-100.457
X205.486Y-55.372
X205.994Y-80.01
X206.12Y-90.74
X206.248Y-106.934
X206.248Y-110.236
X206.361Y-58.42
X206.502Y-76.708
X207.12Y-60.74
X207.12Y-62.74
X207.12Y-64.74
X207.12Y-66.74
X207.12Y-86.74
X207.315Y-68.58
X207.772Y-94.996
X207.772Y-96.266
X207.804Y-80.01
X208.026Y-76.708
X208.12Y-87.74
X208.12Y-90.74
X208.28Y-84.328
X208.471Y-54.852
X208.687Y-74.575
X209.12Y-60.74
X209.12Y-62.74
X209.12Y-64.74
X209.12Y-66.74
X209.12Y-68.74
X209.12Y-70.74
X209.12Y-72.74
X209.745Y-87.799
X209.804Y-80.01
X209.804Y-112.014
X209.906Y-108.204
X210.006Y-84.53
X210.172Y-96.634
X210.312Y-98.298
X210.693Y-101.727
X211.12Y-60.74
X211.12Y-62.74
X211.12Y-64.74
X211.12Y-66.74
X211.12Y-68.74
X211.12Y-70.74
X211.12Y-72.74
X211.12Y-74.74
X211.601Y-104.413
X211.836Y-54.864
X211.836Y-108.204
X211.918Y-80.518
X212.344Y-88.138
X212.852Y-110.744
X213.12Y-60.74
X213.12Y-62.74
X213.12Y-64.74
X213.12Y-66.74
X213.12Y-68.74
X213.12Y-70.74
X213.12Y-72.74
X213.12Y-74.74
X213.12Y-90.74
X213.36Y-91.948
X213.36Y-95.758
X213.36Y-102.616
X213.665Y-84.125
X213.677Y-80.518
X213.763Y-86.656
X213.868Y-55.372
X213.868Y-58.42
X214.771Y-97.233
X215.12Y-90.74
X215.571Y-58.42
X215.9Y-85.344
X215.9Y-94.488
X216.12Y-60.74
X216.12Y-62.74
X216.12Y-64.74
X216.12Y-66.74
X216.12Y-68.74
X216.12Y-70.74
X216.12Y-72.74
X216.408Y-55.372
X216.916Y-84.074
X217.12Y-90.74
X217.17Y-74.422
X217.202Y-58.928
X217.576Y-86.716
X217.932Y-78.74
X218.12Y-60.74
X218.12Y-62.74
X218.12Y-64.74
X218.12Y-66.74
X218.12Y-68.74
X218.12Y-70.74
X218.12Y-72.74
X218.694Y-52.324
X218.948Y-84.136
X218.948Y-94.234
X218.948Y-108.204
X219.12Y-90.74
X219.189Y-85.585
X219.202Y-58.928
X219.202Y-80.518
X219.456Y-102.362
X219.938Y-86.36
X219.964Y-61.976
X220.345Y-94.234
X220.472Y-59.944
X220.828Y-80.62
X221.12Y-90.74
X221.488Y-54.864
X221.488Y-74.422
X221.491Y-101.403
X221.52Y-70.612
X221.52Y-72.39
X221.742Y-63.754
X221.742Y-84.074
X222.453Y-86.309
X222.474Y-88.285
X222.961Y-77.622
X223.012Y-101.346
X223.044Y-79.248
X223.52Y-70.612
X223.52Y-72.39
X224.028Y-53.34
X224.282Y-98.806
X224.333Y-101.092
X224.698Y-95.919
X224.79Y-75.184
X224.841Y-60.757
X224.872Y-58.928
X225.044Y-64.262
X225.044Y-65.532
X225.044Y-66.548
X225.044Y-68.58
X225.044Y-70.612
X225.044Y-72.346
X225.044Y-73.66
X225.044Y-77.724
X225.044Y-79.248
X225.171Y-97.645
X226.06Y-100.076
X226.187Y-96.774
X226.568Y-55.88
X227.026Y-108.254
X227.076Y-87.884
X227.076Y-105.664
X228.092Y-57.404
X228.12Y-90.74
X228.6Y-77.597
X229.172Y-88.9
X229.209Y-100.177
X230.12Y-90.74
X231.137Y-70.612
X231.14Y-75.692
X231.14Y-83.566
X231.14Y-85.566
X231.14Y-87.566
X231.172Y-88.9
X231.648Y-105.156
X231.648Y-114.808
X232.12Y-90.74
X233.121Y-94.183
X233.121Y-95.199
X233.172Y-83.566
X233.172Y-85.566
X233.172Y-87.566
X233.172Y-88.9
X233.68Y-69.088
X233.68Y-108.204
X234.12Y-90.74
X234.188Y-59.944
X234.188Y-61.976
X234.188Y-64.008
X234.188Y-73.152
X234.645Y-94.183
X234.645Y-95.199
X234.76Y-88.9
X235.204Y-60.96
X235.204Y-69.088
X236.12Y-90.74
X236.22Y-61.976
X236.22Y-63.5
X236.22Y-65.024
X236.22Y-66.548
X236.22Y-68.072
X236.728Y-69.088
X236.76Y-88.9
X237.744Y-61.976
X237.744Y-63.5
X237.744Y-65.024
X237.744Y-66.548
X237.744Y-68.072
X238.12Y-90.74
X238.252Y-69.088
X238.252Y-106.68
X238.76Y-88.9
X239.268Y-63.5
X240.12Y-90.74
X240.284Y-76.2
X240.284Y-77.724
X240.284Y-78.846
X240.284Y-80.264
X240.284Y-81.788
X240.284Y-83.566
X240.284Y-85.344
X240.284Y-86.868
X240.284Y-95.504
X240.437Y-89.057
X242.12Y-90.74
X242.284Y-83.566
X242.284Y-85.344
X242.284Y-86.868
X242.316Y-76.2
X242.316Y-77.724
X242.316Y-78.846
X242.316Y-80.264
X242.316Y-81.788
X242.824Y-59.944
X242.824Y-61.976
X242.824Y-63.5
X242.824Y-67.564
X242.824Y-69.088
X243.84Y-106.172
X244.03Y-83.566
X244.03Y-85.344
X244.03Y-86.868
X244.348Y-67.564
X244.348Y-69.088
X244.348Y-76.2
X244.348Y-81.788
X245.618Y-83.566
X245.618Y-85.344
X245.618Y-86.868
X245.872Y-67.564
X245.872Y-69.088
X246.12Y-90.74
X246.38Y-94.996
X248.12Y-90.74
T2
X245.325Y-99.275
X245.325Y-100.545
X245.325Y-101.815
T3
X186.714Y-102.437
X186.714Y-104.937
X192.583Y-106.402
X195.083Y-106.402
X234.498Y-54.733
X235.006Y-101.881
X235.522Y-86.229
X236.498Y-54.733
X237.006Y-101.881
X237.773Y-113.562
X237.843Y-73.636
X238.022Y-86.229
X239.773Y-113.562
X240.343Y-73.636
T4
X186.229Y-57.675
X186.229Y-60.215
X186.229Y-62.755
X186.229Y-65.295
X186.229Y-67.835
X186.229Y-70.375
X186.229Y-72.915
X186.229Y-75.455
X186.229Y-79.483
X186.229Y-82.023
X186.229Y-84.563
X192.739Y-48.975
X195.279Y-48.975
X197.819Y-48.975
X200.359Y-48.975
X202.899Y-48.975
X205.439Y-48.975
X207.979Y-48.975
X210.519Y-48.975
X213.059Y-48.975
X214.533Y-114.601
X215.599Y-48.975
X217.073Y-114.601
X219.613Y-114.601
X220.013Y-48.975
X222.553Y-48.975
X225.093Y-48.975
X227.633Y-48.975
X232.457Y-49.069
X237.187Y-49.127
X239.727Y-49.127
T5
X244.877Y-60.471
X244.877Y-63.011
X244.877Y-65.551
T6
X187.599Y-49.887
X187.599Y-112.333
X245.099Y-49.833
X245.099Y-112.333
T0
M30
