%TF.GenerationSoftware,KiCad,Pcbnew,7.0.2*%
%TF.CreationDate,2023-11-01T23:55:43+01:00*%
%TF.ProjectId,stm_audio_board_V2,73746d5f-6175-4646-996f-5f626f617264,rev?*%
%TF.SameCoordinates,Original*%
%TF.FileFunction,Copper,L3,Inr*%
%TF.FilePolarity,Positive*%
%FSLAX46Y46*%
G04 Gerber Fmt 4.6, Leading zero omitted, Abs format (unit mm)*
G04 Created by KiCad (PCBNEW 7.0.2) date 2023-11-01 23:55:43*
%MOMM*%
%LPD*%
G01*
G04 APERTURE LIST*
%TA.AperFunction,ComponentPad*%
%ADD10C,5.600000*%
%TD*%
%TA.AperFunction,ComponentPad*%
%ADD11R,2.000000X1.905000*%
%TD*%
%TA.AperFunction,ComponentPad*%
%ADD12O,2.000000X1.905000*%
%TD*%
%TA.AperFunction,ComponentPad*%
%ADD13R,1.500000X1.050000*%
%TD*%
%TA.AperFunction,ComponentPad*%
%ADD14O,1.500000X1.050000*%
%TD*%
%TA.AperFunction,ComponentPad*%
%ADD15R,1.700000X1.700000*%
%TD*%
%TA.AperFunction,ComponentPad*%
%ADD16O,1.700000X1.700000*%
%TD*%
%TA.AperFunction,ComponentPad*%
%ADD17R,1.600000X1.600000*%
%TD*%
%TA.AperFunction,ComponentPad*%
%ADD18C,1.600000*%
%TD*%
%TA.AperFunction,ViaPad*%
%ADD19C,0.800000*%
%TD*%
G04 APERTURE END LIST*
D10*
%TO.N,GND*%
%TO.C,H2*%
X245003000Y-112333000D03*
%TD*%
D11*
%TO.N,PWR_INPUT_12V-18V*%
%TO.C,U3*%
X244877000Y-60471000D03*
D12*
%TO.N,GND*%
X244877000Y-63011000D03*
%TO.N,5V*%
X244877000Y-65551000D03*
%TD*%
D13*
%TO.N,Net-(D3-K)*%
%TO.C,U6*%
X245325000Y-99275000D03*
D14*
%TO.N,GND*%
X245325000Y-100545000D03*
%TO.N,+9V*%
X245325000Y-101815000D03*
%TD*%
D15*
%TO.N,TAP_TEMPO_INPUT*%
%TO.C,J4*%
X232457000Y-49069000D03*
%TD*%
%TO.N,+3.3V*%
%TO.C,J5*%
X192739000Y-48975000D03*
D16*
%TO.N,GND*%
X195279000Y-48975000D03*
%TO.N,DISPLAY_CS*%
X197819000Y-48975000D03*
%TO.N,DISPLAY_RST*%
X200359000Y-48975000D03*
%TO.N,DISPLAY_DC*%
X202899000Y-48975000D03*
%TO.N,DISPLAY_MOSI*%
X205439000Y-48975000D03*
%TO.N,DISPLAY_SCK*%
X207979000Y-48975000D03*
%TO.N,DISPLAY_MISO*%
X210519000Y-48975000D03*
%TO.N,TOUCH_CS*%
X213059000Y-48975000D03*
%TO.N,TOUCH_IRQ*%
X215599000Y-48975000D03*
%TD*%
D10*
%TO.N,GND*%
%TO.C,H4*%
X187599000Y-49887000D03*
%TD*%
%TO.N,GND*%
%TO.C,H3*%
X245278000Y-49887000D03*
%TD*%
%TO.N,GND*%
%TO.C,H1*%
X187324000Y-112058000D03*
%TD*%
D15*
%TO.N,GND*%
%TO.C,J6*%
X186229000Y-84563000D03*
D16*
%TO.N,POT_EXT*%
X186229000Y-82023000D03*
%TO.N,+3.3V*%
X186229000Y-79483000D03*
%TD*%
D15*
%TO.N,GND*%
%TO.C,J7*%
X186229000Y-75455000D03*
D16*
%TO.N,+3.3V*%
X186229000Y-72915000D03*
%TO.N,POT6*%
X186229000Y-70375000D03*
%TO.N,POT5*%
X186229000Y-67835000D03*
%TO.N,POT4*%
X186229000Y-65295000D03*
%TO.N,POT3*%
X186229000Y-62755000D03*
%TO.N,POT2*%
X186229000Y-60215000D03*
%TO.N,POT1*%
X186229000Y-57675000D03*
%TD*%
D15*
%TO.N,GND*%
%TO.C,J1*%
X237187000Y-49127000D03*
D16*
%TO.N,PWR_INPUT_12V-18V*%
X239727000Y-49127000D03*
%TD*%
D15*
%TO.N,GND*%
%TO.C,J2*%
X227633000Y-48975000D03*
D16*
%TO.N,SWDIO*%
X225093000Y-48975000D03*
%TO.N,SWCLK*%
X222553000Y-48975000D03*
%TO.N,+3.3V*%
X220013000Y-48975000D03*
%TD*%
D15*
%TO.N,GUITAR_IN*%
%TO.C,J3*%
X219613000Y-114601000D03*
D16*
%TO.N,GUITAR_OUT_L{slash}MONO*%
X217073000Y-114601000D03*
%TO.N,GUITAR_OUT_R*%
X214533000Y-114601000D03*
%TD*%
D17*
%TO.N,PWR_INPUT_12V-18V*%
%TO.C,C13*%
X236498241Y-54733000D03*
D18*
%TO.N,GND*%
X234498241Y-54733000D03*
%TD*%
D17*
%TO.N,+3.3VA*%
%TO.C,C29*%
X192583000Y-106401759D03*
D18*
%TO.N,GND*%
X195083000Y-106401759D03*
%TD*%
D17*
%TO.N,Net-(D2-K)*%
%TO.C,C28*%
X186714241Y-102437000D03*
D18*
%TO.N,GND*%
X186714241Y-104937000D03*
%TD*%
D17*
%TO.N,5V*%
%TO.C,C70*%
X237843000Y-70587759D03*
D18*
%TO.N,GND*%
X240343000Y-70587759D03*
%TD*%
D17*
%TO.N,Net-(7660S1-CAP+)*%
%TO.C,C76*%
X237006241Y-101881000D03*
D18*
%TO.N,Net-(7660S1-CAP-)*%
X235006241Y-101881000D03*
%TD*%
D17*
%TO.N,GND*%
%TO.C,C77*%
X239773000Y-113562241D03*
D18*
%TO.N,-9V*%
X237773000Y-113562241D03*
%TD*%
D17*
%TO.N,+3.3V*%
%TO.C,C71*%
X238022241Y-83181000D03*
D18*
%TO.N,GND*%
X240522241Y-83181000D03*
%TD*%
D19*
%TO.N,GND*%
X210312000Y-98298000D03*
X225044000Y-72346000D03*
X242316000Y-77216000D03*
X207772000Y-68580000D03*
X240284000Y-74676000D03*
X202184000Y-83312000D03*
X194056000Y-94996000D03*
X192024000Y-70104000D03*
X235712000Y-69088000D03*
X233172000Y-93980000D03*
X192532000Y-98044000D03*
X198120000Y-59436000D03*
X237744000Y-61976000D03*
X242316000Y-73152000D03*
X234696000Y-93980000D03*
X240284000Y-78740000D03*
X213360000Y-95758000D03*
X222504000Y-86868000D03*
X198374000Y-109220000D03*
X236220000Y-65024000D03*
X199644000Y-64008000D03*
X242824000Y-61976000D03*
X231140000Y-75692000D03*
X192532000Y-94996000D03*
X243840000Y-106172000D03*
X244348000Y-73152000D03*
X236220000Y-63500000D03*
X234188000Y-64008000D03*
X242824000Y-59944000D03*
X195580000Y-70803500D03*
X231648000Y-114808000D03*
X231137500Y-70612000D03*
X207772000Y-74168000D03*
X215075500Y-83820000D03*
X242316000Y-78740000D03*
X194056000Y-98044000D03*
X192024000Y-61976000D03*
X216408000Y-55372000D03*
X239268000Y-63500000D03*
X195072000Y-87376000D03*
X217678000Y-86614000D03*
X221488000Y-98044000D03*
X203200000Y-77216000D03*
X238252000Y-106680000D03*
X225044000Y-75184000D03*
X221996000Y-80264000D03*
X244348000Y-69088000D03*
X244348000Y-78740000D03*
X209804000Y-112014000D03*
X192532000Y-99568000D03*
X228600000Y-77724000D03*
X237744000Y-66548000D03*
X198628000Y-105156000D03*
X234188000Y-70612000D03*
X208280000Y-77216000D03*
X236220000Y-66548000D03*
X224274387Y-101505029D03*
X233680000Y-69088000D03*
X225044000Y-70612000D03*
X213360000Y-102616000D03*
X219456000Y-102362000D03*
X199644000Y-65532000D03*
X242316000Y-74676000D03*
X237744000Y-63500000D03*
X185928000Y-87376000D03*
X213868000Y-78740000D03*
X198628000Y-74168000D03*
X234696000Y-94996000D03*
X231648000Y-105156000D03*
X236220000Y-59944000D03*
X196437523Y-111960705D03*
X237744000Y-65024000D03*
X199644000Y-66548000D03*
X194056000Y-96520000D03*
X242824000Y-67564000D03*
X246380000Y-94996000D03*
X240284000Y-95504000D03*
X245872000Y-69088000D03*
X219964000Y-107887500D03*
X236220000Y-61976000D03*
X234188000Y-59944000D03*
X196088000Y-94996000D03*
X203008424Y-55563576D03*
X245872000Y-67564000D03*
X234188000Y-61976000D03*
X199644000Y-60960000D03*
X226568000Y-55880000D03*
X244348000Y-67564000D03*
X240284000Y-73152000D03*
X204470000Y-100330000D03*
X224028000Y-53340000D03*
X219456000Y-94488000D03*
X224698128Y-95918628D03*
X212852000Y-110744000D03*
X227076000Y-87884000D03*
X192532000Y-96520000D03*
X212852000Y-54356000D03*
X242824000Y-69088000D03*
X196596000Y-101092000D03*
X240284000Y-77216000D03*
X233172000Y-94996000D03*
X204724000Y-61976000D03*
X204724000Y-68580000D03*
X225044000Y-65532000D03*
X229209250Y-100177250D03*
X225044000Y-68580000D03*
X240284000Y-89916000D03*
X242316000Y-75798000D03*
X213360000Y-91948000D03*
X183896000Y-97028000D03*
X191516000Y-58928000D03*
X191516000Y-66548000D03*
X242824000Y-63500000D03*
X240284000Y-75798000D03*
X242824000Y-65024000D03*
%TO.N,DISPLAY_CS*%
X198120000Y-57912000D03*
%TO.N,DISPLAY_RST*%
X206360613Y-58420000D03*
%TO.N,DISPLAY_DC*%
X199644000Y-59944000D03*
%TO.N,DISPLAY_SCK*%
X204136671Y-50499267D03*
%TO.N,5V*%
X188976000Y-89408000D03*
%TO.N,Net-(D2-K)*%
X187960000Y-95813000D03*
%TO.N,DISPLAY_MISO*%
X204724000Y-51308000D03*
%TO.N,+3.3V*%
X206248000Y-75146500D03*
X221996000Y-88285000D03*
X203200000Y-65024000D03*
X203200000Y-71120000D03*
X213868000Y-55372000D03*
X195326000Y-55626000D03*
X215571500Y-58420000D03*
X203200000Y-61976000D03*
X225044000Y-73660000D03*
X199644000Y-81280000D03*
X215392000Y-51816000D03*
X212344000Y-87376000D03*
X213360000Y-80772000D03*
X203200000Y-78232000D03*
X213868000Y-58420000D03*
%TO.N,Net-(U4A-+)*%
X223012000Y-101346000D03*
%TO.N,AD1939_I2S2_SDO*%
X219938500Y-86360000D03*
X218948000Y-80772000D03*
X209296000Y-75692000D03*
X211328000Y-75692000D03*
%TO.N,AD1939_I2S1_SDI*%
X217932000Y-78740000D03*
X215900000Y-85344000D03*
%TO.N,AD1939_SPI3_MOSI*%
X208280000Y-84328000D03*
X208088500Y-86868000D03*
%TO.N,AD1939_I2S2_CK*%
X219188622Y-85584622D03*
X218948000Y-84136500D03*
%TO.N,AD1939_SPI3_CLK*%
X209804000Y-88392000D03*
X219964000Y-61976000D03*
%TO.N,AD1939_SPI3_MISO*%
X213763211Y-86656289D03*
X220472000Y-59944000D03*
%TO.N,AD1939_SPI_CS*%
X208788000Y-88900000D03*
X210005833Y-84529833D03*
%TO.N,AD1939_CM*%
X214376000Y-107887500D03*
X211601000Y-104413000D03*
%TO.N,+3.3VA*%
X210171622Y-96633622D03*
X189992000Y-102616000D03*
X214771000Y-97233494D03*
%TO.N,EXT_INT_BUTTON*%
X225044000Y-66548000D03*
%TO.N,AD1939_MCLKI*%
X224536000Y-97536000D03*
%TO.N,AD1939_MCLKO*%
X225742000Y-96710000D03*
%TO.N,AD1939_LF*%
X226060000Y-100076000D03*
%TO.N,+9V*%
X201930000Y-111252000D03*
X227025721Y-108254279D03*
X227076000Y-105664000D03*
%TO.N,-9V*%
X210820000Y-102616000D03*
X233680000Y-108204000D03*
X221491442Y-101403096D03*
%TO.N,AD1939_FILTR*%
X215900000Y-94488000D03*
%TO.N,SWDIO*%
X228092000Y-57404000D03*
%TO.N,SWCLK*%
X221488000Y-54864000D03*
%TO.N,DAC2R*%
X207772000Y-94996000D03*
%TO.N,DAC2L*%
X207772000Y-96266000D03*
%TO.N,Net-(R23-Pad2)*%
X206248000Y-110236000D03*
%TO.N,/MCU/NRST*%
X203200000Y-74676000D03*
X195072000Y-81280000D03*
%TO.N,POT5*%
X199136000Y-72136000D03*
%TO.N,POT1*%
X198120000Y-64516000D03*
%TO.N,POT6*%
X199884622Y-72911378D03*
%TO.N,POT2*%
X196596000Y-64516000D03*
%TO.N,POT3*%
X193548000Y-64516000D03*
%TO.N,POT_EXT*%
X192024000Y-79756000D03*
X203195076Y-73156924D03*
%TO.N,POT4*%
X199120535Y-71135465D03*
%TO.N,Net-(U2A-+)*%
X209804000Y-107950000D03*
%TO.N,Net-(U2A--)*%
X206248000Y-106934000D03*
%TO.N,Net-(C1-Pad1)*%
X224872000Y-58928000D03*
X206756000Y-54356000D03*
%TD*%
M02*
