M48
; DRILL file {KiCad 7.0.2} date Thu Nov  2 12:22:56 2023
; FORMAT={-:-/ absolute / inch / decimal}
; #@! TF.CreationDate,2023-11-02T12:22:56+01:00
; #@! TF.GenerationSoftware,Kicad,Pcbnew,7.0.2
; #@! TF.FileFunction,Plated,1,4,PTH
FMAT,2
INCH
; #@! TA.AperFunction,Plated,PTH,ViaDrill
T1C0.0157
; #@! TA.AperFunction,Plated,PTH,ComponentDrill
T2C0.0295
; #@! TA.AperFunction,Plated,PTH,ComponentDrill
T3C0.0315
; #@! TA.AperFunction,Plated,PTH,ComponentDrill
T4C0.0394
; #@! TA.AperFunction,Plated,PTH,ComponentDrill
T5C0.0433
; #@! TA.AperFunction,Plated,PTH,ComponentDrill
T6C0.1260
%
G90
G05
T1
X7.24Y-3.82
X7.265Y-3.45
X7.4Y-3.7722
X7.44Y-3.52
X7.48Y-4.04
X7.54Y-2.32
X7.54Y-2.95
X7.56Y-3.14
X7.58Y-2.67
X7.58Y-2.76
X7.58Y-3.74
X7.58Y-3.8
X7.58Y-3.86
X7.58Y-3.92
X7.59Y-2.58
X7.64Y-3.74
X7.64Y-3.8
X7.64Y-3.86
X7.66Y-2.52
X7.6689Y-2.5911
X7.68Y-3.2
X7.68Y-3.44
X7.69Y-2.19
X7.7Y-2.7875
X7.72Y-2.54
X7.72Y-3.74
X7.7338Y-4.4079
X7.74Y-3.98
X7.78Y-2.32
X7.7881Y-2.22
X7.8Y-2.54
X7.81Y-4.3
X7.82Y-4.14
X7.8394Y-2.8006
X7.84Y-2.84
X7.84Y-2.92
X7.86Y-2.4
X7.86Y-2.52
X7.86Y-2.58
X7.86Y-2.62
X7.86Y-3.2
X7.8695Y-2.8705
X7.9Y-3.37
X7.95Y-4.38
X7.9925Y-2.1875
X7.9998Y-2.8802
X8.0Y-2.56
X8.0Y-2.8
X8.0Y-3.04
X8.0Y-3.08
X8.02Y-2.94
X8.02Y-3.31
X8.0369Y-1.9882
X8.06Y-2.02
X8.06Y-2.44
X8.06Y-2.7
X8.06Y-3.955
X8.12Y-4.21
X8.12Y-4.34
X8.1244Y-2.3
X8.14Y-2.14
X8.18Y-2.7
X8.18Y-3.74
X8.18Y-3.79
X8.1925Y-3.42
X8.2Y-3.32
X8.22Y-2.94
X8.22Y-3.5
X8.26Y-3.48
X8.26Y-4.25
X8.26Y-4.41
X8.2679Y-3.3279
X8.2745Y-3.8045
X8.28Y-3.87
X8.295Y-4.005
X8.3307Y-4.1107
X8.34Y-4.26
X8.3432Y-3.17
X8.36Y-3.47
X8.38Y-2.14
X8.38Y-4.36
X8.4Y-3.62
X8.4Y-3.77
X8.4Y-4.04
X8.412Y-3.312
X8.4125Y-3.17
X8.4159Y-3.4117
X8.42Y-2.18
X8.42Y-2.3
X8.4556Y-3.8281
X8.48Y-2.04
X8.4871Y-2.3
X8.5Y-3.36
X8.5Y-3.72
X8.52Y-2.18
X8.54Y-3.31
X8.566Y-3.414
X8.58Y-3.1
X8.62Y-3.3125
X8.62Y-3.71
X8.62Y-4.26
X8.6295Y-3.3695
X8.63Y-3.17
X8.64Y-4.03
X8.659Y-3.4
X8.66Y-2.44
X8.675Y-3.71
X8.68Y-2.36
X8.72Y-2.16
X8.72Y-3.86
X8.7201Y-3.9922
X8.73Y-3.31
X8.74Y-3.4758
X8.76Y-3.42
X8.78Y-3.99
X8.82Y-2.1
X8.8297Y-3.9963
X8.8464Y-3.7763
X8.85Y-2.96
X8.8532Y-2.32
X8.86Y-2.58
X8.86Y-2.62
X8.86Y-2.7
X8.86Y-2.78
X8.86Y-2.8483
X8.86Y-2.9
X8.865Y-3.8443
X8.9Y-3.94
X8.905Y-3.81
X8.92Y-2.2
X8.938Y-4.262
X8.94Y-3.46
X8.94Y-4.16
X8.98Y-2.26
X9.0Y-3.055
X9.024Y-3.944
X9.0999Y-2.78
X9.1Y-2.98
X9.12Y-4.14
X9.12Y-4.52
X9.178Y-3.708
X9.178Y-3.748
X9.2Y-2.72
X9.2Y-4.26
X9.22Y-2.36
X9.22Y-2.44
X9.22Y-2.52
X9.22Y-2.88
X9.238Y-3.708
X9.238Y-3.748
X9.26Y-2.4
X9.26Y-2.72
X9.3Y-2.44
X9.3Y-2.5
X9.3Y-2.56
X9.3Y-2.62
X9.3Y-2.68
X9.32Y-2.72
X9.36Y-2.44
X9.36Y-2.5
X9.36Y-2.56
X9.36Y-2.62
X9.36Y-2.68
X9.38Y-2.72
X9.38Y-4.2
X9.42Y-2.5
X9.46Y-3.0
X9.46Y-3.06
X9.46Y-3.1042
X9.46Y-3.16
X9.46Y-3.22
X9.46Y-3.54
X9.46Y-3.76
X9.54Y-3.0
X9.54Y-3.06
X9.54Y-3.1042
X9.54Y-3.16
X9.54Y-3.22
X9.56Y-2.36
X9.56Y-2.44
X9.56Y-2.5
X9.56Y-2.66
X9.56Y-2.72
X9.6Y-4.18
X9.62Y-2.66
X9.62Y-2.72
X9.62Y-3.0
X9.62Y-3.22
X9.68Y-2.66
X9.68Y-2.72
X9.7Y-3.74
T2
X9.6585Y-3.9085
X9.6585Y-3.9585
X9.6585Y-4.0085
T3
X7.351Y-4.033
X7.351Y-4.1314
X7.582Y-4.189
X7.6804Y-4.189
X9.2322Y-2.1548
X9.2522Y-4.0111
X9.2725Y-3.3948
X9.311Y-2.1548
X9.331Y-4.0111
X9.3611Y-4.471
X9.3639Y-2.899
X9.371Y-3.3948
X9.4399Y-4.471
X9.4623Y-2.899
T4
X7.3319Y-2.2707
X7.3319Y-2.3707
X7.3319Y-2.4707
X7.3319Y-2.5707
X7.3319Y-2.6707
X7.3319Y-2.7707
X7.3319Y-2.8707
X7.3319Y-2.9707
X7.3319Y-3.1293
X7.3319Y-3.2293
X7.3319Y-3.3293
X7.5881Y-1.9281
X7.6881Y-1.9281
X7.7881Y-1.9281
X7.8881Y-1.9281
X7.9881Y-1.9281
X8.0881Y-1.9281
X8.1881Y-1.9281
X8.2881Y-1.9281
X8.3881Y-1.9281
X8.4462Y-4.5119
X8.4881Y-1.9281
X8.5462Y-4.5119
X8.6462Y-4.5119
X8.6619Y-1.9281
X8.7619Y-1.9281
X8.8619Y-1.9281
X8.9619Y-1.9281
X9.1519Y-1.9319
X9.3381Y-1.9341
X9.4381Y-1.9341
T5
X9.6408Y-2.3807
X9.6408Y-2.4807
X9.6408Y-2.5807
T6
X7.375Y-4.4117
X7.3858Y-1.9641
X9.6458Y-4.4226
X9.6566Y-1.9641
T0
M30
