%TF.GenerationSoftware,KiCad,Pcbnew,7.0.2*%
%TF.CreationDate,2023-11-02T10:17:44+01:00*%
%TF.ProjectId,stm_audio_board_V2,73746d5f-6175-4646-996f-5f626f617264,rev?*%
%TF.SameCoordinates,Original*%
%TF.FileFunction,Copper,L4,Bot*%
%TF.FilePolarity,Positive*%
%FSLAX46Y46*%
G04 Gerber Fmt 4.6, Leading zero omitted, Abs format (unit mm)*
G04 Created by KiCad (PCBNEW 7.0.2) date 2023-11-02 10:17:44*
%MOMM*%
%LPD*%
G01*
G04 APERTURE LIST*
G04 Aperture macros list*
%AMRoundRect*
0 Rectangle with rounded corners*
0 $1 Rounding radius*
0 $2 $3 $4 $5 $6 $7 $8 $9 X,Y pos of 4 corners*
0 Add a 4 corners polygon primitive as box body*
4,1,4,$2,$3,$4,$5,$6,$7,$8,$9,$2,$3,0*
0 Add four circle primitives for the rounded corners*
1,1,$1+$1,$2,$3*
1,1,$1+$1,$4,$5*
1,1,$1+$1,$6,$7*
1,1,$1+$1,$8,$9*
0 Add four rect primitives between the rounded corners*
20,1,$1+$1,$2,$3,$4,$5,0*
20,1,$1+$1,$4,$5,$6,$7,0*
20,1,$1+$1,$6,$7,$8,$9,0*
20,1,$1+$1,$8,$9,$2,$3,0*%
G04 Aperture macros list end*
%TA.AperFunction,ComponentPad*%
%ADD10C,5.600000*%
%TD*%
%TA.AperFunction,ComponentPad*%
%ADD11R,2.000000X1.905000*%
%TD*%
%TA.AperFunction,ComponentPad*%
%ADD12O,2.000000X1.905000*%
%TD*%
%TA.AperFunction,ComponentPad*%
%ADD13R,1.500000X1.050000*%
%TD*%
%TA.AperFunction,ComponentPad*%
%ADD14O,1.500000X1.050000*%
%TD*%
%TA.AperFunction,ComponentPad*%
%ADD15R,1.700000X1.700000*%
%TD*%
%TA.AperFunction,ComponentPad*%
%ADD16O,1.700000X1.700000*%
%TD*%
%TA.AperFunction,SMDPad,CuDef*%
%ADD17RoundRect,0.237500X-0.237500X0.300000X-0.237500X-0.300000X0.237500X-0.300000X0.237500X0.300000X0*%
%TD*%
%TA.AperFunction,SMDPad,CuDef*%
%ADD18RoundRect,0.237500X-0.300000X-0.237500X0.300000X-0.237500X0.300000X0.237500X-0.300000X0.237500X0*%
%TD*%
%TA.AperFunction,SMDPad,CuDef*%
%ADD19RoundRect,0.250000X0.337500X0.475000X-0.337500X0.475000X-0.337500X-0.475000X0.337500X-0.475000X0*%
%TD*%
%TA.AperFunction,ComponentPad*%
%ADD20R,1.600000X1.600000*%
%TD*%
%TA.AperFunction,ComponentPad*%
%ADD21C,1.600000*%
%TD*%
%TA.AperFunction,SMDPad,CuDef*%
%ADD22RoundRect,0.250000X0.350000X0.450000X-0.350000X0.450000X-0.350000X-0.450000X0.350000X-0.450000X0*%
%TD*%
%TA.AperFunction,SMDPad,CuDef*%
%ADD23R,1.600000X1.300000*%
%TD*%
%TA.AperFunction,SMDPad,CuDef*%
%ADD24RoundRect,0.237500X0.300000X0.237500X-0.300000X0.237500X-0.300000X-0.237500X0.300000X-0.237500X0*%
%TD*%
%TA.AperFunction,SMDPad,CuDef*%
%ADD25RoundRect,0.250001X-0.462499X-0.624999X0.462499X-0.624999X0.462499X0.624999X-0.462499X0.624999X0*%
%TD*%
%TA.AperFunction,SMDPad,CuDef*%
%ADD26RoundRect,0.250000X-0.450000X0.350000X-0.450000X-0.350000X0.450000X-0.350000X0.450000X0.350000X0*%
%TD*%
%TA.AperFunction,SMDPad,CuDef*%
%ADD27RoundRect,0.237500X0.237500X-0.300000X0.237500X0.300000X-0.237500X0.300000X-0.237500X-0.300000X0*%
%TD*%
%TA.AperFunction,SMDPad,CuDef*%
%ADD28RoundRect,0.250000X-1.025000X0.875000X-1.025000X-0.875000X1.025000X-0.875000X1.025000X0.875000X0*%
%TD*%
%TA.AperFunction,SMDPad,CuDef*%
%ADD29RoundRect,0.250000X-0.350000X-0.450000X0.350000X-0.450000X0.350000X0.450000X-0.350000X0.450000X0*%
%TD*%
%TA.AperFunction,SMDPad,CuDef*%
%ADD30RoundRect,0.250001X-0.624999X0.462499X-0.624999X-0.462499X0.624999X-0.462499X0.624999X0.462499X0*%
%TD*%
%TA.AperFunction,SMDPad,CuDef*%
%ADD31RoundRect,0.250000X0.450000X-0.350000X0.450000X0.350000X-0.450000X0.350000X-0.450000X-0.350000X0*%
%TD*%
%TA.AperFunction,SMDPad,CuDef*%
%ADD32RoundRect,0.250000X0.875000X1.025000X-0.875000X1.025000X-0.875000X-1.025000X0.875000X-1.025000X0*%
%TD*%
%TA.AperFunction,SMDPad,CuDef*%
%ADD33RoundRect,0.250000X0.475000X-0.337500X0.475000X0.337500X-0.475000X0.337500X-0.475000X-0.337500X0*%
%TD*%
%TA.AperFunction,ViaPad*%
%ADD34C,0.800000*%
%TD*%
%TA.AperFunction,Conductor*%
%ADD35C,0.508000*%
%TD*%
%TA.AperFunction,Conductor*%
%ADD36C,0.762000*%
%TD*%
%TA.AperFunction,Conductor*%
%ADD37C,0.200000*%
%TD*%
%TA.AperFunction,Conductor*%
%ADD38C,0.635000*%
%TD*%
%TA.AperFunction,Conductor*%
%ADD39C,0.400000*%
%TD*%
%TA.AperFunction,Conductor*%
%ADD40C,0.500000*%
%TD*%
%TA.AperFunction,Conductor*%
%ADD41C,0.304800*%
%TD*%
%TA.AperFunction,Conductor*%
%ADD42C,1.524000*%
%TD*%
%TA.AperFunction,Conductor*%
%ADD43C,1.016000*%
%TD*%
G04 APERTURE END LIST*
D10*
%TO.P,H2,1,1*%
%TO.N,GND*%
X245003000Y-112333000D03*
%TD*%
D11*
%TO.P,U3,1,IN*%
%TO.N,PWR_INPUT_12V-18V*%
X244877000Y-60471000D03*
D12*
%TO.P,U3,2,GND*%
%TO.N,GND*%
X244877000Y-63011000D03*
%TO.P,U3,3,OUT*%
%TO.N,5V*%
X244877000Y-65551000D03*
%TD*%
D13*
%TO.P,U6,1,IN*%
%TO.N,Net-(D3-K)*%
X245325000Y-99275000D03*
D14*
%TO.P,U6,2,GND*%
%TO.N,GND*%
X245325000Y-100545000D03*
%TO.P,U6,3,OUT*%
%TO.N,+9V*%
X245325000Y-101815000D03*
%TD*%
D15*
%TO.P,J4,1,Pin_1*%
%TO.N,TAP_TEMPO_INPUT*%
X232457000Y-49069000D03*
%TD*%
%TO.P,J5,1,Pin_1*%
%TO.N,+3.3V*%
X192739000Y-48975000D03*
D16*
%TO.P,J5,2,Pin_2*%
%TO.N,GND*%
X195279000Y-48975000D03*
%TO.P,J5,3,Pin_3*%
%TO.N,DISPLAY_CS*%
X197819000Y-48975000D03*
%TO.P,J5,4,Pin_4*%
%TO.N,DISPLAY_RST*%
X200359000Y-48975000D03*
%TO.P,J5,5,Pin_5*%
%TO.N,DISPLAY_DC*%
X202899000Y-48975000D03*
%TO.P,J5,6,Pin_6*%
%TO.N,DISPLAY_MOSI*%
X205439000Y-48975000D03*
%TO.P,J5,7,Pin_7*%
%TO.N,DISPLAY_SCK*%
X207979000Y-48975000D03*
%TO.P,J5,8,Pin_8*%
%TO.N,DISPLAY_MISO*%
X210519000Y-48975000D03*
%TO.P,J5,9,Pin_9*%
%TO.N,TOUCH_CS*%
X213059000Y-48975000D03*
%TO.P,J5,10,Pin_10*%
%TO.N,TOUCH_IRQ*%
X215599000Y-48975000D03*
%TD*%
D10*
%TO.P,H4,1,1*%
%TO.N,GND*%
X187599000Y-49887000D03*
%TD*%
%TO.P,H3,1,1*%
%TO.N,GND*%
X245278000Y-49887000D03*
%TD*%
%TO.P,H1,1,1*%
%TO.N,GND*%
X187324000Y-112058000D03*
%TD*%
D15*
%TO.P,J6,1,Pin_1*%
%TO.N,GND*%
X186229000Y-84563000D03*
D16*
%TO.P,J6,2,Pin_2*%
%TO.N,POT_EXT*%
X186229000Y-82023000D03*
%TO.P,J6,3,Pin_3*%
%TO.N,+3.3V*%
X186229000Y-79483000D03*
%TD*%
D15*
%TO.P,J7,1,Pin_1*%
%TO.N,GND*%
X186229000Y-75455000D03*
D16*
%TO.P,J7,2,Pin_2*%
%TO.N,+3.3V*%
X186229000Y-72915000D03*
%TO.P,J7,3,Pin_3*%
%TO.N,POT6*%
X186229000Y-70375000D03*
%TO.P,J7,4,Pin_4*%
%TO.N,POT5*%
X186229000Y-67835000D03*
%TO.P,J7,5,Pin_5*%
%TO.N,POT4*%
X186229000Y-65295000D03*
%TO.P,J7,6,Pin_6*%
%TO.N,POT3*%
X186229000Y-62755000D03*
%TO.P,J7,7,Pin_7*%
%TO.N,POT2*%
X186229000Y-60215000D03*
%TO.P,J7,8,Pin_8*%
%TO.N,POT1*%
X186229000Y-57675000D03*
%TD*%
D15*
%TO.P,J1,1,Pin_1*%
%TO.N,GND*%
X237187000Y-49127000D03*
D16*
%TO.P,J1,2,Pin_2*%
%TO.N,PWR_INPUT_12V-18V*%
X239727000Y-49127000D03*
%TD*%
D15*
%TO.P,J2,1,Pin_1*%
%TO.N,GND*%
X227633000Y-48975000D03*
D16*
%TO.P,J2,2,Pin_2*%
%TO.N,SWDIO*%
X225093000Y-48975000D03*
%TO.P,J2,3,Pin_3*%
%TO.N,SWCLK*%
X222553000Y-48975000D03*
%TO.P,J2,4,Pin_4*%
%TO.N,+3.3V*%
X220013000Y-48975000D03*
%TD*%
D15*
%TO.P,J3,1,Pin_1*%
%TO.N,GUITAR_IN*%
X219613000Y-114601000D03*
D16*
%TO.P,J3,2,Pin_2*%
%TO.N,GUITAR_OUT_L{slash}MONO*%
X217073000Y-114601000D03*
%TO.P,J3,3,Pin_3*%
%TO.N,GUITAR_OUT_R*%
X214533000Y-114601000D03*
%TD*%
D17*
%TO.P,C25,1*%
%TO.N,GND*%
X220543000Y-103238524D03*
%TO.P,C25,2*%
%TO.N,AD1939_CM*%
X220543000Y-104963524D03*
%TD*%
D18*
%TO.P,C54,1*%
%TO.N,POT5*%
X189314500Y-67885000D03*
%TO.P,C54,2*%
%TO.N,GND*%
X191039500Y-67885000D03*
%TD*%
D17*
%TO.P,C7,1*%
%TO.N,+3.3V*%
X200657000Y-82378500D03*
%TO.P,C7,2*%
%TO.N,GND*%
X200657000Y-84103500D03*
%TD*%
D19*
%TO.P,C15,1*%
%TO.N,5V*%
X241010500Y-62163000D03*
%TO.P,C15,2*%
%TO.N,GND*%
X238935500Y-62163000D03*
%TD*%
D20*
%TO.P,C13,1*%
%TO.N,PWR_INPUT_12V-18V*%
X236498241Y-54733000D03*
D21*
%TO.P,C13,2*%
%TO.N,GND*%
X234498241Y-54733000D03*
%TD*%
D22*
%TO.P,R22,1*%
%TO.N,Net-(U2A--)*%
X203674999Y-103569000D03*
%TO.P,R22,2*%
%TO.N,Net-(C41-Pad1)*%
X201674999Y-103569000D03*
%TD*%
D23*
%TO.P,Y1,1,1*%
%TO.N,AD1939_MCLKO*%
X228309000Y-96595000D03*
%TO.P,Y1,2,2*%
%TO.N,GND*%
X231609000Y-96595000D03*
%TO.P,Y1,3,3*%
%TO.N,AD1939_MCLKI*%
X231609000Y-98595000D03*
%TO.P,Y1,4,4*%
%TO.N,GND*%
X228309000Y-98595000D03*
%TD*%
D24*
%TO.P,C63,1*%
%TO.N,GND*%
X223603500Y-68346334D03*
%TO.P,C63,2*%
%TO.N,EXT_INT_BUTTON*%
X221878500Y-68346334D03*
%TD*%
D25*
%TO.P,D1,1,K*%
%TO.N,PWR_INPUT_12V-18V*%
X237663500Y-59817000D03*
%TO.P,D1,2,A*%
%TO.N,5V*%
X240638500Y-59817000D03*
%TD*%
D26*
%TO.P,R15,1*%
%TO.N,DAC2R*%
X206063664Y-95711000D03*
%TO.P,R15,2*%
%TO.N,Net-(C40-Pad2)*%
X206063664Y-97711000D03*
%TD*%
D22*
%TO.P,R20,1*%
%TO.N,GND*%
X203709665Y-101537000D03*
%TO.P,R20,2*%
%TO.N,Net-(C41-Pad1)*%
X201709665Y-101537000D03*
%TD*%
D20*
%TO.P,C29,1*%
%TO.N,+3.3VA*%
X192583000Y-106401759D03*
D21*
%TO.P,C29,2*%
%TO.N,GND*%
X195083000Y-106401759D03*
%TD*%
D18*
%TO.P,C41,1*%
%TO.N,Net-(C41-Pad1)*%
X201966500Y-99315004D03*
%TO.P,C41,2*%
%TO.N,GND*%
X203691500Y-99315004D03*
%TD*%
D27*
%TO.P,C9,1*%
%TO.N,+3.3V*%
X212781000Y-79531500D03*
%TO.P,C9,2*%
%TO.N,GND*%
X212781000Y-77806500D03*
%TD*%
D20*
%TO.P,C28,1*%
%TO.N,Net-(D2-K)*%
X186714241Y-102437000D03*
D21*
%TO.P,C28,2*%
%TO.N,GND*%
X186714241Y-104937000D03*
%TD*%
D18*
%TO.P,C56,1*%
%TO.N,POT6*%
X189314500Y-70431000D03*
%TO.P,C56,2*%
%TO.N,GND*%
X191039500Y-70431000D03*
%TD*%
D27*
%TO.P,C102,1*%
%TO.N,5V*%
X234540000Y-76447500D03*
%TO.P,C102,2*%
%TO.N,GND*%
X234540000Y-74722500D03*
%TD*%
D28*
%TO.P,C26,1*%
%TO.N,AD1939_CM*%
X215838976Y-103913000D03*
%TO.P,C26,2*%
%TO.N,GND*%
X215838976Y-110313000D03*
%TD*%
D20*
%TO.P,C70,1*%
%TO.N,5V*%
X237843000Y-73635759D03*
D21*
%TO.P,C70,2*%
%TO.N,GND*%
X240343000Y-73635759D03*
%TD*%
D26*
%TO.P,R3,1*%
%TO.N,Net-(U4A-+)*%
X222541000Y-102901024D03*
%TO.P,R3,2*%
%TO.N,AD1939_CM*%
X222541000Y-104901024D03*
%TD*%
D24*
%TO.P,C79,1*%
%TO.N,GND*%
X218437500Y-95425000D03*
%TO.P,C79,2*%
%TO.N,AD1939_FILTR*%
X216712500Y-95425000D03*
%TD*%
D29*
%TO.P,R19,1*%
%TO.N,Net-(C40-Pad2)*%
X205761661Y-101409000D03*
%TO.P,R19,2*%
%TO.N,Net-(C44-Pad2)*%
X207761661Y-101409000D03*
%TD*%
D30*
%TO.P,D2,1,K*%
%TO.N,Net-(D2-K)*%
X189617000Y-96439500D03*
%TO.P,D2,2,A*%
%TO.N,+3.3VA*%
X189617000Y-99414500D03*
%TD*%
D27*
%TO.P,C10,1*%
%TO.N,+3.3V*%
X204781000Y-64941500D03*
%TO.P,C10,2*%
%TO.N,GND*%
X204781000Y-63216500D03*
%TD*%
%TO.P,C34,1*%
%TO.N,+3.3VA*%
X220003000Y-97245500D03*
%TO.P,C34,2*%
%TO.N,GND*%
X220003000Y-95520500D03*
%TD*%
%TO.P,C61,1*%
%TO.N,POT_EXT*%
X207321000Y-71753500D03*
%TO.P,C61,2*%
%TO.N,GND*%
X207321000Y-70028500D03*
%TD*%
D19*
%TO.P,C80,1*%
%TO.N,AD1939_FILTR*%
X217188500Y-92059000D03*
%TO.P,C80,2*%
%TO.N,GND*%
X215113500Y-92059000D03*
%TD*%
D24*
%TO.P,C66,1*%
%TO.N,GND*%
X231755500Y-94385000D03*
%TO.P,C66,2*%
%TO.N,AD1939_MCLKO*%
X230030500Y-94385000D03*
%TD*%
D27*
%TO.P,C17,1*%
%TO.N,Net-(U4A-+)*%
X224525000Y-104963524D03*
%TO.P,C17,2*%
%TO.N,GND*%
X224525000Y-103238524D03*
%TD*%
D18*
%TO.P,C62,1*%
%TO.N,POT4*%
X189314500Y-65339000D03*
%TO.P,C62,2*%
%TO.N,GND*%
X191039500Y-65339000D03*
%TD*%
%TO.P,C40,1*%
%TO.N,GND*%
X205761163Y-99451000D03*
%TO.P,C40,2*%
%TO.N,Net-(C40-Pad2)*%
X207486163Y-99451000D03*
%TD*%
%TO.P,C57,1*%
%TO.N,POT2*%
X189432500Y-60267000D03*
%TO.P,C57,2*%
%TO.N,GND*%
X191157500Y-60267000D03*
%TD*%
D17*
%TO.P,C33,1*%
%TO.N,+3.3VA*%
X209081000Y-96506500D03*
%TO.P,C33,2*%
%TO.N,GND*%
X209081000Y-98231500D03*
%TD*%
D26*
%TO.P,R16,1*%
%TO.N,DAC2L*%
X203488998Y-95711000D03*
%TO.P,R16,2*%
%TO.N,Net-(C41-Pad1)*%
X203488998Y-97711000D03*
%TD*%
D17*
%TO.P,C47,1*%
%TO.N,GND*%
X210531999Y-113501500D03*
%TO.P,C47,2*%
%TO.N,GUITAR_OUT_R*%
X210531999Y-115226500D03*
%TD*%
D18*
%TO.P,C55,1*%
%TO.N,POT1*%
X189426500Y-57727000D03*
%TO.P,C55,2*%
%TO.N,GND*%
X191151500Y-57727000D03*
%TD*%
D22*
%TO.P,R33,1*%
%TO.N,EXT_INT_BUTTON*%
X223727000Y-66384334D03*
%TO.P,R33,2*%
%TO.N,TAP_TEMPO_INPUT*%
X221727000Y-66384334D03*
%TD*%
D31*
%TO.P,R23,1*%
%TO.N,Net-(C46-Pad1)*%
X202808996Y-115127000D03*
%TO.P,R23,2*%
%TO.N,Net-(R23-Pad2)*%
X202808996Y-113127000D03*
%TD*%
D27*
%TO.P,C11,1*%
%TO.N,+3.3V*%
X204653000Y-78195500D03*
%TO.P,C11,2*%
%TO.N,GND*%
X204653000Y-76470500D03*
%TD*%
%TO.P,C14,1*%
%TO.N,+3.3V*%
X221013000Y-88023500D03*
%TO.P,C14,2*%
%TO.N,GND*%
X221013000Y-86298500D03*
%TD*%
D31*
%TO.P,R10,1*%
%TO.N,Net-(C67-Pad1)*%
X230373000Y-103325000D03*
%TO.P,R10,2*%
%TO.N,GND*%
X230373000Y-101325000D03*
%TD*%
D20*
%TO.P,C76,1*%
%TO.N,Net-(7660S1-CAP+)*%
X237006241Y-101881000D03*
D21*
%TO.P,C76,2*%
%TO.N,Net-(7660S1-CAP-)*%
X235006241Y-101881000D03*
%TD*%
D20*
%TO.P,C77,1*%
%TO.N,GND*%
X239773000Y-113562241D03*
D21*
%TO.P,C77,2*%
%TO.N,-9V*%
X237773000Y-113562241D03*
%TD*%
D19*
%TO.P,C67,1*%
%TO.N,Net-(C67-Pad1)*%
X228259500Y-103322000D03*
%TO.P,C67,2*%
%TO.N,AD1939_LF*%
X226184500Y-103322000D03*
%TD*%
D31*
%TO.P,R24,1*%
%TO.N,GUITAR_OUT_R*%
X208262996Y-115241000D03*
%TO.P,R24,2*%
%TO.N,GND*%
X208262996Y-113241000D03*
%TD*%
D27*
%TO.P,C44,1*%
%TO.N,Net-(U2A-+)*%
X209908330Y-106429500D03*
%TO.P,C44,2*%
%TO.N,Net-(C44-Pad2)*%
X209908330Y-104704500D03*
%TD*%
D18*
%TO.P,C59,1*%
%TO.N,POT3*%
X189314500Y-62793000D03*
%TO.P,C59,2*%
%TO.N,GND*%
X191039500Y-62793000D03*
%TD*%
D17*
%TO.P,C64,1*%
%TO.N,+3.3V*%
X223163000Y-73552500D03*
%TO.P,C64,2*%
%TO.N,GND*%
X223163000Y-75277500D03*
%TD*%
D27*
%TO.P,C6,1*%
%TO.N,+3.3V*%
X204653000Y-71561500D03*
%TO.P,C6,2*%
%TO.N,GND*%
X204653000Y-69836500D03*
%TD*%
D32*
%TO.P,C4,1*%
%TO.N,5V*%
X240633000Y-66257000D03*
%TO.P,C4,2*%
%TO.N,GND*%
X234233000Y-66257000D03*
%TD*%
D33*
%TO.P,C46,1*%
%TO.N,Net-(C46-Pad1)*%
X205609004Y-115210500D03*
%TO.P,C46,2*%
%TO.N,GUITAR_OUT_R*%
X205609004Y-113135500D03*
%TD*%
D18*
%TO.P,C16,1*%
%TO.N,/MCU/NRST*%
X204214500Y-74067000D03*
%TO.P,C16,2*%
%TO.N,GND*%
X205939500Y-74067000D03*
%TD*%
D27*
%TO.P,C65,1*%
%TO.N,AD1939_MCLKI*%
X233831000Y-98361500D03*
%TO.P,C65,2*%
%TO.N,GND*%
X233831000Y-96636500D03*
%TD*%
D17*
%TO.P,C45,1*%
%TO.N,GND*%
X199896996Y-105748501D03*
%TO.P,C45,2*%
%TO.N,Net-(U2A--)*%
X199896996Y-107473501D03*
%TD*%
D20*
%TO.P,C71,1*%
%TO.N,+3.3V*%
X238022241Y-86229000D03*
D21*
%TO.P,C71,2*%
%TO.N,GND*%
X235522241Y-86229000D03*
%TD*%
D27*
%TO.P,C32,1*%
%TO.N,+3.3VA*%
X214771000Y-97233494D03*
%TO.P,C32,2*%
%TO.N,GND*%
X214771000Y-95508494D03*
%TD*%
D24*
%TO.P,C68,1*%
%TO.N,GND*%
X228089500Y-101297000D03*
%TO.P,C68,2*%
%TO.N,AD1939_LF*%
X226364500Y-101297000D03*
%TD*%
D22*
%TO.P,R21,1*%
%TO.N,Net-(U2A-+)*%
X207693000Y-103377668D03*
%TO.P,R21,2*%
%TO.N,Net-(C40-Pad2)*%
X205693000Y-103377668D03*
%TD*%
D34*
%TO.N,GND*%
X236220000Y-68072000D03*
X237744000Y-68072000D03*
X236728000Y-69088000D03*
X238252000Y-69088000D03*
X210312000Y-98298000D03*
X225044000Y-72346000D03*
X242316000Y-80264000D03*
X207772000Y-68580000D03*
X240284000Y-77724000D03*
X202184000Y-83312000D03*
X194056000Y-94996000D03*
X192024000Y-70104000D03*
X235204000Y-69088000D03*
X233172000Y-93980000D03*
X192532000Y-98044000D03*
X198120000Y-59436000D03*
X237744000Y-61976000D03*
X242316000Y-76200000D03*
X234696000Y-93980000D03*
X240284000Y-81788000D03*
X213360000Y-95758000D03*
X222504000Y-86868000D03*
X198374000Y-109220000D03*
X236220000Y-65024000D03*
X199644000Y-64008000D03*
X242824000Y-61976000D03*
X231140000Y-75692000D03*
X192532000Y-94996000D03*
X243840000Y-106172000D03*
X244348000Y-76200000D03*
X236220000Y-63500000D03*
X234188000Y-64008000D03*
X242824000Y-59944000D03*
X195580000Y-70803500D03*
X231648000Y-114808000D03*
X231137500Y-70612000D03*
X207772000Y-74168000D03*
X215075500Y-83820000D03*
X242316000Y-81788000D03*
X194056000Y-98044000D03*
X192024000Y-61976000D03*
X216408000Y-55372000D03*
X239268000Y-63500000D03*
X195072000Y-87376000D03*
X217678000Y-86614000D03*
X221488000Y-98044000D03*
X203200000Y-77216000D03*
X238252000Y-106680000D03*
X225044000Y-75184000D03*
X221996000Y-80264000D03*
X244348000Y-69088000D03*
X244348000Y-81788000D03*
X209804000Y-112014000D03*
X192532000Y-99568000D03*
X228600000Y-77724000D03*
X237744000Y-66548000D03*
X198628000Y-105156000D03*
X234188000Y-73152000D03*
X208280000Y-77216000D03*
X236220000Y-66548000D03*
X224274387Y-101505029D03*
X233680000Y-69088000D03*
X225044000Y-70612000D03*
X213360000Y-102616000D03*
X219456000Y-102362000D03*
X199644000Y-65532000D03*
X242316000Y-77724000D03*
X237744000Y-63500000D03*
X185928000Y-87376000D03*
X213868000Y-78740000D03*
X198628000Y-74168000D03*
X234696000Y-94996000D03*
X231648000Y-105156000D03*
X236220000Y-59944000D03*
X196437523Y-111960705D03*
X237744000Y-65024000D03*
X199644000Y-66548000D03*
X194056000Y-96520000D03*
X242824000Y-67564000D03*
X246380000Y-94996000D03*
X240284000Y-95504000D03*
X245872000Y-69088000D03*
X218948000Y-108204000D03*
X236220000Y-61976000D03*
X234188000Y-59944000D03*
X196088000Y-94996000D03*
X203008424Y-55563576D03*
X245872000Y-67564000D03*
X234188000Y-61976000D03*
X199644000Y-60960000D03*
X226568000Y-55880000D03*
X244348000Y-67564000D03*
X240284000Y-76200000D03*
X204470000Y-100330000D03*
X224028000Y-53340000D03*
X219456000Y-94488000D03*
X224698128Y-95918628D03*
X212852000Y-110744000D03*
X227076000Y-87884000D03*
X192532000Y-96520000D03*
X212852000Y-54356000D03*
X242824000Y-69088000D03*
X196596000Y-101092000D03*
X240284000Y-80264000D03*
X233172000Y-94996000D03*
X204724000Y-61976000D03*
X204724000Y-68580000D03*
X225044000Y-65532000D03*
X229209250Y-100177250D03*
X225044000Y-68580000D03*
X240284000Y-89916000D03*
X242316000Y-78846000D03*
X213360000Y-91948000D03*
X183896000Y-97028000D03*
X191516000Y-58928000D03*
X191516000Y-66548000D03*
X242824000Y-63500000D03*
X240284000Y-78846000D03*
X242824000Y-65024000D03*
%TO.N,DISPLAY_CS*%
X198120000Y-57912000D03*
%TO.N,DISPLAY_RST*%
X206360613Y-58420000D03*
%TO.N,DISPLAY_DC*%
X199644000Y-59944000D03*
%TO.N,DISPLAY_SCK*%
X204136671Y-50499267D03*
%TO.N,5V*%
X188976000Y-89408000D03*
%TO.N,Net-(D2-K)*%
X187960000Y-95813000D03*
%TO.N,DISPLAY_MISO*%
X204724000Y-51308000D03*
%TO.N,+3.3V*%
X206248000Y-75146500D03*
X221996000Y-88285000D03*
X203200000Y-65024000D03*
X203200000Y-71120000D03*
X213868000Y-55372000D03*
X195326000Y-55626000D03*
X215571500Y-58420000D03*
X203200000Y-61976000D03*
X225044000Y-73660000D03*
X199644000Y-81280000D03*
X215392000Y-51816000D03*
X212344000Y-87376000D03*
X213360000Y-80772000D03*
X203200000Y-78232000D03*
X213868000Y-58420000D03*
%TO.N,Net-(U4A-+)*%
X223012000Y-101346000D03*
%TO.N,AD1939_I2S2_SDO*%
X219938500Y-86360000D03*
X218948000Y-80772000D03*
X209296000Y-75692000D03*
X211328000Y-75692000D03*
%TO.N,AD1939_I2S1_SDI*%
X217932000Y-78740000D03*
X215900000Y-85344000D03*
%TO.N,AD1939_SPI3_MOSI*%
X208280000Y-84328000D03*
X208088500Y-86868000D03*
%TO.N,AD1939_I2S2_CK*%
X219188622Y-85584622D03*
X218948000Y-84136500D03*
%TO.N,AD1939_SPI3_CLK*%
X209804000Y-88392000D03*
X219964000Y-61976000D03*
%TO.N,AD1939_SPI3_MISO*%
X213763211Y-86656289D03*
X220472000Y-59944000D03*
%TO.N,AD1939_SPI_CS*%
X208788000Y-88900000D03*
X210005833Y-84529833D03*
%TO.N,AD1939_CM*%
X211836000Y-108204000D03*
X211601000Y-104413000D03*
%TO.N,+3.3VA*%
X210171622Y-96633622D03*
X189992000Y-102616000D03*
X214771000Y-97233494D03*
%TO.N,EXT_INT_BUTTON*%
X225044000Y-66548000D03*
%TO.N,AD1939_MCLKI*%
X224536000Y-97536000D03*
%TO.N,AD1939_MCLKO*%
X225742000Y-96710000D03*
%TO.N,AD1939_LF*%
X226060000Y-100076000D03*
%TO.N,+9V*%
X201930000Y-111252000D03*
X227025721Y-108254279D03*
X227076000Y-105664000D03*
%TO.N,-9V*%
X210820000Y-102616000D03*
X233680000Y-108204000D03*
X221491442Y-101403096D03*
%TO.N,AD1939_FILTR*%
X215900000Y-94488000D03*
%TO.N,SWDIO*%
X228092000Y-57404000D03*
%TO.N,SWCLK*%
X221488000Y-54864000D03*
%TO.N,DAC2R*%
X207772000Y-94996000D03*
%TO.N,DAC2L*%
X207772000Y-96266000D03*
%TO.N,Net-(R23-Pad2)*%
X206248000Y-110236000D03*
%TO.N,/MCU/NRST*%
X203200000Y-74676000D03*
X195072000Y-81280000D03*
%TO.N,POT5*%
X199136000Y-72136000D03*
%TO.N,POT1*%
X198120000Y-64516000D03*
%TO.N,POT6*%
X199884622Y-72911378D03*
%TO.N,POT2*%
X196596000Y-64516000D03*
%TO.N,POT3*%
X193548000Y-64516000D03*
%TO.N,POT_EXT*%
X192024000Y-79756000D03*
X203195076Y-73156924D03*
%TO.N,POT4*%
X199120535Y-71135465D03*
%TO.N,Net-(U2A-+)*%
X209804000Y-107950000D03*
%TO.N,Net-(U2A--)*%
X206248000Y-106934000D03*
%TO.N,Net-(C1-Pad1)*%
X224872000Y-58928000D03*
X206756000Y-54356000D03*
%TD*%
D35*
%TO.N,5V*%
X237843000Y-74577000D02*
X237843000Y-73635759D01*
X235972500Y-76447500D02*
X237843000Y-74577000D01*
X234540000Y-76447500D02*
X235972500Y-76447500D01*
D36*
X240284000Y-66606000D02*
X240633000Y-66257000D01*
X237744000Y-72136000D02*
X240284000Y-69596000D01*
X237744000Y-73536759D02*
X237744000Y-72136000D01*
X240284000Y-69596000D02*
X240284000Y-66606000D01*
X237843000Y-73635759D02*
X237744000Y-73536759D01*
D35*
%TO.N,GND*%
X234188000Y-74370500D02*
X234540000Y-74722500D01*
X234188000Y-73152000D02*
X234188000Y-74370500D01*
%TO.N,AD1939_CM*%
X211836000Y-108204000D02*
X211836000Y-104648000D01*
X211836000Y-104648000D02*
X211601000Y-104413000D01*
D37*
%TO.N,GND*%
X213471000Y-92059000D02*
X215113500Y-92059000D01*
X223603500Y-68346334D02*
X224810334Y-68346334D01*
X219456000Y-102362000D02*
X219666476Y-102362000D01*
X201392500Y-84103500D02*
X202184000Y-83312000D01*
X229209250Y-100177250D02*
X228089500Y-101297000D01*
D38*
X219456000Y-94488000D02*
X219456000Y-94973500D01*
X219907500Y-95425000D02*
X220003000Y-95520500D01*
D35*
X204781000Y-62033000D02*
X204724000Y-61976000D01*
D37*
X208262996Y-113241000D02*
X208577000Y-113241000D01*
X229225250Y-100177250D02*
X230373000Y-101325000D01*
D38*
X219456000Y-94973500D02*
X220003000Y-95520500D01*
D37*
X223256500Y-75184000D02*
X223163000Y-75277500D01*
X191151500Y-58563500D02*
X191516000Y-58928000D01*
X191039500Y-67024500D02*
X191516000Y-66548000D01*
X213360000Y-91948000D02*
X213471000Y-92059000D01*
X191039500Y-67885000D02*
X191039500Y-67024500D01*
X191516000Y-58928000D02*
X191157500Y-59286500D01*
D39*
X219666476Y-102362000D02*
X220543000Y-103238524D01*
D35*
X204781000Y-63216500D02*
X204781000Y-62033000D01*
D37*
X225044000Y-75184000D02*
X223256500Y-75184000D01*
X224525000Y-103238524D02*
X224525000Y-101755642D01*
X221013000Y-86298500D02*
X221934500Y-86298500D01*
X212934500Y-77806500D02*
X213868000Y-78740000D01*
X210312000Y-98298000D02*
X209147500Y-98298000D01*
X204470000Y-100776665D02*
X203709665Y-101537000D01*
X191232500Y-65532000D02*
X191039500Y-65339000D01*
X229209250Y-100177250D02*
X229225250Y-100177250D01*
X224810334Y-68346334D02*
X225044000Y-68580000D01*
D40*
X228117500Y-101325000D02*
X230373000Y-101325000D01*
D35*
X204653000Y-68651000D02*
X204724000Y-68580000D01*
D37*
X191039500Y-65339000D02*
X191039500Y-66071500D01*
X204470000Y-100330000D02*
X203691500Y-99551500D01*
D35*
X204653000Y-69836500D02*
X204653000Y-68651000D01*
D37*
X214771000Y-95762494D02*
X213364494Y-95762494D01*
D38*
X218437500Y-95425000D02*
X219907500Y-95425000D01*
D37*
X191856500Y-61976000D02*
X191039500Y-62793000D01*
X208712500Y-77648500D02*
X208280000Y-77216000D01*
X228309000Y-98595000D02*
X228309000Y-99093000D01*
X228309000Y-99277000D02*
X228309000Y-98595000D01*
X213364494Y-95762494D02*
X213360000Y-95758000D01*
X208577000Y-113241000D02*
X209804000Y-112014000D01*
X221934500Y-86298500D02*
X222504000Y-86868000D01*
D36*
X238935500Y-62163000D02*
X237931000Y-62163000D01*
D37*
X230394000Y-101346000D02*
X230373000Y-101325000D01*
X210531999Y-113501500D02*
X210531999Y-112741999D01*
D35*
X215838976Y-110313000D02*
X213283000Y-110313000D01*
D37*
X212781000Y-77806500D02*
X212934500Y-77806500D01*
D38*
X218519000Y-95425000D02*
X219456000Y-94488000D01*
D37*
X210531999Y-112741999D02*
X209804000Y-112014000D01*
X191157500Y-59286500D02*
X191157500Y-60267000D01*
D35*
X198628000Y-105240501D02*
X198628000Y-105156000D01*
D37*
X191039500Y-66071500D02*
X191516000Y-66548000D01*
X203691500Y-99551500D02*
X203691500Y-99315004D01*
X191151500Y-57727000D02*
X191151500Y-58563500D01*
X204653000Y-76470500D02*
X203945500Y-76470500D01*
X207321000Y-70028500D02*
X207772000Y-69577500D01*
D36*
X207671000Y-74067000D02*
X207772000Y-74168000D01*
D37*
X228089500Y-101297000D02*
X228117500Y-101325000D01*
D35*
X213283000Y-110313000D02*
X212852000Y-110744000D01*
D37*
X220003000Y-95520500D02*
X220003000Y-95797000D01*
X229209250Y-100177250D02*
X228309000Y-99277000D01*
D36*
X234233000Y-64053000D02*
X234188000Y-64008000D01*
D37*
X191336500Y-57912000D02*
X191151500Y-57727000D01*
D35*
X199136000Y-105748501D02*
X198628000Y-105240501D01*
D37*
X192024000Y-61976000D02*
X191856500Y-61976000D01*
X204882163Y-100330000D02*
X205761163Y-99451000D01*
D38*
X218437500Y-95425000D02*
X218519000Y-95425000D01*
D37*
X200657000Y-84103500D02*
X201392500Y-84103500D01*
X228138500Y-101346000D02*
X228089500Y-101297000D01*
D36*
X234233000Y-66257000D02*
X234233000Y-64053000D01*
X205939500Y-74067000D02*
X207671000Y-74067000D01*
D37*
X204470000Y-100330000D02*
X204882163Y-100330000D01*
X209353000Y-77648500D02*
X208712500Y-77648500D01*
D35*
X199136000Y-105748501D02*
X199896996Y-105748501D01*
D37*
X204470000Y-100330000D02*
X204470000Y-100776665D01*
X224525000Y-101755642D02*
X224274387Y-101505029D01*
X203945500Y-76470500D02*
X203200000Y-77216000D01*
X207772000Y-69577500D02*
X207772000Y-68580000D01*
X191697000Y-70431000D02*
X191039500Y-70431000D01*
X192024000Y-70104000D02*
X191697000Y-70431000D01*
D36*
X237931000Y-62163000D02*
X237744000Y-61976000D01*
D37*
%TO.N,DISPLAY_CS*%
X198120000Y-57912000D02*
X197819000Y-57611000D01*
X197819000Y-57611000D02*
X197819000Y-48975000D01*
%TO.N,DISPLAY_RST*%
X200359000Y-50472950D02*
X200359000Y-48975000D01*
X206360613Y-56474563D02*
X200359000Y-50472950D01*
X206360613Y-58420000D02*
X206360613Y-56474563D01*
%TO.N,DISPLAY_DC*%
X199882654Y-47825000D02*
X199136000Y-48571654D01*
X201749000Y-47825000D02*
X199882654Y-47825000D01*
X199136000Y-51816000D02*
X199136000Y-59436000D01*
X199136000Y-59436000D02*
X199644000Y-59944000D01*
X199136000Y-51517953D02*
X199136000Y-51816000D01*
X202899000Y-48975000D02*
X201749000Y-47825000D01*
X199136000Y-48571654D02*
X199136000Y-51816000D01*
%TO.N,DISPLAY_SCK*%
X204136671Y-50499267D02*
X206454733Y-50499267D01*
X206454733Y-50499267D02*
X207979000Y-48975000D01*
D36*
%TO.N,5V*%
X240633000Y-66257000D02*
X244171000Y-66257000D01*
X244171000Y-66257000D02*
X244877000Y-65551000D01*
X240638500Y-61791000D02*
X241010500Y-62163000D01*
X221351344Y-90424000D02*
X204724000Y-90424000D01*
X234540000Y-77235344D02*
X221351344Y-90424000D01*
X204724000Y-90424000D02*
X203708000Y-89408000D01*
X240638500Y-59817000D02*
X240638500Y-61791000D01*
X240633000Y-66257000D02*
X240633000Y-62540500D01*
X240633000Y-62540500D02*
X241010500Y-62163000D01*
X203708000Y-89408000D02*
X188976000Y-89408000D01*
%TO.N,Net-(D2-K)*%
X189617000Y-96439500D02*
X188586500Y-96439500D01*
X188586500Y-96439500D02*
X187960000Y-95813000D01*
D37*
%TO.N,DISPLAY_MISO*%
X204724000Y-51308000D02*
X208186000Y-51308000D01*
X208186000Y-51308000D02*
X210519000Y-48975000D01*
%TO.N,+3.3V*%
X212781000Y-79531500D02*
X212781000Y-80193000D01*
X204790500Y-71561500D02*
X204653000Y-71561500D01*
X206248000Y-75146500D02*
X206248000Y-76600500D01*
X221734500Y-88023500D02*
X221996000Y-88285000D01*
X212781000Y-80193000D02*
X213360000Y-80772000D01*
X208688860Y-78740000D02*
X208892860Y-78536000D01*
X204653000Y-71561500D02*
X203641500Y-71561500D01*
X204616500Y-78232000D02*
X204653000Y-78195500D01*
X208892860Y-78536000D02*
X211785500Y-78536000D01*
D38*
X203200000Y-71120000D02*
X203200000Y-65024000D01*
D37*
X206248000Y-76600500D02*
X204653000Y-78195500D01*
X204653000Y-78195500D02*
X205197500Y-78740000D01*
X199644000Y-81365500D02*
X200657000Y-82378500D01*
X211785500Y-78536000D02*
X212781000Y-79531500D01*
D41*
X213868000Y-58420000D02*
X215571500Y-58420000D01*
D37*
X203641500Y-71561500D02*
X203200000Y-71120000D01*
D36*
X213868000Y-55372000D02*
X213868000Y-58420000D01*
D37*
X205197500Y-78740000D02*
X208688860Y-78740000D01*
D38*
X213253000Y-88285000D02*
X212344000Y-87376000D01*
D37*
X225044000Y-73660000D02*
X223270500Y-73660000D01*
X199644000Y-81280000D02*
X199644000Y-81365500D01*
D38*
X221996000Y-88285000D02*
X213253000Y-88285000D01*
D37*
X223270500Y-73660000D02*
X223163000Y-73552500D01*
X203200000Y-78232000D02*
X204616500Y-78232000D01*
D35*
X203200000Y-65024000D02*
X204355500Y-65024000D01*
D37*
X221013000Y-88023500D02*
X221734500Y-88023500D01*
D35*
%TO.N,Net-(U4A-+)*%
X223012000Y-101346000D02*
X222758000Y-101346000D01*
D39*
X222541000Y-102979524D02*
X224525000Y-104963524D01*
D35*
X222758000Y-101346000D02*
X222504000Y-101600000D01*
X222504000Y-101600000D02*
X222541000Y-101637000D01*
X222541000Y-101637000D02*
X222541000Y-102901024D01*
D37*
X222541000Y-102901024D02*
X222541000Y-102979524D01*
%TO.N,AD1939_I2S2_SDO*%
X219964000Y-86334500D02*
X219938500Y-86360000D01*
X211328000Y-75692000D02*
X209296000Y-75692000D01*
X218948000Y-80772000D02*
X219964000Y-81788000D01*
X219964000Y-81788000D02*
X219964000Y-86334500D01*
%TO.N,AD1939_I2S1_SDI*%
X215900000Y-82804000D02*
X215900000Y-85344000D01*
X217932000Y-78740000D02*
X217932000Y-80772000D01*
X217932000Y-80772000D02*
X215900000Y-82804000D01*
%TO.N,AD1939_SPI3_MOSI*%
X207772000Y-86551500D02*
X207772000Y-84836000D01*
X207772000Y-84836000D02*
X208280000Y-84328000D01*
X208088500Y-86868000D02*
X207772000Y-86551500D01*
%TO.N,AD1939_I2S2_CK*%
X219188622Y-85584622D02*
X219188622Y-84377122D01*
X219188622Y-84377122D02*
X218948000Y-84136500D01*
%TO.N,AD1939_SPI3_CLK*%
X210312000Y-86868000D02*
X210312000Y-87884000D01*
X213360000Y-82296000D02*
X213360000Y-83820000D01*
X219456000Y-62484000D02*
X219456000Y-74168000D01*
X219964000Y-61976000D02*
X219456000Y-62484000D01*
X219456000Y-74168000D02*
X214376000Y-79248000D01*
X210312000Y-87884000D02*
X209804000Y-88392000D01*
X214376000Y-81280000D02*
X213360000Y-82296000D01*
X213360000Y-83820000D02*
X210312000Y-86868000D01*
X214376000Y-79248000D02*
X214376000Y-81280000D01*
%TO.N,AD1939_SPI3_MISO*%
X214376000Y-86043500D02*
X213763211Y-86656289D01*
X221172000Y-60644000D02*
X221172000Y-62265950D01*
X215900000Y-80772000D02*
X214376000Y-82296000D01*
X214376000Y-82296000D02*
X214376000Y-86043500D01*
X220472000Y-74676000D02*
X215900000Y-79248000D01*
X220472000Y-59944000D02*
X221172000Y-60644000D01*
X215900000Y-79248000D02*
X215900000Y-80772000D01*
X220472000Y-62965950D02*
X220472000Y-74676000D01*
X221172000Y-62265950D02*
X220472000Y-62965950D01*
%TO.N,AD1939_SPI_CS*%
X208788000Y-88900000D02*
X208788000Y-85747666D01*
X208788000Y-85747666D02*
X210005833Y-84529833D01*
D40*
%TO.N,AD1939_CM*%
X216389500Y-104963524D02*
X215838976Y-104413000D01*
X211601000Y-104413000D02*
X215838976Y-104413000D01*
D37*
X215411000Y-103143000D02*
X215392000Y-103124000D01*
D40*
X222478500Y-104963524D02*
X220543000Y-104963524D01*
D37*
X222541000Y-104901024D02*
X222478500Y-104963524D01*
D40*
X220543000Y-104963524D02*
X216389500Y-104963524D01*
D37*
X215584976Y-103143000D02*
X215411000Y-103143000D01*
%TO.N,+3.3VA*%
X209081000Y-96506500D02*
X210044500Y-96506500D01*
D42*
X219990994Y-97233494D02*
X220003000Y-97245500D01*
D36*
X189617000Y-99414500D02*
X189617000Y-102241000D01*
D42*
X210171622Y-95469463D02*
X210171622Y-96633622D01*
X201006000Y-93634000D02*
X192024000Y-102616000D01*
X214771000Y-97233494D02*
X219990994Y-97233494D01*
X210573781Y-96633622D02*
X210171622Y-96633622D01*
X214771000Y-97233494D02*
X211173653Y-97233494D01*
X201006000Y-93634000D02*
X208336159Y-93634000D01*
D36*
X189617000Y-102241000D02*
X189992000Y-102616000D01*
D42*
X211173653Y-97233494D02*
X210573781Y-96633622D01*
X192024000Y-102616000D02*
X189992000Y-102616000D01*
D37*
X214771000Y-97233494D02*
X214771000Y-97487494D01*
X210044500Y-96506500D02*
X210171622Y-96633622D01*
D42*
X208336159Y-93634000D02*
X210171622Y-95469463D01*
D37*
X220082225Y-97324725D02*
X220003000Y-97245500D01*
D35*
%TO.N,Net-(C41-Pad1)*%
X201709665Y-101537000D02*
X201709665Y-103534334D01*
D37*
X201966500Y-99315004D02*
X201966500Y-99233498D01*
D35*
X203002999Y-97711000D02*
X203488998Y-97711000D01*
X201709665Y-101537000D02*
X201709665Y-99571839D01*
D37*
X201709665Y-99571839D02*
X201966500Y-99315004D01*
D35*
X201966500Y-98747499D02*
X203002999Y-97711000D01*
X201966500Y-99233498D02*
X201966500Y-98747499D01*
D37*
X201709665Y-103534334D02*
X201674999Y-103569000D01*
%TO.N,Net-(C44-Pad2)*%
X209804000Y-102108000D02*
X209105000Y-101409000D01*
X209804000Y-104600170D02*
X209804000Y-102108000D01*
X209908330Y-104704500D02*
X209804000Y-104600170D01*
X209105000Y-101409000D02*
X207761661Y-101409000D01*
D36*
%TO.N,GUITAR_OUT_R*%
X213059000Y-114601000D02*
X212344000Y-115316000D01*
X210621499Y-115316000D02*
X210531999Y-115226500D01*
D35*
X206157496Y-113135500D02*
X208262996Y-115241000D01*
D36*
X214533000Y-114601000D02*
X213059000Y-114601000D01*
D37*
X208277496Y-115226500D02*
X208262996Y-115241000D01*
X205609004Y-113135500D02*
X206157496Y-113135500D01*
D36*
X210531999Y-115226500D02*
X208277496Y-115226500D01*
X212344000Y-115316000D02*
X210621499Y-115316000D01*
D37*
%TO.N,Net-(C40-Pad2)*%
X207486163Y-99451000D02*
X207486163Y-99684498D01*
X207486163Y-99684498D02*
X205761661Y-101409000D01*
X205761661Y-101409000D02*
X205761661Y-103309007D01*
X207486163Y-99451000D02*
X207486163Y-99133499D01*
X207486163Y-99133499D02*
X206063664Y-97711000D01*
X205761661Y-103309007D02*
X205693000Y-103377668D01*
%TO.N,EXT_INT_BUTTON*%
X223890666Y-66548000D02*
X223727000Y-66384334D01*
X225044000Y-66548000D02*
X223890666Y-66548000D01*
X223727000Y-66497834D02*
X221878500Y-68346334D01*
X223727000Y-66384334D02*
X223727000Y-66497834D01*
%TO.N,AD1939_MCLKI*%
X230659000Y-97645000D02*
X224645000Y-97645000D01*
X231609000Y-98595000D02*
X233597500Y-98595000D01*
X231609000Y-98595000D02*
X230659000Y-97645000D01*
X233597500Y-98595000D02*
X233831000Y-98361500D01*
X224645000Y-97645000D02*
X224536000Y-97536000D01*
%TO.N,AD1939_MCLKO*%
X228309000Y-96595000D02*
X228309000Y-95287000D01*
X225857000Y-96595000D02*
X225742000Y-96710000D01*
X229211000Y-94385000D02*
X230030500Y-94385000D01*
X228309000Y-95287000D02*
X229211000Y-94385000D01*
X228309000Y-96595000D02*
X225857000Y-96595000D01*
D35*
%TO.N,Net-(C46-Pad1)*%
X202808996Y-115127000D02*
X205525504Y-115127000D01*
D37*
X205525504Y-115127000D02*
X205609004Y-115210500D01*
%TO.N,Net-(C67-Pad1)*%
X230370000Y-103322000D02*
X230373000Y-103325000D01*
D40*
X228084500Y-103322000D02*
X230370000Y-103322000D01*
D37*
%TO.N,AD1939_LF*%
X226060000Y-100992500D02*
X226364500Y-101297000D01*
X226060000Y-100076000D02*
X226060000Y-100992500D01*
X226364500Y-101297000D02*
X226364500Y-103317000D01*
X226364500Y-103317000D02*
X226359500Y-103322000D01*
D43*
%TO.N,+9V*%
X227025721Y-105714279D02*
X227025721Y-108254279D01*
X211716949Y-112360000D02*
X208484949Y-109128000D01*
X208484949Y-109128000D02*
X204054000Y-109128000D01*
X236220000Y-111760000D02*
X241808000Y-106172000D01*
X243625000Y-101815000D02*
X245325000Y-101815000D01*
X227076000Y-105664000D02*
X227025721Y-105714279D01*
X241808000Y-103632000D02*
X243625000Y-101815000D01*
X230531442Y-111760000D02*
X236220000Y-111760000D01*
X227025721Y-108254279D02*
X230531442Y-111760000D01*
X204054000Y-109128000D02*
X201930000Y-111252000D01*
X223174000Y-112360000D02*
X211716949Y-112360000D01*
X241808000Y-106172000D02*
X241808000Y-103632000D01*
X223174000Y-112360000D02*
X223174000Y-112106000D01*
X223174000Y-112106000D02*
X227025721Y-108254279D01*
D36*
%TO.N,-9V*%
X228600000Y-105156000D02*
X229616000Y-105156000D01*
D37*
X228600000Y-105156000D02*
X228092000Y-105156000D01*
D38*
X210820000Y-102616000D02*
X212032904Y-101403096D01*
D37*
X228092000Y-105156000D02*
X227975817Y-105156000D01*
X228092000Y-105156000D02*
X227202000Y-104266000D01*
X227202000Y-100228050D02*
X226349950Y-99376000D01*
X225236000Y-99376000D02*
X224536000Y-100076000D01*
X227202000Y-104266000D02*
X227202000Y-100228050D01*
D39*
X221491442Y-101403096D02*
X222818538Y-100076000D01*
D38*
X212032904Y-101403096D02*
X221491442Y-101403096D01*
D36*
X229616000Y-105156000D02*
X232664000Y-108204000D01*
X232664000Y-108204000D02*
X233680000Y-108204000D01*
D39*
X222818538Y-100076000D02*
X224536000Y-100076000D01*
D37*
X221491442Y-101403096D02*
X221242346Y-101154000D01*
X226349950Y-99376000D02*
X225236000Y-99376000D01*
D41*
%TO.N,AD1939_FILTR*%
X217713500Y-92964000D02*
X217713500Y-92584000D01*
X217713500Y-92584000D02*
X217188500Y-92059000D01*
X217713500Y-92567000D02*
X217713500Y-92964000D01*
X217713500Y-94424000D02*
X216712500Y-95425000D01*
D37*
X216712500Y-95300500D02*
X216712500Y-95425000D01*
D41*
X217713500Y-92964000D02*
X217713500Y-94424000D01*
D35*
X215900000Y-94488000D02*
X216712500Y-95300500D01*
D37*
%TO.N,SWDIO*%
X224585000Y-48975000D02*
X224585000Y-52373000D01*
X228092000Y-55880000D02*
X228092000Y-57404000D01*
X224585000Y-52373000D02*
X228092000Y-55880000D01*
%TO.N,SWCLK*%
X222045000Y-48975000D02*
X221488000Y-49532000D01*
X221488000Y-49532000D02*
X221488000Y-54864000D01*
%TO.N,TAP_TEMPO_INPUT*%
X229108000Y-59003334D02*
X229108000Y-53340000D01*
X232457000Y-49991000D02*
X232457000Y-49069000D01*
X221727000Y-66384334D02*
X229108000Y-59003334D01*
X229108000Y-53340000D02*
X232457000Y-49991000D01*
D36*
%TO.N,PWR_INPUT_12V-18V*%
X236498241Y-58651741D02*
X237663500Y-59817000D01*
X236498241Y-54733000D02*
X236498241Y-58651741D01*
D37*
%TO.N,DAC2R*%
X207057000Y-95711000D02*
X207772000Y-94996000D01*
X206063664Y-95711000D02*
X207057000Y-95711000D01*
%TO.N,DAC2L*%
X204388998Y-96611000D02*
X203488998Y-95711000D01*
X207427000Y-96611000D02*
X204388998Y-96611000D01*
X207772000Y-96266000D02*
X207427000Y-96611000D01*
D35*
%TO.N,Net-(R23-Pad2)*%
X205699996Y-110236000D02*
X206248000Y-110236000D01*
X205699996Y-110236000D02*
X202808996Y-113127000D01*
D37*
%TO.N,/MCU/NRST*%
X200152000Y-77724000D02*
X203200000Y-74676000D01*
X195072000Y-81280000D02*
X198628000Y-77724000D01*
X203605500Y-74676000D02*
X204214500Y-74067000D01*
X198628000Y-77724000D02*
X200152000Y-77724000D01*
X203200000Y-74676000D02*
X203605500Y-74676000D01*
%TO.N,POT5*%
X189264500Y-67835000D02*
X186229000Y-67835000D01*
X189314500Y-67885000D02*
X189264500Y-67835000D01*
X195922550Y-72136000D02*
X192446550Y-68660000D01*
X192446550Y-68660000D02*
X190089500Y-68660000D01*
X199136000Y-72136000D02*
X195922550Y-72136000D01*
X190089500Y-68660000D02*
X189314500Y-67885000D01*
%TO.N,POT1*%
X189374500Y-57675000D02*
X186229000Y-57675000D01*
X193040000Y-59436000D02*
X193040000Y-57404000D01*
X192024000Y-56388000D02*
X190765500Y-56388000D01*
X189426500Y-57727000D02*
X189374500Y-57675000D01*
X193040000Y-57404000D02*
X192024000Y-56388000D01*
X190765500Y-56388000D02*
X189426500Y-57727000D01*
X198120000Y-64516000D02*
X193040000Y-59436000D01*
%TO.N,POT6*%
X191794878Y-72911378D02*
X189314500Y-70431000D01*
X189314500Y-70431000D02*
X189258500Y-70375000D01*
X199884622Y-72911378D02*
X191794878Y-72911378D01*
X189258500Y-70375000D02*
X186229000Y-70375000D01*
%TO.N,POT2*%
X193122000Y-61042000D02*
X190207500Y-61042000D01*
X190207500Y-61042000D02*
X189432500Y-60267000D01*
X189380500Y-60215000D02*
X186229000Y-60215000D01*
X189432500Y-60267000D02*
X189380500Y-60215000D01*
X196596000Y-64516000D02*
X193122000Y-61042000D01*
%TO.N,POT3*%
X189276500Y-62755000D02*
X186229000Y-62755000D01*
X193548000Y-64516000D02*
X193040000Y-64008000D01*
X193040000Y-64008000D02*
X190529500Y-64008000D01*
X190529500Y-64008000D02*
X189314500Y-62793000D01*
X189314500Y-62793000D02*
X189276500Y-62755000D01*
D41*
%TO.N,POT_EXT*%
X199080400Y-77271600D02*
X203195076Y-73156924D01*
D37*
X205917576Y-73156924D02*
X203195076Y-73156924D01*
D41*
X192024000Y-79756000D02*
X194508400Y-77271600D01*
X194508400Y-77271600D02*
X199080400Y-77271600D01*
D37*
X207321000Y-71753500D02*
X205917576Y-73156924D01*
%TO.N,POT4*%
X189314500Y-65339000D02*
X189270500Y-65295000D01*
X191564000Y-64564000D02*
X190089500Y-64564000D01*
X199120535Y-71135465D02*
X198135465Y-71135465D01*
X198135465Y-71135465D02*
X191564000Y-64564000D01*
X189270500Y-65295000D02*
X186229000Y-65295000D01*
X190089500Y-64564000D02*
X189314500Y-65339000D01*
D35*
%TO.N,Net-(U2A-+)*%
X207693000Y-104214170D02*
X209908330Y-106429500D01*
D36*
X207693000Y-103377668D02*
X207693000Y-104214170D01*
D35*
X209908330Y-106429500D02*
X209908330Y-107845670D01*
D37*
X209908330Y-107845670D02*
X209804000Y-107950000D01*
D35*
%TO.N,Net-(U2A--)*%
X199896996Y-107473501D02*
X203674999Y-103695498D01*
X206248000Y-106142001D02*
X203674999Y-103569000D01*
D37*
X203674999Y-103695498D02*
X203674999Y-103569000D01*
D35*
X206248000Y-106934000D02*
X206248000Y-106142001D01*
D37*
%TO.N,Net-(C1-Pad1)*%
X211836000Y-59436000D02*
X219990050Y-59436000D01*
X206756000Y-54356000D02*
X211836000Y-59436000D01*
X219990050Y-59436000D02*
X220498050Y-58928000D01*
X220498050Y-58928000D02*
X224872000Y-58928000D01*
%TD*%
%TA.AperFunction,Conductor*%
%TO.N,GND*%
G36*
X235147039Y-93491685D02*
G01*
X235192794Y-93544489D01*
X235204000Y-93596000D01*
X235204000Y-96904000D01*
X235184315Y-96971039D01*
X235131511Y-97016794D01*
X235080000Y-97028000D01*
X231264000Y-97028000D01*
X231196961Y-97008315D01*
X231151206Y-96955511D01*
X231140000Y-96904000D01*
X231140000Y-93596000D01*
X231159685Y-93528961D01*
X231212489Y-93483206D01*
X231264000Y-93472000D01*
X235080000Y-93472000D01*
X235147039Y-93491685D01*
G37*
%TD.AperFunction*%
%TD*%
M02*
