%TF.GenerationSoftware,KiCad,Pcbnew,7.0.2*%
%TF.CreationDate,2023-11-01T23:55:43+01:00*%
%TF.ProjectId,stm_audio_board_V2,73746d5f-6175-4646-996f-5f626f617264,rev?*%
%TF.SameCoordinates,Original*%
%TF.FileFunction,Soldermask,Top*%
%TF.FilePolarity,Negative*%
%FSLAX46Y46*%
G04 Gerber Fmt 4.6, Leading zero omitted, Abs format (unit mm)*
G04 Created by KiCad (PCBNEW 7.0.2) date 2023-11-01 23:55:43*
%MOMM*%
%LPD*%
G01*
G04 APERTURE LIST*
G04 Aperture macros list*
%AMRoundRect*
0 Rectangle with rounded corners*
0 $1 Rounding radius*
0 $2 $3 $4 $5 $6 $7 $8 $9 X,Y pos of 4 corners*
0 Add a 4 corners polygon primitive as box body*
4,1,4,$2,$3,$4,$5,$6,$7,$8,$9,$2,$3,0*
0 Add four circle primitives for the rounded corners*
1,1,$1+$1,$2,$3*
1,1,$1+$1,$4,$5*
1,1,$1+$1,$6,$7*
1,1,$1+$1,$8,$9*
0 Add four rect primitives between the rounded corners*
20,1,$1+$1,$2,$3,$4,$5,0*
20,1,$1+$1,$4,$5,$6,$7,0*
20,1,$1+$1,$6,$7,$8,$9,0*
20,1,$1+$1,$8,$9,$2,$3,0*%
G04 Aperture macros list end*
%ADD10R,1.725000X2.100000*%
%ADD11RoundRect,0.237500X0.300000X0.237500X-0.300000X0.237500X-0.300000X-0.237500X0.300000X-0.237500X0*%
%ADD12RoundRect,0.250000X-0.350000X-0.450000X0.350000X-0.450000X0.350000X0.450000X-0.350000X0.450000X0*%
%ADD13RoundRect,0.237500X0.237500X-0.300000X0.237500X0.300000X-0.237500X0.300000X-0.237500X-0.300000X0*%
%ADD14RoundRect,0.237500X-0.237500X0.300000X-0.237500X-0.300000X0.237500X-0.300000X0.237500X0.300000X0*%
%ADD15C,5.600000*%
%ADD16R,2.000000X1.905000*%
%ADD17O,2.000000X1.905000*%
%ADD18RoundRect,0.250000X0.337500X0.475000X-0.337500X0.475000X-0.337500X-0.475000X0.337500X-0.475000X0*%
%ADD19R,1.500000X1.050000*%
%ADD20O,1.500000X1.050000*%
%ADD21RoundRect,0.150000X0.625000X0.150000X-0.625000X0.150000X-0.625000X-0.150000X0.625000X-0.150000X0*%
%ADD22RoundRect,0.150000X-0.150000X0.625000X-0.150000X-0.625000X0.150000X-0.625000X0.150000X0.625000X0*%
%ADD23RoundRect,0.250001X-0.624999X0.462499X-0.624999X-0.462499X0.624999X-0.462499X0.624999X0.462499X0*%
%ADD24RoundRect,0.237500X-0.300000X-0.237500X0.300000X-0.237500X0.300000X0.237500X-0.300000X0.237500X0*%
%ADD25R,1.700000X1.700000*%
%ADD26RoundRect,0.075000X-0.675000X-0.075000X0.675000X-0.075000X0.675000X0.075000X-0.675000X0.075000X0*%
%ADD27RoundRect,0.075000X-0.075000X-0.675000X0.075000X-0.675000X0.075000X0.675000X-0.075000X0.675000X0*%
%ADD28O,1.700000X1.700000*%
%ADD29RoundRect,0.250000X0.450000X-0.350000X0.450000X0.350000X-0.450000X0.350000X-0.450000X-0.350000X0*%
%ADD30RoundRect,0.250000X-0.450000X0.350000X-0.450000X-0.350000X0.450000X-0.350000X0.450000X0.350000X0*%
%ADD31RoundRect,0.237500X-0.237500X0.250000X-0.237500X-0.250000X0.237500X-0.250000X0.237500X0.250000X0*%
%ADD32RoundRect,0.250000X0.350000X0.450000X-0.350000X0.450000X-0.350000X-0.450000X0.350000X-0.450000X0*%
%ADD33R,1.000000X0.600000*%
%ADD34R,1.600000X1.400000*%
%ADD35RoundRect,0.150000X-0.150000X0.825000X-0.150000X-0.825000X0.150000X-0.825000X0.150000X0.825000X0*%
%ADD36RoundRect,0.075000X0.700000X0.075000X-0.700000X0.075000X-0.700000X-0.075000X0.700000X-0.075000X0*%
%ADD37RoundRect,0.075000X0.075000X0.700000X-0.075000X0.700000X-0.075000X-0.700000X0.075000X-0.700000X0*%
%ADD38RoundRect,0.250000X0.475000X-0.337500X0.475000X0.337500X-0.475000X0.337500X-0.475000X-0.337500X0*%
%ADD39R,2.000000X1.500000*%
%ADD40R,2.000000X3.800000*%
%ADD41RoundRect,0.250000X-0.475000X0.337500X-0.475000X-0.337500X0.475000X-0.337500X0.475000X0.337500X0*%
%ADD42R,1.600000X1.600000*%
%ADD43C,1.600000*%
G04 APERTURE END LIST*
D10*
%TO.C,Y2*%
X193405000Y-72284000D03*
X193405000Y-75184000D03*
X195580000Y-75184000D03*
X195580000Y-72284000D03*
%TD*%
D11*
%TO.C,C39*%
X203714346Y-101487000D03*
X201989346Y-101487000D03*
%TD*%
%TO.C,C8*%
X224819500Y-54687000D03*
X223094500Y-54687000D03*
%TD*%
D12*
%TO.C,R14*%
X205931000Y-103457000D03*
X207931000Y-103457000D03*
%TD*%
D13*
%TO.C,C18*%
X219953000Y-110885500D03*
X219953000Y-109160500D03*
%TD*%
D14*
%TO.C,C38*%
X199959568Y-105676500D03*
X199959568Y-107401500D03*
%TD*%
D15*
%TO.C,H2*%
X245003000Y-112333000D03*
%TD*%
D13*
%TO.C,C35*%
X197859000Y-62687500D03*
X197859000Y-60962500D03*
%TD*%
D14*
%TO.C,C43*%
X210495000Y-113462500D03*
X210495000Y-115187500D03*
%TD*%
D16*
%TO.C,U3*%
X244877000Y-60471000D03*
D17*
X244877000Y-63011000D03*
X244877000Y-65551000D03*
%TD*%
D11*
%TO.C,C20*%
X230247500Y-108421000D03*
X228522500Y-108421000D03*
%TD*%
D18*
%TO.C,C69*%
X244058500Y-89057000D03*
X241983500Y-89057000D03*
%TD*%
D11*
%TO.C,C23*%
X207593500Y-99455000D03*
X205868500Y-99455000D03*
%TD*%
D12*
%TO.C,R4*%
X232353000Y-110313000D03*
X234353000Y-110313000D03*
%TD*%
D19*
%TO.C,U6*%
X245325000Y-99275000D03*
D20*
X245325000Y-100545000D03*
X245325000Y-101815000D03*
%TD*%
D13*
%TO.C,C81*%
X225843000Y-89913500D03*
X225843000Y-88188500D03*
%TD*%
D21*
%TO.C,U2*%
X207822000Y-109986000D03*
X207822000Y-108716000D03*
X207822000Y-107446000D03*
X207822000Y-106176000D03*
X202472000Y-106176000D03*
X202472000Y-107446000D03*
X202472000Y-108716000D03*
X202472000Y-109986000D03*
%TD*%
D14*
%TO.C,C58*%
X229355000Y-68074500D03*
X229355000Y-69799500D03*
%TD*%
D22*
%TO.C,U4*%
X226018000Y-102934000D03*
X224748000Y-102934000D03*
X223478000Y-102934000D03*
X222208000Y-102934000D03*
X222208000Y-108284000D03*
X223478000Y-108284000D03*
X224748000Y-108284000D03*
X226018000Y-108284000D03*
%TD*%
D23*
%TO.C,D5*%
X234875000Y-73208500D03*
X234875000Y-76183500D03*
%TD*%
D11*
%TO.C,C27*%
X186259500Y-98365000D03*
X184534500Y-98365000D03*
%TD*%
D24*
%TO.C,C30*%
X194186500Y-103475000D03*
X195911500Y-103475000D03*
%TD*%
D11*
%TO.C,C22*%
X203648654Y-99455000D03*
X201923654Y-99455000D03*
%TD*%
D25*
%TO.C,J4*%
X232457000Y-49069000D03*
%TD*%
D13*
%TO.C,C48*%
X247555000Y-96629976D03*
X247555000Y-94904976D03*
%TD*%
D26*
%TO.C,U1*%
X201447000Y-58846000D03*
X201447000Y-59346000D03*
X201447000Y-59846000D03*
X201447000Y-60346000D03*
X201447000Y-60846000D03*
X201447000Y-61346000D03*
X201447000Y-61846000D03*
X201447000Y-62346000D03*
X201447000Y-62846000D03*
X201447000Y-63346000D03*
X201447000Y-63846000D03*
X201447000Y-64346000D03*
X201447000Y-64846000D03*
X201447000Y-65346000D03*
X201447000Y-65846000D03*
X201447000Y-66346000D03*
X201447000Y-66846000D03*
X201447000Y-67346000D03*
X201447000Y-67846000D03*
X201447000Y-68346000D03*
X201447000Y-68846000D03*
X201447000Y-69346000D03*
X201447000Y-69846000D03*
X201447000Y-70346000D03*
X201447000Y-70846000D03*
X201447000Y-71346000D03*
X201447000Y-71846000D03*
X201447000Y-72346000D03*
X201447000Y-72846000D03*
X201447000Y-73346000D03*
X201447000Y-73846000D03*
X201447000Y-74346000D03*
X201447000Y-74846000D03*
X201447000Y-75346000D03*
X201447000Y-75846000D03*
X201447000Y-76346000D03*
X201447000Y-76846000D03*
X201447000Y-77346000D03*
X201447000Y-77846000D03*
X201447000Y-78346000D03*
X201447000Y-78846000D03*
X201447000Y-79346000D03*
X201447000Y-79846000D03*
X201447000Y-80346000D03*
D27*
X203372000Y-82271000D03*
X203872000Y-82271000D03*
X204372000Y-82271000D03*
X204872000Y-82271000D03*
X205372000Y-82271000D03*
X205872000Y-82271000D03*
X206372000Y-82271000D03*
X206872000Y-82271000D03*
X207372000Y-82271000D03*
X207872000Y-82271000D03*
X208372000Y-82271000D03*
X208872000Y-82271000D03*
X209372000Y-82271000D03*
X209872000Y-82271000D03*
X210372000Y-82271000D03*
X210872000Y-82271000D03*
X211372000Y-82271000D03*
X211872000Y-82271000D03*
X212372000Y-82271000D03*
X212872000Y-82271000D03*
X213372000Y-82271000D03*
X213872000Y-82271000D03*
X214372000Y-82271000D03*
X214872000Y-82271000D03*
X215372000Y-82271000D03*
X215872000Y-82271000D03*
X216372000Y-82271000D03*
X216872000Y-82271000D03*
X217372000Y-82271000D03*
X217872000Y-82271000D03*
X218372000Y-82271000D03*
X218872000Y-82271000D03*
X219372000Y-82271000D03*
X219872000Y-82271000D03*
X220372000Y-82271000D03*
X220872000Y-82271000D03*
X221372000Y-82271000D03*
X221872000Y-82271000D03*
X222372000Y-82271000D03*
X222872000Y-82271000D03*
X223372000Y-82271000D03*
X223872000Y-82271000D03*
X224372000Y-82271000D03*
X224872000Y-82271000D03*
D26*
X226797000Y-80346000D03*
X226797000Y-79846000D03*
X226797000Y-79346000D03*
X226797000Y-78846000D03*
X226797000Y-78346000D03*
X226797000Y-77846000D03*
X226797000Y-77346000D03*
X226797000Y-76846000D03*
X226797000Y-76346000D03*
X226797000Y-75846000D03*
X226797000Y-75346000D03*
X226797000Y-74846000D03*
X226797000Y-74346000D03*
X226797000Y-73846000D03*
X226797000Y-73346000D03*
X226797000Y-72846000D03*
X226797000Y-72346000D03*
X226797000Y-71846000D03*
X226797000Y-71346000D03*
X226797000Y-70846000D03*
X226797000Y-70346000D03*
X226797000Y-69846000D03*
X226797000Y-69346000D03*
X226797000Y-68846000D03*
X226797000Y-68346000D03*
X226797000Y-67846000D03*
X226797000Y-67346000D03*
X226797000Y-66846000D03*
X226797000Y-66346000D03*
X226797000Y-65846000D03*
X226797000Y-65346000D03*
X226797000Y-64846000D03*
X226797000Y-64346000D03*
X226797000Y-63846000D03*
X226797000Y-63346000D03*
X226797000Y-62846000D03*
X226797000Y-62346000D03*
X226797000Y-61846000D03*
X226797000Y-61346000D03*
X226797000Y-60846000D03*
X226797000Y-60346000D03*
X226797000Y-59846000D03*
X226797000Y-59346000D03*
X226797000Y-58846000D03*
D27*
X224872000Y-56921000D03*
X224372000Y-56921000D03*
X223872000Y-56921000D03*
X223372000Y-56921000D03*
X222872000Y-56921000D03*
X222372000Y-56921000D03*
X221872000Y-56921000D03*
X221372000Y-56921000D03*
X220872000Y-56921000D03*
X220372000Y-56921000D03*
X219872000Y-56921000D03*
X219372000Y-56921000D03*
X218872000Y-56921000D03*
X218372000Y-56921000D03*
X217872000Y-56921000D03*
X217372000Y-56921000D03*
X216872000Y-56921000D03*
X216372000Y-56921000D03*
X215872000Y-56921000D03*
X215372000Y-56921000D03*
X214872000Y-56921000D03*
X214372000Y-56921000D03*
X213872000Y-56921000D03*
X213372000Y-56921000D03*
X212872000Y-56921000D03*
X212372000Y-56921000D03*
X211872000Y-56921000D03*
X211372000Y-56921000D03*
X210872000Y-56921000D03*
X210372000Y-56921000D03*
X209872000Y-56921000D03*
X209372000Y-56921000D03*
X208872000Y-56921000D03*
X208372000Y-56921000D03*
X207872000Y-56921000D03*
X207372000Y-56921000D03*
X206872000Y-56921000D03*
X206372000Y-56921000D03*
X205872000Y-56921000D03*
X205372000Y-56921000D03*
X204872000Y-56921000D03*
X204372000Y-56921000D03*
X203872000Y-56921000D03*
X203372000Y-56921000D03*
%TD*%
D25*
%TO.C,J5*%
X192739000Y-48975000D03*
D28*
X195279000Y-48975000D03*
X197819000Y-48975000D03*
X200359000Y-48975000D03*
X202899000Y-48975000D03*
X205439000Y-48975000D03*
X207979000Y-48975000D03*
X210519000Y-48975000D03*
X213059000Y-48975000D03*
X215599000Y-48975000D03*
%TD*%
D13*
%TO.C,C31*%
X197677000Y-73093500D03*
X197677000Y-71368500D03*
%TD*%
D23*
%TO.C,D3*%
X240937000Y-98493500D03*
X240937000Y-101468500D03*
%TD*%
D14*
%TO.C,C37*%
X197677000Y-74677834D03*
X197677000Y-76402834D03*
%TD*%
D13*
%TO.C,C78*%
X229863000Y-79451500D03*
X229863000Y-77726500D03*
%TD*%
%TO.C,C89*%
X199913000Y-111091500D03*
X199913000Y-109366500D03*
%TD*%
D12*
%TO.C,R1*%
X209328000Y-54356000D03*
X211328000Y-54356000D03*
%TD*%
D29*
%TO.C,R17*%
X202911284Y-115125000D03*
X202911284Y-113125000D03*
%TD*%
D15*
%TO.C,H4*%
X187599000Y-49887000D03*
%TD*%
D12*
%TO.C,R8*%
X217007000Y-105741000D03*
X219007000Y-105741000D03*
%TD*%
D30*
%TO.C,R27*%
X206031000Y-95641580D03*
X206031000Y-97641580D03*
%TD*%
D12*
%TO.C,R32*%
X205931000Y-101521000D03*
X207931000Y-101521000D03*
%TD*%
%TO.C,R5*%
X228185000Y-110351000D03*
X230185000Y-110351000D03*
%TD*%
D24*
%TO.C,C60*%
X229412500Y-71845000D03*
X231137500Y-71845000D03*
%TD*%
D29*
%TO.C,R18*%
X208254142Y-115125000D03*
X208254142Y-113125000D03*
%TD*%
D11*
%TO.C,C19*%
X230247500Y-114819000D03*
X228522500Y-114819000D03*
%TD*%
D31*
%TO.C,FB4*%
X186442000Y-91550500D03*
X186442000Y-93375500D03*
%TD*%
D11*
%TO.C,C73*%
X234015500Y-112533000D03*
X232290500Y-112533000D03*
%TD*%
D15*
%TO.C,H3*%
X245278000Y-49887000D03*
%TD*%
D32*
%TO.C,R7*%
X225315000Y-110663000D03*
X223315000Y-110663000D03*
%TD*%
D33*
%TO.C,D7*%
X196258000Y-113487000D03*
X196258000Y-114787000D03*
X198258000Y-114787000D03*
X198258000Y-113487000D03*
%TD*%
D29*
%TO.C,R31*%
X199739568Y-103213846D03*
X199739568Y-101213846D03*
%TD*%
D11*
%TO.C,C24*%
X218697500Y-103759000D03*
X216972500Y-103759000D03*
%TD*%
D30*
%TO.C,R11*%
X217391000Y-109175000D03*
X217391000Y-111175000D03*
%TD*%
D14*
%TO.C,C3*%
X229355000Y-64518500D03*
X229355000Y-66243500D03*
%TD*%
D24*
%TO.C,C21*%
X223252500Y-112709000D03*
X224977500Y-112709000D03*
%TD*%
D34*
%TO.C,SW1*%
X191369000Y-84063000D03*
X198569000Y-84063000D03*
X191369000Y-87063000D03*
X198569000Y-87063000D03*
%TD*%
D15*
%TO.C,H1*%
X187324000Y-112058000D03*
%TD*%
D18*
%TO.C,C104*%
X187479500Y-89325000D03*
X185404500Y-89325000D03*
%TD*%
D13*
%TO.C,C12*%
X201605000Y-55223500D03*
X201605000Y-53498500D03*
%TD*%
D25*
%TO.C,J6*%
X186229000Y-84563000D03*
D28*
X186229000Y-82023000D03*
X186229000Y-79483000D03*
%TD*%
D35*
%TO.C,7660S1*%
X240834000Y-104616000D03*
X239564000Y-104616000D03*
X238294000Y-104616000D03*
X237024000Y-104616000D03*
X237024000Y-109566000D03*
X238294000Y-109566000D03*
X239564000Y-109566000D03*
X240834000Y-109566000D03*
%TD*%
D18*
%TO.C,C1*%
X205715500Y-54250000D03*
X203640500Y-54250000D03*
%TD*%
D25*
%TO.C,J7*%
X186229000Y-75455000D03*
D28*
X186229000Y-72915000D03*
X186229000Y-70375000D03*
X186229000Y-67835000D03*
X186229000Y-65295000D03*
X186229000Y-62755000D03*
X186229000Y-60215000D03*
X186229000Y-57675000D03*
%TD*%
D36*
%TO.C,U11*%
X223073000Y-97710000D03*
X223073000Y-97210000D03*
X223073000Y-96710000D03*
X223073000Y-96210000D03*
X223073000Y-95710000D03*
X223073000Y-95210000D03*
X223073000Y-94710000D03*
X223073000Y-94210000D03*
X223073000Y-93710000D03*
X223073000Y-93210000D03*
X223073000Y-92710000D03*
X223073000Y-92210000D03*
X223073000Y-91710000D03*
X223073000Y-91210000D03*
X223073000Y-90710000D03*
X223073000Y-90210000D03*
D37*
X221148000Y-88285000D03*
X220648000Y-88285000D03*
X220148000Y-88285000D03*
X219648000Y-88285000D03*
X219148000Y-88285000D03*
X218648000Y-88285000D03*
X218148000Y-88285000D03*
X217648000Y-88285000D03*
X217148000Y-88285000D03*
X216648000Y-88285000D03*
X216148000Y-88285000D03*
X215648000Y-88285000D03*
X215148000Y-88285000D03*
X214648000Y-88285000D03*
X214148000Y-88285000D03*
X213648000Y-88285000D03*
D36*
X211723000Y-90210000D03*
X211723000Y-90710000D03*
X211723000Y-91210000D03*
X211723000Y-91710000D03*
X211723000Y-92210000D03*
X211723000Y-92710000D03*
X211723000Y-93210000D03*
X211723000Y-93710000D03*
X211723000Y-94210000D03*
X211723000Y-94710000D03*
X211723000Y-95210000D03*
X211723000Y-95710000D03*
X211723000Y-96210000D03*
X211723000Y-96710000D03*
X211723000Y-97210000D03*
X211723000Y-97710000D03*
D37*
X213648000Y-99635000D03*
X214148000Y-99635000D03*
X214648000Y-99635000D03*
X215148000Y-99635000D03*
X215648000Y-99635000D03*
X216148000Y-99635000D03*
X216648000Y-99635000D03*
X217148000Y-99635000D03*
X217648000Y-99635000D03*
X218148000Y-99635000D03*
X218648000Y-99635000D03*
X219148000Y-99635000D03*
X219648000Y-99635000D03*
X220148000Y-99635000D03*
X220648000Y-99635000D03*
X221148000Y-99635000D03*
%TD*%
D30*
%TO.C,R28*%
X193109000Y-113441000D03*
X193109000Y-115441000D03*
%TD*%
D38*
%TO.C,C42*%
X205472426Y-115132500D03*
X205472426Y-113057500D03*
%TD*%
D30*
%TO.C,R30*%
X203486154Y-95599000D03*
X203486154Y-97599000D03*
%TD*%
D18*
%TO.C,C105*%
X186463500Y-95451000D03*
X184388500Y-95451000D03*
%TD*%
D24*
%TO.C,C51*%
X215092500Y-101951000D03*
X216817500Y-101951000D03*
%TD*%
D32*
%TO.C,R9*%
X214723000Y-105741000D03*
X212723000Y-105741000D03*
%TD*%
D11*
%TO.C,C50*%
X214785500Y-103759000D03*
X213060500Y-103759000D03*
%TD*%
%TO.C,C75*%
X245207500Y-104463000D03*
X243482500Y-104463000D03*
%TD*%
D18*
%TO.C,C103*%
X244172500Y-95885000D03*
X242097500Y-95885000D03*
%TD*%
D32*
%TO.C,R6*%
X230185000Y-112539000D03*
X228185000Y-112539000D03*
%TD*%
D31*
%TO.C,FB3*%
X244545000Y-91580500D03*
X244545000Y-93405500D03*
%TD*%
D39*
%TO.C,U9*%
X238144000Y-73498000D03*
X238144000Y-75798000D03*
D40*
X244444000Y-75798000D03*
D39*
X238144000Y-78098000D03*
%TD*%
D24*
%TO.C,C5*%
X215072476Y-54061000D03*
X216797476Y-54061000D03*
%TD*%
D39*
%TO.C,U5*%
X190075000Y-95813000D03*
X190075000Y-98113000D03*
D40*
X196375000Y-98113000D03*
D39*
X190075000Y-100413000D03*
%TD*%
D32*
%TO.C,R13*%
X203842136Y-103457000D03*
X201842136Y-103457000D03*
%TD*%
D25*
%TO.C,J1*%
X237187000Y-49127000D03*
D28*
X239727000Y-49127000D03*
%TD*%
D41*
%TO.C,C2*%
X229684000Y-73592500D03*
X229684000Y-75667500D03*
%TD*%
D25*
%TO.C,J2*%
X227633000Y-48975000D03*
D28*
X225093000Y-48975000D03*
X222553000Y-48975000D03*
X220013000Y-48975000D03*
%TD*%
D25*
%TO.C,J3*%
X219613000Y-114601000D03*
D28*
X217073000Y-114601000D03*
X214533000Y-114601000D03*
%TD*%
D12*
%TO.C,R26*%
X223315000Y-114713000D03*
X225315000Y-114713000D03*
%TD*%
D24*
%TO.C,C90*%
X228514500Y-106389000D03*
X230239500Y-106389000D03*
%TD*%
D42*
%TO.C,C13*%
X236498241Y-54733000D03*
D43*
X234498241Y-54733000D03*
%TD*%
D42*
%TO.C,C29*%
X192583000Y-106401759D03*
D43*
X195083000Y-106401759D03*
%TD*%
D42*
%TO.C,C28*%
X186714241Y-102437000D03*
D43*
X186714241Y-104937000D03*
%TD*%
D42*
%TO.C,C70*%
X237843000Y-70587759D03*
D43*
X240343000Y-70587759D03*
%TD*%
D42*
%TO.C,C76*%
X237006241Y-101881000D03*
D43*
X235006241Y-101881000D03*
%TD*%
D42*
%TO.C,C77*%
X239773000Y-113562241D03*
D43*
X237773000Y-113562241D03*
%TD*%
D42*
%TO.C,C71*%
X238022241Y-83181000D03*
D43*
X240522241Y-83181000D03*
%TD*%
M02*
