G04 #@! TF.GenerationSoftware,KiCad,Pcbnew,7.0.2*
G04 #@! TF.CreationDate,2023-11-03T22:13:05+01:00*
G04 #@! TF.ProjectId,stm_audio_board_V2,73746d5f-6175-4646-996f-5f626f617264,rev?*
G04 #@! TF.SameCoordinates,Original*
G04 #@! TF.FileFunction,Copper,L4,Bot*
G04 #@! TF.FilePolarity,Positive*
%FSLAX46Y46*%
G04 Gerber Fmt 4.6, Leading zero omitted, Abs format (unit mm)*
G04 Created by KiCad (PCBNEW 7.0.2) date 2023-11-03 22:13:05*
%MOMM*%
%LPD*%
G01*
G04 APERTURE LIST*
G04 Aperture macros list*
%AMRoundRect*
0 Rectangle with rounded corners*
0 $1 Rounding radius*
0 $2 $3 $4 $5 $6 $7 $8 $9 X,Y pos of 4 corners*
0 Add a 4 corners polygon primitive as box body*
4,1,4,$2,$3,$4,$5,$6,$7,$8,$9,$2,$3,0*
0 Add four circle primitives for the rounded corners*
1,1,$1+$1,$2,$3*
1,1,$1+$1,$4,$5*
1,1,$1+$1,$6,$7*
1,1,$1+$1,$8,$9*
0 Add four rect primitives between the rounded corners*
20,1,$1+$1,$2,$3,$4,$5,0*
20,1,$1+$1,$4,$5,$6,$7,0*
20,1,$1+$1,$6,$7,$8,$9,0*
20,1,$1+$1,$8,$9,$2,$3,0*%
G04 Aperture macros list end*
G04 #@! TA.AperFunction,SMDPad,CuDef*
%ADD10RoundRect,0.225000X-0.225000X-0.375000X0.225000X-0.375000X0.225000X0.375000X-0.225000X0.375000X0*%
G04 #@! TD*
G04 #@! TA.AperFunction,ComponentPad*
%ADD11C,5.600000*%
G04 #@! TD*
G04 #@! TA.AperFunction,ComponentPad*
%ADD12R,2.000000X1.905000*%
G04 #@! TD*
G04 #@! TA.AperFunction,ComponentPad*
%ADD13O,2.000000X1.905000*%
G04 #@! TD*
G04 #@! TA.AperFunction,ComponentPad*
%ADD14R,1.500000X1.050000*%
G04 #@! TD*
G04 #@! TA.AperFunction,ComponentPad*
%ADD15O,1.500000X1.050000*%
G04 #@! TD*
G04 #@! TA.AperFunction,ComponentPad*
%ADD16R,1.700000X1.700000*%
G04 #@! TD*
G04 #@! TA.AperFunction,ComponentPad*
%ADD17O,1.700000X1.700000*%
G04 #@! TD*
G04 #@! TA.AperFunction,SMDPad,CuDef*
%ADD18RoundRect,0.237500X0.237500X-0.300000X0.237500X0.300000X-0.237500X0.300000X-0.237500X-0.300000X0*%
G04 #@! TD*
G04 #@! TA.AperFunction,SMDPad,CuDef*
%ADD19RoundRect,0.237500X-0.237500X0.300000X-0.237500X-0.300000X0.237500X-0.300000X0.237500X0.300000X0*%
G04 #@! TD*
G04 #@! TA.AperFunction,SMDPad,CuDef*
%ADD20RoundRect,0.237500X-0.300000X-0.237500X0.300000X-0.237500X0.300000X0.237500X-0.300000X0.237500X0*%
G04 #@! TD*
G04 #@! TA.AperFunction,SMDPad,CuDef*
%ADD21RoundRect,0.250000X0.337500X0.475000X-0.337500X0.475000X-0.337500X-0.475000X0.337500X-0.475000X0*%
G04 #@! TD*
G04 #@! TA.AperFunction,ComponentPad*
%ADD22R,1.600000X1.600000*%
G04 #@! TD*
G04 #@! TA.AperFunction,ComponentPad*
%ADD23C,1.600000*%
G04 #@! TD*
G04 #@! TA.AperFunction,SMDPad,CuDef*
%ADD24RoundRect,0.250000X0.350000X0.450000X-0.350000X0.450000X-0.350000X-0.450000X0.350000X-0.450000X0*%
G04 #@! TD*
G04 #@! TA.AperFunction,SMDPad,CuDef*
%ADD25R,1.600000X1.300000*%
G04 #@! TD*
G04 #@! TA.AperFunction,SMDPad,CuDef*
%ADD26RoundRect,0.237500X0.300000X0.237500X-0.300000X0.237500X-0.300000X-0.237500X0.300000X-0.237500X0*%
G04 #@! TD*
G04 #@! TA.AperFunction,SMDPad,CuDef*
%ADD27RoundRect,0.250001X-0.462499X-0.624999X0.462499X-0.624999X0.462499X0.624999X-0.462499X0.624999X0*%
G04 #@! TD*
G04 #@! TA.AperFunction,SMDPad,CuDef*
%ADD28RoundRect,0.250000X-0.450000X0.350000X-0.450000X-0.350000X0.450000X-0.350000X0.450000X0.350000X0*%
G04 #@! TD*
G04 #@! TA.AperFunction,SMDPad,CuDef*
%ADD29RoundRect,0.250000X-1.025000X0.875000X-1.025000X-0.875000X1.025000X-0.875000X1.025000X0.875000X0*%
G04 #@! TD*
G04 #@! TA.AperFunction,SMDPad,CuDef*
%ADD30RoundRect,0.250000X-0.350000X-0.450000X0.350000X-0.450000X0.350000X0.450000X-0.350000X0.450000X0*%
G04 #@! TD*
G04 #@! TA.AperFunction,SMDPad,CuDef*
%ADD31RoundRect,0.250001X-0.624999X0.462499X-0.624999X-0.462499X0.624999X-0.462499X0.624999X0.462499X0*%
G04 #@! TD*
G04 #@! TA.AperFunction,SMDPad,CuDef*
%ADD32RoundRect,0.250000X-0.475000X0.337500X-0.475000X-0.337500X0.475000X-0.337500X0.475000X0.337500X0*%
G04 #@! TD*
G04 #@! TA.AperFunction,SMDPad,CuDef*
%ADD33RoundRect,0.250000X-0.875000X-0.925000X0.875000X-0.925000X0.875000X0.925000X-0.875000X0.925000X0*%
G04 #@! TD*
G04 #@! TA.AperFunction,SMDPad,CuDef*
%ADD34RoundRect,0.250000X0.450000X-0.350000X0.450000X0.350000X-0.450000X0.350000X-0.450000X-0.350000X0*%
G04 #@! TD*
G04 #@! TA.AperFunction,SMDPad,CuDef*
%ADD35RoundRect,0.250000X0.475000X-0.337500X0.475000X0.337500X-0.475000X0.337500X-0.475000X-0.337500X0*%
G04 #@! TD*
G04 #@! TA.AperFunction,SMDPad,CuDef*
%ADD36RoundRect,0.250000X0.875000X1.025000X-0.875000X1.025000X-0.875000X-1.025000X0.875000X-1.025000X0*%
G04 #@! TD*
G04 #@! TA.AperFunction,ViaPad*
%ADD37C,0.800000*%
G04 #@! TD*
G04 #@! TA.AperFunction,Conductor*
%ADD38C,0.200000*%
G04 #@! TD*
G04 #@! TA.AperFunction,Conductor*
%ADD39C,0.508000*%
G04 #@! TD*
G04 #@! TA.AperFunction,Conductor*
%ADD40C,0.762000*%
G04 #@! TD*
G04 #@! TA.AperFunction,Conductor*
%ADD41C,0.635000*%
G04 #@! TD*
G04 #@! TA.AperFunction,Conductor*
%ADD42C,1.016000*%
G04 #@! TD*
G04 #@! TA.AperFunction,Conductor*
%ADD43C,0.304800*%
G04 #@! TD*
G04 #@! TA.AperFunction,Conductor*
%ADD44C,1.524000*%
G04 #@! TD*
G04 #@! TA.AperFunction,Conductor*
%ADD45C,0.400000*%
G04 #@! TD*
G04 #@! TA.AperFunction,Conductor*
%ADD46C,0.500000*%
G04 #@! TD*
G04 APERTURE END LIST*
D10*
X214670000Y-98075000D03*
X211370000Y-98075000D03*
X219770000Y-98025000D03*
X216470000Y-98025000D03*
X210030000Y-100425000D03*
X213330000Y-100425000D03*
X215230000Y-100475000D03*
X218530000Y-100475000D03*
D11*
X245099000Y-112333000D03*
D12*
X244877000Y-60471000D03*
D13*
X244877000Y-63011000D03*
X244877000Y-65551000D03*
D14*
X245325000Y-99275000D03*
D15*
X245325000Y-100545000D03*
X245325000Y-101815000D03*
D16*
X232457000Y-49069000D03*
X192739000Y-48975000D03*
D17*
X195279000Y-48975000D03*
X197819000Y-48975000D03*
X200359000Y-48975000D03*
X202899000Y-48975000D03*
X205439000Y-48975000D03*
X207979000Y-48975000D03*
X210519000Y-48975000D03*
X213059000Y-48975000D03*
X215599000Y-48975000D03*
D11*
X187599000Y-49887000D03*
X245099000Y-49833000D03*
X187599000Y-112333000D03*
D16*
X186229000Y-84563000D03*
D17*
X186229000Y-82023000D03*
X186229000Y-79483000D03*
D16*
X186229000Y-75455000D03*
D17*
X186229000Y-72915000D03*
X186229000Y-70375000D03*
X186229000Y-67835000D03*
X186229000Y-65295000D03*
X186229000Y-62755000D03*
X186229000Y-60215000D03*
X186229000Y-57675000D03*
D16*
X237187000Y-49127000D03*
D17*
X239727000Y-49127000D03*
D16*
X227633000Y-48975000D03*
D17*
X225093000Y-48975000D03*
X222553000Y-48975000D03*
X220013000Y-48975000D03*
D16*
X219613000Y-114601000D03*
D17*
X217073000Y-114601000D03*
X214533000Y-114601000D03*
D18*
X227089000Y-108985500D03*
X227089000Y-107260500D03*
D19*
X220543000Y-103238524D03*
X220543000Y-104963524D03*
D20*
X189314500Y-67885000D03*
X191039500Y-67885000D03*
D19*
X200657000Y-82378500D03*
X200657000Y-84103500D03*
D21*
X241010500Y-62163000D03*
X238935500Y-62163000D03*
D22*
X236498241Y-54733000D03*
D23*
X234498241Y-54733000D03*
D24*
X203674999Y-103569000D03*
X201674999Y-103569000D03*
D25*
X228309000Y-96595000D03*
X231609000Y-96595000D03*
X231609000Y-98595000D03*
X228309000Y-98595000D03*
D26*
X223603500Y-68346334D03*
X221878500Y-68346334D03*
D27*
X237663500Y-59817000D03*
X240638500Y-59817000D03*
D28*
X206063664Y-95711000D03*
X206063664Y-97711000D03*
D24*
X203709665Y-101537000D03*
X201709665Y-101537000D03*
D22*
X192583000Y-106401759D03*
D23*
X195083000Y-106401759D03*
D20*
X201966500Y-99315004D03*
X203691500Y-99315004D03*
D26*
X213643500Y-79177000D03*
X211918500Y-79177000D03*
D22*
X186714241Y-102437000D03*
D23*
X186714241Y-104937000D03*
D20*
X189314500Y-70431000D03*
X191039500Y-70431000D03*
D18*
X234540000Y-76447500D03*
X234540000Y-74722500D03*
D29*
X215838976Y-103913000D03*
X215838976Y-110313000D03*
D22*
X237843000Y-73635759D03*
D23*
X240343000Y-73635759D03*
D28*
X222541000Y-102901024D03*
X222541000Y-104901024D03*
D26*
X216900000Y-95600000D03*
X215175000Y-95600000D03*
D30*
X205761661Y-101409000D03*
X207761661Y-101409000D03*
D31*
X189617000Y-96439500D03*
X189617000Y-99414500D03*
D32*
X223107400Y-59338300D03*
X223107400Y-61413300D03*
D18*
X204781000Y-64941500D03*
X204781000Y-63216500D03*
D26*
X220465500Y-95583000D03*
X218740500Y-95583000D03*
D18*
X207321000Y-71753500D03*
X207321000Y-70028500D03*
D33*
X215382000Y-92710000D03*
X220482000Y-92710000D03*
D26*
X231755500Y-94385000D03*
X230030500Y-94385000D03*
D30*
X209582000Y-53594000D03*
X211582000Y-53594000D03*
D18*
X224525000Y-104963524D03*
X224525000Y-103238524D03*
D20*
X189314500Y-65339000D03*
X191039500Y-65339000D03*
X205761163Y-99451000D03*
X207486163Y-99451000D03*
X189432500Y-60267000D03*
X191157500Y-60267000D03*
D19*
X209081000Y-96506500D03*
X209081000Y-98231500D03*
D28*
X203488998Y-95711000D03*
X203488998Y-97711000D03*
D18*
X212393400Y-86910700D03*
X212393400Y-85185700D03*
D19*
X210531999Y-113501500D03*
X210531999Y-115226500D03*
D18*
X201605000Y-55223500D03*
X201605000Y-53498500D03*
D20*
X189426500Y-57727000D03*
X191151500Y-57727000D03*
D24*
X223727000Y-66384334D03*
X221727000Y-66384334D03*
D34*
X202808996Y-115127000D03*
X202808996Y-113127000D03*
D18*
X204653000Y-78195500D03*
X204653000Y-76470500D03*
D35*
X221086400Y-78960300D03*
X221086400Y-76885300D03*
D18*
X221013000Y-88023500D03*
X221013000Y-86298500D03*
D34*
X230173000Y-103225000D03*
X230173000Y-101225000D03*
D22*
X237006241Y-101881000D03*
D23*
X235006241Y-101881000D03*
D22*
X239773000Y-113562241D03*
D23*
X237773000Y-113562241D03*
D21*
X228259500Y-103322000D03*
X226184500Y-103322000D03*
D34*
X208262996Y-115241000D03*
X208262996Y-113241000D03*
D18*
X209908330Y-106429500D03*
X209908330Y-104704500D03*
D20*
X189314500Y-62793000D03*
X191039500Y-62793000D03*
D19*
X223163000Y-73552500D03*
X223163000Y-75277500D03*
D18*
X204653000Y-71561500D03*
X204653000Y-69836500D03*
D36*
X240633000Y-66257000D03*
X234233000Y-66257000D03*
D21*
X205450100Y-54178200D03*
X203375100Y-54178200D03*
D35*
X205609004Y-115210500D03*
X205609004Y-113135500D03*
D20*
X205738500Y-74575000D03*
X207463500Y-74575000D03*
D18*
X233831000Y-98361500D03*
X233831000Y-96636500D03*
D20*
X214564476Y-54315000D03*
X216289476Y-54315000D03*
D19*
X199896996Y-105748501D03*
X199896996Y-107473501D03*
D22*
X238022241Y-86229000D03*
D23*
X235522241Y-86229000D03*
D18*
X211671000Y-96033494D03*
X211671000Y-94308494D03*
D26*
X228089500Y-101297000D03*
X226364500Y-101297000D03*
D24*
X207693000Y-103377668D03*
X205693000Y-103377668D03*
D37*
X188400000Y-106200000D03*
X187700000Y-107500000D03*
X184676000Y-107500000D03*
X186200000Y-107500000D03*
X211900000Y-100200000D03*
X213300000Y-98300000D03*
X217500000Y-98000000D03*
X214400000Y-96600000D03*
X213400000Y-93800000D03*
X228400000Y-106400000D03*
X226800000Y-112360000D03*
X222769009Y-99884500D03*
X197612000Y-55118000D03*
X210100000Y-97500000D03*
X216120000Y-70740000D03*
X225044000Y-72346000D03*
X213120000Y-60740000D03*
X207120000Y-60740000D03*
X242316000Y-80264000D03*
X248120000Y-90740000D03*
X207314800Y-68580000D03*
X200660000Y-96520000D03*
X245618000Y-85344000D03*
X217120000Y-90740000D03*
X240284000Y-77724000D03*
X209296000Y-87884000D03*
X208026000Y-76708000D03*
X204724000Y-66802000D03*
X196120000Y-90740000D03*
X199898000Y-112268000D03*
X211120000Y-74740000D03*
X201930000Y-84582000D03*
X240284000Y-85344000D03*
X237744000Y-68072000D03*
X192532000Y-108966000D03*
X187960000Y-99060000D03*
X196088000Y-59182000D03*
X244030000Y-83566000D03*
X213120000Y-66740000D03*
X194056000Y-94996000D03*
X232120000Y-90740000D03*
X233934000Y-85090000D03*
X226822000Y-56896000D03*
X207120000Y-66740000D03*
X238760000Y-88900000D03*
X234696000Y-106426000D03*
X207120000Y-64740000D03*
X192481200Y-70358000D03*
X231172000Y-88900000D03*
X211120000Y-68740000D03*
X235204000Y-69088000D03*
X200120000Y-90740000D03*
X240120000Y-90740000D03*
X233121200Y-94183200D03*
X221996000Y-62992000D03*
X240284000Y-86868000D03*
X204724000Y-87630000D03*
X221520000Y-70612000D03*
X197104000Y-108966000D03*
X189230000Y-107442000D03*
X192532000Y-98044000D03*
X190754000Y-107442000D03*
X237744000Y-61976000D03*
X233172000Y-100330000D03*
X242316000Y-76200000D03*
X213120000Y-90740000D03*
X223266000Y-62992000D03*
X211836000Y-54864000D03*
X234645200Y-94183200D03*
X204724000Y-60706000D03*
X240284000Y-81788000D03*
X230120000Y-90740000D03*
X216120000Y-60740000D03*
X207804000Y-80010000D03*
X222453200Y-86309200D03*
X232188000Y-83312000D03*
X195580000Y-108966000D03*
X198374000Y-109220000D03*
X241808000Y-109982000D03*
X209120000Y-64740000D03*
X191516000Y-113792000D03*
X236220000Y-65024000D03*
X221520000Y-72390000D03*
X213120000Y-74740000D03*
X199644000Y-64008000D03*
X242824000Y-61976000D03*
X219120000Y-90740000D03*
X231140000Y-75692000D03*
X223044000Y-79248000D03*
X192532000Y-94996000D03*
X244030000Y-85344000D03*
X245618000Y-86868000D03*
X238252000Y-99822000D03*
X243840000Y-106172000D03*
X244348000Y-76200000D03*
X236220000Y-63500000D03*
X213120000Y-64740000D03*
X209120000Y-66740000D03*
X234188000Y-64008000D03*
X218120000Y-60740000D03*
X242824000Y-59944000D03*
X217424000Y-77470000D03*
X220218000Y-54864000D03*
X202120000Y-90740000D03*
X195580000Y-70803500D03*
X218120000Y-70740000D03*
X184658000Y-102870000D03*
X231648000Y-114808000D03*
X231137500Y-70612000D03*
X208687000Y-74575000D03*
X202539600Y-87630000D03*
X216916000Y-84074000D03*
X242316000Y-81788000D03*
X194056000Y-98044000D03*
X236220000Y-68072000D03*
X194564000Y-64008000D03*
X218120000Y-62740000D03*
X197104000Y-102870000D03*
X233172000Y-102108000D03*
X216408000Y-55372000D03*
X207010000Y-111252000D03*
X228500000Y-54700000D03*
X239268000Y-63500000D03*
X195580000Y-87376000D03*
X206502000Y-76708000D03*
X187960000Y-94234000D03*
X218948000Y-94234000D03*
X246120000Y-90740000D03*
X221600000Y-97700000D03*
X242284000Y-86868000D03*
X216120000Y-68740000D03*
X234188000Y-60452000D03*
X203200000Y-77216000D03*
X217202000Y-58928000D03*
X191516000Y-110998000D03*
X211918500Y-80518000D03*
X233934000Y-83312000D03*
X232188000Y-87122000D03*
X238252000Y-106680000D03*
X187960000Y-100584000D03*
X219710000Y-77216000D03*
X203708000Y-51562000D03*
X208788000Y-84582000D03*
X213664800Y-84644500D03*
X212598000Y-109220000D03*
X230188000Y-83312000D03*
X211120000Y-66740000D03*
X224790000Y-75184000D03*
X221742000Y-84074000D03*
X211120000Y-64740000D03*
X244348000Y-69088000D03*
X209804000Y-80010000D03*
X211120000Y-60740000D03*
X244348000Y-81788000D03*
X228120000Y-90740000D03*
X221488000Y-74422000D03*
X206756000Y-84074000D03*
X190754000Y-108712000D03*
X209804000Y-112014000D03*
X208120000Y-90740000D03*
X219202000Y-58928000D03*
X192532000Y-99568000D03*
X184120000Y-90740000D03*
X228600000Y-77597000D03*
X237744000Y-66548000D03*
X236474000Y-99822000D03*
X232188000Y-85090000D03*
X198120000Y-90740000D03*
X199898000Y-104648000D03*
X187960000Y-97790000D03*
X234188000Y-73152000D03*
X226600000Y-98400000D03*
X209120000Y-60740000D03*
X201930000Y-96774000D03*
X236728000Y-69088000D03*
X234120000Y-90740000D03*
X230188000Y-87122000D03*
X236220000Y-66548000D03*
X224332800Y-101092000D03*
X203994000Y-80010000D03*
X211120000Y-70740000D03*
X200660000Y-98044000D03*
X233934000Y-87122000D03*
X204724000Y-86106000D03*
X209120000Y-72740000D03*
X194120000Y-90740000D03*
X211582000Y-110490000D03*
X199136000Y-99314000D03*
X242120000Y-90740000D03*
X233680000Y-69088000D03*
X221996000Y-64262000D03*
X225044000Y-70612000D03*
X240538000Y-111252000D03*
X213060500Y-102915500D03*
X219700000Y-103600000D03*
X206120000Y-90740000D03*
X199745600Y-65633600D03*
X242316000Y-77724000D03*
X219710000Y-75438000D03*
X216120000Y-62740000D03*
X217678000Y-80772000D03*
X215120000Y-90740000D03*
X223520000Y-72390000D03*
X237744000Y-63500000D03*
X234950000Y-99822000D03*
X236220000Y-60452000D03*
X226060000Y-95250000D03*
X189738000Y-106172000D03*
X191516000Y-109474000D03*
X184531000Y-87630000D03*
X219456000Y-80772000D03*
X209550000Y-108966000D03*
X219456000Y-79248000D03*
X229172000Y-88900000D03*
X242284000Y-85344000D03*
X198700000Y-73900000D03*
X188823600Y-87376000D03*
X184658000Y-101346000D03*
X202539600Y-86106000D03*
X240284000Y-83566000D03*
X234645200Y-95199200D03*
X195834000Y-55372000D03*
X225044000Y-64262000D03*
X236120000Y-90740000D03*
X238120000Y-90740000D03*
X209120000Y-70740000D03*
X225044000Y-77724000D03*
X191770000Y-75184000D03*
X220345000Y-94234000D03*
X217576400Y-86715600D03*
X245618000Y-83566000D03*
X196437523Y-111960705D03*
X215900000Y-108204000D03*
X222961200Y-77622400D03*
X225044000Y-79248000D03*
X237744000Y-65024000D03*
X204724000Y-100457000D03*
X199745600Y-66548000D03*
X206756000Y-88138000D03*
X194056000Y-96520000D03*
X205994000Y-80010000D03*
X234760000Y-88900000D03*
X214884000Y-74930000D03*
X242824000Y-67564000D03*
X246380000Y-94996000D03*
X236760000Y-88900000D03*
X240284000Y-95504000D03*
X217900000Y-83700000D03*
X218120000Y-64740000D03*
X218120000Y-68740000D03*
X209120000Y-68740000D03*
X245872000Y-69088000D03*
X184658000Y-105918000D03*
X219202000Y-61468000D03*
X218948000Y-108204000D03*
X235966000Y-106426000D03*
X198374000Y-58928000D03*
X223520000Y-70612000D03*
X236220000Y-61976000D03*
X211120000Y-72740000D03*
X191516000Y-112268000D03*
X196088000Y-94996000D03*
X223012000Y-98806000D03*
X209120000Y-62740000D03*
X203708000Y-55563576D03*
X216120000Y-72740000D03*
X245872000Y-67564000D03*
X239754879Y-106658879D03*
X234188000Y-61976000D03*
X221120000Y-90740000D03*
X199644000Y-60960000D03*
X191008000Y-87376000D03*
X207772000Y-97536000D03*
X199136000Y-97790000D03*
X244348000Y-67564000D03*
X197104000Y-107442000D03*
X240284000Y-76200000D03*
X213120000Y-68740000D03*
X230188000Y-85090000D03*
X213120000Y-70740000D03*
X224028000Y-53340000D03*
X204120000Y-90740000D03*
X212090000Y-107696000D03*
X224698128Y-95918628D03*
X213120000Y-72740000D03*
X219964000Y-60452000D03*
X200406000Y-99822000D03*
X192786000Y-65532000D03*
X195580000Y-56896000D03*
X188120000Y-90740000D03*
X216120000Y-64740000D03*
X212852000Y-110744000D03*
X211120000Y-62740000D03*
X227076000Y-87884000D03*
X192532000Y-96520000D03*
X234696000Y-105156000D03*
X242284000Y-83566000D03*
X216120000Y-66740000D03*
X192120000Y-90740000D03*
X242824000Y-69088000D03*
X196596000Y-101092000D03*
X240284000Y-80264000D03*
X233121200Y-95199200D03*
X197104000Y-105918000D03*
X197104000Y-104394000D03*
X189230000Y-108712000D03*
X194056000Y-108966000D03*
X235712000Y-83312000D03*
X184658000Y-104394000D03*
X233172000Y-88900000D03*
X218120000Y-66740000D03*
X207010000Y-51054000D03*
X204724000Y-61976000D03*
X204724000Y-107950000D03*
X197358000Y-87376000D03*
X244030000Y-86868000D03*
X191516000Y-115316000D03*
X203708000Y-84074000D03*
X213120000Y-62740000D03*
X201930000Y-95250000D03*
X204724000Y-68580000D03*
X190120000Y-90740000D03*
X225044000Y-65532000D03*
X229209250Y-100177250D03*
X225044000Y-68580000D03*
X238252000Y-69088000D03*
X240437000Y-89057000D03*
X242316000Y-78846000D03*
X184658000Y-99822000D03*
X207120000Y-62740000D03*
X183896000Y-97028000D03*
X191516000Y-58928000D03*
X192532000Y-67818000D03*
X242824000Y-63500000D03*
X240284000Y-78846000D03*
X224840800Y-60756800D03*
X239268000Y-100838000D03*
X208471500Y-54852158D03*
X196850000Y-56388000D03*
X206360613Y-58420000D03*
X197104000Y-58420000D03*
X202946000Y-50800000D03*
X188976000Y-89408000D03*
X187960000Y-95813000D03*
X204739500Y-51878500D03*
X222474344Y-88285000D03*
X203200000Y-65024000D03*
X203200000Y-71120000D03*
X213868000Y-55372000D03*
X193954400Y-53340000D03*
X215571500Y-58420000D03*
X202058288Y-56259712D03*
X225044000Y-73660000D03*
X199644000Y-81280000D03*
X217678000Y-53340000D03*
X212344000Y-88138000D03*
X213676500Y-80518000D03*
X203200000Y-78232000D03*
X213868000Y-58420000D03*
X223012000Y-101346000D03*
X219938500Y-86360000D03*
X218440000Y-80010000D03*
X218694000Y-78232000D03*
X215900000Y-85344000D03*
X207772000Y-84328000D03*
X206248000Y-86551500D03*
X219188622Y-85584622D03*
X218948000Y-84136500D03*
X210312000Y-88138000D03*
X219456000Y-62484000D03*
X213763211Y-86656289D03*
X220980000Y-59436000D03*
X208120000Y-87740000D03*
X210005833Y-84529833D03*
X213868000Y-108204000D03*
X211601000Y-104413000D03*
X210171622Y-95909500D03*
X189992000Y-102616000D03*
X206248000Y-110236000D03*
X211074000Y-108966000D03*
X225044000Y-66548000D03*
X225171000Y-97645000D03*
X226187000Y-96774000D03*
X225200000Y-100300000D03*
X201930000Y-111252000D03*
X210110000Y-102310000D03*
X233680000Y-108204000D03*
X221491442Y-101403096D03*
X217170000Y-94234000D03*
X228092000Y-57404000D03*
X221488000Y-54864000D03*
X207772000Y-94996000D03*
X207772000Y-96266000D03*
X195072000Y-81280000D03*
X203708000Y-74676000D03*
X199136000Y-72136000D03*
X198120000Y-64516000D03*
X199884622Y-72911378D03*
X196088000Y-64516000D03*
X194789157Y-65814843D03*
X192024000Y-79756000D03*
X203195076Y-73156924D03*
X199120535Y-71135465D03*
X209908330Y-107950000D03*
X206248000Y-106934000D03*
X220827600Y-80619600D03*
X224872000Y-58928000D03*
X205486000Y-55372000D03*
D38*
X211177500Y-99477500D02*
X210977500Y-99477500D01*
D39*
X211900000Y-100200000D02*
X211177500Y-99477500D01*
D40*
X210977500Y-99477500D02*
X210030000Y-100425000D01*
X211370000Y-99085000D02*
X210977500Y-99477500D01*
D38*
X213300000Y-100395000D02*
X213330000Y-100425000D01*
D39*
X213300000Y-98300000D02*
X213300000Y-100395000D01*
D38*
X216495000Y-98000000D02*
X216470000Y-98025000D01*
X217500000Y-98000000D02*
X216495000Y-98000000D01*
D40*
X219770000Y-99330000D02*
X219770000Y-98025000D01*
X218625000Y-100475000D02*
X219770000Y-99330000D01*
X218530000Y-100475000D02*
X218625000Y-100475000D01*
D39*
X219448500Y-96600000D02*
X214400000Y-96600000D01*
X220465500Y-95583000D02*
X219448500Y-96600000D01*
X219775000Y-98025000D02*
X220100000Y-97700000D01*
X220100000Y-97700000D02*
X221600000Y-97700000D01*
X219770000Y-98025000D02*
X219775000Y-98025000D01*
X209574622Y-96506500D02*
X210171622Y-95909500D01*
X209081000Y-96506500D02*
X209574622Y-96506500D01*
X214400000Y-96600000D02*
X213833494Y-96033494D01*
X213833494Y-96033494D02*
X211671000Y-96033494D01*
D40*
X213330000Y-100425000D02*
X215180000Y-100425000D01*
X215180000Y-100425000D02*
X215230000Y-100475000D01*
X216420000Y-98075000D02*
X216470000Y-98025000D01*
X214670000Y-98075000D02*
X216420000Y-98075000D01*
X211370000Y-98075000D02*
X211370000Y-99085000D01*
X211370000Y-96334494D02*
X211671000Y-96033494D01*
X211370000Y-98075000D02*
X211370000Y-96334494D01*
X211547006Y-95909500D02*
X211671000Y-96033494D01*
X210171622Y-95909500D02*
X211547006Y-95909500D01*
D39*
X216900000Y-95600000D02*
X218723500Y-95600000D01*
X218723500Y-95600000D02*
X218740500Y-95583000D01*
X215175000Y-95600000D02*
X216541000Y-94234000D01*
X216541000Y-94234000D02*
X217170000Y-94234000D01*
X209302000Y-98298000D02*
X209147500Y-98298000D01*
X210100000Y-97500000D02*
X209302000Y-98298000D01*
D41*
X220794538Y-102100000D02*
X221491442Y-101403096D01*
X213440541Y-101998000D02*
X213542541Y-102100000D01*
X210422000Y-101998000D02*
X213440541Y-101998000D01*
X213542541Y-102100000D02*
X220794538Y-102100000D01*
X210110000Y-102310000D02*
X210422000Y-101998000D01*
X220061476Y-103238524D02*
X220543000Y-103238524D01*
X219700000Y-103600000D02*
X220061476Y-103238524D01*
D39*
X208509000Y-101409000D02*
X207761661Y-101409000D01*
X209200000Y-102100000D02*
X208509000Y-101409000D01*
X209200000Y-103996170D02*
X209200000Y-102100000D01*
X209804000Y-104600170D02*
X209200000Y-103996170D01*
X212891506Y-94308494D02*
X213400000Y-93800000D01*
X211671000Y-94308494D02*
X212891506Y-94308494D01*
X211671000Y-96033494D02*
X211671000Y-95689058D01*
D40*
X210171622Y-95469463D02*
X210171622Y-95909500D01*
D41*
X227539500Y-107260500D02*
X228400000Y-106400000D01*
X227089000Y-107260500D02*
X227539500Y-107260500D01*
D39*
X226800000Y-109274500D02*
X227089000Y-108985500D01*
X226800000Y-112360000D02*
X226800000Y-109274500D01*
D42*
X226800000Y-112360000D02*
X211620999Y-112360000D01*
X229931442Y-112360000D02*
X226800000Y-112360000D01*
D39*
X226364800Y-100482400D02*
X226364800Y-101296700D01*
X226182400Y-100300000D02*
X226364800Y-100482400D01*
X226364800Y-101296700D02*
X226364500Y-101297000D01*
X225200000Y-100300000D02*
X226182400Y-100300000D01*
D43*
X221491442Y-101162067D02*
X222769009Y-99884500D01*
X221491442Y-101403096D02*
X221491442Y-101162067D01*
D42*
X207426000Y-109128000D02*
X204054000Y-109128000D01*
X211620999Y-112264050D02*
X210262949Y-110906000D01*
X211620999Y-112360000D02*
X211620999Y-112264050D01*
X209204000Y-110906000D02*
X207426000Y-109128000D01*
X204054000Y-109128000D02*
X201930000Y-111252000D01*
X230531442Y-111760000D02*
X229931442Y-112360000D01*
X210262949Y-110906000D02*
X209204000Y-110906000D01*
D40*
X208602159Y-93900000D02*
X210171622Y-95469463D01*
X200740000Y-93900000D02*
X208602159Y-93900000D01*
X192024000Y-102616000D02*
X200740000Y-93900000D01*
X234188000Y-73152000D02*
X234569000Y-73533000D01*
D39*
X202695400Y-53498500D02*
X203375100Y-54178200D01*
X223603500Y-68346334D02*
X224810334Y-68346334D01*
D40*
X224184300Y-61413300D02*
X224840800Y-60756800D01*
D39*
X229209250Y-100177250D02*
X228089500Y-101297000D01*
X201605000Y-53498500D02*
X202695400Y-53498500D01*
D40*
X211582000Y-53594000D02*
X211582000Y-54610000D01*
D39*
X204781000Y-62033000D02*
X204724000Y-61976000D01*
D41*
X224790000Y-75184000D02*
X223256500Y-75184000D01*
D39*
X229225250Y-100177250D02*
X230373000Y-101325000D01*
D41*
X207321000Y-68586200D02*
X207321000Y-70028500D01*
D39*
X199898000Y-104648000D02*
X199896996Y-104649004D01*
D40*
X208687000Y-74575000D02*
X207463500Y-74575000D01*
D39*
X191151500Y-58563500D02*
X191516000Y-58928000D01*
X194564000Y-64008000D02*
X193349000Y-62793000D01*
D40*
X208280000Y-112944000D02*
X208280000Y-112471200D01*
D39*
X191516000Y-58928000D02*
X191157500Y-59286500D01*
X204781000Y-63216500D02*
X204781000Y-62033000D01*
D41*
X201930000Y-84582000D02*
X201135500Y-84582000D01*
D39*
X216408000Y-55372000D02*
X216408000Y-54433524D01*
X229209250Y-100177250D02*
X229225250Y-100177250D01*
X224810334Y-68346334D02*
X225044000Y-68580000D01*
X204653000Y-68651000D02*
X204724000Y-68580000D01*
D40*
X211582000Y-54610000D02*
X211836000Y-54864000D01*
D39*
X204653000Y-69836500D02*
X204653000Y-68651000D01*
X213664800Y-85039200D02*
X213518300Y-85185700D01*
X216408000Y-54433524D02*
X216289476Y-54315000D01*
D40*
X234569000Y-74693500D02*
X234540000Y-74722500D01*
D41*
X207314800Y-68580000D02*
X207321000Y-68586200D01*
D39*
X228309000Y-99277000D02*
X228309000Y-98595000D01*
D41*
X220522800Y-103218324D02*
X220543000Y-103238524D01*
D39*
X222453200Y-86309200D02*
X222442500Y-86298500D01*
D40*
X208577000Y-113241000D02*
X208280000Y-112944000D01*
X208737200Y-112014000D02*
X209804000Y-112014000D01*
X238935500Y-62163000D02*
X237931000Y-62163000D01*
X208280000Y-112471200D02*
X208737200Y-112014000D01*
X210531999Y-113501500D02*
X210531999Y-112741999D01*
X215838976Y-110313000D02*
X213283000Y-110313000D01*
X210531999Y-112741999D02*
X209804000Y-112014000D01*
D39*
X191157500Y-59286500D02*
X191157500Y-60267000D01*
X221086400Y-76885300D02*
X222224100Y-76885300D01*
D40*
X192593000Y-65339000D02*
X192786000Y-65532000D01*
D39*
X191151500Y-57727000D02*
X191151500Y-58563500D01*
X204653000Y-76470500D02*
X203945500Y-76470500D01*
X222442500Y-86298500D02*
X221013000Y-86298500D01*
X213664800Y-84644500D02*
X213664800Y-85039200D01*
D41*
X199896996Y-104649004D02*
X199896996Y-105748501D01*
D39*
X193349000Y-62793000D02*
X191039500Y-62793000D01*
D40*
X213283000Y-110313000D02*
X212852000Y-110744000D01*
D39*
X229209250Y-100177250D02*
X228309000Y-99277000D01*
X192481200Y-70358000D02*
X192408200Y-70431000D01*
X203375100Y-55230676D02*
X203375100Y-54178200D01*
D40*
X234233000Y-64053000D02*
X234188000Y-64008000D01*
D41*
X224332800Y-101092000D02*
X224525000Y-101284200D01*
D39*
X192408200Y-70431000D02*
X191039500Y-70431000D01*
D40*
X223107400Y-61413300D02*
X224184300Y-61413300D01*
D41*
X201135500Y-84582000D02*
X200657000Y-84103500D01*
X192532000Y-67818000D02*
X191106500Y-67818000D01*
X211918500Y-80518000D02*
X211918500Y-79177000D01*
D40*
X191039500Y-65339000D02*
X192593000Y-65339000D01*
D39*
X203708000Y-55563576D02*
X203375100Y-55230676D01*
D44*
X234233000Y-66257000D02*
X234233000Y-64053000D01*
D41*
X224525000Y-101284200D02*
X224525000Y-103238524D01*
D39*
X222224100Y-76885300D02*
X222961200Y-77622400D01*
X203945500Y-76470500D02*
X203200000Y-77216000D01*
X213518300Y-85185700D02*
X212393400Y-85185700D01*
D40*
X234569000Y-73533000D02*
X234569000Y-74693500D01*
D39*
X191106500Y-67818000D02*
X191039500Y-67885000D01*
D40*
X237931000Y-62163000D02*
X237744000Y-61976000D01*
D42*
X209582000Y-53594000D02*
X209582000Y-53741658D01*
D40*
X209582000Y-53741658D02*
X208471500Y-54852158D01*
D43*
X196850000Y-49944000D02*
X197819000Y-48975000D01*
X196850000Y-56388000D02*
X196850000Y-49944000D01*
D38*
X202946000Y-52578000D02*
X200359000Y-49991000D01*
X206360613Y-58420000D02*
X206360613Y-53198613D01*
X206360613Y-53198613D02*
X205740000Y-52578000D01*
X200359000Y-49991000D02*
X200359000Y-48975000D01*
X205740000Y-52578000D02*
X202946000Y-52578000D01*
X199882654Y-47825000D02*
X199136000Y-48571654D01*
D43*
X199136000Y-56134000D02*
X199136000Y-51816000D01*
D38*
X201749000Y-47825000D02*
X199882654Y-47825000D01*
D43*
X197104000Y-58166000D02*
X199136000Y-56134000D01*
X197104000Y-58420000D02*
X197104000Y-58166000D01*
D38*
X202899000Y-48975000D02*
X201749000Y-47825000D01*
X199136000Y-48571654D02*
X199136000Y-51816000D01*
X202946000Y-50800000D02*
X206154000Y-50800000D01*
X206154000Y-50800000D02*
X207979000Y-48975000D01*
D42*
X225171000Y-87376000D02*
X223139000Y-89408000D01*
X241046000Y-62127500D02*
X241010500Y-62163000D01*
D44*
X240633000Y-66257000D02*
X242204841Y-66257000D01*
D42*
X240284000Y-69596000D02*
X240284000Y-66606000D01*
X225171000Y-86604344D02*
X225171000Y-87376000D01*
X237843000Y-74577000D02*
X237843000Y-73635759D01*
D44*
X242910841Y-65551000D02*
X244877000Y-65551000D01*
D40*
X241010500Y-65879500D02*
X240633000Y-66257000D01*
D42*
X240638500Y-59817000D02*
X241046000Y-60224500D01*
X223139000Y-89408000D02*
X188976000Y-89408000D01*
X234540000Y-77235344D02*
X225171000Y-86604344D01*
X234540000Y-76447500D02*
X235972500Y-76447500D01*
D40*
X241010500Y-62163000D02*
X241010500Y-65879500D01*
D44*
X242204841Y-66257000D02*
X242910841Y-65551000D01*
D42*
X235972500Y-76447500D02*
X237843000Y-74577000D01*
X237744000Y-73536759D02*
X237744000Y-72136000D01*
X241046000Y-60224500D02*
X241046000Y-62127500D01*
X237744000Y-72136000D02*
X240284000Y-69596000D01*
X234540000Y-76447500D02*
X234540000Y-77235344D01*
D44*
X189617000Y-96439500D02*
X188586500Y-96439500D01*
X188586500Y-96439500D02*
X187960000Y-95813000D01*
D38*
X204739500Y-51878500D02*
X204802000Y-51816000D01*
X204802000Y-51816000D02*
X207678000Y-51816000D01*
X207678000Y-51816000D02*
X210519000Y-48975000D01*
X222474344Y-88285000D02*
X222212844Y-88023500D01*
D44*
X204689500Y-78232000D02*
X209042000Y-78232000D01*
X212868000Y-77740000D02*
X213643500Y-78515500D01*
D41*
X212344000Y-86960100D02*
X212393400Y-86910700D01*
X212491000Y-88285000D02*
X212344000Y-88138000D01*
D39*
X204653000Y-71561500D02*
X203641500Y-71561500D01*
D38*
X222212844Y-88023500D02*
X221013000Y-88023500D01*
D40*
X213868000Y-55372000D02*
X213868000Y-55011476D01*
D41*
X203200000Y-71120000D02*
X203200000Y-65024000D01*
X212344000Y-88138000D02*
X212344000Y-86960100D01*
X222474344Y-88285000D02*
X212491000Y-88285000D01*
D39*
X201605000Y-55223500D02*
X201605000Y-55806424D01*
D44*
X209042000Y-78232000D02*
X209534000Y-77740000D01*
X204653000Y-78195500D02*
X204689500Y-78232000D01*
D41*
X199644000Y-81365500D02*
X200657000Y-82378500D01*
D39*
X213868000Y-58420000D02*
X215571500Y-58420000D01*
D44*
X209534000Y-77740000D02*
X212868000Y-77740000D01*
D39*
X203641500Y-71561500D02*
X203200000Y-71120000D01*
D40*
X213868000Y-55372000D02*
X213868000Y-58420000D01*
D44*
X213643500Y-78515500D02*
X213643500Y-79177000D01*
D41*
X213676500Y-79210000D02*
X213643500Y-79177000D01*
D40*
X213868000Y-55011476D02*
X214564476Y-54315000D01*
D39*
X201605000Y-55806424D02*
X202058288Y-56259712D01*
D41*
X225044000Y-73660000D02*
X223270500Y-73660000D01*
X213676500Y-80518000D02*
X213676500Y-79210000D01*
X199644000Y-81280000D02*
X199644000Y-81365500D01*
D40*
X203200000Y-78232000D02*
X204616500Y-78232000D01*
D39*
X203200000Y-65024000D02*
X204355500Y-65024000D01*
X222541000Y-102901024D02*
X222541000Y-101817000D01*
D45*
X222541000Y-102979524D02*
X224525000Y-104963524D01*
D39*
X222541000Y-101817000D02*
X223012000Y-101346000D01*
D43*
X219964000Y-83058000D02*
X219964000Y-86334500D01*
X218440000Y-80010000D02*
X218440000Y-81534000D01*
D38*
X219964000Y-86334500D02*
X219938500Y-86360000D01*
D43*
X218440000Y-81534000D02*
X219964000Y-83058000D01*
X216916000Y-81788000D02*
X215900000Y-82804000D01*
X215900000Y-82804000D02*
X215900000Y-85344000D01*
X216916000Y-80010000D02*
X216916000Y-81788000D01*
X218694000Y-78232000D02*
X216916000Y-80010000D01*
X206248000Y-86551500D02*
X206248000Y-85852000D01*
X206248000Y-85852000D02*
X207772000Y-84328000D01*
D39*
X218948000Y-85344000D02*
X218948000Y-84136500D01*
X219188622Y-85584622D02*
X218948000Y-85344000D01*
D43*
X219456000Y-71628000D02*
X215138000Y-75946000D01*
X219456000Y-62484000D02*
X219456000Y-71628000D01*
X215138000Y-75946000D02*
X215138000Y-80365600D01*
X212317955Y-83846045D02*
X211328000Y-84836000D01*
X215138000Y-80365600D02*
X212317955Y-83185645D01*
X211328000Y-87122000D02*
X210312000Y-88138000D01*
X211328000Y-84836000D02*
X211328000Y-87122000D01*
X212317955Y-83185645D02*
X212317955Y-83846045D01*
X220980000Y-64516000D02*
X220472000Y-65024000D01*
X214884000Y-82550000D02*
X214884000Y-85535500D01*
X220472000Y-65024000D02*
X220472000Y-72390000D01*
X216154000Y-81280000D02*
X214884000Y-82550000D01*
X220472000Y-72390000D02*
X216154000Y-76708000D01*
X216154000Y-76708000D02*
X216154000Y-81280000D01*
X220980000Y-59436000D02*
X220980000Y-64516000D01*
X214884000Y-85535500D02*
X213763211Y-86656289D01*
X208120000Y-87298000D02*
X208120000Y-87740000D01*
X210005833Y-84529833D02*
X209550000Y-84985666D01*
X209550000Y-84985666D02*
X209550000Y-85868000D01*
X209550000Y-85868000D02*
X208120000Y-87298000D01*
D41*
X215838976Y-103913000D02*
X217705000Y-103913000D01*
X213536200Y-103913000D02*
X215838976Y-103913000D01*
D40*
X213868000Y-107188000D02*
X211601000Y-104921000D01*
X211601000Y-104921000D02*
X211601000Y-104413000D01*
D41*
X218755524Y-104963524D02*
X220543000Y-104963524D01*
X211601000Y-104413000D02*
X213036200Y-104413000D01*
D46*
X222478500Y-104963524D02*
X220543000Y-104963524D01*
D41*
X217705000Y-103913000D02*
X218755524Y-104963524D01*
D40*
X213868000Y-108204000D02*
X213868000Y-107188000D01*
D41*
X213036200Y-104413000D02*
X213536200Y-103913000D01*
D42*
X189617000Y-102241000D02*
X189992000Y-102616000D01*
X189617000Y-99414500D02*
X189617000Y-102241000D01*
D40*
X189992000Y-99789500D02*
X189617000Y-99414500D01*
D42*
X192024000Y-102616000D02*
X189992000Y-102616000D01*
D39*
X201709665Y-101537000D02*
X201709665Y-103534334D01*
X203002999Y-97711000D02*
X203488998Y-97711000D01*
X201709665Y-101537000D02*
X201709665Y-99571839D01*
X201966500Y-98747499D02*
X203002999Y-97711000D01*
X201966500Y-99233498D02*
X201966500Y-98747499D01*
X203403200Y-111709200D02*
X204774800Y-111709200D01*
X202808996Y-112303404D02*
X203403200Y-111709200D01*
X209908330Y-104704500D02*
X211074000Y-105870170D01*
X211074000Y-105870170D02*
X211074000Y-108966000D01*
X202808996Y-113127000D02*
X202808996Y-112303404D01*
X204774800Y-111709200D02*
X206248000Y-110236000D01*
D40*
X213059000Y-114601000D02*
X212344000Y-115316000D01*
X214533000Y-114601000D02*
X213059000Y-114601000D01*
D39*
X206959200Y-114757200D02*
X207443000Y-115241000D01*
X207443000Y-115241000D02*
X208262996Y-115241000D01*
X206505900Y-113135500D02*
X206959200Y-113588800D01*
X206959200Y-113588800D02*
X206959200Y-114757200D01*
D40*
X210531999Y-115226500D02*
X208277496Y-115226500D01*
X212344000Y-115316000D02*
X210621499Y-115316000D01*
D39*
X205609004Y-113135500D02*
X206505900Y-113135500D01*
X207486163Y-99684498D02*
X205761661Y-101409000D01*
X206423000Y-97711000D02*
X206063664Y-97711000D01*
D41*
X205761661Y-101409000D02*
X205761661Y-103309007D01*
D39*
X207486163Y-99133499D02*
X207486163Y-98774163D01*
X207486163Y-98774163D02*
X206423000Y-97711000D01*
X225044000Y-66548000D02*
X223890666Y-66548000D01*
X223727000Y-66497834D02*
X221878500Y-68346334D01*
D41*
X231609000Y-98595000D02*
X233597500Y-98595000D01*
D38*
X225171000Y-97645000D02*
X230659000Y-97645000D01*
X230659000Y-97645000D02*
X231609000Y-98595000D01*
D41*
X228309000Y-96595000D02*
X228309000Y-95287000D01*
D43*
X226187000Y-96774000D02*
X226366000Y-96595000D01*
X226366000Y-96595000D02*
X228309000Y-96595000D01*
D41*
X229211000Y-94385000D02*
X230030500Y-94385000D01*
X228309000Y-95287000D02*
X229211000Y-94385000D01*
D40*
X202808996Y-115127000D02*
X205525504Y-115127000D01*
X228084500Y-103322000D02*
X230370000Y-103322000D01*
D41*
X226364500Y-101297000D02*
X226364500Y-103317000D01*
D42*
X236220000Y-111760000D02*
X241808000Y-106172000D01*
X243625000Y-101815000D02*
X245325000Y-101815000D01*
X241808000Y-103632000D02*
X243625000Y-101815000D01*
X230531442Y-111760000D02*
X236220000Y-111760000D01*
X241808000Y-106172000D02*
X241808000Y-103632000D01*
D40*
X232664000Y-108204000D02*
X233680000Y-108204000D01*
D41*
X217170000Y-94234000D02*
X217170000Y-93218000D01*
X216662000Y-92710000D02*
X215382000Y-92710000D01*
X217170000Y-93218000D02*
X216662000Y-92710000D01*
D39*
X228092000Y-55880000D02*
X228092000Y-57404000D01*
X225093000Y-48975000D02*
X225093000Y-52881000D01*
X225093000Y-52881000D02*
X228092000Y-55880000D01*
X221488000Y-51562000D02*
X221488000Y-54864000D01*
X222553000Y-50497000D02*
X221488000Y-51562000D01*
X222553000Y-48975000D02*
X222553000Y-50497000D01*
X232457000Y-49069000D02*
X232457000Y-50753000D01*
X230124000Y-58166000D02*
X224882000Y-63408000D01*
X221727000Y-66371261D02*
X221727000Y-66384334D01*
X232457000Y-50753000D02*
X230124000Y-53086000D01*
X224882000Y-63408000D02*
X224690261Y-63408000D01*
X224690261Y-63408000D02*
X221727000Y-66371261D01*
X230124000Y-53086000D02*
X230124000Y-58166000D01*
D44*
X236498241Y-58651741D02*
X237663500Y-59817000D01*
X236498241Y-54733000D02*
X236498241Y-58651741D01*
D38*
X207057000Y-95711000D02*
X207772000Y-94996000D01*
X206063664Y-95711000D02*
X207057000Y-95711000D01*
X204388998Y-96611000D02*
X203488998Y-95711000D01*
X207427000Y-96611000D02*
X204388998Y-96611000D01*
X207772000Y-96266000D02*
X207427000Y-96611000D01*
D43*
X203708000Y-74676000D02*
X203200000Y-74676000D01*
X203200000Y-74676000D02*
X199136000Y-78740000D01*
X197612000Y-78740000D02*
X195072000Y-81280000D01*
X199136000Y-78740000D02*
X197612000Y-78740000D01*
D39*
X203708000Y-74676000D02*
X205637500Y-74676000D01*
D40*
X189264500Y-67835000D02*
X186229000Y-67835000D01*
D43*
X194056000Y-70858777D02*
X194056000Y-70104000D01*
X193040000Y-69088000D02*
X189738000Y-69088000D01*
X189738000Y-69088000D02*
X189314500Y-68664500D01*
X199136000Y-72136000D02*
X195333223Y-72136000D01*
X189314500Y-68664500D02*
X189314500Y-67885000D01*
X194056000Y-70104000D02*
X193040000Y-69088000D01*
X195333223Y-72136000D02*
X194056000Y-70858777D01*
D41*
X189374500Y-57675000D02*
X186229000Y-57675000D01*
D43*
X192024000Y-56388000D02*
X189870750Y-56388000D01*
X189870750Y-56388000D02*
X189426500Y-56832250D01*
X189426500Y-56832250D02*
X189426500Y-57727000D01*
X193040000Y-59436000D02*
X193040000Y-57404000D01*
X193040000Y-57404000D02*
X192024000Y-56388000D01*
X198120000Y-64516000D02*
X193040000Y-59436000D01*
X199884622Y-72911378D02*
X191021378Y-72911378D01*
D39*
X189314500Y-71204500D02*
X189314500Y-70431000D01*
D40*
X189258500Y-70375000D02*
X186229000Y-70375000D01*
D39*
X191021378Y-72911378D02*
X189314500Y-71204500D01*
D43*
X189432500Y-60908500D02*
X189432500Y-60267000D01*
X189747600Y-61223600D02*
X189432500Y-60908500D01*
X196088000Y-64516000D02*
X196088000Y-64008000D01*
D41*
X189380500Y-60215000D02*
X186229000Y-60215000D01*
D43*
X193303600Y-61223600D02*
X189747600Y-61223600D01*
X196088000Y-64008000D02*
X193303600Y-61223600D01*
D41*
X189276500Y-62755000D02*
X186229000Y-62755000D01*
D43*
X189720900Y-64008000D02*
X189314500Y-63601600D01*
X194789157Y-65814843D02*
X192982314Y-64008000D01*
X192982314Y-64008000D02*
X189720900Y-64008000D01*
X189314500Y-63601600D02*
X189314500Y-62793000D01*
D39*
X199080400Y-77271600D02*
X203195076Y-73156924D01*
X207321000Y-72587000D02*
X206770000Y-73138000D01*
X207321000Y-71753500D02*
X207321000Y-72587000D01*
X206770000Y-73138000D02*
X203214000Y-73138000D01*
X192024000Y-79756000D02*
X194508400Y-77271600D01*
X203214000Y-73138000D02*
X203195076Y-73156924D01*
X194508400Y-77271600D02*
X199080400Y-77271600D01*
D43*
X193548000Y-66548000D02*
X189738000Y-66548000D01*
X189738000Y-66548000D02*
X189314500Y-66124500D01*
D41*
X189270500Y-65295000D02*
X186229000Y-65295000D01*
D43*
X189314500Y-66124500D02*
X189314500Y-65339000D01*
X199120535Y-71135465D02*
X198135465Y-71135465D01*
X198135465Y-71135465D02*
X193548000Y-66548000D01*
D40*
X207693000Y-103377668D02*
X207693000Y-105127800D01*
X208994700Y-106429500D02*
X209908330Y-106429500D01*
X207693000Y-105127800D02*
X208994700Y-106429500D01*
D41*
X209908330Y-107950000D02*
X209908330Y-106429500D01*
D39*
X206248000Y-106934000D02*
X204639000Y-105325000D01*
X204639000Y-103851800D02*
X204356200Y-103569000D01*
X204639000Y-105325000D02*
X204639000Y-103851800D01*
X203674999Y-104528601D02*
X203674999Y-103695498D01*
X204356200Y-103569000D02*
X203674999Y-103569000D01*
X199896996Y-107473501D02*
X200730099Y-107473501D01*
X200730099Y-107473501D02*
X203674999Y-104528601D01*
X220827600Y-79219100D02*
X221086400Y-78960300D01*
X220827600Y-80619600D02*
X220827600Y-79219100D01*
D40*
X224461700Y-59338300D02*
X224872000Y-58928000D01*
X223107400Y-59338300D02*
X224461700Y-59338300D01*
D38*
X205486000Y-54214100D02*
X205450100Y-54178200D01*
D39*
X205450100Y-54178200D02*
X205450100Y-55336100D01*
X205450100Y-55336100D02*
X205486000Y-55372000D01*
G04 #@! TA.AperFunction,Conductor*
G36*
X235552139Y-58947685D02*
G01*
X235597894Y-59000489D01*
X235603413Y-59014878D01*
X235609182Y-59033266D01*
X235623244Y-59058602D01*
X235629975Y-59072775D01*
X235640720Y-59099673D01*
X235671849Y-59146906D01*
X235676726Y-59154955D01*
X235704181Y-59204421D01*
X235723047Y-59226397D01*
X235732497Y-59238931D01*
X235748440Y-59263122D01*
X235788436Y-59303117D01*
X235794843Y-59310030D01*
X235831689Y-59352952D01*
X235854598Y-59370684D01*
X235866379Y-59381060D01*
X236714181Y-60228862D01*
X236747666Y-60290185D01*
X236750500Y-60316542D01*
X236750500Y-60493361D01*
X236750501Y-60493372D01*
X236750501Y-60496264D01*
X236750770Y-60499139D01*
X236750771Y-60499149D01*
X236753354Y-60526695D01*
X236753354Y-60526698D01*
X236798207Y-60654882D01*
X236832450Y-60701280D01*
X236878849Y-60764150D01*
X236925248Y-60798393D01*
X236988118Y-60844793D01*
X237116302Y-60889646D01*
X237146735Y-60892500D01*
X238180264Y-60892499D01*
X238210698Y-60889646D01*
X238338882Y-60844793D01*
X238448150Y-60764150D01*
X238528793Y-60654882D01*
X238573646Y-60526698D01*
X238576500Y-60496265D01*
X238576499Y-60154724D01*
X238579709Y-60126694D01*
X238596649Y-60053698D01*
X238623212Y-59939228D01*
X238628170Y-59743537D01*
X238615167Y-59670984D01*
X238593637Y-59550856D01*
X238585346Y-59530101D01*
X238576499Y-59484102D01*
X238576499Y-59140638D01*
X238576499Y-59140637D01*
X238576499Y-59137736D01*
X238573646Y-59107302D01*
X238568625Y-59092955D01*
X238565063Y-59023177D01*
X238599792Y-58962549D01*
X238661785Y-58930322D01*
X238685667Y-58928000D01*
X239616333Y-58928000D01*
X239683372Y-58947685D01*
X239729127Y-59000489D01*
X239739071Y-59069647D01*
X239733374Y-59092955D01*
X239728353Y-59107301D01*
X239725770Y-59134849D01*
X239725770Y-59134851D01*
X239725500Y-59137735D01*
X239725500Y-59140626D01*
X239725500Y-59140627D01*
X239725500Y-60493361D01*
X239725501Y-60493372D01*
X239725501Y-60496264D01*
X239725770Y-60499140D01*
X239725771Y-60499148D01*
X239728354Y-60526695D01*
X239728354Y-60526698D01*
X239773207Y-60654882D01*
X239807450Y-60701280D01*
X239853849Y-60764150D01*
X239900248Y-60798393D01*
X239963118Y-60844793D01*
X240091302Y-60889646D01*
X240121735Y-60892500D01*
X240213500Y-60892499D01*
X240280538Y-60912183D01*
X240326294Y-60964986D01*
X240337500Y-61016499D01*
X240337499Y-61343134D01*
X240317814Y-61410174D01*
X240313271Y-61416765D01*
X240270207Y-61475116D01*
X240225353Y-61603303D01*
X240222770Y-61630848D01*
X240222769Y-61630861D01*
X240222500Y-61633734D01*
X240222500Y-62692266D01*
X240222769Y-62695139D01*
X240222770Y-62695151D01*
X240225353Y-62722696D01*
X240270207Y-62850884D01*
X240350848Y-62960149D01*
X240378632Y-62980654D01*
X240420884Y-63036301D01*
X240429000Y-63080425D01*
X240429000Y-64657500D01*
X240409315Y-64724539D01*
X240356511Y-64770294D01*
X240305000Y-64781500D01*
X239703734Y-64781500D01*
X239700861Y-64781769D01*
X239700848Y-64781770D01*
X239673303Y-64784353D01*
X239545115Y-64829207D01*
X239435849Y-64909849D01*
X239355207Y-65019115D01*
X239310353Y-65147303D01*
X239307770Y-65174848D01*
X239307769Y-65174861D01*
X239307500Y-65177734D01*
X239307500Y-67336266D01*
X239307769Y-67339139D01*
X239307770Y-67339151D01*
X239310353Y-67366696D01*
X239355207Y-67494884D01*
X239435847Y-67604148D01*
X239435850Y-67604150D01*
X239525133Y-67670043D01*
X239567383Y-67725689D01*
X239575499Y-67769813D01*
X239575499Y-69251167D01*
X239555814Y-69318206D01*
X239539180Y-69338848D01*
X239318348Y-69559681D01*
X239257025Y-69593166D01*
X239230667Y-69596000D01*
X233296000Y-69596000D01*
X233228961Y-69576315D01*
X233183206Y-69523511D01*
X233172000Y-69472000D01*
X233172000Y-59052000D01*
X233191685Y-58984961D01*
X233244489Y-58939206D01*
X233296000Y-58928000D01*
X235485100Y-58928000D01*
X235552139Y-58947685D01*
G37*
G04 #@! TD.AperFunction*
G04 #@! TA.AperFunction,Conductor*
G36*
X246323039Y-58947685D02*
G01*
X246368794Y-59000489D01*
X246380000Y-59052000D01*
X246380000Y-69472000D01*
X246360315Y-69539039D01*
X246307511Y-69584794D01*
X246256000Y-69596000D01*
X241116500Y-69596000D01*
X241049461Y-69576315D01*
X241003706Y-69523511D01*
X240992500Y-69472000D01*
X240992500Y-67856500D01*
X241012185Y-67789461D01*
X241064989Y-67743706D01*
X241116500Y-67732500D01*
X241559373Y-67732500D01*
X241562266Y-67732500D01*
X241592699Y-67729646D01*
X241720882Y-67684793D01*
X241720882Y-67684792D01*
X241720884Y-67684792D01*
X241830150Y-67604150D01*
X241910792Y-67494884D01*
X241910793Y-67494882D01*
X241955646Y-67366699D01*
X241958500Y-67336267D01*
X241958424Y-67337339D01*
X241981089Y-67271664D01*
X242035971Y-67228424D01*
X242082161Y-67219500D01*
X242191092Y-67219500D01*
X242194233Y-67219540D01*
X242278301Y-67221670D01*
X242278301Y-67221669D01*
X242278304Y-67221670D01*
X242333984Y-67211690D01*
X242343299Y-67210383D01*
X242399590Y-67204660D01*
X242427244Y-67195982D01*
X242442471Y-67192246D01*
X242470987Y-67187136D01*
X242523527Y-67166147D01*
X242532377Y-67162997D01*
X242586366Y-67146059D01*
X242611697Y-67131998D01*
X242625864Y-67125268D01*
X242652773Y-67114521D01*
X242699993Y-67083399D01*
X242708056Y-67078514D01*
X242757519Y-67051061D01*
X242757520Y-67051060D01*
X242757522Y-67051059D01*
X242779507Y-67032184D01*
X242792028Y-67022743D01*
X242816222Y-67006800D01*
X242856228Y-66966792D01*
X242863130Y-66960397D01*
X242906052Y-66923551D01*
X242923787Y-66900638D01*
X242934153Y-66888867D01*
X243273202Y-66549819D01*
X243334526Y-66516334D01*
X243360884Y-66513500D01*
X244149229Y-66513500D01*
X244209264Y-66531128D01*
X244209638Y-66530379D01*
X244213843Y-66532473D01*
X244216268Y-66533185D01*
X244218752Y-66534917D01*
X244411205Y-66630748D01*
X244616726Y-66689224D01*
X244653937Y-66692671D01*
X244776189Y-66704000D01*
X244779061Y-66704000D01*
X244974939Y-66704000D01*
X244977811Y-66704000D01*
X245112465Y-66691522D01*
X245137273Y-66689224D01*
X245342794Y-66630748D01*
X245344361Y-66629967D01*
X245534077Y-66535500D01*
X245704599Y-66406728D01*
X245848556Y-66248815D01*
X245961045Y-66067138D01*
X246038236Y-65867885D01*
X246077500Y-65657841D01*
X246077500Y-65444159D01*
X246038236Y-65234115D01*
X245961045Y-65034862D01*
X245951295Y-65019115D01*
X245848556Y-64853184D01*
X245704600Y-64695272D01*
X245534076Y-64566499D01*
X245342794Y-64471251D01*
X245137273Y-64412775D01*
X244980671Y-64398265D01*
X244980670Y-64398264D01*
X244977811Y-64398000D01*
X244776189Y-64398000D01*
X244773330Y-64398264D01*
X244773328Y-64398265D01*
X244616726Y-64412775D01*
X244411205Y-64471251D01*
X244209638Y-64571621D01*
X244208482Y-64569300D01*
X244158590Y-64588146D01*
X244149229Y-64588500D01*
X242924613Y-64588500D01*
X242921472Y-64588460D01*
X242920377Y-64588432D01*
X242837378Y-64586328D01*
X242781703Y-64596307D01*
X242772374Y-64597616D01*
X242716090Y-64603340D01*
X242688454Y-64612011D01*
X242673215Y-64615751D01*
X242644694Y-64620863D01*
X242592170Y-64641844D01*
X242583296Y-64645004D01*
X242529316Y-64661941D01*
X242529314Y-64661941D01*
X242529314Y-64661942D01*
X242503978Y-64676004D01*
X242489804Y-64682735D01*
X242462908Y-64693479D01*
X242415685Y-64724601D01*
X242407629Y-64729482D01*
X242358157Y-64756941D01*
X242336177Y-64775810D01*
X242323650Y-64785256D01*
X242299458Y-64801200D01*
X242259460Y-64841198D01*
X242252552Y-64847601D01*
X242209627Y-64884451D01*
X242191892Y-64907362D01*
X242181520Y-64919138D01*
X242085186Y-65015472D01*
X242023863Y-65048957D01*
X241954171Y-65043973D01*
X241898238Y-65002101D01*
X241897734Y-65001424D01*
X241830148Y-64909847D01*
X241720882Y-64829206D01*
X241675045Y-64813167D01*
X241618269Y-64772446D01*
X241592522Y-64707493D01*
X241592000Y-64696126D01*
X241592000Y-63080425D01*
X241611685Y-63013386D01*
X241642368Y-62980654D01*
X241670151Y-62960149D01*
X241750792Y-62850884D01*
X241750793Y-62850882D01*
X241795646Y-62722699D01*
X241798500Y-62692266D01*
X241798500Y-61633734D01*
X241795646Y-61603301D01*
X241761457Y-61505596D01*
X241754500Y-61464643D01*
X241754500Y-61443248D01*
X243676500Y-61443248D01*
X243688132Y-61501730D01*
X243732447Y-61568052D01*
X243798769Y-61612367D01*
X243857251Y-61624000D01*
X243857252Y-61624000D01*
X245896749Y-61624000D01*
X245925989Y-61618183D01*
X245955231Y-61612367D01*
X246021552Y-61568052D01*
X246065867Y-61501731D01*
X246077500Y-61443248D01*
X246077500Y-59498752D01*
X246065867Y-59440269D01*
X246021552Y-59373947D01*
X245955230Y-59329632D01*
X245896749Y-59318000D01*
X245896748Y-59318000D01*
X243857252Y-59318000D01*
X243857251Y-59318000D01*
X243798769Y-59329632D01*
X243732447Y-59373947D01*
X243688132Y-59440269D01*
X243676500Y-59498751D01*
X243676500Y-61443248D01*
X241754500Y-61443248D01*
X241754500Y-60889645D01*
X241754500Y-60249627D01*
X241754723Y-60242210D01*
X241758402Y-60181407D01*
X241747423Y-60121500D01*
X241746303Y-60114138D01*
X241738965Y-60053699D01*
X241735286Y-60044000D01*
X241729260Y-60022381D01*
X241727389Y-60012171D01*
X241702403Y-59956655D01*
X241699536Y-59949733D01*
X241695552Y-59939227D01*
X241677954Y-59892825D01*
X241672057Y-59884281D01*
X241661034Y-59864736D01*
X241656775Y-59855274D01*
X241619233Y-59807356D01*
X241614793Y-59801321D01*
X241573449Y-59741423D01*
X241551566Y-59675069D01*
X241551499Y-59670984D01*
X241551499Y-59140638D01*
X241551499Y-59137736D01*
X241548646Y-59107302D01*
X241543625Y-59092955D01*
X241540063Y-59023177D01*
X241574792Y-58962549D01*
X241636785Y-58930322D01*
X241660667Y-58928000D01*
X246256000Y-58928000D01*
X246323039Y-58947685D01*
G37*
G04 #@! TD.AperFunction*
G04 #@! TA.AperFunction,Conductor*
G36*
X206191039Y-98952685D02*
G01*
X206236794Y-99005489D01*
X206248000Y-99057000D01*
X206248000Y-100228538D01*
X206228315Y-100295577D01*
X206211681Y-100316219D01*
X206055719Y-100472181D01*
X205994396Y-100505666D01*
X205968038Y-100508500D01*
X205357395Y-100508500D01*
X205354522Y-100508769D01*
X205354509Y-100508770D01*
X205326964Y-100511353D01*
X205198776Y-100556207D01*
X205089510Y-100636849D01*
X205008868Y-100746115D01*
X204964014Y-100874303D01*
X204961431Y-100901848D01*
X204961430Y-100901861D01*
X204961161Y-100904734D01*
X204961161Y-101913266D01*
X204961430Y-101916139D01*
X204961431Y-101916151D01*
X204964014Y-101943697D01*
X205008225Y-102070046D01*
X205011786Y-102139825D01*
X204977057Y-102200452D01*
X204915063Y-102232679D01*
X204891183Y-102235000D01*
X203197000Y-102235000D01*
X203129961Y-102215315D01*
X203084206Y-102162511D01*
X203073000Y-102111000D01*
X203073000Y-99057000D01*
X203092685Y-98989961D01*
X203145489Y-98944206D01*
X203197000Y-98933000D01*
X206124000Y-98933000D01*
X206191039Y-98952685D01*
G37*
G04 #@! TD.AperFunction*
G04 #@! TA.AperFunction,Conductor*
G36*
X235147039Y-93491685D02*
G01*
X235192794Y-93544489D01*
X235204000Y-93596000D01*
X235204000Y-96904000D01*
X235184315Y-96971039D01*
X235131511Y-97016794D01*
X235080000Y-97028000D01*
X231264000Y-97028000D01*
X231196961Y-97008315D01*
X231151206Y-96955511D01*
X231140000Y-96904000D01*
X231140000Y-93596000D01*
X231159685Y-93528961D01*
X231212489Y-93483206D01*
X231264000Y-93472000D01*
X235080000Y-93472000D01*
X235147039Y-93491685D01*
G37*
G04 #@! TD.AperFunction*
G04 #@! TA.AperFunction,Conductor*
G36*
X220923039Y-91586685D02*
G01*
X220968794Y-91639489D01*
X220980000Y-91691000D01*
X220980000Y-94786495D01*
X220960315Y-94853534D01*
X220907511Y-94899289D01*
X220844426Y-94909954D01*
X220821127Y-94907769D01*
X220821122Y-94907768D01*
X220818256Y-94907500D01*
X220112744Y-94907500D01*
X220109873Y-94907769D01*
X220109856Y-94907770D01*
X220083154Y-94910274D01*
X219958521Y-94953885D01*
X219852288Y-95032288D01*
X219773885Y-95138521D01*
X219730274Y-95263154D01*
X219727770Y-95289856D01*
X219727769Y-95289873D01*
X219727500Y-95292744D01*
X219727500Y-95295638D01*
X219727500Y-95626877D01*
X219707815Y-95693916D01*
X219691181Y-95714558D01*
X219303058Y-96102681D01*
X219241735Y-96136166D01*
X219215377Y-96139000D01*
X218056000Y-96139000D01*
X217988961Y-96119315D01*
X217943206Y-96066511D01*
X217932000Y-96015000D01*
X217932000Y-91691000D01*
X217951685Y-91623961D01*
X218004489Y-91578206D01*
X218056000Y-91567000D01*
X220856000Y-91567000D01*
X220923039Y-91586685D01*
G37*
G04 #@! TD.AperFunction*
M02*
