M48
; DRILL file {KiCad 7.0.2} date Fri Nov  3 22:13:07 2023
; FORMAT={-:-/ absolute / metric / decimal}
; #@! TF.CreationDate,2023-11-03T22:13:07+01:00
; #@! TF.GenerationSoftware,Kicad,Pcbnew,7.0.2
; #@! TF.FileFunction,Plated,1,4,PTH
FMAT,2
METRIC
; #@! TA.AperFunction,Plated,PTH,ViaDrill
T1C0.400
; #@! TA.AperFunction,Plated,PTH,ComponentDrill
T2C0.750
; #@! TA.AperFunction,Plated,PTH,ComponentDrill
T3C0.800
; #@! TA.AperFunction,Plated,PTH,ComponentDrill
T4C1.000
; #@! TA.AperFunction,Plated,PTH,ComponentDrill
T5C1.100
; #@! TA.AperFunction,Plated,PTH,ComponentDrill
T6C3.200
%
G90
G05
T1
X183.896Y-97.028
X184.12Y-90.74
X184.531Y-87.63
X184.658Y-99.822
X184.658Y-101.346
X184.658Y-102.87
X184.658Y-104.394
X184.658Y-105.918
X184.676Y-107.5
X186.2Y-107.5
X187.7Y-107.5
X187.96Y-94.234
X187.96Y-95.813
X187.96Y-97.79
X187.96Y-99.06
X187.96Y-100.584
X188.12Y-90.74
X188.4Y-106.2
X188.824Y-87.376
X188.976Y-89.408
X189.23Y-107.442
X189.23Y-108.712
X189.738Y-106.172
X189.992Y-102.616
X190.12Y-90.74
X190.754Y-107.442
X190.754Y-108.712
X191.008Y-87.376
X191.516Y-58.928
X191.516Y-109.474
X191.516Y-110.998
X191.516Y-112.268
X191.516Y-113.792
X191.516Y-115.316
X191.77Y-75.184
X192.024Y-79.756
X192.12Y-90.74
X192.481Y-70.358
X192.532Y-67.818
X192.532Y-94.996
X192.532Y-96.52
X192.532Y-98.044
X192.532Y-99.568
X192.532Y-108.966
X192.786Y-65.532
X193.954Y-53.34
X194.056Y-94.996
X194.056Y-96.52
X194.056Y-98.044
X194.056Y-108.966
X194.12Y-90.74
X194.564Y-64.008
X194.789Y-65.815
X195.072Y-81.28
X195.58Y-56.896
X195.58Y-70.803
X195.58Y-87.376
X195.58Y-108.966
X195.834Y-55.372
X196.088Y-59.182
X196.088Y-64.516
X196.088Y-94.996
X196.12Y-90.74
X196.438Y-111.961
X196.596Y-101.092
X196.85Y-56.388
X197.104Y-58.42
X197.104Y-102.87
X197.104Y-104.394
X197.104Y-105.918
X197.104Y-107.442
X197.104Y-108.966
X197.358Y-87.376
X197.612Y-55.118
X198.12Y-64.516
X198.12Y-90.74
X198.374Y-58.928
X198.374Y-109.22
X198.7Y-73.9
X199.121Y-71.135
X199.136Y-72.136
X199.136Y-97.79
X199.136Y-99.314
X199.644Y-60.96
X199.644Y-64.008
X199.644Y-81.28
X199.746Y-65.634
X199.746Y-66.548
X199.885Y-72.911
X199.898Y-104.648
X199.898Y-112.268
X200.12Y-90.74
X200.406Y-99.822
X200.66Y-96.52
X200.66Y-98.044
X201.93Y-84.582
X201.93Y-95.25
X201.93Y-96.774
X201.93Y-111.252
X202.058Y-56.26
X202.12Y-90.74
X202.54Y-86.106
X202.54Y-87.63
X202.946Y-50.8
X203.195Y-73.157
X203.2Y-65.024
X203.2Y-71.12
X203.2Y-77.216
X203.2Y-78.232
X203.708Y-51.562
X203.708Y-55.564
X203.708Y-74.676
X203.708Y-84.074
X203.994Y-80.01
X204.12Y-90.74
X204.724Y-60.706
X204.724Y-61.976
X204.724Y-66.802
X204.724Y-68.58
X204.724Y-86.106
X204.724Y-87.63
X204.724Y-100.457
X204.724Y-107.95
X204.739Y-51.878
X205.486Y-55.372
X205.994Y-80.01
X206.12Y-90.74
X206.248Y-86.551
X206.248Y-106.934
X206.248Y-110.236
X206.361Y-58.42
X206.502Y-76.708
X206.756Y-84.074
X206.756Y-88.138
X207.01Y-51.054
X207.01Y-111.252
X207.12Y-60.74
X207.12Y-62.74
X207.12Y-64.74
X207.12Y-66.74
X207.315Y-68.58
X207.772Y-84.328
X207.772Y-94.996
X207.772Y-96.266
X207.772Y-97.536
X207.804Y-80.01
X208.026Y-76.708
X208.12Y-87.74
X208.12Y-90.74
X208.471Y-54.852
X208.687Y-74.575
X208.788Y-84.582
X209.12Y-60.74
X209.12Y-62.74
X209.12Y-64.74
X209.12Y-66.74
X209.12Y-68.74
X209.12Y-70.74
X209.12Y-72.74
X209.296Y-87.884
X209.55Y-108.966
X209.804Y-80.01
X209.804Y-112.014
X209.908Y-107.95
X210.006Y-84.53
X210.1Y-97.5
X210.11Y-102.31
X210.172Y-95.909
X210.312Y-88.138
X211.074Y-108.966
X211.12Y-60.74
X211.12Y-62.74
X211.12Y-64.74
X211.12Y-66.74
X211.12Y-68.74
X211.12Y-70.74
X211.12Y-72.74
X211.12Y-74.74
X211.582Y-110.49
X211.601Y-104.413
X211.836Y-54.864
X211.9Y-100.2
X211.918Y-80.518
X212.09Y-107.696
X212.344Y-88.138
X212.598Y-109.22
X212.852Y-110.744
X213.06Y-102.915
X213.12Y-60.74
X213.12Y-62.74
X213.12Y-64.74
X213.12Y-66.74
X213.12Y-68.74
X213.12Y-70.74
X213.12Y-72.74
X213.12Y-74.74
X213.12Y-90.74
X213.3Y-98.3
X213.4Y-93.8
X213.665Y-84.644
X213.677Y-80.518
X213.763Y-86.656
X213.868Y-55.372
X213.868Y-58.42
X213.868Y-108.204
X214.4Y-96.6
X214.884Y-74.93
X215.12Y-90.74
X215.571Y-58.42
X215.9Y-85.344
X215.9Y-108.204
X216.12Y-60.74
X216.12Y-62.74
X216.12Y-64.74
X216.12Y-66.74
X216.12Y-68.74
X216.12Y-70.74
X216.12Y-72.74
X216.408Y-55.372
X216.916Y-84.074
X217.12Y-90.74
X217.17Y-94.234
X217.202Y-58.928
X217.424Y-77.47
X217.5Y-98.0
X217.576Y-86.716
X217.678Y-53.34
X217.678Y-80.772
X217.9Y-83.7
X218.12Y-60.74
X218.12Y-62.74
X218.12Y-64.74
X218.12Y-66.74
X218.12Y-68.74
X218.12Y-70.74
X218.44Y-80.01
X218.694Y-78.232
X218.948Y-84.136
X218.948Y-94.234
X218.948Y-108.204
X219.12Y-90.74
X219.189Y-85.585
X219.202Y-58.928
X219.202Y-61.468
X219.456Y-62.484
X219.456Y-79.248
X219.456Y-80.772
X219.7Y-103.6
X219.71Y-75.438
X219.71Y-77.216
X219.938Y-86.36
X219.964Y-60.452
X220.218Y-54.864
X220.345Y-94.234
X220.828Y-80.62
X220.98Y-59.436
X221.12Y-90.74
X221.488Y-54.864
X221.488Y-74.422
X221.491Y-101.403
X221.52Y-70.612
X221.52Y-72.39
X221.6Y-97.7
X221.742Y-84.074
X221.996Y-62.992
X221.996Y-64.262
X222.453Y-86.309
X222.474Y-88.285
X222.769Y-99.884
X222.961Y-77.622
X223.012Y-98.806
X223.012Y-101.346
X223.044Y-79.248
X223.266Y-62.992
X223.52Y-70.612
X223.52Y-72.39
X224.028Y-53.34
X224.333Y-101.092
X224.698Y-95.919
X224.79Y-75.184
X224.841Y-60.757
X224.872Y-58.928
X225.044Y-64.262
X225.044Y-65.532
X225.044Y-66.548
X225.044Y-68.58
X225.044Y-70.612
X225.044Y-72.346
X225.044Y-73.66
X225.044Y-77.724
X225.044Y-79.248
X225.171Y-97.645
X225.2Y-100.3
X226.06Y-95.25
X226.187Y-96.774
X226.6Y-98.4
X226.8Y-112.36
X226.822Y-56.896
X227.076Y-87.884
X228.092Y-57.404
X228.12Y-90.74
X228.4Y-106.4
X228.5Y-54.7
X228.6Y-77.597
X229.172Y-88.9
X229.209Y-100.177
X230.12Y-90.74
X230.188Y-83.312
X230.188Y-85.09
X230.188Y-87.122
X231.137Y-70.612
X231.14Y-75.692
X231.172Y-88.9
X231.648Y-114.808
X232.12Y-90.74
X232.188Y-83.312
X232.188Y-85.09
X232.188Y-87.122
X233.121Y-94.183
X233.121Y-95.199
X233.172Y-88.9
X233.172Y-100.33
X233.172Y-102.108
X233.68Y-69.088
X233.68Y-108.204
X233.934Y-83.312
X233.934Y-85.09
X233.934Y-87.122
X234.12Y-90.74
X234.188Y-60.452
X234.188Y-61.976
X234.188Y-64.008
X234.188Y-73.152
X234.645Y-94.183
X234.645Y-95.199
X234.696Y-105.156
X234.696Y-106.426
X234.76Y-88.9
X234.95Y-99.822
X235.204Y-69.088
X235.712Y-83.312
X235.966Y-106.426
X236.12Y-90.74
X236.22Y-60.452
X236.22Y-61.976
X236.22Y-63.5
X236.22Y-65.024
X236.22Y-66.548
X236.22Y-68.072
X236.474Y-99.822
X236.728Y-69.088
X236.76Y-88.9
X237.744Y-61.976
X237.744Y-63.5
X237.744Y-65.024
X237.744Y-66.548
X237.744Y-68.072
X238.12Y-90.74
X238.252Y-69.088
X238.252Y-99.822
X238.252Y-106.68
X238.76Y-88.9
X239.268Y-63.5
X239.268Y-100.838
X239.755Y-106.659
X240.12Y-90.74
X240.284Y-76.2
X240.284Y-77.724
X240.284Y-78.846
X240.284Y-80.264
X240.284Y-81.788
X240.284Y-83.566
X240.284Y-85.344
X240.284Y-86.868
X240.284Y-95.504
X240.437Y-89.057
X240.538Y-111.252
X241.808Y-109.982
X242.12Y-90.74
X242.284Y-83.566
X242.284Y-85.344
X242.284Y-86.868
X242.316Y-76.2
X242.316Y-77.724
X242.316Y-78.846
X242.316Y-80.264
X242.316Y-81.788
X242.824Y-59.944
X242.824Y-61.976
X242.824Y-63.5
X242.824Y-67.564
X242.824Y-69.088
X243.84Y-106.172
X244.03Y-83.566
X244.03Y-85.344
X244.03Y-86.868
X244.348Y-67.564
X244.348Y-69.088
X244.348Y-76.2
X244.348Y-81.788
X245.618Y-83.566
X245.618Y-85.344
X245.618Y-86.868
X245.872Y-67.564
X245.872Y-69.088
X246.12Y-90.74
X246.38Y-94.996
X248.12Y-90.74
T2
X245.325Y-99.275
X245.325Y-100.545
X245.325Y-101.815
T3
X186.714Y-102.437
X186.714Y-104.937
X192.583Y-106.402
X195.083Y-106.402
X234.498Y-54.733
X235.006Y-101.881
X235.522Y-86.229
X236.498Y-54.733
X237.006Y-101.881
X237.773Y-113.562
X237.843Y-73.636
X238.022Y-86.229
X239.773Y-113.562
X240.343Y-73.636
T4
X186.229Y-57.675
X186.229Y-60.215
X186.229Y-62.755
X186.229Y-65.295
X186.229Y-67.835
X186.229Y-70.375
X186.229Y-72.915
X186.229Y-75.455
X186.229Y-79.483
X186.229Y-82.023
X186.229Y-84.563
X192.739Y-48.975
X195.279Y-48.975
X197.819Y-48.975
X200.359Y-48.975
X202.899Y-48.975
X205.439Y-48.975
X207.979Y-48.975
X210.519Y-48.975
X213.059Y-48.975
X214.533Y-114.601
X215.599Y-48.975
X217.073Y-114.601
X219.613Y-114.601
X220.013Y-48.975
X222.553Y-48.975
X225.093Y-48.975
X227.633Y-48.975
X232.457Y-49.069
X237.187Y-49.127
X239.727Y-49.127
T5
X244.877Y-60.471
X244.877Y-63.011
X244.877Y-65.551
T6
X187.599Y-49.887
X187.599Y-112.333
X245.099Y-49.833
X245.099Y-112.333
T0
M30
