G04 #@! TF.GenerationSoftware,KiCad,Pcbnew,7.0.2*
G04 #@! TF.CreationDate,2023-11-03T22:13:05+01:00*
G04 #@! TF.ProjectId,stm_audio_board_V2,73746d5f-6175-4646-996f-5f626f617264,rev?*
G04 #@! TF.SameCoordinates,Original*
G04 #@! TF.FileFunction,Copper,L1,Top*
G04 #@! TF.FilePolarity,Positive*
%FSLAX46Y46*%
G04 Gerber Fmt 4.6, Leading zero omitted, Abs format (unit mm)*
G04 Created by KiCad (PCBNEW 7.0.2) date 2023-11-03 22:13:05*
%MOMM*%
%LPD*%
G01*
G04 APERTURE LIST*
G04 Aperture macros list*
%AMRoundRect*
0 Rectangle with rounded corners*
0 $1 Rounding radius*
0 $2 $3 $4 $5 $6 $7 $8 $9 X,Y pos of 4 corners*
0 Add a 4 corners polygon primitive as box body*
4,1,4,$2,$3,$4,$5,$6,$7,$8,$9,$2,$3,0*
0 Add four circle primitives for the rounded corners*
1,1,$1+$1,$2,$3*
1,1,$1+$1,$4,$5*
1,1,$1+$1,$6,$7*
1,1,$1+$1,$8,$9*
0 Add four rect primitives between the rounded corners*
20,1,$1+$1,$2,$3,$4,$5,0*
20,1,$1+$1,$4,$5,$6,$7,0*
20,1,$1+$1,$6,$7,$8,$9,0*
20,1,$1+$1,$8,$9,$2,$3,0*%
G04 Aperture macros list end*
G04 #@! TA.AperFunction,SMDPad,CuDef*
%ADD10RoundRect,0.237500X-0.237500X0.250000X-0.237500X-0.250000X0.237500X-0.250000X0.237500X0.250000X0*%
G04 #@! TD*
G04 #@! TA.AperFunction,SMDPad,CuDef*
%ADD11RoundRect,0.237500X0.250000X0.237500X-0.250000X0.237500X-0.250000X-0.237500X0.250000X-0.237500X0*%
G04 #@! TD*
G04 #@! TA.AperFunction,SMDPad,CuDef*
%ADD12RoundRect,0.237500X-0.237500X0.287500X-0.237500X-0.287500X0.237500X-0.287500X0.237500X0.287500X0*%
G04 #@! TD*
G04 #@! TA.AperFunction,SMDPad,CuDef*
%ADD13R,1.725000X2.100000*%
G04 #@! TD*
G04 #@! TA.AperFunction,SMDPad,CuDef*
%ADD14RoundRect,0.237500X0.300000X0.237500X-0.300000X0.237500X-0.300000X-0.237500X0.300000X-0.237500X0*%
G04 #@! TD*
G04 #@! TA.AperFunction,SMDPad,CuDef*
%ADD15RoundRect,0.250000X-0.350000X-0.450000X0.350000X-0.450000X0.350000X0.450000X-0.350000X0.450000X0*%
G04 #@! TD*
G04 #@! TA.AperFunction,SMDPad,CuDef*
%ADD16RoundRect,0.237500X0.237500X-0.300000X0.237500X0.300000X-0.237500X0.300000X-0.237500X-0.300000X0*%
G04 #@! TD*
G04 #@! TA.AperFunction,SMDPad,CuDef*
%ADD17RoundRect,0.237500X-0.237500X0.300000X-0.237500X-0.300000X0.237500X-0.300000X0.237500X0.300000X0*%
G04 #@! TD*
G04 #@! TA.AperFunction,ComponentPad*
%ADD18C,5.600000*%
G04 #@! TD*
G04 #@! TA.AperFunction,ComponentPad*
%ADD19R,2.000000X1.905000*%
G04 #@! TD*
G04 #@! TA.AperFunction,ComponentPad*
%ADD20O,2.000000X1.905000*%
G04 #@! TD*
G04 #@! TA.AperFunction,SMDPad,CuDef*
%ADD21RoundRect,0.250000X0.337500X0.475000X-0.337500X0.475000X-0.337500X-0.475000X0.337500X-0.475000X0*%
G04 #@! TD*
G04 #@! TA.AperFunction,ComponentPad*
%ADD22R,1.500000X1.050000*%
G04 #@! TD*
G04 #@! TA.AperFunction,ComponentPad*
%ADD23O,1.500000X1.050000*%
G04 #@! TD*
G04 #@! TA.AperFunction,SMDPad,CuDef*
%ADD24RoundRect,0.150000X0.625000X0.150000X-0.625000X0.150000X-0.625000X-0.150000X0.625000X-0.150000X0*%
G04 #@! TD*
G04 #@! TA.AperFunction,SMDPad,CuDef*
%ADD25RoundRect,0.150000X-0.150000X0.625000X-0.150000X-0.625000X0.150000X-0.625000X0.150000X0.625000X0*%
G04 #@! TD*
G04 #@! TA.AperFunction,SMDPad,CuDef*
%ADD26RoundRect,0.250001X-0.624999X0.462499X-0.624999X-0.462499X0.624999X-0.462499X0.624999X0.462499X0*%
G04 #@! TD*
G04 #@! TA.AperFunction,SMDPad,CuDef*
%ADD27RoundRect,0.237500X-0.300000X-0.237500X0.300000X-0.237500X0.300000X0.237500X-0.300000X0.237500X0*%
G04 #@! TD*
G04 #@! TA.AperFunction,ComponentPad*
%ADD28R,1.700000X1.700000*%
G04 #@! TD*
G04 #@! TA.AperFunction,SMDPad,CuDef*
%ADD29RoundRect,0.075000X-0.675000X-0.075000X0.675000X-0.075000X0.675000X0.075000X-0.675000X0.075000X0*%
G04 #@! TD*
G04 #@! TA.AperFunction,SMDPad,CuDef*
%ADD30RoundRect,0.075000X-0.075000X-0.675000X0.075000X-0.675000X0.075000X0.675000X-0.075000X0.675000X0*%
G04 #@! TD*
G04 #@! TA.AperFunction,ComponentPad*
%ADD31O,1.700000X1.700000*%
G04 #@! TD*
G04 #@! TA.AperFunction,SMDPad,CuDef*
%ADD32R,1.600000X1.400000*%
G04 #@! TD*
G04 #@! TA.AperFunction,SMDPad,CuDef*
%ADD33RoundRect,0.250000X0.450000X-0.350000X0.450000X0.350000X-0.450000X0.350000X-0.450000X-0.350000X0*%
G04 #@! TD*
G04 #@! TA.AperFunction,SMDPad,CuDef*
%ADD34RoundRect,0.250000X-0.450000X0.350000X-0.450000X-0.350000X0.450000X-0.350000X0.450000X0.350000X0*%
G04 #@! TD*
G04 #@! TA.AperFunction,SMDPad,CuDef*
%ADD35RoundRect,0.250000X0.350000X0.450000X-0.350000X0.450000X-0.350000X-0.450000X0.350000X-0.450000X0*%
G04 #@! TD*
G04 #@! TA.AperFunction,SMDPad,CuDef*
%ADD36R,1.000000X0.600000*%
G04 #@! TD*
G04 #@! TA.AperFunction,SMDPad,CuDef*
%ADD37RoundRect,0.150000X-0.150000X0.825000X-0.150000X-0.825000X0.150000X-0.825000X0.150000X0.825000X0*%
G04 #@! TD*
G04 #@! TA.AperFunction,SMDPad,CuDef*
%ADD38RoundRect,0.075000X0.700000X0.075000X-0.700000X0.075000X-0.700000X-0.075000X0.700000X-0.075000X0*%
G04 #@! TD*
G04 #@! TA.AperFunction,SMDPad,CuDef*
%ADD39RoundRect,0.075000X0.075000X0.700000X-0.075000X0.700000X-0.075000X-0.700000X0.075000X-0.700000X0*%
G04 #@! TD*
G04 #@! TA.AperFunction,SMDPad,CuDef*
%ADD40RoundRect,0.250000X0.475000X-0.337500X0.475000X0.337500X-0.475000X0.337500X-0.475000X-0.337500X0*%
G04 #@! TD*
G04 #@! TA.AperFunction,SMDPad,CuDef*
%ADD41R,2.000000X1.500000*%
G04 #@! TD*
G04 #@! TA.AperFunction,SMDPad,CuDef*
%ADD42R,2.000000X3.800000*%
G04 #@! TD*
G04 #@! TA.AperFunction,SMDPad,CuDef*
%ADD43RoundRect,0.250000X-0.475000X0.337500X-0.475000X-0.337500X0.475000X-0.337500X0.475000X0.337500X0*%
G04 #@! TD*
G04 #@! TA.AperFunction,ComponentPad*
%ADD44R,1.600000X1.600000*%
G04 #@! TD*
G04 #@! TA.AperFunction,ComponentPad*
%ADD45C,1.600000*%
G04 #@! TD*
G04 #@! TA.AperFunction,ViaPad*
%ADD46C,0.800000*%
G04 #@! TD*
G04 #@! TA.AperFunction,Conductor*
%ADD47C,0.200000*%
G04 #@! TD*
G04 #@! TA.AperFunction,Conductor*
%ADD48C,0.304800*%
G04 #@! TD*
G04 #@! TA.AperFunction,Conductor*
%ADD49C,0.508000*%
G04 #@! TD*
G04 #@! TA.AperFunction,Conductor*
%ADD50C,0.762000*%
G04 #@! TD*
G04 #@! TA.AperFunction,Conductor*
%ADD51C,0.635000*%
G04 #@! TD*
G04 #@! TA.AperFunction,Conductor*
%ADD52C,1.016000*%
G04 #@! TD*
G04 #@! TA.AperFunction,Conductor*
%ADD53C,1.524000*%
G04 #@! TD*
G04 #@! TA.AperFunction,Conductor*
%ADD54C,0.250000*%
G04 #@! TD*
G04 APERTURE END LIST*
D10*
X229635000Y-57352500D03*
X229635000Y-59177500D03*
D11*
X230547500Y-60745000D03*
X228722500Y-60745000D03*
D12*
X230015000Y-53745000D03*
X230015000Y-55495000D03*
X231305000Y-57445000D03*
X231305000Y-59195000D03*
D10*
X199345000Y-76887500D03*
X199345000Y-75062500D03*
D13*
X193405000Y-72284000D03*
X193405000Y-75184000D03*
X195580000Y-75184000D03*
X195580000Y-72284000D03*
D14*
X203714346Y-101487000D03*
X201989346Y-101487000D03*
X224819500Y-54687000D03*
X223094500Y-54687000D03*
D15*
X205931000Y-103457000D03*
X207931000Y-103457000D03*
D16*
X219953000Y-110885500D03*
X219953000Y-109160500D03*
D17*
X199959568Y-105676500D03*
X199959568Y-107401500D03*
D18*
X245099000Y-112333000D03*
D16*
X197859000Y-62687500D03*
X197859000Y-60962500D03*
D17*
X210495000Y-113462500D03*
X210495000Y-115187500D03*
D19*
X244877000Y-60471000D03*
D20*
X244877000Y-63011000D03*
X244877000Y-65551000D03*
D14*
X230247500Y-108421000D03*
X228522500Y-108421000D03*
D21*
X244058500Y-89057000D03*
X241983500Y-89057000D03*
D14*
X207593500Y-99455000D03*
X205868500Y-99455000D03*
D15*
X232353000Y-110313000D03*
X234353000Y-110313000D03*
D22*
X245325000Y-99275000D03*
D23*
X245325000Y-100545000D03*
X245325000Y-101815000D03*
D16*
X225843000Y-89913500D03*
X225843000Y-88188500D03*
D24*
X207822000Y-109986000D03*
X207822000Y-108716000D03*
X207822000Y-107446000D03*
X207822000Y-106176000D03*
X202472000Y-106176000D03*
X202472000Y-107446000D03*
X202472000Y-108716000D03*
X202472000Y-109986000D03*
D17*
X229355000Y-68074500D03*
X229355000Y-69799500D03*
D25*
X226018000Y-102934000D03*
X224748000Y-102934000D03*
X223478000Y-102934000D03*
X222208000Y-102934000D03*
X222208000Y-108284000D03*
X223478000Y-108284000D03*
X224748000Y-108284000D03*
X226018000Y-108284000D03*
D26*
X234875000Y-76256500D03*
X234875000Y-79231500D03*
D14*
X186259500Y-98365000D03*
X184534500Y-98365000D03*
D27*
X194186500Y-103475000D03*
X195911500Y-103475000D03*
D14*
X203648654Y-99455000D03*
X201923654Y-99455000D03*
D28*
X232457000Y-49069000D03*
D16*
X247555000Y-96629976D03*
X247555000Y-94904976D03*
D29*
X201447000Y-58846000D03*
X201447000Y-59346000D03*
X201447000Y-59846000D03*
X201447000Y-60346000D03*
X201447000Y-60846000D03*
X201447000Y-61346000D03*
X201447000Y-61846000D03*
X201447000Y-62346000D03*
X201447000Y-62846000D03*
X201447000Y-63346000D03*
X201447000Y-63846000D03*
X201447000Y-64346000D03*
X201447000Y-64846000D03*
X201447000Y-65346000D03*
X201447000Y-65846000D03*
X201447000Y-66346000D03*
X201447000Y-66846000D03*
X201447000Y-67346000D03*
X201447000Y-67846000D03*
X201447000Y-68346000D03*
X201447000Y-68846000D03*
X201447000Y-69346000D03*
X201447000Y-69846000D03*
X201447000Y-70346000D03*
X201447000Y-70846000D03*
X201447000Y-71346000D03*
X201447000Y-71846000D03*
X201447000Y-72346000D03*
X201447000Y-72846000D03*
X201447000Y-73346000D03*
X201447000Y-73846000D03*
X201447000Y-74346000D03*
X201447000Y-74846000D03*
X201447000Y-75346000D03*
X201447000Y-75846000D03*
X201447000Y-76346000D03*
X201447000Y-76846000D03*
X201447000Y-77346000D03*
X201447000Y-77846000D03*
X201447000Y-78346000D03*
X201447000Y-78846000D03*
X201447000Y-79346000D03*
X201447000Y-79846000D03*
X201447000Y-80346000D03*
D30*
X203372000Y-82271000D03*
X203872000Y-82271000D03*
X204372000Y-82271000D03*
X204872000Y-82271000D03*
X205372000Y-82271000D03*
X205872000Y-82271000D03*
X206372000Y-82271000D03*
X206872000Y-82271000D03*
X207372000Y-82271000D03*
X207872000Y-82271000D03*
X208372000Y-82271000D03*
X208872000Y-82271000D03*
X209372000Y-82271000D03*
X209872000Y-82271000D03*
X210372000Y-82271000D03*
X210872000Y-82271000D03*
X211372000Y-82271000D03*
X211872000Y-82271000D03*
X212372000Y-82271000D03*
X212872000Y-82271000D03*
X213372000Y-82271000D03*
X213872000Y-82271000D03*
X214372000Y-82271000D03*
X214872000Y-82271000D03*
X215372000Y-82271000D03*
X215872000Y-82271000D03*
X216372000Y-82271000D03*
X216872000Y-82271000D03*
X217372000Y-82271000D03*
X217872000Y-82271000D03*
X218372000Y-82271000D03*
X218872000Y-82271000D03*
X219372000Y-82271000D03*
X219872000Y-82271000D03*
X220372000Y-82271000D03*
X220872000Y-82271000D03*
X221372000Y-82271000D03*
X221872000Y-82271000D03*
X222372000Y-82271000D03*
X222872000Y-82271000D03*
X223372000Y-82271000D03*
X223872000Y-82271000D03*
X224372000Y-82271000D03*
X224872000Y-82271000D03*
D29*
X226797000Y-80346000D03*
X226797000Y-79846000D03*
X226797000Y-79346000D03*
X226797000Y-78846000D03*
X226797000Y-78346000D03*
X226797000Y-77846000D03*
X226797000Y-77346000D03*
X226797000Y-76846000D03*
X226797000Y-76346000D03*
X226797000Y-75846000D03*
X226797000Y-75346000D03*
X226797000Y-74846000D03*
X226797000Y-74346000D03*
X226797000Y-73846000D03*
X226797000Y-73346000D03*
X226797000Y-72846000D03*
X226797000Y-72346000D03*
X226797000Y-71846000D03*
X226797000Y-71346000D03*
X226797000Y-70846000D03*
X226797000Y-70346000D03*
X226797000Y-69846000D03*
X226797000Y-69346000D03*
X226797000Y-68846000D03*
X226797000Y-68346000D03*
X226797000Y-67846000D03*
X226797000Y-67346000D03*
X226797000Y-66846000D03*
X226797000Y-66346000D03*
X226797000Y-65846000D03*
X226797000Y-65346000D03*
X226797000Y-64846000D03*
X226797000Y-64346000D03*
X226797000Y-63846000D03*
X226797000Y-63346000D03*
X226797000Y-62846000D03*
X226797000Y-62346000D03*
X226797000Y-61846000D03*
X226797000Y-61346000D03*
X226797000Y-60846000D03*
X226797000Y-60346000D03*
X226797000Y-59846000D03*
X226797000Y-59346000D03*
X226797000Y-58846000D03*
D30*
X224872000Y-56921000D03*
X224372000Y-56921000D03*
X223872000Y-56921000D03*
X223372000Y-56921000D03*
X222872000Y-56921000D03*
X222372000Y-56921000D03*
X221872000Y-56921000D03*
X221372000Y-56921000D03*
X220872000Y-56921000D03*
X220372000Y-56921000D03*
X219872000Y-56921000D03*
X219372000Y-56921000D03*
X218872000Y-56921000D03*
X218372000Y-56921000D03*
X217872000Y-56921000D03*
X217372000Y-56921000D03*
X216872000Y-56921000D03*
X216372000Y-56921000D03*
X215872000Y-56921000D03*
X215372000Y-56921000D03*
X214872000Y-56921000D03*
X214372000Y-56921000D03*
X213872000Y-56921000D03*
X213372000Y-56921000D03*
X212872000Y-56921000D03*
X212372000Y-56921000D03*
X211872000Y-56921000D03*
X211372000Y-56921000D03*
X210872000Y-56921000D03*
X210372000Y-56921000D03*
X209872000Y-56921000D03*
X209372000Y-56921000D03*
X208872000Y-56921000D03*
X208372000Y-56921000D03*
X207872000Y-56921000D03*
X207372000Y-56921000D03*
X206872000Y-56921000D03*
X206372000Y-56921000D03*
X205872000Y-56921000D03*
X205372000Y-56921000D03*
X204872000Y-56921000D03*
X204372000Y-56921000D03*
X203872000Y-56921000D03*
X203372000Y-56921000D03*
D28*
X192739000Y-48975000D03*
D31*
X195279000Y-48975000D03*
X197819000Y-48975000D03*
X200359000Y-48975000D03*
X202899000Y-48975000D03*
X205439000Y-48975000D03*
X207979000Y-48975000D03*
X210519000Y-48975000D03*
X213059000Y-48975000D03*
X215599000Y-48975000D03*
D16*
X197677000Y-73093500D03*
X197677000Y-71368500D03*
D26*
X240937000Y-98493500D03*
X240937000Y-101468500D03*
D17*
X197677000Y-74677834D03*
X197677000Y-76402834D03*
D32*
X192845000Y-84337000D03*
X200045000Y-84337000D03*
X192845000Y-87337000D03*
X200045000Y-87337000D03*
D16*
X229863000Y-79451500D03*
X229863000Y-77726500D03*
X199913000Y-111091500D03*
X199913000Y-109366500D03*
D33*
X202911284Y-115125000D03*
X202911284Y-113125000D03*
D18*
X187599000Y-49887000D03*
D15*
X217007000Y-105741000D03*
X219007000Y-105741000D03*
D34*
X206031000Y-95641580D03*
X206031000Y-97641580D03*
D15*
X205931000Y-101521000D03*
X207931000Y-101521000D03*
X228185000Y-110351000D03*
X230185000Y-110351000D03*
D27*
X229412500Y-71845000D03*
X231137500Y-71845000D03*
D33*
X208254142Y-115125000D03*
X208254142Y-113125000D03*
D14*
X230247500Y-114819000D03*
X228522500Y-114819000D03*
D10*
X186442000Y-91550500D03*
X186442000Y-93375500D03*
D14*
X234015500Y-112533000D03*
X232290500Y-112533000D03*
D18*
X245099000Y-49833000D03*
D35*
X225315000Y-110663000D03*
X223315000Y-110663000D03*
D36*
X196258000Y-113487000D03*
X196258000Y-114787000D03*
X198258000Y-114787000D03*
X198258000Y-113487000D03*
D33*
X199739568Y-103213846D03*
X199739568Y-101213846D03*
D14*
X218697500Y-103759000D03*
X216972500Y-103759000D03*
D34*
X217391000Y-109175000D03*
X217391000Y-111175000D03*
D17*
X229355000Y-64518500D03*
X229355000Y-66243500D03*
D27*
X223252500Y-112709000D03*
X224977500Y-112709000D03*
D18*
X187599000Y-112333000D03*
D21*
X186463500Y-89325000D03*
X184388500Y-89325000D03*
D28*
X186229000Y-84563000D03*
D31*
X186229000Y-82023000D03*
X186229000Y-79483000D03*
D37*
X240834000Y-104616000D03*
X239564000Y-104616000D03*
X238294000Y-104616000D03*
X237024000Y-104616000D03*
X237024000Y-109566000D03*
X238294000Y-109566000D03*
X239564000Y-109566000D03*
X240834000Y-109566000D03*
D28*
X186229000Y-75455000D03*
D31*
X186229000Y-72915000D03*
X186229000Y-70375000D03*
X186229000Y-67835000D03*
X186229000Y-65295000D03*
X186229000Y-62755000D03*
X186229000Y-60215000D03*
X186229000Y-57675000D03*
D38*
X223073000Y-97710000D03*
X223073000Y-97210000D03*
X223073000Y-96710000D03*
X223073000Y-96210000D03*
X223073000Y-95710000D03*
X223073000Y-95210000D03*
X223073000Y-94710000D03*
X223073000Y-94210000D03*
X223073000Y-93710000D03*
X223073000Y-93210000D03*
X223073000Y-92710000D03*
X223073000Y-92210000D03*
X223073000Y-91710000D03*
X223073000Y-91210000D03*
X223073000Y-90710000D03*
X223073000Y-90210000D03*
D39*
X221148000Y-88285000D03*
X220648000Y-88285000D03*
X220148000Y-88285000D03*
X219648000Y-88285000D03*
X219148000Y-88285000D03*
X218648000Y-88285000D03*
X218148000Y-88285000D03*
X217648000Y-88285000D03*
X217148000Y-88285000D03*
X216648000Y-88285000D03*
X216148000Y-88285000D03*
X215648000Y-88285000D03*
X215148000Y-88285000D03*
X214648000Y-88285000D03*
X214148000Y-88285000D03*
X213648000Y-88285000D03*
D38*
X211723000Y-90210000D03*
X211723000Y-90710000D03*
X211723000Y-91210000D03*
X211723000Y-91710000D03*
X211723000Y-92210000D03*
X211723000Y-92710000D03*
X211723000Y-93210000D03*
X211723000Y-93710000D03*
X211723000Y-94210000D03*
X211723000Y-94710000D03*
X211723000Y-95210000D03*
X211723000Y-95710000D03*
X211723000Y-96210000D03*
X211723000Y-96710000D03*
X211723000Y-97210000D03*
X211723000Y-97710000D03*
D39*
X213648000Y-99635000D03*
X214148000Y-99635000D03*
X214648000Y-99635000D03*
X215148000Y-99635000D03*
X215648000Y-99635000D03*
X216148000Y-99635000D03*
X216648000Y-99635000D03*
X217148000Y-99635000D03*
X217648000Y-99635000D03*
X218148000Y-99635000D03*
X218648000Y-99635000D03*
X219148000Y-99635000D03*
X219648000Y-99635000D03*
X220148000Y-99635000D03*
X220648000Y-99635000D03*
X221148000Y-99635000D03*
D34*
X193109000Y-113441000D03*
X193109000Y-115441000D03*
D40*
X205472426Y-115132500D03*
X205472426Y-113057500D03*
D34*
X203486154Y-95599000D03*
X203486154Y-97599000D03*
D21*
X186463500Y-95451000D03*
X184388500Y-95451000D03*
D27*
X216817500Y-102151000D03*
X215092500Y-102151000D03*
D35*
X214723000Y-105741000D03*
X212723000Y-105741000D03*
D14*
X214785500Y-103759000D03*
X213060500Y-103759000D03*
X245207500Y-104463000D03*
X243482500Y-104463000D03*
D21*
X244172500Y-95885000D03*
X242097500Y-95885000D03*
D35*
X230185000Y-112539000D03*
X228185000Y-112539000D03*
D10*
X244545000Y-91580500D03*
X244545000Y-93405500D03*
D41*
X238144000Y-76546000D03*
X238144000Y-78846000D03*
D42*
X244444000Y-78846000D03*
D41*
X238144000Y-81146000D03*
X190075000Y-95813000D03*
X190075000Y-98113000D03*
D42*
X196375000Y-98113000D03*
D41*
X190075000Y-100413000D03*
D35*
X203842136Y-103457000D03*
X201842136Y-103457000D03*
D28*
X237187000Y-49127000D03*
D31*
X239727000Y-49127000D03*
D43*
X229684000Y-73592500D03*
X229684000Y-75667500D03*
D28*
X227633000Y-48975000D03*
D31*
X225093000Y-48975000D03*
X222553000Y-48975000D03*
X220013000Y-48975000D03*
D28*
X219613000Y-114601000D03*
D31*
X217073000Y-114601000D03*
X214533000Y-114601000D03*
D15*
X223315000Y-114713000D03*
X225315000Y-114713000D03*
D44*
X236498241Y-54733000D03*
D45*
X234498241Y-54733000D03*
D44*
X192583000Y-106401759D03*
D45*
X195083000Y-106401759D03*
D44*
X186714241Y-102437000D03*
D45*
X186714241Y-104937000D03*
D44*
X237843000Y-73635759D03*
D45*
X240343000Y-73635759D03*
D44*
X237006241Y-101881000D03*
D45*
X235006241Y-101881000D03*
D44*
X239773000Y-113562241D03*
D45*
X237773000Y-113562241D03*
D44*
X238022241Y-86229000D03*
D45*
X235522241Y-86229000D03*
D46*
X188400000Y-106200000D03*
X187700000Y-107500000D03*
X184676000Y-107500000D03*
X186200000Y-107500000D03*
X211900000Y-100200000D03*
X213300000Y-98300000D03*
X217500000Y-98000000D03*
X214400000Y-96600000D03*
X213400000Y-93800000D03*
X228400000Y-106400000D03*
X226800000Y-112360000D03*
X222769009Y-99884500D03*
X197612000Y-55118000D03*
X210100000Y-97500000D03*
X216120000Y-70740000D03*
X225044000Y-72346000D03*
X213120000Y-60740000D03*
X207120000Y-60740000D03*
X242316000Y-80264000D03*
X248120000Y-90740000D03*
X207314800Y-68580000D03*
X200660000Y-96520000D03*
X245618000Y-85344000D03*
X217120000Y-90740000D03*
X240284000Y-77724000D03*
X209296000Y-87884000D03*
X208026000Y-76708000D03*
X204724000Y-66802000D03*
X196120000Y-90740000D03*
X199898000Y-112268000D03*
X211120000Y-74740000D03*
X201930000Y-84582000D03*
X240284000Y-85344000D03*
X237744000Y-68072000D03*
X192532000Y-108966000D03*
X187960000Y-99060000D03*
X196088000Y-59182000D03*
X244030000Y-83566000D03*
X213120000Y-66740000D03*
X194056000Y-94996000D03*
X232120000Y-90740000D03*
X233934000Y-85090000D03*
X226822000Y-56896000D03*
X207120000Y-66740000D03*
X238760000Y-88900000D03*
X234696000Y-106426000D03*
X207120000Y-64740000D03*
X192481200Y-70358000D03*
X231172000Y-88900000D03*
X211120000Y-68740000D03*
X235204000Y-69088000D03*
X200120000Y-90740000D03*
X240120000Y-90740000D03*
X233121200Y-94183200D03*
X221996000Y-62992000D03*
X240284000Y-86868000D03*
X204724000Y-87630000D03*
X221520000Y-70612000D03*
X197104000Y-108966000D03*
X189230000Y-107442000D03*
X192532000Y-98044000D03*
X190754000Y-107442000D03*
X237744000Y-61976000D03*
X233172000Y-100330000D03*
X242316000Y-76200000D03*
X213120000Y-90740000D03*
X223266000Y-62992000D03*
X211836000Y-54864000D03*
X234645200Y-94183200D03*
X204724000Y-60706000D03*
X240284000Y-81788000D03*
X230120000Y-90740000D03*
X216120000Y-60740000D03*
X207804000Y-80010000D03*
X222453200Y-86309200D03*
X232188000Y-83312000D03*
X195580000Y-108966000D03*
X198374000Y-109220000D03*
X241808000Y-109982000D03*
X209120000Y-64740000D03*
X191516000Y-113792000D03*
X236220000Y-65024000D03*
X221520000Y-72390000D03*
X213120000Y-74740000D03*
X199644000Y-64008000D03*
X242824000Y-61976000D03*
X219120000Y-90740000D03*
X231140000Y-75692000D03*
X223044000Y-79248000D03*
X192532000Y-94996000D03*
X244030000Y-85344000D03*
X245618000Y-86868000D03*
X238252000Y-99822000D03*
X243840000Y-106172000D03*
X244348000Y-76200000D03*
X236220000Y-63500000D03*
X213120000Y-64740000D03*
X209120000Y-66740000D03*
X234188000Y-64008000D03*
X218120000Y-60740000D03*
X242824000Y-59944000D03*
X217424000Y-77470000D03*
X220218000Y-54864000D03*
X202120000Y-90740000D03*
X195580000Y-70803500D03*
X218120000Y-70740000D03*
X184658000Y-102870000D03*
X231648000Y-114808000D03*
X231137500Y-70612000D03*
X208687000Y-74575000D03*
X202539600Y-87630000D03*
X216916000Y-84074000D03*
X242316000Y-81788000D03*
X194056000Y-98044000D03*
X236220000Y-68072000D03*
X194564000Y-64008000D03*
X218120000Y-62740000D03*
X197104000Y-102870000D03*
X233172000Y-102108000D03*
X216408000Y-55372000D03*
X207010000Y-111252000D03*
X228500000Y-54700000D03*
X239268000Y-63500000D03*
X195580000Y-87376000D03*
X206502000Y-76708000D03*
X187960000Y-94234000D03*
X218948000Y-94234000D03*
X246120000Y-90740000D03*
X221600000Y-97700000D03*
X242284000Y-86868000D03*
X216120000Y-68740000D03*
X234188000Y-60452000D03*
X203200000Y-77216000D03*
X217202000Y-58928000D03*
X191516000Y-110998000D03*
X211918500Y-80518000D03*
X233934000Y-83312000D03*
X232188000Y-87122000D03*
X238252000Y-106680000D03*
X187960000Y-100584000D03*
X219710000Y-77216000D03*
X203708000Y-51562000D03*
X208788000Y-84582000D03*
X213664800Y-84644500D03*
X212598000Y-109220000D03*
X230188000Y-83312000D03*
X211120000Y-66740000D03*
X224790000Y-75184000D03*
X221742000Y-84074000D03*
X211120000Y-64740000D03*
X244348000Y-69088000D03*
X209804000Y-80010000D03*
X211120000Y-60740000D03*
X244348000Y-81788000D03*
X228120000Y-90740000D03*
X221488000Y-74422000D03*
X206756000Y-84074000D03*
X190754000Y-108712000D03*
X209804000Y-112014000D03*
X208120000Y-90740000D03*
X219202000Y-58928000D03*
X192532000Y-99568000D03*
X184120000Y-90740000D03*
X228600000Y-77597000D03*
X237744000Y-66548000D03*
X236474000Y-99822000D03*
X232188000Y-85090000D03*
X198120000Y-90740000D03*
X199898000Y-104648000D03*
X187960000Y-97790000D03*
X234188000Y-73152000D03*
X226600000Y-98400000D03*
X209120000Y-60740000D03*
X201930000Y-96774000D03*
X236728000Y-69088000D03*
X234120000Y-90740000D03*
X230188000Y-87122000D03*
X236220000Y-66548000D03*
X224332800Y-101092000D03*
X203994000Y-80010000D03*
X211120000Y-70740000D03*
X200660000Y-98044000D03*
X233934000Y-87122000D03*
X204724000Y-86106000D03*
X209120000Y-72740000D03*
X194120000Y-90740000D03*
X211582000Y-110490000D03*
X199136000Y-99314000D03*
X242120000Y-90740000D03*
X233680000Y-69088000D03*
X221996000Y-64262000D03*
X225044000Y-70612000D03*
X240538000Y-111252000D03*
X213060500Y-102915500D03*
X219700000Y-103600000D03*
X206120000Y-90740000D03*
X199745600Y-65633600D03*
X242316000Y-77724000D03*
X219710000Y-75438000D03*
X216120000Y-62740000D03*
X217678000Y-80772000D03*
X215120000Y-90740000D03*
X223520000Y-72390000D03*
X237744000Y-63500000D03*
X234950000Y-99822000D03*
X236220000Y-60452000D03*
X226060000Y-95250000D03*
X189738000Y-106172000D03*
X191516000Y-109474000D03*
X184531000Y-87630000D03*
X219456000Y-80772000D03*
X209550000Y-108966000D03*
X219456000Y-79248000D03*
X229172000Y-88900000D03*
X242284000Y-85344000D03*
X198700000Y-73900000D03*
X188823600Y-87376000D03*
X184658000Y-101346000D03*
X202539600Y-86106000D03*
X240284000Y-83566000D03*
X234645200Y-95199200D03*
X195834000Y-55372000D03*
X225044000Y-64262000D03*
X236120000Y-90740000D03*
X238120000Y-90740000D03*
X209120000Y-70740000D03*
X225044000Y-77724000D03*
X191770000Y-75184000D03*
X220345000Y-94234000D03*
X217576400Y-86715600D03*
X245618000Y-83566000D03*
X196437523Y-111960705D03*
X215900000Y-108204000D03*
X222961200Y-77622400D03*
X225044000Y-79248000D03*
X237744000Y-65024000D03*
X204724000Y-100457000D03*
X199745600Y-66548000D03*
X206756000Y-88138000D03*
X194056000Y-96520000D03*
X205994000Y-80010000D03*
X234760000Y-88900000D03*
X214884000Y-74930000D03*
X242824000Y-67564000D03*
X246380000Y-94996000D03*
X236760000Y-88900000D03*
X240284000Y-95504000D03*
X217900000Y-83700000D03*
X218120000Y-64740000D03*
X218120000Y-68740000D03*
X209120000Y-68740000D03*
X245872000Y-69088000D03*
X184658000Y-105918000D03*
X219202000Y-61468000D03*
X218948000Y-108204000D03*
X235966000Y-106426000D03*
X198374000Y-58928000D03*
X223520000Y-70612000D03*
X236220000Y-61976000D03*
X211120000Y-72740000D03*
X191516000Y-112268000D03*
X196088000Y-94996000D03*
X223012000Y-98806000D03*
X209120000Y-62740000D03*
X203708000Y-55563576D03*
X216120000Y-72740000D03*
X245872000Y-67564000D03*
X239754879Y-106658879D03*
X234188000Y-61976000D03*
X221120000Y-90740000D03*
X199644000Y-60960000D03*
X191008000Y-87376000D03*
X207772000Y-97536000D03*
X199136000Y-97790000D03*
X244348000Y-67564000D03*
X197104000Y-107442000D03*
X240284000Y-76200000D03*
X213120000Y-68740000D03*
X230188000Y-85090000D03*
X213120000Y-70740000D03*
X224028000Y-53340000D03*
X204120000Y-90740000D03*
X212090000Y-107696000D03*
X224698128Y-95918628D03*
X213120000Y-72740000D03*
X219964000Y-60452000D03*
X200406000Y-99822000D03*
X192786000Y-65532000D03*
X195580000Y-56896000D03*
X188120000Y-90740000D03*
X216120000Y-64740000D03*
X212852000Y-110744000D03*
X211120000Y-62740000D03*
X227076000Y-87884000D03*
X192532000Y-96520000D03*
X234696000Y-105156000D03*
X242284000Y-83566000D03*
X216120000Y-66740000D03*
X192120000Y-90740000D03*
X242824000Y-69088000D03*
X196596000Y-101092000D03*
X240284000Y-80264000D03*
X233121200Y-95199200D03*
X197104000Y-105918000D03*
X197104000Y-104394000D03*
X189230000Y-108712000D03*
X194056000Y-108966000D03*
X235712000Y-83312000D03*
X184658000Y-104394000D03*
X233172000Y-88900000D03*
X218120000Y-66740000D03*
X207010000Y-51054000D03*
X204724000Y-61976000D03*
X204724000Y-107950000D03*
X197358000Y-87376000D03*
X244030000Y-86868000D03*
X191516000Y-115316000D03*
X203708000Y-84074000D03*
X213120000Y-62740000D03*
X201930000Y-95250000D03*
X204724000Y-68580000D03*
X190120000Y-90740000D03*
X225044000Y-65532000D03*
X229209250Y-100177250D03*
X225044000Y-68580000D03*
X238252000Y-69088000D03*
X240437000Y-89057000D03*
X242316000Y-78846000D03*
X184658000Y-99822000D03*
X207120000Y-62740000D03*
X183896000Y-97028000D03*
X191516000Y-58928000D03*
X192532000Y-67818000D03*
X242824000Y-63500000D03*
X240284000Y-78846000D03*
X224840800Y-60756800D03*
X239268000Y-100838000D03*
X208471500Y-54852158D03*
X196850000Y-56388000D03*
X206360613Y-58420000D03*
X197104000Y-58420000D03*
X202946000Y-50800000D03*
X188976000Y-89408000D03*
X187960000Y-95813000D03*
X204739500Y-51878500D03*
X222474344Y-88285000D03*
X203200000Y-65024000D03*
X203200000Y-71120000D03*
X213868000Y-55372000D03*
X193954400Y-53340000D03*
X215571500Y-58420000D03*
X202058288Y-56259712D03*
X225044000Y-73660000D03*
X199644000Y-81280000D03*
X217678000Y-53340000D03*
X212344000Y-88138000D03*
X213676500Y-80518000D03*
X203200000Y-78232000D03*
X213868000Y-58420000D03*
X223012000Y-101346000D03*
X219938500Y-86360000D03*
X218440000Y-80010000D03*
X218694000Y-78232000D03*
X215900000Y-85344000D03*
X207772000Y-84328000D03*
X206248000Y-86551500D03*
X219188622Y-85584622D03*
X218948000Y-84136500D03*
X210312000Y-88138000D03*
X219456000Y-62484000D03*
X213763211Y-86656289D03*
X220980000Y-59436000D03*
X208120000Y-87740000D03*
X210005833Y-84529833D03*
X213868000Y-108204000D03*
X211601000Y-104413000D03*
X210171622Y-95909500D03*
X189992000Y-102616000D03*
X206248000Y-110236000D03*
X211074000Y-108966000D03*
X225044000Y-66548000D03*
X225171000Y-97645000D03*
X226187000Y-96774000D03*
X225200000Y-100300000D03*
X201930000Y-111252000D03*
X210110000Y-102310000D03*
X233680000Y-108204000D03*
X221491442Y-101403096D03*
X217170000Y-94234000D03*
X228092000Y-57404000D03*
X221488000Y-54864000D03*
X207772000Y-94996000D03*
X207772000Y-96266000D03*
X195072000Y-81280000D03*
X203708000Y-74676000D03*
X199136000Y-72136000D03*
X198120000Y-64516000D03*
X199884622Y-72911378D03*
X196088000Y-64516000D03*
X194789157Y-65814843D03*
X192024000Y-79756000D03*
X203195076Y-73156924D03*
X199120535Y-71135465D03*
X209908330Y-107950000D03*
X206248000Y-106934000D03*
X220827600Y-80619600D03*
X224872000Y-58928000D03*
X205486000Y-55372000D03*
D47*
X229700000Y-57287500D02*
X229635000Y-57352500D01*
X229700000Y-55810000D02*
X229700000Y-57287500D01*
X230015000Y-55495000D02*
X229700000Y-55810000D01*
D48*
X230545000Y-53745000D02*
X230015000Y-53745000D01*
X231305000Y-57445000D02*
X231305000Y-54505000D01*
X231305000Y-54505000D02*
X230545000Y-53745000D01*
D49*
X229455000Y-53745000D02*
X228500000Y-54700000D01*
X230015000Y-53745000D02*
X229455000Y-53745000D01*
D47*
X231305000Y-60195000D02*
X231305000Y-59195000D01*
X230755000Y-60745000D02*
X231305000Y-60195000D01*
X230547500Y-60745000D02*
X230755000Y-60745000D01*
X227823500Y-59846000D02*
X228722500Y-60745000D01*
X226797000Y-59846000D02*
X227823500Y-59846000D01*
X229466500Y-59346000D02*
X226797000Y-59346000D01*
X229635000Y-59177500D02*
X229466500Y-59346000D01*
D50*
X232527000Y-53327000D02*
X231051000Y-51851000D01*
X231051000Y-51851000D02*
X227111000Y-51851000D01*
X232527000Y-61976000D02*
X232527000Y-53327000D01*
D47*
X200054000Y-74346000D02*
X201447000Y-74346000D01*
X199345000Y-75055000D02*
X200054000Y-74346000D01*
X199345000Y-75062500D02*
X199345000Y-75055000D01*
D49*
X198161666Y-76887500D02*
X197677000Y-76402834D01*
X199345000Y-76887500D02*
X198161666Y-76887500D01*
X198454834Y-73900000D02*
X197677000Y-74677834D01*
X198700000Y-73900000D02*
X198454834Y-73900000D01*
X198700000Y-73900000D02*
X198483500Y-73900000D01*
X198483500Y-73900000D02*
X197677000Y-73093500D01*
D47*
X216600000Y-98000000D02*
X217500000Y-98000000D01*
X216148000Y-98452000D02*
X216600000Y-98000000D01*
X216148000Y-99635000D02*
X216148000Y-98452000D01*
X214648000Y-100552000D02*
X214648000Y-99635000D01*
X214300000Y-100900000D02*
X214648000Y-100552000D01*
X213300000Y-100900000D02*
X214300000Y-100900000D01*
D48*
X212600000Y-100900000D02*
X211900000Y-100200000D01*
X213300000Y-100900000D02*
X212600000Y-100900000D01*
D51*
X211601000Y-102999000D02*
X211601000Y-104413000D01*
X212500000Y-102100000D02*
X211601000Y-102999000D01*
D47*
X215148000Y-100700999D02*
X215148000Y-99635000D01*
X213748999Y-102100000D02*
X215148000Y-100700999D01*
X212500000Y-102100000D02*
X213748999Y-102100000D01*
X215648000Y-98548000D02*
X215648000Y-99635000D01*
X215400000Y-98300000D02*
X215648000Y-98548000D01*
X213300000Y-98300000D02*
X215400000Y-98300000D01*
X216300000Y-101633500D02*
X216817500Y-102151000D01*
X216148000Y-100748000D02*
X216300000Y-100900000D01*
X216300000Y-100900000D02*
X216300000Y-101633500D01*
X216148000Y-99635000D02*
X216148000Y-100748000D01*
X215500000Y-101743500D02*
X215092500Y-102151000D01*
X215500000Y-100914685D02*
X215500000Y-101743500D01*
X215648000Y-100766685D02*
X215500000Y-100914685D01*
X215648000Y-99635000D02*
X215648000Y-100766685D01*
D50*
X216817500Y-102151000D02*
X216817500Y-103604000D01*
X215036400Y-103508100D02*
X215036400Y-102207100D01*
X214785500Y-103759000D02*
X215036400Y-103508100D01*
X215036400Y-102207100D02*
X215092500Y-102151000D01*
D49*
X214500000Y-96700000D02*
X214400000Y-96600000D01*
D47*
X220148000Y-98148000D02*
X220148000Y-99635000D01*
D49*
X220148000Y-98148000D02*
X220148000Y-97348000D01*
X220148000Y-97348000D02*
X219500000Y-96700000D01*
X219500000Y-96700000D02*
X214500000Y-96700000D01*
D47*
X214400000Y-96600000D02*
X214648000Y-96848000D01*
X210100000Y-97500000D02*
X210310000Y-97710000D01*
X210310000Y-97710000D02*
X211723000Y-97710000D01*
X210917670Y-96710000D02*
X211723000Y-96710000D01*
X210127670Y-97500000D02*
X210917670Y-96710000D01*
X210100000Y-97500000D02*
X210127670Y-97500000D01*
D50*
X218856500Y-103600000D02*
X218697500Y-103759000D01*
X219700000Y-103600000D02*
X218856500Y-103600000D01*
D51*
X208276000Y-106176000D02*
X207822000Y-106176000D01*
X209804000Y-102616000D02*
X209804000Y-104648000D01*
X210110000Y-102310000D02*
X209804000Y-102616000D01*
X209804000Y-104648000D02*
X208276000Y-106176000D01*
D49*
X213060500Y-102915500D02*
X213060500Y-103759000D01*
D48*
X213400000Y-96988000D02*
X213178000Y-97210000D01*
X213400000Y-95094000D02*
X213400000Y-96988000D01*
X217170000Y-94234000D02*
X214260000Y-94234000D01*
X214260000Y-94234000D02*
X213400000Y-95094000D01*
D47*
X210171622Y-95909500D02*
X210472122Y-96210000D01*
X210472122Y-96210000D02*
X211723000Y-96210000D01*
X212528330Y-96710000D02*
X211723000Y-96710000D01*
X212798000Y-95979670D02*
X212798000Y-96440330D01*
X212798000Y-96440330D02*
X212528330Y-96710000D01*
X212528330Y-95710000D02*
X212798000Y-95979670D01*
X211723000Y-95710000D02*
X212528330Y-95710000D01*
D49*
X227182750Y-106680000D02*
X228522500Y-108019750D01*
X224536000Y-104902000D02*
X224536000Y-105410000D01*
X224536000Y-105410000D02*
X225806000Y-106680000D01*
X225806000Y-106680000D02*
X227182750Y-106680000D01*
X226996000Y-108284000D02*
X226018000Y-108284000D01*
X226996000Y-112164000D02*
X226800000Y-112360000D01*
X226996000Y-108284000D02*
X226996000Y-112164000D01*
D48*
X223774000Y-100584000D02*
X223266000Y-100584000D01*
X224058000Y-100300000D02*
X223774000Y-100584000D01*
X225200000Y-100300000D02*
X224058000Y-100300000D01*
D47*
X221600000Y-97700000D02*
X221610000Y-97710000D01*
X221610000Y-97710000D02*
X223073000Y-97710000D01*
D48*
X223082309Y-99571200D02*
X222769009Y-99884500D01*
X224600000Y-99571200D02*
X223082309Y-99571200D01*
X224847600Y-99323600D02*
X224600000Y-99571200D01*
X227977705Y-100929650D02*
X226371655Y-99323600D01*
X230029650Y-100929650D02*
X227977705Y-100929650D01*
X233680000Y-104580000D02*
X230029650Y-100929650D01*
X226371655Y-99323600D02*
X224847600Y-99323600D01*
X233680000Y-108204000D02*
X233680000Y-104580000D01*
D47*
X214982000Y-106000000D02*
X214723000Y-105741000D01*
X231115500Y-75667500D02*
X231140000Y-75692000D01*
X213360000Y-90678000D02*
X212892000Y-90210000D01*
D49*
X230247500Y-114819000D02*
X231637000Y-114819000D01*
D47*
X203070000Y-77346000D02*
X201447000Y-77346000D01*
X215872000Y-56921000D02*
X215872000Y-55908000D01*
D48*
X221742000Y-84074000D02*
X222372000Y-83444000D01*
D50*
X210058000Y-112014000D02*
X210495000Y-112451000D01*
D47*
X225310000Y-68846000D02*
X225044000Y-68580000D01*
X200030000Y-61346000D02*
X199644000Y-60960000D01*
D52*
X246471024Y-94904976D02*
X246380000Y-94996000D01*
D47*
X203200000Y-77216000D02*
X203070000Y-77346000D01*
X212872000Y-81490670D02*
X212872000Y-82271000D01*
D50*
X208439000Y-112464600D02*
X208889600Y-112014000D01*
D48*
X228701900Y-66243500D02*
X229355000Y-66243500D01*
D47*
X222872000Y-54909500D02*
X222872000Y-56921000D01*
D50*
X184534500Y-98365000D02*
X184534500Y-97666500D01*
D47*
X201447000Y-64346000D02*
X199982000Y-64346000D01*
D49*
X224993500Y-88188500D02*
X225843000Y-88188500D01*
D50*
X199898000Y-105614932D02*
X199959568Y-105676500D01*
D48*
X221742000Y-84074000D02*
X221372000Y-83704000D01*
D47*
X204724000Y-68580000D02*
X202958000Y-70346000D01*
D51*
X230325000Y-69799500D02*
X229355000Y-69799500D01*
D47*
X204372000Y-83410000D02*
X203708000Y-84074000D01*
D49*
X199641500Y-60962500D02*
X199644000Y-60960000D01*
D48*
X228931100Y-75667500D02*
X229684000Y-75667500D01*
D49*
X219904500Y-109160500D02*
X219904500Y-108500100D01*
D47*
X222372000Y-83444000D02*
X222372000Y-82271000D01*
X215872000Y-55908000D02*
X216408000Y-55372000D01*
X226797000Y-68846000D02*
X227748400Y-68846000D01*
X228701900Y-69799500D02*
X229355000Y-69799500D01*
X216408000Y-84074000D02*
X215872000Y-83538000D01*
X225230000Y-65346000D02*
X225044000Y-65532000D01*
X211872000Y-54900000D02*
X211836000Y-54864000D01*
D50*
X208889600Y-112014000D02*
X209550000Y-112014000D01*
X208439000Y-113125000D02*
X208439000Y-112464600D01*
D47*
X226797000Y-74846000D02*
X228109600Y-74846000D01*
X223073000Y-90210000D02*
X224242000Y-90210000D01*
X216916000Y-84074000D02*
X216408000Y-84074000D01*
X202958000Y-70346000D02*
X201447000Y-70346000D01*
D49*
X231637000Y-114819000D02*
X231648000Y-114808000D01*
X225843000Y-88188500D02*
X226771500Y-88188500D01*
D51*
X195580000Y-72284000D02*
X195580000Y-70803500D01*
D47*
X227804400Y-65346000D02*
X226797000Y-65346000D01*
D50*
X196258000Y-112140228D02*
X196437523Y-111960705D01*
D47*
X212892000Y-90210000D02*
X211723000Y-90210000D01*
X203372000Y-82271000D02*
X203372000Y-83738000D01*
D49*
X219608400Y-108204000D02*
X218948000Y-108204000D01*
D47*
X211918500Y-80537170D02*
X212872000Y-81490670D01*
D51*
X209550000Y-112014000D02*
X209804000Y-112014000D01*
D50*
X209804000Y-112014000D02*
X210058000Y-112014000D01*
D47*
X204372000Y-82271000D02*
X204372000Y-83410000D01*
X211872000Y-56921000D02*
X211872000Y-54900000D01*
D50*
X210495000Y-112451000D02*
X210495000Y-113462500D01*
D47*
X226797000Y-65346000D02*
X225230000Y-65346000D01*
D50*
X231137500Y-70612000D02*
X231137500Y-71337000D01*
D47*
X224242000Y-90210000D02*
X224536000Y-89916000D01*
X211918500Y-80518000D02*
X211918500Y-80537170D01*
D52*
X241983500Y-95661000D02*
X240441000Y-95661000D01*
D47*
X225044000Y-72346000D02*
X226797000Y-72346000D01*
D50*
X184388500Y-95451000D02*
X184388500Y-96535500D01*
D52*
X192845000Y-87337000D02*
X200045000Y-87337000D01*
D47*
X228219000Y-65760600D02*
X227804400Y-65346000D01*
D49*
X224536000Y-88646000D02*
X224993500Y-88188500D01*
X219904500Y-108500100D02*
X219608400Y-108204000D01*
D50*
X198520500Y-109366500D02*
X198374000Y-109220000D01*
D49*
X224536000Y-89154000D02*
X224536000Y-88646000D01*
D50*
X184531000Y-87630000D02*
X184388500Y-87772500D01*
D47*
X226797000Y-68846000D02*
X225310000Y-68846000D01*
X225044000Y-70612000D02*
X225310000Y-70346000D01*
D50*
X199913000Y-109366500D02*
X198520500Y-109366500D01*
X243482500Y-105814500D02*
X243840000Y-106172000D01*
D47*
X224790000Y-75184000D02*
X225128000Y-74846000D01*
X221372000Y-83704000D02*
X221372000Y-82271000D01*
D50*
X191770000Y-75184000D02*
X193405000Y-75184000D01*
D49*
X197859000Y-60962500D02*
X199641500Y-60962500D01*
D47*
X203372000Y-83738000D02*
X203708000Y-84074000D01*
D48*
X228396800Y-75133200D02*
X228931100Y-75667500D01*
D49*
X223094500Y-54687000D02*
X223094500Y-54273500D01*
D47*
X224536000Y-89916000D02*
X224536000Y-89154000D01*
D50*
X184388500Y-87772500D02*
X184388500Y-89325000D01*
D47*
X199982000Y-64346000D02*
X199644000Y-64008000D01*
D50*
X195911500Y-101776500D02*
X196596000Y-101092000D01*
D47*
X215872000Y-83538000D02*
X215872000Y-82271000D01*
D52*
X247555000Y-94904976D02*
X246471024Y-94904976D01*
D47*
X193405000Y-74846500D02*
X195580000Y-72671500D01*
D51*
X231137500Y-70612000D02*
X230325000Y-69799500D01*
X240437000Y-89057000D02*
X241983500Y-89057000D01*
D50*
X199898000Y-104648000D02*
X199898000Y-105614932D01*
D47*
X201447000Y-61346000D02*
X200030000Y-61346000D01*
X225310000Y-70346000D02*
X226797000Y-70346000D01*
D49*
X229684000Y-75667500D02*
X231115500Y-75667500D01*
D50*
X184388500Y-96535500D02*
X183896000Y-97028000D01*
X184534500Y-97666500D02*
X183896000Y-97028000D01*
D47*
X228600000Y-78346000D02*
X228600000Y-77597000D01*
X204872000Y-55875600D02*
X204559976Y-55563576D01*
X227748400Y-68846000D02*
X228701900Y-69799500D01*
D52*
X240441000Y-95661000D02*
X240284000Y-95504000D01*
D47*
X228109600Y-74846000D02*
X228396800Y-75133200D01*
X225128000Y-74846000D02*
X226797000Y-74846000D01*
X224489500Y-95710000D02*
X224698128Y-95918628D01*
D50*
X195911500Y-103475000D02*
X195911500Y-101776500D01*
D49*
X223094500Y-54273500D02*
X224028000Y-53340000D01*
D48*
X228219000Y-65760600D02*
X228701900Y-66243500D01*
D51*
X238294000Y-104616000D02*
X238294000Y-106638000D01*
D48*
X204559976Y-55563576D02*
X203708000Y-55563576D01*
D49*
X226771500Y-88188500D02*
X227076000Y-87884000D01*
D47*
X204872000Y-56921000D02*
X204872000Y-55875600D01*
D50*
X196258000Y-113487000D02*
X196258000Y-112140228D01*
X243482500Y-104463000D02*
X243482500Y-105814500D01*
D47*
X228600000Y-78346000D02*
X226797000Y-78346000D01*
X208280000Y-55422800D02*
X207872000Y-55830800D01*
X207872000Y-55830800D02*
X207872000Y-56921000D01*
X208280000Y-55422800D02*
X208280000Y-55043658D01*
X208280000Y-55043658D02*
X208471500Y-54852158D01*
X200062000Y-59346000D02*
X201447000Y-59346000D01*
D48*
X196850000Y-56388000D02*
X197104000Y-56388000D01*
X197104000Y-56388000D02*
X200062000Y-59346000D01*
D47*
X206360613Y-58420000D02*
X206360613Y-56932387D01*
X197104000Y-58928000D02*
X198022000Y-59846000D01*
X198022000Y-59846000D02*
X201447000Y-59846000D01*
X197104000Y-58420000D02*
X197104000Y-58928000D01*
X203708000Y-59182000D02*
X203708000Y-60452000D01*
X203708000Y-60452000D02*
X203314000Y-60846000D01*
X205439000Y-53641000D02*
X204724000Y-54356000D01*
X203314000Y-60846000D02*
X201447000Y-60846000D01*
X200152000Y-55118000D02*
X200152000Y-55626000D01*
X205439000Y-48975000D02*
X205439000Y-53641000D01*
X204724000Y-54356000D02*
X200914000Y-54356000D01*
X200152000Y-55626000D02*
X203708000Y-59182000D01*
X200914000Y-54356000D02*
X200152000Y-55118000D01*
D48*
X202946000Y-50800000D02*
X199644000Y-50800000D01*
D47*
X200152000Y-58420000D02*
X200578000Y-58846000D01*
X200578000Y-58846000D02*
X201447000Y-58846000D01*
D48*
X198374000Y-56642000D02*
X200152000Y-58420000D01*
X198374000Y-52070000D02*
X198374000Y-56642000D01*
X199644000Y-50800000D02*
X198374000Y-52070000D01*
D53*
X238144000Y-76546000D02*
X235164500Y-76546000D01*
D52*
X188893000Y-89325000D02*
X186463500Y-89325000D01*
D53*
X237843000Y-73635759D02*
X237843000Y-76245000D01*
X235164500Y-76546000D02*
X234875000Y-76256500D01*
D50*
X186442000Y-89346500D02*
X186463500Y-89325000D01*
D52*
X186442000Y-91550500D02*
X186442000Y-89346500D01*
D50*
X188976000Y-89408000D02*
X188893000Y-89325000D01*
D52*
X186714241Y-102437000D02*
X186714241Y-98819741D01*
D53*
X190075000Y-95813000D02*
X187960000Y-95813000D01*
X187960000Y-95813000D02*
X186825500Y-95813000D01*
D52*
X186442000Y-93375500D02*
X186442000Y-95429500D01*
X186463500Y-98161000D02*
X186259500Y-98365000D01*
D53*
X186825500Y-95813000D02*
X186463500Y-95451000D01*
D52*
X186714241Y-98819741D02*
X186259500Y-98365000D01*
X186463500Y-95451000D02*
X186463500Y-98161000D01*
D47*
X199390000Y-56388000D02*
X200914000Y-57912000D01*
X204739500Y-51878500D02*
X204040000Y-52578000D01*
X200914000Y-57912000D02*
X201793330Y-57912000D01*
X199390000Y-54356000D02*
X199390000Y-56388000D01*
X201793330Y-57912000D02*
X202740314Y-58858984D01*
X202740314Y-60346000D02*
X201447000Y-60346000D01*
X202740314Y-58858984D02*
X202740314Y-60346000D01*
X201168000Y-52578000D02*
X199390000Y-54356000D01*
X204040000Y-52578000D02*
X201168000Y-52578000D01*
D51*
X238568241Y-101881000D02*
X239564000Y-102876759D01*
X237006241Y-101881000D02*
X238568241Y-101881000D01*
X239564000Y-102876759D02*
X239564000Y-104616000D01*
D50*
X235762800Y-104495600D02*
X236903600Y-104495600D01*
D49*
X236903600Y-104495600D02*
X237024000Y-104616000D01*
D50*
X235006241Y-103739041D02*
X235762800Y-104495600D01*
X235006241Y-101881000D02*
X235006241Y-103739041D01*
D48*
X213059000Y-50085000D02*
X213059000Y-48975000D01*
X206756000Y-52574743D02*
X208276743Y-51054000D01*
D47*
X206756000Y-55219600D02*
X205872000Y-56103600D01*
D48*
X206756000Y-53841487D02*
X206756000Y-52574743D01*
X212090000Y-51054000D02*
X213059000Y-50085000D01*
X208276743Y-51054000D02*
X212090000Y-51054000D01*
D47*
X206756000Y-53841487D02*
X206756000Y-55219600D01*
X205872000Y-56103600D02*
X205872000Y-56921000D01*
X207772000Y-53837091D02*
X207772000Y-54895636D01*
D48*
X207772000Y-53837091D02*
X207772000Y-53721000D01*
X207772000Y-53721000D02*
X209423000Y-52070000D01*
X209423000Y-52070000D02*
X213360000Y-52070000D01*
D47*
X207772000Y-54895636D02*
X206872000Y-55795636D01*
D48*
X213360000Y-52070000D02*
X215599000Y-49831000D01*
D47*
X206872000Y-55795636D02*
X206872000Y-56921000D01*
D48*
X215599000Y-49831000D02*
X215599000Y-48975000D01*
D54*
X224748000Y-102326624D02*
X224748000Y-102048400D01*
D52*
X230185000Y-108483500D02*
X230247500Y-108421000D01*
X232353000Y-110313000D02*
X230223000Y-110313000D01*
D54*
X229377000Y-104373624D02*
X229377000Y-107550500D01*
D52*
X230185000Y-110351000D02*
X230185000Y-108483500D01*
D54*
X225196400Y-101600000D02*
X226603376Y-101600000D01*
X224748000Y-102048400D02*
X225196400Y-101600000D01*
X226603376Y-101600000D02*
X229377000Y-104373624D01*
X229377000Y-107550500D02*
X230247500Y-108421000D01*
D49*
X223520000Y-110458000D02*
X223520000Y-108326000D01*
D47*
X228970814Y-113539000D02*
X229785000Y-112724814D01*
X224082500Y-113539000D02*
X228970814Y-113539000D01*
X223252500Y-112709000D02*
X224082500Y-113539000D01*
D51*
X223315000Y-110663000D02*
X223315000Y-112646500D01*
D47*
X215372000Y-58220500D02*
X215571500Y-58420000D01*
D50*
X223119000Y-88285000D02*
X224028000Y-87376000D01*
X219964000Y-51816000D02*
X220013000Y-51767000D01*
X232527000Y-68072000D02*
X232527000Y-64516000D01*
X198678800Y-80314800D02*
X199644000Y-81280000D01*
D49*
X202058288Y-56262288D02*
X202058288Y-56259712D01*
D47*
X215900000Y-80772000D02*
X216372000Y-81244000D01*
X204724000Y-59436000D02*
X203872000Y-58584000D01*
X221872000Y-81150000D02*
X221872000Y-82271000D01*
D50*
X225843000Y-89913500D02*
X227180100Y-89913500D01*
D47*
X229863000Y-79451500D02*
X229257500Y-78846000D01*
D50*
X198932500Y-62687500D02*
X199543000Y-62077000D01*
D47*
X212491000Y-88285000D02*
X212344000Y-88138000D01*
X201447000Y-64846000D02*
X203022000Y-64846000D01*
X229352500Y-68072000D02*
X229355000Y-68074500D01*
X224891600Y-76072350D02*
X224891600Y-76073000D01*
D50*
X202793000Y-62077000D02*
X203200000Y-62484000D01*
D47*
X222250000Y-80518000D02*
X222250000Y-80772000D01*
D50*
X191770000Y-77470000D02*
X193802000Y-79502000D01*
X193954400Y-53340000D02*
X193954400Y-62280800D01*
D47*
X213648000Y-88285000D02*
X212491000Y-88285000D01*
X203022000Y-64846000D02*
X203200000Y-65024000D01*
D48*
X229412500Y-71845000D02*
X229412500Y-71170500D01*
D50*
X202828656Y-78232000D02*
X203200000Y-78232000D01*
X232527000Y-72644000D02*
X232527000Y-68072000D01*
X188468000Y-77470000D02*
X191770000Y-77470000D01*
X232527000Y-64516000D02*
X232527000Y-61976000D01*
D47*
X204872000Y-82271000D02*
X204872000Y-81377200D01*
X225230000Y-73846000D02*
X225044000Y-73660000D01*
D50*
X202673656Y-78077000D02*
X202828656Y-78232000D01*
D52*
X234442000Y-81146000D02*
X232664000Y-81146000D01*
D50*
X218694000Y-53340000D02*
X219964000Y-52070000D01*
D47*
X229088000Y-70846000D02*
X226797000Y-70846000D01*
X227956800Y-73846000D02*
X226797000Y-73846000D01*
D50*
X213868000Y-54102000D02*
X213868000Y-55372000D01*
D48*
X229412500Y-71845000D02*
X229412500Y-72447550D01*
X228637000Y-71845000D02*
X228193600Y-72288400D01*
D50*
X220013000Y-51767000D02*
X220013000Y-48975000D01*
X188468000Y-72915000D02*
X186229000Y-72915000D01*
D48*
X231681845Y-72672400D02*
X231710245Y-72644000D01*
D52*
X229496000Y-81146000D02*
X228600000Y-82042000D01*
D50*
X227111000Y-51851000D02*
X225552000Y-51851000D01*
D47*
X213372000Y-80822500D02*
X213372000Y-82271000D01*
D50*
X193802000Y-79502000D02*
X197866000Y-79502000D01*
D48*
X204724000Y-59436000D02*
X210312000Y-59436000D01*
D50*
X219964000Y-52070000D02*
X219964000Y-51816000D01*
X228092000Y-89001600D02*
X228092000Y-85090000D01*
D49*
X224663000Y-73660000D02*
X225044000Y-73660000D01*
D50*
X193954400Y-52019200D02*
X192739000Y-50803800D01*
D47*
X211372000Y-58376000D02*
X211328000Y-58420000D01*
D50*
X200103800Y-78077000D02*
X202673656Y-78077000D01*
D47*
X224766000Y-91210000D02*
X223073000Y-91210000D01*
D53*
X234875000Y-79231500D02*
X234875000Y-80713000D01*
D48*
X224891600Y-76073000D02*
X224155000Y-76073000D01*
D50*
X198678800Y-79502000D02*
X198678800Y-80314800D01*
D47*
X226797000Y-64346000D02*
X228176000Y-64346000D01*
X222250000Y-80518000D02*
X222872000Y-81140000D01*
X216372000Y-81244000D02*
X216372000Y-82271000D01*
D49*
X203302500Y-56921000D02*
X202717000Y-56921000D01*
X213930500Y-80772000D02*
X213676500Y-80518000D01*
D47*
X228193600Y-73609200D02*
X227956800Y-73846000D01*
X226797000Y-75346000D02*
X225617950Y-75346000D01*
X204872000Y-81377200D02*
X204470000Y-80975200D01*
D48*
X231710245Y-72644000D02*
X232527000Y-72644000D01*
D49*
X215900000Y-80772000D02*
X213930500Y-80772000D01*
D48*
X211328000Y-58420000D02*
X213868000Y-58420000D01*
D50*
X227318999Y-82550000D02*
X227330000Y-82550000D01*
X232527000Y-81009000D02*
X232664000Y-81146000D01*
D47*
X229257500Y-78846000D02*
X226797000Y-78846000D01*
D50*
X197866000Y-79502000D02*
X198678800Y-79502000D01*
D47*
X228498400Y-68072000D02*
X228224400Y-68346000D01*
X211372000Y-56921000D02*
X211372000Y-58376000D01*
D50*
X193954400Y-53340000D02*
X193954400Y-52019200D01*
D52*
X228600000Y-82042000D02*
X228600000Y-83058000D01*
D49*
X224155000Y-76073000D02*
X223774000Y-75692000D01*
D48*
X229412500Y-72447550D02*
X229608950Y-72644000D01*
D50*
X227076000Y-51816000D02*
X227111000Y-51851000D01*
X197859000Y-62687500D02*
X190804500Y-62687500D01*
X199543000Y-62077000D02*
X202793000Y-62077000D01*
X232527000Y-64516000D02*
X229357500Y-64516000D01*
D47*
X223872000Y-55634500D02*
X223872000Y-56921000D01*
D52*
X235338000Y-81146000D02*
X234442000Y-81146000D01*
D48*
X228348500Y-64518500D02*
X229355000Y-64518500D01*
D47*
X226797000Y-64846000D02*
X226797000Y-64346000D01*
X201447000Y-70846000D02*
X202926000Y-70846000D01*
D50*
X222474344Y-88285000D02*
X223119000Y-88285000D01*
D51*
X229863000Y-80885000D02*
X230124000Y-81146000D01*
D49*
X202438000Y-56642000D02*
X202058288Y-56262288D01*
D47*
X228470000Y-61846000D02*
X226797000Y-61846000D01*
D49*
X223774000Y-74549000D02*
X224663000Y-73660000D01*
D52*
X232664000Y-81146000D02*
X230124000Y-81146000D01*
D47*
X225617950Y-75346000D02*
X224891600Y-76072350D01*
D52*
X230124000Y-81146000D02*
X229496000Y-81146000D01*
D47*
X199644000Y-81280000D02*
X199703000Y-81221000D01*
D50*
X225552000Y-51851000D02*
X225552000Y-53954500D01*
X217678000Y-53340000D02*
X218694000Y-53340000D01*
D48*
X229412500Y-71170500D02*
X229088000Y-70846000D01*
D50*
X222474344Y-88285000D02*
X221379000Y-88285000D01*
D47*
X215372000Y-56921000D02*
X215372000Y-58220500D01*
D48*
X210312000Y-59436000D02*
X211328000Y-58420000D01*
D50*
X190804500Y-62687500D02*
X188468000Y-65024000D01*
X192739000Y-50803800D02*
X192739000Y-48975000D01*
X232527000Y-68072000D02*
X229357500Y-68072000D01*
D47*
X228498400Y-68072000D02*
X229352500Y-68072000D01*
D50*
X224028000Y-87376000D02*
X224028000Y-85852000D01*
D48*
X230564755Y-72644000D02*
X230593155Y-72672400D01*
D53*
X238022241Y-86229000D02*
X238022241Y-81267759D01*
D50*
X188468000Y-78689200D02*
X187674200Y-79483000D01*
D47*
X202926000Y-70846000D02*
X203200000Y-71120000D01*
X228176000Y-64346000D02*
X228348500Y-64518500D01*
D48*
X213676500Y-80518000D02*
X213372000Y-80822500D01*
D50*
X227180100Y-89913500D02*
X228092000Y-89001600D01*
X225552000Y-53954500D02*
X224819500Y-54687000D01*
D49*
X202717000Y-56921000D02*
X202438000Y-56642000D01*
D50*
X188468000Y-77470000D02*
X188468000Y-78689200D01*
D48*
X230593155Y-72672400D02*
X231681845Y-72672400D01*
D50*
X187674200Y-79483000D02*
X186229000Y-79483000D01*
D47*
X224819500Y-54687000D02*
X223872000Y-55634500D01*
D49*
X223774000Y-75692000D02*
X223774000Y-74549000D01*
D50*
X224028000Y-85852000D02*
X225806000Y-84074000D01*
D49*
X228600000Y-61976000D02*
X232527000Y-61976000D01*
D47*
X228224400Y-68346000D02*
X226797000Y-68346000D01*
X203872000Y-58584000D02*
X203872000Y-56921000D01*
D50*
X197859000Y-62687500D02*
X198932500Y-62687500D01*
D49*
X203200000Y-65024000D02*
X203200000Y-62484000D01*
D50*
X225806000Y-84074000D02*
X227330000Y-84074000D01*
X219964000Y-51816000D02*
X227076000Y-51816000D01*
X232527000Y-72644000D02*
X232527000Y-81009000D01*
D47*
X228193600Y-72288400D02*
X228193600Y-73609200D01*
D48*
X229412500Y-71845000D02*
X228637000Y-71845000D01*
D50*
X214630000Y-53340000D02*
X213868000Y-54102000D01*
X188468000Y-65024000D02*
X188468000Y-72915000D01*
X217678000Y-53340000D02*
X214630000Y-53340000D01*
D52*
X238144000Y-81146000D02*
X235338000Y-81146000D01*
D50*
X188468000Y-72915000D02*
X188468000Y-77470000D01*
X225286999Y-80518000D02*
X227318999Y-82550000D01*
D48*
X229608950Y-72644000D02*
X230564755Y-72644000D01*
D47*
X226797000Y-73846000D02*
X225230000Y-73846000D01*
X222250000Y-80772000D02*
X221872000Y-81150000D01*
X228600000Y-61976000D02*
X228470000Y-61846000D01*
X222872000Y-81140000D02*
X222872000Y-82271000D01*
D50*
X222250000Y-80518000D02*
X225286999Y-80518000D01*
D47*
X204470000Y-80975200D02*
X202015200Y-80975200D01*
X203086000Y-78346000D02*
X203200000Y-78232000D01*
D51*
X229863000Y-79451500D02*
X229863000Y-80885000D01*
D50*
X198678800Y-79502000D02*
X200103800Y-78077000D01*
D49*
X225843000Y-90133000D02*
X224766000Y-91210000D01*
X223478000Y-101812000D02*
X223012000Y-101346000D01*
X223478000Y-102934000D02*
X223478000Y-101812000D01*
D47*
X216662000Y-78232000D02*
X215646000Y-78232000D01*
X219938500Y-86360000D02*
X220148000Y-86569500D01*
X220148000Y-86569500D02*
X220148000Y-88285000D01*
X218440000Y-80010000D02*
X216662000Y-78232000D01*
X213260000Y-75846000D02*
X201447000Y-75846000D01*
X215646000Y-78232000D02*
X213260000Y-75846000D01*
X206502000Y-85852000D02*
X205372000Y-84722000D01*
X213948165Y-85852000D02*
X206502000Y-85852000D01*
X205372000Y-84722000D02*
X205372000Y-82271000D01*
X215148000Y-87051835D02*
X213948165Y-85852000D01*
X215148000Y-88285000D02*
X215148000Y-87051835D01*
X215648000Y-86616000D02*
X214376000Y-85344000D01*
X205872000Y-84206000D02*
X205872000Y-82271000D01*
X214376000Y-85344000D02*
X207010000Y-85344000D01*
X215648000Y-88285000D02*
X215648000Y-86616000D01*
X207010000Y-85344000D02*
X205872000Y-84206000D01*
D48*
X218694000Y-78232000D02*
X218694000Y-77216000D01*
D47*
X216148000Y-85592000D02*
X215900000Y-85344000D01*
D48*
X214872000Y-73394000D02*
X214872000Y-59182000D01*
D47*
X216148000Y-88285000D02*
X216148000Y-85592000D01*
X214872000Y-59182000D02*
X214872000Y-56921000D01*
D48*
X218694000Y-77216000D02*
X214872000Y-73394000D01*
D47*
X209042000Y-83820000D02*
X209372000Y-83490000D01*
X211120000Y-88740000D02*
X211740000Y-89360000D01*
X211120000Y-87168000D02*
X211120000Y-88740000D01*
X210692000Y-86740000D02*
X211120000Y-87168000D01*
X207772000Y-84328000D02*
X208280000Y-83820000D01*
X206436500Y-86740000D02*
X210692000Y-86740000D01*
X214648000Y-89090330D02*
X214648000Y-88285000D01*
X206248000Y-86551500D02*
X206436500Y-86740000D01*
X208280000Y-83820000D02*
X209042000Y-83820000D01*
X209372000Y-83490000D02*
X209372000Y-82271000D01*
X214378330Y-89360000D02*
X214648000Y-89090330D01*
X211740000Y-89360000D02*
X214378330Y-89360000D01*
X219148000Y-85625244D02*
X219148000Y-88285000D01*
X218948000Y-84136500D02*
X219872000Y-83212500D01*
X219872000Y-83212500D02*
X219872000Y-82271000D01*
X219188622Y-85584622D02*
X219148000Y-85625244D01*
X218948000Y-84836000D02*
X222504000Y-84836000D01*
X222504000Y-84836000D02*
X223372000Y-83968000D01*
X223372000Y-83968000D02*
X223372000Y-82271000D01*
X218488622Y-85295378D02*
X218948000Y-84836000D01*
X218488622Y-86205422D02*
X218488622Y-85295378D01*
X218648000Y-86364800D02*
X218488622Y-86205422D01*
X218648000Y-88285000D02*
X218648000Y-86364800D01*
X222250000Y-59690000D02*
X222250000Y-59134665D01*
X221372000Y-58256665D02*
X221372000Y-56921000D01*
X210312000Y-88138000D02*
X210312000Y-90424000D01*
X222250000Y-59134665D02*
X221372000Y-58256665D01*
X210312000Y-90424000D02*
X210598000Y-90710000D01*
X210598000Y-90710000D02*
X211723000Y-90710000D01*
X219456000Y-62484000D02*
X222250000Y-59690000D01*
X214148000Y-87041078D02*
X213763211Y-86656289D01*
X214148000Y-88285000D02*
X214148000Y-87041078D01*
X220872000Y-59328000D02*
X220872000Y-56921000D01*
X220980000Y-59436000D02*
X220872000Y-59328000D01*
X208120000Y-89248000D02*
X210082000Y-91210000D01*
X210082000Y-91210000D02*
X211723000Y-91210000D01*
X208120000Y-87740000D02*
X208120000Y-89248000D01*
X210005833Y-84529833D02*
X210872000Y-83663666D01*
X210872000Y-83663666D02*
X210872000Y-82271000D01*
D49*
X222208000Y-109516000D02*
X220838500Y-110885500D01*
X219699100Y-110885500D02*
X219953000Y-110885500D01*
X217988600Y-109175000D02*
X219699100Y-110885500D01*
X222208000Y-108284000D02*
X222208000Y-109516000D01*
X217391000Y-109175000D02*
X217988600Y-109175000D01*
X220838500Y-110885500D02*
X219953000Y-110885500D01*
D47*
X232290500Y-113149500D02*
X232290500Y-112533000D01*
D49*
X228522500Y-114819000D02*
X225421000Y-114819000D01*
D47*
X229283500Y-113792000D02*
X231648000Y-113792000D01*
X228256500Y-114819000D02*
X229283500Y-113792000D01*
X231648000Y-113792000D02*
X232290500Y-113149500D01*
X202826846Y-103192354D02*
X202562200Y-103457000D01*
D49*
X202629000Y-97599000D02*
X203486154Y-97599000D01*
D47*
X202826846Y-100820446D02*
X202826846Y-103192354D01*
X201923654Y-100222054D02*
X202184000Y-100482400D01*
X202488800Y-100482400D02*
X202826846Y-100820446D01*
D49*
X201923654Y-99455000D02*
X201923654Y-98304346D01*
X201923654Y-98304346D02*
X202629000Y-97599000D01*
D47*
X202562200Y-103457000D02*
X201842136Y-103457000D01*
X202184000Y-100482400D02*
X202488800Y-100482400D01*
X201923654Y-99455000D02*
X201923654Y-100222054D01*
D49*
X199739568Y-103213846D02*
X201598982Y-103213846D01*
D50*
X217007000Y-105741000D02*
X217007000Y-103793500D01*
X213868000Y-109220000D02*
X215823000Y-111175000D01*
X213868000Y-108204000D02*
X213868000Y-109220000D01*
X215823000Y-111175000D02*
X217391000Y-111175000D01*
D53*
X189992000Y-102616000D02*
X189992000Y-100496000D01*
X189992000Y-100496000D02*
X190075000Y-100413000D01*
D47*
X214630000Y-99617000D02*
X214648000Y-99635000D01*
D50*
X190327759Y-103475000D02*
X189992000Y-103810759D01*
D52*
X194186500Y-103475000D02*
X192587400Y-103475000D01*
D53*
X191121820Y-104940580D02*
X192583000Y-106401759D01*
X189992000Y-103810759D02*
X191121820Y-104940580D01*
X189992000Y-102616000D02*
X189992000Y-103810759D01*
D52*
X192587400Y-103475000D02*
X191121820Y-104940580D01*
D48*
X200914000Y-108458000D02*
X201172000Y-108716000D01*
X198628000Y-107950000D02*
X199136000Y-108458000D01*
D49*
X202472000Y-108716000D02*
X203704000Y-108716000D01*
X204216000Y-109228000D02*
X204216000Y-110744000D01*
X198120000Y-107442000D02*
X198120000Y-102850600D01*
X198120000Y-102850600D02*
X199483600Y-101487000D01*
X199739568Y-101213846D02*
X201716192Y-101213846D01*
D48*
X201989346Y-101487000D02*
X199483600Y-101487000D01*
D49*
X204216000Y-110744000D02*
X202911284Y-112048716D01*
X198628000Y-107950000D02*
X198120000Y-107442000D01*
D48*
X201172000Y-108716000D02*
X202472000Y-108716000D01*
D49*
X203704000Y-108716000D02*
X204216000Y-109228000D01*
D48*
X199136000Y-108458000D02*
X200914000Y-108458000D01*
D49*
X202911284Y-112048716D02*
X202911284Y-113125000D01*
D51*
X213580500Y-112776000D02*
X216408000Y-112776000D01*
X217073000Y-113441000D02*
X217073000Y-114601000D01*
D49*
X205472426Y-113057500D02*
X206377100Y-113057500D01*
D51*
X211169000Y-115187500D02*
X213580500Y-112776000D01*
D49*
X206908400Y-113588800D02*
X206908400Y-114909600D01*
X206377100Y-113057500D02*
X206908400Y-113588800D01*
X208191142Y-115062000D02*
X208254142Y-115125000D01*
X207060800Y-115062000D02*
X208191142Y-115062000D01*
X206908400Y-114909600D02*
X207060800Y-115062000D01*
D51*
X216408000Y-112776000D02*
X217073000Y-113441000D01*
X210495000Y-115187500D02*
X211169000Y-115187500D01*
X210495000Y-115187500D02*
X208316642Y-115187500D01*
D49*
X211074000Y-108966000D02*
X210054000Y-109986000D01*
X206248000Y-110236000D02*
X206498000Y-109986000D01*
X206498000Y-109986000D02*
X207822000Y-109986000D01*
X210054000Y-109986000D02*
X207822000Y-109986000D01*
D52*
X244172500Y-96903300D02*
X245325000Y-98055800D01*
X245325000Y-98055800D02*
X245325000Y-99275000D01*
X244545000Y-93405500D02*
X244545000Y-95512500D01*
X247555000Y-96629976D02*
X247555000Y-98342200D01*
X243902600Y-99275000D02*
X243121100Y-98493500D01*
X247555000Y-98342200D02*
X246622200Y-99275000D01*
X244172500Y-95885000D02*
X244172500Y-96903300D01*
X243121100Y-98493500D02*
X240937000Y-98493500D01*
X245325000Y-99275000D02*
X243902600Y-99275000D01*
X244545000Y-95512500D02*
X244172500Y-95885000D01*
X246622200Y-99275000D02*
X245325000Y-99275000D01*
D50*
X214785500Y-105678500D02*
X214785500Y-103759000D01*
X205472426Y-115132500D02*
X202918784Y-115132500D01*
D47*
X226797000Y-65846000D02*
X225719950Y-65846000D01*
X225017950Y-66548000D02*
X225044000Y-66548000D01*
X225719950Y-65846000D02*
X225017950Y-66548000D01*
X225171000Y-97645000D02*
X224736000Y-97210000D01*
X224736000Y-97210000D02*
X223073000Y-97210000D01*
X226187000Y-96774000D02*
X226123000Y-96710000D01*
X226123000Y-96710000D02*
X223073000Y-96710000D01*
X221397000Y-100710000D02*
X221523000Y-100584000D01*
X219785200Y-100710000D02*
X221397000Y-100710000D01*
X219648000Y-99635000D02*
X219648000Y-100572800D01*
X221523000Y-100584000D02*
X223266000Y-100584000D01*
X219648000Y-100572800D02*
X219785200Y-100710000D01*
D49*
X201621200Y-109986000D02*
X201472800Y-110134400D01*
D51*
X240834000Y-104616000D02*
X240834000Y-101571500D01*
D52*
X199913000Y-111091500D02*
X199904900Y-111099600D01*
D49*
X202472000Y-109986000D02*
X201621200Y-109986000D01*
D52*
X241283500Y-101815000D02*
X240937000Y-101468500D01*
X193109000Y-112097400D02*
X193109000Y-113441000D01*
X198120000Y-111099600D02*
X197873105Y-110852705D01*
X245325000Y-101815000D02*
X241283500Y-101815000D01*
D49*
X201472800Y-110794800D02*
X201930000Y-111252000D01*
D52*
X199913000Y-111091500D02*
X201769500Y-111091500D01*
D51*
X240834000Y-104616000D02*
X240834000Y-109566000D01*
D49*
X201472800Y-110134400D02*
X201472800Y-110794800D01*
D52*
X197873105Y-110852705D02*
X194353695Y-110852705D01*
X194353695Y-110852705D02*
X193109000Y-112097400D01*
X199904900Y-111099600D02*
X198120000Y-111099600D01*
D50*
X245207500Y-104463000D02*
X245207500Y-101932500D01*
D52*
X201769500Y-111091500D02*
X201930000Y-111252000D01*
D50*
X234353000Y-112195500D02*
X234015500Y-112533000D01*
X234353000Y-110313000D02*
X234353000Y-112195500D01*
X237024000Y-108500000D02*
X236728000Y-108204000D01*
X236728000Y-108204000D02*
X233680000Y-108204000D01*
X237024000Y-109566000D02*
X237024000Y-108500000D01*
X237773000Y-113562241D02*
X237024000Y-112813241D01*
X237024000Y-112813241D02*
X237024000Y-109566000D01*
D48*
X222208000Y-102119654D02*
X221491442Y-101403096D01*
X222208000Y-102934000D02*
X222208000Y-102119654D01*
D47*
X213178000Y-97210000D02*
X211723000Y-97210000D01*
D49*
X193405000Y-72284000D02*
X193405000Y-70755000D01*
X196377250Y-69850000D02*
X197677000Y-71149750D01*
X197677000Y-71149750D02*
X197677000Y-71368500D01*
D47*
X197677000Y-71693000D02*
X199830000Y-73846000D01*
X199830000Y-73846000D02*
X201447000Y-73846000D01*
D49*
X193405000Y-70755000D02*
X194310000Y-69850000D01*
X194310000Y-69850000D02*
X196377250Y-69850000D01*
D51*
X195093000Y-114787000D02*
X194439000Y-115441000D01*
X194439000Y-115441000D02*
X193109000Y-115441000D01*
X196258000Y-114787000D02*
X195093000Y-114787000D01*
D47*
X227666000Y-58846000D02*
X226797000Y-58846000D01*
X228092000Y-58420000D02*
X227666000Y-58846000D01*
X228092000Y-57404000D02*
X228092000Y-58420000D01*
X221488000Y-54864000D02*
X221488000Y-54914800D01*
X221488000Y-54914800D02*
X222372000Y-55798800D01*
X222372000Y-55798800D02*
X222372000Y-56921000D01*
D49*
X223315000Y-114713000D02*
X219725000Y-114713000D01*
D53*
X236498241Y-53315759D02*
X236498241Y-54733000D01*
D50*
X239776000Y-51208000D02*
X239727000Y-51159000D01*
D53*
X245806500Y-89057000D02*
X247396000Y-87467500D01*
X239727000Y-51504241D02*
X238309759Y-51504241D01*
X244058500Y-89057000D02*
X245806500Y-89057000D01*
X239776000Y-54454759D02*
X239776000Y-51208000D01*
X238309759Y-51504241D02*
X236498241Y-53315759D01*
X242744241Y-57423000D02*
X239776000Y-54454759D01*
X246907000Y-57423000D02*
X247396000Y-57912000D01*
X247396000Y-57912000D02*
X247396000Y-87467500D01*
X244877000Y-60471000D02*
X244877000Y-57423000D01*
D52*
X244545000Y-89543500D02*
X244058500Y-89057000D01*
D53*
X239727000Y-51159000D02*
X239727000Y-49127000D01*
D50*
X239727000Y-51159000D02*
X239727000Y-51504241D01*
D53*
X244877000Y-57423000D02*
X246907000Y-57423000D01*
D52*
X244545000Y-91580500D02*
X244545000Y-89543500D01*
D53*
X244877000Y-57423000D02*
X242744241Y-57423000D01*
D47*
X207772000Y-94996000D02*
X208058000Y-94710000D01*
X208058000Y-94710000D02*
X211723000Y-94710000D01*
X207772000Y-96266000D02*
X208828000Y-95210000D01*
X208828000Y-95210000D02*
X211723000Y-95210000D01*
X206526000Y-94210000D02*
X211723000Y-94210000D01*
X206031000Y-95641580D02*
X206031000Y-94705000D01*
X206031000Y-94705000D02*
X206526000Y-94210000D01*
X204486000Y-93710000D02*
X203504800Y-94691200D01*
X211723000Y-93710000D02*
X204486000Y-93710000D01*
X203504800Y-94691200D02*
X203504800Y-95281096D01*
D52*
X194818000Y-81534000D02*
X195072000Y-81280000D01*
X192845000Y-84337000D02*
X194818000Y-84337000D01*
D47*
X201447000Y-74846000D02*
X203538000Y-74846000D01*
D52*
X194818000Y-84337000D02*
X200045000Y-84337000D01*
X194818000Y-84337000D02*
X194818000Y-81534000D01*
D47*
X203538000Y-74846000D02*
X203708000Y-74676000D01*
D50*
X228092000Y-108712000D02*
X228092000Y-110258000D01*
D47*
X228522500Y-108019750D02*
X228522500Y-108421000D01*
D51*
X228185000Y-112539000D02*
X228185000Y-110351000D01*
D49*
X224790000Y-104902000D02*
X226018000Y-103674000D01*
D50*
X228383000Y-108421000D02*
X228092000Y-108712000D01*
D49*
X222758000Y-104902000D02*
X224790000Y-104902000D01*
X221919000Y-105741000D02*
X222758000Y-104902000D01*
X219007000Y-105741000D02*
X221919000Y-105741000D01*
X226018000Y-103674000D02*
X226018000Y-102934000D01*
X225196400Y-109626400D02*
X224748000Y-109178000D01*
D51*
X212723000Y-106146000D02*
X212723000Y-106551000D01*
X225315000Y-110663000D02*
X225315000Y-112371500D01*
X213360000Y-107188000D02*
X221234000Y-107188000D01*
D49*
X225196400Y-109626400D02*
X225196400Y-110544400D01*
X225196400Y-110544400D02*
X225315000Y-110663000D01*
X221234000Y-107188000D02*
X221488000Y-106934000D01*
D51*
X212723000Y-106551000D02*
X213360000Y-107188000D01*
D49*
X224748000Y-108284000D02*
X224748000Y-107146000D01*
X225315000Y-112371500D02*
X224977500Y-112709000D01*
X221488000Y-106934000D02*
X224536000Y-106934000D01*
X224748000Y-109178000D02*
X224748000Y-108284000D01*
X224748000Y-107146000D02*
X224536000Y-106934000D01*
X207593500Y-99455000D02*
X207593500Y-98881500D01*
X207593500Y-98881500D02*
X206353580Y-97641580D01*
X207670400Y-99531900D02*
X207593500Y-99455000D01*
X207670400Y-100431600D02*
X207931000Y-100692200D01*
X207670400Y-100431600D02*
X207670400Y-99531900D01*
X206353580Y-97641580D02*
X206031000Y-97641580D01*
X207931000Y-100692200D02*
X207931000Y-101521000D01*
D50*
X207931000Y-101521000D02*
X207931000Y-103773278D01*
D47*
X201447000Y-72346000D02*
X200450000Y-72346000D01*
X200450000Y-72346000D02*
X200240000Y-72136000D01*
X200240000Y-72136000D02*
X199136000Y-72136000D01*
X198120000Y-67056000D02*
X199910000Y-68846000D01*
X199910000Y-68846000D02*
X201447000Y-68846000D01*
X198120000Y-64516000D02*
X198120000Y-67056000D01*
X199950000Y-72846000D02*
X199884622Y-72911378D01*
X201447000Y-72846000D02*
X199950000Y-72846000D01*
X196088000Y-66040000D02*
X199894000Y-69846000D01*
X196088000Y-64516000D02*
X196088000Y-66040000D01*
X199894000Y-69846000D02*
X201447000Y-69846000D01*
X200094314Y-71120000D02*
X200320314Y-71120000D01*
X200546314Y-71346000D02*
X201447000Y-71346000D01*
X194789157Y-65814843D02*
X200094314Y-71120000D01*
X200320314Y-71120000D02*
X200546314Y-71346000D01*
X201447000Y-73346000D02*
X203006000Y-73346000D01*
D49*
X186229000Y-82023000D02*
X189757000Y-82023000D01*
X189757000Y-82023000D02*
X192024000Y-79756000D01*
D47*
X203006000Y-73346000D02*
X203195076Y-73156924D01*
X199125415Y-71135465D02*
X199120535Y-71135465D01*
X200405686Y-71736000D02*
X199725950Y-71736000D01*
X199725950Y-71736000D02*
X199125415Y-71135465D01*
X200515686Y-71846000D02*
X200405686Y-71736000D01*
X201447000Y-71846000D02*
X200515686Y-71846000D01*
D49*
X195580000Y-75184000D02*
X196798834Y-76402834D01*
X196798834Y-76402834D02*
X197677000Y-76402834D01*
X205931000Y-104965000D02*
X203450000Y-107446000D01*
X199959568Y-107401500D02*
X202427500Y-107401500D01*
X205931000Y-103457000D02*
X205931000Y-104965000D01*
X203450000Y-107446000D02*
X202472000Y-107446000D01*
X203842136Y-103457000D02*
X203842136Y-105783864D01*
X203714346Y-101487000D02*
X203714346Y-103329210D01*
X203842136Y-105783864D02*
X203450000Y-106176000D01*
X203450000Y-106176000D02*
X202472000Y-106176000D01*
X209404330Y-107446000D02*
X207822000Y-107446000D01*
X209908330Y-107950000D02*
X209404330Y-107446000D01*
X206248000Y-106934000D02*
X206248000Y-108100849D01*
X206248000Y-108100849D02*
X206863151Y-108716000D01*
X206863151Y-108716000D02*
X207822000Y-108716000D01*
D47*
X220872000Y-80664000D02*
X220827600Y-80619600D01*
X220872000Y-82271000D02*
X220872000Y-80664000D01*
X229684000Y-73592500D02*
X229464100Y-73812400D01*
X228854000Y-73812400D02*
X228320400Y-74346000D01*
X229464100Y-73812400D02*
X228854000Y-73812400D01*
X228320400Y-74346000D02*
X226797000Y-74346000D01*
X224872000Y-56921000D02*
X224872000Y-58928000D01*
X205372000Y-56921000D02*
X205372000Y-55486000D01*
X205372000Y-55486000D02*
X205486000Y-55372000D01*
G04 #@! TA.AperFunction,Conductor*
G36*
X197555039Y-93999685D02*
G01*
X197600794Y-94052489D01*
X197612000Y-94104000D01*
X197612000Y-101984000D01*
X197592315Y-102051039D01*
X197539511Y-102096794D01*
X197488000Y-102108000D01*
X191078500Y-102108000D01*
X191011461Y-102088315D01*
X190965706Y-102035511D01*
X190954500Y-101984000D01*
X190954500Y-101487500D01*
X190974185Y-101420461D01*
X191026989Y-101374706D01*
X191078500Y-101363500D01*
X191094749Y-101363500D01*
X191123989Y-101357683D01*
X191153231Y-101351867D01*
X191219552Y-101307552D01*
X191263867Y-101241231D01*
X191275500Y-101182748D01*
X191275500Y-99643252D01*
X191263867Y-99584769D01*
X191219552Y-99518447D01*
X191153230Y-99474132D01*
X191094749Y-99462500D01*
X191094748Y-99462500D01*
X190251123Y-99462500D01*
X190223093Y-99459290D01*
X190210500Y-99456368D01*
X190197225Y-99453287D01*
X190001539Y-99448328D01*
X189950020Y-99457562D01*
X189933322Y-99460555D01*
X189911448Y-99462500D01*
X189100000Y-99462500D01*
X189032961Y-99442815D01*
X188987206Y-99390011D01*
X188976000Y-99338500D01*
X188976000Y-96899500D01*
X188995685Y-96832461D01*
X189048489Y-96786706D01*
X189100000Y-96775500D01*
X190120673Y-96775500D01*
X190123815Y-96775500D01*
X190235566Y-96764136D01*
X190248112Y-96763500D01*
X191094749Y-96763500D01*
X191123989Y-96757683D01*
X191153231Y-96751867D01*
X191219552Y-96707552D01*
X191263867Y-96641231D01*
X191275500Y-96582748D01*
X191275500Y-95043252D01*
X191263867Y-94984769D01*
X191219552Y-94918447D01*
X191153230Y-94874132D01*
X191094749Y-94862500D01*
X191094748Y-94862500D01*
X190243880Y-94862500D01*
X190218919Y-94859962D01*
X190172877Y-94850500D01*
X189100000Y-94850500D01*
X189032961Y-94830815D01*
X188987206Y-94778011D01*
X188976000Y-94726500D01*
X188976000Y-94104000D01*
X188995685Y-94036961D01*
X189048489Y-93991206D01*
X189100000Y-93980000D01*
X197488000Y-93980000D01*
X197555039Y-93999685D01*
G37*
G04 #@! TD.AperFunction*
G04 #@! TA.AperFunction,Conductor*
G36*
X230448039Y-77235685D02*
G01*
X230493794Y-77288489D01*
X230505000Y-77340000D01*
X230505000Y-78235000D01*
X230485315Y-78302039D01*
X230432511Y-78347794D01*
X230381000Y-78359000D01*
X228470000Y-78359000D01*
X228402961Y-78339315D01*
X228357206Y-78286511D01*
X228346000Y-78235000D01*
X228346000Y-77340000D01*
X228365685Y-77272961D01*
X228418489Y-77227206D01*
X228470000Y-77216000D01*
X230381000Y-77216000D01*
X230448039Y-77235685D01*
G37*
G04 #@! TD.AperFunction*
G04 #@! TA.AperFunction,Conductor*
G36*
X218129039Y-86278085D02*
G01*
X218174794Y-86330889D01*
X218186000Y-86382400D01*
X218186000Y-88826800D01*
X218166315Y-88893839D01*
X218113511Y-88939594D01*
X218062000Y-88950800D01*
X217141600Y-88950800D01*
X217074561Y-88931115D01*
X217028806Y-88878311D01*
X217017600Y-88826800D01*
X217017600Y-86382400D01*
X217037285Y-86315361D01*
X217090089Y-86269606D01*
X217141600Y-86258400D01*
X218062000Y-86258400D01*
X218129039Y-86278085D01*
G37*
G04 #@! TD.AperFunction*
G04 #@! TA.AperFunction,Conductor*
G36*
X201422000Y-66995500D02*
G01*
X200744868Y-66995500D01*
X200708080Y-67002818D01*
X200683891Y-67005200D01*
X199463200Y-67005200D01*
X199396161Y-66985515D01*
X199350406Y-66932711D01*
X199339200Y-66881200D01*
X199339200Y-65351200D01*
X199358885Y-65284161D01*
X199411689Y-65238406D01*
X199463200Y-65227200D01*
X201422000Y-65227200D01*
X201422000Y-66995500D01*
G37*
G04 #@! TD.AperFunction*
G04 #@! TA.AperFunction,Conductor*
G36*
X245815039Y-75203685D02*
G01*
X245860794Y-75256489D01*
X245872000Y-75308000D01*
X245872000Y-82172000D01*
X245852315Y-82239039D01*
X245799511Y-82284794D01*
X245748000Y-82296000D01*
X239315021Y-82296000D01*
X239247982Y-82276315D01*
X239202227Y-82223511D01*
X239192283Y-82154353D01*
X239221308Y-82090797D01*
X239246130Y-82068898D01*
X239288552Y-82040552D01*
X239332867Y-81974231D01*
X239344500Y-81915748D01*
X239344500Y-80376252D01*
X239332867Y-80317769D01*
X239308785Y-80281728D01*
X239288552Y-80251447D01*
X239222230Y-80207132D01*
X239163749Y-80195500D01*
X239163748Y-80195500D01*
X237124252Y-80195500D01*
X237124251Y-80195500D01*
X237065769Y-80207132D01*
X236999446Y-80251448D01*
X236955100Y-80317816D01*
X236901487Y-80362621D01*
X236832162Y-80371327D01*
X236769135Y-80341171D01*
X236732417Y-80281728D01*
X236728000Y-80248931D01*
X236728000Y-77632500D01*
X236747685Y-77565460D01*
X236800489Y-77519706D01*
X236852000Y-77508500D01*
X238189673Y-77508500D01*
X238192815Y-77508500D01*
X238304566Y-77497136D01*
X238317112Y-77496500D01*
X239163749Y-77496500D01*
X239192989Y-77490683D01*
X239222231Y-77484867D01*
X239288552Y-77440552D01*
X239332867Y-77374231D01*
X239344500Y-77315748D01*
X239344500Y-75776252D01*
X239332867Y-75717769D01*
X239332866Y-75717769D01*
X239288552Y-75651447D01*
X239222230Y-75607132D01*
X239163749Y-75595500D01*
X239163748Y-75595500D01*
X238929500Y-75595500D01*
X238862461Y-75575815D01*
X238816706Y-75523011D01*
X238805500Y-75471500D01*
X238805500Y-75308000D01*
X238825185Y-75240961D01*
X238877989Y-75195206D01*
X238929500Y-75184000D01*
X245748000Y-75184000D01*
X245815039Y-75203685D01*
G37*
G04 #@! TD.AperFunction*
G04 #@! TA.AperFunction,Conductor*
G36*
X203905039Y-56407685D02*
G01*
X203950794Y-56460489D01*
X203962000Y-56512000D01*
X203962000Y-57280000D01*
X203942315Y-57347039D01*
X203889511Y-57392794D01*
X203838000Y-57404000D01*
X203324000Y-57404000D01*
X203256961Y-57384315D01*
X203211206Y-57331511D01*
X203200000Y-57280000D01*
X203200000Y-56512000D01*
X203219685Y-56444961D01*
X203272489Y-56399206D01*
X203324000Y-56388000D01*
X203838000Y-56388000D01*
X203905039Y-56407685D01*
G37*
G04 #@! TD.AperFunction*
G04 #@! TA.AperFunction,Conductor*
G36*
X223964539Y-56153685D02*
G01*
X224010294Y-56206489D01*
X224021500Y-56258000D01*
X224021500Y-57233825D01*
X224020238Y-57251470D01*
X224016999Y-57274000D01*
X224016999Y-57534000D01*
X223997314Y-57601039D01*
X223944510Y-57646794D01*
X223892999Y-57658000D01*
X223765997Y-57658000D01*
X223733193Y-57653582D01*
X223675993Y-57637890D01*
X223675975Y-57637885D01*
X223674150Y-57637385D01*
X223672305Y-57636998D01*
X223672287Y-57636994D01*
X223649549Y-57632229D01*
X223558378Y-57639451D01*
X223517233Y-57652335D01*
X223480181Y-57658000D01*
X223390000Y-57658000D01*
X223322961Y-57638315D01*
X223277206Y-57585511D01*
X223266000Y-57534000D01*
X223266000Y-56258000D01*
X223285685Y-56190961D01*
X223338489Y-56145206D01*
X223390000Y-56134000D01*
X223897500Y-56134000D01*
X223964539Y-56153685D01*
G37*
G04 #@! TD.AperFunction*
G04 #@! TA.AperFunction,Conductor*
G36*
X201684907Y-80716184D02*
G01*
X201730662Y-80768988D01*
X201740606Y-80838146D01*
X201737134Y-80854433D01*
X201710798Y-80946991D01*
X201716539Y-81008941D01*
X201721165Y-81058860D01*
X201726171Y-81068913D01*
X201771241Y-81159427D01*
X201771242Y-81159428D01*
X201854267Y-81235116D01*
X201959027Y-81275700D01*
X203447689Y-81275700D01*
X203514728Y-81295385D01*
X203560483Y-81348189D01*
X203570427Y-81417347D01*
X203550791Y-81468591D01*
X203537485Y-81488504D01*
X203537484Y-81488505D01*
X203537485Y-81488505D01*
X203521500Y-81568867D01*
X203521500Y-82172001D01*
X203501817Y-82239039D01*
X203449013Y-82284794D01*
X203397501Y-82296000D01*
X201546000Y-82296000D01*
X201478961Y-82276315D01*
X201433206Y-82223511D01*
X201422000Y-82172000D01*
X201422000Y-80820499D01*
X201441685Y-80753460D01*
X201494489Y-80707705D01*
X201545998Y-80696499D01*
X201617868Y-80696499D01*
X201684907Y-80716184D01*
G37*
G04 #@! TD.AperFunction*
G04 #@! TA.AperFunction,Conductor*
G36*
X204380144Y-81311013D02*
G01*
X204388309Y-81318480D01*
X204494077Y-81424248D01*
X204527562Y-81485571D01*
X204528013Y-81536118D01*
X204521500Y-81568867D01*
X204521500Y-82172001D01*
X204501817Y-82239039D01*
X204449013Y-82284794D01*
X204397501Y-82296000D01*
X204346500Y-82296000D01*
X204279461Y-82276315D01*
X204233706Y-82223511D01*
X204222500Y-82172000D01*
X204222499Y-81568869D01*
X204222499Y-81568867D01*
X204206515Y-81488505D01*
X204197526Y-81475052D01*
X204176648Y-81408375D01*
X204195132Y-81340995D01*
X204247111Y-81294304D01*
X204316081Y-81283128D01*
X204380144Y-81311013D01*
G37*
G04 #@! TD.AperFunction*
G04 #@! TA.AperFunction,Conductor*
G36*
X204964540Y-57169685D02*
G01*
X205010295Y-57222489D01*
X205021501Y-57274000D01*
X205021501Y-57623131D01*
X205037485Y-57703495D01*
X205096634Y-57792018D01*
X205098376Y-57794624D01*
X205189505Y-57855515D01*
X205269867Y-57871500D01*
X205474132Y-57871499D01*
X205554495Y-57855515D01*
X205554497Y-57855513D01*
X205558808Y-57854656D01*
X205619785Y-57835563D01*
X205687165Y-57854047D01*
X205689424Y-57855499D01*
X205769862Y-57871499D01*
X205769867Y-57871500D01*
X205773125Y-57871499D01*
X205779976Y-57873511D01*
X205781846Y-57873883D01*
X205781812Y-57874050D01*
X205840163Y-57891179D01*
X205885921Y-57943980D01*
X205895869Y-58013138D01*
X205871507Y-58070984D01*
X205836076Y-58117159D01*
X205775569Y-58263237D01*
X205754930Y-58420000D01*
X205775569Y-58576762D01*
X205836076Y-58722840D01*
X205918293Y-58829988D01*
X205932331Y-58848282D01*
X205940960Y-58854903D01*
X205948546Y-58860724D01*
X205989748Y-58917152D01*
X205993903Y-58986898D01*
X205959690Y-59047819D01*
X205897973Y-59080571D01*
X205873059Y-59083100D01*
X204847433Y-59083100D01*
X204780394Y-59063415D01*
X204759752Y-59046781D01*
X204208819Y-58495848D01*
X204175334Y-58434525D01*
X204172500Y-58408167D01*
X204172500Y-57792016D01*
X204192185Y-57724977D01*
X204193399Y-57723124D01*
X204197614Y-57716816D01*
X204206515Y-57703495D01*
X204222500Y-57623133D01*
X204222499Y-57274000D01*
X204242185Y-57206961D01*
X204294989Y-57161206D01*
X204346500Y-57150000D01*
X204897501Y-57150000D01*
X204964540Y-57169685D01*
G37*
G04 #@! TD.AperFunction*
G04 #@! TA.AperFunction,Conductor*
G36*
X211964540Y-57169685D02*
G01*
X212010295Y-57222489D01*
X212021501Y-57274000D01*
X212021501Y-57623131D01*
X212037485Y-57703495D01*
X212098375Y-57794624D01*
X212166282Y-57839998D01*
X212211087Y-57893611D01*
X212219794Y-57962936D01*
X212189639Y-58025963D01*
X212130196Y-58062682D01*
X212097391Y-58067100D01*
X211796500Y-58067100D01*
X211729461Y-58047415D01*
X211683706Y-57994611D01*
X211672500Y-57943101D01*
X211672499Y-57792018D01*
X211692183Y-57724978D01*
X211693397Y-57723126D01*
X211706515Y-57703495D01*
X211722500Y-57623133D01*
X211722499Y-57274000D01*
X211742185Y-57206961D01*
X211794989Y-57161206D01*
X211846500Y-57150000D01*
X211897501Y-57150000D01*
X211964540Y-57169685D01*
G37*
G04 #@! TD.AperFunction*
G04 #@! TA.AperFunction,Conductor*
G36*
X215964540Y-57169685D02*
G01*
X216010295Y-57222489D01*
X216021501Y-57274000D01*
X216021501Y-57623131D01*
X216037485Y-57703495D01*
X216055106Y-57729867D01*
X216075984Y-57796545D01*
X216057500Y-57863925D01*
X216005521Y-57910615D01*
X215936551Y-57921791D01*
X215876518Y-57897134D01*
X215874340Y-57895463D01*
X215778029Y-57855570D01*
X215723625Y-57811729D01*
X215701560Y-57745435D01*
X215703864Y-57716816D01*
X215706513Y-57703497D01*
X215706515Y-57703495D01*
X215722500Y-57623133D01*
X215722499Y-57274000D01*
X215742185Y-57206961D01*
X215794989Y-57161206D01*
X215846500Y-57150000D01*
X215897501Y-57150000D01*
X215964540Y-57169685D01*
G37*
G04 #@! TD.AperFunction*
G04 #@! TA.AperFunction,Conductor*
G36*
X222964540Y-57169685D02*
G01*
X223010295Y-57222489D01*
X223021501Y-57274000D01*
X223021501Y-57623131D01*
X223037485Y-57703495D01*
X223096634Y-57792018D01*
X223098376Y-57794624D01*
X223189505Y-57855515D01*
X223269867Y-57871500D01*
X223474132Y-57871499D01*
X223554495Y-57855515D01*
X223554497Y-57855513D01*
X223558808Y-57854656D01*
X223619785Y-57835563D01*
X223687165Y-57854047D01*
X223689424Y-57855499D01*
X223702030Y-57858006D01*
X223769867Y-57871500D01*
X223974132Y-57871499D01*
X224054495Y-57855515D01*
X224145624Y-57794624D01*
X224206515Y-57703495D01*
X224222500Y-57623133D01*
X224222499Y-57274000D01*
X224242185Y-57206961D01*
X224294989Y-57161206D01*
X224346500Y-57150000D01*
X224397501Y-57150000D01*
X224464540Y-57169685D01*
X224510295Y-57222489D01*
X224521501Y-57274000D01*
X224521501Y-57623131D01*
X224537485Y-57703495D01*
X224550602Y-57723126D01*
X224571480Y-57789803D01*
X224571500Y-57792017D01*
X224571500Y-58340517D01*
X224551815Y-58407556D01*
X224522986Y-58438893D01*
X224443717Y-58499717D01*
X224347463Y-58625159D01*
X224286956Y-58771237D01*
X224266317Y-58928000D01*
X224286956Y-59084762D01*
X224347463Y-59230840D01*
X224443717Y-59356282D01*
X224539346Y-59429660D01*
X224569159Y-59452536D01*
X224715238Y-59513044D01*
X224872000Y-59533682D01*
X225028762Y-59513044D01*
X225174841Y-59452536D01*
X225300282Y-59356282D01*
X225396536Y-59230841D01*
X225457044Y-59084762D01*
X225477682Y-58928000D01*
X225457044Y-58771238D01*
X225396536Y-58625159D01*
X225386319Y-58611844D01*
X225300282Y-58499717D01*
X225221014Y-58438893D01*
X225179811Y-58382465D01*
X225172500Y-58340517D01*
X225172500Y-57792016D01*
X225192185Y-57724977D01*
X225193399Y-57723124D01*
X225197614Y-57716816D01*
X225206515Y-57703495D01*
X225222500Y-57623133D01*
X225222499Y-57274000D01*
X225242185Y-57206961D01*
X225294989Y-57161206D01*
X225346500Y-57150000D01*
X226696741Y-57150000D01*
X226763780Y-57169685D01*
X226809535Y-57222489D01*
X226820735Y-57275253D01*
X226809648Y-58372753D01*
X226789287Y-58439590D01*
X226736023Y-58484809D01*
X226685654Y-58495500D01*
X226094869Y-58495500D01*
X226014504Y-58511485D01*
X225923376Y-58572375D01*
X225862485Y-58663505D01*
X225846500Y-58743865D01*
X225846500Y-58948129D01*
X225863341Y-59032801D01*
X225882437Y-59093788D01*
X225863952Y-59161168D01*
X225862500Y-59163426D01*
X225846500Y-59243865D01*
X225846500Y-59448130D01*
X225863343Y-59532809D01*
X225882436Y-59593785D01*
X225863952Y-59661166D01*
X225862500Y-59663423D01*
X225846500Y-59743864D01*
X225846500Y-59948129D01*
X225863341Y-60032801D01*
X225882437Y-60093788D01*
X225863952Y-60161168D01*
X225862500Y-60163426D01*
X225846500Y-60243865D01*
X225846500Y-60448129D01*
X225863341Y-60532801D01*
X225882437Y-60593788D01*
X225863952Y-60661168D01*
X225862500Y-60663426D01*
X225846500Y-60743865D01*
X225846500Y-60948130D01*
X225863343Y-61032809D01*
X225882436Y-61093785D01*
X225863952Y-61161166D01*
X225862500Y-61163423D01*
X225846500Y-61243864D01*
X225846500Y-61448130D01*
X225863343Y-61532809D01*
X225882436Y-61593785D01*
X225863952Y-61661166D01*
X225862500Y-61663423D01*
X225846500Y-61743864D01*
X225846500Y-61948129D01*
X225863341Y-62032801D01*
X225882437Y-62093788D01*
X225863952Y-62161168D01*
X225862500Y-62163426D01*
X225846500Y-62243865D01*
X225846500Y-62448129D01*
X225863341Y-62532801D01*
X225882437Y-62593788D01*
X225863952Y-62661168D01*
X225862500Y-62663426D01*
X225846500Y-62743865D01*
X225846500Y-62948129D01*
X225863341Y-63032801D01*
X225882437Y-63093788D01*
X225863952Y-63161168D01*
X225862500Y-63163426D01*
X225846500Y-63243865D01*
X225846500Y-63448130D01*
X225863343Y-63532809D01*
X225882436Y-63593785D01*
X225863952Y-63661166D01*
X225862500Y-63663423D01*
X225846500Y-63743864D01*
X225846500Y-63948129D01*
X225863341Y-64032801D01*
X225882437Y-64093788D01*
X225863952Y-64161168D01*
X225862500Y-64163426D01*
X225846500Y-64243865D01*
X225846500Y-64448129D01*
X225863341Y-64532801D01*
X225882437Y-64593788D01*
X225863952Y-64661168D01*
X225862500Y-64663426D01*
X225846500Y-64743865D01*
X225846500Y-64948130D01*
X225846501Y-64948133D01*
X225862485Y-65028495D01*
X225923376Y-65119624D01*
X226014505Y-65180515D01*
X226094867Y-65196500D01*
X226615464Y-65196499D01*
X226682501Y-65216183D01*
X226728256Y-65268987D01*
X226739456Y-65321751D01*
X226738941Y-65372752D01*
X226718580Y-65439589D01*
X226665317Y-65484809D01*
X226614947Y-65495500D01*
X226094869Y-65495500D01*
X226014504Y-65511485D01*
X225994874Y-65524602D01*
X225928197Y-65545480D01*
X225925983Y-65545500D01*
X225789194Y-65545500D01*
X225772373Y-65542756D01*
X225729259Y-65544749D01*
X225715870Y-65545368D01*
X225710146Y-65545500D01*
X225691133Y-65545500D01*
X225676645Y-65547181D01*
X225649955Y-65548415D01*
X225643616Y-65551214D01*
X225616329Y-65559664D01*
X225609518Y-65560937D01*
X225586806Y-65574999D01*
X225571623Y-65583002D01*
X225547184Y-65593793D01*
X225542287Y-65598691D01*
X225519890Y-65616432D01*
X225513997Y-65620081D01*
X225497900Y-65641396D01*
X225486629Y-65654348D01*
X225223907Y-65917070D01*
X225162584Y-65950555D01*
X225120042Y-65952328D01*
X225044001Y-65942317D01*
X224887237Y-65962956D01*
X224741159Y-66023463D01*
X224615717Y-66119717D01*
X224519463Y-66245159D01*
X224458956Y-66391237D01*
X224438317Y-66548000D01*
X224458956Y-66704762D01*
X224519463Y-66850840D01*
X224615717Y-66976282D01*
X224683763Y-67028495D01*
X224741159Y-67072536D01*
X224887238Y-67133044D01*
X225044000Y-67153682D01*
X225200762Y-67133044D01*
X225346841Y-67072536D01*
X225472282Y-66976282D01*
X225568536Y-66850841D01*
X225607939Y-66755712D01*
X225651779Y-66701309D01*
X225718073Y-66679244D01*
X225785773Y-66696523D01*
X225833384Y-66747660D01*
X225846500Y-66803164D01*
X225846500Y-66948129D01*
X225863341Y-67032801D01*
X225882437Y-67093788D01*
X225863952Y-67161168D01*
X225862500Y-67163426D01*
X225846500Y-67243865D01*
X225846500Y-67448129D01*
X225863341Y-67532801D01*
X225882437Y-67593788D01*
X225863952Y-67661168D01*
X225862500Y-67663426D01*
X225846500Y-67743865D01*
X225846500Y-67948129D01*
X225863341Y-68032801D01*
X225882437Y-68093788D01*
X225863952Y-68161168D01*
X225862500Y-68163426D01*
X225846500Y-68243865D01*
X225846500Y-68448130D01*
X225862485Y-68528495D01*
X225884163Y-68560939D01*
X225923376Y-68619624D01*
X226014505Y-68680515D01*
X226094867Y-68696500D01*
X226580110Y-68696499D01*
X226647147Y-68716183D01*
X226692902Y-68768987D01*
X226704102Y-68821751D01*
X226703587Y-68872752D01*
X226683226Y-68939589D01*
X226629963Y-68984809D01*
X226579593Y-68995500D01*
X226094869Y-68995500D01*
X226014504Y-69011485D01*
X225923376Y-69072375D01*
X225862485Y-69163505D01*
X225846500Y-69243865D01*
X225846500Y-69448129D01*
X225863341Y-69532801D01*
X225882437Y-69593788D01*
X225863952Y-69661168D01*
X225862500Y-69663426D01*
X225846500Y-69743865D01*
X225846500Y-69948130D01*
X225862485Y-70028495D01*
X225914216Y-70105916D01*
X225923376Y-70119624D01*
X226014505Y-70180515D01*
X226094867Y-70196500D01*
X226564959Y-70196499D01*
X226631996Y-70216183D01*
X226677751Y-70268987D01*
X226688951Y-70321751D01*
X226688436Y-70372752D01*
X226668075Y-70439589D01*
X226614812Y-70484809D01*
X226564442Y-70495500D01*
X226094869Y-70495500D01*
X226014504Y-70511485D01*
X225923376Y-70572375D01*
X225862485Y-70663505D01*
X225846500Y-70743865D01*
X225846500Y-70948129D01*
X225863341Y-71032801D01*
X225882437Y-71093788D01*
X225863952Y-71161168D01*
X225862500Y-71163426D01*
X225846500Y-71243865D01*
X225846500Y-71448129D01*
X225863341Y-71532801D01*
X225882437Y-71593788D01*
X225863952Y-71661168D01*
X225862500Y-71663426D01*
X225846500Y-71743865D01*
X225846500Y-71948130D01*
X225846501Y-71948133D01*
X225862485Y-72028495D01*
X225923376Y-72119624D01*
X226014505Y-72180515D01*
X226094867Y-72196500D01*
X226544757Y-72196499D01*
X226611794Y-72216183D01*
X226657549Y-72268987D01*
X226668749Y-72321751D01*
X226668234Y-72372752D01*
X226647873Y-72439589D01*
X226594610Y-72484809D01*
X226544240Y-72495500D01*
X226094869Y-72495500D01*
X226014504Y-72511485D01*
X225923376Y-72572375D01*
X225862485Y-72663505D01*
X225846500Y-72743865D01*
X225846500Y-72948130D01*
X225863343Y-73032809D01*
X225882436Y-73093785D01*
X225863952Y-73161166D01*
X225862500Y-73163423D01*
X225846500Y-73243864D01*
X225846500Y-73404835D01*
X225826815Y-73471874D01*
X225774011Y-73517629D01*
X225704853Y-73527573D01*
X225641297Y-73498548D01*
X225607939Y-73452287D01*
X225606218Y-73448133D01*
X225568536Y-73357159D01*
X225535178Y-73313686D01*
X225472282Y-73231717D01*
X225346840Y-73135463D01*
X225200762Y-73074956D01*
X225044000Y-73054317D01*
X224887237Y-73074956D01*
X224741159Y-73135463D01*
X224682966Y-73180116D01*
X224630532Y-73203578D01*
X224589142Y-73211409D01*
X224584573Y-73212186D01*
X224521632Y-73221673D01*
X224516457Y-73223376D01*
X224460180Y-73253119D01*
X224456044Y-73255207D01*
X224398712Y-73282817D01*
X224394272Y-73285967D01*
X224349275Y-73330964D01*
X224345938Y-73334178D01*
X224299274Y-73377477D01*
X224287767Y-73392471D01*
X223475593Y-74204644D01*
X223465227Y-74213908D01*
X223437063Y-74236369D01*
X223404559Y-74284042D01*
X223401879Y-74287820D01*
X223364096Y-74339016D01*
X223361637Y-74343888D01*
X223342880Y-74404696D01*
X223341431Y-74409097D01*
X223320414Y-74469161D01*
X223319500Y-74474545D01*
X223319500Y-74538179D01*
X223319413Y-74542816D01*
X223317032Y-74606426D01*
X223319500Y-74625162D01*
X223319500Y-75659507D01*
X223318720Y-75673391D01*
X223314686Y-75709186D01*
X223325410Y-75765861D01*
X223326187Y-75770431D01*
X223335675Y-75833375D01*
X223337373Y-75838535D01*
X223367113Y-75894807D01*
X223369202Y-75898945D01*
X223396823Y-75956299D01*
X223399960Y-75960720D01*
X223444973Y-76005733D01*
X223448166Y-76009047D01*
X223487423Y-76051356D01*
X223487424Y-76051356D01*
X223491483Y-76055731D01*
X223506474Y-76067234D01*
X223857705Y-76418465D01*
X223940227Y-76479369D01*
X224069549Y-76524620D01*
X224201522Y-76529558D01*
X224206461Y-76529743D01*
X224206461Y-76529742D01*
X224206462Y-76529743D01*
X224338804Y-76494283D01*
X224417387Y-76444905D01*
X224483359Y-76425900D01*
X224920841Y-76425900D01*
X224920843Y-76425900D01*
X225007771Y-76411394D01*
X225111353Y-76355339D01*
X225191121Y-76268687D01*
X225237141Y-76163771D01*
X225263012Y-76125907D01*
X225634820Y-75754100D01*
X225696142Y-75720616D01*
X225765834Y-75725600D01*
X225821767Y-75767472D01*
X225846184Y-75832936D01*
X225846500Y-75841781D01*
X225846500Y-75948129D01*
X225863341Y-76032801D01*
X225882437Y-76093788D01*
X225863952Y-76161168D01*
X225862500Y-76163426D01*
X225846500Y-76243865D01*
X225846500Y-76448129D01*
X225863341Y-76532801D01*
X225882437Y-76593788D01*
X225863952Y-76661168D01*
X225862500Y-76663426D01*
X225846500Y-76743865D01*
X225846500Y-76948130D01*
X225863343Y-77032809D01*
X225882436Y-77093785D01*
X225863952Y-77161166D01*
X225862500Y-77163423D01*
X225846500Y-77243864D01*
X225846500Y-77448129D01*
X225863341Y-77532801D01*
X225882437Y-77593788D01*
X225863952Y-77661168D01*
X225862500Y-77663426D01*
X225846500Y-77743865D01*
X225846500Y-77948130D01*
X225860104Y-78016524D01*
X225862485Y-78028495D01*
X225923376Y-78119624D01*
X226014505Y-78180515D01*
X226094867Y-78196500D01*
X226484151Y-78196499D01*
X226551188Y-78216183D01*
X226596943Y-78268987D01*
X226608143Y-78321751D01*
X226607628Y-78372752D01*
X226587267Y-78439589D01*
X226534004Y-78484809D01*
X226483634Y-78495500D01*
X226094869Y-78495500D01*
X226014504Y-78511485D01*
X225923376Y-78572375D01*
X225862485Y-78663505D01*
X225846500Y-78743865D01*
X225846500Y-78948129D01*
X225863341Y-79032801D01*
X225882437Y-79093788D01*
X225863952Y-79161168D01*
X225862500Y-79163426D01*
X225846500Y-79243865D01*
X225846500Y-79448130D01*
X225863343Y-79532809D01*
X225882436Y-79593785D01*
X225863952Y-79661166D01*
X225862500Y-79663423D01*
X225846500Y-79743864D01*
X225846501Y-79960343D01*
X225842828Y-79960343D01*
X225838482Y-80008795D01*
X225795606Y-80063963D01*
X225729711Y-80087193D01*
X225661718Y-80071109D01*
X225647616Y-80061745D01*
X225580257Y-80010059D01*
X225438801Y-79951467D01*
X225413469Y-79948132D01*
X225325115Y-79936500D01*
X225325114Y-79936500D01*
X225286999Y-79931481D01*
X225259800Y-79935062D01*
X225256941Y-79935439D01*
X225240757Y-79936500D01*
X222211884Y-79936500D01*
X222207867Y-79937028D01*
X222207864Y-79937029D01*
X222098198Y-79951467D01*
X221956740Y-80010061D01*
X221835268Y-80103268D01*
X221742061Y-80224740D01*
X221683467Y-80366198D01*
X221664632Y-80509257D01*
X221642635Y-80558977D01*
X221647809Y-80562216D01*
X221677588Y-80625422D01*
X221678008Y-80628342D01*
X221681520Y-80655015D01*
X221683467Y-80669802D01*
X221694526Y-80696500D01*
X221721949Y-80762706D01*
X221729418Y-80832176D01*
X221699023Y-80893699D01*
X221656523Y-80940317D01*
X221652573Y-80944454D01*
X221639141Y-80957886D01*
X221630087Y-80969317D01*
X221612083Y-80989067D01*
X221609578Y-80995534D01*
X221596259Y-81020802D01*
X221592343Y-81026518D01*
X221586228Y-81052517D01*
X221581151Y-81068913D01*
X221571500Y-81093826D01*
X221571500Y-81100752D01*
X221568205Y-81129142D01*
X221566621Y-81135881D01*
X221567773Y-81144136D01*
X221570311Y-81162333D01*
X221571500Y-81179464D01*
X221571500Y-81399983D01*
X221551815Y-81467022D01*
X221550603Y-81468872D01*
X221537485Y-81488504D01*
X221537484Y-81488505D01*
X221537485Y-81488505D01*
X221521500Y-81568867D01*
X221521500Y-82172001D01*
X221501817Y-82239039D01*
X221449013Y-82284794D01*
X221397501Y-82296000D01*
X221346500Y-82296000D01*
X221279461Y-82276315D01*
X221233706Y-82223511D01*
X221222500Y-82172000D01*
X221222499Y-81568869D01*
X221222499Y-81568867D01*
X221206515Y-81488505D01*
X221200247Y-81479125D01*
X221193397Y-81468872D01*
X221172520Y-81402195D01*
X221172500Y-81399982D01*
X221172500Y-81173013D01*
X221192185Y-81105974D01*
X221221014Y-81074637D01*
X221255882Y-81047882D01*
X221352136Y-80922441D01*
X221412644Y-80776362D01*
X221432131Y-80628341D01*
X221454126Y-80578620D01*
X221448952Y-80575382D01*
X221419174Y-80512176D01*
X221418764Y-80509327D01*
X221412644Y-80462838D01*
X221352136Y-80316759D01*
X221337600Y-80297815D01*
X221255882Y-80191317D01*
X221130440Y-80095063D01*
X220984362Y-80034556D01*
X220827600Y-80013917D01*
X220670837Y-80034556D01*
X220524759Y-80095063D01*
X220399317Y-80191317D01*
X220303063Y-80316759D01*
X220242556Y-80462837D01*
X220221917Y-80619600D01*
X220242556Y-80776362D01*
X220303063Y-80922440D01*
X220399317Y-81047882D01*
X220426726Y-81068913D01*
X220461595Y-81095669D01*
X220464795Y-81098124D01*
X220505998Y-81154551D01*
X220510153Y-81224297D01*
X220475941Y-81285218D01*
X220414224Y-81317971D01*
X220389310Y-81320500D01*
X220269870Y-81320500D01*
X220201545Y-81334090D01*
X220189505Y-81336485D01*
X220189504Y-81336485D01*
X220185202Y-81337341D01*
X220124204Y-81356436D01*
X220056825Y-81337947D01*
X220054574Y-81336500D01*
X219974134Y-81320500D01*
X219769870Y-81320500D01*
X219685203Y-81337340D01*
X219624208Y-81356437D01*
X219556829Y-81337950D01*
X219554573Y-81336500D01*
X219474134Y-81320500D01*
X219269870Y-81320500D01*
X219185203Y-81337340D01*
X219124208Y-81356437D01*
X219056829Y-81337950D01*
X219054573Y-81336500D01*
X218974134Y-81320500D01*
X218769870Y-81320500D01*
X218701545Y-81334090D01*
X218689505Y-81336485D01*
X218689504Y-81336485D01*
X218685202Y-81337341D01*
X218624204Y-81356436D01*
X218556825Y-81337947D01*
X218554574Y-81336500D01*
X218474134Y-81320500D01*
X218269870Y-81320500D01*
X218185203Y-81337340D01*
X218124208Y-81356437D01*
X218056829Y-81337950D01*
X218054573Y-81336500D01*
X217974134Y-81320500D01*
X217769870Y-81320500D01*
X217685203Y-81337340D01*
X217624208Y-81356437D01*
X217556829Y-81337950D01*
X217554573Y-81336500D01*
X217474134Y-81320500D01*
X217269870Y-81320500D01*
X217201545Y-81334090D01*
X217189505Y-81336485D01*
X217189504Y-81336485D01*
X217185202Y-81337341D01*
X217124204Y-81356436D01*
X217056825Y-81337947D01*
X217054574Y-81336500D01*
X216974134Y-81320500D01*
X216794973Y-81320500D01*
X216727934Y-81300815D01*
X216682179Y-81248011D01*
X216673081Y-81219266D01*
X216672793Y-81217724D01*
X216670817Y-81200680D01*
X216669585Y-81174009D01*
X216666786Y-81167671D01*
X216658332Y-81140367D01*
X216657061Y-81133567D01*
X216642997Y-81110853D01*
X216634994Y-81095669D01*
X216634181Y-81093827D01*
X216624206Y-81071235D01*
X216619309Y-81066339D01*
X216601563Y-81043933D01*
X216597919Y-81038048D01*
X216576602Y-81021950D01*
X216563648Y-81010677D01*
X216390803Y-80837832D01*
X216357318Y-80776509D01*
X216354832Y-80759424D01*
X216348110Y-80669722D01*
X216336077Y-80639060D01*
X216298055Y-80542182D01*
X216212632Y-80435065D01*
X216099427Y-80357883D01*
X215968506Y-80317500D01*
X215968505Y-80317500D01*
X214326281Y-80317500D01*
X214259242Y-80297815D01*
X214213487Y-80245011D01*
X214211720Y-80240952D01*
X214201036Y-80215159D01*
X214104782Y-80089717D01*
X213979340Y-79993463D01*
X213833262Y-79932956D01*
X213676500Y-79912317D01*
X213519737Y-79932956D01*
X213373659Y-79993463D01*
X213248217Y-80089717D01*
X213151963Y-80215159D01*
X213091456Y-80361237D01*
X213070817Y-80518001D01*
X213077666Y-80570025D01*
X213066900Y-80639060D01*
X213055648Y-80658258D01*
X213050574Y-80665364D01*
X213038004Y-80707584D01*
X213021594Y-80762706D01*
X213016967Y-80778246D01*
X213021834Y-80895921D01*
X213039158Y-80940317D01*
X213058180Y-80989067D01*
X213063017Y-81001461D01*
X213071500Y-81046537D01*
X213071500Y-81399983D01*
X213051815Y-81467022D01*
X213050603Y-81468872D01*
X213037485Y-81488504D01*
X213037484Y-81488505D01*
X213037485Y-81488505D01*
X213021500Y-81568867D01*
X213021500Y-82172001D01*
X213001817Y-82239039D01*
X212949013Y-82284794D01*
X212897501Y-82296000D01*
X212846500Y-82296000D01*
X212779461Y-82276315D01*
X212733706Y-82223511D01*
X212722500Y-82172000D01*
X212722499Y-81568869D01*
X212722499Y-81568867D01*
X212706515Y-81488505D01*
X212645624Y-81397376D01*
X212554495Y-81336485D01*
X212500939Y-81325832D01*
X212474134Y-81320500D01*
X212269870Y-81320500D01*
X212201545Y-81334090D01*
X212189505Y-81336485D01*
X212189504Y-81336485D01*
X212185202Y-81337341D01*
X212124204Y-81356436D01*
X212056825Y-81337947D01*
X212054574Y-81336500D01*
X211974134Y-81320500D01*
X211769870Y-81320500D01*
X211685203Y-81337340D01*
X211624208Y-81356437D01*
X211556829Y-81337950D01*
X211554573Y-81336500D01*
X211474134Y-81320500D01*
X211269870Y-81320500D01*
X211185203Y-81337340D01*
X211124208Y-81356437D01*
X211056829Y-81337950D01*
X211054573Y-81336500D01*
X210974134Y-81320500D01*
X210769870Y-81320500D01*
X210701545Y-81334090D01*
X210689505Y-81336485D01*
X210689504Y-81336485D01*
X210685202Y-81337341D01*
X210624204Y-81356436D01*
X210556825Y-81337947D01*
X210554574Y-81336500D01*
X210474134Y-81320500D01*
X210269870Y-81320500D01*
X210185203Y-81337340D01*
X210124208Y-81356437D01*
X210056829Y-81337950D01*
X210054573Y-81336500D01*
X209974134Y-81320500D01*
X209769870Y-81320500D01*
X209685203Y-81337340D01*
X209624208Y-81356437D01*
X209556829Y-81337950D01*
X209554573Y-81336500D01*
X209474134Y-81320500D01*
X209269870Y-81320500D01*
X209201545Y-81334090D01*
X209189505Y-81336485D01*
X209189504Y-81336485D01*
X209185202Y-81337341D01*
X209124204Y-81356436D01*
X209056825Y-81337947D01*
X209054574Y-81336500D01*
X208974134Y-81320500D01*
X208769870Y-81320500D01*
X208685203Y-81337340D01*
X208624208Y-81356437D01*
X208556829Y-81337950D01*
X208554573Y-81336500D01*
X208474134Y-81320500D01*
X208269870Y-81320500D01*
X208185203Y-81337340D01*
X208124208Y-81356437D01*
X208056829Y-81337950D01*
X208054573Y-81336500D01*
X207974134Y-81320500D01*
X207769870Y-81320500D01*
X207685203Y-81337340D01*
X207624208Y-81356437D01*
X207556829Y-81337950D01*
X207554573Y-81336500D01*
X207474134Y-81320500D01*
X207269870Y-81320500D01*
X207185203Y-81337340D01*
X207124208Y-81356437D01*
X207056829Y-81337950D01*
X207054573Y-81336500D01*
X206974134Y-81320500D01*
X206769870Y-81320500D01*
X206685203Y-81337340D01*
X206624208Y-81356437D01*
X206556829Y-81337950D01*
X206554573Y-81336500D01*
X206474134Y-81320500D01*
X206269870Y-81320500D01*
X206185203Y-81337340D01*
X206124208Y-81356437D01*
X206056829Y-81337950D01*
X206054573Y-81336500D01*
X205974134Y-81320500D01*
X205769870Y-81320500D01*
X205685203Y-81337340D01*
X205624208Y-81356437D01*
X205556829Y-81337950D01*
X205554573Y-81336500D01*
X205474134Y-81320500D01*
X205259399Y-81320500D01*
X205192360Y-81300815D01*
X205153976Y-81261783D01*
X205143006Y-81244068D01*
X205134994Y-81228869D01*
X205124206Y-81204435D01*
X205119310Y-81199539D01*
X205101563Y-81177133D01*
X205097919Y-81171248D01*
X205076602Y-81155150D01*
X205063648Y-81143877D01*
X204731450Y-80811679D01*
X204721497Y-80797845D01*
X204679681Y-80759724D01*
X204675540Y-80755769D01*
X204662110Y-80742339D01*
X204650678Y-80733283D01*
X204630934Y-80715284D01*
X204624468Y-80712779D01*
X204599192Y-80699456D01*
X204593481Y-80695544D01*
X204593480Y-80695543D01*
X204593478Y-80695542D01*
X204567484Y-80689428D01*
X204551087Y-80684351D01*
X204526173Y-80674700D01*
X204519249Y-80674700D01*
X204490859Y-80671406D01*
X204484119Y-80669821D01*
X204484118Y-80669821D01*
X204472757Y-80671406D01*
X204457666Y-80673511D01*
X204440535Y-80674700D01*
X202503527Y-80674700D01*
X202436488Y-80655015D01*
X202390733Y-80602211D01*
X202380789Y-80533053D01*
X202381910Y-80526508D01*
X202383602Y-80518001D01*
X202397500Y-80448133D01*
X202397499Y-80243868D01*
X202381515Y-80163505D01*
X202381514Y-80163503D01*
X202380658Y-80159199D01*
X202361563Y-80098211D01*
X202380048Y-80030831D01*
X202381499Y-80028572D01*
X202381514Y-80028496D01*
X202381515Y-80028495D01*
X202397500Y-79948133D01*
X202397499Y-79743868D01*
X202381515Y-79663505D01*
X202381514Y-79663503D01*
X202380658Y-79659199D01*
X202361563Y-79598211D01*
X202380048Y-79530831D01*
X202381499Y-79528572D01*
X202381514Y-79528496D01*
X202381515Y-79528495D01*
X202397500Y-79448133D01*
X202397499Y-79243868D01*
X202381515Y-79163505D01*
X202381514Y-79163503D01*
X202380658Y-79159199D01*
X202361563Y-79098211D01*
X202380048Y-79030831D01*
X202381499Y-79028572D01*
X202381514Y-79028496D01*
X202381515Y-79028495D01*
X202397500Y-78948133D01*
X202397499Y-78868397D01*
X202417183Y-78801361D01*
X202469986Y-78755605D01*
X202539145Y-78745661D01*
X202568951Y-78753837D01*
X202676854Y-78798533D01*
X202790540Y-78813500D01*
X202790542Y-78813500D01*
X202828656Y-78818518D01*
X202858711Y-78814560D01*
X202874897Y-78813500D01*
X203010018Y-78813500D01*
X203026799Y-78816837D01*
X203027053Y-78814913D01*
X203043237Y-78817043D01*
X203043238Y-78817044D01*
X203200000Y-78837682D01*
X203356762Y-78817044D01*
X203502841Y-78756536D01*
X203628282Y-78660282D01*
X203724536Y-78534841D01*
X203785044Y-78388762D01*
X203805682Y-78232000D01*
X203785044Y-78075238D01*
X203724536Y-77929159D01*
X203698464Y-77895181D01*
X203628282Y-77803717D01*
X203502840Y-77707463D01*
X203356762Y-77646956D01*
X203199998Y-77626317D01*
X203115663Y-77637420D01*
X203046628Y-77626654D01*
X203023993Y-77612857D01*
X202966914Y-77569059D01*
X202825458Y-77510467D01*
X202711772Y-77495500D01*
X202673656Y-77490481D01*
X202646457Y-77494062D01*
X202643598Y-77494439D01*
X202627414Y-77495500D01*
X201546000Y-77495500D01*
X201478961Y-77475815D01*
X201433206Y-77423011D01*
X201422000Y-77371500D01*
X201422000Y-77320499D01*
X201441685Y-77253460D01*
X201494489Y-77207705D01*
X201545998Y-77196499D01*
X202149132Y-77196499D01*
X202229495Y-77180515D01*
X202320624Y-77119624D01*
X202381515Y-77028495D01*
X202397500Y-76948133D01*
X202397499Y-76743868D01*
X202381515Y-76663505D01*
X202381514Y-76663503D01*
X202380658Y-76659199D01*
X202361563Y-76598211D01*
X202380048Y-76530831D01*
X202381499Y-76528572D01*
X202381514Y-76528496D01*
X202381515Y-76528495D01*
X202397500Y-76448133D01*
X202397499Y-76270500D01*
X202417183Y-76203461D01*
X202469987Y-76157706D01*
X202521499Y-76146500D01*
X213084167Y-76146500D01*
X213151206Y-76166185D01*
X213171848Y-76182819D01*
X215384551Y-78395523D01*
X215394507Y-78409360D01*
X215436305Y-78447465D01*
X215440446Y-78451419D01*
X215453885Y-78464858D01*
X215465333Y-78473926D01*
X215485067Y-78491916D01*
X215491520Y-78494415D01*
X215516807Y-78507744D01*
X215520620Y-78510355D01*
X215522520Y-78511657D01*
X215547698Y-78517578D01*
X215548513Y-78517770D01*
X215564919Y-78522850D01*
X215589827Y-78532500D01*
X215596753Y-78532500D01*
X215625143Y-78535794D01*
X215631882Y-78537379D01*
X215655958Y-78534020D01*
X215658336Y-78533689D01*
X215675466Y-78532500D01*
X216486167Y-78532500D01*
X216553206Y-78552185D01*
X216573848Y-78568819D01*
X217812101Y-79807072D01*
X217845586Y-79868395D01*
X217847359Y-79910938D01*
X217834317Y-80009999D01*
X217854956Y-80166762D01*
X217915463Y-80312840D01*
X218011717Y-80438282D01*
X218108019Y-80512176D01*
X218137159Y-80534536D01*
X218283238Y-80595044D01*
X218440000Y-80615682D01*
X218596762Y-80595044D01*
X218742841Y-80534536D01*
X218868282Y-80438282D01*
X218964536Y-80312841D01*
X219025044Y-80166762D01*
X219045682Y-80010000D01*
X219025044Y-79853238D01*
X218964536Y-79707159D01*
X218931039Y-79663505D01*
X218868282Y-79581717D01*
X218742840Y-79485463D01*
X218596762Y-79424956D01*
X218439999Y-79404317D01*
X218340938Y-79417359D01*
X218271902Y-79406593D01*
X218237072Y-79382101D01*
X216923450Y-78068479D01*
X216913497Y-78054645D01*
X216871681Y-78016524D01*
X216867540Y-78012569D01*
X216854110Y-77999139D01*
X216842678Y-77990083D01*
X216822934Y-77972084D01*
X216816468Y-77969579D01*
X216791192Y-77956256D01*
X216785481Y-77952344D01*
X216785480Y-77952343D01*
X216785478Y-77952342D01*
X216759484Y-77946228D01*
X216743087Y-77941151D01*
X216718173Y-77931500D01*
X216711249Y-77931500D01*
X216682859Y-77928206D01*
X216676119Y-77926621D01*
X216676118Y-77926621D01*
X216664757Y-77928206D01*
X216649666Y-77930311D01*
X216632535Y-77931500D01*
X215821833Y-77931500D01*
X215754794Y-77911815D01*
X215734152Y-77895181D01*
X213521450Y-75682479D01*
X213511497Y-75668645D01*
X213469681Y-75630524D01*
X213465540Y-75626569D01*
X213452110Y-75613139D01*
X213440678Y-75604083D01*
X213420934Y-75586084D01*
X213414468Y-75583579D01*
X213389192Y-75570256D01*
X213383481Y-75566344D01*
X213383480Y-75566343D01*
X213383478Y-75566342D01*
X213357484Y-75560228D01*
X213341087Y-75555151D01*
X213316173Y-75545500D01*
X213309249Y-75545500D01*
X213280859Y-75542206D01*
X213274119Y-75540621D01*
X213274118Y-75540621D01*
X213262757Y-75542206D01*
X213247666Y-75544311D01*
X213230535Y-75545500D01*
X202521500Y-75545500D01*
X202454461Y-75525815D01*
X202408706Y-75473011D01*
X202397500Y-75421501D01*
X202397499Y-75270501D01*
X202417183Y-75203461D01*
X202469987Y-75157706D01*
X202521499Y-75146500D01*
X203292646Y-75146500D01*
X203359685Y-75166185D01*
X203368134Y-75172125D01*
X203405159Y-75200536D01*
X203551238Y-75261044D01*
X203708000Y-75281682D01*
X203864762Y-75261044D01*
X204010841Y-75200536D01*
X204136282Y-75104282D01*
X204232536Y-74978841D01*
X204293044Y-74832762D01*
X204313682Y-74676000D01*
X204293044Y-74519238D01*
X204232536Y-74373159D01*
X204202663Y-74334227D01*
X204136282Y-74247717D01*
X204010840Y-74151463D01*
X203864762Y-74090956D01*
X203708000Y-74070317D01*
X203551237Y-74090956D01*
X203405159Y-74151463D01*
X203279717Y-74247717D01*
X203183463Y-74373158D01*
X203143784Y-74468953D01*
X203099942Y-74523357D01*
X203033648Y-74545421D01*
X203029223Y-74545500D01*
X202521500Y-74545500D01*
X202454461Y-74525815D01*
X202408706Y-74473011D01*
X202397500Y-74421501D01*
X202397499Y-74243869D01*
X202394016Y-74226356D01*
X202381515Y-74163505D01*
X202381514Y-74163503D01*
X202380658Y-74159199D01*
X202361563Y-74098211D01*
X202380048Y-74030831D01*
X202381499Y-74028572D01*
X202381514Y-74028496D01*
X202381515Y-74028495D01*
X202397500Y-73948133D01*
X202397499Y-73770500D01*
X202417183Y-73703461D01*
X202469987Y-73657706D01*
X202521499Y-73646500D01*
X202804582Y-73646500D01*
X202871621Y-73666185D01*
X202880069Y-73672125D01*
X202892235Y-73681460D01*
X203038314Y-73741968D01*
X203195076Y-73762606D01*
X203351838Y-73741968D01*
X203497917Y-73681460D01*
X203623358Y-73585206D01*
X203719612Y-73459765D01*
X203780120Y-73313686D01*
X203800758Y-73156924D01*
X203780120Y-73000162D01*
X203719612Y-72854083D01*
X203691766Y-72817793D01*
X203623358Y-72728641D01*
X203497916Y-72632387D01*
X203351838Y-72571880D01*
X203195076Y-72551241D01*
X203038313Y-72571880D01*
X202892235Y-72632387D01*
X202766793Y-72728641D01*
X202670539Y-72854082D01*
X202636060Y-72937323D01*
X202592218Y-72991727D01*
X202525924Y-73013791D01*
X202458225Y-72996511D01*
X202410615Y-72945374D01*
X202397499Y-72889873D01*
X202397499Y-72743868D01*
X202381515Y-72663505D01*
X202381514Y-72663503D01*
X202380658Y-72659199D01*
X202361563Y-72598211D01*
X202380048Y-72530831D01*
X202381499Y-72528572D01*
X202381514Y-72528496D01*
X202381515Y-72528495D01*
X202397500Y-72448133D01*
X202397499Y-72243868D01*
X202381515Y-72163505D01*
X202381514Y-72163503D01*
X202380658Y-72159199D01*
X202361563Y-72098211D01*
X202380048Y-72030831D01*
X202381499Y-72028572D01*
X202381514Y-72028496D01*
X202381515Y-72028495D01*
X202397500Y-71948133D01*
X202397499Y-71743868D01*
X202381515Y-71663505D01*
X202381514Y-71663503D01*
X202380658Y-71659199D01*
X202361563Y-71598211D01*
X202380048Y-71530831D01*
X202381499Y-71528572D01*
X202381514Y-71528496D01*
X202381515Y-71528495D01*
X202397500Y-71448133D01*
X202397499Y-71375163D01*
X202417183Y-71308127D01*
X202469986Y-71262371D01*
X202539145Y-71252427D01*
X202602701Y-71281451D01*
X202636060Y-71327712D01*
X202675464Y-71422841D01*
X202771717Y-71548282D01*
X202897159Y-71644535D01*
X202897159Y-71644536D01*
X203043238Y-71705044D01*
X203200000Y-71725682D01*
X203356762Y-71705044D01*
X203502841Y-71644536D01*
X203628282Y-71548282D01*
X203724536Y-71422841D01*
X203785044Y-71276762D01*
X203805682Y-71120000D01*
X203785044Y-70963238D01*
X203724536Y-70817159D01*
X203682472Y-70762340D01*
X203628282Y-70691717D01*
X203502840Y-70595463D01*
X203356762Y-70534956D01*
X203200000Y-70514317D01*
X203061475Y-70532554D01*
X203043238Y-70534956D01*
X203040566Y-70536062D01*
X202993118Y-70545500D01*
X202975249Y-70545500D01*
X202946859Y-70542206D01*
X202940119Y-70540621D01*
X202940118Y-70540621D01*
X202928757Y-70542206D01*
X202913666Y-70544311D01*
X202896535Y-70545500D01*
X202318017Y-70545500D01*
X202250978Y-70525815D01*
X202249128Y-70524603D01*
X202229495Y-70511485D01*
X202149134Y-70495500D01*
X201546000Y-70495500D01*
X201478961Y-70475815D01*
X201433206Y-70423011D01*
X201422000Y-70371500D01*
X201422000Y-70320499D01*
X201441685Y-70253460D01*
X201494489Y-70207705D01*
X201545998Y-70196499D01*
X202149132Y-70196499D01*
X202229495Y-70180515D01*
X202320624Y-70119624D01*
X202381515Y-70028495D01*
X202397500Y-69948133D01*
X202397499Y-69743868D01*
X202381515Y-69663505D01*
X202381514Y-69663503D01*
X202380658Y-69659199D01*
X202361563Y-69598211D01*
X202380048Y-69530831D01*
X202381499Y-69528572D01*
X202381514Y-69528496D01*
X202381515Y-69528495D01*
X202397500Y-69448133D01*
X202397499Y-69243868D01*
X202381515Y-69163505D01*
X202381514Y-69163503D01*
X202380658Y-69159199D01*
X202361563Y-69098211D01*
X202380048Y-69030831D01*
X202381499Y-69028572D01*
X202381514Y-69028496D01*
X202381515Y-69028495D01*
X202397500Y-68948133D01*
X202397499Y-68743868D01*
X202381515Y-68663505D01*
X202381514Y-68663503D01*
X202380658Y-68659199D01*
X202361563Y-68598211D01*
X202380048Y-68530831D01*
X202381499Y-68528572D01*
X202381514Y-68528496D01*
X202381515Y-68528495D01*
X202397500Y-68448133D01*
X202397499Y-68243868D01*
X202381515Y-68163505D01*
X202381514Y-68163503D01*
X202380658Y-68159199D01*
X202361563Y-68098211D01*
X202380048Y-68030831D01*
X202381499Y-68028572D01*
X202381514Y-68028496D01*
X202381515Y-68028495D01*
X202397500Y-67948133D01*
X202397499Y-67743868D01*
X202381515Y-67663505D01*
X202381514Y-67663503D01*
X202380658Y-67659199D01*
X202361563Y-67598211D01*
X202380048Y-67530831D01*
X202381499Y-67528572D01*
X202381514Y-67528496D01*
X202381515Y-67528495D01*
X202397500Y-67448133D01*
X202397499Y-67243868D01*
X202381515Y-67163505D01*
X202320624Y-67072376D01*
X202229495Y-67011485D01*
X202189313Y-67003492D01*
X202149134Y-66995500D01*
X201422000Y-66995500D01*
X201422000Y-65227200D01*
X201426671Y-65227200D01*
X201477705Y-65199333D01*
X201504058Y-65196499D01*
X202149132Y-65196499D01*
X202229495Y-65180515D01*
X202249125Y-65167398D01*
X202315803Y-65146520D01*
X202318017Y-65146500D01*
X202517910Y-65146500D01*
X202584949Y-65166185D01*
X202630704Y-65218989D01*
X202632471Y-65223047D01*
X202675464Y-65326841D01*
X202771717Y-65452282D01*
X202889626Y-65542756D01*
X202897159Y-65548536D01*
X203043238Y-65609044D01*
X203200000Y-65629682D01*
X203356762Y-65609044D01*
X203502841Y-65548536D01*
X203628282Y-65452282D01*
X203724536Y-65326841D01*
X203785044Y-65180762D01*
X203805682Y-65024000D01*
X203785044Y-64867238D01*
X203724536Y-64721159D01*
X203680297Y-64663505D01*
X203680124Y-64663279D01*
X203654930Y-64598110D01*
X203654500Y-64587793D01*
X203654500Y-62888996D01*
X203674185Y-62821957D01*
X203680124Y-62813510D01*
X203700588Y-62786840D01*
X203707940Y-62777259D01*
X203766533Y-62635802D01*
X203786518Y-62484000D01*
X203766533Y-62332198D01*
X203707940Y-62190741D01*
X203685248Y-62161168D01*
X203640611Y-62102996D01*
X203640606Y-62102990D01*
X203638135Y-62099770D01*
X203236880Y-61698514D01*
X203226184Y-61686318D01*
X203207730Y-61662268D01*
X203177234Y-61638868D01*
X203177231Y-61638865D01*
X203086258Y-61569059D01*
X202944802Y-61510467D01*
X202831116Y-61495500D01*
X202793000Y-61490481D01*
X202765801Y-61494062D01*
X202762942Y-61494439D01*
X202746758Y-61495500D01*
X201546000Y-61495500D01*
X201478961Y-61475815D01*
X201433206Y-61423011D01*
X201422000Y-61371500D01*
X201422000Y-61320499D01*
X201441685Y-61253460D01*
X201494489Y-61207705D01*
X201545998Y-61196499D01*
X202149132Y-61196499D01*
X202229495Y-61180515D01*
X202249125Y-61167398D01*
X202315803Y-61146520D01*
X202318017Y-61146500D01*
X203244757Y-61146500D01*
X203261577Y-61149243D01*
X203271762Y-61148772D01*
X203271765Y-61148773D01*
X203318080Y-61146631D01*
X203323805Y-61146500D01*
X203342824Y-61146500D01*
X203357318Y-61144817D01*
X203383992Y-61143585D01*
X203390330Y-61140786D01*
X203417633Y-61132332D01*
X203424433Y-61131061D01*
X203447143Y-61116998D01*
X203462325Y-61108996D01*
X203486765Y-61098206D01*
X203491659Y-61093311D01*
X203514063Y-61075564D01*
X203519952Y-61071919D01*
X203536053Y-61050595D01*
X203547313Y-61037656D01*
X203871518Y-60713451D01*
X203885353Y-60703498D01*
X203892225Y-60695959D01*
X203892228Y-60695958D01*
X203923488Y-60661666D01*
X203927379Y-60657590D01*
X203940174Y-60644797D01*
X203940178Y-60644790D01*
X203940868Y-60644101D01*
X203949922Y-60632671D01*
X203967914Y-60612935D01*
X203967913Y-60612935D01*
X203967916Y-60612933D01*
X203970419Y-60606470D01*
X203983743Y-60581191D01*
X203987656Y-60575481D01*
X203993770Y-60549481D01*
X203998846Y-60533089D01*
X204008500Y-60508173D01*
X204008500Y-60501248D01*
X204011794Y-60472857D01*
X204013379Y-60466119D01*
X204009689Y-60439665D01*
X204008500Y-60422535D01*
X204008500Y-59444832D01*
X204028185Y-59377793D01*
X204080989Y-59332038D01*
X204150147Y-59322094D01*
X204213703Y-59351119D01*
X204220153Y-59357124D01*
X204356481Y-59493452D01*
X204389003Y-59550690D01*
X204396353Y-59579715D01*
X204396354Y-59579717D01*
X204396355Y-59579719D01*
X204460773Y-59678318D01*
X204460774Y-59678319D01*
X204460775Y-59678320D01*
X204553715Y-59750658D01*
X204665110Y-59788900D01*
X204665111Y-59788900D01*
X210262540Y-59788900D01*
X210287985Y-59791539D01*
X210290949Y-59792160D01*
X210297215Y-59793474D01*
X210326272Y-59789852D01*
X210341021Y-59788936D01*
X210341237Y-59788900D01*
X210341243Y-59788900D01*
X210360392Y-59785703D01*
X210365422Y-59784971D01*
X210414088Y-59778906D01*
X210414089Y-59778905D01*
X210421554Y-59777975D01*
X210428171Y-59774394D01*
X210471307Y-59751049D01*
X210475818Y-59748727D01*
X210519897Y-59727179D01*
X210519899Y-59727176D01*
X210526657Y-59723873D01*
X210531749Y-59718340D01*
X210531753Y-59718339D01*
X210565009Y-59682210D01*
X210568488Y-59678586D01*
X211437856Y-58809219D01*
X211499180Y-58775734D01*
X211525538Y-58772900D01*
X213320726Y-58772900D01*
X213387765Y-58792585D01*
X213419101Y-58821413D01*
X213439718Y-58848282D01*
X213439719Y-58848283D01*
X213558967Y-58939785D01*
X213565159Y-58944536D01*
X213711238Y-59005044D01*
X213868000Y-59025682D01*
X214024762Y-59005044D01*
X214170841Y-58944536D01*
X214296282Y-58848282D01*
X214349123Y-58779417D01*
X214405552Y-58738214D01*
X214475298Y-58734059D01*
X214536218Y-58768271D01*
X214568971Y-58829988D01*
X214571500Y-58854903D01*
X214571500Y-58950957D01*
X214559831Y-58990695D01*
X214564060Y-58992147D01*
X214519100Y-59123110D01*
X214519100Y-73344539D01*
X214516461Y-73369985D01*
X214514525Y-73379216D01*
X214518147Y-73408279D01*
X214519064Y-73423028D01*
X214522290Y-73442358D01*
X214523029Y-73447432D01*
X214530024Y-73503552D01*
X214533605Y-73510170D01*
X214533606Y-73510171D01*
X214556947Y-73553304D01*
X214559282Y-73557839D01*
X214584125Y-73608656D01*
X214589660Y-73613751D01*
X214589661Y-73613753D01*
X214625761Y-73646985D01*
X214629434Y-73650510D01*
X218304781Y-77325857D01*
X218338266Y-77387180D01*
X218341100Y-77413538D01*
X218341100Y-77684724D01*
X218321415Y-77751763D01*
X218292588Y-77783099D01*
X218265717Y-77803718D01*
X218169463Y-77929159D01*
X218108956Y-78075237D01*
X218088317Y-78232000D01*
X218108956Y-78388762D01*
X218169463Y-78534840D01*
X218265717Y-78660282D01*
X218369529Y-78739939D01*
X218391159Y-78756536D01*
X218537238Y-78817044D01*
X218694000Y-78837682D01*
X218850762Y-78817044D01*
X218996841Y-78756536D01*
X219122282Y-78660282D01*
X219218536Y-78534841D01*
X219279044Y-78388762D01*
X219299682Y-78232000D01*
X219279044Y-78075238D01*
X219218536Y-77929159D01*
X219122282Y-77803718D01*
X219122281Y-77803717D01*
X219095412Y-77783099D01*
X219054210Y-77726670D01*
X219046900Y-77684724D01*
X219046900Y-77265459D01*
X219049539Y-77240012D01*
X219051474Y-77230785D01*
X219047851Y-77201726D01*
X219046936Y-77186976D01*
X219046900Y-77186760D01*
X219046900Y-77186757D01*
X219043705Y-77167620D01*
X219042969Y-77162560D01*
X219035976Y-77106448D01*
X219009062Y-77056715D01*
X219006716Y-77052158D01*
X218995148Y-77028495D01*
X218985179Y-77008103D01*
X218985178Y-77008102D01*
X218981873Y-77001341D01*
X218940262Y-76963036D01*
X218936563Y-76959487D01*
X215261219Y-73284143D01*
X215227734Y-73222820D01*
X215224900Y-73196462D01*
X215224900Y-59152756D01*
X215223445Y-59144036D01*
X215221125Y-59130136D01*
X215229505Y-59060772D01*
X215274056Y-59006949D01*
X215340634Y-58985757D01*
X215390885Y-58995164D01*
X215395195Y-58996949D01*
X215414738Y-59005044D01*
X215571500Y-59025682D01*
X215728262Y-59005044D01*
X215874341Y-58944536D01*
X215999782Y-58848282D01*
X216096036Y-58722841D01*
X216156544Y-58576762D01*
X216177182Y-58420000D01*
X216156544Y-58263238D01*
X216096036Y-58117159D01*
X216060605Y-58070984D01*
X216042833Y-58047823D01*
X216017639Y-57982654D01*
X216031677Y-57914209D01*
X216080491Y-57864220D01*
X216148583Y-57848556D01*
X216165401Y-57850720D01*
X216189504Y-57855514D01*
X216189505Y-57855515D01*
X216269867Y-57871500D01*
X216474132Y-57871499D01*
X216554495Y-57855515D01*
X216554497Y-57855513D01*
X216558808Y-57854656D01*
X216619785Y-57835563D01*
X216687165Y-57854047D01*
X216689424Y-57855499D01*
X216702030Y-57858006D01*
X216769867Y-57871500D01*
X216974132Y-57871499D01*
X217054495Y-57855515D01*
X217054497Y-57855513D01*
X217058808Y-57854656D01*
X217119785Y-57835563D01*
X217187165Y-57854047D01*
X217189424Y-57855499D01*
X217202030Y-57858006D01*
X217269867Y-57871500D01*
X217474132Y-57871499D01*
X217554495Y-57855515D01*
X217554497Y-57855513D01*
X217558808Y-57854656D01*
X217619785Y-57835563D01*
X217687165Y-57854047D01*
X217689424Y-57855499D01*
X217702030Y-57858006D01*
X217769867Y-57871500D01*
X217974132Y-57871499D01*
X218054495Y-57855515D01*
X218054497Y-57855513D01*
X218058808Y-57854656D01*
X218119785Y-57835563D01*
X218187165Y-57854047D01*
X218189424Y-57855499D01*
X218202030Y-57858006D01*
X218269867Y-57871500D01*
X218474132Y-57871499D01*
X218554495Y-57855515D01*
X218554497Y-57855513D01*
X218558808Y-57854656D01*
X218619785Y-57835563D01*
X218687165Y-57854047D01*
X218689424Y-57855499D01*
X218702030Y-57858006D01*
X218769867Y-57871500D01*
X218974132Y-57871499D01*
X219054495Y-57855515D01*
X219054497Y-57855513D01*
X219058808Y-57854656D01*
X219119785Y-57835563D01*
X219187165Y-57854047D01*
X219189424Y-57855499D01*
X219202030Y-57858006D01*
X219269867Y-57871500D01*
X219474132Y-57871499D01*
X219554495Y-57855515D01*
X219554497Y-57855513D01*
X219558808Y-57854656D01*
X219619785Y-57835563D01*
X219687165Y-57854047D01*
X219689424Y-57855499D01*
X219702030Y-57858006D01*
X219769867Y-57871500D01*
X219974132Y-57871499D01*
X220054495Y-57855515D01*
X220054497Y-57855513D01*
X220058808Y-57854656D01*
X220119785Y-57835563D01*
X220187165Y-57854047D01*
X220189424Y-57855499D01*
X220202030Y-57858006D01*
X220269867Y-57871500D01*
X220447499Y-57871499D01*
X220514539Y-57891183D01*
X220560294Y-57943987D01*
X220571500Y-57995499D01*
X220571500Y-58939844D01*
X220551815Y-59006883D01*
X220545876Y-59015330D01*
X220455463Y-59133159D01*
X220394956Y-59279237D01*
X220374317Y-59436000D01*
X220394956Y-59592762D01*
X220455463Y-59738840D01*
X220551717Y-59864282D01*
X220642522Y-59933958D01*
X220677159Y-59960536D01*
X220823238Y-60021044D01*
X220980000Y-60041682D01*
X221136762Y-60021044D01*
X221170646Y-60007008D01*
X221240112Y-59999540D01*
X221302591Y-60030814D01*
X221338244Y-60090903D01*
X221335751Y-60160728D01*
X221305777Y-60209251D01*
X219658926Y-61856101D01*
X219597603Y-61889586D01*
X219555060Y-61891359D01*
X219456000Y-61878317D01*
X219299237Y-61898956D01*
X219153159Y-61959463D01*
X219027717Y-62055717D01*
X218931463Y-62181159D01*
X218870956Y-62327237D01*
X218850317Y-62484000D01*
X218870956Y-62640762D01*
X218931463Y-62786840D01*
X219027717Y-62912282D01*
X219074441Y-62948134D01*
X219153159Y-63008536D01*
X219299238Y-63069044D01*
X219456000Y-63089682D01*
X219612762Y-63069044D01*
X219758841Y-63008536D01*
X219884282Y-62912282D01*
X219980536Y-62786841D01*
X220041044Y-62640762D01*
X220061682Y-62484000D01*
X220048640Y-62384936D01*
X220059405Y-62315902D01*
X220083895Y-62281074D01*
X222413518Y-59951451D01*
X222427353Y-59941498D01*
X222434225Y-59933959D01*
X222434228Y-59933958D01*
X222465488Y-59899666D01*
X222469379Y-59895590D01*
X222482174Y-59882797D01*
X222482178Y-59882790D01*
X222482868Y-59882101D01*
X222491922Y-59870671D01*
X222509915Y-59850934D01*
X222509914Y-59850934D01*
X222509916Y-59850933D01*
X222512417Y-59844474D01*
X222525748Y-59819186D01*
X222529656Y-59813481D01*
X222529655Y-59813481D01*
X222529657Y-59813480D01*
X222535775Y-59787467D01*
X222540845Y-59771093D01*
X222550500Y-59746173D01*
X222550500Y-59739248D01*
X222553794Y-59710857D01*
X222555379Y-59704119D01*
X222551689Y-59677665D01*
X222550500Y-59660535D01*
X222550500Y-59203914D01*
X222553244Y-59187088D01*
X222552773Y-59176902D01*
X222552774Y-59176901D01*
X222550632Y-59130563D01*
X222550500Y-59124838D01*
X222550500Y-59105846D01*
X222548820Y-59091369D01*
X222547586Y-59064674D01*
X222544788Y-59058337D01*
X222536330Y-59031024D01*
X222535061Y-59024232D01*
X222521002Y-59001526D01*
X222512994Y-58986334D01*
X222502206Y-58961900D01*
X222497309Y-58957003D01*
X222479563Y-58934598D01*
X222475919Y-58928713D01*
X222454602Y-58912615D01*
X222441648Y-58901342D01*
X221708818Y-58168512D01*
X221675333Y-58107189D01*
X221672499Y-58080839D01*
X221672500Y-57995497D01*
X221692185Y-57928458D01*
X221744990Y-57882704D01*
X221796496Y-57871499D01*
X221974132Y-57871499D01*
X222054495Y-57855515D01*
X222054497Y-57855513D01*
X222058808Y-57854656D01*
X222119785Y-57835563D01*
X222187165Y-57854047D01*
X222189424Y-57855499D01*
X222202030Y-57858006D01*
X222269867Y-57871500D01*
X222474132Y-57871499D01*
X222554495Y-57855515D01*
X222645624Y-57794624D01*
X222706515Y-57703495D01*
X222722500Y-57623133D01*
X222722499Y-57274000D01*
X222742185Y-57206961D01*
X222794989Y-57161206D01*
X222846500Y-57150000D01*
X222897501Y-57150000D01*
X222964540Y-57169685D01*
G37*
G04 #@! TD.AperFunction*
G04 #@! TA.AperFunction,Conductor*
G36*
X215945206Y-81246185D02*
G01*
X215965848Y-81262819D01*
X216027230Y-81324201D01*
X216060715Y-81385524D01*
X216055731Y-81455216D01*
X216042653Y-81480770D01*
X216037485Y-81488504D01*
X216037484Y-81488505D01*
X216037485Y-81488505D01*
X216021500Y-81568867D01*
X216021500Y-82172001D01*
X216001817Y-82239039D01*
X215949013Y-82284794D01*
X215897501Y-82296000D01*
X215846500Y-82296000D01*
X215779461Y-82276315D01*
X215733706Y-82223511D01*
X215722500Y-82172000D01*
X215722499Y-81568869D01*
X215722499Y-81568867D01*
X215706515Y-81488505D01*
X215660333Y-81419390D01*
X215639456Y-81352714D01*
X215657940Y-81285334D01*
X215709919Y-81238643D01*
X215763436Y-81226500D01*
X215878167Y-81226500D01*
X215945206Y-81246185D01*
G37*
G04 #@! TD.AperFunction*
G04 #@! TA.AperFunction,Conductor*
G36*
X222420332Y-81129150D02*
G01*
X222464677Y-81157648D01*
X222535183Y-81228154D01*
X222568666Y-81289473D01*
X222571500Y-81315832D01*
X222571500Y-81399983D01*
X222551815Y-81467022D01*
X222550603Y-81468872D01*
X222537485Y-81488504D01*
X222537484Y-81488505D01*
X222537485Y-81488505D01*
X222521500Y-81568867D01*
X222521500Y-82172001D01*
X222501817Y-82239039D01*
X222449013Y-82284794D01*
X222397501Y-82296000D01*
X222346500Y-82296000D01*
X222279461Y-82276315D01*
X222233706Y-82223511D01*
X222222500Y-82172000D01*
X222222499Y-81568869D01*
X222222499Y-81568867D01*
X222206515Y-81488505D01*
X222200247Y-81479125D01*
X222193397Y-81468872D01*
X222172520Y-81402195D01*
X222172500Y-81399982D01*
X222172500Y-81325832D01*
X222192185Y-81258793D01*
X222208812Y-81238157D01*
X222289322Y-81157647D01*
X222350640Y-81124166D01*
X222420332Y-81129150D01*
G37*
G04 #@! TD.AperFunction*
G04 #@! TA.AperFunction,Conductor*
G36*
X225789539Y-74166185D02*
G01*
X225835294Y-74218989D01*
X225846500Y-74270499D01*
X225846500Y-74448130D01*
X225862485Y-74528495D01*
X225914216Y-74605916D01*
X225923376Y-74619624D01*
X226014505Y-74680515D01*
X226094867Y-74696500D01*
X226519504Y-74696499D01*
X226586541Y-74716183D01*
X226632296Y-74768987D01*
X226643496Y-74821751D01*
X226642981Y-74872752D01*
X226622620Y-74939589D01*
X226569357Y-74984809D01*
X226518987Y-74995500D01*
X226094869Y-74995500D01*
X226014504Y-75011485D01*
X225994874Y-75024602D01*
X225928197Y-75045480D01*
X225925983Y-75045500D01*
X225687193Y-75045500D01*
X225670372Y-75042756D01*
X225627258Y-75044749D01*
X225613869Y-75045368D01*
X225608145Y-75045500D01*
X225589133Y-75045500D01*
X225574645Y-75047181D01*
X225547957Y-75048415D01*
X225541616Y-75051215D01*
X225514328Y-75059665D01*
X225507518Y-75060938D01*
X225484809Y-75074998D01*
X225469627Y-75083000D01*
X225445183Y-75093794D01*
X225440283Y-75098694D01*
X225417893Y-75116429D01*
X225411998Y-75120079D01*
X225395900Y-75141396D01*
X225384629Y-75154348D01*
X224855198Y-75683781D01*
X224793875Y-75717266D01*
X224767517Y-75720100D01*
X224496222Y-75720100D01*
X224429183Y-75700415D01*
X224408546Y-75683785D01*
X224264816Y-75540056D01*
X224231334Y-75478735D01*
X224228500Y-75452377D01*
X224228500Y-74788621D01*
X224248185Y-74721582D01*
X224264815Y-74700944D01*
X224710903Y-74254855D01*
X224772224Y-74221372D01*
X224841915Y-74226356D01*
X224846035Y-74227977D01*
X224887238Y-74245044D01*
X225018615Y-74262340D01*
X225043999Y-74265682D01*
X225043999Y-74265681D01*
X225044000Y-74265682D01*
X225200762Y-74245044D01*
X225346841Y-74184536D01*
X225363017Y-74172123D01*
X225428186Y-74146930D01*
X225438503Y-74146500D01*
X225722500Y-74146500D01*
X225789539Y-74166185D01*
G37*
G04 #@! TD.AperFunction*
G04 #@! TA.AperFunction,Conductor*
G36*
X202602701Y-62709514D02*
G01*
X202609169Y-62715535D01*
X202709182Y-62815547D01*
X202742666Y-62876868D01*
X202745500Y-62903227D01*
X202745500Y-64421500D01*
X202725815Y-64488539D01*
X202673011Y-64534294D01*
X202621500Y-64545500D01*
X202318017Y-64545500D01*
X202250978Y-64525815D01*
X202249128Y-64524603D01*
X202229495Y-64511485D01*
X202149134Y-64495500D01*
X201546000Y-64495500D01*
X201478961Y-64475815D01*
X201433206Y-64423011D01*
X201422000Y-64371500D01*
X201422000Y-64320499D01*
X201441685Y-64253460D01*
X201494489Y-64207705D01*
X201545998Y-64196499D01*
X202149132Y-64196499D01*
X202229495Y-64180515D01*
X202320624Y-64119624D01*
X202381515Y-64028495D01*
X202397500Y-63948133D01*
X202397499Y-63743868D01*
X202381515Y-63663505D01*
X202381514Y-63663503D01*
X202380658Y-63659199D01*
X202361563Y-63598211D01*
X202380048Y-63530831D01*
X202381499Y-63528572D01*
X202381514Y-63528496D01*
X202381515Y-63528495D01*
X202397500Y-63448133D01*
X202397499Y-63243868D01*
X202381515Y-63163505D01*
X202381514Y-63163503D01*
X202380658Y-63159199D01*
X202361563Y-63098211D01*
X202380048Y-63030831D01*
X202381499Y-63028572D01*
X202381514Y-63028496D01*
X202381515Y-63028495D01*
X202397500Y-62948133D01*
X202397499Y-62803227D01*
X202417183Y-62736188D01*
X202469987Y-62690433D01*
X202539145Y-62680489D01*
X202602701Y-62709514D01*
G37*
G04 #@! TD.AperFunction*
G04 #@! TA.AperFunction,Conductor*
G36*
X229559039Y-81807685D02*
G01*
X229604794Y-81860489D01*
X229616000Y-81912000D01*
X229616000Y-83099082D01*
X229606562Y-83146533D01*
X229602956Y-83155238D01*
X229582317Y-83312000D01*
X229602956Y-83468763D01*
X229606561Y-83477466D01*
X229616000Y-83524918D01*
X229616000Y-84877082D01*
X229606562Y-84924533D01*
X229602956Y-84933238D01*
X229582317Y-85090000D01*
X229602956Y-85246763D01*
X229606561Y-85255466D01*
X229616000Y-85302918D01*
X229616000Y-85982000D01*
X229596315Y-86049039D01*
X229543511Y-86094794D01*
X229492000Y-86106000D01*
X226438000Y-86106000D01*
X226370961Y-86086315D01*
X226325206Y-86033511D01*
X226314000Y-85982000D01*
X226314000Y-81912000D01*
X226333685Y-81844961D01*
X226386489Y-81799206D01*
X226438000Y-81788000D01*
X229492000Y-81788000D01*
X229559039Y-81807685D01*
G37*
G04 #@! TD.AperFunction*
G04 #@! TA.AperFunction,Conductor*
G36*
X225088639Y-95625285D02*
G01*
X225134394Y-95678089D01*
X225145600Y-95729600D01*
X225145600Y-96192800D01*
X225125915Y-96259839D01*
X225073111Y-96305594D01*
X225021600Y-96316800D01*
X222475600Y-96316800D01*
X222408561Y-96297115D01*
X222362806Y-96244311D01*
X222351600Y-96192800D01*
X222351600Y-95729600D01*
X222371285Y-95662561D01*
X222424089Y-95616806D01*
X222475600Y-95605600D01*
X225021600Y-95605600D01*
X225088639Y-95625285D01*
G37*
G04 #@! TD.AperFunction*
G04 #@! TA.AperFunction,Conductor*
G36*
X201482049Y-80283685D02*
G01*
X201527804Y-80336489D01*
X201537748Y-80405647D01*
X201508723Y-80469203D01*
X201449945Y-80506977D01*
X201444463Y-80508451D01*
X201442892Y-80508835D01*
X201440625Y-80509389D01*
X201359913Y-80552400D01*
X201308558Y-80596898D01*
X201308518Y-80596934D01*
X201307111Y-80598154D01*
X201305769Y-80599469D01*
X201289156Y-80615746D01*
X201244509Y-80695563D01*
X201228238Y-80750977D01*
X201224825Y-80762601D01*
X201216745Y-80818801D01*
X201216500Y-80820502D01*
X201216500Y-82172000D01*
X201196815Y-82239039D01*
X201144011Y-82284794D01*
X201092500Y-82296000D01*
X198752000Y-82296000D01*
X198684961Y-82276315D01*
X198639206Y-82223511D01*
X198628000Y-82172000D01*
X198628000Y-80388000D01*
X198647685Y-80320961D01*
X198700489Y-80275206D01*
X198752000Y-80264000D01*
X201415010Y-80264000D01*
X201482049Y-80283685D01*
G37*
G04 #@! TD.AperFunction*
G04 #@! TA.AperFunction,Conductor*
G36*
X202135038Y-80283685D02*
G01*
X202180793Y-80336489D01*
X202191999Y-80388000D01*
X202191999Y-80415679D01*
X202189617Y-80439868D01*
X202180359Y-80486415D01*
X202179326Y-80491995D01*
X202178238Y-80498351D01*
X202177381Y-80562299D01*
X202187055Y-80629586D01*
X202187059Y-80629612D01*
X202187325Y-80631458D01*
X202187703Y-80633289D01*
X202187708Y-80633313D01*
X202192417Y-80656073D01*
X202235427Y-80736786D01*
X202279926Y-80788141D01*
X202279947Y-80788164D01*
X202281182Y-80789589D01*
X202298773Y-80807543D01*
X202341048Y-80831190D01*
X202353186Y-80837980D01*
X202402084Y-80887888D01*
X202416238Y-80956309D01*
X202391154Y-81021520D01*
X202334796Y-81062818D01*
X202292651Y-81070200D01*
X202053602Y-81070200D01*
X201986563Y-81050515D01*
X201940808Y-80997711D01*
X201930864Y-80928553D01*
X201934342Y-80912243D01*
X201934795Y-80910652D01*
X201935305Y-80908669D01*
X201938118Y-80897278D01*
X201938572Y-80895235D01*
X201941587Y-80881037D01*
X201941588Y-80880999D01*
X201941590Y-80880991D01*
X201944014Y-80808899D01*
X201934070Y-80739741D01*
X201928978Y-80715126D01*
X201885968Y-80634414D01*
X201885967Y-80634412D01*
X201841468Y-80583057D01*
X201841448Y-80583035D01*
X201840213Y-80581610D01*
X201822622Y-80563656D01*
X201749940Y-80523000D01*
X201742802Y-80519007D01*
X201701829Y-80506977D01*
X201643050Y-80469203D01*
X201614025Y-80405648D01*
X201623968Y-80336489D01*
X201669723Y-80283685D01*
X201736762Y-80264000D01*
X202067999Y-80264000D01*
X202135038Y-80283685D01*
G37*
G04 #@! TD.AperFunction*
G04 #@! TA.AperFunction,Conductor*
G36*
X243857539Y-58947685D02*
G01*
X243903294Y-59000489D01*
X243914500Y-59052000D01*
X243914500Y-59204848D01*
X243894815Y-59271887D01*
X243842011Y-59317642D01*
X243814694Y-59326465D01*
X243798769Y-59329632D01*
X243732447Y-59373947D01*
X243688132Y-59440269D01*
X243676500Y-59498751D01*
X243676500Y-61443248D01*
X243688132Y-61501730D01*
X243732447Y-61568052D01*
X243798769Y-61612367D01*
X243857251Y-61624000D01*
X243857252Y-61624000D01*
X245896749Y-61624000D01*
X245925989Y-61618183D01*
X245955231Y-61612367D01*
X246021552Y-61568052D01*
X246065867Y-61501731D01*
X246077500Y-61443248D01*
X246077500Y-59498752D01*
X246065867Y-59440269D01*
X246021552Y-59373947D01*
X245955230Y-59329632D01*
X245939306Y-59326465D01*
X245877396Y-59294079D01*
X245842823Y-59233362D01*
X245839500Y-59204848D01*
X245839500Y-59052000D01*
X245859185Y-58984961D01*
X245911989Y-58939206D01*
X245963500Y-58928000D01*
X246256000Y-58928000D01*
X246323039Y-58947685D01*
X246368794Y-59000489D01*
X246380000Y-59052000D01*
X246380000Y-69472000D01*
X246360315Y-69539039D01*
X246307511Y-69584794D01*
X246256000Y-69596000D01*
X233296000Y-69596000D01*
X233228961Y-69576315D01*
X233183206Y-69523511D01*
X233172000Y-69472000D01*
X233172000Y-65657841D01*
X243676500Y-65657841D01*
X243715764Y-65867884D01*
X243792956Y-66067141D01*
X243905443Y-66248815D01*
X244049399Y-66406727D01*
X244219923Y-66535500D01*
X244411205Y-66630748D01*
X244616726Y-66689224D01*
X244653937Y-66692671D01*
X244776189Y-66704000D01*
X244779061Y-66704000D01*
X244974939Y-66704000D01*
X244977811Y-66704000D01*
X245112465Y-66691522D01*
X245137273Y-66689224D01*
X245342794Y-66630748D01*
X245344361Y-66629967D01*
X245534077Y-66535500D01*
X245704599Y-66406728D01*
X245848556Y-66248815D01*
X245961045Y-66067138D01*
X246038236Y-65867885D01*
X246077500Y-65657841D01*
X246077500Y-65444159D01*
X246038236Y-65234115D01*
X245961045Y-65034862D01*
X245954282Y-65023939D01*
X245848556Y-64853184D01*
X245704600Y-64695272D01*
X245534076Y-64566499D01*
X245342794Y-64471251D01*
X245137273Y-64412775D01*
X244980671Y-64398265D01*
X244980670Y-64398264D01*
X244977811Y-64398000D01*
X244776189Y-64398000D01*
X244773330Y-64398264D01*
X244773328Y-64398265D01*
X244616726Y-64412775D01*
X244411205Y-64471251D01*
X244219923Y-64566499D01*
X244049399Y-64695272D01*
X243905443Y-64853184D01*
X243792956Y-65034858D01*
X243774487Y-65082533D01*
X243715764Y-65234115D01*
X243676500Y-65444159D01*
X243676500Y-65657841D01*
X233172000Y-65657841D01*
X233172000Y-59052000D01*
X233191685Y-58984961D01*
X233244489Y-58939206D01*
X233296000Y-58928000D01*
X243790500Y-58928000D01*
X243857539Y-58947685D01*
G37*
G04 #@! TD.AperFunction*
G04 #@! TA.AperFunction,Conductor*
G36*
X206191039Y-98952685D02*
G01*
X206236794Y-99005489D01*
X206248000Y-99057000D01*
X206248000Y-102111000D01*
X206228315Y-102178039D01*
X206175511Y-102223794D01*
X206124000Y-102235000D01*
X204427582Y-102235000D01*
X204360543Y-102215315D01*
X204314788Y-102162511D01*
X204304844Y-102093353D01*
X204327812Y-102037367D01*
X204405960Y-101931478D01*
X204405960Y-101931477D01*
X204405962Y-101931475D01*
X204449571Y-101806849D01*
X204452346Y-101777256D01*
X204452346Y-101196744D01*
X204449571Y-101167151D01*
X204405962Y-101042525D01*
X204405960Y-101042523D01*
X204405960Y-101042521D01*
X204327557Y-100936288D01*
X204221324Y-100857885D01*
X204154131Y-100834373D01*
X204096695Y-100814275D01*
X204096693Y-100814274D01*
X204096691Y-100814274D01*
X204069989Y-100811770D01*
X204069973Y-100811769D01*
X204067102Y-100811500D01*
X203361590Y-100811500D01*
X203358719Y-100811769D01*
X203358702Y-100811770D01*
X203331998Y-100814274D01*
X203284737Y-100830812D01*
X203214958Y-100834373D01*
X203154331Y-100799644D01*
X203130349Y-100763858D01*
X203124431Y-100750455D01*
X203124431Y-100750454D01*
X203121631Y-100744113D01*
X203113178Y-100716813D01*
X203111907Y-100710013D01*
X203097848Y-100687306D01*
X203089840Y-100672114D01*
X203083565Y-100657902D01*
X203073000Y-100607817D01*
X203073000Y-99057000D01*
X203092685Y-98989961D01*
X203145489Y-98944206D01*
X203197000Y-98933000D01*
X206124000Y-98933000D01*
X206191039Y-98952685D01*
G37*
G04 #@! TD.AperFunction*
M02*
