G04 #@! TF.GenerationSoftware,KiCad,Pcbnew,7.0.2*
G04 #@! TF.CreationDate,2023-11-03T22:13:05+01:00*
G04 #@! TF.ProjectId,stm_audio_board_V2,73746d5f-6175-4646-996f-5f626f617264,rev?*
G04 #@! TF.SameCoordinates,Original*
G04 #@! TF.FileFunction,Paste,Bot*
G04 #@! TF.FilePolarity,Positive*
%FSLAX46Y46*%
G04 Gerber Fmt 4.6, Leading zero omitted, Abs format (unit mm)*
G04 Created by KiCad (PCBNEW 7.0.2) date 2023-11-03 22:13:05*
%MOMM*%
%LPD*%
G01*
G04 APERTURE LIST*
G04 Aperture macros list*
%AMRoundRect*
0 Rectangle with rounded corners*
0 $1 Rounding radius*
0 $2 $3 $4 $5 $6 $7 $8 $9 X,Y pos of 4 corners*
0 Add a 4 corners polygon primitive as box body*
4,1,4,$2,$3,$4,$5,$6,$7,$8,$9,$2,$3,0*
0 Add four circle primitives for the rounded corners*
1,1,$1+$1,$2,$3*
1,1,$1+$1,$4,$5*
1,1,$1+$1,$6,$7*
1,1,$1+$1,$8,$9*
0 Add four rect primitives between the rounded corners*
20,1,$1+$1,$2,$3,$4,$5,0*
20,1,$1+$1,$4,$5,$6,$7,0*
20,1,$1+$1,$6,$7,$8,$9,0*
20,1,$1+$1,$8,$9,$2,$3,0*%
G04 Aperture macros list end*
%ADD10RoundRect,0.225000X-0.225000X-0.375000X0.225000X-0.375000X0.225000X0.375000X-0.225000X0.375000X0*%
%ADD11RoundRect,0.237500X0.237500X-0.300000X0.237500X0.300000X-0.237500X0.300000X-0.237500X-0.300000X0*%
%ADD12RoundRect,0.237500X-0.237500X0.300000X-0.237500X-0.300000X0.237500X-0.300000X0.237500X0.300000X0*%
%ADD13RoundRect,0.237500X-0.300000X-0.237500X0.300000X-0.237500X0.300000X0.237500X-0.300000X0.237500X0*%
%ADD14RoundRect,0.250000X0.337500X0.475000X-0.337500X0.475000X-0.337500X-0.475000X0.337500X-0.475000X0*%
%ADD15RoundRect,0.250000X0.350000X0.450000X-0.350000X0.450000X-0.350000X-0.450000X0.350000X-0.450000X0*%
%ADD16R,1.600000X1.300000*%
%ADD17RoundRect,0.237500X0.300000X0.237500X-0.300000X0.237500X-0.300000X-0.237500X0.300000X-0.237500X0*%
%ADD18RoundRect,0.250001X-0.462499X-0.624999X0.462499X-0.624999X0.462499X0.624999X-0.462499X0.624999X0*%
%ADD19RoundRect,0.250000X-0.450000X0.350000X-0.450000X-0.350000X0.450000X-0.350000X0.450000X0.350000X0*%
%ADD20RoundRect,0.250000X-1.025000X0.875000X-1.025000X-0.875000X1.025000X-0.875000X1.025000X0.875000X0*%
%ADD21RoundRect,0.250000X-0.350000X-0.450000X0.350000X-0.450000X0.350000X0.450000X-0.350000X0.450000X0*%
%ADD22RoundRect,0.250001X-0.624999X0.462499X-0.624999X-0.462499X0.624999X-0.462499X0.624999X0.462499X0*%
%ADD23RoundRect,0.250000X-0.475000X0.337500X-0.475000X-0.337500X0.475000X-0.337500X0.475000X0.337500X0*%
%ADD24RoundRect,0.250000X-0.875000X-0.925000X0.875000X-0.925000X0.875000X0.925000X-0.875000X0.925000X0*%
%ADD25RoundRect,0.250000X0.450000X-0.350000X0.450000X0.350000X-0.450000X0.350000X-0.450000X-0.350000X0*%
%ADD26RoundRect,0.250000X0.475000X-0.337500X0.475000X0.337500X-0.475000X0.337500X-0.475000X-0.337500X0*%
%ADD27RoundRect,0.250000X0.875000X1.025000X-0.875000X1.025000X-0.875000X-1.025000X0.875000X-1.025000X0*%
G04 APERTURE END LIST*
D10*
X214670000Y-98075000D03*
X211370000Y-98075000D03*
X219770000Y-98025000D03*
X216470000Y-98025000D03*
X210030000Y-100425000D03*
X213330000Y-100425000D03*
X215230000Y-100475000D03*
X218530000Y-100475000D03*
D11*
X227089000Y-108985500D03*
X227089000Y-107260500D03*
D12*
X220543000Y-103238524D03*
X220543000Y-104963524D03*
D13*
X189314500Y-67885000D03*
X191039500Y-67885000D03*
D12*
X200657000Y-82378500D03*
X200657000Y-84103500D03*
D14*
X241010500Y-62163000D03*
X238935500Y-62163000D03*
D15*
X203674999Y-103569000D03*
X201674999Y-103569000D03*
D16*
X228309000Y-96595000D03*
X231609000Y-96595000D03*
X231609000Y-98595000D03*
X228309000Y-98595000D03*
D17*
X223603500Y-68346334D03*
X221878500Y-68346334D03*
D18*
X237663500Y-59817000D03*
X240638500Y-59817000D03*
D19*
X206063664Y-95711000D03*
X206063664Y-97711000D03*
D15*
X203709665Y-101537000D03*
X201709665Y-101537000D03*
D13*
X201966500Y-99315004D03*
X203691500Y-99315004D03*
D17*
X213643500Y-79177000D03*
X211918500Y-79177000D03*
D13*
X189314500Y-70431000D03*
X191039500Y-70431000D03*
D11*
X234540000Y-76447500D03*
X234540000Y-74722500D03*
D20*
X215838976Y-103913000D03*
X215838976Y-110313000D03*
D19*
X222541000Y-102901024D03*
X222541000Y-104901024D03*
D17*
X216900000Y-95600000D03*
X215175000Y-95600000D03*
D21*
X205761661Y-101409000D03*
X207761661Y-101409000D03*
D22*
X189617000Y-96439500D03*
X189617000Y-99414500D03*
D23*
X223107400Y-59338300D03*
X223107400Y-61413300D03*
D11*
X204781000Y-64941500D03*
X204781000Y-63216500D03*
D17*
X220465500Y-95583000D03*
X218740500Y-95583000D03*
D11*
X207321000Y-71753500D03*
X207321000Y-70028500D03*
D24*
X215382000Y-92710000D03*
X220482000Y-92710000D03*
D17*
X231755500Y-94385000D03*
X230030500Y-94385000D03*
D21*
X209582000Y-53594000D03*
X211582000Y-53594000D03*
D11*
X224525000Y-104963524D03*
X224525000Y-103238524D03*
D13*
X189314500Y-65339000D03*
X191039500Y-65339000D03*
X205761163Y-99451000D03*
X207486163Y-99451000D03*
X189432500Y-60267000D03*
X191157500Y-60267000D03*
D12*
X209081000Y-96506500D03*
X209081000Y-98231500D03*
D19*
X203488998Y-95711000D03*
X203488998Y-97711000D03*
D11*
X212393400Y-86910700D03*
X212393400Y-85185700D03*
D12*
X210531999Y-113501500D03*
X210531999Y-115226500D03*
D11*
X201605000Y-55223500D03*
X201605000Y-53498500D03*
D13*
X189426500Y-57727000D03*
X191151500Y-57727000D03*
D15*
X223727000Y-66384334D03*
X221727000Y-66384334D03*
D25*
X202808996Y-115127000D03*
X202808996Y-113127000D03*
D11*
X204653000Y-78195500D03*
X204653000Y-76470500D03*
D26*
X221086400Y-78960300D03*
X221086400Y-76885300D03*
D11*
X221013000Y-88023500D03*
X221013000Y-86298500D03*
D25*
X230173000Y-103225000D03*
X230173000Y-101225000D03*
D14*
X228259500Y-103322000D03*
X226184500Y-103322000D03*
D25*
X208262996Y-115241000D03*
X208262996Y-113241000D03*
D11*
X209908330Y-106429500D03*
X209908330Y-104704500D03*
D13*
X189314500Y-62793000D03*
X191039500Y-62793000D03*
D12*
X223163000Y-73552500D03*
X223163000Y-75277500D03*
D11*
X204653000Y-71561500D03*
X204653000Y-69836500D03*
D27*
X240633000Y-66257000D03*
X234233000Y-66257000D03*
D14*
X205450100Y-54178200D03*
X203375100Y-54178200D03*
D26*
X205609004Y-115210500D03*
X205609004Y-113135500D03*
D13*
X205738500Y-74575000D03*
X207463500Y-74575000D03*
D11*
X233831000Y-98361500D03*
X233831000Y-96636500D03*
D13*
X214564476Y-54315000D03*
X216289476Y-54315000D03*
D12*
X199896996Y-105748501D03*
X199896996Y-107473501D03*
D11*
X211671000Y-96033494D03*
X211671000Y-94308494D03*
D17*
X228089500Y-101297000D03*
X226364500Y-101297000D03*
D15*
X207693000Y-103377668D03*
X205693000Y-103377668D03*
M02*
